<svg width="54" height="59" viewBox="0 0 54 59" fill="none" xmlns="http://www.w3.org/2000/svg">
<path d="M43.9382 54.7485C43.9382 52.9114 41.2974 47.915 41.2974 47.915L38.3994 48.8594L37.662 49.0311C34.7297 48.4301 30.9915 48.0696 26.9102 48.0696C22.829 48.0696 19.0908 48.4301 16.1585 49.0311L15.4211 48.8594L12.5231 47.915C12.5231 47.915 9.88232 52.9285 9.88232 54.7485C9.88232 56.1907 17.5132 58.3369 26.9102 58.3369C36.3073 58.3369 43.9382 56.2079 43.9382 54.7485Z" fill="url(#paint0_linear)"/>
<path d="M14.9751 56.8613C16.8442 57.2047 19.1249 57.4966 21.6628 57.6683C22.263 54.8868 23.3605 50.749 24.7838 48.1221C22.7088 48.1907 20.7711 48.3453 19.0049 48.5856C17.3758 50.646 15.9182 54.5434 14.9751 56.8613Z" fill="url(#paint1_linear)"/>
<path d="M27.0974 58.338C36.4087 58.3208 43.9366 56.1918 43.9366 54.7495C43.9709 53.3416 42.1876 49.2725 41.2959 47.9161C40.7471 47.5899 41.2273 48.4655 41.2273 48.4655C41.2273 48.4655 40.5757 48.4655 39.5468 48.4827L38.3979 48.8604L37.6605 49.0321C36.8031 48.8604 35.8771 48.7059 34.8997 48.5685C29.4123 48.7059 22.536 48.9806 23.805 49.5128C25.2454 50.1309 26.5143 55.505 26.9602 58.338C26.9945 58.338 27.0459 58.338 27.0974 58.338Z" fill="url(#paint2_radial)"/>
<path d="M43.938 54.7485C43.938 54.6798 43.938 54.6283 43.938 54.5768C43.7837 52.6881 41.2972 47.915 41.2972 47.915L41.1429 47.9665C41.2458 48.1382 41.2972 48.3271 41.2972 48.4988C41.2972 50.4905 34.8496 52.1216 26.9101 52.1216C18.9534 52.1216 12.5229 50.5076 12.5229 48.4988C12.5229 48.3099 12.5744 48.1382 12.6773 47.9665L12.5229 47.915C12.5229 47.915 12.1285 48.6877 11.374 50.2501C14.152 52.7397 21.0283 55.3494 26.9101 55.3494C35.5526 55.3494 38.5878 52.8083 42.1203 56.0362C43.2178 55.6585 43.8522 55.2292 43.938 54.8343C43.9208 54.8 43.938 54.7828 43.938 54.7485Z" fill="url(#paint3_radial)"/>
<path d="M41.4869 48.4997C41.4869 50.4913 34.9536 52.1224 26.9112 52.1224C18.8688 52.1224 12.3354 48.4997 12.3354 48.4997C12.3354 46.508 18.8688 44.877 26.9112 44.877C34.9536 44.877 41.4869 46.508 41.4869 48.4997Z" fill="url(#paint4_linear)"/>
<path d="M26.8931 53.4788C41.4588 53.4788 53.2667 41.6561 53.2667 27.0721C53.2667 12.4882 41.4588 0.665527 26.8931 0.665527C12.3274 0.665527 0.519531 12.4882 0.519531 27.0721C0.519531 41.6561 12.3274 53.4788 26.8931 53.4788Z" fill="url(#paint5_radial)"/>
<path d="M26.8931 53.4788C41.4588 53.4788 53.2667 41.6561 53.2667 27.0721C53.2667 12.4882 41.4588 0.665527 26.8931 0.665527C12.3274 0.665527 0.519531 12.4882 0.519531 27.0721C0.519531 41.6561 12.3274 53.4788 26.8931 53.4788Z" fill="url(#paint6_radial)"/>
<path d="M26.8931 53.4788C41.4588 53.4788 53.2667 41.6561 53.2667 27.0721C53.2667 12.4882 41.4588 0.665527 26.8931 0.665527C12.3274 0.665527 0.519531 12.4882 0.519531 27.0721C0.519531 41.6561 12.3274 53.4788 26.8931 53.4788Z" fill="url(#paint7_radial)"/>
<path d="M26.8931 53.4788C41.4588 53.4788 53.2667 41.6561 53.2667 27.0721C53.2667 12.4882 41.4588 0.665527 26.8931 0.665527C12.3274 0.665527 0.519531 12.4882 0.519531 27.0721C0.519531 41.6561 12.3274 53.4788 26.8931 53.4788Z" fill="url(#paint8_radial)"/>
<path d="M26.8919 54.3201C36.8833 54.3201 44.983 42.4974 44.983 27.9135C44.983 13.3295 36.8833 1.50684 26.8919 1.50684C16.9004 1.50684 8.80078 13.3295 8.80078 27.9135C8.80078 42.4974 16.9004 54.3201 26.8919 54.3201Z" fill="url(#paint9_linear)"/>
<path d="M31.1629 49.976C43.1526 49.976 52.8722 39.7215 52.8722 27.072C52.8722 14.4224 43.1526 4.16797 31.1629 4.16797C19.1732 4.16797 9.45361 14.4224 9.45361 27.072C9.45361 39.7215 19.1732 49.976 31.1629 49.976Z" fill="url(#paint10_linear)"/>
<path d="M50.043 14.3843C48.5168 30.7296 34.7813 43.5208 18.062 43.5208C13.0548 43.5208 8.32197 42.3705 4.08643 40.3273C8.64778 48.1909 17.1703 53.4963 26.9104 53.4963C41.4861 53.4963 53.2839 41.6665 53.2839 27.0897C53.2839 22.4711 52.1007 18.1444 50.043 14.3843Z" fill="url(#paint11_linear)"/>
<path d="M28.3164 0.699707C36.8561 4.70019 42.7721 13.3708 42.7721 23.432C42.7721 37.2878 31.5573 48.5166 17.7189 48.5166C14.9753 48.5166 12.3516 48.0702 9.88232 47.2632C14.478 51.1435 20.4112 53.4957 26.8931 53.4957C41.4689 53.4957 53.2666 41.666 53.2666 27.0891C53.2838 12.9587 42.2234 1.43799 28.3164 0.699707Z" fill="url(#paint12_linear)"/>
<path d="M30.2369 5.4895C32.9634 9.66168 29.6539 16.6668 22.8461 21.1309C16.0384 25.5949 8.30465 25.8525 5.56097 21.6803C2.8173 17.5081 6.144 10.503 12.9517 6.03892C19.7595 1.57486 27.4932 1.31732 30.2369 5.4895Z" fill="url(#paint13_radial)"/>
<path d="M21.9015 48.6544C36.9402 48.6544 49.1496 36.4469 49.1496 21.3721C49.1496 16.9767 48.1035 12.8217 46.2687 9.14746C50.6243 13.8519 53.2822 20.1531 53.2822 27.0896C53.2822 41.6836 41.4673 53.4962 26.9087 53.4962C18.7462 53.4962 11.4412 49.7876 6.60547 43.95C10.9611 46.9203 16.2255 48.6544 21.9015 48.6544Z" fill="url(#paint14_radial)"/>
<path d="M27.3575 35.794C20.5498 35.794 12.1473 38.1463 7.58594 45.0655C12.4045 50.2507 19.2637 53.4957 26.8946 53.4957C41.4703 53.4957 53.2681 41.666 53.2681 27.0891C53.2681 22.007 51.8277 17.251 49.3412 13.2334C48.4153 27.2093 35.9144 35.794 27.3575 35.794Z" fill="url(#paint15_radial)"/>
<path d="M10.3467 47.6411C10.4838 47.7611 10.621 47.864 10.7581 47.9668C10.621 47.864 10.4838 47.744 10.3467 47.6411Z" fill="url(#paint16_radial)"/>
<path d="M9.89746 47.2803C10.0346 47.4003 10.1718 47.5031 10.3089 47.6231C10.1718 47.5031 10.0346 47.3831 9.89746 47.2803Z" fill="url(#paint17_radial)"/>
<path d="M17.7188 48.5165C31.5572 48.5165 42.772 37.2877 42.772 23.432C42.772 20.7536 42.3433 18.1781 41.5716 15.7744C40.7485 17.4742 39.3938 19.1911 37.3189 20.8566C26.2071 29.819 17.2044 20.187 0.553711 28.5141C0.948114 36.0344 4.49774 42.7133 9.8822 47.2632C12.3515 48.0701 14.9923 48.5165 17.7188 48.5165Z" fill="url(#paint18_linear)"/>
<path d="M9.89946 47.2637C12.3688 48.0706 14.9924 48.517 17.7361 48.517C20.051 48.517 22.2974 48.208 24.4238 47.6071C13.0204 44.3449 4.65219 33.8372 4.65219 21.3721C4.65219 16.9767 5.69821 12.8217 7.53304 9.14746C3.17746 13.8519 0.519531 20.1531 0.519531 27.0724C0.519531 36.7903 5.74965 45.272 13.552 49.8563C12.2659 49.1008 11.0312 48.2252 9.89946 47.2637Z" fill="url(#paint19_linear)"/>
<path d="M28.3164 0.699707C36.8561 4.70019 42.7721 13.3708 42.7721 23.432C42.7721 37.2878 31.5573 48.5166 17.7189 48.5166C14.9753 48.5166 12.3516 48.0702 9.88232 47.2632C14.478 51.1435 20.4112 53.4957 26.8931 53.4957C41.4689 53.4957 53.2666 41.666 53.2666 27.0891C53.2838 12.9587 42.2234 1.43799 28.3164 0.699707Z" fill="url(#paint20_linear)"/>
<path d="M26.8931 53.4788C41.4588 53.4788 53.2667 41.6561 53.2667 27.0721C53.2667 12.4882 41.4588 0.665527 26.8931 0.665527C12.3274 0.665527 0.519531 12.4882 0.519531 27.0721C0.519531 41.6561 12.3274 53.4788 26.8931 53.4788Z" fill="url(#paint21_radial)"/>
<path d="M40.3189 14.4698L42.5996 17.4229L40.9877 14.0749C41.5707 13.8173 42.2394 13.7315 42.9082 13.886C42.188 13.7143 41.5878 13.3023 41.1763 12.7528L42.994 11.345L40.9191 12.3408C40.5933 11.7055 40.4732 10.9672 40.6447 10.2289C40.4904 10.8986 40.1131 11.4651 39.6158 11.8772L37.3866 8.97559L38.9813 12.2721C38.3812 12.5468 37.6953 12.6498 36.9922 12.4781C37.7467 12.6498 38.3469 13.0962 38.7584 13.68L36.9922 15.0535L38.9985 14.0749C39.3072 14.693 39.41 15.4141 39.2386 16.1352C39.41 15.4656 39.8044 14.8818 40.3189 14.4698Z" fill="white"/>
<path d="M30.2211 36.4637L30.4268 38.4553L30.6326 36.4637C30.9756 36.5152 31.3014 36.6697 31.5586 36.9272C31.2842 36.6525 31.1299 36.292 31.0956 35.9143L32.3131 35.7941L31.0785 35.6739C31.0956 35.2962 31.2671 34.9184 31.5586 34.6265C31.3014 34.8841 30.9756 35.0386 30.6326 35.0901L30.4268 33.1328L30.2211 35.0901C29.861 35.0558 29.5352 34.9013 29.2608 34.6265C29.5523 34.9184 29.7066 35.2962 29.7238 35.6739L28.5234 35.7941L29.7066 35.9143C29.6723 36.2748 29.518 36.6354 29.2436 36.9272C29.5352 36.6525 29.8781 36.498 30.2211 36.4637Z" fill="white"/>
<path d="M8.68084 20.994L7.78914 24.2562L9.33246 21.2515C9.8469 21.5262 10.2585 21.9726 10.5157 22.5392C10.2413 21.9211 10.2242 21.2687 10.3956 20.6677L12.4019 21.2172L10.55 20.2728C10.8243 19.6891 11.3045 19.1912 11.939 18.9164C11.3731 19.174 10.7557 19.2083 10.1899 19.071L11.0644 15.8774L9.55538 18.8478C9.0238 18.5731 8.57795 18.1095 8.32073 17.5257C8.5951 18.161 8.61225 18.8478 8.42362 19.4659L6.46875 18.9336L8.26929 19.8608C7.99492 20.4274 7.53192 20.8909 6.9146 21.1657C7.46333 20.8909 8.09781 20.8566 8.68084 20.994Z" fill="white"/>
<path d="M34.3367 28.1707C34.6396 28.1707 34.8853 27.9248 34.8853 27.6215C34.8853 27.3182 34.6396 27.0723 34.3367 27.0723C34.0337 27.0723 33.7881 27.3182 33.7881 27.6215C33.7881 27.9248 34.0337 28.1707 34.3367 28.1707Z" fill="url(#paint22_radial)"/>
<path d="M28.676 6.21124C28.979 6.21124 29.2245 5.96535 29.2245 5.66202C29.2245 5.35869 28.979 5.11279 28.676 5.11279C28.373 5.11279 28.1274 5.35869 28.1274 5.66202C28.1274 5.96535 28.373 6.21124 28.676 6.21124Z" fill="url(#paint23_radial)"/>
<path d="M19.1418 25.0286C19.4448 25.0286 19.6904 24.7827 19.6904 24.4794C19.6904 24.1761 19.4448 23.9302 19.1418 23.9302C18.8389 23.9302 18.5933 24.1761 18.5933 24.4794C18.5933 24.7827 18.8389 25.0286 19.1418 25.0286Z" fill="url(#paint24_radial)"/>
<path d="M30.9743 49.7186C31.2773 49.7186 31.5229 49.4727 31.5229 49.1694C31.5229 48.866 31.2773 48.6201 30.9743 48.6201C30.6714 48.6201 30.4258 48.866 30.4258 49.1694C30.4258 49.4727 30.6714 49.7186 30.9743 49.7186Z" fill="url(#paint25_radial)"/>
<path d="M48.0867 18.8997C48.3896 18.8997 48.6353 18.6538 48.6353 18.3505C48.6353 18.0472 48.3896 17.8013 48.0867 17.8013C47.7837 17.8013 47.5381 18.0472 47.5381 18.3505C47.5381 18.6538 47.7837 18.8997 48.0867 18.8997Z" fill="url(#paint26_radial)"/>
<path d="M10.551 38.6615C10.854 38.6615 11.0996 38.4156 11.0996 38.1122C11.0996 37.8089 10.854 37.563 10.551 37.563C10.248 37.563 10.0024 37.8089 10.0024 38.1122C10.0024 38.4156 10.248 38.6615 10.551 38.6615Z" fill="url(#paint27_radial)"/>
<path d="M23.6335 14.1434C23.9365 14.1434 24.1821 13.8975 24.1821 13.5942C24.1821 13.2908 23.9365 13.0449 23.6335 13.0449C23.3306 13.0449 23.085 13.2908 23.085 13.5942C23.085 13.8975 23.3306 14.1434 23.6335 14.1434Z" fill="url(#paint28_radial)"/>
<path d="M23.6335 45.7352C23.9365 45.7352 24.1821 45.4893 24.1821 45.1859C24.1821 44.8826 23.9365 44.6367 23.6335 44.6367C23.3306 44.6367 23.085 44.8826 23.085 45.1859C23.085 45.4893 23.3306 45.7352 23.6335 45.7352Z" fill="url(#paint29_radial)"/>
<path d="M46.2546 37.5795C46.5576 37.5795 46.8032 37.3336 46.8032 37.0302C46.8032 36.7269 46.5576 36.481 46.2546 36.481C45.9517 36.481 45.7061 36.7269 45.7061 37.0302C45.7061 37.3336 45.9517 37.5795 46.2546 37.5795Z" fill="url(#paint30_radial)"/>
<path d="M39.4109 22.1103C39.7138 22.1103 39.9594 21.8644 39.9594 21.561C39.9594 21.2576 39.7138 21.0117 39.4109 21.0117C39.1079 21.0117 38.8623 21.2576 38.8623 21.561C38.8623 21.8644 39.1079 22.1103 39.4109 22.1103Z" fill="url(#paint31_radial)"/>
<path d="M41.8445 7.51544C42.1475 7.51544 42.3931 7.26955 42.3931 6.96622C42.3931 6.66289 42.1475 6.41699 41.8445 6.41699C41.5415 6.41699 41.2959 6.66289 41.2959 6.96622C41.2959 7.26955 41.5415 7.51544 41.8445 7.51544Z" fill="url(#paint32_radial)"/>
<path opacity="0.5" d="M16.1577 42.1292C16.8583 42.1292 17.4263 41.5605 17.4263 40.859C17.4263 40.1575 16.8583 39.5889 16.1577 39.5889C15.4571 39.5889 14.8892 40.1575 14.8892 40.859C14.8892 41.5605 15.4571 42.1292 16.1577 42.1292Z" fill="url(#paint33_radial)"/>
<path opacity="0.5" d="M15.4033 13.2161C16.1039 13.2161 16.6719 12.6474 16.6719 11.946C16.6719 11.2445 16.1039 10.6758 15.4033 10.6758C14.7027 10.6758 14.1348 11.2445 14.1348 11.946C14.1348 12.6474 14.7027 13.2161 15.4033 13.2161Z" fill="url(#paint34_radial)"/>
<path opacity="0.5" d="M28.2832 20.5648C28.9839 20.5648 29.5518 19.9961 29.5518 19.2946C29.5518 18.5931 28.9839 18.0244 28.2832 18.0244C27.5826 18.0244 27.0146 18.5931 27.0146 19.2946C27.0146 19.9961 27.5826 20.5648 28.2832 20.5648Z" fill="url(#paint35_radial)"/>
<path opacity="0.5" d="M47.5371 28.7029C48.2378 28.7029 48.8057 28.1343 48.8057 27.4328C48.8057 26.7313 48.2378 26.1626 47.5371 26.1626C46.8365 26.1626 46.2686 26.7313 46.2686 27.4328C46.2686 28.1343 46.8365 28.7029 47.5371 28.7029Z" fill="url(#paint36_radial)"/>
<path opacity="0.5" d="M39.9937 43.5203C40.6943 43.5203 41.2623 42.9516 41.2623 42.2501C41.2623 41.5486 40.6943 40.98 39.9937 40.98C39.2931 40.98 38.7251 41.5486 38.7251 42.2501C38.7251 42.9516 39.2931 43.5203 39.9937 43.5203Z" fill="url(#paint37_radial)"/>
<path opacity="0.5" d="M5.16603 30.7806C5.86664 30.7806 6.4346 30.2119 6.4346 29.5104C6.4346 28.8089 5.86664 28.2402 5.16603 28.2402C4.46542 28.2402 3.89746 28.8089 3.89746 29.5104C3.89746 30.2119 4.46542 30.7806 5.16603 30.7806Z" fill="url(#paint38_radial)"/>
<defs>
<linearGradient id="paint0_linear" x1="8.46378" y1="53.9606" x2="65.0392" y2="50.137" gradientUnits="userSpaceOnUse">
<stop stop-color="#FFBC47"/>
<stop offset="0.9996" stop-color="#FF8000"/>
</linearGradient>
<linearGradient id="paint1_linear" x1="23.1919" y1="53.8149" x2="17.719" y2="51.6165" gradientUnits="userSpaceOnUse">
<stop stop-color="#FDBC2B" stop-opacity="0"/>
<stop offset="0.2611" stop-color="#FCCC37" stop-opacity="0.5328"/>
<stop offset="0.6488" stop-color="#FCCE38"/>
<stop offset="0.7345" stop-color="#FCCC31" stop-opacity="0.756"/>
<stop offset="0.8568" stop-color="#FAC71F" stop-opacity="0.4079"/>
<stop offset="1" stop-color="#F8BE00" stop-opacity="0"/>
</linearGradient>
<radialGradient id="paint2_radial" cx="0" cy="0" r="1" gradientUnits="userSpaceOnUse" gradientTransform="translate(17.1123 60.0448) rotate(-18.7758) scale(37.627 25.7918)">
<stop offset="0.3018" stop-color="#C86F34" stop-opacity="0"/>
<stop offset="0.4439" stop-color="#AD5B24" stop-opacity="0.5"/>
<stop offset="0.6318" stop-color="#A3541E" stop-opacity="0.75"/>
<stop offset="0.7729" stop-color="#C86F34" stop-opacity="0"/>
</radialGradient>
<radialGradient id="paint3_radial" cx="0" cy="0" r="1" gradientUnits="userSpaceOnUse" gradientTransform="translate(25.8722 5.57913) scale(57.4189 57.491)">
<stop stop-color="#C76E33" stop-opacity="0.1634"/>
<stop offset="0.9646" stop-color="#AD5B24" stop-opacity="0.5"/>
<stop offset="1" stop-color="#C86F34" stop-opacity="0"/>
</radialGradient>
<linearGradient id="paint4_linear" x1="27.3983" y1="52.9145" x2="26.6221" y2="46.0147" gradientUnits="userSpaceOnUse">
<stop stop-color="#A3541E"/>
<stop offset="0.9996" stop-color="#643800"/>
</linearGradient>
<radialGradient id="paint5_radial" cx="0" cy="0" r="1" gradientUnits="userSpaceOnUse" gradientTransform="translate(24.063 26.5107) scale(28.8529 28.8891)">
<stop stop-color="#D1F2FF"/>
<stop offset="0.1112" stop-color="#CBF0FF"/>
<stop offset="0.2664" stop-color="#B8EBFF"/>
<stop offset="0.4474" stop-color="#9BE2FF"/>
<stop offset="0.6479" stop-color="#71D6FE"/>
<stop offset="0.8621" stop-color="#3DC6FE"/>
<stop offset="1" stop-color="#17BBFE"/>
</radialGradient>
<radialGradient id="paint6_radial" cx="0" cy="0" r="1" gradientUnits="userSpaceOnUse" gradientTransform="translate(-11.1813 1.94359) scale(58.4775 58.5508)">
<stop stop-color="#E100FF" stop-opacity="0"/>
<stop offset="0.1148" stop-color="#DB00FD" stop-opacity="0.08613"/>
<stop offset="0.2751" stop-color="#C800F7" stop-opacity="0.2063"/>
<stop offset="0.4621" stop-color="#AB00EC" stop-opacity="0.3466"/>
<stop offset="0.6692" stop-color="#8100DE" stop-opacity="0.5019"/>
<stop offset="0.8904" stop-color="#4D00CC" stop-opacity="0.6678"/>
<stop offset="1" stop-color="#3000C2" stop-opacity="0.75"/>
</radialGradient>
<radialGradient id="paint7_radial" cx="0" cy="0" r="1" gradientUnits="userSpaceOnUse" gradientTransform="translate(19.8791 18.2743) scale(37.2639 37.3106)">
<stop stop-color="#D1F2FF"/>
<stop offset="0.1913" stop-color="#CBF0FF" stop-opacity="0.9522"/>
<stop offset="0.458" stop-color="#B8EBFF" stop-opacity="0.8855"/>
<stop offset="0.7676" stop-color="#9BE2FE" stop-opacity="0.8081"/>
<stop offset="1" stop-color="#80DAFE" stop-opacity="0.75"/>
</radialGradient>
<radialGradient id="paint8_radial" cx="0" cy="0" r="1" gradientUnits="userSpaceOnUse" gradientTransform="translate(26.4387 26.4397) scale(27.3375 27.3718)">
<stop offset="0.873" stop-color="#3640FF" stop-opacity="0"/>
<stop offset="0.9013" stop-color="#353AF9" stop-opacity="0.1673"/>
<stop offset="0.9408" stop-color="#3427E8" stop-opacity="0.4006"/>
<stop offset="0.9867" stop-color="#310ACB" stop-opacity="0.6715"/>
<stop offset="1" stop-color="#3000C2" stop-opacity="0.75"/>
</radialGradient>
<linearGradient id="paint9_linear" x1="16.2122" y1="35.1781" x2="63.1945" y2="3.28148" gradientUnits="userSpaceOnUse">
<stop offset="0.0322279" stop-color="#80DAFE" stop-opacity="0"/>
<stop offset="1" stop-color="#9F00E8"/>
</linearGradient>
<linearGradient id="paint10_linear" x1="6.93425" y1="4.98724" x2="86.2717" y2="77.17" gradientUnits="userSpaceOnUse">
<stop stop-color="#80DAFE" stop-opacity="0"/>
<stop offset="1" stop-color="#008EE6"/>
</linearGradient>
<linearGradient id="paint11_linear" x1="31.9372" y1="33.6765" x2="51.1132" y2="57.51" gradientUnits="userSpaceOnUse">
<stop stop-color="#B64AE8" stop-opacity="0"/>
<stop offset="1" stop-color="#7000A3"/>
</linearGradient>
<linearGradient id="paint12_linear" x1="29.9427" y1="28.1536" x2="61.949" y2="7.1735" gradientUnits="userSpaceOnUse">
<stop stop-color="#80DAFE" stop-opacity="0"/>
<stop offset="1" stop-color="#008EE6"/>
</linearGradient>
<radialGradient id="paint13_radial" cx="0" cy="0" r="1" gradientUnits="userSpaceOnUse" gradientTransform="translate(17.8959 13.5788) rotate(-33.2828) scale(12.2295 12.2356)">
<stop stop-color="white"/>
<stop offset="1" stop-color="white" stop-opacity="0"/>
</radialGradient>
<radialGradient id="paint14_radial" cx="0" cy="0" r="1" gradientUnits="userSpaceOnUse" gradientTransform="translate(2.64866 2.91238) scale(59.6517 59.7265)">
<stop stop-color="#FF7AD3"/>
<stop offset="0.9987" stop-color="#3000C2" stop-opacity="0"/>
</radialGradient>
<radialGradient id="paint15_radial" cx="0" cy="0" r="1" gradientUnits="userSpaceOnUse" gradientTransform="translate(19.0296 -3.16879) scale(43.6549 43.7095)">
<stop stop-color="#7000A3"/>
<stop offset="1" stop-color="#B64AE8" stop-opacity="0"/>
</radialGradient>
<radialGradient id="paint16_radial" cx="0" cy="0" r="1" gradientUnits="userSpaceOnUse" gradientTransform="translate(10.5144 47.6454) scale(0.270882)">
<stop stop-color="#FB9DC1"/>
<stop offset="0.1456" stop-color="#F5A0C4" stop-opacity="0.8544"/>
<stop offset="0.3488" stop-color="#E2A9CD" stop-opacity="0.6512"/>
<stop offset="0.5857" stop-color="#C5B8DC" stop-opacity="0.4143"/>
<stop offset="0.8461" stop-color="#9CCCF0" stop-opacity="0.1539"/>
<stop offset="1" stop-color="#80DAFE" stop-opacity="0"/>
</radialGradient>
<radialGradient id="paint17_radial" cx="0" cy="0" r="1" gradientUnits="userSpaceOnUse" gradientTransform="translate(10.0687 47.2833) scale(0.271703)">
<stop stop-color="#FB9DC1"/>
<stop offset="0.1456" stop-color="#F5A0C4" stop-opacity="0.8544"/>
<stop offset="0.3488" stop-color="#E2A9CD" stop-opacity="0.6512"/>
<stop offset="0.5857" stop-color="#C5B8DC" stop-opacity="0.4143"/>
<stop offset="0.8461" stop-color="#9CCCF0" stop-opacity="0.1539"/>
<stop offset="1" stop-color="#80DAFE" stop-opacity="0"/>
</radialGradient>
<linearGradient id="paint18_linear" x1="7.37731" y1="16.4513" x2="74.7747" y2="71.6416" gradientUnits="userSpaceOnUse">
<stop stop-color="#80DAFE" stop-opacity="0"/>
<stop offset="1" stop-color="#008EE6"/>
</linearGradient>
<linearGradient id="paint19_linear" x1="15.8085" y1="23.6967" x2="1.02404" y2="75.8033" gradientUnits="userSpaceOnUse">
<stop stop-color="#80DAFE" stop-opacity="0"/>
<stop offset="1" stop-color="#008EE6"/>
</linearGradient>
<linearGradient id="paint20_linear" x1="32.0353" y1="29.5829" x2="73.3271" y2="49.6715" gradientUnits="userSpaceOnUse">
<stop stop-color="#80DAFE" stop-opacity="0"/>
<stop offset="1" stop-color="#008EE6"/>
</linearGradient>
<radialGradient id="paint21_radial" cx="0" cy="0" r="1" gradientUnits="userSpaceOnUse" gradientTransform="translate(27.1124 16.4282) scale(41.2779 41.3296)">
<stop stop-color="#E100FF" stop-opacity="0"/>
<stop offset="0.1148" stop-color="#DB00FD" stop-opacity="0.08613"/>
<stop offset="0.2751" stop-color="#C800F7" stop-opacity="0.2063"/>
<stop offset="0.4621" stop-color="#AB00EC" stop-opacity="0.3466"/>
<stop offset="0.6692" stop-color="#8100DE" stop-opacity="0.5019"/>
<stop offset="0.8904" stop-color="#4D00CC" stop-opacity="0.6678"/>
<stop offset="1" stop-color="#3000C2" stop-opacity="0.75"/>
</radialGradient>
<radialGradient id="paint22_radial" cx="0" cy="0" r="1" gradientUnits="userSpaceOnUse" gradientTransform="translate(34.3287 27.6148) scale(0.560241 0.560896)">
<stop stop-color="white"/>
<stop offset="1" stop-color="white" stop-opacity="0"/>
</radialGradient>
<radialGradient id="paint23_radial" cx="0" cy="0" r="1" gradientUnits="userSpaceOnUse" gradientTransform="translate(28.6771 5.6526) scale(0.56021 0.560896)">
<stop stop-color="white"/>
<stop offset="1" stop-color="white" stop-opacity="0"/>
</radialGradient>
<radialGradient id="paint24_radial" cx="0" cy="0" r="1" gradientUnits="userSpaceOnUse" gradientTransform="translate(19.1341 24.4632) scale(0.560226 0.560896)">
<stop stop-color="white"/>
<stop offset="1" stop-color="white" stop-opacity="0"/>
</radialGradient>
<radialGradient id="paint25_radial" cx="0" cy="0" r="1" gradientUnits="userSpaceOnUse" gradientTransform="translate(30.9801 49.1551) scale(0.56021 0.560927)">
<stop stop-color="white"/>
<stop offset="1" stop-color="white" stop-opacity="0"/>
</radialGradient>
<radialGradient id="paint26_radial" cx="0" cy="0" r="1" gradientUnits="userSpaceOnUse" gradientTransform="translate(48.0814 18.3355) scale(0.560241 0.560896)">
<stop stop-color="white"/>
<stop offset="1" stop-color="white" stop-opacity="0"/>
</radialGradient>
<radialGradient id="paint27_radial" cx="0" cy="0" r="1" gradientUnits="userSpaceOnUse" gradientTransform="translate(10.5508 38.1018) scale(0.560226 0.560927)">
<stop stop-color="white"/>
<stop offset="1" stop-color="white" stop-opacity="0"/>
</radialGradient>
<radialGradient id="paint28_radial" cx="0" cy="0" r="1" gradientUnits="userSpaceOnUse" gradientTransform="translate(23.6277 13.5766) scale(0.560226 0.560927)">
<stop stop-color="white"/>
<stop offset="1" stop-color="white" stop-opacity="0"/>
</radialGradient>
<radialGradient id="paint29_radial" cx="0" cy="0" r="1" gradientUnits="userSpaceOnUse" gradientTransform="translate(23.6277 45.1815) scale(0.560226 0.560896)">
<stop stop-color="white"/>
<stop offset="1" stop-color="white" stop-opacity="0"/>
</radialGradient>
<radialGradient id="paint30_radial" cx="0" cy="0" r="1" gradientUnits="userSpaceOnUse" gradientTransform="translate(46.2607 37.0266) scale(0.560241 0.560927)">
<stop stop-color="white"/>
<stop offset="1" stop-color="white" stop-opacity="0"/>
</radialGradient>
<radialGradient id="paint31_radial" cx="0" cy="0" r="1" gradientUnits="userSpaceOnUse" gradientTransform="translate(39.4188 21.5574) scale(0.56021 0.560958)">
<stop stop-color="white"/>
<stop offset="1" stop-color="white" stop-opacity="0"/>
</radialGradient>
<radialGradient id="paint32_radial" cx="0" cy="0" r="1" gradientUnits="userSpaceOnUse" gradientTransform="translate(41.8368 6.95247) scale(0.560241 0.560896)">
<stop stop-color="white"/>
<stop offset="1" stop-color="white" stop-opacity="0"/>
</radialGradient>
<radialGradient id="paint33_radial" cx="0" cy="0" r="1" gradientUnits="userSpaceOnUse" gradientTransform="translate(16.1554 40.8261) scale(1.30721 1.30883)">
<stop stop-color="white"/>
<stop offset="1" stop-color="white" stop-opacity="0"/>
</radialGradient>
<radialGradient id="paint34_radial" cx="0" cy="0" r="1" gradientUnits="userSpaceOnUse" gradientTransform="translate(15.4109 11.9111) scale(1.30721 1.30886)">
<stop stop-color="white"/>
<stop offset="1" stop-color="white" stop-opacity="0"/>
</radialGradient>
<radialGradient id="paint35_radial" cx="0" cy="0" r="1" gradientUnits="userSpaceOnUse" gradientTransform="translate(28.2836 19.2678) scale(1.30723 1.30886)">
<stop stop-color="white"/>
<stop offset="1" stop-color="white" stop-opacity="0"/>
</radialGradient>
<radialGradient id="paint36_radial" cx="0" cy="0" r="1" gradientUnits="userSpaceOnUse" gradientTransform="translate(47.5336 27.4099) scale(1.30723 1.30886)">
<stop stop-color="white"/>
<stop offset="1" stop-color="white" stop-opacity="0"/>
</radialGradient>
<radialGradient id="paint37_radial" cx="0" cy="0" r="1" gradientUnits="userSpaceOnUse" gradientTransform="translate(39.996 42.2289) scale(1.30723 1.30883)">
<stop stop-color="white"/>
<stop offset="1" stop-color="white" stop-opacity="0"/>
</radialGradient>
<radialGradient id="paint38_radial" cx="0" cy="0" r="1" gradientUnits="userSpaceOnUse" gradientTransform="translate(5.16049 29.4758) scale(1.30721 1.30886)">
<stop stop-color="white"/>
<stop offset="1" stop-color="white" stop-opacity="0"/>
</radialGradient>
</defs>
</svg>
