<svg width="40" height="40" viewBox="0 0 40 40" fill="none" xmlns="http://www.w3.org/2000/svg">
<g clip-path="url(#clip0)">
<path d="M13.6917 36.875H4.81968C4.15257 36.875 3.75034 36.5027 3.56968 36.2808C3.25809 35.8975 3.13755 35.3989 3.23887 34.9121C4.86149 27.1179 11.7398 21.4264 19.6805 21.2418C19.8124 21.2466 19.9448 21.25 20.0782 21.25C25.9366 21.25 30.7032 16.4838 30.7032 10.625C30.7032 4.76624 25.9366 0 20.0782 0C14.2194 0 9.45316 4.76624 9.45316 10.625C9.45316 14.1022 11.1322 17.1948 13.7223 19.1342C11.3495 19.9152 9.12296 21.1301 7.17411 22.7328C3.60142 25.6717 1.11729 29.7708 0.179481 34.2752C-0.114403 35.6866 0.23777 37.1362 1.14536 38.2526C2.04838 39.3631 3.38779 40 4.81968 40H13.6917C14.5545 40 15.2542 39.3005 15.2542 38.4375C15.2542 37.5745 14.5545 36.875 13.6917 36.875ZM12.5782 10.625C12.5782 6.48956 15.9424 3.125 20.0782 3.125C24.2136 3.125 27.5782 6.48956 27.5782 10.625C27.5782 14.7012 24.3094 18.0283 20.2555 18.1229C20.1972 18.1161 20.1383 18.1119 20.0782 18.1119C19.9561 18.1119 19.8343 18.1137 19.7126 18.1158C15.7462 17.9248 12.5782 14.6381 12.5782 10.625ZM36.1917 24.0625H23.4174C21.2748 24.0625 19.5313 25.806 19.5313 27.9486V36.1139C19.5313 38.2565 21.2748 40 23.4174 40H36.1917C38.3347 40 40.0782 38.2565 40.0782 36.1139V27.9486C40.0782 25.806 38.3347 24.0625 36.1917 24.0625ZM36.0617 27.1875L30.0898 30.9009C29.8417 31.055 29.5337 31.055 29.2856 30.9009L23.3237 27.1939C23.3545 27.1899 23.3857 27.1875 23.4174 27.1875H36.0617ZM36.1917 36.875H23.4174C22.9978 36.875 22.656 36.5335 22.656 36.1139V30.4587L27.6355 33.5547C28.2685 33.9481 28.978 34.1449 29.6875 34.1449C30.3971 34.1449 31.1069 33.9481 31.7398 33.5547L36.9532 30.3131V36.1139C36.9532 36.5335 36.6114 36.875 36.1917 36.875Z" fill="#8F4EEA"/>
</g>
<defs>
<clipPath id="clip0">
<rect width="40" height="40" fill="white"/>
</clipPath>
</defs>
</svg>
