<svg width="40" height="40" viewBox="0 0 40 40" fill="none" xmlns="http://www.w3.org/2000/svg">
<g clip-path="url(#clip0)">
<path d="M25.5429 11.1719C25.5429 9.44611 26.9418 8.04688 28.6679 8.04688C30.3937 8.04688 31.7929 9.44611 31.7929 11.1719C31.7929 12.8976 30.3937 14.2969 28.6679 14.2969C26.9418 14.2969 25.5429 12.8976 25.5429 11.1719ZM21.4001 37.7115L26.1804 32.93C26.7905 32.3196 26.7902 31.3306 26.1801 30.7205C25.5698 30.1102 24.5804 30.1105 23.9703 30.7208L19.1901 35.502C18.3047 36.3873 17.1277 36.875 15.8755 36.875C14.6234 36.875 13.4464 36.3873 12.561 35.502L4.49402 27.435C2.66754 25.6085 2.66632 22.6355 4.49188 20.8075L22.1457 3.125H33.746C35.4691 3.125 36.871 4.52698 36.871 6.25V17.8143L29.5685 25.1199C28.9584 25.7303 28.9587 26.7197 29.5691 27.3297C30.1794 27.9398 31.1688 27.9395 31.7789 27.3294L39.5386 19.566C39.8315 19.2731 39.996 18.8757 39.996 18.4613V6.25C39.996 2.80365 37.1921 0 33.746 0H21.4978C21.0831 0 20.6851 0.1651 20.3922 0.458374L2.28058 18.5995C-0.761718 21.6458 -0.759887 26.6003 2.28424 29.6445L10.3513 37.7118C11.8268 39.1873 13.7888 40 15.8755 40C17.9623 40 19.9243 39.1873 21.4001 37.7115Z" fill="#8F4EEA"/>
</g>
<defs>
<clipPath id="clip0">
<rect width="40" height="40" fill="white"/>
</clipPath>
</defs>
</svg>
