<svg width="214" height="136" viewBox="0 0 214 136" fill="none" xmlns="http://www.w3.org/2000/svg">
<rect y="36" width="113" height="28" rx="14" fill="#F3FDFA"/>
<path d="M13.204 45.228H14.786V49.344H16.48L18.216 46.292C18.4307 45.9093 18.6547 45.6387 18.888 45.48C19.1307 45.312 19.4247 45.228 19.77 45.228H20.512V46.628H19.63L18.23 49.092C18.0713 49.3627 17.922 49.5587 17.782 49.68C17.6513 49.8013 17.488 49.8947 17.292 49.96V50.03C17.516 50.0767 17.7073 50.156 17.866 50.268C18.0247 50.38 18.188 50.5853 18.356 50.884L19.91 53.6H20.764V55H19.798C19.49 55 19.224 54.9253 19 54.776C18.776 54.6173 18.552 54.342 18.328 53.95L16.48 50.73H14.786V55H13.204V45.228ZM25.0808 55.168C24.5768 55.168 24.1148 55.0793 23.6948 54.902C23.2841 54.7247 22.9341 54.4727 22.6448 54.146C22.3555 53.81 22.1315 53.4087 21.9728 52.942C21.8141 52.466 21.7348 51.9387 21.7348 51.36C21.7348 50.7813 21.8141 50.2587 21.9728 49.792C22.1315 49.316 22.3555 48.9147 22.6448 48.588C22.9341 48.252 23.2841 47.9953 23.6948 47.818C24.1148 47.6407 24.5768 47.552 25.0808 47.552C25.5848 47.552 26.0421 47.6407 26.4528 47.818C26.8728 47.9953 27.2275 48.252 27.5168 48.588C27.8061 48.9147 28.0301 49.316 28.1888 49.792C28.3475 50.2587 28.4268 50.7813 28.4268 51.36C28.4268 51.9387 28.3475 52.466 28.1888 52.942C28.0301 53.4087 27.8061 53.81 27.5168 54.146C27.2275 54.4727 26.8728 54.7247 26.4528 54.902C26.0421 55.0793 25.5848 55.168 25.0808 55.168ZM25.0808 53.908C25.6035 53.908 26.0235 53.7493 26.3408 53.432C26.6581 53.1053 26.8168 52.62 26.8168 51.976V50.744C26.8168 50.1 26.6581 49.6193 26.3408 49.302C26.0235 48.9753 25.6035 48.812 25.0808 48.812C24.5581 48.812 24.1381 48.9753 23.8208 49.302C23.5035 49.6193 23.3448 50.1 23.3448 50.744V51.976C23.3448 52.62 23.5035 53.1053 23.8208 53.432C24.1381 53.7493 24.5581 53.908 25.0808 53.908ZM32.9412 55.168C32.4185 55.168 31.9518 55.0793 31.5412 54.902C31.1305 54.7247 30.7852 54.4727 30.5052 54.146C30.2252 53.81 30.0105 53.4087 29.8612 52.942C29.7118 52.466 29.6372 51.9387 29.6372 51.36C29.6372 50.7813 29.7118 50.2587 29.8612 49.792C30.0105 49.316 30.2252 48.9147 30.5052 48.588C30.7852 48.252 31.1305 47.9953 31.5412 47.818C31.9518 47.6407 32.4185 47.552 32.9412 47.552C33.6692 47.552 34.2665 47.7153 34.7332 48.042C35.1998 48.3687 35.5405 48.8027 35.7552 49.344L34.4952 49.932C34.3925 49.596 34.2105 49.33 33.9492 49.134C33.6972 48.9287 33.3612 48.826 32.9412 48.826C32.3812 48.826 31.9565 49.0033 31.6672 49.358C31.3872 49.7033 31.2472 50.156 31.2472 50.716V52.018C31.2472 52.578 31.3872 53.0353 31.6672 53.39C31.9565 53.7353 32.3812 53.908 32.9412 53.908C33.3892 53.908 33.7438 53.8007 34.0052 53.586C34.2758 53.362 34.4905 53.068 34.6492 52.704L35.8112 53.32C35.5685 53.9173 35.2045 54.3747 34.7192 54.692C34.2338 55.0093 33.6412 55.168 32.9412 55.168ZM37.2639 47.72H39.1119L41.1699 51.164H41.1979L43.2559 47.72H45.0199V55H43.5219V49.596H43.4659L42.9899 50.492L41.1419 53.572L39.2939 50.492L38.8179 49.596H38.7619V55H37.2639V47.72ZM50.0593 55.168C49.5367 55.168 49.07 55.0793 48.6593 54.902C48.2487 54.7247 47.8987 54.4727 47.6093 54.146C47.32 53.81 47.096 53.4087 46.9373 52.942C46.788 52.466 46.7133 51.9387 46.7133 51.36C46.7133 50.7813 46.788 50.2587 46.9373 49.792C47.096 49.316 47.32 48.9147 47.6093 48.588C47.8987 48.252 48.2487 47.9953 48.6593 47.818C49.07 47.6407 49.5367 47.552 50.0593 47.552C50.5913 47.552 51.058 47.6453 51.4593 47.832C51.87 48.0187 52.2107 48.28 52.4813 48.616C52.752 48.9427 52.9527 49.3253 53.0833 49.764C53.2233 50.2027 53.2933 50.674 53.2933 51.178V51.752H48.2953V51.99C48.2953 52.55 48.4587 53.012 48.7853 53.376C49.1213 53.7307 49.5973 53.908 50.2133 53.908C50.6613 53.908 51.0393 53.81 51.3473 53.614C51.6553 53.418 51.9167 53.152 52.1313 52.816L53.0273 53.698C52.7567 54.146 52.3647 54.5053 51.8513 54.776C51.338 55.0373 50.7407 55.168 50.0593 55.168ZM50.0593 48.742C49.798 48.742 49.5553 48.7887 49.3313 48.882C49.1167 48.9753 48.93 49.106 48.7713 49.274C48.622 49.442 48.5053 49.6427 48.4213 49.876C48.3373 50.1093 48.2953 50.366 48.2953 50.646V50.744H51.6833V50.604C51.6833 50.044 51.5387 49.596 51.2493 49.26C50.96 48.9147 50.5633 48.742 50.0593 48.742ZM56.3579 48.966H54.0339V47.72H60.2079V48.966H57.8839V55H56.3579V48.966ZM61.5861 47.72H63.0841V51.276L62.9441 52.998H63.0001L63.8681 51.444L66.3881 47.72H67.7741V55H66.2761V51.444L66.4161 49.722H66.3601L65.4921 51.276L62.9721 55H61.5861V47.72ZM69.9533 47.72H71.4793V50.66H72.7673L73.9713 48.63C74.1767 48.2847 74.382 48.0467 74.5873 47.916C74.7927 47.7853 75.054 47.72 75.3713 47.72H76.1133V48.966H75.3013L74.3773 50.506C74.2373 50.7487 74.1113 50.9167 73.9993 51.01C73.8967 51.1033 73.7567 51.1733 73.5793 51.22V51.276C73.766 51.3133 73.9293 51.3833 74.0693 51.486C74.2093 51.5793 74.3447 51.7473 74.4753 51.99L75.4553 53.754H76.2533V55H75.3853C75.0773 55 74.8113 54.93 74.5873 54.79C74.3727 54.65 74.1673 54.4027 73.9713 54.048L72.7673 51.892H71.4793V55H69.9533V47.72ZM83.1076 55C82.7063 55 82.3983 54.888 82.1836 54.664C81.969 54.4307 81.8383 54.1367 81.7916 53.782H81.7216C81.5816 54.2393 81.325 54.5847 80.9516 54.818C80.5783 55.0513 80.1256 55.168 79.5936 55.168C78.8376 55.168 78.2543 54.972 77.8436 54.58C77.4423 54.188 77.2416 53.6607 77.2416 52.998C77.2416 52.27 77.503 51.724 78.0256 51.36C78.5576 50.996 79.3323 50.814 80.3496 50.814H81.6656V50.198C81.6656 49.75 81.5443 49.4047 81.3016 49.162C81.059 48.9193 80.681 48.798 80.1676 48.798C79.7383 48.798 79.3883 48.8913 79.1176 49.078C78.847 49.2647 78.6183 49.5027 78.4316 49.792L77.5216 48.966C77.7643 48.5553 78.105 48.2193 78.5436 47.958C78.9823 47.6873 79.5563 47.552 80.2656 47.552C81.2083 47.552 81.9316 47.7713 82.4356 48.21C82.9396 48.6487 83.1916 49.2787 83.1916 50.1V53.754H83.9616V55H83.1076ZM80.0276 54.006C80.5036 54.006 80.8956 53.9033 81.2036 53.698C81.5116 53.4833 81.6656 53.1987 81.6656 52.844V51.794H80.3776C79.323 51.794 78.7956 52.1207 78.7956 52.774V53.026C78.7956 53.3527 78.903 53.6 79.1176 53.768C79.3416 53.9267 79.645 54.006 80.0276 54.006Z" fill="#00966D"/>
<path d="M93.1674 47.9755C92.9442 47.7523 92.9442 47.3905 93.1674 47.1674C93.3905 46.9442 93.7523 46.9442 93.9755 47.1674L100.833 54.0245C101.056 54.2477 101.056 54.6095 100.833 54.8326C100.609 55.0558 100.248 55.0558 100.025 54.8326L93.1674 47.9755Z" fill="#00966D"/>
<path d="M100.833 47.9755C101.056 47.7523 101.056 47.3905 100.833 47.1674C100.609 46.9442 100.248 46.9442 100.025 47.1674L93.1674 54.0245C92.9442 54.2477 92.9442 54.6095 93.1674 54.8326C93.3905 55.0558 93.7523 55.0558 93.9755 54.8326L100.833 47.9755Z" fill="#00966D"/>
<rect x="110" y="36" width="104" height="28" rx="14" fill="#F3FDFA"/>
<path d="M123.204 45.228H124.786V53.6H128.118V45.228H129.7V53.6H133.032V45.228H134.614V55H123.204V45.228ZM142.248 55C141.847 55 141.539 54.888 141.324 54.664C141.11 54.4307 140.979 54.1367 140.932 53.782H140.862C140.722 54.2393 140.466 54.5847 140.092 54.818C139.719 55.0513 139.266 55.168 138.734 55.168C137.978 55.168 137.395 54.972 136.984 54.58C136.583 54.188 136.382 53.6607 136.382 52.998C136.382 52.27 136.644 51.724 137.166 51.36C137.698 50.996 138.473 50.814 139.49 50.814H140.806V50.198C140.806 49.75 140.685 49.4047 140.442 49.162C140.2 48.9193 139.822 48.798 139.308 48.798C138.879 48.798 138.529 48.8913 138.258 49.078C137.988 49.2647 137.759 49.5027 137.572 49.792L136.662 48.966C136.905 48.5553 137.246 48.2193 137.684 47.958C138.123 47.6873 138.697 47.552 139.406 47.552C140.349 47.552 141.072 47.7713 141.576 48.21C142.08 48.6487 142.332 49.2787 142.332 50.1V53.754H143.102V55H142.248ZM139.168 54.006C139.644 54.006 140.036 53.9033 140.344 53.698C140.652 53.4833 140.806 53.1987 140.806 52.844V51.794H139.518C138.464 51.794 137.936 52.1207 137.936 52.774V53.026C137.936 53.3527 138.044 53.6 138.258 53.768C138.482 53.9267 138.786 54.006 139.168 54.006ZM144.598 47.72H146.446L148.504 51.164H148.532L150.59 47.72H152.354V55H150.856V49.596H150.8L150.324 50.492L148.476 53.572L146.628 50.492L146.152 49.596H146.096V55H144.598V47.72ZM154.537 47.72H160.515V55H158.989V48.966H156.063V55H154.537V47.72ZM167.165 47.72H168.635L165.569 56.442C165.485 56.6847 165.387 56.89 165.275 57.058C165.173 57.2353 165.047 57.3753 164.897 57.478C164.757 57.59 164.585 57.6693 164.379 57.716C164.174 57.772 163.931 57.8 163.651 57.8H162.769V56.554H164.001L164.421 55.322L161.775 47.72H163.301L164.757 52.004L165.177 53.586H165.247L165.709 52.004L167.165 47.72ZM169.891 47.72H171.417V50.646H174.553V47.72H176.079V55H174.553V51.892H171.417V55H169.891V47.72ZM178.258 47.72H179.756V51.276L179.616 52.998H179.672L180.54 51.444L183.06 47.72H184.446V55H182.948V51.444L183.088 49.722H183.032L182.164 51.276L179.644 55H178.258V47.72Z" fill="#00966D"/>
<path d="M194.167 47.9755C193.944 47.7523 193.944 47.3905 194.167 47.1674C194.391 46.9442 194.752 46.9442 194.975 47.1674L201.833 54.0245C202.056 54.2477 202.056 54.6095 201.833 54.8326C201.609 55.0558 201.248 55.0558 201.025 54.8326L194.167 47.9755Z" fill="#00966D"/>
<path d="M201.833 47.9755C202.056 47.7523 202.056 47.3905 201.833 47.1674C201.609 46.9442 201.248 46.9442 201.025 47.1674L194.167 54.0245C193.944 54.2477 193.944 54.6095 194.167 54.8326C194.391 55.0558 194.752 55.0558 194.975 54.8326L201.833 47.9755Z" fill="#00966D"/>
<rect y="72" width="82" height="28" rx="14" fill="#F3FDFA"/>
<path d="M19.308 91L18.426 88.354H14.772L13.918 91H12.308L15.64 81.228H17.628L20.96 91H19.308ZM16.634 82.684H16.564L15.15 86.996H18.034L16.634 82.684ZM22.3615 83.72H23.8875V86.66H25.1755L26.3795 84.63C26.5849 84.2847 26.7902 84.0467 26.9955 83.916C27.2009 83.7853 27.4622 83.72 27.7795 83.72H28.5215V84.966H27.7095L26.7855 86.506C26.6455 86.7487 26.5195 86.9167 26.4075 87.01C26.3049 87.1033 26.1649 87.1733 25.9875 87.22V87.276C26.1742 87.3133 26.3375 87.3833 26.4775 87.486C26.6175 87.5793 26.7529 87.7473 26.8835 87.99L27.8635 89.754H28.6615V91H27.7935C27.4855 91 27.2195 90.93 26.9955 90.79C26.7809 90.65 26.5755 90.4027 26.3795 90.048L25.1755 87.892H23.8875V91H22.3615V83.72ZM36.1426 91H30.3186V83.72H31.8446V89.754H34.7706V83.72H36.2966V89.754H37.5286V92.96H36.1426V91ZM38.9182 83.72H40.4162V87.276L40.2762 88.998H40.3322L41.2002 87.444L43.7202 83.72H45.1062V91H43.6082V87.444L43.7482 85.722H43.6922L42.8242 87.276L40.3042 91H38.9182V83.72ZM46.7674 89.754H47.5514L47.9574 88.858C48.1534 88.4473 48.4334 88.2187 48.7974 88.172V88.116C48.2 88.0507 47.7334 87.8453 47.3974 87.5C47.0707 87.1453 46.9074 86.6647 46.9074 86.058C46.9074 85.694 46.9634 85.372 47.0754 85.092C47.1967 84.8027 47.3647 84.5553 47.5794 84.35C47.794 84.1447 48.0507 83.9907 48.3494 83.888C48.648 83.776 48.9794 83.72 49.3434 83.72H52.8854V91H51.3594V88.312H49.8054L49.0354 89.978C48.858 90.37 48.6574 90.6407 48.4334 90.79C48.2094 90.93 47.9434 91 47.6354 91H46.7674V89.754ZM51.3594 87.15V84.91H49.6374C49.2827 84.91 49.0027 84.9893 48.7974 85.148C48.592 85.2973 48.4894 85.5353 48.4894 85.862V86.226C48.4894 86.534 48.592 86.7673 48.7974 86.926C49.0027 87.0753 49.2827 87.15 49.6374 87.15H51.3594Z" fill="#00966D"/>
<path d="M62.1674 83.9755C61.9442 83.7523 61.9442 83.3905 62.1674 83.1674C62.3905 82.9442 62.7523 82.9442 62.9755 83.1674L69.8326 90.0245C70.0558 90.2477 70.0558 90.6095 69.8326 90.8326C69.6095 91.0558 69.2477 91.0558 69.0245 90.8326L62.1674 83.9755Z" fill="#00966D"/>
<path d="M69.8326 83.9755C70.0558 83.7523 70.0558 83.3905 69.8326 83.1674C69.6095 82.9442 69.2477 82.9442 69.0245 83.1674L62.1674 90.0245C61.9442 90.2477 61.9442 90.6095 62.1674 90.8326C62.3905 91.0558 62.7523 91.0558 62.9755 90.8326L69.8326 83.9755Z" fill="#00966D"/>
<rect y="108" width="82" height="28" rx="14" fill="#F3FDFA"/>
<path d="M13.204 117.228H20.582V127H19V118.628H14.786V127H13.204V117.228ZM27.3471 119.72H28.8171L25.7511 128.442C25.6671 128.685 25.5691 128.89 25.4571 129.058C25.3544 129.235 25.2284 129.375 25.0791 129.478C24.9391 129.59 24.7664 129.669 24.5611 129.716C24.3557 129.772 24.1131 129.8 23.8331 129.8H22.9511V128.554H24.1831L24.6031 127.322L21.9571 119.72H23.4831L24.9391 124.004L25.3591 125.586H25.4291L25.8911 124.004L27.3471 119.72ZM28.833 125.754H29.715C29.9857 125.334 30.1957 124.807 30.345 124.172C30.5037 123.528 30.583 122.739 30.583 121.806V119.72H35.903V125.754H37.135V128.96H35.749V127H30.219V128.96H28.833V125.754ZM34.377 125.754V120.966H32.039V121.89C32.039 122.87 31.969 123.673 31.829 124.298C31.689 124.914 31.5257 125.399 31.339 125.754H34.377ZM38.5217 119.72H40.0477V120.924H40.1177C40.2764 120.485 40.533 120.149 40.8877 119.916C41.2517 119.673 41.6764 119.552 42.1617 119.552C43.0857 119.552 43.7997 119.888 44.3037 120.56C44.8077 121.223 45.0597 122.156 45.0597 123.36C45.0597 124.564 44.8077 125.502 44.3037 126.174C43.7997 126.837 43.0857 127.168 42.1617 127.168C41.6764 127.168 41.2517 127.047 40.8877 126.804C40.533 126.561 40.2764 126.225 40.1177 125.796H40.0477V129.8H38.5217V119.72ZM41.6997 125.852C42.2317 125.852 42.6564 125.684 42.9737 125.348C43.291 125.003 43.4497 124.55 43.4497 123.99V122.73C43.4497 122.17 43.291 121.722 42.9737 121.386C42.6564 121.041 42.2317 120.868 41.6997 120.868C41.233 120.868 40.841 120.985 40.5237 121.218C40.2064 121.442 40.0477 121.741 40.0477 122.114V124.606C40.0477 124.979 40.2064 125.283 40.5237 125.516C40.841 125.74 41.233 125.852 41.6997 125.852ZM52.1408 127C51.7395 127 51.4315 126.888 51.2168 126.664C51.0022 126.431 50.8715 126.137 50.8248 125.782H50.7548C50.6148 126.239 50.3582 126.585 49.9848 126.818C49.6115 127.051 49.1588 127.168 48.6268 127.168C47.8708 127.168 47.2875 126.972 46.8768 126.58C46.4755 126.188 46.2748 125.661 46.2748 124.998C46.2748 124.27 46.5362 123.724 47.0588 123.36C47.5908 122.996 48.3655 122.814 49.3828 122.814H50.6988V122.198C50.6988 121.75 50.5775 121.405 50.3348 121.162C50.0922 120.919 49.7142 120.798 49.2008 120.798C48.7715 120.798 48.4215 120.891 48.1508 121.078C47.8802 121.265 47.6515 121.503 47.4648 121.792L46.5548 120.966C46.7975 120.555 47.1382 120.219 47.5768 119.958C48.0155 119.687 48.5895 119.552 49.2988 119.552C50.2415 119.552 50.9648 119.771 51.4688 120.21C51.9728 120.649 52.2248 121.279 52.2248 122.1V125.754H52.9948V127H52.1408ZM49.0608 126.006C49.5368 126.006 49.9288 125.903 50.2368 125.698C50.5448 125.483 50.6988 125.199 50.6988 124.844V123.794H49.4108C48.3562 123.794 47.8288 124.121 47.8288 124.774V125.026C47.8288 125.353 47.9362 125.6 48.1508 125.768C48.3748 125.927 48.6782 126.006 49.0608 126.006Z" fill="#00966D"/>
<path d="M62.1674 119.975C61.9442 119.752 61.9442 119.391 62.1674 119.167C62.3905 118.944 62.7523 118.944 62.9755 119.167L69.8326 126.025C70.0558 126.248 70.0558 126.609 69.8326 126.833C69.6095 127.056 69.2477 127.056 69.0245 126.833L62.1674 119.975Z" fill="#00966D"/>
<path d="M69.8326 119.975C70.0558 119.752 70.0558 119.391 69.8326 119.167C69.6095 118.944 69.2477 118.944 69.0245 119.167L62.1674 126.025C61.9442 126.248 61.9442 126.609 62.1674 126.833C62.3905 127.056 62.7523 127.056 62.9755 126.833L69.8326 119.975Z" fill="#00966D"/>
<rect x="87" y="72" width="82" height="28" rx="14" fill="#F3FDFA"/>
<path d="M107.68 83.524H107.61L106.84 85.106L104.698 89.012L102.556 85.106L101.786 83.524H101.716V91H100.204V81.228H102.08L104.698 86.198H104.782L107.4 81.228H109.192V91H107.68V83.524ZM116.828 91C116.427 91 116.119 90.888 115.904 90.664C115.69 90.4307 115.559 90.1367 115.512 89.782H115.442C115.302 90.2393 115.046 90.5847 114.672 90.818C114.299 91.0513 113.846 91.168 113.314 91.168C112.558 91.168 111.975 90.972 111.564 90.58C111.163 90.188 110.962 89.6607 110.962 88.998C110.962 88.27 111.224 87.724 111.746 87.36C112.278 86.996 113.053 86.814 114.07 86.814H115.386V86.198C115.386 85.75 115.265 85.4047 115.022 85.162C114.78 84.9193 114.402 84.798 113.888 84.798C113.459 84.798 113.109 84.8913 112.838 85.078C112.568 85.2647 112.339 85.5027 112.152 85.792L111.242 84.966C111.485 84.5553 111.826 84.2193 112.264 83.958C112.703 83.6873 113.277 83.552 113.986 83.552C114.929 83.552 115.652 83.7713 116.156 84.21C116.66 84.6487 116.912 85.2787 116.912 86.1V89.754H117.682V91H116.828ZM113.748 90.006C114.224 90.006 114.616 89.9033 114.924 89.698C115.232 89.4833 115.386 89.1987 115.386 88.844V87.794H114.098C113.044 87.794 112.516 88.1207 112.516 88.774V89.026C112.516 89.3527 112.624 89.6 112.838 89.768C113.062 89.9267 113.366 90.006 113.748 90.006ZM121.992 91.168C121.469 91.168 121.003 91.0793 120.592 90.902C120.181 90.7247 119.836 90.4727 119.556 90.146C119.276 89.81 119.061 89.4087 118.912 88.942C118.763 88.466 118.688 87.9387 118.688 87.36C118.688 86.7813 118.763 86.2587 118.912 85.792C119.061 85.316 119.276 84.9147 119.556 84.588C119.836 84.252 120.181 83.9953 120.592 83.818C121.003 83.6407 121.469 83.552 121.992 83.552C122.72 83.552 123.317 83.7153 123.784 84.042C124.251 84.3687 124.591 84.8027 124.806 85.344L123.546 85.932C123.443 85.596 123.261 85.33 123 85.134C122.748 84.9287 122.412 84.826 121.992 84.826C121.432 84.826 121.007 85.0033 120.718 85.358C120.438 85.7033 120.298 86.156 120.298 86.716V88.018C120.298 88.578 120.438 89.0353 120.718 89.39C121.007 89.7353 121.432 89.908 121.992 89.908C122.44 89.908 122.795 89.8007 123.056 89.586C123.327 89.362 123.541 89.068 123.7 88.704L124.862 89.32C124.619 89.9173 124.255 90.3747 123.77 90.692C123.285 91.0093 122.692 91.168 121.992 91.168ZM126.315 83.72H127.841V86.66H129.129L130.333 84.63C130.538 84.2847 130.743 84.0467 130.949 83.916C131.154 83.7853 131.415 83.72 131.733 83.72H132.475V84.966H131.663L130.739 86.506C130.599 86.7487 130.473 86.9167 130.361 87.01C130.258 87.1033 130.118 87.1733 129.941 87.22V87.276C130.127 87.3133 130.291 87.3833 130.431 87.486C130.571 87.5793 130.706 87.7473 130.837 87.99L131.817 89.754H132.615V91H131.747C131.439 91 131.173 90.93 130.949 90.79C130.734 90.65 130.529 90.4027 130.333 90.048L129.129 87.892H127.841V91H126.315V83.72ZM139.469 91C139.068 91 138.76 90.888 138.545 90.664C138.33 90.4307 138.2 90.1367 138.153 89.782H138.083C137.943 90.2393 137.686 90.5847 137.313 90.818C136.94 91.0513 136.487 91.168 135.955 91.168C135.199 91.168 134.616 90.972 134.205 90.58C133.804 90.188 133.603 89.6607 133.603 88.998C133.603 88.27 133.864 87.724 134.387 87.36C134.919 86.996 135.694 86.814 136.711 86.814H138.027V86.198C138.027 85.75 137.906 85.4047 137.663 85.162C137.42 84.9193 137.042 84.798 136.529 84.798C136.1 84.798 135.75 84.8913 135.479 85.078C135.208 85.2647 134.98 85.5027 134.793 85.792L133.883 84.966C134.126 84.5553 134.466 84.2193 134.905 83.958C135.344 83.6873 135.918 83.552 136.627 83.552C137.57 83.552 138.293 83.7713 138.797 84.21C139.301 84.6487 139.553 85.2787 139.553 86.1V89.754H140.323V91H139.469ZM136.389 90.006C136.865 90.006 137.257 89.9033 137.565 89.698C137.873 89.4833 138.027 89.1987 138.027 88.844V87.794H136.739C135.684 87.794 135.157 88.1207 135.157 88.774V89.026C135.157 89.3527 135.264 89.6 135.479 89.768C135.703 89.9267 136.006 90.006 136.389 90.006Z" fill="#00966D"/>
<path d="M149.167 83.9755C148.944 83.7523 148.944 83.3905 149.167 83.1674C149.391 82.9442 149.752 82.9442 149.975 83.1674L156.833 90.0245C157.056 90.2477 157.056 90.6095 156.833 90.8326C156.609 91.0558 156.248 91.0558 156.025 90.8326L149.167 83.9755Z" fill="#00966D"/>
<path d="M156.833 83.9755C157.056 83.7523 157.056 83.3905 156.833 83.1674C156.609 82.9442 156.248 82.9442 156.025 83.1674L149.167 90.0245C148.944 90.2477 148.944 90.6095 149.167 90.8326C149.391 91.0558 149.752 91.0558 149.975 90.8326L156.833 83.9755Z" fill="#00966D"/>
<path d="M2.69619 7.62131H7.02219C7.83419 7.62131 8.46885 7.84998 8.92619 8.30731C9.39285 8.76464 9.62619 9.37598 9.62619 10.1413C9.62619 10.5053 9.57485 10.818 9.47219 11.0793C9.36952 11.3313 9.23885 11.5413 9.08019 11.7093C8.92152 11.868 8.73952 11.9893 8.53419 12.0733C8.32885 12.148 8.12819 12.1946 7.93219 12.2133V12.2973C8.12819 12.3066 8.34285 12.3533 8.57619 12.4373C8.81885 12.5213 9.04285 12.6566 9.24819 12.8433C9.45352 13.0206 9.62619 13.254 9.76619 13.5433C9.90619 13.8233 9.97619 14.1686 9.97619 14.5793C9.97619 14.9713 9.91085 15.34 9.78019 15.6853C9.65885 16.0306 9.48619 16.3293 9.26219 16.5813C9.03819 16.8333 8.77219 17.034 8.46419 17.1833C8.15619 17.3233 7.82019 17.3933 7.45619 17.3933H2.69619V7.62131ZM4.27819 16.0353H6.99419C7.40485 16.0353 7.72685 15.928 7.96019 15.7133C8.19352 15.4986 8.31019 15.1906 8.31019 14.7893V14.3133C8.31019 13.912 8.19352 13.604 7.96019 13.3893C7.72685 13.1746 7.40485 13.0673 6.99419 13.0673H4.27819V16.0353ZM4.27819 11.7513H6.72819C7.12019 11.7513 7.42352 11.6533 7.63819 11.4573C7.85285 11.252 7.96019 10.9626 7.96019 10.5893V10.1413C7.96019 9.76798 7.85285 9.48331 7.63819 9.28731C7.42352 9.08198 7.12019 8.97931 6.72819 8.97931H4.27819V11.7513ZM11.8127 10.1133H13.3387V12.5493H15.2007C15.5647 12.5493 15.896 12.6053 16.1947 12.7173C16.4934 12.82 16.75 12.9786 16.9647 13.1933C17.1794 13.3986 17.3474 13.6506 17.4687 13.9493C17.59 14.248 17.6507 14.5886 17.6507 14.9713C17.6507 15.746 17.4267 16.3433 16.9787 16.7633C16.5307 17.1833 15.9427 17.3933 15.2147 17.3933H11.8127V10.1133ZM14.9207 16.2033C15.2754 16.2033 15.5554 16.1286 15.7607 15.9793C15.966 15.8206 16.0687 15.578 16.0687 15.2513V14.6773C16.0687 14.3506 15.966 14.1126 15.7607 13.9633C15.5554 13.814 15.2754 13.7393 14.9207 13.7393H13.3387V16.2033H14.9207ZM18.7427 10.1133H20.2687V17.3933H18.7427V10.1133ZM24.792 16.1473H25.674C25.9447 15.7273 26.1547 15.2 26.304 14.5653C26.4627 13.9213 26.542 13.1326 26.542 12.1993V10.1133H31.862V16.1473H33.094V19.3533H31.708V17.3933H26.178V19.3533H24.792V16.1473ZM30.336 16.1473V11.3593H27.998V12.2833C27.998 13.2633 27.928 14.066 27.788 14.6913C27.648 15.3073 27.4847 15.7926 27.298 16.1473H30.336ZM37.3367 17.5613C36.8327 17.5613 36.3707 17.4726 35.9507 17.2953C35.54 17.118 35.19 16.866 34.9007 16.5393C34.6113 16.2033 34.3873 15.802 34.2287 15.3353C34.07 14.8593 33.9907 14.332 33.9907 13.7533C33.9907 13.1746 34.07 12.652 34.2287 12.1853C34.3873 11.7093 34.6113 11.308 34.9007 10.9813C35.19 10.6453 35.54 10.3886 35.9507 10.2113C36.3707 10.034 36.8327 9.94531 37.3367 9.94531C37.8407 9.94531 38.298 10.034 38.7087 10.2113C39.1287 10.3886 39.4833 10.6453 39.7727 10.9813C40.062 11.308 40.286 11.7093 40.4447 12.1853C40.6033 12.652 40.6827 13.1746 40.6827 13.7533C40.6827 14.332 40.6033 14.8593 40.4447 15.3353C40.286 15.802 40.062 16.2033 39.7727 16.5393C39.4833 16.866 39.1287 17.118 38.7087 17.2953C38.298 17.4726 37.8407 17.5613 37.3367 17.5613ZM37.3367 16.3013C37.8593 16.3013 38.2793 16.1426 38.5967 15.8253C38.914 15.4986 39.0727 15.0133 39.0727 14.3693V13.1373C39.0727 12.4933 38.914 12.0126 38.5967 11.6953C38.2793 11.3686 37.8593 11.2053 37.3367 11.2053C36.814 11.2053 36.394 11.3686 36.0767 11.6953C35.7593 12.0126 35.6007 12.4933 35.6007 13.1373V14.3693C35.6007 15.0133 35.7593 15.4986 36.0767 15.8253C36.394 16.1426 36.814 16.3013 37.3367 16.3013ZM45.336 17.5613C44.8134 17.5613 44.3467 17.4773 43.936 17.3093C43.5254 17.132 43.1754 16.8566 42.886 16.4833C42.5967 16.11 42.3727 15.6386 42.214 15.0693C42.0647 14.4906 41.99 13.7953 41.99 12.9833C41.99 11.994 42.06 11.1446 42.2 10.4353C42.3494 9.71664 42.578 9.12398 42.886 8.65731C43.2034 8.18131 43.6 7.81731 44.076 7.56531C44.5614 7.31331 45.14 7.15931 45.812 7.10331L48.136 6.89331V8.39131L45.728 8.61531C45.3454 8.65264 45.0234 8.72731 44.762 8.83931C44.51 8.95131 44.3 9.12398 44.132 9.35731C43.9734 9.58131 43.852 9.88464 43.768 10.2673C43.684 10.6406 43.6234 11.1073 43.586 11.6673H43.656C43.8427 11.182 44.0947 10.818 44.412 10.5753C44.7387 10.3326 45.1774 10.2113 45.728 10.2113C46.1574 10.2113 46.5494 10.2953 46.904 10.4633C47.268 10.622 47.5807 10.8553 47.842 11.1633C48.1034 11.4713 48.304 11.8493 48.444 12.2973C48.5934 12.736 48.668 13.24 48.668 13.8093C48.668 14.3786 48.5887 14.8966 48.43 15.3633C48.2714 15.8206 48.0474 16.2126 47.758 16.5393C47.4687 16.866 47.1187 17.118 46.708 17.2953C46.2974 17.4726 45.84 17.5613 45.336 17.5613ZM45.336 16.3013C45.868 16.3013 46.288 16.138 46.596 15.8113C46.904 15.4753 47.058 14.9853 47.058 14.3413V13.4313C47.058 12.7873 46.904 12.302 46.596 11.9753C46.288 11.6393 45.868 11.4713 45.336 11.4713C44.776 11.4713 44.3467 11.6206 44.048 11.9193C43.7587 12.218 43.614 12.6193 43.614 13.1233V14.3413C43.614 14.9853 43.768 15.4753 44.076 15.8113C44.384 16.138 44.804 16.3013 45.336 16.3013ZM55.7014 17.3933C55.3001 17.3933 54.9921 17.2813 54.7774 17.0573C54.5627 16.824 54.4321 16.53 54.3854 16.1753H54.3154C54.1754 16.6326 53.9187 16.978 53.5454 17.2113C53.1721 17.4446 52.7194 17.5613 52.1874 17.5613C51.4314 17.5613 50.8481 17.3653 50.4374 16.9733C50.0361 16.5813 49.8354 16.054 49.8354 15.3913C49.8354 14.6633 50.0967 14.1173 50.6194 13.7533C51.1514 13.3893 51.9261 13.2073 52.9434 13.2073H54.2594V12.5913C54.2594 12.1433 54.1381 11.798 53.8954 11.5553C53.6527 11.3126 53.2747 11.1913 52.7614 11.1913C52.3321 11.1913 51.9821 11.2846 51.7114 11.4713C51.4407 11.658 51.2121 11.896 51.0254 12.1853L50.1154 11.3593C50.3581 10.9486 50.6987 10.6126 51.1374 10.3513C51.5761 10.0806 52.1501 9.94531 52.8594 9.94531C53.8021 9.94531 54.5254 10.1646 55.0294 10.6033C55.5334 11.042 55.7854 11.672 55.7854 12.4933V16.1473H56.5554V17.3933H55.7014ZM52.6214 16.3993C53.0974 16.3993 53.4894 16.2966 53.7974 16.0913C54.1054 15.8766 54.2594 15.592 54.2594 15.2373V14.1873H52.9714C51.9167 14.1873 51.3894 14.514 51.3894 15.1673V15.4193C51.3894 15.746 51.4967 15.9933 51.7114 16.1613C51.9354 16.32 52.2387 16.3993 52.6214 16.3993ZM58.051 10.1133H61.929C62.5543 10.1133 63.035 10.2813 63.371 10.6173C63.7163 10.9533 63.889 11.4013 63.889 11.9613C63.889 12.876 63.399 13.394 62.419 13.5153V13.5853C63.007 13.632 63.441 13.8046 63.721 14.1033C64.0103 14.3926 64.155 14.7753 64.155 15.2513C64.155 15.5593 64.1037 15.844 64.001 16.1053C63.9077 16.3666 63.7677 16.5953 63.581 16.7913C63.4037 16.978 63.1843 17.1273 62.923 17.2393C62.6617 17.342 62.3677 17.3933 62.041 17.3933H58.051V10.1133ZM61.691 16.2313C61.9617 16.2313 62.1763 16.1613 62.335 16.0213C62.4937 15.8813 62.573 15.676 62.573 15.4053V15.0273C62.573 14.7566 62.4937 14.5513 62.335 14.4113C62.1763 14.262 61.9617 14.1873 61.691 14.1873H59.549V16.2313H61.691ZM61.495 13.1373C61.7563 13.1373 61.957 13.072 62.097 12.9413C62.237 12.8106 62.307 12.624 62.307 12.3813V12.0313C62.307 11.7886 62.237 11.602 62.097 11.4713C61.957 11.3406 61.7563 11.2753 61.495 11.2753H59.549V13.1373H61.495ZM65.9807 10.1133H67.4787V13.6693L67.3387 15.3913H67.3947L68.2627 13.8373L70.7827 10.1133H72.1687V17.3933H70.6707V13.8373L70.8107 12.1153H70.7547L69.8867 13.6693L67.3667 17.3933H65.9807V10.1133ZM73.4099 16.1473H74.3619C74.4739 15.998 74.5719 15.8206 74.6559 15.6153C74.7399 15.4006 74.8099 15.1393 74.8659 14.8313C74.9219 14.5233 74.9639 14.164 74.9919 13.7533C75.0292 13.3333 75.0479 12.8433 75.0479 12.2833V10.1133H80.3399V17.3933H78.8139V11.3593H76.5179V12.3533C76.5179 13.0253 76.4899 13.6133 76.4339 14.1173C76.3872 14.6213 76.3172 15.0553 76.2239 15.4193C76.1399 15.7833 76.0325 16.0866 75.9019 16.3293C75.7805 16.5626 75.6499 16.7493 75.5099 16.8893C75.3139 17.0853 75.0899 17.2253 74.8379 17.3093C74.5859 17.3933 74.2825 17.4353 73.9279 17.4353H73.4099V16.1473ZM82.5373 10.1133H84.0353V13.6693L83.8953 15.3913H83.9513L84.8193 13.8373L87.3393 10.1133H88.7253V17.3933H87.2273V13.8373L87.3673 12.1153H87.3113L86.4433 13.6693L83.9233 17.3933H82.5373V10.1133ZM100.233 8.99331H95.8931L95.6411 12.4513H95.7391C95.8511 12.2553 95.9678 12.0826 96.0891 11.9333C96.2104 11.7746 96.3504 11.6393 96.5091 11.5273C96.6678 11.4153 96.8498 11.3313 97.0551 11.2753C97.2604 11.21 97.5031 11.1773 97.7831 11.1773C98.2031 11.1773 98.5904 11.2473 98.9451 11.3873C99.3091 11.5273 99.6218 11.728 99.8831 11.9893C100.154 12.2506 100.364 12.5726 100.513 12.9553C100.662 13.3286 100.737 13.7533 100.737 14.2293C100.737 14.7146 100.658 15.1626 100.499 15.5733C100.35 15.984 100.126 16.3386 99.8271 16.6373C99.5284 16.9266 99.1598 17.1553 98.7211 17.3233C98.2918 17.482 97.8018 17.5613 97.2511 17.5613C96.8124 17.5613 96.4251 17.51 96.0891 17.4073C95.7531 17.314 95.4544 17.188 95.1931 17.0293C94.9411 16.8613 94.7171 16.6746 94.5211 16.4693C94.3344 16.2546 94.1664 16.0353 94.0171 15.8113L95.1651 14.9013C95.2864 15.0973 95.4124 15.2746 95.5431 15.4333C95.6738 15.592 95.8231 15.732 95.9911 15.8533C96.1591 15.9746 96.3458 16.068 96.5511 16.1333C96.7658 16.1986 97.0084 16.2313 97.2791 16.2313C97.8578 16.2313 98.3011 16.0726 98.6091 15.7553C98.9264 15.438 99.0851 14.9993 99.0851 14.4393V14.2713C99.0851 13.7113 98.9264 13.2726 98.6091 12.9553C98.3011 12.638 97.8578 12.4793 97.2791 12.4793C96.8591 12.4793 96.5231 12.5586 96.2711 12.7173C96.0191 12.876 95.8044 13.0533 95.6271 13.2493L94.3251 13.0673L94.6891 7.62131H100.233V8.99331ZM107.428 11.3593H105.104V10.1133H111.278V11.3593H108.954V17.3933H107.428V11.3593ZM115.376 17.5613C114.853 17.5613 114.386 17.4726 113.976 17.2953C113.565 17.118 113.215 16.866 112.926 16.5393C112.636 16.2033 112.412 15.802 112.254 15.3353C112.104 14.8593 112.03 14.332 112.03 13.7533C112.03 13.1746 112.104 12.652 112.254 12.1853C112.412 11.7093 112.636 11.308 112.926 10.9813C113.215 10.6453 113.565 10.3886 113.976 10.2113C114.386 10.034 114.853 9.94531 115.376 9.94531C115.908 9.94531 116.374 10.0386 116.776 10.2253C117.186 10.412 117.527 10.6733 117.798 11.0093C118.068 11.336 118.269 11.7186 118.4 12.1573C118.54 12.596 118.61 13.0673 118.61 13.5713V14.1453H113.612V14.3833C113.612 14.9433 113.775 15.4053 114.102 15.7693C114.438 16.124 114.914 16.3013 115.53 16.3013C115.978 16.3013 116.356 16.2033 116.664 16.0073C116.972 15.8113 117.233 15.5453 117.448 15.2093L118.344 16.0913C118.073 16.5393 117.681 16.8986 117.168 17.1693C116.654 17.4306 116.057 17.5613 115.376 17.5613ZM115.376 11.1353C115.114 11.1353 114.872 11.182 114.648 11.2753C114.433 11.3686 114.246 11.4993 114.088 11.6673C113.938 11.8353 113.822 12.036 113.738 12.2693C113.654 12.5026 113.612 12.7593 113.612 13.0393V13.1373H117V12.9973C117 12.4373 116.855 11.9893 116.566 11.6533C116.276 11.308 115.88 11.1353 115.376 11.1353ZM120.299 10.1133H125.045V11.3593H121.825V17.3933H120.299V10.1133ZM129.116 17.5613C128.612 17.5613 128.15 17.4726 127.73 17.2953C127.319 17.118 126.969 16.866 126.68 16.5393C126.391 16.2033 126.167 15.802 126.008 15.3353C125.849 14.8593 125.77 14.332 125.77 13.7533C125.77 13.1746 125.849 12.652 126.008 12.1853C126.167 11.7093 126.391 11.308 126.68 10.9813C126.969 10.6453 127.319 10.3886 127.73 10.2113C128.15 10.034 128.612 9.94531 129.116 9.94531C129.62 9.94531 130.077 10.034 130.488 10.2113C130.908 10.3886 131.263 10.6453 131.552 10.9813C131.841 11.308 132.065 11.7093 132.224 12.1853C132.383 12.652 132.462 13.1746 132.462 13.7533C132.462 14.332 132.383 14.8593 132.224 15.3353C132.065 15.802 131.841 16.2033 131.552 16.5393C131.263 16.866 130.908 17.118 130.488 17.2953C130.077 17.4726 129.62 17.5613 129.116 17.5613ZM129.116 16.3013C129.639 16.3013 130.059 16.1426 130.376 15.8253C130.693 15.4986 130.852 15.0133 130.852 14.3693V13.1373C130.852 12.4933 130.693 12.0126 130.376 11.6953C130.059 11.3686 129.639 11.2053 129.116 11.2053C128.593 11.2053 128.173 11.3686 127.856 11.6953C127.539 12.0126 127.38 12.4933 127.38 13.1373V14.3693C127.38 15.0133 127.539 15.4986 127.856 15.8253C128.173 16.1426 128.593 16.3013 129.116 16.3013ZM134.162 10.1133H138.04C138.666 10.1133 139.146 10.2813 139.482 10.6173C139.828 10.9533 140 11.4013 140 11.9613C140 12.876 139.51 13.394 138.53 13.5153V13.5853C139.118 13.632 139.552 13.8046 139.832 14.1033C140.122 14.3926 140.266 14.7753 140.266 15.2513C140.266 15.5593 140.215 15.844 140.112 16.1053C140.019 16.3666 139.879 16.5953 139.692 16.7913C139.515 16.978 139.296 17.1273 139.034 17.2393C138.773 17.342 138.479 17.3933 138.152 17.3933H134.162V10.1133ZM137.802 16.2313C138.073 16.2313 138.288 16.1613 138.446 16.0213C138.605 15.8813 138.684 15.676 138.684 15.4053V15.0273C138.684 14.7566 138.605 14.5513 138.446 14.4113C138.288 14.262 138.073 14.1873 137.802 14.1873H135.66V16.2313H137.802ZM137.606 13.1373C137.868 13.1373 138.068 13.072 138.208 12.9413C138.348 12.8106 138.418 12.624 138.418 12.3813V12.0313C138.418 11.7886 138.348 11.602 138.208 11.4713C138.068 11.3406 137.868 11.2753 137.606 11.2753H135.66V13.1373H137.606Z" fill="#293347"/>
<path fill-rule="evenodd" clip-rule="evenodd" d="M204.749 10.928L208.708 6.81171C209.101 6.40293 209.74 6.40293 210.133 6.81171C210.526 7.2205 210.526 7.88442 210.133 8.2932L206.174 12.4095L210.133 16.5258C210.518 16.9251 210.518 17.5748 210.133 17.975C209.748 18.3753 209.123 18.3753 208.739 17.975L204.78 13.8587L200.82 17.975C200.427 18.3838 199.789 18.3838 199.395 17.975C199.002 17.5662 199.002 16.9023 199.395 16.4935L203.355 12.3772L199.395 8.26095C199.01 7.86165 199.01 7.21196 199.395 6.81171C199.78 6.41147 200.405 6.41147 200.789 6.81171L204.749 10.928Z" fill="#293347"/>
</svg>
