<svg width="40" height="40" viewBox="0 0 40 40" fill="none" xmlns="http://www.w3.org/2000/svg">
<g clip-path="url(#clip0)">
<path d="M4.68965 6.63547C4.98981 6.91118 5.36856 7.04727 5.74629 7.04727C6.1684 7.04727 6.58934 6.87719 6.89739 6.5418C7.48122 5.90633 7.43926 4.91789 6.80379 4.33407L2.61934 0.490004C1.98379 -0.0938241 0.995435 -0.0519491 0.411607 0.583598C-0.172221 1.21907 -0.130268 2.2075 0.505201 2.79133L4.68965 6.63547Z" fill="#8C30F5"/>
<path d="M23.5942 0C14.5478 0 7.18795 7.35984 7.18795 16.4062C7.18795 20.3862 8.61295 24.0394 10.979 26.8834L0.461933 37.3289C-0.150332 37.937 -0.15377 38.9263 0.454355 39.5386C0.759824 39.8461 1.16131 40 1.56303 40C1.96107 40 2.35928 39.8488 2.66404 39.5461L13.1954 29.0864C16.0279 31.4136 19.6507 32.8125 23.5942 32.8125C26.4087 32.8125 29.186 32.0873 31.6258 30.7152C32.3779 30.2921 32.6447 29.3395 32.2217 28.5873C31.7987 27.8352 30.8459 27.5685 30.0939 27.9913C28.1208 29.1009 25.8733 29.6875 23.5942 29.6875C16.2709 29.6875 10.3129 23.7295 10.3129 16.4062C10.3129 15.001 10.533 13.6465 10.9394 12.3743L17.3247 18.2302C18.2074 19.0398 19.3628 19.4737 20.5746 19.4529C21.802 19.4315 22.9501 18.9476 23.8075 18.0902L27.749 14.1488C28.0497 13.848 28.4491 13.6741 28.8448 13.6719C28.8475 13.6718 28.8501 13.6718 28.8527 13.6718C29.2438 13.6718 29.6398 13.8391 29.9415 14.1318L36.2547 20.4198C35.9742 21.3072 35.6022 22.1651 35.1397 22.9759C34.7122 23.7254 34.9732 24.6796 35.7228 25.1073C36.4723 25.5348 37.4267 25.2738 37.8542 24.5241C38.5594 23.2879 39.0973 21.9644 39.4584 20.5922C39.5261 20.4344 39.5669 20.2681 39.5801 20.0998C39.858 18.8936 40.0004 17.654 40.0004 16.4062C40.0004 7.35984 32.6406 0 23.5942 0ZM36.8719 16.6239L32.1406 11.9116C32.1371 11.9081 32.1335 11.9046 32.13 11.9011C31.2357 11.0272 30.073 10.5469 28.8536 10.5469C28.8447 10.5469 28.8357 10.547 28.8268 10.547C27.5973 10.554 26.4298 11.0484 25.5392 11.939L21.5977 15.8805C21.3161 16.1621 20.9334 16.3212 20.5201 16.3284C20.1116 16.336 19.7266 16.193 19.4368 15.9271L12.3176 9.39797C14.6649 5.63477 18.8416 3.125 23.5942 3.125C30.9175 3.125 36.8754 9.08297 36.8754 16.4062C36.8754 16.4789 36.8731 16.5513 36.8719 16.6239Z" fill="#8C30F5"/>
</g>
<defs>
<clipPath id="clip0">
<rect width="40" height="40" fill="white"/>
</clipPath>
</defs>
</svg>
