<svg width="261" height="301" viewBox="0 0 261 301" fill="none" xmlns="http://www.w3.org/2000/svg">
<path fill-rule="evenodd" clip-rule="evenodd" d="M130.502 270.929C75.2663 270.929 30.489 225.226 30.489 168.847C30.489 112.469 75.2663 66.7651 130.502 66.7651C185.737 66.7651 230.515 112.469 230.515 168.847C230.515 225.226 185.737 270.929 130.502 270.929ZM130.502 260.131C179.895 260.131 219.935 219.262 219.935 168.847C219.935 118.432 179.895 77.5632 130.502 77.5632C81.109 77.5632 41.0682 118.432 41.0682 168.847C41.0682 219.262 81.109 260.131 130.502 260.131Z" fill="#C2CDD6" fill-opacity="0.6"/>
<path fill-rule="evenodd" clip-rule="evenodd" d="M130.501 251.616C83.6458 251.616 45.6624 213.942 45.6624 167.468C45.6624 120.994 83.6458 83.3188 130.501 83.3188C177.356 83.3188 215.339 120.994 215.339 167.468C215.339 213.942 177.356 251.616 130.501 251.616ZM130.501 241.047C171.471 241.047 204.683 208.104 204.683 167.468C204.683 126.831 171.471 93.8884 130.501 93.8884C89.5311 93.8884 56.3185 126.831 56.3185 167.468C56.3185 208.104 89.5311 241.047 130.501 241.047Z" fill="#C2CDD6" fill-opacity="0.6"/>
<path fill-rule="evenodd" clip-rule="evenodd" d="M37.1512 134.019C38.2104 131.26 41.2849 129.873 44.0183 130.923C46.7517 131.972 48.1089 135.059 47.0497 137.818C29.1417 184.471 52.0889 236.671 98.3037 254.411C144.519 272.151 196.5 248.714 214.409 202.062C232.317 155.409 209.369 103.209 163.155 85.4689C154.249 82.0505 145 80.1094 135.664 79.649C132.737 79.5047 130.496 76.9974 130.657 74.0489C130.819 71.1005 133.323 68.8272 136.25 68.9716C146.696 69.4867 157.042 71.658 166.99 75.4768C218.672 95.3155 244.333 153.691 224.307 205.861C204.281 258.032 146.15 284.242 94.4681 264.403C42.7864 244.565 17.1248 186.189 37.1512 134.019Z" fill="url(#paint0_linear)"/>
<path fill-rule="evenodd" clip-rule="evenodd" d="M136.498 251.26C133.583 251.464 131.057 249.287 130.855 246.398C130.653 243.509 132.852 241.002 135.766 240.798C176.346 237.961 206.963 203.053 204.15 162.831C201.575 126 171.676 97.0242 134.816 95.0604C131.899 94.905 129.664 92.4346 129.825 89.5427C129.985 86.6507 132.48 84.4323 135.397 84.5877C177.569 86.8346 211.76 119.969 214.705 162.093C217.922 208.093 182.907 248.015 136.498 251.26Z" fill="url(#paint1_linear)"/>
<path d="M80.1465 200.575H94.0974L103.863 185.932L113.541 200.575H127.492L110.577 176.493L127.056 152.941H113.105L103.863 167.055L94.4461 152.941H80.4953L96.9747 176.493L80.1465 200.575Z" fill="#0B1A2F"/>
<path d="M132.765 200.487H176.711V189.196H151.163L165.201 176.758C167.701 174.553 169.808 172.583 171.523 170.848C173.237 169.083 174.531 167.172 175.403 165.114C176.275 163.026 176.711 160.409 176.711 157.263C176.711 152.999 175.781 149.25 173.92 146.016C172.06 142.782 169.503 140.267 166.247 138.474C163.021 136.651 159.359 135.739 155.261 135.739C150.785 135.739 146.862 136.607 143.49 138.342C140.119 140.076 137.488 142.532 135.599 145.707C133.71 148.883 132.765 152.647 132.765 156.998H144.972C144.914 155.234 145.307 153.602 146.149 152.103C146.992 150.574 148.169 149.353 149.681 148.442C151.221 147.501 152.994 147.03 155 147.03C157.877 147.03 160.173 147.986 161.888 149.897C163.632 151.779 164.504 154.176 164.504 157.087C164.504 158.439 164.097 159.895 163.283 161.453C162.469 163.012 161.074 164.673 159.098 166.437L132.765 190.078V200.487Z" fill="#0B1A2F"/>
<path d="M76.3741 12.1739H78.5149V6.98634L83.0325 12.1739H85.74L80.7029 6.40115L85.4409 0.786553H82.8279L78.5149 6.03739V0.786553H76.3741V12.1739Z" fill="#0B1A2F"/>
<path d="M91.8633 12.4111C92.9966 12.4111 93.9726 12.1634 94.7911 11.6678C95.6149 11.1722 96.2472 10.479 96.6879 9.58803C97.1339 8.69708 97.3569 7.66114 97.3569 6.48023C97.3569 5.29932 97.1339 4.26339 96.6879 3.37243C96.2472 2.48148 95.6149 1.78822 94.7911 1.29266C93.9726 0.797097 92.9966 0.549316 91.8633 0.549316C90.7299 0.549316 89.7514 0.797097 88.9276 1.29266C88.109 1.78822 87.4768 2.48148 87.0308 3.37243C86.59 4.26339 86.3697 5.29932 86.3697 6.48023C86.3697 7.66114 86.59 8.69708 87.0308 9.58803C87.4768 10.479 88.109 11.1722 88.9276 11.6678C89.7514 12.1634 90.7299 12.4111 91.8633 12.4111ZM91.8633 10.3867C90.7876 10.3709 89.9796 10.0124 89.4392 9.31126C88.904 8.61009 88.6364 7.66642 88.6364 6.48023C88.6364 5.29405 88.904 4.34247 89.4392 3.62548C89.9796 2.9085 90.7876 2.55792 91.8633 2.57374C92.9442 2.58955 93.7522 2.94804 94.2874 3.64921C94.8226 4.35037 95.0902 5.29405 95.0902 6.48023C95.0902 7.66642 94.8226 8.618 94.2874 9.33498C93.7522 10.052 92.9442 10.4025 91.8633 10.3867Z" fill="#0B1A2F"/>
<path d="M99.7151 12.1739H101.856V7.47663H106.925V12.1739H109.065V0.786553H106.925V5.46802H101.856V0.786553H99.7151V12.1739Z" fill="#0B1A2F"/>
<path d="M112.062 12.1739H117.083C118.243 12.1739 119.104 11.855 119.665 11.2171C120.232 10.5739 120.515 9.74355 120.515 8.72607C120.515 8.17779 120.381 7.67432 120.114 7.21567C119.851 6.75174 119.455 6.40906 118.925 6.18764C119.261 5.98204 119.523 5.69208 119.712 5.31777C119.901 4.94347 119.996 4.49799 119.996 3.98134C119.996 3.48051 119.88 2.98495 119.649 2.49466C119.418 2.00437 119.054 1.59843 118.555 1.27684C118.057 0.949983 117.404 0.786553 116.595 0.786553H112.062V12.1739ZM114.234 5.23079V2.79516H116.564C116.973 2.79516 117.285 2.91377 117.501 3.15101C117.716 3.38825 117.823 3.68084 117.823 4.02879C117.823 4.44527 117.703 4.75104 117.461 4.9461C117.225 5.13589 116.926 5.23079 116.564 5.23079H114.234ZM114.234 10.1495V7.23939H116.863C117.362 7.23939 117.734 7.37382 117.981 7.64269C118.233 7.90629 118.358 8.24106 118.358 8.64699C118.358 9.10565 118.217 9.47205 117.933 9.74619C117.655 10.0151 117.299 10.1495 116.863 10.1495H114.234Z" fill="#0B1A2F"/>
<path d="M122.872 12.1739H130.27V10.1653H125.013V7.23939H129.326V5.23079H125.013V2.79516H130.27V0.786553H122.872V12.1739Z" fill="#0B1A2F"/>
<path d="M132.944 12.1739H135.084V8.31486H137.729C137.834 8.31486 137.981 8.30959 138.17 8.29905C138.358 8.2885 138.526 8.27269 138.673 8.2516C139.681 8.09344 140.421 7.67696 140.893 7.00215C141.365 6.32208 141.601 5.50493 141.601 4.55071C141.601 3.59122 141.368 2.77407 140.901 2.09926C140.434 1.42446 139.691 1.00797 138.673 0.849816C138.526 0.823457 138.358 0.807641 138.17 0.802369C137.986 0.791825 137.839 0.786553 137.729 0.786553H132.944V12.1739ZM135.084 6.30626V2.79516H137.634C137.745 2.79516 137.865 2.80043 137.996 2.81097C138.128 2.82152 138.248 2.8426 138.358 2.87424C138.647 2.95331 138.87 3.08775 139.027 3.27754C139.185 3.46206 139.292 3.6703 139.35 3.90226C139.413 4.12895 139.445 4.3451 139.445 4.55071C139.445 4.75631 139.413 4.9751 139.35 5.20706C139.292 5.43375 139.185 5.642 139.027 5.83179C138.87 6.0163 138.647 6.1481 138.358 6.22718C138.248 6.25881 138.128 6.2799 137.996 6.29044C137.865 6.30099 137.745 6.30626 137.634 6.30626H135.084Z" fill="#0B1A2F"/>
<path d="M148.832 12.4111C150.134 12.4111 151.225 12.0869 152.107 11.4385C152.993 10.79 153.618 9.91226 153.98 8.80515L151.823 8.20415C151.613 8.8895 151.259 9.4246 150.761 9.80945C150.262 10.1943 149.619 10.3867 148.832 10.3867C147.757 10.3867 146.946 10.0335 146.4 9.32707C145.86 8.61536 145.59 7.66642 145.59 6.48023C145.59 5.29405 145.86 4.34774 146.4 3.6413C146.946 2.92959 147.757 2.57374 148.832 2.57374C149.619 2.57374 150.262 2.76616 150.761 3.15101C151.259 3.53059 151.613 4.06569 151.823 4.75631L153.98 4.15531C153.618 3.04821 152.993 2.17043 152.107 1.52199C151.225 0.87354 150.134 0.549316 148.832 0.549316C147.699 0.549316 146.721 0.797097 145.897 1.29266C145.078 1.78822 144.446 2.48148 144 3.37243C143.559 4.26339 143.339 5.29932 143.339 6.48023C143.339 7.66114 143.559 8.69708 144 9.58803C144.446 10.479 145.078 11.1722 145.897 11.6678C146.721 12.1634 147.699 12.4111 148.832 12.4111Z" fill="#0B1A2F"/>
<path d="M165.771 12.1739H163.599V4.58234L158.672 12.1739H156.5V0.786553H158.672V8.37813L163.599 0.786553H165.771V12.1739Z" fill="#0B1A2F"/>
<path d="M177.097 12.1739H174.956V8.31486H172.572L170.706 12.1739H168.282L170.329 7.9511C169.683 7.65587 169.206 7.21039 168.896 6.61467C168.592 6.01367 168.44 5.32568 168.44 4.55071C168.44 3.59122 168.673 2.77407 169.14 2.09926C169.607 1.42446 170.35 1.00797 171.368 0.849816C171.514 0.823457 171.68 0.807641 171.863 0.802369C172.052 0.791825 172.202 0.786553 172.312 0.786553H177.097V12.1739ZM174.956 6.30626V2.79516H172.406C172.296 2.79516 172.176 2.80043 172.044 2.81097C171.913 2.82152 171.793 2.8426 171.682 2.87424C171.394 2.95331 171.171 3.08775 171.013 3.27754C170.856 3.46206 170.746 3.6703 170.683 3.90226C170.625 4.12895 170.596 4.3451 170.596 4.55071C170.596 4.75631 170.625 4.9751 170.683 5.20706C170.746 5.43375 170.856 5.642 171.013 5.83179C171.171 6.0163 171.394 6.1481 171.682 6.22718C171.793 6.25881 171.913 6.2799 172.044 6.29044C172.176 6.30099 172.296 6.30626 172.406 6.30626H174.956Z" fill="#0B1A2F"/>
<path d="M67.7334 33.2616H69.7325V26.4608L73.0224 33.2616H73.778L77.0679 26.4608V33.2616H79.067V21.8743H77.1466L73.4002 29.4342L69.6538 21.8743H67.7334V33.2616Z" fill="#0B1A2F"/>
<path d="M86.9273 33.4989C88.0607 33.4989 89.0366 33.2511 89.8551 32.7555C90.6789 32.2599 91.3112 31.5667 91.7519 30.6757C92.1979 29.7848 92.4209 28.7488 92.4209 27.5679C92.4209 26.387 92.1979 25.3511 91.7519 24.4601C91.3112 23.5692 90.6789 22.8759 89.8551 22.3804C89.0366 21.8848 88.0607 21.637 86.9273 21.637C85.7939 21.637 84.8154 21.8848 83.9916 22.3804C83.1731 22.8759 82.5408 23.5692 82.0948 24.4601C81.654 25.3511 81.4337 26.387 81.4337 27.5679C81.4337 28.7488 81.654 29.7848 82.0948 30.6757C82.5408 31.5667 83.1731 32.2599 83.9916 32.7555C84.8154 33.2511 85.7939 33.4989 86.9273 33.4989ZM86.9273 31.4744C85.8517 31.4586 85.0436 31.1001 84.5032 30.399C83.968 29.6978 83.7004 28.7541 83.7004 27.5679C83.7004 26.3818 83.968 25.4302 84.5032 24.7132C85.0436 23.9962 85.8517 23.6456 86.9273 23.6614C88.0082 23.6773 88.8162 24.0357 89.3514 24.7369C89.8866 25.4381 90.1542 26.3818 90.1542 27.5679C90.1542 28.7541 89.8866 29.7057 89.3514 30.4227C88.8162 31.1397 88.0082 31.4902 86.9273 31.4744Z" fill="#0B1A2F"/>
<path d="M94.7791 33.2616H99.5644C99.6746 33.2616 99.8215 33.259 100.005 33.2537C100.194 33.2432 100.362 33.23 100.509 33.2142C101.165 33.1456 101.708 32.9453 102.138 32.6132C102.574 32.2758 102.899 31.8514 103.114 31.34C103.329 30.8233 103.437 30.2619 103.437 29.6556C103.437 29.0493 103.327 28.4905 103.106 27.9791C102.891 27.4625 102.566 27.0381 102.13 26.706C101.7 26.3686 101.16 26.1656 100.509 26.0971C100.362 26.0812 100.194 26.0707 100.005 26.0654C99.8163 26.0549 99.6694 26.0496 99.5644 26.0496H96.9199V23.8829H102.555V21.8743H94.7791V33.2616ZM96.9199 31.253V28.0582H99.47C99.5802 28.0582 99.7008 28.0635 99.832 28.074C99.9632 28.0793 100.084 28.0951 100.194 28.1215C100.63 28.2164 100.918 28.4193 101.06 28.7304C101.207 29.0362 101.28 29.3446 101.28 29.6556C101.28 29.9614 101.207 30.2698 101.06 30.5808C100.918 30.8919 100.63 31.0949 100.194 31.1897C100.084 31.2108 99.9632 31.2267 99.832 31.2372C99.7008 31.2477 99.5802 31.253 99.47 31.253H96.9199Z" fill="#0B1A2F"/>
<path d="M115.076 33.2616H112.903V25.67L107.976 33.2616H105.804V21.8743H107.976V29.4658L112.903 21.8743H115.076V33.2616Z" fill="#0B1A2F"/>
<path d="M117.272 33.2616C118.095 33.425 118.738 33.4013 119.2 33.1904C119.667 32.9796 120.021 32.6158 120.262 32.0992C120.504 31.5825 120.698 30.9472 120.845 30.1934C120.966 29.6134 121.068 29.0151 121.152 28.3983C121.236 27.7814 121.307 27.1857 121.364 26.6111C121.422 26.0364 121.467 25.5119 121.498 25.0374C121.535 24.5629 121.564 24.1781 121.585 23.8829H125.205V33.2616H127.346V21.8743H119.617C119.601 22.2169 119.578 22.6782 119.546 23.2581C119.515 23.8328 119.47 24.4707 119.412 25.1718C119.355 25.873 119.281 26.59 119.192 27.3228C119.108 28.0503 119.003 28.7436 118.877 29.4026C118.772 29.9614 118.657 30.3963 118.531 30.7074C118.405 31.0131 118.242 31.224 118.043 31.34C117.849 31.4507 117.592 31.4955 117.272 31.4744V33.2616Z" fill="#0B1A2F"/>
<path d="M130.328 33.2616H135.114C135.224 33.2616 135.371 33.2563 135.554 33.2458C135.743 33.2353 135.911 33.2194 136.058 33.1983C137.076 33.0402 137.819 32.6237 138.285 31.9489C138.752 31.2688 138.986 30.4517 138.986 29.4975C138.986 28.538 138.75 27.7208 138.278 27.046C137.805 26.3712 137.066 25.9547 136.058 25.7966C135.911 25.7702 135.743 25.7544 135.554 25.7491C135.366 25.7386 135.219 25.7333 135.114 25.7333H132.469V21.8743H130.328V33.2616ZM132.469 31.253V27.7419H135.019C135.129 27.7419 135.25 27.7472 135.381 27.7577C135.512 27.7683 135.633 27.7894 135.743 27.821C136.032 27.9001 136.255 28.0345 136.412 28.2243C136.57 28.4088 136.677 28.617 136.735 28.849C136.798 29.0757 136.829 29.2919 136.829 29.4975C136.829 29.7031 136.798 29.9218 136.735 30.1538C136.677 30.3805 136.57 30.5887 136.412 30.7785C136.255 30.9631 136.032 31.0949 135.743 31.1739C135.633 31.2056 135.512 31.2267 135.381 31.2372C135.25 31.2477 135.129 31.253 135.019 31.253H132.469Z" fill="#0B1A2F"/>
<path d="M141.507 33.2616H143.648V28.5643H148.717V33.2616H150.858V21.8743H148.717V26.5557H143.648V21.8743H141.507V33.2616Z" fill="#0B1A2F"/>
<path d="M158.718 33.4989C159.852 33.4989 160.828 33.2511 161.646 32.7555C162.47 32.2599 163.102 31.5667 163.543 30.6757C163.989 29.7848 164.212 28.7488 164.212 27.5679C164.212 26.387 163.989 25.3511 163.543 24.4601C163.102 23.5692 162.47 22.8759 161.646 22.3804C160.828 21.8848 159.852 21.637 158.718 21.637C157.585 21.637 156.606 21.8848 155.783 22.3804C154.964 22.8759 154.332 23.5692 153.886 24.4601C153.445 25.3511 153.225 26.387 153.225 27.5679C153.225 28.7488 153.445 29.7848 153.886 30.6757C154.332 31.5667 154.964 32.2599 155.783 32.7555C156.606 33.2511 157.585 33.4989 158.718 33.4989ZM158.718 31.4744C157.643 31.4586 156.835 31.1001 156.294 30.399C155.759 29.6978 155.491 28.7541 155.491 27.5679C155.491 26.3818 155.759 25.4302 156.294 24.7132C156.835 23.9962 157.643 23.6456 158.718 23.6614C159.799 23.6773 160.607 24.0357 161.142 24.7369C161.678 25.4381 161.945 26.3818 161.945 27.5679C161.945 28.7541 161.678 29.7057 161.142 30.4227C160.607 31.1397 159.799 31.4902 158.718 31.4744Z" fill="#0B1A2F"/>
<path d="M166.57 33.2616H168.711V23.8829H173.968V21.8743H166.57V33.2616Z" fill="#0B1A2F"/>
<path d="M180.876 33.4989C182.009 33.4989 182.985 33.2511 183.803 32.7555C184.627 32.2599 185.26 31.5667 185.7 30.6757C186.146 29.7848 186.369 28.7488 186.369 27.5679C186.369 26.387 186.146 25.3511 185.7 24.4601C185.26 23.5692 184.627 22.8759 183.803 22.3804C182.985 21.8848 182.009 21.637 180.876 21.637C179.742 21.637 178.764 21.8848 177.94 22.3804C177.121 22.8759 176.489 23.5692 176.043 24.4601C175.602 25.3511 175.382 26.387 175.382 27.5679C175.382 28.7488 175.602 29.7848 176.043 30.6757C176.489 31.5667 177.121 32.2599 177.94 32.7555C178.764 33.2511 179.742 33.4989 180.876 33.4989ZM180.876 31.4744C179.8 31.4586 178.992 31.1001 178.452 30.399C177.916 29.6978 177.649 28.7541 177.649 27.5679C177.649 26.3818 177.916 25.4302 178.452 24.7132C178.992 23.9962 179.8 23.6456 180.876 23.6614C181.957 23.6773 182.765 24.0357 183.3 24.7369C183.835 25.4381 184.103 26.3818 184.103 27.5679C184.103 28.7541 183.835 29.7057 183.3 30.4227C182.765 31.1397 181.957 31.4902 180.876 31.4744Z" fill="#0B1A2F"/>
<path d="M93.1729 54.3493H95.3137V44.9706H98.8869V42.962H89.5997V44.9706H93.1729V54.3493Z" fill="#0B1A2F"/>
<path d="M100.939 54.3493H103.08V50.4903H105.724C105.829 50.4903 105.976 50.485 106.165 50.4745C106.354 50.4639 106.522 50.4481 106.669 50.427C107.676 50.2688 108.416 49.8524 108.888 49.1776C109.36 48.4975 109.596 47.6803 109.596 46.7261C109.596 45.7666 109.363 44.9495 108.896 44.2747C108.429 43.5999 107.686 43.1834 106.669 43.0252C106.522 42.9989 106.354 42.983 106.165 42.9778C105.981 42.9672 105.834 42.962 105.724 42.962H100.939V54.3493ZM103.08 48.4817V44.9706H105.63C105.74 44.9706 105.86 44.9758 105.992 44.9864C106.123 44.9969 106.243 45.018 106.354 45.0496C106.642 45.1287 106.865 45.2632 107.023 45.4529C107.18 45.6375 107.288 45.8457 107.345 46.0777C107.408 46.3044 107.44 46.5205 107.44 46.7261C107.44 46.9317 107.408 47.1505 107.345 47.3825C107.288 47.6092 107.18 47.8174 107.023 48.0072C106.865 48.1917 106.642 48.3235 106.354 48.4026C106.243 48.4342 106.123 48.4553 105.992 48.4658C105.86 48.4764 105.74 48.4817 105.63 48.4817H103.08Z" fill="#0B1A2F"/>
<path d="M110.239 54.3493H112.443L113.159 51.977H117.425L118.157 54.3493H120.36L116.897 42.962H113.702L110.239 54.3493ZM113.765 49.9683L115.276 44.9785L116.811 49.9683H113.765Z" fill="#0B1A2F"/>
<path d="M125.966 54.3493H128.091V52.6887C128.867 52.8205 129.586 52.7387 130.247 52.4435C130.908 52.1483 131.441 51.6554 131.845 50.9647C132.249 50.2688 132.451 49.3937 132.451 48.3393C132.451 47.2849 132.249 46.4045 131.845 45.6981C131.441 44.9916 130.908 44.4855 130.247 44.1798C129.586 43.8687 128.867 43.7791 128.091 43.9109V42.962H125.966V43.9109C125.189 43.7791 124.47 43.8687 123.809 44.1798C123.153 44.4855 122.623 44.9916 122.219 45.6981C121.82 46.4045 121.621 47.2849 121.621 48.3393C121.621 49.3937 121.82 50.2688 122.219 50.9647C122.623 51.6554 123.153 52.1483 123.809 52.4435C124.47 52.7387 125.189 52.8205 125.966 52.6887V54.3493ZM125.966 50.7275C125.52 50.796 125.152 50.7723 124.864 50.6563C124.58 50.5403 124.36 50.3611 124.203 50.1186C124.05 49.8708 123.943 49.5914 123.88 49.2804C123.822 48.9693 123.793 48.6556 123.793 48.3393C123.793 48.023 123.822 47.7041 123.88 47.3825C123.943 47.0556 124.05 46.7657 124.203 46.5126C124.36 46.2543 124.58 46.0592 124.864 45.9274C125.152 45.7956 125.52 45.7666 125.966 45.8404V50.7275ZM128.091 50.7275V45.8404C128.537 45.7666 128.901 45.8035 129.185 45.9511C129.468 46.0935 129.688 46.3017 129.846 46.5759C130.008 46.8447 130.121 47.1426 130.184 47.4695C130.247 47.7963 130.279 48.1074 130.279 48.4026C130.279 48.6978 130.247 48.9983 130.184 49.3041C130.121 49.6046 130.008 49.8761 129.846 50.1186C129.688 50.3558 129.468 50.5351 129.185 50.6563C128.901 50.7723 128.537 50.796 128.091 50.7275Z" fill="#0B1A2F"/>
<path d="M144.084 54.3493H141.912V46.7577L136.985 54.3493H134.813V42.962H136.985V50.5535L141.912 42.962H144.084V54.3493Z" fill="#0B1A2F"/>
<path d="M147.067 54.3493H149.208V49.1617L153.726 54.3493H156.433L151.396 48.5766L156.134 42.962H153.521L149.208 48.2128V42.962H147.067V54.3493Z" fill="#0B1A2F"/>
<path d="M157.536 54.3493H159.74L160.456 51.977H164.722L165.454 54.3493H167.657L164.194 42.962H160.999L157.536 54.3493ZM161.062 49.9683L162.573 44.9785L164.108 49.9683H161.062Z" fill="#0B1A2F"/>
<defs>
<linearGradient id="paint0_linear" x1="187.299" y1="-66.5766" x2="-105.258" y2="79.8936" gradientUnits="userSpaceOnUse">
<stop stop-color="#3036F5"/>
<stop offset="0.624551" stop-color="#EF30F5"/>
<stop offset="1" stop-color="#FCA7FF"/>
</linearGradient>
<linearGradient id="paint1_linear" x1="280.627" y1="206.453" x2="133.69" y2="87.5284" gradientUnits="userSpaceOnUse">
<stop stop-color="#FF8F6F"/>
<stop offset="0.479439" stop-color="#F5BD30"/>
<stop offset="1" stop-color="#FAEC45"/>
</linearGradient>
</defs>
</svg>
