<svg width="40" height="40" viewBox="0 0 40 40" fill="none" xmlns="http://www.w3.org/2000/svg">
<g clip-path="url(#clip0)">
<path d="M15.3125 20.0007C15.3125 22.5853 17.4152 24.6882 19.9997 24.6882C21.9208 24.6882 23.6185 23.5151 24.325 21.6997C24.6378 20.8955 25.5435 20.4973 26.3477 20.8101C27.1518 21.1232 27.55 22.0286 27.2372 22.8328C26.0599 25.8583 23.219 27.8129 19.9997 27.8129C15.6918 27.8129 12.1875 24.3083 12.1875 20.0004C12.1875 16.6487 14.3066 13.669 17.4609 12.5853C18.2773 12.3051 19.166 12.7394 19.4464 13.5557C19.7266 14.3718 19.2923 15.2607 18.4763 15.5409C16.5839 16.1909 15.3125 17.9832 15.3125 20.0007ZM22.5186 9.7215C23.3569 9.92688 24.2029 9.41358 24.408 8.57557C24.6133 7.73755 24.1003 6.89161 23.262 6.68622C22.2803 6.44574 21.2131 6.32886 19.9997 6.32886C12.4612 6.32886 6.32812 12.462 6.32812 20.0007C6.32812 27.5392 12.4612 33.6723 19.9997 33.6723C27.5385 33.6723 33.6716 27.5392 33.6716 20.0007C33.6716 18.8847 33.5522 17.8166 33.3167 16.8266C33.1171 15.9871 32.2745 15.4686 31.4349 15.6682C30.5954 15.8677 30.0766 16.7103 30.2765 17.5499C30.4556 18.303 30.5466 19.1276 30.5466 20.0007C30.5466 25.8162 25.8154 30.5473 19.9997 30.5473C14.1843 30.5473 9.45312 25.8162 9.45312 20.0007C9.45312 14.1853 14.1843 9.45386 19.9997 9.45386C20.9595 9.45386 21.7834 9.54145 22.5186 9.7215ZM36.7453 11.9749C35.9372 12.2777 35.5276 13.1782 35.8301 13.9863C36.5231 15.8363 36.8747 17.8599 36.8747 20.0007C36.8747 29.3055 29.3045 36.8754 19.9997 36.8754C10.6949 36.8754 3.125 29.3055 3.125 20.0007C3.125 10.6959 10.6949 3.12574 19.9997 3.12574C22.0682 3.12574 24.1116 3.51331 26.0733 4.27717C26.8774 4.59028 27.7832 4.19233 28.0963 3.38819C28.4094 2.58405 28.0115 1.67829 27.2073 1.36518C24.8825 0.459722 22.4576 0.000737431 19.9997 0.000737431C14.6576 0.000737431 9.63531 2.08112 5.85785 5.85859C2.08038 9.63605 0 14.6586 0 20.0007C0 25.3428 2.08038 30.3651 5.85785 34.1426C9.63531 37.9201 14.6576 40.0004 19.9997 40.0004C25.3421 40.0004 30.3644 37.9201 34.1418 34.1426C37.9193 30.3651 39.9997 25.3428 39.9997 20.0007C39.9997 17.4843 39.5813 15.092 38.7567 12.8901C38.454 12.082 37.5534 11.6725 36.7453 11.9749ZM18.895 18.8957C18.2846 19.506 18.2846 20.4954 18.895 21.1055C19.2001 21.4107 19.5999 21.5632 19.9997 21.5632C20.3998 21.5632 20.7996 21.4107 21.1047 21.1055L31.0153 11.1949L38.8849 8.84137C39.7116 8.59418 40.1813 7.72352 39.9341 6.89679C39.6869 6.07007 38.8162 5.6001 37.9895 5.8476L35.6686 6.54157L37.9794 4.23078C38.5898 3.62043 38.5898 2.63105 37.9794 2.021C37.3694 1.41095 36.38 1.41095 35.7697 2.021L33.3374 4.45325L34.0735 2.0149C34.3228 1.18879 33.8556 0.3169 33.0295 0.0675709C32.2034 -0.181758 31.3315 0.285466 31.0818 1.11188L28.6618 9.12916L18.895 18.8957Z" fill="#8C30F5"/>
</g>
<defs>
<clipPath id="clip0">
<rect width="40" height="40" fill="white"/>
</clipPath>
</defs>
</svg>
