<svg width="40" height="40" viewBox="0 0 40 40" fill="none" xmlns="http://www.w3.org/2000/svg">
<path d="M29.6942 33.7485C29.6942 37.1954 26.8896 40 23.4427 40H8.28278C4.83582 40 2.03125 37.1954 2.03125 33.7485V6.24207C2.03125 2.7948 4.83582 0 8.28278 0H23.4427C26.8896 0 29.6942 2.7948 29.6942 6.24207C29.6942 7.1051 28.9944 7.80487 28.1311 7.80487C27.2681 7.80487 26.5683 7.1051 26.5683 6.24207C26.5683 4.51843 25.166 3.11615 23.4427 3.11615H8.28278C6.55914 3.11615 5.15686 4.51843 5.15686 6.24207V33.7485C5.15686 35.4721 6.55914 36.8839 8.28278 36.8839H23.4427C25.166 36.8839 26.5683 35.4721 26.5683 33.7485C26.5683 32.8854 27.2681 32.1857 28.1311 32.1857C28.9944 32.1857 29.6942 32.8854 29.6942 33.7485ZM14.2999 32.8986C14.2999 33.7616 14.9994 34.4614 15.8627 34.4614C16.7258 34.4614 17.4255 33.7616 17.4255 32.8986C17.4255 32.0352 16.7258 31.3354 15.8627 31.3354C14.9994 31.3354 14.2999 32.0352 14.2999 32.8986ZM18.9883 7.11121C18.9883 6.24786 18.2886 5.5481 17.4255 5.5481H14.2999C13.4366 5.5481 12.7368 6.24786 12.7368 7.11121C12.7368 7.97424 13.4366 8.67401 14.2999 8.67401H17.4255C18.2886 8.67401 18.9883 7.97424 18.9883 7.11121ZM37.8992 20.1611C37.8992 21.0242 37.1994 21.7239 36.3364 21.7239H35.3888C34.7775 24.5651 32.5354 26.8073 29.6942 27.4185V28.3661C29.6942 29.2294 28.9944 29.9289 28.1311 29.9289C27.2681 29.9289 26.5683 29.2294 26.5683 28.3661V27.4185C23.7271 26.8073 21.485 24.5654 20.8737 21.7239H19.9261C19.0631 21.7239 18.3633 21.0242 18.3633 20.1611C18.3633 19.2978 19.0631 18.5983 19.9261 18.5983H20.8737C21.485 15.7568 23.7271 13.5147 26.5683 12.9034V11.9559C26.5683 11.0928 27.2681 10.3931 28.1311 10.3931C28.9944 10.3931 29.6942 11.0928 29.6942 11.9559V12.9034C32.5354 13.5147 34.7775 15.7568 35.3888 18.5983H36.3364C37.1994 18.5983 37.8992 19.2978 37.8992 20.1611ZM32.1365 21.7169C31.3373 21.6479 30.7098 20.9781 30.7098 20.1611C30.7098 19.3439 31.3373 18.6743 32.1365 18.605C31.6998 17.485 30.8072 16.5924 29.6872 16.156C29.6179 16.955 28.9484 17.5824 28.1311 17.5824C27.3141 17.5824 26.6446 16.955 26.5753 16.156C25.4553 16.5924 24.5627 17.485 24.126 18.605C24.9252 18.6743 25.5524 19.3439 25.5524 20.1611C25.5524 20.9781 24.9252 21.6479 24.126 21.7169C24.5639 22.84 25.4602 23.7344 26.5842 24.1699C26.6876 23.4067 27.3398 22.818 28.1314 22.818C28.9227 22.818 29.5749 23.4067 29.6783 24.1699C30.8023 23.7344 31.6986 22.84 32.1365 21.7169Z" fill="#8C30F5"/>
</svg>
