<svg width="139" height="81" viewBox="0 0 139 81" fill="none" xmlns="http://www.w3.org/2000/svg">
<path d="M1.27881 5C1.27881 2.51472 3.29353 0.5 5.77881 0.5H133.779C136.264 0.5 138.279 2.51472 138.279 5V76C138.279 78.4853 136.264 80.5 133.779 80.5H5.77881C3.29353 80.5 1.27881 78.4853 1.27881 76V5Z" fill="white" stroke="#6340CD"/>
<circle cx="15.2788" cy="17.5" r="2.5" fill="#6340CD"/>
<path d="M22.8948 12.624H28.9788V21H27.9708V13.512H23.9028V21H22.8948V12.624ZM31.1191 14.808H32.0791V15.816H32.1271C32.2871 15.424 32.5191 15.136 32.8231 14.952C33.1351 14.76 33.5071 14.664 33.9391 14.664C34.3231 14.664 34.6711 14.74 34.9831 14.892C35.2951 15.044 35.5591 15.26 35.7751 15.54C35.9991 15.82 36.1671 16.16 36.2791 16.56C36.3991 16.96 36.4591 17.408 36.4591 17.904C36.4591 18.4 36.3991 18.848 36.2791 19.248C36.1671 19.648 35.9991 19.988 35.7751 20.268C35.5591 20.548 35.2951 20.764 34.9831 20.916C34.6711 21.068 34.3231 21.144 33.9391 21.144C33.0991 21.144 32.4951 20.76 32.1271 19.992H32.0791V23.4H31.1191V14.808ZM33.6751 20.28C34.2191 20.28 34.6471 20.112 34.9591 19.776C35.2711 19.432 35.4271 18.984 35.4271 18.432V17.376C35.4271 16.824 35.2711 16.38 34.9591 16.044C34.6471 15.7 34.2191 15.528 33.6751 15.528C33.4591 15.528 33.2511 15.56 33.0511 15.624C32.8591 15.68 32.6911 15.76 32.5471 15.864C32.4031 15.968 32.2871 16.096 32.1991 16.248C32.1191 16.392 32.0791 16.548 32.0791 16.716V19.02C32.0791 19.22 32.1191 19.4 32.1991 19.56C32.2871 19.712 32.4031 19.844 32.5471 19.956C32.6911 20.06 32.8591 20.14 33.0511 20.196C33.2511 20.252 33.4591 20.28 33.6751 20.28ZM40.4201 21.144C40.0041 21.144 39.6241 21.068 39.2801 20.916C38.9361 20.764 38.6401 20.548 38.3921 20.268C38.1521 19.98 37.9641 19.64 37.8281 19.248C37.6921 18.848 37.6241 18.4 37.6241 17.904C37.6241 17.416 37.6921 16.972 37.8281 16.572C37.9641 16.172 38.1521 15.832 38.3921 15.552C38.6401 15.264 38.9361 15.044 39.2801 14.892C39.6241 14.74 40.0041 14.664 40.4201 14.664C40.8361 14.664 41.2121 14.74 41.5481 14.892C41.8921 15.044 42.1881 15.264 42.4361 15.552C42.6841 15.832 42.8761 16.172 43.0121 16.572C43.1481 16.972 43.2161 17.416 43.2161 17.904C43.2161 18.4 43.1481 18.848 43.0121 19.248C42.8761 19.64 42.6841 19.98 42.4361 20.268C42.1881 20.548 41.8921 20.764 41.5481 20.916C41.2121 21.068 40.8361 21.144 40.4201 21.144ZM40.4201 20.292C40.9401 20.292 41.3641 20.132 41.6921 19.812C42.0201 19.492 42.1841 19.004 42.1841 18.348V17.46C42.1841 16.804 42.0201 16.316 41.6921 15.996C41.3641 15.676 40.9401 15.516 40.4201 15.516C39.9001 15.516 39.4761 15.676 39.1481 15.996C38.8201 16.316 38.6561 16.804 38.6561 17.46V18.348C38.6561 19.004 38.8201 19.492 39.1481 19.812C39.4761 20.132 39.9001 20.292 40.4201 20.292ZM47.0989 21.144C46.6669 21.144 46.2789 21.068 45.9349 20.916C45.5909 20.764 45.2989 20.548 45.0589 20.268C44.8269 19.988 44.6469 19.648 44.5189 19.248C44.3989 18.848 44.3389 18.4 44.3389 17.904C44.3389 17.408 44.3989 16.96 44.5189 16.56C44.6469 16.16 44.8269 15.82 45.0589 15.54C45.2989 15.26 45.5909 15.044 45.9349 14.892C46.2789 14.74 46.6669 14.664 47.0989 14.664C47.7149 14.664 48.2069 14.8 48.5749 15.072C48.9509 15.336 49.2309 15.684 49.4149 16.116L48.6109 16.524C48.4989 16.204 48.3149 15.956 48.0589 15.78C47.8029 15.604 47.4829 15.516 47.0989 15.516C46.8109 15.516 46.5589 15.564 46.3429 15.66C46.1269 15.748 45.9469 15.876 45.8029 16.044C45.6589 16.204 45.5509 16.4 45.4789 16.632C45.4069 16.856 45.3709 17.104 45.3709 17.376V18.432C45.3709 18.976 45.5149 19.424 45.8029 19.776C46.0989 20.12 46.5309 20.292 47.0989 20.292C47.8749 20.292 48.4349 19.932 48.7789 19.212L49.4749 19.68C49.2749 20.128 48.9749 20.484 48.5749 20.748C48.1829 21.012 47.6909 21.144 47.0989 21.144ZM50.8301 14.808H52.0901L53.9741 18.024H54.0221L55.8941 14.808H57.1421V21H56.2061V15.96H56.1461L55.7981 16.632L53.9861 19.704L52.1741 16.632L51.8261 15.96H51.7661V21H50.8301V14.808ZM61.5255 21.144C61.1095 21.144 60.7295 21.068 60.3855 20.916C60.0415 20.764 59.7455 20.548 59.4975 20.268C59.2575 19.98 59.0695 19.64 58.9335 19.248C58.7975 18.848 58.7295 18.4 58.7295 17.904C58.7295 17.416 58.7975 16.972 58.9335 16.572C59.0695 16.172 59.2575 15.832 59.4975 15.552C59.7455 15.264 60.0415 15.044 60.3855 14.892C60.7295 14.74 61.1095 14.664 61.5255 14.664C61.9415 14.664 62.3175 14.74 62.6535 14.892C62.9975 15.044 63.2935 15.264 63.5415 15.552C63.7895 15.832 63.9815 16.172 64.1175 16.572C64.2535 16.972 64.3215 17.416 64.3215 17.904C64.3215 18.4 64.2535 18.848 64.1175 19.248C63.9815 19.64 63.7895 19.98 63.5415 20.268C63.2935 20.548 62.9975 20.764 62.6535 20.916C62.3175 21.068 61.9415 21.144 61.5255 21.144ZM61.5255 20.292C62.0455 20.292 62.4695 20.132 62.7975 19.812C63.1255 19.492 63.2895 19.004 63.2895 18.348V17.46C63.2895 16.804 63.1255 16.316 62.7975 15.996C62.4695 15.676 62.0455 15.516 61.5255 15.516C61.0055 15.516 60.5815 15.676 60.2535 15.996C59.9255 16.316 59.7615 16.804 59.7615 17.46V18.348C59.7615 19.004 59.9255 19.492 60.2535 19.812C60.5815 20.132 61.0055 20.292 61.5255 20.292ZM67.08 15.648H64.968V14.808H70.152V15.648H68.04V21H67.08V15.648ZM71.4082 14.808H72.3682V15.816H72.4162C72.5762 15.424 72.8082 15.136 73.1122 14.952C73.4242 14.76 73.7962 14.664 74.2282 14.664C74.6122 14.664 74.9602 14.74 75.2722 14.892C75.5842 15.044 75.8482 15.26 76.0642 15.54C76.2882 15.82 76.4562 16.16 76.5682 16.56C76.6882 16.96 76.7482 17.408 76.7482 17.904C76.7482 18.4 76.6882 18.848 76.5682 19.248C76.4562 19.648 76.2882 19.988 76.0642 20.268C75.8482 20.548 75.5842 20.764 75.2722 20.916C74.9602 21.068 74.6122 21.144 74.2282 21.144C73.3882 21.144 72.7842 20.76 72.4162 19.992H72.3682V23.4H71.4082V14.808ZM73.9642 20.28C74.5082 20.28 74.9362 20.112 75.2482 19.776C75.5602 19.432 75.7162 18.984 75.7162 18.432V17.376C75.7162 16.824 75.5602 16.38 75.2482 16.044C74.9362 15.7 74.5082 15.528 73.9642 15.528C73.7482 15.528 73.5402 15.56 73.3402 15.624C73.1482 15.68 72.9802 15.76 72.8362 15.864C72.6922 15.968 72.5762 16.096 72.4882 16.248C72.4082 16.392 72.3682 16.548 72.3682 16.716V19.02C72.3682 19.22 72.4082 19.4 72.4882 19.56C72.5762 19.712 72.6922 19.844 72.8362 19.956C72.9802 20.06 73.1482 20.14 73.3402 20.196C73.5402 20.252 73.7482 20.28 73.9642 20.28ZM78.3691 14.808H79.3291V17.052H80.9731C81.5971 17.052 82.0931 17.228 82.4611 17.58C82.8291 17.932 83.0131 18.416 83.0131 19.032C83.0131 19.656 82.8331 20.14 82.4731 20.484C82.1131 20.828 81.6171 21 80.9851 21H78.3691V14.808ZM80.8411 20.16C81.2011 20.16 81.4811 20.092 81.6811 19.956C81.8811 19.82 81.9811 19.592 81.9811 19.272V18.768C81.9811 18.448 81.8811 18.224 81.6811 18.096C81.4811 17.96 81.2011 17.892 80.8411 17.892H79.3291V20.16H80.8411ZM84.0571 14.808H85.0171V21H84.0571V14.808Z" fill="#293347"/>
<path d="M13.8948 57.624H19.9788V66H18.9708V58.512H14.9028V66H13.8948V57.624ZM21.5671 65.16H22.2511L22.6471 64.248C22.7351 64.04 22.8431 63.884 22.9711 63.78C23.0991 63.668 23.2431 63.6 23.4031 63.576V63.528C22.8511 63.48 22.4351 63.3 22.1551 62.988C21.8751 62.676 21.7351 62.256 21.7351 61.728C21.7351 61.128 21.9151 60.66 22.2751 60.324C22.6351 59.98 23.1311 59.808 23.7631 59.808H26.4991V66H25.5391V63.624H23.9311L23.2831 65.148C23.1391 65.484 22.9791 65.712 22.8031 65.832C22.6351 65.944 22.4431 66 22.2271 66H21.5671V65.16ZM25.5391 62.808V60.648H23.9071C23.5471 60.648 23.2671 60.716 23.0671 60.852C22.8671 60.988 22.7671 61.216 22.7671 61.536V61.932C22.7671 62.252 22.8671 62.48 23.0671 62.616C23.2671 62.744 23.5471 62.808 23.9071 62.808H25.5391ZM29.873 60.648H27.761V59.808H32.945V60.648H30.833V66H29.873V60.648ZM34.2012 59.808H35.1612V62.388H38.2572V59.808H39.2172V66H38.2572V63.228H35.1612V66H34.2012V59.808ZM41.2558 59.808H42.1918V63.24L42.0958 64.728H42.1438L42.9118 63.408L45.3838 59.808H46.2718V66H45.3358V62.568L45.4318 61.08H45.3838L44.6158 62.4L42.1438 66H41.2558V59.808ZM53.3025 66H48.3105V59.808H49.2705V65.16H52.1865V59.808H53.1465V65.16H54.1785V67.68H53.3025V66ZM60.0058 66C59.6458 66 59.3858 65.904 59.2258 65.712C59.0738 65.52 58.9778 65.28 58.9378 64.992H58.8778C58.7418 65.376 58.5178 65.664 58.2058 65.856C57.8938 66.048 57.5218 66.144 57.0898 66.144C56.4338 66.144 55.9218 65.976 55.5538 65.64C55.1938 65.304 55.0138 64.848 55.0138 64.272C55.0138 63.688 55.2258 63.24 55.6498 62.928C56.0818 62.616 56.7498 62.46 57.6538 62.46H58.8778V61.848C58.8778 61.408 58.7578 61.072 58.5178 60.84C58.2778 60.608 57.9098 60.492 57.4138 60.492C57.0378 60.492 56.7218 60.576 56.4658 60.744C56.2178 60.912 56.0098 61.136 55.8418 61.416L55.2658 60.876C55.4338 60.54 55.7018 60.256 56.0698 60.024C56.4378 59.784 56.9018 59.664 57.4618 59.664C58.2138 59.664 58.7978 59.848 59.2138 60.216C59.6298 60.584 59.8378 61.096 59.8378 61.752V65.16H60.5458V66H60.0058ZM57.2458 65.328C57.4858 65.328 57.7058 65.3 57.9058 65.244C58.1058 65.188 58.2778 65.108 58.4218 65.004C58.5658 64.9 58.6778 64.78 58.7578 64.644C58.8378 64.508 58.8778 64.36 58.8778 64.2V63.18H57.6058C57.0538 63.18 56.6498 63.26 56.3938 63.42C56.1458 63.58 56.0218 63.812 56.0218 64.116V64.368C56.0218 64.672 56.1298 64.908 56.3458 65.076C56.5698 65.244 56.8698 65.328 57.2458 65.328ZM64.7879 66V65.112H67.1279V58.368H67.0439L64.9319 60.336L64.3439 59.7L66.5639 57.624H68.1359V65.112H70.2959V66H64.7879ZM76.9032 58.512H73.2312L72.9912 61.704H73.0752C73.2752 61.424 73.4992 61.2 73.7472 61.032C74.0032 60.864 74.3512 60.78 74.7912 60.78C75.1512 60.78 75.4832 60.84 75.7872 60.96C76.0912 61.08 76.3552 61.252 76.5792 61.476C76.8032 61.692 76.9752 61.96 77.0952 62.28C77.2232 62.6 77.2872 62.964 77.2872 63.372C77.2872 63.78 77.2232 64.156 77.0952 64.5C76.9672 64.836 76.7792 65.128 76.5312 65.376C76.2912 65.616 75.9952 65.804 75.6432 65.94C75.2992 66.076 74.9072 66.144 74.4672 66.144C74.1152 66.144 73.8032 66.104 73.5312 66.024C73.2672 65.944 73.0312 65.836 72.8232 65.7C72.6152 65.564 72.4312 65.412 72.2712 65.244C72.1192 65.076 71.9792 64.9 71.8512 64.716L72.6072 64.14C72.7112 64.308 72.8192 64.46 72.9312 64.596C73.0512 64.732 73.1792 64.848 73.3152 64.944C73.4592 65.04 73.6232 65.116 73.8072 65.172C73.9912 65.22 74.2112 65.244 74.4672 65.244C75.0432 65.244 75.4792 65.092 75.7752 64.788C76.0712 64.484 76.2192 64.056 76.2192 63.504V63.384C76.2192 62.832 76.0712 62.404 75.7752 62.1C75.4792 61.796 75.0432 61.644 74.4672 61.644C74.0832 61.644 73.7792 61.716 73.5552 61.86C73.3392 61.996 73.1432 62.16 72.9672 62.352L72.1152 62.232L72.4152 57.624H76.9032V58.512ZM85.5185 65.268H85.1465C84.5785 65.268 84.0705 65.18 83.6225 65.004C83.1825 64.828 82.8065 64.588 82.4945 64.284C82.1905 63.98 81.9585 63.62 81.7985 63.204C81.6385 62.78 81.5585 62.32 81.5585 61.824C81.5585 61.336 81.6385 60.88 81.7985 60.456C81.9665 60.032 82.2025 59.668 82.5065 59.364C82.8185 59.06 83.1945 58.82 83.6345 58.644C84.0825 58.468 84.5905 58.38 85.1585 58.38H85.5185V57.3H86.5265V58.38H86.8865C87.4465 58.38 87.9505 58.468 88.3985 58.644C88.8465 58.82 89.2225 59.06 89.5265 59.364C89.8385 59.668 90.0745 60.032 90.2345 60.456C90.4025 60.88 90.4865 61.336 90.4865 61.824C90.4865 62.32 90.4025 62.78 90.2345 63.204C90.0745 63.62 89.8385 63.98 89.5265 64.284C89.2225 64.588 88.8465 64.828 88.3985 65.004C87.9505 65.18 87.4465 65.268 86.8865 65.268H86.5265V66.348H85.5185V65.268ZM85.5425 64.428V59.22H85.1585C84.7825 59.22 84.4385 59.276 84.1265 59.388C83.8225 59.5 83.5585 59.656 83.3345 59.856C83.1105 60.056 82.9385 60.292 82.8185 60.564C82.6985 60.836 82.6385 61.132 82.6385 61.452V62.196C82.6385 62.516 82.6985 62.812 82.8185 63.084C82.9385 63.356 83.1065 63.592 83.3225 63.792C83.5465 63.992 83.8105 64.148 84.1145 64.26C84.4265 64.372 84.7705 64.428 85.1465 64.428H85.5425ZM86.8865 64.428C87.2625 64.428 87.6025 64.372 87.9065 64.26C88.2185 64.148 88.4865 63.992 88.7105 63.792C88.9345 63.592 89.1065 63.356 89.2265 63.084C89.3465 62.812 89.4065 62.516 89.4065 62.196V61.452C89.4065 61.132 89.3465 60.836 89.2265 60.564C89.1065 60.292 88.9345 60.056 88.7105 59.856C88.4865 59.656 88.2185 59.5 87.9065 59.388C87.6025 59.276 87.2625 59.22 86.8865 59.22H86.5025V64.428H86.8865ZM94.4315 66.144C94.0075 66.144 93.6235 66.068 93.2795 65.916C92.9435 65.764 92.6515 65.548 92.4035 65.268C92.1635 64.98 91.9755 64.64 91.8395 64.248C91.7115 63.848 91.6475 63.4 91.6475 62.904C91.6475 62.416 91.7115 61.972 91.8395 61.572C91.9755 61.172 92.1635 60.832 92.4035 60.552C92.6515 60.264 92.9435 60.044 93.2795 59.892C93.6235 59.74 94.0075 59.664 94.4315 59.664C94.8475 59.664 95.2195 59.74 95.5475 59.892C95.8755 60.044 96.1555 60.256 96.3875 60.528C96.6195 60.792 96.7955 61.108 96.9155 61.476C97.0435 61.844 97.1075 62.248 97.1075 62.688V63.144H92.6555V63.432C92.6555 63.696 92.6955 63.944 92.7755 64.176C92.8635 64.4 92.9835 64.596 93.1355 64.764C93.2955 64.932 93.4875 65.064 93.7115 65.16C93.9435 65.256 94.2035 65.304 94.4915 65.304C94.8835 65.304 95.2235 65.212 95.5115 65.028C95.8075 64.844 96.0355 64.58 96.1955 64.236L96.8795 64.728C96.6795 65.152 96.3675 65.496 95.9435 65.76C95.5195 66.016 95.0155 66.144 94.4315 66.144ZM94.4315 60.468C94.1675 60.468 93.9275 60.516 93.7115 60.612C93.4955 60.7 93.3075 60.828 93.1475 60.996C92.9955 61.164 92.8755 61.364 92.7875 61.596C92.6995 61.82 92.6555 62.068 92.6555 62.34V62.424H96.0755V62.292C96.0755 61.74 95.9235 61.3 95.6195 60.972C95.3235 60.636 94.9275 60.468 94.4315 60.468ZM98.6894 59.808H101.809C102.313 59.808 102.709 59.952 102.997 60.24C103.285 60.52 103.429 60.9 103.429 61.38C103.429 62.156 103.025 62.592 102.217 62.688V62.736C102.697 62.776 103.053 62.928 103.285 63.192C103.525 63.448 103.645 63.768 103.645 64.152C103.645 64.4 103.605 64.636 103.525 64.86C103.453 65.084 103.345 65.28 103.201 65.448C103.057 65.616 102.881 65.752 102.673 65.856C102.465 65.952 102.229 66 101.965 66H98.6894V59.808ZM101.677 65.208C101.965 65.208 102.193 65.132 102.361 64.98C102.529 64.828 102.613 64.612 102.613 64.332V64.056C102.613 63.776 102.529 63.56 102.361 63.408C102.193 63.256 101.965 63.18 101.677 63.18H99.6494V65.208H101.677ZM101.557 62.4C101.821 62.4 102.025 62.336 102.169 62.208C102.321 62.072 102.397 61.88 102.397 61.632V61.368C102.397 61.12 102.321 60.932 102.169 60.804C102.025 60.668 101.821 60.6 101.557 60.6H99.6494V62.4H101.557ZM105.936 57C106.192 57 106.376 57.068 106.488 57.204C106.608 57.332 106.668 57.5 106.668 57.708V57.876C106.668 58.204 106.572 58.568 106.38 58.968C106.188 59.36 105.92 59.704 105.576 60H104.772C105.012 59.744 105.204 59.504 105.348 59.28C105.5 59.048 105.608 58.792 105.672 58.512C105.512 58.472 105.392 58.396 105.312 58.284C105.24 58.172 105.204 58.036 105.204 57.876V57.708C105.204 57.5 105.26 57.332 105.372 57.204C105.492 57.068 105.68 57 105.936 57ZM113.921 66H108.425V64.968L111.161 62.448C111.553 62.088 111.881 61.708 112.145 61.308C112.409 60.9 112.541 60.492 112.541 60.084V59.94C112.541 59.476 112.413 59.1 112.157 58.812C111.901 58.524 111.513 58.38 110.993 58.38C110.737 58.38 110.513 58.416 110.321 58.488C110.129 58.56 109.961 58.66 109.817 58.788C109.681 58.916 109.565 59.068 109.469 59.244C109.381 59.412 109.309 59.596 109.253 59.796L108.353 59.448C108.433 59.2 108.541 58.96 108.677 58.728C108.821 58.488 108.997 58.276 109.205 58.092C109.421 57.908 109.677 57.76 109.973 57.648C110.277 57.536 110.633 57.48 111.041 57.48C111.449 57.48 111.813 57.54 112.133 57.66C112.453 57.78 112.721 57.948 112.937 58.164C113.153 58.38 113.317 58.636 113.429 58.932C113.549 59.228 113.609 59.556 113.609 59.916C113.609 60.244 113.561 60.548 113.465 60.828C113.377 61.108 113.253 61.376 113.093 61.632C112.933 61.88 112.737 62.124 112.505 62.364C112.281 62.604 112.037 62.844 111.773 63.084L109.517 65.112H113.921V66ZM115.776 66V65.112H118.116V58.368H118.032L115.92 60.336L115.332 59.7L117.552 57.624H119.124V65.112H121.284V66H115.776Z" fill="#293347"/>
<path d="M23.7896 48H12.7976V45.936L18.2696 40.896C19.0536 40.176 19.7096 39.416 20.2376 38.616C20.7656 37.8 21.0296 36.984 21.0296 36.168V35.88C21.0296 34.952 20.7736 34.2 20.2616 33.624C19.7496 33.048 18.9736 32.76 17.9336 32.76C17.4216 32.76 16.9736 32.832 16.5896 32.976C16.2056 33.12 15.8696 33.32 15.5816 33.576C15.3096 33.832 15.0776 34.136 14.8856 34.488C14.7096 34.824 14.5656 35.192 14.4536 35.592L12.6536 34.896C12.8136 34.4 13.0296 33.92 13.3016 33.456C13.5896 32.976 13.9416 32.552 14.3576 32.184C14.7896 31.816 15.3016 31.52 15.8936 31.296C16.5016 31.072 17.2136 30.96 18.0296 30.96C18.8456 30.96 19.5736 31.08 20.2136 31.32C20.8536 31.56 21.3896 31.896 21.8216 32.328C22.2536 32.76 22.5816 33.272 22.8056 33.864C23.0456 34.456 23.1656 35.112 23.1656 35.832C23.1656 36.488 23.0696 37.096 22.8776 37.656C22.7016 38.216 22.4536 38.752 22.1336 39.264C21.8136 39.76 21.4216 40.248 20.9576 40.728C20.5096 41.208 20.0216 41.688 19.4936 42.168L14.9816 46.224H23.7896V48ZM32.5882 48.288C31.6282 48.288 30.7882 48.168 30.0682 47.928C29.3482 47.672 28.7402 47.328 28.2442 46.896C27.7642 46.464 27.3962 45.952 27.1402 45.36C26.9002 44.768 26.7802 44.128 26.7802 43.44C26.7802 42.288 27.0922 41.376 27.7162 40.704C28.3402 40.032 29.1562 39.56 30.1642 39.288V39.096C29.2842 38.792 28.5802 38.304 28.0522 37.632C27.5402 36.944 27.2842 36.12 27.2842 35.16C27.2842 33.88 27.7482 32.864 28.6762 32.112C29.6042 31.344 30.9082 30.96 32.5882 30.96C34.2682 30.96 35.5722 31.344 36.5002 32.112C37.4282 32.864 37.8922 33.88 37.8922 35.16C37.8922 36.12 37.6282 36.944 37.1002 37.632C36.5882 38.304 35.8922 38.792 35.0122 39.096V39.288C36.0202 39.56 36.8362 40.032 37.4602 40.704C38.0842 41.376 38.3962 42.288 38.3962 43.44C38.3962 44.128 38.2682 44.768 38.0122 45.36C37.7722 45.952 37.4042 46.464 36.9082 46.896C36.4282 47.328 35.8282 47.672 35.1082 47.928C34.3882 48.168 33.5482 48.288 32.5882 48.288ZM32.5882 46.536C33.7562 46.536 34.6602 46.28 35.3002 45.768C35.9402 45.24 36.2602 44.496 36.2602 43.536V43.032C36.2602 42.072 35.9402 41.336 35.3002 40.824C34.6602 40.296 33.7562 40.032 32.5882 40.032C31.4202 40.032 30.5162 40.296 29.8762 40.824C29.2362 41.336 28.9162 42.072 28.9162 43.032V43.536C28.9162 44.496 29.2362 45.24 29.8762 45.768C30.5162 46.28 31.4202 46.536 32.5882 46.536ZM32.5882 38.352C33.6442 38.352 34.4442 38.128 34.9882 37.68C35.5322 37.232 35.8042 36.576 35.8042 35.712V35.352C35.8042 34.488 35.5322 33.832 34.9882 33.384C34.4442 32.936 33.6442 32.712 32.5882 32.712C31.5322 32.712 30.7322 32.936 30.1882 33.384C29.6442 33.832 29.3722 34.488 29.3722 35.352V35.712C29.3722 36.576 29.6442 37.232 30.1882 37.68C30.7322 38.128 31.5322 38.352 32.5882 38.352ZM51.7308 33.024H44.3868L43.9068 39.408H44.0748C44.4748 38.848 44.9228 38.4 45.4188 38.064C45.9308 37.728 46.6268 37.56 47.5068 37.56C48.2268 37.56 48.8908 37.68 49.4988 37.92C50.1068 38.16 50.6348 38.504 51.0828 38.952C51.5308 39.384 51.8748 39.92 52.1148 40.56C52.3708 41.2 52.4988 41.928 52.4988 42.744C52.4988 43.56 52.3708 44.312 52.1148 45C51.8588 45.672 51.4828 46.256 50.9868 46.752C50.5068 47.232 49.9148 47.608 49.2108 47.88C48.5228 48.152 47.7388 48.288 46.8588 48.288C46.1548 48.288 45.5308 48.208 44.9868 48.048C44.4588 47.888 43.9868 47.672 43.5708 47.4C43.1548 47.128 42.7868 46.824 42.4668 46.488C42.1628 46.152 41.8828 45.8 41.6268 45.432L43.1388 44.28C43.3468 44.616 43.5628 44.92 43.7868 45.192C44.0268 45.464 44.2828 45.696 44.5548 45.888C44.8428 46.08 45.1708 46.232 45.5388 46.344C45.9068 46.44 46.3468 46.488 46.8588 46.488C48.0108 46.488 48.8828 46.184 49.4748 45.576C50.0668 44.968 50.3628 44.112 50.3628 43.008V42.768C50.3628 41.664 50.0668 40.808 49.4748 40.2C48.8828 39.592 48.0108 39.288 46.8588 39.288C46.0908 39.288 45.4828 39.432 45.0348 39.72C44.6028 39.992 44.2108 40.32 43.8588 40.704L42.1548 40.464L42.7548 31.248H51.7308V33.024ZM61.3694 48.288C59.3694 48.288 57.9054 47.528 56.9774 46.008C56.0654 44.488 55.6094 42.36 55.6094 39.624C55.6094 36.888 56.0654 34.76 56.9774 33.24C57.9054 31.72 59.3694 30.96 61.3694 30.96C63.3694 30.96 64.8254 31.72 65.7374 33.24C66.6654 34.76 67.1294 36.888 67.1294 39.624C67.1294 42.36 66.6654 44.488 65.7374 46.008C64.8254 47.528 63.3694 48.288 61.3694 48.288ZM61.3694 46.536C62.0254 46.536 62.5854 46.4 63.0494 46.128C63.5134 45.856 63.8894 45.472 64.1774 44.976C64.4654 44.48 64.6734 43.896 64.8014 43.224C64.9454 42.552 65.0174 41.808 65.0174 40.992V38.256C65.0174 37.44 64.9454 36.696 64.8014 36.024C64.6734 35.352 64.4654 34.768 64.1774 34.272C63.8894 33.776 63.5134 33.392 63.0494 33.12C62.5854 32.848 62.0254 32.712 61.3694 32.712C60.7134 32.712 60.1534 32.848 59.6894 33.12C59.2254 33.392 58.8494 33.776 58.5614 34.272C58.2734 34.768 58.0574 35.352 57.9134 36.024C57.7854 36.696 57.7214 37.44 57.7214 38.256V40.992C57.7214 41.808 57.7854 42.552 57.9134 43.224C58.0574 43.896 58.2734 44.48 58.5614 44.976C58.8494 45.472 59.2254 45.856 59.6894 46.128C60.1534 46.4 60.7134 46.536 61.3694 46.536Z" fill="#0D0C18"/>
</svg>
