<svg width="41" height="41" viewBox="0 0 41 41" fill="none" xmlns="http://www.w3.org/2000/svg">
<path d="M4.98113 31.7285C4.29513 31.7285 3.70213 31.7375 3.11013 31.7265C1.47513 31.6985 0.31513 30.5275 0.30813 28.8865C0.29913 26.8635 0.29813 24.8405 0.30813 22.8175C0.31613 21.1825 1.47713 20.0235 3.12413 19.9915C3.71513 19.9805 4.30613 19.9895 4.96513 19.9895C4.81313 16.6545 6.24313 14.6915 9.72213 14.4665C9.74213 13.3025 9.72113 12.1235 10.5381 11.1515C11.3361 10.2025 12.3771 9.82547 13.6431 9.81847C13.6431 8.97447 13.6641 8.16647 13.6231 7.36047C13.6161 7.21547 13.3681 7.05147 13.1991 6.95247C11.9431 6.21547 11.2751 5.13647 11.3401 3.67147C11.4041 2.23147 12.1351 1.19447 13.4471 0.617469C14.7681 0.0364692 16.0181 0.256469 17.1191 1.16947C19.0121 2.73847 18.6751 5.74647 16.4681 6.92847C16.1121 7.11947 15.9901 7.31647 16.0061 7.70147C16.0351 8.38947 16.0141 9.07847 16.0141 9.80447C18.8851 9.80447 21.6911 9.80447 24.5851 9.80447C24.5851 8.98547 24.6111 8.17847 24.5631 7.37547C24.5541 7.21647 24.2851 7.03647 24.1001 6.93047C22.8451 6.21347 22.1151 4.86547 22.2741 3.51447C22.4501 2.01347 23.4121 0.850469 24.8061 0.453469C26.4961 -0.0285308 28.2901 0.819469 28.9931 2.43047C29.7071 4.06747 29.1011 5.96947 27.5221 6.85547C27.0751 7.10647 26.9091 7.37047 26.9451 7.86947C26.9901 8.49747 26.9561 9.13047 26.9561 9.81247C28.2191 9.83047 29.2911 10.1915 30.0861 11.1735C30.8671 12.1375 30.8831 13.2895 30.8621 14.5035C32.3631 14.4955 33.6351 14.9285 34.6011 16.0655C35.5521 17.1845 35.7051 18.5235 35.6131 19.9895C36.2521 19.9895 36.8211 19.9845 37.3901 19.9905C39.1471 20.0095 40.2921 21.1535 40.2971 22.9065C40.3031 24.8895 40.3041 26.8725 40.2961 28.8565C40.2891 30.5325 39.1341 31.7015 37.4631 31.7305C36.8731 31.7405 36.2821 31.7325 35.6161 31.7325C35.7201 33.3305 35.5021 34.7885 34.3331 35.9425C33.1621 37.0985 31.7031 37.3125 30.0671 37.1745C30.0671 37.8105 30.0751 38.3775 30.0651 38.9445C30.0441 40.1445 29.1691 40.6405 28.1201 40.0455C26.6201 39.1945 25.1321 38.3225 23.6211 37.4925C23.3091 37.3215 22.9191 37.2125 22.5651 37.2115C18.2621 37.1935 13.9581 37.2095 9.65413 37.1975C6.75413 37.1895 4.98813 35.4035 4.98013 32.5115C4.98013 32.2755 4.98113 32.0405 4.98113 31.7285ZM27.7081 37.0955C27.7081 36.7215 27.7051 36.5055 27.7081 36.2905C27.7241 35.2685 28.1481 34.8425 29.1611 34.8375C29.8151 34.8335 30.4701 34.8405 31.1241 34.8355C32.4751 34.8265 33.2651 34.0435 33.2661 32.6875C33.2711 28.1265 33.2711 23.5665 33.2661 19.0055C33.2641 17.6895 32.4631 16.8785 31.1601 16.8775C23.9231 16.8735 16.6851 16.8725 9.44813 16.8775C8.13713 16.8785 7.34213 17.6835 7.34013 19.0015C7.33413 23.5225 7.33313 28.0435 7.33813 32.5645C7.34013 34.1155 8.08413 34.8355 9.65513 34.8355C14.0571 34.8365 18.4591 34.8435 22.8611 34.8275C23.4591 34.8255 23.9791 34.9535 24.4921 35.2615C25.5051 35.8705 26.5441 36.4355 27.7081 37.0955ZM28.5081 14.4985C28.5081 14.1965 28.5091 13.9635 28.5081 13.7295C28.5031 12.5985 28.1061 12.2065 26.9591 12.2055C25.5721 12.2045 24.1851 12.2055 22.7971 12.2055C19.6861 12.2055 16.5741 12.2055 13.4631 12.2075C12.7161 12.2075 12.2461 12.5075 12.1471 13.1375C12.0781 13.5725 12.1341 14.0275 12.1341 14.4995C17.6031 14.4985 23.0081 14.4985 28.5081 14.4985ZM4.95213 22.3445C4.30613 22.3445 3.73413 22.3445 3.16313 22.3445C2.81613 22.3445 2.66413 22.5245 2.66513 22.8635C2.66713 24.8615 2.65513 26.8605 2.68513 28.8585C2.68813 29.0285 2.94913 29.3245 3.11213 29.3405C3.71313 29.3985 4.32213 29.3635 4.95313 29.3635C4.95213 26.9975 4.95213 24.7095 4.95213 22.3445ZM35.6531 29.3655C36.2811 29.3655 36.8521 29.3615 37.4231 29.3675C37.7651 29.3705 37.9391 29.2205 37.9391 28.8705C37.9381 26.8705 37.9491 24.8705 37.9201 22.8705C37.9171 22.6945 37.6641 22.3875 37.5041 22.3715C36.9021 22.3115 36.2911 22.3475 35.6541 22.3475C35.6531 24.7035 35.6531 26.9935 35.6531 29.3655ZM14.8101 2.67947C14.1721 2.69047 13.6371 3.24347 13.6601 3.86747C13.6841 4.50347 14.2361 5.00847 14.8811 4.98347C15.4991 4.96047 16.0031 4.43647 15.9981 3.82547C15.9931 3.18447 15.4571 2.66847 14.8101 2.67947ZM26.9431 3.82747C26.9381 3.19547 26.3901 2.66947 25.7481 2.67947C25.1261 2.68947 24.6151 3.19447 24.6001 3.81147C24.5851 4.44647 25.1171 4.98547 25.7621 4.98947C26.4031 4.99247 26.9481 4.45747 26.9431 3.82747Z" fill="#8C30F5"/>
<path d="M28.9661 40.5995C28.6531 40.5995 28.3161 40.5015 27.9721 40.3065C27.4551 40.0135 26.9401 39.7185 26.4251 39.4225C25.4461 38.8605 24.4671 38.2985 23.4771 37.7555C23.2011 37.6045 22.8591 37.5125 22.5631 37.5115C20.1991 37.5015 17.8331 37.5025 15.4691 37.5025C13.5301 37.5035 11.5921 37.5035 9.65313 37.4975C6.59413 37.4895 4.68913 35.5795 4.68013 32.5125V32.0305L4.33713 32.0315C3.90713 32.0335 3.50613 32.0345 3.10413 32.0285C1.31713 31.9975 0.0151299 30.6775 0.00712993 28.8905C-0.00187007 26.8675 -0.00287007 24.8435 0.00712993 22.8195C0.0151299 21.0145 1.29513 19.7305 3.11713 19.6945C3.52213 19.6865 3.92713 19.6885 4.35213 19.6905L4.65513 19.6915C4.60113 16.3415 6.20413 14.4925 9.42613 14.1915C9.44413 13.0795 9.48813 11.9375 10.3081 10.9615C11.0591 10.0675 12.0551 9.59747 13.3441 9.53047L13.3451 9.17647C13.3491 8.56047 13.3531 7.97847 13.3241 7.39247C13.3221 7.40647 13.2571 7.33747 13.0471 7.21447C11.6471 6.39247 10.9711 5.19647 11.0401 3.66147C11.1091 2.11947 11.8991 0.973469 13.3261 0.346469C14.7201 -0.268531 16.0991 -0.0615308 17.3101 0.941469C18.2781 1.74347 18.7601 2.92547 18.6331 4.18447C18.5051 5.45947 17.7481 6.58547 16.6091 7.19547C16.3361 7.34147 16.2961 7.44247 16.3061 7.69147C16.3261 8.17847 16.3221 8.66647 16.3181 9.16747L16.3161 9.50747H24.2871L24.2891 9.17247C24.2941 8.56047 24.2991 7.98147 24.2641 7.39647C24.2661 7.41347 24.1711 7.31947 23.9521 7.19447C22.5791 6.41047 21.8041 4.95347 21.9761 3.48247C22.1651 1.86647 23.2181 0.596469 24.7231 0.167469C26.5481 -0.354531 28.5061 0.568469 29.2681 2.31347C30.0471 4.10447 29.3601 6.17047 27.6681 7.12047C27.3081 7.32347 27.2171 7.47947 27.2431 7.85047C27.2751 8.29847 27.2681 8.73847 27.2621 9.20447C27.2601 9.31047 27.2581 9.41747 27.2571 9.52547C28.5841 9.60447 29.5881 10.0845 30.3191 10.9865C31.1241 11.9815 31.1771 13.1855 31.1661 14.2105C32.7261 14.2655 33.9271 14.8115 34.8291 15.8735C35.8441 17.0665 35.9781 18.4515 35.9291 19.6915H36.2071C36.6161 19.6905 37.0051 19.6895 37.3931 19.6935C39.3031 19.7135 40.5911 21.0055 40.5971 22.9075C40.6031 24.8915 40.6041 26.8755 40.5961 28.8595C40.5891 30.6955 39.3031 32.0005 37.4681 32.0325C37.0681 32.0395 36.6661 32.0375 36.2411 32.0355L35.9331 32.0345C35.9841 33.3315 35.8201 34.8985 34.5441 36.1575C33.5091 37.1795 32.2091 37.5985 30.3681 37.4975L30.3691 37.7575C30.3701 38.1705 30.3721 38.5605 30.3651 38.9515C30.3531 39.6395 30.0931 40.1645 29.6311 40.4285C29.4301 40.5415 29.2061 40.5995 28.9661 40.5995ZM16.8811 36.9005C18.7771 36.9005 20.6721 36.9015 22.5671 36.9105C22.9641 36.9115 23.4011 37.0285 23.7671 37.2285C24.7601 37.7735 25.7421 38.3375 26.7241 38.9005C27.2391 39.1955 27.7531 39.4905 28.2701 39.7835C28.6821 40.0165 29.0621 40.0625 29.3341 39.9045C29.6051 39.7495 29.7591 39.4065 29.7671 38.9385C29.7741 38.5525 29.7721 38.1655 29.7701 37.7575L29.7691 36.8475L30.0941 36.8745C31.9241 37.0305 33.1641 36.6755 34.1231 35.7285C35.0671 34.7965 35.4361 33.5695 35.3171 31.7515L35.2961 31.4325L36.2431 31.4335C36.6611 31.4355 37.0581 31.4375 37.4571 31.4305C38.9691 31.4035 39.9881 30.3685 39.9951 28.8545C40.0031 26.8725 40.0021 24.8895 39.9961 22.9075C39.9901 21.3105 38.9901 20.3075 37.3861 20.2905C36.9991 20.2865 36.6161 20.2875 36.2071 20.2885L35.2921 20.2895L35.3121 19.9705C35.4201 18.2715 35.1381 17.1615 34.3721 16.2595C33.5401 15.2805 32.4041 14.8035 30.9001 14.8035C30.8871 14.8035 30.8751 14.8035 30.8631 14.8035L30.5551 14.8055L30.5611 14.4985C30.5831 13.2455 30.5451 12.2185 29.8521 11.3625C29.1771 10.5295 28.2551 10.1325 26.9511 10.1125L26.6561 10.1085V9.81347C26.6561 9.60247 26.6591 9.39647 26.6621 9.19347C26.6701 8.74047 26.6771 8.31347 26.6461 7.89147C26.6021 7.28647 26.8131 6.91047 27.3751 6.59447C28.7971 5.79647 29.3741 4.05747 28.7181 2.55047C28.0761 1.08047 26.4301 0.301469 24.8881 0.742469C23.6211 1.10347 22.7341 2.17947 22.5731 3.55047C22.4281 4.78147 23.0871 6.00647 24.2501 6.67047C24.6561 6.90247 24.8511 7.12147 24.8641 7.35947C24.9001 7.96347 24.8951 8.57947 24.8901 9.17447L24.8861 10.1045H15.7151L15.7181 9.16047C15.7221 8.66947 15.7261 8.19147 15.7071 7.71447C15.6861 7.21547 15.8661 6.91147 16.3271 6.66447C17.2901 6.14847 17.9301 5.19847 18.0381 4.12247C18.1441 3.06547 17.7401 2.07347 16.9291 1.40147C15.8891 0.540469 14.7611 0.369469 13.5691 0.893469C12.3491 1.43047 11.7001 2.37047 11.6411 3.68647C11.5821 5.00147 12.1421 5.98547 13.3521 6.69547C13.6101 6.84747 13.9091 7.05847 13.9241 7.34647C13.9551 7.95347 13.9511 8.54847 13.9471 9.17847L13.9441 10.1175L13.6461 10.1185C12.3811 10.1245 11.4661 10.5145 10.7691 11.3445C10.0591 12.1895 10.0431 13.2195 10.0271 14.3095L10.0201 14.7475L9.74413 14.7655C6.58213 14.9695 5.11813 16.6735 5.26813 19.9745L5.28213 20.2875L4.35113 20.2885C3.93113 20.2865 3.53113 20.2855 3.13113 20.2925C1.65313 20.3215 0.61613 21.3605 0.60913 22.8205C0.59913 24.8425 0.60013 26.8645 0.60913 28.8855C0.61613 30.3565 1.64713 31.4015 3.11713 31.4275C3.51513 31.4335 3.91313 31.4335 4.33713 31.4305L5.28113 31.4285V32.5095C5.28913 35.2485 6.92413 36.8885 9.65613 36.8965C11.5941 36.9015 13.5321 36.9035 15.4701 36.9005C15.9401 36.9005 16.4111 36.9005 16.8811 36.9005ZM28.0081 37.6115L26.5381 36.7825C25.7681 36.3515 25.0461 35.9465 24.3371 35.5195C23.8841 35.2465 23.4061 35.1085 22.8621 35.1275C19.3551 35.1405 15.8481 35.1375 12.3411 35.1375L9.65513 35.1365C7.92113 35.1365 7.04013 34.2715 7.03813 32.5665C7.03313 28.0455 7.03413 23.5245 7.04013 19.0035C7.04113 17.5095 7.96413 16.5815 9.44813 16.5805C16.6861 16.5755 23.9251 16.5755 31.1601 16.5805C32.6201 16.5815 33.5641 17.5345 33.5651 19.0085C33.5711 23.5695 33.5711 28.1295 33.5661 32.6905C33.5641 34.2115 32.6521 35.1275 31.1261 35.1375C30.7921 35.1405 30.4581 35.1395 30.1191 35.1385H29.1631C28.3131 35.1435 28.0211 35.4355 28.0081 36.2965C28.0061 36.4295 28.0071 36.5635 28.0071 36.7355L28.0081 37.6115ZM22.8751 34.5285C23.5431 34.5285 24.1061 34.6795 24.6461 35.0055C25.3511 35.4285 26.0681 35.8305 26.8331 36.2585L27.4081 36.5825C27.4071 36.4755 27.4081 36.3805 27.4091 36.2875C27.4291 35.0995 27.9841 34.5445 29.1601 34.5385L30.1211 34.5375C30.4561 34.5385 30.7891 34.5385 31.1231 34.5365C32.3101 34.5285 32.9661 33.8715 32.9681 32.6885C32.9731 28.1285 32.9731 23.5675 32.9671 19.0075C32.9661 17.8635 32.2911 17.1795 31.1611 17.1785C23.9241 17.1745 16.6861 17.1745 9.44913 17.1785C8.30213 17.1785 7.64213 17.8445 7.64113 19.0025C7.63513 23.5235 7.63413 28.0435 7.63913 32.5645C7.64113 33.9455 8.24413 34.5355 9.65613 34.5365L12.3431 34.5375C15.8481 34.5375 19.3551 34.5405 22.8621 34.5285C22.8651 34.5285 22.8701 34.5285 22.8751 34.5285ZM3.93713 29.6735C3.65313 29.6735 3.36613 29.6665 3.08313 29.6385C2.76813 29.6085 2.39013 29.1875 2.38513 28.8625C2.36213 27.3445 2.36413 25.8265 2.36513 24.3085V22.8635C2.36513 22.6045 2.43713 22.3995 2.58013 22.2565C2.72013 22.1155 2.91613 22.0455 3.16313 22.0455H5.25213V29.6635H4.95213C4.78013 29.6635 4.60913 29.6665 4.43913 29.6685C4.27413 29.6705 4.10613 29.6735 3.93713 29.6735ZM3.16313 22.6445C3.08613 22.6445 3.02713 22.6585 3.00513 22.6805C2.99613 22.6895 2.96513 22.7305 2.96513 22.8635V24.3095C2.96413 25.8245 2.96313 27.3395 2.98513 28.8545C2.99913 28.8955 3.11013 29.0235 3.16713 29.0475C3.55913 29.0825 3.98213 29.0745 4.43113 29.0685C4.50513 29.0675 4.57913 29.0665 4.65313 29.0655V22.6455L3.16313 22.6445ZM37.4331 29.6665C37.4281 29.6665 37.4241 29.6665 37.4191 29.6665C37.0231 29.6625 36.6241 29.6635 36.2071 29.6645H35.3531V22.0475H35.6531C35.8271 22.0475 35.9981 22.0445 36.1681 22.0425C36.6161 22.0345 37.0801 22.0285 37.5321 22.0735C37.8691 22.1075 38.2161 22.5635 38.2191 22.8665C38.2421 24.4025 38.2401 25.9405 38.2401 27.4775L38.2391 28.8705C38.2401 29.1205 38.1691 29.3175 38.0281 29.4575C37.8871 29.5965 37.6871 29.6665 37.4331 29.6665ZM36.7211 29.0635C36.9581 29.0635 37.1921 29.0635 37.4251 29.0665C37.4281 29.0665 37.4311 29.0665 37.4331 29.0665C37.5331 29.0665 37.5861 29.0475 37.6041 29.0305C37.6211 29.0135 37.6381 28.9635 37.6381 28.8705L37.6391 27.4765C37.6401 25.9425 37.6421 24.4085 37.6181 22.8735C37.6061 22.8245 37.4971 22.6885 37.4401 22.6625C37.0541 22.6275 36.6291 22.6365 36.1761 22.6415C36.1021 22.6425 36.0271 22.6435 35.9511 22.6445V29.0635H36.2051C36.3801 29.0635 36.5511 29.0635 36.7211 29.0635ZM28.8071 14.7985H11.8341V14.4985C11.8341 14.3545 11.8291 14.2125 11.8231 14.0725C11.8111 13.7505 11.7991 13.4185 11.8501 13.0905C11.9191 12.6485 12.2211 11.9075 13.4631 11.9065L26.9581 11.9055C28.2661 11.9065 28.8011 12.4345 28.8071 13.7285V14.7985ZM12.4281 14.1985H28.2071V13.7305C28.2031 12.7695 27.9351 12.5055 26.9581 12.5045L13.4631 12.5065C12.6441 12.5075 12.4881 12.8935 12.4431 13.1835C12.4011 13.4545 12.4111 13.7435 12.4221 14.0505C12.4251 14.0995 12.4271 14.1485 12.4281 14.1985ZM25.7681 5.28847C25.7651 5.28847 25.7621 5.28847 25.7591 5.28847C25.3681 5.28647 24.9871 5.12247 24.7111 4.83847C24.4371 4.55547 24.2901 4.18847 24.2991 3.80347C24.3181 3.03047 24.9651 2.39147 25.7421 2.37947C26.1251 2.33647 26.5171 2.52747 26.8011 2.80447C27.0821 3.07947 27.2391 3.44147 27.2421 3.82447C27.2451 4.20647 27.0941 4.57047 26.8141 4.84947C26.5341 5.12847 26.1551 5.28847 25.7681 5.28847ZM25.7661 2.97947C25.7621 2.97947 25.7571 2.97947 25.7521 2.97947C25.2921 2.98647 24.9091 3.36247 24.8981 3.81847C24.8931 4.04047 24.9791 4.25547 25.1411 4.42147C25.3051 4.59047 25.5321 4.68847 25.7621 4.69047C26.0101 4.68447 26.2201 4.59647 26.3891 4.42747C26.5541 4.26247 26.6441 4.05047 26.6421 3.83047C26.6401 3.60847 26.5471 3.39747 26.3811 3.23447C26.2161 3.07147 25.9921 2.97947 25.7661 2.97947ZM14.8361 5.28447C14.4651 5.28447 14.1121 5.14747 13.8361 4.89447C13.5441 4.62747 13.3761 4.26747 13.3611 3.87847C13.3471 3.50047 13.4881 3.13447 13.7601 2.84747C14.0351 2.55647 14.4151 2.38647 14.8041 2.37947C15.2011 2.36347 15.5741 2.52047 15.8581 2.79747C16.1381 3.07047 16.2951 3.43447 16.2971 3.82247C16.3041 4.59747 15.6731 5.25347 14.8921 5.28247C14.8741 5.28447 14.8551 5.28447 14.8361 5.28447ZM14.8161 2.97947C14.5871 2.98347 14.3611 3.08547 14.1961 3.25947C14.0361 3.42847 13.9521 3.64047 13.9611 3.85647C13.9691 4.08347 14.0691 4.29447 14.2411 4.45247C14.4131 4.61047 14.6371 4.69247 14.8701 4.68447C15.3231 4.66747 15.7021 4.27547 15.6981 3.82847C15.6961 3.60147 15.6041 3.38847 15.4391 3.22747C15.2721 3.06347 15.0151 2.96747 14.8161 2.97947Z" fill="#8C30F5"/>
<path d="M20.1321 32.4915C18.6261 32.4795 17.1431 31.9165 15.8911 30.7685C15.2881 30.2155 15.2061 29.4995 15.6641 28.9845C16.1221 28.4695 16.8181 28.4835 17.4571 29.0195C19.2741 30.5435 21.3381 30.5375 23.1671 29.0015C23.7931 28.4755 24.5011 28.4775 24.9581 29.0045C25.3971 29.5115 25.3211 30.2085 24.7421 30.7445C23.4971 31.8985 22.0221 32.4805 20.1321 32.4915Z" fill="#8C30F5"/>
<path d="M20.1291 32.7915C18.4951 32.7785 16.9591 32.1555 15.6881 30.9905C14.9711 30.3325 14.8691 29.4265 15.4401 28.7855C16.0121 28.1435 16.8791 28.1445 17.6501 28.7895C19.3601 30.2245 21.2501 30.2185 22.9741 28.7715C23.7281 28.1385 24.6171 28.1515 25.1841 28.8085C25.7321 29.4405 25.6331 30.3275 24.9461 30.9645C23.6321 32.1825 22.0571 32.7795 20.1331 32.7915H20.1291ZM16.4761 28.9085C16.2541 28.9085 16.0531 29.0005 15.8891 29.1845C15.5391 29.5775 15.6191 30.1125 16.0941 30.5475C17.2531 31.6105 18.6501 32.1785 20.1331 32.1915C21.9241 32.1805 23.3231 31.6505 24.5391 30.5245C24.9901 30.1065 25.0661 29.5875 24.7321 29.2015C24.3851 28.8015 23.8591 28.8135 23.3601 29.2315C21.4181 30.8625 19.1951 30.8695 17.2651 29.2495C16.9931 29.0225 16.7221 28.9085 16.4761 28.9085Z" fill="#8C30F5"/>
<path d="M14.8251 19.2275C16.7071 19.2285 18.2531 20.6895 18.3501 22.5605C18.3871 23.2745 17.9351 23.8395 17.2811 23.8965C16.6291 23.9525 16.1391 23.5375 16.0181 22.8265C15.8761 21.9935 15.4901 21.5815 14.8461 21.5755C14.1851 21.5685 13.7921 21.9885 13.6431 22.8615C13.5281 23.5325 13.0461 23.9365 12.4091 23.8945C11.7671 23.8525 11.3231 23.3385 11.3251 22.6385C11.3291 20.7855 12.9291 19.2265 14.8251 19.2275Z" fill="#8C30F5"/>
<path d="M17.1601 24.2015C16.4181 24.2015 15.8611 23.6955 15.7211 22.8765C15.5711 21.9955 15.1731 21.8785 14.8421 21.8745C14.5241 21.8915 14.0961 21.9855 13.9381 22.9125C13.7981 23.7305 13.1731 24.2535 12.3881 24.1935C11.5821 24.1405 11.0221 23.5015 11.0241 22.6375C11.0291 20.6265 12.7691 18.9285 14.8231 18.9285C14.8231 18.9285 14.8231 18.9285 14.8241 18.9285C16.8641 18.9295 18.5431 20.5185 18.6491 22.5455C18.6941 23.4165 18.1161 24.1265 17.3051 24.1955C17.2561 24.1995 17.2081 24.2015 17.1601 24.2015ZM14.8301 21.2735C14.8361 21.2735 14.8421 21.2735 14.8481 21.2735C15.4011 21.2795 16.1031 21.5445 16.3131 22.7745C16.4081 23.3315 16.7551 23.6315 17.2541 23.5965C17.7441 23.5545 18.0791 23.1245 18.0501 22.5755C17.9621 20.8675 16.5451 19.5275 14.8251 19.5265C14.8251 19.5265 14.8251 19.5265 14.8241 19.5265C13.0941 19.5265 11.6291 20.9515 11.6241 22.6375C11.6231 23.1775 11.9451 23.5615 12.4271 23.5935C12.9061 23.6165 13.2561 23.3325 13.3461 22.8095C13.5631 21.5435 14.2691 21.2735 14.8301 21.2735Z" fill="#8C30F5"/>
<path d="M25.7681 19.2315C27.6631 19.2315 29.2071 20.7025 29.2681 22.5665C29.2921 23.3135 28.8681 23.8435 28.2051 23.8925C27.5481 23.9415 27.0721 23.5305 26.9551 22.8135C26.8241 22.0055 26.4131 21.5795 25.7661 21.5805C25.1161 21.5815 24.7311 21.9885 24.5901 22.8215C24.4671 23.5505 23.9401 23.9785 23.2721 23.8925C22.6451 23.8125 22.2251 23.2645 22.2581 22.5695C22.3461 20.6985 23.8881 19.2315 25.7681 19.2315Z" fill="#8C30F5"/>
<path d="M23.4361 24.2035C23.3701 24.2035 23.3031 24.1995 23.2341 24.1905C22.4551 24.0915 21.9191 23.4035 21.9591 22.5555C22.0541 20.5235 23.7271 18.9315 25.7681 18.9315C27.8321 18.9315 29.5011 20.5235 29.5691 22.5565C29.5981 23.4585 29.0481 24.1305 28.2291 24.1915C27.4161 24.2485 26.8001 23.7305 26.6611 22.8615C26.5011 21.8805 25.9501 21.8785 25.7681 21.8805C25.4351 21.8805 25.0341 21.9945 24.8871 22.8715C24.7501 23.6805 24.1671 24.2035 23.4361 24.2035ZM25.7681 19.5315C24.0471 19.5315 22.6381 20.8725 22.5591 22.5845C22.5341 23.1205 22.8431 23.5365 23.3111 23.5965C23.8191 23.6575 24.1991 23.3465 24.2961 22.7725C24.5021 21.5425 25.2101 21.2825 25.7681 21.2825C25.7691 21.2825 25.7701 21.2825 25.7711 21.2825C26.2361 21.2825 27.0431 21.4765 27.2531 22.7665C27.3451 23.3295 27.6601 23.6385 28.1851 23.5945C28.6891 23.5575 28.9901 23.1675 28.9701 22.5775C28.9131 20.8695 27.5061 19.5315 25.7681 19.5315Z" fill="#8C30F5"/>
</svg>
