<svg width="40" height="27" viewBox="0 0 40 27" fill="none" xmlns="http://www.w3.org/2000/svg">
<path d="M39.6935 20.7406C39.4561 21.5701 38.5913 22.0504 37.7618 21.813C36.932 21.5759 36.452 20.711 36.6891 19.8812C36.9558 18.9492 36.9345 17.9675 36.6281 17.0425L33.11 6.43065C32.4548 4.45342 30.6146 3.12499 28.5315 3.12499H11.4707C9.38723 3.12499 7.54733 4.45342 6.89181 6.43065L3.37406 17.0425C2.96757 18.2693 3.06339 19.5877 3.64445 20.7543C4.22458 21.9201 5.21579 22.7847 6.43497 23.189C7.65048 23.5919 8.9548 23.4896 10.1077 22.9009C11.2628 22.311 12.1234 21.3085 12.5314 20.0781L12.7628 19.3801C13.4146 17.4139 15.2445 16.0925 17.316 16.0925H22.6858C24.7577 16.0925 26.5875 17.4139 27.2394 19.3801L27.4707 20.0781C28.1259 22.055 30.0082 23.4359 32.048 23.4356C32.4395 23.4356 32.832 23.3871 33.2141 23.2913C34.0512 23.0819 34.8995 23.5906 35.1092 24.4274C35.3189 25.2645 34.8101 26.1129 33.973 26.3226C33.3428 26.4803 32.6953 26.5603 32.0483 26.5603C30.3918 26.5603 28.7957 26.0403 27.4325 25.0561C26.0534 24.0603 25.0409 22.6791 24.5047 21.0613L24.2734 20.3634C24.046 19.6777 23.4082 19.2172 22.6861 19.2172H17.3163C16.5939 19.2172 15.9561 19.6777 15.7288 20.3631L15.4974 21.0613C14.8294 23.0764 13.4201 24.7179 11.5286 25.6838C9.62527 26.6558 7.46737 26.823 5.45169 26.1547C3.43662 25.4867 1.80119 24.0633 0.847213 22.1469C-0.104017 20.2362 -0.259962 18.0743 0.408371 16.0592L3.92612 5.44737C5.00614 2.18902 8.03805 0 11.4707 0H28.5315C31.9641 0 34.9963 2.18902 36.0763 5.44737L39.5941 16.0592C40.0991 17.5833 40.1336 19.2019 39.6935 20.7406ZM27.4222 5.62468C26.5594 5.62468 25.86 6.32414 25.86 7.18717C25.86 8.0499 26.5594 8.74937 27.4222 8.74937C28.2852 8.74937 28.9846 8.0499 28.9846 7.18717C28.9846 6.32414 28.2852 5.62468 27.4222 5.62468ZM27.4222 14.999C28.2852 14.999 28.9846 14.2996 28.9846 13.4365C28.9846 12.5738 28.2852 11.8744 27.4222 11.8744C26.5594 11.8744 25.86 12.5738 25.86 13.4365C25.86 14.2993 26.5594 14.999 27.4222 14.999ZM24.2975 8.74937C23.4347 8.74937 22.7353 9.44883 22.7353 10.3119C22.7353 11.1749 23.4347 11.8744 24.2975 11.8744C25.1605 11.8744 25.86 11.1749 25.86 10.3119C25.86 9.44883 25.1605 8.74937 24.2975 8.74937ZM30.5471 11.8744C31.4099 11.8744 32.1093 11.1749 32.1093 10.3119C32.1093 9.44883 31.4099 8.74937 30.5471 8.74937C29.6841 8.74937 28.9846 9.44883 28.9846 10.3119C28.9846 11.1746 29.6841 11.8744 30.5471 11.8744ZM12.5797 14.999C13.4427 14.999 14.1422 14.2996 14.1422 13.4365V11.8744H15.7043C16.5674 11.8744 17.2668 11.1749 17.2668 10.3119C17.2668 9.44883 16.5674 8.74937 15.7043 8.74937H14.1422V7.18717C14.1422 6.32414 13.4427 5.62468 12.5797 5.62468C11.7169 5.62468 11.0175 6.32414 11.0175 7.18717V8.74937H9.45498C8.59225 8.74937 7.89248 9.44883 7.89248 10.3119C7.89248 11.1749 8.59225 11.8744 9.45498 11.8744H11.0175V13.4365C11.0175 14.2993 11.7169 14.999 12.5797 14.999Z" fill="#8C30F5"/>
</svg>
