<svg width="40" height="40" viewBox="0 0 40 40" fill="none" xmlns="http://www.w3.org/2000/svg">
<path fill-rule="evenodd" clip-rule="evenodd" d="M18.8693 0.0716799C18.6841 0.15595 18.3536 0.57094 18.135 0.993881C17.3715 2.46993 18.32 3.88715 20.0713 3.88715C20.555 3.88715 21.8702 4.07398 22.9935 4.30241C29.1807 5.5601 34.0965 10.4353 35.4011 16.6072C35.8794 18.87 35.7625 22.3251 35.1403 24.3149C33.6054 29.2222 29.4553 33.4153 24.659 34.9046C23.723 35.1953 22.7865 35.5748 22.5777 35.7481C21.8824 36.3253 21.6958 37.2496 22.1121 38.0549C22.8167 39.4173 23.8643 39.4602 27.0236 38.2558C38.7973 33.7672 43.39 19.5937 36.4998 9.01225C33.0399 3.69874 27.4847 0.415915 21.3261 0.04571C20.1601 -0.02425 19.0545 -0.0125901 18.8693 0.0716799ZM2.79176 9.80566C1.81311 11.0888 1.68247 12.0844 2.37703 12.9676C2.78646 13.4878 3.18449 13.6911 3.78922 13.6882C4.84392 13.6831 5.0901 13.5204 5.78917 12.3672C6.88018 10.5678 6.20681 8.92215 4.37964 8.92215C3.65513 8.92215 3.326 9.10527 2.79176 9.80566ZM18.4774 10.0034C18.0709 10.2403 18.0136 10.7292 18.0136 13.9704V17.6672H14.4867C10.1349 17.6672 10.0024 17.7355 10.1148 19.9271L10.1961 21.5097L14.0386 21.6422L17.8811 21.7747L18.0136 25.6172L18.1461 29.4597L19.7287 29.541C21.9203 29.6534 21.9886 29.5209 21.9886 25.169V21.6422H25.6893C29.0768 21.6422 29.4131 21.5987 29.6643 21.1296C30.1215 20.2753 29.9911 18.7796 29.4086 18.1972C28.9329 17.7215 28.5254 17.6672 25.4336 17.6672H21.9886V14.2222C21.9886 11.1304 21.9343 10.7228 21.4586 10.2472C20.8791 9.6676 19.2785 9.53669 18.4774 10.0034ZM0.606567 18.3551C-0.053813 19.0155 -0.0750131 19.1302 0.0786869 21.2038C0.299167 24.1785 1.10397 26.9172 1.97821 27.6693C2.79997 28.3761 3.36654 28.4206 4.19149 27.8429C5.19133 27.1425 5.31509 26.3947 4.73792 24.5405C4.45251 23.623 4.14299 21.9745 4.05024 20.8766C3.91589 19.2897 3.75715 18.7566 3.27459 18.274C2.47296 17.4724 1.45854 17.5031 0.606567 18.3551ZM5.82362 30.9172C5.50377 31.237 5.29362 31.8004 5.29362 32.3384C5.29362 33.0637 5.53583 33.4561 6.59371 34.4459C9.29565 36.9729 13.1639 38.9175 15.5931 38.9692C16.841 38.9959 17.0806 38.9133 17.5491 38.294C18.0717 37.6028 18.0664 36.8285 17.5329 36.0123C17.4115 35.8268 16.3595 35.3382 15.1948 34.9261C12.6543 34.0277 11.1994 33.2033 9.31314 31.5932C7.7303 30.2422 6.69865 30.0421 5.82362 30.9172Z" fill="#8C30F5"/>
</svg>
