<svg width="40" height="40" viewBox="0 0 40 40" fill="none" xmlns="http://www.w3.org/2000/svg">
<path d="M27.1875 8.59375C28.4819 8.59375 29.5312 9.64305 29.5312 10.9375C29.4078 14.0464 24.9667 14.0455 24.8438 10.9375C24.8438 9.64305 25.893 8.59375 27.1875 8.59375ZM36.875 19.6875V6.25C36.875 4.52688 35.4731 3.125 33.75 3.125H6.25C4.52688 3.125 3.125 4.52688 3.125 6.25V20.1107L8.89406 14.3416C10.7216 12.514 13.6955 12.514 15.5232 14.3416L23.8387 22.6571L25.5916 20.9041C27.4194 19.0765 30.3931 19.0765 32.2209 20.9041L39.5424 28.2257C39.8354 28.5187 40 28.9162 40 29.3305V33.75C40 37.1963 37.1963 40 33.75 40H6.25C2.80375 40 0 37.1963 0 33.75V6.25C0 2.80375 2.80375 0 6.25 0H33.75C37.1963 0 40 2.80375 40 6.25V19.6875C39.9175 21.7606 36.9568 21.7591 36.875 19.6875ZM3.125 24.5301V33.75C3.125 35.4731 4.52688 36.875 6.25 36.875H33.75C35.4731 36.875 36.875 35.4731 36.875 33.75V29.9778L30.0111 23.1139C29.402 22.5047 28.4106 22.5047 27.8015 23.1139L20.0682 30.8471C19.4581 31.4573 18.4688 31.4573 17.8585 30.8471C17.2483 30.2369 17.2484 29.2476 17.8585 28.6374L21.629 24.867L13.3134 16.5514C12.7318 15.9452 11.6853 15.9452 11.1038 16.5514L3.125 24.5301Z" fill="#8C30F5"/>
</svg>
