<svg width="41" height="35" viewBox="0 0 41 35" fill="none" xmlns="http://www.w3.org/2000/svg">
<path d="M15.9539 26.6329C15.9399 22.4359 12.6619 18.9789 8.47691 18.7809C3.03891 18.5229 -1.02209 23.8629 0.703908 29.0239C1.97391 32.8199 5.76691 34.9589 9.50991 34.2549C10.3449 34.0979 10.8649 33.3639 10.7689 32.5699C10.6689 31.7459 9.96491 31.1499 9.11391 31.1819C8.83691 31.1919 8.56091 31.2399 8.28391 31.2519C5.85991 31.3509 3.86691 29.6429 3.47591 27.1359C3.13791 24.9679 4.66391 22.6739 6.83491 22.0859C9.19891 21.4459 11.6009 22.6369 12.4709 24.8719C12.8189 25.7669 12.8529 26.6719 12.7049 27.6169C12.5519 28.5869 13.1409 29.3359 14.0489 29.4529C14.9139 29.5649 15.6409 28.9859 15.7879 28.0459C15.8599 27.5789 15.8989 27.1049 15.9539 26.6329ZM8.13391 0.00585938C7.66291 0.0608594 7.18791 0.0928594 6.72091 0.173859C2.46891 0.909859 -0.335092 5.01686 0.450908 9.34586C1.19391 13.4359 5.30491 16.2689 9.43191 15.5339C10.2769 15.3839 10.8549 14.6519 10.7699 13.8429C10.6819 13.0049 10.0159 12.4289 9.13191 12.4469C8.73591 12.4549 8.33991 12.5329 7.94591 12.5199C5.61691 12.4469 3.70591 10.6199 3.44591 8.23786C3.20791 6.05486 4.80391 3.82986 6.98791 3.29886C9.27091 2.74386 11.6109 3.94286 12.4679 6.10986C12.8209 7.00086 12.8579 7.90886 12.7049 8.85486C12.5499 9.81186 13.1009 10.5579 13.9669 10.6929C14.8549 10.8319 15.5959 10.2939 15.7789 9.37786C16.7389 4.54986 13.0589 0.0538594 8.13391 0.00585938ZM29.6549 9.39886C29.6549 9.39786 29.6549 9.39586 29.6549 9.39486C30.6069 9.39486 31.5579 9.39486 32.5099 9.39486C34.5519 9.39486 36.5939 9.40186 38.6359 9.39086C39.6299 9.38486 40.3039 8.73886 40.3009 7.83686C40.2979 6.94486 39.6099 6.29886 38.6299 6.26886C38.5309 6.26586 38.4319 6.26786 38.3329 6.26786C33.5349 6.26786 28.7379 6.26786 23.9399 6.26786C22.8499 6.26786 21.7589 6.25286 20.6689 6.27786C19.5909 6.30386 18.8749 7.20186 19.1029 8.19686C19.2749 8.94686 19.8889 9.39486 20.7929 9.39686C23.7469 9.40286 26.7009 9.39886 29.6549 9.39886ZM29.6509 25.0309C29.6509 25.0299 29.6509 25.0279 29.6509 25.0269C28.8779 25.0269 28.1039 25.0269 27.3309 25.0269C25.1099 25.0289 22.8899 25.0219 20.6689 25.0359C19.7369 25.0419 19.0929 25.6599 19.0669 26.5219C19.0399 27.4079 19.6839 28.0889 20.6089 28.1489C20.7079 28.1549 20.8069 28.1529 20.9059 28.1529C26.7149 28.1529 32.5249 28.1539 38.3339 28.1529C38.5319 28.1529 38.7329 28.1599 38.9279 28.1319C39.6829 28.0219 40.2439 27.4299 40.2969 26.7029C40.3499 25.9849 39.9079 25.3049 39.2179 25.1089C38.9569 25.0349 38.6699 25.0329 38.3939 25.0329C35.4799 25.0289 32.5659 25.0309 29.6509 25.0309ZM8.10791 9.38786C8.96491 9.39086 9.66991 8.71386 9.68991 7.86686C9.70991 7.01386 8.96691 6.26786 8.10791 6.27686C7.26491 6.28586 6.56691 6.99586 6.56791 7.84186C6.56991 8.70786 7.24391 9.38486 8.10791 9.38786Z" fill="white"/>
<path d="M15.9539 26.633C15.8989 27.104 15.8599 27.578 15.7869 28.047C15.6399 28.987 14.9129 29.566 14.0479 29.454C13.1409 29.337 12.5519 28.587 12.7039 27.618C12.8529 26.673 12.8179 25.767 12.4699 24.873C11.5999 22.637 9.19791 21.447 6.83391 22.087C4.66291 22.675 3.13691 24.969 3.47491 27.137C3.86591 29.644 5.85891 31.353 8.28291 31.253C8.55991 31.242 8.83591 31.194 9.11291 31.183C9.96391 31.151 10.6679 31.747 10.7679 32.571C10.8639 33.365 10.3449 34.099 9.50891 34.256C5.76591 34.959 1.97291 32.821 0.702908 29.025C-1.02309 23.864 3.03791 18.523 8.47591 18.782C12.6609 18.98 15.9399 22.436 15.9539 26.633Z" fill="#8C30F5"/>
<path d="M8.13391 0.00585938C13.0589 0.0538594 16.7389 4.54986 15.7779 9.37686C15.5959 10.2929 14.8549 10.8309 13.9659 10.6919C13.0999 10.5559 12.5489 9.80986 12.7039 8.85386C12.8569 7.90886 12.8199 6.99986 12.4669 6.10886C11.6089 3.94286 9.26991 2.74286 6.98691 3.29786C4.80291 3.82886 3.20691 6.05486 3.44491 8.23786C3.70491 10.6209 5.61591 12.4469 7.94491 12.5199C8.33891 12.5319 8.73491 12.4549 9.13091 12.4469C10.0139 12.4279 10.6809 13.0049 10.7689 13.8429C10.8539 14.6519 10.2749 15.3829 9.43091 15.5339C5.30391 16.2689 1.19291 13.4359 0.449908 9.34586C-0.336092 5.01686 2.46791 0.910859 6.71991 0.173859C7.18791 0.0928594 7.66291 0.0608594 8.13391 0.00585938Z" fill="#8C30F5"/>
<path d="M29.6549 9.39905C26.7009 9.39905 23.7469 9.40305 20.7939 9.39705C19.8899 9.39505 19.2759 8.94705 19.1039 8.19705C18.8759 7.20305 19.5909 6.30405 20.6699 6.27805C21.7599 6.25205 22.8509 6.26805 23.9409 6.26805C28.7389 6.26705 33.5359 6.26805 38.3339 6.26805C38.4329 6.26805 38.5319 6.26605 38.6309 6.26905C39.6109 6.29905 40.2989 6.94505 40.3019 7.83705C40.3049 8.73805 39.6299 9.38505 38.6369 9.39105C36.5949 9.40205 34.5529 9.39505 32.5109 9.39505C31.5589 9.39505 30.6079 9.39505 29.6559 9.39505C29.6549 9.39605 29.6549 9.39805 29.6549 9.39905Z" fill="#8C30F5"/>
<path d="M29.6509 25.0308C32.5659 25.0308 35.4799 25.0288 38.3949 25.0338C38.6699 25.0338 38.9579 25.0358 39.2189 25.1098C39.9089 25.3058 40.3509 25.9858 40.2979 26.7038C40.2449 27.4308 39.6839 28.0228 38.9289 28.1328C38.7339 28.1608 38.5329 28.1538 38.3349 28.1538C32.5259 28.1548 26.7159 28.1538 20.9069 28.1538C20.8079 28.1538 20.7079 28.1558 20.6099 28.1498C19.6849 28.0898 19.0409 27.4088 19.0679 26.5228C19.0939 25.6598 19.7379 25.0418 20.6699 25.0368C22.8909 25.0228 25.1109 25.0298 27.3319 25.0278C28.1049 25.0268 28.8789 25.0278 29.6519 25.0278C29.6509 25.0288 29.6509 25.0298 29.6509 25.0308Z" fill="#8C30F5"/>
<path d="M8.10791 9.38794C7.24391 9.38494 6.56891 8.70794 6.56791 7.84194C6.56691 6.99594 7.26491 6.28594 8.10791 6.27694C8.96791 6.26794 9.71091 7.01394 9.68991 7.86694C9.66991 8.71394 8.96591 9.39094 8.10791 9.38794Z" fill="#8C30F5"/>
</svg>
