<svg width="38" height="40" viewBox="0 0 38 40" fill="none" xmlns="http://www.w3.org/2000/svg">
<path d="M31.1094 40H6.8125C3.36615 40 0.5625 37.1964 0.5625 33.75V6.25C0.5625 2.80365 3.36615 0 6.8125 0H31.1094C34.5557 0 37.3594 2.80365 37.3594 6.25V25.9375C37.3594 26.8005 36.6599 27.5 35.7969 27.5C34.9338 27.5 34.2344 26.8005 34.2344 25.9375V6.25C34.2344 4.52698 32.8324 3.125 31.1094 3.125H6.8125C5.08948 3.125 3.6875 4.52698 3.6875 6.25V33.75C3.6875 35.473 5.08948 36.875 6.8125 36.875H31.1094C32.8324 36.875 34.2344 35.473 34.2344 33.75C34.2344 32.887 34.9338 32.1875 35.7969 32.1875C36.6599 32.1875 37.3594 32.887 37.3594 33.75C37.3594 37.1964 34.5557 40 31.1094 40ZM31.1094 7.57812C31.1094 6.71509 30.4099 6.01562 29.5469 6.01562C28.6838 6.01562 27.9844 6.71509 27.9844 7.57812C27.9844 8.44116 28.6838 9.14062 29.5469 9.14062C30.4099 9.14062 31.1094 8.44116 31.1094 7.57812ZM31.1094 13.8281C31.1094 12.9651 30.4099 12.2656 29.5469 12.2656C28.6838 12.2656 27.9844 12.9651 27.9844 13.8281C27.9844 14.6912 28.6838 15.3906 29.5469 15.3906C30.4099 15.3906 31.1094 14.6912 31.1094 13.8281ZM31.1094 20.0781C31.1094 19.2151 30.4099 18.5156 29.5469 18.5156C28.6838 18.5156 27.9844 19.2151 27.9844 20.0781C27.9844 20.9412 28.6838 21.6406 29.5469 21.6406C30.4099 21.6406 31.1094 20.9412 31.1094 20.0781ZM31.1094 26.3281C31.1094 25.4651 30.4099 24.7656 29.5469 24.7656C28.6838 24.7656 27.9844 25.4651 27.9844 26.3281C27.9844 27.1912 28.6838 27.8906 29.5469 27.8906C30.4099 27.8906 31.1094 27.1912 31.1094 26.3281ZM31.1094 32.5781C31.1094 31.7151 30.4099 31.0156 29.5469 31.0156C28.6838 31.0156 27.9844 31.7151 27.9844 32.5781C27.9844 33.4412 28.6838 34.1406 29.5469 34.1406C30.4099 34.1406 31.1094 33.4412 31.1094 32.5781ZM9.9375 7.57812C9.9375 6.71509 9.23804 6.01562 8.375 6.01562C7.51196 6.01562 6.8125 6.71509 6.8125 7.57812C6.8125 8.44116 7.51196 9.14062 8.375 9.14062C9.23804 9.14062 9.9375 8.44116 9.9375 7.57812ZM9.9375 13.8281C9.9375 12.9651 9.23804 12.2656 8.375 12.2656C7.51196 12.2656 6.8125 12.9651 6.8125 13.8281C6.8125 14.6912 7.51196 15.3906 8.375 15.3906C9.23804 15.3906 9.9375 14.6912 9.9375 13.8281ZM9.9375 20.0781C9.9375 19.2151 9.23804 18.5156 8.375 18.5156C7.51196 18.5156 6.8125 19.2151 6.8125 20.0781C6.8125 20.9412 7.51196 21.6406 8.375 21.6406C9.23804 21.6406 9.9375 20.9412 9.9375 20.0781ZM9.9375 26.3281C9.9375 25.4651 9.23804 24.7656 8.375 24.7656C7.51196 24.7656 6.8125 25.4651 6.8125 26.3281C6.8125 27.1912 7.51196 27.8906 8.375 27.8906C9.23804 27.8906 9.9375 27.1912 9.9375 26.3281ZM9.9375 32.5781C9.9375 31.7151 9.23804 31.0156 8.375 31.0156C7.51196 31.0156 6.8125 31.7151 6.8125 32.5781C6.8125 33.4412 7.51196 34.1406 8.375 34.1406C9.23804 34.1406 9.9375 33.4412 9.9375 32.5781ZM17.4186 26.4658L23.9094 22.6865C24.8469 22.1405 25.4062 21.1658 25.4062 20.0781C25.4062 18.9905 24.8469 18.0157 23.9094 17.4698L17.4186 13.6905C16.4802 13.1442 15.3583 13.1412 14.4175 13.6823C13.4711 14.2264 12.9062 15.2045 12.9062 16.2988V23.8574C12.9062 24.9518 13.4711 25.9299 14.4175 26.474C14.8856 26.7432 15.3983 26.8774 15.911 26.8774C16.4289 26.8774 16.9471 26.7401 17.4186 26.4658ZM15.846 23.765H15.8463H15.846ZM22.1787 20.0781L16.0312 23.6572V16.499L22.1787 20.0781Z" fill="#8C30F5"/>
</svg>
