<svg width="243" height="65" viewBox="0 0 243 65" fill="none" xmlns="http://www.w3.org/2000/svg">
<path d="M0 29.9077C0 15.8091 0 8.75976 4.37988 4.37988C8.75976 0 15.8091 0 29.9077 0H213.092C227.191 0 234.24 0 238.62 4.37988C243 8.75976 243 15.8091 243 29.9077V34.8923C243 48.9909 243 56.0402 238.62 60.4201C234.24 64.8 227.191 64.8 213.092 64.8H29.9077C15.8091 64.8 8.75976 64.8 4.37988 60.4201C0 56.0402 0 48.9909 0 34.8923V29.9077Z" fill="white"/>
<path fill-rule="evenodd" clip-rule="evenodd" d="M213.092 3.11526H29.9071C23.4276 3.11526 18.6307 3.11659 14.949 3.61157C11.2853 4.10414 8.81955 5.07528 6.94717 6.94766C5.07479 8.82004 4.10365 11.2858 3.61108 14.9495C3.1161 18.6312 3.11478 23.4281 3.11478 29.9076V34.8922C3.11478 41.3717 3.1161 46.1686 3.61108 49.8502C4.10365 53.5139 5.07479 55.9797 6.94717 57.8521C8.81955 59.7245 11.2853 60.6956 14.949 61.1882C18.6307 61.6832 23.4276 61.6845 29.9071 61.6845H213.092C219.571 61.6845 224.368 61.6832 228.05 61.1882C231.713 60.6956 234.179 59.7245 236.052 57.8521C237.924 55.9797 238.895 53.5139 239.388 49.8502C239.883 46.1686 239.884 41.3717 239.884 34.8922V29.9076C239.884 23.4281 239.883 18.6312 239.388 14.9495C238.895 11.2858 237.924 8.82004 236.052 6.94766C234.179 5.07528 231.713 4.10414 228.05 3.61157C224.368 3.11659 219.571 3.11526 213.092 3.11526ZM6.50659 6.50708C2.4917 10.522 2.4917 16.9838 2.4917 29.9076V34.8922C2.4917 47.8159 2.4917 54.2778 6.50659 58.2927C10.5215 62.3076 16.9833 62.3076 29.9071 62.3076H213.092C226.015 62.3076 232.477 62.3076 236.492 58.2927C240.507 54.2778 240.507 47.8159 240.507 34.8922V29.9076C240.507 16.9838 240.507 10.522 236.492 6.50708C232.477 2.49219 226.015 2.49219 213.092 2.49219H29.9071C16.9833 2.49219 10.5215 2.49219 6.50659 6.50708Z" fill="#BDCBE6"/>
<path d="M2.4917 29.9076C2.4917 16.9838 2.4917 10.522 6.50659 6.50708C10.5215 2.49219 16.9833 2.49219 29.9071 2.49219H122.122V62.3076H29.9071C16.9833 62.3076 10.5215 62.3076 6.50659 58.2927C2.4917 54.2778 2.4917 47.8159 2.4917 34.8922V29.9076Z" fill="url(#paint0_linear)"/>
<path d="M62.3164 43.7981H59.2825V39.8771H49.6662V43.7871H46.5557L46.3804 37.2375H47.5852C48.2351 36.6972 48.7352 35.9049 49.0857 34.8608C49.4435 33.8094 49.6844 32.5097 49.8086 30.9617L50.2686 23.9302H60.7173V37.2375H62.5792L62.3164 43.7981ZM51.3529 37.2375H57.4315V26.5916H53.39L53.1162 30.7865C52.8972 33.5976 52.3094 35.7479 51.3529 37.2375Z" fill="white"/>
<path d="M73.4879 36.5913H67.7269L66.6316 39.8771H63.1378L69.0741 23.9302H72.1189L78.088 39.8771H74.5941L73.4879 36.5913ZM68.6141 33.9298H72.6008L70.5965 27.9607L68.6141 33.9298Z" fill="white"/>
<path d="M177.647 39.8771H174.361V33.0427H167.954V39.8771H164.668V23.9302H167.954V30.3922H174.361V23.9302H177.647V39.8771Z" fill="url(#paint1_linear)"/>
<path d="M190.122 32.966H183.813V37.2375H191.217V39.8771H180.527V23.9302H191.195V26.5916H183.813V30.3922H190.122V32.966Z" fill="url(#paint2_linear)"/>
<path d="M205.368 26.5916H200.483V39.8771H197.197V26.5916H192.378V23.9302H205.368V26.5916Z" fill="url(#paint3_linear)"/>
<defs>
<linearGradient id="paint0_linear" x1="122.122" y1="4.98449" x2="7.33026" y2="58.8645" gradientUnits="userSpaceOnUse">
<stop stop-color="#0848C9"/>
<stop offset="1" stop-color="#A55CF4"/>
</linearGradient>
<linearGradient id="paint1_linear" x1="169.116" y1="24.9232" x2="199.885" y2="50.696" gradientUnits="userSpaceOnUse">
<stop stop-color="#F3687C"/>
<stop offset="1" stop-color="#FEC49A"/>
</linearGradient>
<linearGradient id="paint2_linear" x1="169.116" y1="24.9232" x2="199.885" y2="50.696" gradientUnits="userSpaceOnUse">
<stop stop-color="#F3687C"/>
<stop offset="1" stop-color="#FEC49A"/>
</linearGradient>
<linearGradient id="paint3_linear" x1="169.116" y1="24.9232" x2="199.885" y2="50.696" gradientUnits="userSpaceOnUse">
<stop stop-color="#F3687C"/>
<stop offset="1" stop-color="#FEC49A"/>
</linearGradient>
</defs>
</svg>
