<svg width="185" height="115" viewBox="0 0 185 115" fill="none" xmlns="http://www.w3.org/2000/svg">
<rect width="185" height="115" rx="16" fill="white"/>
<path d="M48.1064 49.1514H44.1387V58H39.1582V33.8281H48.1396C50.9951 33.8281 53.1976 34.4645 54.7471 35.7373C56.2965 37.0101 57.0713 38.8086 57.0713 41.1328C57.0713 42.7819 56.7116 44.1598 55.9922 45.2666C55.2839 46.3623 54.2048 47.2367 52.7549 47.8896L57.9844 57.7676V58H52.6387L48.1064 49.1514ZM44.1387 45.1172H48.1562C49.4069 45.1172 50.3753 44.8018 51.0615 44.1709C51.7477 43.529 52.0908 42.6491 52.0908 41.5312C52.0908 40.3913 51.7643 39.4948 51.1113 38.8418C50.4694 38.1888 49.4788 37.8623 48.1396 37.8623H44.1387V45.1172ZM59.8105 48.8525C59.8105 47.0706 60.1536 45.4824 60.8398 44.0879C61.526 42.6934 62.5111 41.6143 63.7949 40.8506C65.0898 40.0869 66.5895 39.7051 68.2939 39.7051C70.7178 39.7051 72.6934 40.4466 74.2207 41.9297C75.7591 43.4128 76.6169 45.4271 76.7939 47.9727L76.8271 49.2012C76.8271 51.957 76.0579 54.1706 74.5195 55.8418C72.9811 57.502 70.917 58.332 68.3271 58.332C65.7373 58.332 63.6676 57.502 62.1182 55.8418C60.5798 54.1816 59.8105 51.9238 59.8105 49.0684V48.8525ZM64.6084 49.2012C64.6084 50.9056 64.9294 52.2116 65.5713 53.1191C66.2132 54.0156 67.1318 54.4639 68.3271 54.4639C69.4893 54.4639 70.3968 54.0212 71.0498 53.1357C71.7028 52.2393 72.0293 50.8115 72.0293 48.8525C72.0293 47.1813 71.7028 45.8864 71.0498 44.9678C70.3968 44.0492 69.4782 43.5898 68.2939 43.5898C67.1208 43.5898 66.2132 44.0492 65.5713 44.9678C64.9294 45.8753 64.6084 47.2865 64.6084 49.2012ZM95.9688 49.1846C95.9688 52.0622 95.3545 54.3089 94.126 55.9248C92.8975 57.5296 91.182 58.332 88.9795 58.332C87.0316 58.332 85.4766 57.585 84.3145 56.0908L84.0986 58H79.7822V32.5H84.5801V41.6475C85.6868 40.3525 87.1423 39.7051 88.9463 39.7051C91.1377 39.7051 92.8532 40.513 94.0928 42.1289C95.3434 43.7337 95.9688 45.9971 95.9688 48.9189V49.1846ZM91.1709 48.8359C91.1709 47.0208 90.8831 45.6982 90.3076 44.8682C89.7321 44.027 88.8743 43.6064 87.7344 43.6064C86.207 43.6064 85.1556 44.2318 84.5801 45.4824V52.5713C85.1667 53.833 86.2292 54.4639 87.7676 54.4639C89.3171 54.4639 90.3353 53.7002 90.8223 52.1729C91.0547 51.4424 91.1709 50.3301 91.1709 48.8359ZM98.1934 48.8525C98.1934 47.0706 98.5365 45.4824 99.2227 44.0879C99.9089 42.6934 100.894 41.6143 102.178 40.8506C103.473 40.0869 104.972 39.7051 106.677 39.7051C109.101 39.7051 111.076 40.4466 112.604 41.9297C114.142 43.4128 115 45.4271 115.177 47.9727L115.21 49.2012C115.21 51.957 114.441 54.1706 112.902 55.8418C111.364 57.502 109.3 58.332 106.71 58.332C104.12 58.332 102.05 57.502 100.501 55.8418C98.9626 54.1816 98.1934 51.9238 98.1934 49.0684V48.8525ZM102.991 49.2012C102.991 50.9056 103.312 52.2116 103.954 53.1191C104.596 54.0156 105.515 54.4639 106.71 54.4639C107.872 54.4639 108.78 54.0212 109.433 53.1357C110.086 52.2393 110.412 50.8115 110.412 48.8525C110.412 47.1813 110.086 45.8864 109.433 44.9678C108.78 44.0492 107.861 43.5898 106.677 43.5898C105.504 43.5898 104.596 44.0492 103.954 44.9678C103.312 45.8753 102.991 47.2865 102.991 49.2012ZM123.909 35.6211V40.0371H126.98V43.5566H123.909V52.5215C123.909 53.1855 124.036 53.6615 124.291 53.9492C124.546 54.237 125.033 54.3809 125.752 54.3809C126.283 54.3809 126.754 54.3421 127.163 54.2646V57.9004C126.222 58.1882 125.254 58.332 124.258 58.332C120.893 58.332 119.178 56.6331 119.111 53.2354V43.5566H116.488V40.0371H119.111V35.6211H123.909ZM128.408 48.8525C128.408 47.0706 128.751 45.4824 129.438 44.0879C130.124 42.6934 131.109 41.6143 132.393 40.8506C133.688 40.0869 135.187 39.7051 136.892 39.7051C139.315 39.7051 141.291 40.4466 142.818 41.9297C144.357 43.4128 145.215 45.4271 145.392 47.9727L145.425 49.2012C145.425 51.957 144.656 54.1706 143.117 55.8418C141.579 57.502 139.515 58.332 136.925 58.332C134.335 58.332 132.265 57.502 130.716 55.8418C129.177 54.1816 128.408 51.9238 128.408 49.0684V48.8525ZM133.206 49.2012C133.206 50.9056 133.527 52.2116 134.169 53.1191C134.811 54.0156 135.729 54.4639 136.925 54.4639C138.087 54.4639 138.994 54.0212 139.647 53.1357C140.3 52.2393 140.627 50.8115 140.627 48.8525C140.627 47.1813 140.3 45.8864 139.647 44.9678C138.994 44.0492 138.076 43.5898 136.892 43.5898C135.718 43.5898 134.811 44.0492 134.169 44.9678C133.527 45.8753 133.206 47.2865 133.206 49.2012Z" fill="black"/>
<path opacity="0.6" d="M60.1562 72.6797C60.1562 72.0755 59.9349 71.5964 59.4922 71.2422C59.0547 70.8828 58.4375 70.7031 57.6406 70.7031C56.974 70.7031 56.4141 70.888 55.9609 71.2578C55.513 71.6224 55.2891 72.0755 55.2891 72.6172H53.7891C53.7891 72.013 53.9531 71.4714 54.2812 70.9922C54.6146 70.513 55.0781 70.1406 55.6719 69.875C56.2656 69.6042 56.9219 69.4688 57.6406 69.4688C58.9115 69.4688 59.8984 69.7552 60.6016 70.3281C61.3047 70.8958 61.6562 71.6875 61.6562 72.7031C61.6562 73.2292 61.4948 73.7083 61.1719 74.1406C60.849 74.5729 60.3984 74.9141 59.8203 75.1641C61.1589 75.612 61.8281 76.5 61.8281 77.8281C61.8281 78.849 61.4479 79.6589 60.6875 80.2578C59.9271 80.8568 58.9115 81.1562 57.6406 81.1562C56.8854 81.1562 56.1979 81.0234 55.5781 80.7578C54.9635 80.487 54.4844 80.1042 54.1406 79.6094C53.7969 79.1146 53.625 78.526 53.625 77.8438H55.125C55.125 78.4427 55.362 78.9427 55.8359 79.3438C56.3099 79.7396 56.9115 79.9375 57.6406 79.9375C58.4583 79.9375 59.1094 79.7474 59.5938 79.3672C60.0833 78.987 60.3281 78.4844 60.3281 77.8594C60.3281 76.526 59.5026 75.8464 57.8516 75.8203H56.4453V74.5859H57.8438C58.6042 74.5703 59.1797 74.3984 59.5703 74.0703C59.9609 73.7422 60.1562 73.2786 60.1562 72.6797ZM68.8125 81C68.7292 80.8333 68.6615 80.5365 68.6094 80.1094C67.9375 80.8073 67.1354 81.1562 66.2031 81.1562C65.3698 81.1562 64.6849 80.9219 64.1484 80.4531C63.6172 79.9792 63.3516 79.3802 63.3516 78.6562C63.3516 77.776 63.6849 77.0938 64.3516 76.6094C65.0234 76.1198 65.9661 75.875 67.1797 75.875H68.5859V75.2109C68.5859 74.7057 68.4349 74.3047 68.1328 74.0078C67.8307 73.7057 67.3854 73.5547 66.7969 73.5547C66.2812 73.5547 65.849 73.6849 65.5 73.9453C65.151 74.2057 64.9766 74.5208 64.9766 74.8906H63.5234C63.5234 74.4688 63.6719 74.0625 63.9688 73.6719C64.2708 73.276 64.6771 72.9635 65.1875 72.7344C65.7031 72.5052 66.2682 72.3906 66.8828 72.3906C67.8568 72.3906 68.6198 72.6354 69.1719 73.125C69.724 73.6094 70.0104 74.2786 70.0312 75.1328V79.0234C70.0312 79.7995 70.1302 80.4167 70.3281 80.875V81H68.8125ZM66.4141 79.8984C66.8672 79.8984 67.2969 79.7812 67.7031 79.5469C68.1094 79.3125 68.4036 79.0078 68.5859 78.6328V76.8984H67.4531C65.6823 76.8984 64.7969 77.4167 64.7969 78.4531C64.7969 78.9062 64.9479 79.2604 65.25 79.5156C65.5521 79.7708 65.9401 79.8984 66.4141 79.8984ZM77.7578 73.7422H73.8594V81H72.4062V72.5469H77.7578V73.7422ZM78.4766 76.6953C78.4766 75.8672 78.638 75.1224 78.9609 74.4609C79.2891 73.7995 79.7422 73.2891 80.3203 72.9297C80.9036 72.5703 81.5677 72.3906 82.3125 72.3906C83.4635 72.3906 84.3932 72.7891 85.1016 73.5859C85.8151 74.3828 86.1719 75.4427 86.1719 76.7656V76.8672C86.1719 77.6901 86.013 78.4297 85.6953 79.0859C85.3828 79.737 84.9323 80.2448 84.3438 80.6094C83.7604 80.974 83.0885 81.1562 82.3281 81.1562C81.1823 81.1562 80.2526 80.7578 79.5391 79.9609C78.8307 79.1641 78.4766 78.1094 78.4766 76.7969V76.6953ZM79.9297 76.8672C79.9297 77.8047 80.1458 78.5573 80.5781 79.125C81.0156 79.6927 81.599 79.9766 82.3281 79.9766C83.0625 79.9766 83.6458 79.6901 84.0781 79.1172C84.5104 78.5391 84.7266 77.7318 84.7266 76.6953C84.7266 75.7682 84.5052 75.0182 84.0625 74.4453C83.625 73.8672 83.0417 73.5781 82.3125 73.5781C81.599 73.5781 81.0234 73.862 80.5859 74.4297C80.1484 74.9974 79.9297 75.8099 79.9297 76.8672ZM94.7891 72.5469V81H93.3359V73.7422H90.4609L90.2891 76.9062C90.1953 78.3594 89.9505 79.3984 89.5547 80.0234C89.1641 80.6484 88.5417 80.974 87.6875 81H87.1094V79.7266L87.5234 79.6953C87.9922 79.6432 88.3281 79.3724 88.5312 78.8828C88.7344 78.3932 88.8646 77.487 88.9219 76.1641L89.0781 72.5469H94.7891ZM96.7266 76.6953C96.7266 75.8672 96.888 75.1224 97.2109 74.4609C97.5391 73.7995 97.9922 73.2891 98.5703 72.9297C99.1536 72.5703 99.8177 72.3906 100.562 72.3906C101.714 72.3906 102.643 72.7891 103.352 73.5859C104.065 74.3828 104.422 75.4427 104.422 76.7656V76.8672C104.422 77.6901 104.263 78.4297 103.945 79.0859C103.633 79.737 103.182 80.2448 102.594 80.6094C102.01 80.974 101.339 81.1562 100.578 81.1562C99.4323 81.1562 98.5026 80.7578 97.7891 79.9609C97.0807 79.1641 96.7266 78.1094 96.7266 76.7969V76.6953ZM98.1797 76.8672C98.1797 77.8047 98.3958 78.5573 98.8281 79.125C99.2656 79.6927 99.849 79.9766 100.578 79.9766C101.312 79.9766 101.896 79.6901 102.328 79.1172C102.76 78.5391 102.977 77.7318 102.977 76.6953C102.977 75.7682 102.755 75.0182 102.312 74.4453C101.875 73.8672 101.292 73.5781 100.562 73.5781C99.849 73.5781 99.2734 73.862 98.8359 74.4297C98.3984 74.9974 98.1797 75.8099 98.1797 76.8672ZM106.367 81V72.5469H109.664C110.789 72.5469 111.651 72.7448 112.25 73.1406C112.854 73.5312 113.156 74.1068 113.156 74.8672C113.156 75.2578 113.039 75.612 112.805 75.9297C112.57 76.2422 112.224 76.4818 111.766 76.6484C112.276 76.7682 112.685 77.0026 112.992 77.3516C113.305 77.7005 113.461 78.1172 113.461 78.6016C113.461 79.3776 113.174 79.9714 112.602 80.3828C112.034 80.7943 111.229 81 110.188 81H106.367ZM107.812 77.2891V79.8359H110.203C110.807 79.8359 111.258 79.724 111.555 79.5C111.857 79.276 112.008 78.9609 112.008 78.5547C112.008 77.7109 111.388 77.2891 110.148 77.2891H107.812ZM107.812 76.1328H109.68C111.034 76.1328 111.711 75.737 111.711 74.9453C111.711 74.1536 111.07 73.7448 109.789 73.7188H107.812V76.1328ZM114.992 76.6953C114.992 75.8672 115.154 75.1224 115.477 74.4609C115.805 73.7995 116.258 73.2891 116.836 72.9297C117.419 72.5703 118.083 72.3906 118.828 72.3906C119.979 72.3906 120.909 72.7891 121.617 73.5859C122.331 74.3828 122.688 75.4427 122.688 76.7656V76.8672C122.688 77.6901 122.529 78.4297 122.211 79.0859C121.898 79.737 121.448 80.2448 120.859 80.6094C120.276 80.974 119.604 81.1562 118.844 81.1562C117.698 81.1562 116.768 80.7578 116.055 79.9609C115.346 79.1641 114.992 78.1094 114.992 76.7969V76.6953ZM116.445 76.8672C116.445 77.8047 116.661 78.5573 117.094 79.125C117.531 79.6927 118.115 79.9766 118.844 79.9766C119.578 79.9766 120.161 79.6901 120.594 79.1172C121.026 78.5391 121.242 77.7318 121.242 76.6953C121.242 75.7682 121.021 75.0182 120.578 74.4453C120.141 73.8672 119.557 73.5781 118.828 73.5781C118.115 73.5781 117.539 73.862 117.102 74.4297C116.664 74.9974 116.445 75.8099 116.445 76.8672ZM127.133 77.3984H126.078V81H124.625V72.5469H126.078V76.125H127.023L129.867 72.5469H131.617L128.273 76.6094L131.898 81H130.062L127.133 77.3984Z" fill="#645C90"/>
</svg>
