<svg width="60" height="60" viewBox="0 0 60 60" fill="none" xmlns="http://www.w3.org/2000/svg">
<rect width="60" height="60" rx="12" fill="#3036F5"/>
<path d="M45.6719 13H14.3281C13.5946 13 13 13.5946 13 14.3281V20.1719C13 20.9054 13.5946 21.5 14.3281 21.5C15.0616 21.5 15.6562 20.9054 15.6562 20.1719V15.6562H26.0156V44.3438H24.0234C23.2899 44.3438 22.6953 44.9384 22.6953 45.6719C22.6953 46.4054 23.2899 47 24.0234 47H35.9766C36.7101 47 37.3047 46.4054 37.3047 45.6719C37.3047 44.9384 36.7101 44.3438 35.9766 44.3438H33.9844V20.9688C33.9844 20.2352 33.3898 19.6406 32.6562 19.6406C31.9227 19.6406 31.3281 20.2352 31.3281 20.9688V44.3438H28.6719V15.6562H44.3438V20.1719C44.3438 20.9054 44.9384 21.5 45.6719 21.5C46.4054 21.5 47 20.9054 47 20.1719V14.3281C47 13.5946 46.4054 13 45.6719 13Z" fill="white"/>
</svg>
