<svg width="24" height="24" viewBox="0 0 24 24" fill="none" xmlns="http://www.w3.org/2000/svg">
<path d="M15.75 1C11.751 1 7.5 2.314 7.5 4.75V7.75C7.5 8.164 7.836 8.5 8.25 8.5C8.664 8.5 9 8.164 9 7.75V6.9685C10.5915 7.972 13.2195 8.5 15.75 8.5C18.2805 8.5 20.9085 7.972 22.5 6.9685V7.75C22.5 8.4835 20.655 9.6535 17.187 9.943C16.776 9.976 16.4685 10.3405 16.503 10.753C16.5345 11.1445 16.863 11.44 17.2485 11.44C17.271 11.44 17.2905 11.4385 17.313 11.437C19.266 11.2735 21.2115 10.768 22.5 9.9475V10.75C22.5 11.3905 21.141 12.3115 18.6195 12.757C18.213 12.829 17.94 13.219 18.012 13.6255C18.0765 13.9885 18.393 14.245 18.7485 14.245C18.792 14.245 18.837 14.242 18.8805 14.233C20.406 13.9645 21.627 13.525 22.5 12.967V13.75C22.5 14.3905 21.141 15.3115 18.6195 15.757C18.213 15.829 17.94 16.219 18.012 16.6255C18.0765 16.9885 18.393 17.245 18.7485 17.245C18.792 17.245 18.837 17.242 18.8805 17.233C20.406 16.9645 21.627 16.5235 22.5 15.967V16.75C22.5 17.3905 21.141 18.3115 18.6195 18.757C18.213 18.829 17.94 19.219 18.012 19.6255C18.0765 19.9885 18.393 20.245 18.7485 20.245C18.792 20.245 18.837 20.242 18.8805 20.233C20.406 19.9645 21.627 19.5235 22.5 18.967V19.75C22.5 20.4835 20.655 21.6535 17.187 21.943C16.776 21.976 16.4685 22.3405 16.503 22.753C16.5345 23.1445 16.863 23.44 17.2485 23.44C17.271 23.44 17.2905 23.4385 17.313 23.437C20.6415 23.158 24 21.9115 24 19.75V4.75C24 2.314 19.749 1 15.75 1ZM15.75 7C11.6295 7 9 5.6665 9 4.75C9 3.8335 11.6295 2.5 15.75 2.5C19.8705 2.5 22.5 3.8335 22.5 4.75C22.5 5.6665 19.8705 7 15.75 7Z" fill="#8A55F9"/>
<path d="M8.25 10C4.251 10 0 11.314 0 13.75V19.75C0 22.186 4.251 23.5 8.25 23.5C12.249 23.5 16.5 22.186 16.5 19.75V13.75C16.5 11.314 12.249 10 8.25 10ZM15 19.75C15 20.6665 12.3705 22 8.25 22C4.1295 22 1.5 20.6665 1.5 19.75V18.9685C3.0915 19.972 5.7195 20.5 8.25 20.5C10.7805 20.5 13.4085 19.972 15 18.9685V19.75ZM15 16.75C15 17.6665 12.3705 19 8.25 19C4.1295 19 1.5 17.6665 1.5 16.75V15.9685C3.0915 16.972 5.7195 17.5 8.25 17.5C10.7805 17.5 13.4085 16.972 15 15.9685V16.75ZM8.25 16C4.1295 16 1.5 14.6665 1.5 13.75C1.5 12.8335 4.1295 11.5 8.25 11.5C12.3705 11.5 15 12.8335 15 13.75C15 14.6665 12.3705 16 8.25 16Z" fill="#8A55F9"/>
</svg>
