<svg width="376" height="87" viewBox="0 0 376 87" fill="none" xmlns="http://www.w3.org/2000/svg">
<path d="M338.456 0H35C15.67 0 0 15.67 0 35V74.3185V86.519L20.682 74.3185H338.456C358.979 74.3185 375.616 57.6817 375.616 37.1593C375.616 16.6368 358.979 0 338.456 0Z" fill="#343434"/>
<path d="M37.9749 27.3511H39.0609V18.7111H37.9749L36.3489 19.6831V20.8771L37.9749 19.8931V27.3511ZM45.0759 27.3511H46.1559V25.7611H47.0559V24.7471H46.1559V22.3171H45.0759V24.7471H42.3159L45.1659 18.7111H43.9539L41.1039 24.7471V25.7611H45.0759V27.3511ZM48.9723 26.4511H50.1483V25.2751H48.9723V26.4511ZM48.9783 22.9471H50.1543V21.7711H48.9783V22.9471ZM55.1701 27.5311C55.7301 27.5311 56.2301 27.4051 56.6701 27.1531C57.1101 26.9011 57.4561 26.5551 57.7081 26.1151C57.9601 25.6751 58.0861 25.1751 58.0861 24.6151V21.4471C58.0861 20.8871 57.9601 20.3871 57.7081 19.9471C57.4561 19.5071 57.1101 19.1611 56.6701 18.9091C56.2301 18.6571 55.7301 18.5311 55.1701 18.5311C54.6101 18.5311 54.1101 18.6571 53.6701 18.9091C53.2301 19.1611 52.8841 19.5071 52.6321 19.9471C52.3801 20.3871 52.2541 20.8871 52.2541 21.4471V24.6151C52.2541 25.1751 52.3801 25.6751 52.6321 26.1151C52.8841 26.5551 53.2301 26.9011 53.6701 27.1531C54.1101 27.4051 54.6101 27.5311 55.1701 27.5311ZM55.1701 26.5051C54.8341 26.5051 54.5261 26.4231 54.2461 26.2591C53.9701 26.0951 53.7501 25.8751 53.5861 25.5991C53.4221 25.3191 53.3401 25.0111 53.3401 24.6751V21.3811C53.3401 21.0411 53.4221 20.7331 53.5861 20.4571C53.7501 20.1811 53.9701 19.9611 54.2461 19.7971C54.5261 19.6331 54.8341 19.5511 55.1701 19.5511C55.5101 19.5511 55.8181 19.6331 56.0941 19.7971C56.3701 19.9611 56.5901 20.1811 56.7541 20.4571C56.9181 20.7331 57.0001 21.0411 57.0001 21.3811V24.6751C57.0001 25.0111 56.9181 25.3191 56.7541 25.5991C56.5901 25.8751 56.3701 26.0951 56.0941 26.2591C55.8181 26.4231 55.5101 26.5051 55.1701 26.5051ZM62.3218 27.5311C62.8578 27.5311 63.3498 27.4011 63.7978 27.1411C64.2498 26.8771 64.6118 26.5271 64.8838 26.0911C65.1558 25.6511 65.2918 25.1651 65.2918 24.6331C65.2918 24.0971 65.1678 23.6151 64.9198 23.1871C64.6718 22.7551 64.3358 22.4151 63.9118 22.1671C63.4878 21.9151 63.0078 21.7891 62.4718 21.7891C61.8638 21.7891 61.3258 21.9751 60.8578 22.3471L61.0138 19.7251H64.6918V18.7111H60.0538L59.7898 23.2291L60.7378 23.5891C60.8938 23.3651 61.1058 23.1731 61.3738 23.0131C61.6458 22.8531 61.9718 22.7731 62.3518 22.7731C62.6878 22.7731 62.9978 22.8551 63.2818 23.0191C63.5658 23.1831 63.7918 23.4071 63.9598 23.6911C64.1318 23.9711 64.2178 24.2851 64.2178 24.6331C64.2178 24.9691 64.1338 25.2791 63.9658 25.5631C63.8018 25.8431 63.5798 26.0691 63.2998 26.2411C63.0198 26.4091 62.7038 26.4931 62.3518 26.4931C61.9518 26.4931 61.5778 26.3691 61.2298 26.1211C60.8858 25.8691 60.6598 25.5311 60.5518 25.1071L59.5258 25.3831C59.6418 25.8031 59.8338 26.1751 60.1018 26.4991C60.3738 26.8231 60.6998 27.0771 61.0798 27.2611C61.4638 27.4411 61.8778 27.5311 62.3218 27.5311Z" fill="#8E8E8E"/>
<path d="M36.0209 54.2711H37.4449V52.3511H45.2769V54.2711H46.7009V50.9991H45.8609V40.8311L38.6209 40.8231C38.5729 41.6497 38.5303 42.4124 38.4929 43.1111C38.4556 43.8097 38.4129 44.4844 38.3649 45.1351C38.3223 45.7857 38.2663 46.4577 38.1969 47.1511C38.1489 47.6417 38.0849 48.1164 38.0049 48.5751C37.9303 49.0337 37.8183 49.4471 37.6689 49.8151C37.5196 50.1777 37.3116 50.4657 37.0449 50.6791C36.7836 50.8924 36.4423 50.9991 36.0209 50.9991V54.2711ZM38.5169 50.9991C38.8796 50.6364 39.1249 50.1884 39.2529 49.6551C39.3863 49.1217 39.4956 48.4044 39.5809 47.5031C39.6769 46.5377 39.7463 45.6417 39.7889 44.8151C39.8369 43.9831 39.8876 43.1031 39.9409 42.1751L44.4369 42.1831V50.9991H38.5169ZM52.1359 52.5911C52.9946 52.5911 53.7333 52.3991 54.3519 52.0151C54.9759 51.6311 55.4559 51.0951 55.7919 50.4071C56.1333 49.7191 56.3039 48.9244 56.3039 48.0231C56.3039 47.1324 56.1359 46.3457 55.7999 45.6631C55.4693 44.9751 54.9919 44.4391 54.3679 44.0551C53.7439 43.6657 52.9999 43.4711 52.1359 43.4711C51.2933 43.4711 50.5599 43.6631 49.9359 44.0471C49.3119 44.4257 48.8293 44.9564 48.4879 45.6391C48.1466 46.3217 47.9759 47.1164 47.9759 48.0231C47.9759 48.9137 48.1413 49.7031 48.4719 50.3911C48.8079 51.0791 49.2879 51.6177 49.9119 52.0071C50.5359 52.3964 51.2773 52.5911 52.1359 52.5911ZM52.1359 51.2391C51.2666 51.2391 50.6079 50.9484 50.1599 50.3671C49.7119 49.7804 49.4879 48.9991 49.4879 48.0231C49.4879 47.0791 49.7039 46.3111 50.1359 45.7191C50.5679 45.1217 51.2346 44.8231 52.1359 44.8231C53.0213 44.8231 53.6853 45.1137 54.1279 45.6951C54.5706 46.2764 54.7919 47.0524 54.7919 48.0231C54.7919 48.9724 54.5706 49.7457 54.1279 50.3431C53.6906 50.9404 53.0266 51.2391 52.1359 51.2391ZM61.5773 52.5991C62.4146 52.6044 63.1426 52.4311 63.7613 52.0791C64.3853 51.7271 64.868 51.2311 65.2093 50.5911C65.5506 49.9511 65.7213 49.2044 65.7213 48.3511C65.7213 47.5457 65.5693 46.8284 65.2653 46.1991C64.9666 45.5697 64.5373 45.0764 63.9773 44.7191C63.4173 44.3564 62.7506 44.1751 61.9773 44.1751C61.38 44.1751 60.8173 44.2977 60.2893 44.5431C59.7613 44.7831 59.332 45.1564 59.0013 45.6631C59.0493 45.0444 59.1826 44.4871 59.4013 43.9911C59.6253 43.4951 59.9453 43.1191 60.3613 42.8631C60.644 42.6817 60.98 42.5404 61.3693 42.4391C61.764 42.3324 62.1746 42.2497 62.6013 42.1911C63.0333 42.1324 63.4493 42.0817 63.8493 42.0391C64.2493 41.9911 64.596 41.9351 64.8893 41.8711L64.7453 40.5911C64.1906 40.6977 63.6013 40.7857 62.9773 40.8551C62.3586 40.9244 61.756 41.0257 61.1693 41.1591C60.588 41.2924 60.0733 41.5137 59.6253 41.8231C58.9213 42.2871 58.42 42.9244 58.1213 43.7351C57.9986 44.0604 57.8946 44.4737 57.8093 44.9751C57.724 45.4764 57.6626 45.9991 57.6253 46.5431C57.5933 47.0871 57.588 47.5857 57.6093 48.0391C57.668 49.5164 58.0386 50.6444 58.7213 51.4231C59.404 52.1964 60.356 52.5884 61.5773 52.5991ZM61.6653 51.2471C60.844 51.2471 60.2146 50.9937 59.7773 50.4871C59.34 49.9804 59.1213 49.2817 59.1213 48.3911C59.1213 47.5057 59.3373 46.8097 59.7693 46.3031C60.2066 45.7911 60.836 45.5351 61.6573 45.5351C62.468 45.5351 63.0973 45.7911 63.5453 46.3031C63.9933 46.8097 64.2173 47.5057 64.2173 48.3911C64.2173 49.2551 64.0013 49.9484 63.5693 50.4711C63.1373 50.9884 62.5026 51.2471 61.6653 51.2471ZM67.4792 56.1911H68.9112V51.5511C69.2205 51.8764 69.5859 52.1324 70.0072 52.3191C70.4339 52.5004 70.9165 52.5911 71.4552 52.5911C72.2605 52.5911 72.9512 52.3911 73.5272 51.9911C74.1085 51.5857 74.5539 51.0391 74.8632 50.3511C75.1725 49.6631 75.3272 48.8871 75.3272 48.0231C75.3272 47.1591 75.1725 46.3831 74.8632 45.6951C74.5539 45.0071 74.1085 44.4657 73.5272 44.0711C72.9512 43.6711 72.2632 43.4711 71.4632 43.4711C70.8765 43.4711 70.3565 43.5777 69.9032 43.7911C69.4499 44.0044 69.0659 44.3004 68.7512 44.6791V43.7111H67.4792V56.1911ZM71.2792 51.2871C70.4099 51.2871 69.7699 50.9804 69.3592 50.3671C68.9539 49.7537 68.7512 48.9724 68.7512 48.0231C68.7512 47.0684 68.9539 46.2897 69.3592 45.6871C69.7699 45.0791 70.3965 44.7751 71.2392 44.7751C71.8259 44.7751 72.3085 44.9191 72.6872 45.2071C73.0712 45.4951 73.3539 45.8844 73.5352 46.3751C73.7219 46.8657 73.8152 47.4151 73.8152 48.0231C73.8152 48.6364 73.7219 49.1911 73.5352 49.6871C73.3485 50.1777 73.0685 50.5671 72.6952 50.8551C72.3219 51.1431 71.8499 51.2871 71.2792 51.2871ZM77.0809 52.3511H79.9049C80.1503 52.3511 80.4089 52.3457 80.6809 52.3351C80.9583 52.3191 81.2036 52.2871 81.4169 52.2391C82.0409 52.1004 82.5449 51.8124 82.9289 51.3751C83.3183 50.9377 83.5129 50.3457 83.5129 49.5991C83.5129 48.7884 83.3049 48.1751 82.8889 47.7591C82.4783 47.3377 81.9396 47.0604 81.2729 46.9271C81.0756 46.8897 80.8463 46.8657 80.5849 46.8551C80.3289 46.8444 80.0756 46.8391 79.8249 46.8391H78.5049V43.7111H77.0729L77.0809 52.3511ZM84.5049 52.3511H85.9289V43.7111H84.5049V52.3511ZM78.5049 51.1751V48.0151H79.9289C80.0836 48.0151 80.2463 48.0204 80.4169 48.0311C80.5876 48.0417 80.7503 48.0657 80.9049 48.1031C81.2409 48.1777 81.5156 48.3351 81.7289 48.5751C81.9423 48.8151 82.0489 49.1564 82.0489 49.5991C82.0489 50.0364 81.9396 50.3751 81.7209 50.6151C81.5023 50.8497 81.2596 51.0044 80.9929 51.0791C80.8329 51.1217 80.6543 51.1484 80.4569 51.1591C80.2596 51.1697 80.0836 51.1751 79.9289 51.1751H78.5049ZM91.8947 42.7031C92.3 42.7031 92.6654 42.6044 92.9907 42.4071C93.3214 42.2097 93.5854 41.9457 93.7827 41.6151C93.98 41.2844 94.0787 40.9191 94.0787 40.5191H92.9267C92.9267 40.8017 92.8254 41.0444 92.6227 41.2471C92.4254 41.4497 92.1827 41.5511 91.8947 41.5511C91.612 41.5511 91.3694 41.4497 91.1667 41.2471C90.964 41.0444 90.8627 40.8017 90.8627 40.5191H89.7107C89.7107 40.9191 89.8094 41.2844 90.0067 41.6151C90.204 41.9457 90.468 42.2097 90.7987 42.4071C91.1294 42.6044 91.4947 42.7031 91.8947 42.7031ZM95.2467 43.7111H94.0787L89.5427 49.9911V43.7111H88.1667V52.3511H89.3427L93.8707 45.9831V52.3511H95.2467V43.7111ZM100.05 54.2711H101.41V52.3511H107.49V54.2711H108.85V51.1751H108.01V43.7111H102.058C102.005 44.9431 101.944 45.9831 101.874 46.8311C101.81 47.6737 101.717 48.4391 101.594 49.1271C101.466 49.8577 101.296 50.3831 101.082 50.7031C100.874 51.0177 100.53 51.1751 100.05 51.1751V54.2711ZM102.242 51.1751C102.434 50.9884 102.576 50.7564 102.666 50.4791C102.762 50.2017 102.845 49.8604 102.914 49.4551C102.994 49.0764 103.061 48.6284 103.114 48.1111C103.168 47.5884 103.213 47.0471 103.25 46.4871C103.288 45.9217 103.32 45.3884 103.346 44.8871H106.586V51.1751H102.242ZM114.2 52.5911C115.037 52.5911 115.792 52.3831 116.464 51.9671C117.136 51.5457 117.643 50.9537 117.984 50.1911L116.616 49.7191C116.12 50.7324 115.293 51.2391 114.136 51.2391C113.341 51.2391 112.717 50.9964 112.264 50.5111C111.816 50.0204 111.563 49.3271 111.504 48.4311H118.128C118.171 47.4071 118.037 46.5244 117.728 45.7831C117.424 45.0417 116.965 44.4711 116.352 44.0711C115.744 43.6711 115.005 43.4711 114.136 43.4711C113.299 43.4711 112.568 43.6604 111.944 44.0391C111.32 44.4124 110.835 44.9457 110.488 45.6391C110.147 46.3271 109.976 47.1431 109.976 48.0871C109.976 48.9884 110.149 49.7777 110.496 50.4551C110.848 51.1271 111.341 51.6524 111.976 52.0311C112.611 52.4044 113.352 52.5911 114.2 52.5911ZM114.184 44.7511C115.651 44.7511 116.472 45.5964 116.648 47.2871H111.528C111.629 46.4657 111.904 45.8391 112.352 45.4071C112.8 44.9697 113.411 44.7511 114.184 44.7511ZM119.901 52.3511H121.325V48.7031H125.869V52.3511H127.293V43.7111H125.869V47.3511H121.325V43.7111H119.901V52.3511ZM129.534 52.3511H132.902C133.147 52.3511 133.406 52.3457 133.678 52.3351C133.955 52.3191 134.201 52.2871 134.414 52.2391C135.038 52.1004 135.542 51.8124 135.926 51.3751C136.315 50.9377 136.51 50.3457 136.51 49.5991C136.51 48.7884 136.302 48.1751 135.886 47.7591C135.475 47.3377 134.937 47.0604 134.27 46.9271C134.073 46.8897 133.843 46.8657 133.582 46.8551C133.326 46.8444 133.073 46.8391 132.822 46.8391H130.958V43.7111H129.526L129.534 52.3511ZM130.958 51.1751V48.0151H132.926C133.081 48.0151 133.243 48.0204 133.414 48.0311C133.585 48.0417 133.747 48.0657 133.902 48.1031C134.238 48.1777 134.513 48.3351 134.726 48.5751C134.939 48.8151 135.046 49.1564 135.046 49.5991C135.046 50.0364 134.937 50.3751 134.718 50.6151C134.499 50.8497 134.257 51.0044 133.99 51.0791C133.83 51.1217 133.651 51.1484 133.454 51.1591C133.257 51.1697 133.081 51.1751 132.926 51.1751H130.958ZM139.068 49.4711H140.492V40.8311H139.068V49.4711ZM139.068 52.3511H140.492V50.8791H139.068V52.3511ZM146.737 52.3511H151.625C152.681 52.3511 153.516 52.0551 154.129 51.4631C154.743 50.8657 155.049 50.0631 155.049 49.0551C155.049 48.4151 154.889 47.8524 154.569 47.3671C154.249 46.8764 153.796 46.5057 153.209 46.2551C153.609 46.0204 153.924 45.6951 154.153 45.2791C154.383 44.8631 154.497 44.3911 154.497 43.8631C154.497 43.3297 154.367 42.8337 154.105 42.3751C153.849 41.9111 153.476 41.5377 152.985 41.2551C152.5 40.9724 151.913 40.8311 151.225 40.8311H146.737V52.3511ZM148.177 45.6391V42.1751H151.209C151.748 42.1751 152.185 42.3324 152.521 42.6471C152.863 42.9617 153.033 43.3671 153.033 43.8631C153.033 44.4017 152.855 44.8337 152.497 45.1591C152.145 45.4791 151.716 45.6391 151.209 45.6391H148.177ZM148.177 50.9911V46.9831H151.513C152.127 46.9831 152.625 47.1831 153.009 47.5831C153.393 47.9777 153.585 48.4657 153.585 49.0471C153.585 49.6551 153.372 50.1324 152.945 50.4791C152.519 50.8204 151.988 50.9911 151.353 50.9911H148.177ZM156.643 52.3511H159.467C159.713 52.3511 159.971 52.3457 160.243 52.3351C160.521 52.3191 160.766 52.2871 160.979 52.2391C161.603 52.1004 162.107 51.8124 162.491 51.3751C162.881 50.9377 163.075 50.3457 163.075 49.5991C163.075 48.7884 162.867 48.1751 162.451 47.7591C162.041 47.3377 161.502 47.0604 160.835 46.9271C160.638 46.8897 160.409 46.8657 160.147 46.8551C159.891 46.8444 159.638 46.8391 159.387 46.8391H158.067V43.7111H156.635L156.643 52.3511ZM164.067 52.3511H165.491V43.7111H164.067V52.3511ZM158.067 51.1751V48.0151H159.491C159.646 48.0151 159.809 48.0204 159.979 48.0311C160.15 48.0417 160.313 48.0657 160.467 48.1031C160.803 48.1777 161.078 48.3351 161.291 48.5751C161.505 48.8151 161.611 49.1564 161.611 49.5991C161.611 50.0364 161.502 50.3751 161.283 50.6151C161.065 50.8497 160.822 51.0044 160.555 51.0791C160.395 51.1217 160.217 51.1484 160.019 51.1591C159.822 51.1697 159.646 51.1751 159.491 51.1751H158.067ZM170.932 52.3511H172.308V46.6791L175.06 52.3511H175.812L178.564 46.6791V52.3511H179.94V43.7111H178.716L175.436 50.4151L172.156 43.7111H170.932V52.3511ZM185.855 52.5911C186.713 52.5911 187.452 52.3991 188.071 52.0151C188.695 51.6311 189.175 51.0951 189.511 50.4071C189.852 49.7191 190.023 48.9244 190.023 48.0231C190.023 47.1324 189.855 46.3457 189.519 45.6631C189.188 44.9751 188.711 44.4391 188.087 44.0551C187.463 43.6657 186.719 43.4711 185.855 43.4711C185.012 43.4711 184.279 43.6631 183.655 44.0471C183.031 44.4257 182.548 44.9564 182.207 45.6391C181.865 46.3217 181.695 47.1164 181.695 48.0231C181.695 48.9137 181.86 49.7031 182.191 50.3911C182.527 51.0791 183.007 51.6177 183.631 52.0071C184.255 52.3964 184.996 52.5911 185.855 52.5911ZM185.855 51.2391C184.985 51.2391 184.327 50.9484 183.879 50.3671C183.431 49.7804 183.207 48.9991 183.207 48.0231C183.207 47.0791 183.423 46.3111 183.855 45.7191C184.287 45.1217 184.953 44.8231 185.855 44.8231C186.74 44.8231 187.404 45.1137 187.847 45.6951C188.289 46.2764 188.511 47.0524 188.511 48.0231C188.511 48.9724 188.289 49.7457 187.847 50.3431C187.409 50.9404 186.745 51.2391 185.855 51.2391ZM191.784 52.3511H193.208V45.0631H197.784V43.7111H191.784V52.3511ZM198.343 52.3511C198.925 52.4684 199.386 52.4791 199.727 52.3831C200.069 52.2924 200.33 52.0924 200.511 51.7831C200.693 51.4684 200.834 51.0497 200.935 50.5271C201.015 50.1217 201.09 49.6177 201.159 49.0151C201.234 48.4124 201.301 47.7671 201.359 47.0791C201.423 46.3911 201.479 45.7191 201.527 45.0631H204.847V52.3511H206.271V43.7111H200.231C200.157 44.9964 200.074 46.1537 199.983 47.1831C199.898 48.2071 199.789 49.0977 199.655 49.8551C199.57 50.3404 199.45 50.6951 199.295 50.9191C199.141 51.1431 198.823 51.2124 198.343 51.1271V52.3511ZM215.59 43.7111H214.422L209.886 49.9911V43.7111H208.51V52.3511H209.686L214.214 45.9831V52.3511H215.59V43.7111ZM224.546 52.5991C225.383 52.6044 226.111 52.4311 226.73 52.0791C227.354 51.7271 227.837 51.2311 228.178 50.5911C228.519 49.9511 228.69 49.2044 228.69 48.3511C228.69 47.5457 228.538 46.8284 228.234 46.1991C227.935 45.5697 227.506 45.0764 226.946 44.7191C226.386 44.3564 225.719 44.1751 224.946 44.1751C224.349 44.1751 223.786 44.2977 223.258 44.5431C222.73 44.7831 222.301 45.1564 221.97 45.6631C222.018 45.0444 222.151 44.4871 222.37 43.9911C222.594 43.4951 222.914 43.1191 223.33 42.8631C223.613 42.6817 223.949 42.5404 224.338 42.4391C224.733 42.3324 225.143 42.2497 225.57 42.1911C226.002 42.1324 226.418 42.0817 226.818 42.0391C227.218 41.9911 227.565 41.9351 227.858 41.8711L227.714 40.5911C227.159 40.6977 226.57 40.7857 225.946 40.8551C225.327 40.9244 224.725 41.0257 224.138 41.1591C223.557 41.2924 223.042 41.5137 222.594 41.8231C221.89 42.2871 221.389 42.9244 221.09 43.7351C220.967 44.0604 220.863 44.4737 220.778 44.9751C220.693 45.4764 220.631 45.9991 220.594 46.5431C220.562 47.0871 220.557 47.5857 220.578 48.0391C220.637 49.5164 221.007 50.6444 221.69 51.4231C222.373 52.1964 223.325 52.5884 224.546 52.5991ZM224.634 51.2471C223.813 51.2471 223.183 50.9937 222.746 50.4871C222.309 49.9804 222.09 49.2817 222.09 48.3911C222.09 47.5057 222.306 46.8097 222.738 46.3031C223.175 45.7911 223.805 45.5351 224.626 45.5351C225.437 45.5351 226.066 45.7911 226.514 46.3031C226.962 46.8097 227.186 47.5057 227.186 48.3911C227.186 49.2551 226.97 49.9484 226.538 50.4711C226.106 50.9884 225.471 51.2471 224.634 51.2471ZM230.456 52.3511H233.28C233.525 52.3511 233.784 52.3457 234.056 52.3351C234.333 52.3191 234.579 52.2871 234.792 52.2391C235.416 52.1004 235.92 51.8124 236.304 51.3751C236.693 50.9377 236.888 50.3457 236.888 49.5991C236.888 48.7884 236.68 48.1751 236.264 47.7591C235.853 47.3377 235.315 47.0604 234.648 46.9271C234.451 46.8897 234.221 46.8657 233.96 46.8551C233.704 46.8444 233.451 46.8391 233.2 46.8391H231.88V43.7111H230.448L230.456 52.3511ZM237.88 52.3511H239.304V43.7111H237.88V52.3511ZM231.88 51.1751V48.0151H233.304C233.459 48.0151 233.621 48.0204 233.792 48.0311C233.963 48.0417 234.125 48.0657 234.28 48.1031C234.616 48.1777 234.891 48.3351 235.104 48.5751C235.317 48.8151 235.424 49.1564 235.424 49.5991C235.424 50.0364 235.315 50.3751 235.096 50.6151C234.877 50.8497 234.635 51.0044 234.368 51.0791C234.208 51.1217 234.029 51.1484 233.832 51.1591C233.635 51.1697 233.459 51.1751 233.304 51.1751H231.88ZM244.745 52.3511H246.121V46.6791L248.873 52.3511H249.625L252.377 46.6791V52.3511H253.753V43.7111H252.529L249.249 50.4151L245.969 43.7111H244.745V52.3511ZM255.979 52.3511H257.403V48.7031H261.947V52.3511H263.371V43.7111H261.947V47.3511H257.403V43.7111H255.979V52.3511ZM269.356 52.5911C270.194 52.5911 270.948 52.3831 271.62 51.9671C272.292 51.5457 272.799 50.9537 273.14 50.1911L271.772 49.7191C271.276 50.7324 270.45 51.2391 269.292 51.2391C268.498 51.2391 267.874 50.9964 267.42 50.5111C266.972 50.0204 266.719 49.3271 266.66 48.4311H273.284C273.327 47.4071 273.194 46.5244 272.884 45.7831C272.58 45.0417 272.122 44.4711 271.508 44.0711C270.9 43.6711 270.162 43.4711 269.292 43.4711C268.455 43.4711 267.724 43.6604 267.1 44.0391C266.476 44.4124 265.991 44.9457 265.644 45.6391C265.303 46.3271 265.132 47.1431 265.132 48.0871C265.132 48.9884 265.306 49.7777 265.652 50.4551C266.004 51.1271 266.498 51.6524 267.132 52.0311C267.767 52.4044 268.508 52.5911 269.356 52.5911ZM269.34 44.7511C270.807 44.7511 271.628 45.5964 271.804 47.2871H266.684C266.786 46.4657 267.06 45.8391 267.508 45.4071C267.956 44.9697 268.567 44.7511 269.34 44.7511ZM278.26 52.3511H279.684V45.0631H283.916V52.3511H285.34V43.7111H278.26V52.3511ZM291.261 52.5911C292.12 52.5911 292.858 52.3991 293.477 52.0151C294.101 51.6311 294.581 51.0951 294.917 50.4071C295.258 49.7191 295.429 48.9244 295.429 48.0231C295.429 47.1324 295.261 46.3457 294.925 45.6631C294.594 44.9751 294.117 44.4391 293.493 44.0551C292.869 43.6657 292.125 43.4711 291.261 43.4711C290.418 43.4711 289.685 43.6631 289.061 44.0471C288.437 44.4257 287.954 44.9564 287.613 45.6391C287.272 46.3217 287.101 47.1164 287.101 48.0231C287.101 48.9137 287.266 49.7031 287.597 50.3911C287.933 51.0791 288.413 51.6177 289.037 52.0071C289.661 52.3964 290.402 52.5911 291.261 52.5911ZM291.261 51.2391C290.392 51.2391 289.733 50.9484 289.285 50.3671C288.837 49.7804 288.613 48.9991 288.613 48.0231C288.613 47.0791 288.829 46.3111 289.261 45.7191C289.693 45.1217 290.36 44.8231 291.261 44.8231C292.146 44.8231 292.81 45.1137 293.253 45.6951C293.696 46.2764 293.917 47.0524 293.917 48.0231C293.917 48.9724 293.696 49.7457 293.253 50.3431C292.816 50.9404 292.152 51.2391 291.261 51.2391ZM297.182 52.3511H298.558V46.6791L301.31 52.3511H302.062L304.814 46.6791V52.3511H306.19V43.7111H304.966L301.686 50.4151L298.406 43.7111H297.182V52.3511ZM312.105 52.5911C312.963 52.5911 313.702 52.3991 314.321 52.0151C314.945 51.6311 315.425 51.0951 315.761 50.4071C316.102 49.7191 316.273 48.9244 316.273 48.0231C316.273 47.1324 316.105 46.3457 315.769 45.6631C315.438 44.9751 314.961 44.4391 314.337 44.0551C313.713 43.6657 312.969 43.4711 312.105 43.4711C311.262 43.4711 310.529 43.6631 309.905 44.0471C309.281 44.4257 308.798 44.9564 308.457 45.6391C308.115 46.3217 307.945 47.1164 307.945 48.0231C307.945 48.9137 308.11 49.7031 308.441 50.3911C308.777 51.0791 309.257 51.6177 309.881 52.0071C310.505 52.3964 311.246 52.5911 312.105 52.5911ZM312.105 51.2391C311.235 51.2391 310.577 50.9484 310.129 50.3671C309.681 49.7804 309.457 48.9991 309.457 48.0231C309.457 47.0791 309.673 46.3111 310.105 45.7191C310.537 45.1217 311.203 44.8231 312.105 44.8231C312.99 44.8231 313.654 45.1137 314.097 45.6951C314.539 46.2764 314.761 47.0524 314.761 48.0231C314.761 48.9724 314.539 49.7457 314.097 50.3431C313.659 50.9404 312.995 51.2391 312.105 51.2391ZM323.234 52.3511H324.666V43.7111H323.234V47.9191C322.989 48.0951 322.69 48.2364 322.338 48.3431C321.986 48.4497 321.605 48.5031 321.194 48.5031C320.575 48.5031 320.095 48.3724 319.754 48.1111C319.418 47.8444 319.197 47.4444 319.09 46.9111C319.047 46.6977 319.021 46.4791 319.01 46.2551C318.999 46.0311 318.994 45.8391 318.994 45.6791V43.7111H317.554V45.6791C317.554 45.8124 317.559 46.0604 317.57 46.4231C317.586 46.7857 317.629 47.1324 317.698 47.4631C317.858 48.2044 318.207 48.7724 318.746 49.1671C319.29 49.5617 320.002 49.7591 320.882 49.7591C321.341 49.7591 321.773 49.7111 322.178 49.6151C322.589 49.5137 322.941 49.3884 323.234 49.2391V52.3511ZM326.909 52.3511H330.277C330.522 52.3511 330.781 52.3457 331.053 52.3351C331.33 52.3191 331.576 52.2871 331.789 52.2391C332.413 52.1004 332.917 51.8124 333.301 51.3751C333.69 50.9377 333.885 50.3457 333.885 49.5991C333.885 48.7884 333.677 48.1751 333.261 47.7591C332.85 47.3377 332.312 47.0604 331.645 46.9271C331.448 46.8897 331.218 46.8657 330.957 46.8551C330.701 46.8444 330.448 46.8391 330.197 46.8391H328.333V43.7111H326.901L326.909 52.3511ZM328.333 51.1751V48.0151H330.301C330.456 48.0151 330.618 48.0204 330.789 48.0311C330.96 48.0417 331.122 48.0657 331.277 48.1031C331.613 48.1777 331.888 48.3351 332.101 48.5751C332.314 48.8151 332.421 49.1564 332.421 49.5991C332.421 50.0364 332.312 50.3751 332.093 50.6151C331.874 50.8497 331.632 51.0044 331.365 51.0791C331.205 51.1217 331.026 51.1484 330.829 51.1591C330.632 51.1697 330.456 51.1751 330.301 51.1751H328.333ZM337.843 49.2151H339.355C339.355 48.8791 339.363 48.6044 339.379 48.3911C339.395 48.1777 339.475 47.9457 339.619 47.6951C339.779 47.4124 340.017 47.1591 340.331 46.9351C340.651 46.7057 340.945 46.4471 341.211 46.1591C341.526 45.8284 341.779 45.4577 341.971 45.0471C342.163 44.6364 342.259 44.1937 342.259 43.7191C342.259 43.3351 342.198 42.9671 342.075 42.6151C341.953 42.2631 341.766 41.9484 341.515 41.6711C341.19 41.2924 340.782 41.0204 340.291 40.8551C339.806 40.6844 339.291 40.5991 338.747 40.5991C338.337 40.5991 337.929 40.6631 337.523 40.7911C337.118 40.9137 336.758 41.1084 336.443 41.3751C336.102 41.6471 335.838 41.9937 335.651 42.4151C335.465 42.8364 335.355 43.2764 335.323 43.7351H336.811C336.806 43.4844 336.843 43.2471 336.923 43.0231C337.003 42.7991 337.131 42.6097 337.307 42.4551C337.478 42.2844 337.691 42.1591 337.947 42.0791C338.209 41.9991 338.486 41.9591 338.779 41.9591C339.089 41.9591 339.385 42.0071 339.667 42.1031C339.955 42.1937 340.195 42.3564 340.387 42.5911C340.627 42.8684 340.747 43.2524 340.747 43.7431C340.747 44.0204 340.71 44.2817 340.635 44.5271C340.566 44.7671 340.427 45.0044 340.219 45.2391C339.979 45.4951 339.737 45.7137 339.491 45.8951C339.246 46.0711 339.017 46.2524 338.803 46.4391C338.59 46.6257 338.406 46.8684 338.251 47.1671C338.081 47.4764 337.969 47.7964 337.915 48.1271C337.867 48.4524 337.843 48.8151 337.843 49.2151ZM337.851 52.3511H339.355V50.5991H337.851V52.3511Z" fill="white"/>
</svg>
