<svg width="389" height="88" viewBox="0 0 389 88" fill="none" xmlns="http://www.w3.org/2000/svg">
<path d="M37.8838 0.519531H353.121C372.451 0.519531 388.121 16.1896 388.121 35.5195V74.838V87.0385L367.439 74.838H37.8838C17.3613 74.838 0.724518 58.2013 0.724518 37.6788C0.724518 17.1563 17.3613 0.519531 37.8838 0.519531Z" fill="#8A55F9"/>
<path d="M37.0667 26.3799H38.1527V17.7399H37.0667L35.4407 18.7119V19.9059L37.0667 18.9219V26.3799ZM44.1677 26.3799H45.2477V24.7899H46.1477V23.7759H45.2477V21.3459H44.1677V23.7759H41.4077L44.2577 17.7399H43.0457L40.1957 23.7759V24.7899H44.1677V26.3799ZM48.0641 25.4799H49.2401V24.3039H48.0641V25.4799ZM48.0701 21.9759H49.2461V20.7999H48.0701V21.9759ZM54.2619 26.5599C54.8219 26.5599 55.3219 26.4339 55.7619 26.1819C56.2019 25.9299 56.5479 25.5839 56.7999 25.1439C57.0519 24.7039 57.1779 24.2039 57.1779 23.6439V20.4759C57.1779 19.9159 57.0519 19.4159 56.7999 18.9759C56.5479 18.5359 56.2019 18.1899 55.7619 17.9379C55.3219 17.6859 54.8219 17.5599 54.2619 17.5599C53.7019 17.5599 53.2019 17.6859 52.7619 17.9379C52.3219 18.1899 51.9759 18.5359 51.7239 18.9759C51.4719 19.4159 51.3459 19.9159 51.3459 20.4759V23.6439C51.3459 24.2039 51.4719 24.7039 51.7239 25.1439C51.9759 25.5839 52.3219 25.9299 52.7619 26.1819C53.2019 26.4339 53.7019 26.5599 54.2619 26.5599ZM54.2619 25.5339C53.9259 25.5339 53.6179 25.4519 53.3379 25.2879C53.0619 25.1239 52.8419 24.9039 52.6779 24.6279C52.5139 24.3479 52.4319 24.0399 52.4319 23.7039V20.4099C52.4319 20.0699 52.5139 19.7619 52.6779 19.4859C52.8419 19.2099 53.0619 18.9899 53.3379 18.8259C53.6179 18.6619 53.9259 18.5799 54.2619 18.5799C54.6019 18.5799 54.9099 18.6619 55.1859 18.8259C55.4619 18.9899 55.6819 19.2099 55.8459 19.4859C56.0099 19.7619 56.0919 20.0699 56.0919 20.4099V23.7039C56.0919 24.0399 56.0099 24.3479 55.8459 24.6279C55.6819 24.9039 55.4619 25.1239 55.1859 25.2879C54.9099 25.4519 54.6019 25.5339 54.2619 25.5339ZM59.3136 26.3799H60.4656L63.5676 18.7659V17.7399H58.4976V18.7659H62.4216L59.3136 26.3799Z" fill="#BDA7FF"/>
<path d="M39.3813 51.6199C40.2346 51.6199 40.984 51.4759 41.6293 51.1879C42.28 50.8999 42.7893 50.4919 43.1573 49.9639C43.5253 49.4305 43.7093 48.8039 43.7093 48.0839C43.7093 47.4012 43.5493 46.8439 43.2293 46.4119C42.9146 45.9745 42.48 45.6625 41.9253 45.4759C42.3306 45.2252 42.6586 44.8705 42.9093 44.4119C43.16 43.9532 43.2853 43.4279 43.2853 42.8359C43.2853 42.1105 43.1066 41.5105 42.7493 41.0359C42.392 40.5612 41.9226 40.2065 41.3413 39.9719C40.7653 39.7372 40.1493 39.6199 39.4933 39.6199C38.6026 39.6199 37.824 39.8145 37.1573 40.2039C36.496 40.5879 35.9786 41.0759 35.6053 41.6679L36.7013 42.6039C36.968 42.1239 37.3306 41.7319 37.7893 41.4279C38.248 41.1239 38.8026 40.9719 39.4533 40.9719C40.1413 40.9719 40.6986 41.1399 41.1253 41.4759C41.5573 41.8119 41.7733 42.2785 41.7733 42.8759C41.7733 43.4572 41.5626 43.9132 41.1413 44.2439C40.72 44.5692 40.152 44.7479 39.4373 44.7799C39.336 44.7852 39.1973 44.7905 39.0213 44.7959C38.8506 44.7959 38.688 44.7959 38.5333 44.7959C38.384 44.7959 38.2853 44.7959 38.2373 44.7959V46.1559C38.2853 46.1559 38.336 46.1559 38.3893 46.1559C38.4426 46.1559 38.552 46.1585 38.7173 46.1639C38.888 46.1692 39.1626 46.1799 39.5413 46.1959C40.0266 46.2119 40.4693 46.2759 40.8693 46.3879C41.2693 46.4945 41.5893 46.6812 41.8293 46.9479C42.0746 47.2092 42.1973 47.5825 42.1973 48.0679C42.1973 48.7079 41.9653 49.2332 41.5013 49.6439C41.0373 50.0545 40.3493 50.2599 39.4373 50.2599C38.5413 50.2599 37.8373 50.0705 37.3253 49.6919C36.8133 49.3132 36.4613 48.8705 36.2693 48.3639L35.0053 49.1479C35.2026 49.5799 35.4906 49.9852 35.8693 50.3639C36.2533 50.7372 36.736 51.0412 37.3173 51.2759C37.904 51.5052 38.592 51.6199 39.3813 51.6199ZM44.7534 53.2999H46.1134V51.3799H52.1934V53.2999H53.5534V50.2039H52.7134V42.7399H46.7614C46.7081 43.9719 46.6468 45.0119 46.5774 45.8599C46.5134 46.7025 46.4201 47.4679 46.2974 48.1559C46.1694 48.8865 45.9988 49.4119 45.7854 49.7319C45.5774 50.0465 45.2334 50.2039 44.7534 50.2039V53.2999ZM46.9454 50.2039C47.1374 50.0172 47.2788 49.7852 47.3694 49.5079C47.4654 49.2305 47.5481 48.8892 47.6174 48.4839C47.6974 48.1052 47.7641 47.6572 47.8174 47.1399C47.8708 46.6172 47.9161 46.0759 47.9534 45.5159C47.9908 44.9505 48.0228 44.4172 48.0494 43.9159H51.2894V50.2039H46.9454ZM55.1511 55.2199H56.5831V50.5799C56.8924 50.9052 57.2577 51.1612 57.6791 51.3479C58.1057 51.5292 58.5884 51.6199 59.1271 51.6199C59.9324 51.6199 60.6231 51.4199 61.1991 51.0199C61.7804 50.6145 62.2257 50.0679 62.5351 49.3799C62.8444 48.6919 62.9991 47.9159 62.9991 47.0519C62.9991 46.1879 62.8444 45.4119 62.5351 44.7239C62.2257 44.0359 61.7804 43.4945 61.1991 43.0999C60.6231 42.6999 59.9351 42.4999 59.1351 42.4999C58.5484 42.4999 58.0284 42.6065 57.5751 42.8199C57.1217 43.0332 56.7377 43.3292 56.4231 43.7079V42.7399H55.1511V55.2199ZM58.9511 50.3159C58.0817 50.3159 57.4417 50.0092 57.0311 49.3959C56.6257 48.7825 56.4231 48.0012 56.4231 47.0519C56.4231 46.0972 56.6257 45.3185 57.0311 44.7159C57.4417 44.1079 58.0684 43.8039 58.9111 43.8039C59.4977 43.8039 59.9804 43.9479 60.3591 44.2359C60.7431 44.5239 61.0257 44.9132 61.2071 45.4039C61.3937 45.8945 61.4871 46.4439 61.4871 47.0519C61.4871 47.6652 61.3937 48.2199 61.2071 48.7159C61.0204 49.2065 60.7404 49.5959 60.3671 49.8839C59.9937 50.1719 59.5217 50.3159 58.9511 50.3159ZM67.2088 51.6199C68.6488 51.6199 69.7155 51.0919 70.4088 50.0359V51.3799H71.6728V46.0359C71.6728 45.6945 71.6568 45.3692 71.6248 45.0599C71.5928 44.7452 71.5155 44.4545 71.3928 44.1879C71.1475 43.6225 70.7421 43.2012 70.1768 42.9239C69.6115 42.6412 68.9395 42.4999 68.1608 42.4999C67.1848 42.4999 66.3955 42.7159 65.7928 43.1479C65.1955 43.5799 64.7955 44.1745 64.5928 44.9319L65.9448 45.3399C66.0995 44.8119 66.3741 44.4279 66.7688 44.1879C67.1635 43.9479 67.6221 43.8279 68.1448 43.8279C68.8915 43.8279 69.4275 43.9959 69.7528 44.3319C70.0835 44.6625 70.2568 45.1719 70.2728 45.8599C69.6328 45.9505 68.9608 46.0465 68.2568 46.1479C67.5581 46.2439 66.9368 46.3639 66.3928 46.5079C65.7368 46.6999 65.2195 47.0012 64.8408 47.4119C64.4621 47.8172 64.2728 48.3612 64.2728 49.0439C64.2728 49.5079 64.3821 49.9345 64.6008 50.3239C64.8248 50.7132 65.1528 51.0279 65.5848 51.2679C66.0221 51.5025 66.5635 51.6199 67.2088 51.6199ZM67.4248 50.4279C66.8115 50.4279 66.3688 50.2865 66.0968 50.0039C65.8248 49.7159 65.6888 49.3932 65.6888 49.0359C65.6888 48.6305 65.8221 48.3212 66.0888 48.1079C66.3608 47.8892 66.6755 47.7239 67.0328 47.6119C67.4541 47.4945 67.9448 47.3959 68.5048 47.3159C69.0648 47.2359 69.6488 47.1559 70.2568 47.0759C70.2568 47.2732 70.2461 47.4972 70.2248 47.7479C70.2088 47.9985 70.1715 48.2279 70.1128 48.4359C70.0115 48.9692 69.7288 49.4359 69.2648 49.8359C68.8061 50.2305 68.1928 50.4279 67.4248 50.4279ZM73.7448 51.3799H77.8408C78.0755 51.3799 78.3181 51.3719 78.5688 51.3559C78.8195 51.3345 79.0488 51.2945 79.2568 51.2359C79.7528 51.0972 80.1421 50.8359 80.4248 50.4519C80.7075 50.0679 80.8488 49.5825 80.8488 48.9959C80.8488 48.5372 80.7608 48.1585 80.5848 47.8599C80.4088 47.5559 80.1715 47.3212 79.8728 47.1559C79.6755 47.0439 79.4861 46.9719 79.3048 46.9399C79.5075 46.8599 79.6915 46.7372 79.8568 46.5719C80.0328 46.4012 80.1715 46.1959 80.2728 45.9559C80.3741 45.7105 80.4248 45.4252 80.4248 45.0999C80.4248 44.5185 80.2728 44.0385 79.9688 43.6599C79.6648 43.2812 79.2835 43.0279 78.8248 42.8999C78.6168 42.8412 78.3848 42.8012 78.1288 42.7799C77.8781 42.7532 77.6435 42.7399 77.4248 42.7399H73.7448V51.3799ZM75.1848 46.4759V43.9159H77.2088C77.2675 43.9159 77.4008 43.9212 77.6088 43.9319C77.8168 43.9425 78.0088 43.9772 78.1848 44.0359C78.4355 44.1212 78.6248 44.2705 78.7528 44.4839C78.8808 44.6919 78.9448 44.9319 78.9448 45.2039C78.9448 45.4545 78.8861 45.6865 78.7688 45.8999C78.6515 46.1079 78.4728 46.2572 78.2328 46.3479C78.1101 46.3959 77.9635 46.4305 77.7928 46.4519C77.6275 46.4679 77.4728 46.4759 77.3288 46.4759H75.1848ZM75.1848 50.2199V47.6519H77.6328C77.7288 47.6519 77.8408 47.6545 77.9688 47.6599C78.1021 47.6652 78.2275 47.6839 78.3448 47.7159C78.6488 47.7692 78.8968 47.9025 79.0888 48.1159C79.2808 48.3292 79.3768 48.6065 79.3768 48.9479C79.3768 49.2039 79.3128 49.4439 79.1848 49.6679C79.0621 49.8865 78.8621 50.0332 78.5848 50.1079C78.4621 50.1452 78.3208 50.1745 78.1608 50.1959C78.0061 50.2119 77.8728 50.2199 77.7608 50.2199H75.1848ZM86.0959 51.6199C86.9866 51.6199 87.7493 51.4065 88.3839 50.9799C89.0186 50.5532 89.4879 49.9372 89.7919 49.1319L88.3519 48.7559C87.9519 49.7639 87.1999 50.2679 86.0959 50.2679C85.2373 50.2679 84.5893 49.9745 84.1519 49.3879C83.7199 48.8012 83.4986 48.0252 83.4879 47.0599C83.4986 46.1212 83.7146 45.3532 84.1359 44.7559C84.5573 44.1532 85.2106 43.8519 86.0959 43.8519C86.6186 43.8519 87.0853 43.9905 87.4959 44.2679C87.9066 44.5452 88.2026 44.9345 88.3839 45.4359L89.7919 45.0119C89.5626 44.2332 89.1173 43.6199 88.4559 43.1719C87.7999 42.7239 87.0186 42.4999 86.1119 42.4999C85.2479 42.4999 84.5066 42.6945 83.8879 43.0839C83.2746 43.4679 82.8053 44.0012 82.4799 44.6839C82.1546 45.3665 81.9866 46.1585 81.9759 47.0599C81.9866 47.9399 82.1519 48.7239 82.4719 49.4119C82.7919 50.0999 83.2559 50.6412 83.8639 51.0359C84.4773 51.4252 85.2213 51.6199 86.0959 51.6199ZM93.5564 51.3799H94.9804V44.0359H97.9884V42.7399H90.5484V44.0359H93.5564V51.3799ZM99.4948 51.3799H103.591C103.825 51.3799 104.068 51.3719 104.319 51.3559C104.569 51.3345 104.799 51.2945 105.007 51.2359C105.503 51.0972 105.892 50.8359 106.175 50.4519C106.457 50.0679 106.599 49.5825 106.599 48.9959C106.599 48.5372 106.511 48.1585 106.335 47.8599C106.159 47.5559 105.921 47.3212 105.623 47.1559C105.425 47.0439 105.236 46.9719 105.055 46.9399C105.257 46.8599 105.441 46.7372 105.607 46.5719C105.783 46.4012 105.921 46.1959 106.023 45.9559C106.124 45.7105 106.175 45.4252 106.175 45.0999C106.175 44.5185 106.023 44.0385 105.719 43.6599C105.415 43.2812 105.033 43.0279 104.575 42.8999C104.367 42.8412 104.135 42.8012 103.879 42.7799C103.628 42.7532 103.393 42.7399 103.175 42.7399H99.4948V51.3799ZM100.935 46.4759V43.9159H102.959C103.017 43.9159 103.151 43.9212 103.359 43.9319C103.567 43.9425 103.759 43.9772 103.935 44.0359C104.185 44.1212 104.375 44.2705 104.503 44.4839C104.631 44.6919 104.695 44.9319 104.695 45.2039C104.695 45.4545 104.636 45.6865 104.519 45.8999C104.401 46.1079 104.223 46.2572 103.983 46.3479C103.86 46.3959 103.713 46.4305 103.543 46.4519C103.377 46.4679 103.223 46.4759 103.079 46.4759H100.935ZM100.935 50.2199V47.6519H103.383C103.479 47.6519 103.591 47.6545 103.719 47.6599C103.852 47.6652 103.977 47.6839 104.095 47.7159C104.399 47.7692 104.647 47.9025 104.839 48.1159C105.031 48.3292 105.127 48.6065 105.127 48.9479C105.127 49.2039 105.063 49.4439 104.935 49.6679C104.812 49.8865 104.612 50.0332 104.335 50.1079C104.212 50.1452 104.071 50.1745 103.911 50.1959C103.756 50.2119 103.623 50.2199 103.511 50.2199H100.935ZM109.406 55.2199H110.79L115.494 42.7399H114.046L111.518 49.5399L108.822 42.7399H107.326L110.83 51.3479L109.406 55.2199ZM120.535 41.7319C120.941 41.7319 121.306 41.6332 121.631 41.4359C121.962 41.2385 122.226 40.9745 122.423 40.6439C122.621 40.3132 122.719 39.9479 122.719 39.5479H121.567C121.567 39.8305 121.466 40.0732 121.263 40.2759C121.066 40.4785 120.823 40.5799 120.535 40.5799C120.253 40.5799 120.01 40.4785 119.807 40.2759C119.605 40.0732 119.503 39.8305 119.503 39.5479H118.351C118.351 39.9479 118.45 40.3132 118.647 40.6439C118.845 40.9745 119.109 41.2385 119.439 41.4359C119.77 41.6332 120.135 41.7319 120.535 41.7319ZM123.887 42.7399H122.719L118.183 49.0199V42.7399H116.807V51.3799H117.983L122.511 45.0119V51.3799H123.887V42.7399ZM128.416 51.3799H129.84V44.0359H132.848V42.7399H125.408V44.0359H128.416V51.3799ZM138.106 51.6199C138.944 51.6199 139.698 51.4119 140.37 50.9959C141.042 50.5745 141.549 49.9825 141.89 49.2199L140.522 48.7479C140.026 49.7612 139.2 50.2679 138.042 50.2679C137.248 50.2679 136.624 50.0252 136.17 49.5399C135.722 49.0492 135.469 48.3559 135.41 47.4599H142.034C142.077 46.4359 141.944 45.5532 141.634 44.8119C141.33 44.0705 140.872 43.4999 140.258 43.0999C139.65 42.6999 138.912 42.4999 138.042 42.4999C137.205 42.4999 136.474 42.6892 135.85 43.0679C135.226 43.4412 134.741 43.9745 134.394 44.6679C134.053 45.3559 133.882 46.1719 133.882 47.1159C133.882 48.0172 134.056 48.8065 134.402 49.4839C134.754 50.1559 135.248 50.6812 135.882 51.0599C136.517 51.4332 137.258 51.6199 138.106 51.6199ZM138.09 43.7799C139.557 43.7799 140.378 44.6252 140.554 46.3159H135.434C135.536 45.4945 135.81 44.8679 136.258 44.4359C136.706 43.9985 137.317 43.7799 138.09 43.7799ZM144.615 48.4999H146.039V39.8599H144.615V48.4999ZM144.615 51.3799H146.039V49.9079H144.615V51.3799Z" fill="white"/>
<path d="M176.143 51.3799H177.575V39.8599H176.143V45.2839C175.882 45.4865 175.533 45.6679 175.095 45.8279C174.658 45.9825 174.151 46.0599 173.575 46.0599C172.818 46.0599 172.234 45.9105 171.823 45.6119C171.418 45.3079 171.138 44.8945 170.983 44.3719C170.829 43.8492 170.751 43.2625 170.751 42.6119V39.8599H169.311V43.0839C169.311 43.9319 169.442 44.6839 169.703 45.3399C169.965 45.9959 170.391 46.5105 170.983 46.8839C171.581 47.2519 172.373 47.4359 173.359 47.4359C173.914 47.4359 174.429 47.3772 174.903 47.2599C175.383 47.1425 175.797 46.9852 176.143 46.7879V51.3799ZM183.555 51.6199C184.393 51.6199 185.147 51.4119 185.819 50.9959C186.491 50.5745 186.998 49.9825 187.339 49.2199L185.971 48.7479C185.475 49.7612 184.649 50.2679 183.491 50.2679C182.697 50.2679 182.073 50.0252 181.619 49.5399C181.171 49.0492 180.918 48.3559 180.859 47.4599H187.483C187.526 46.4359 187.393 45.5532 187.083 44.8119C186.779 44.0705 186.321 43.4999 185.707 43.0999C185.099 42.6999 184.361 42.4999 183.491 42.4999C182.654 42.4999 181.923 42.6892 181.299 43.0679C180.675 43.4412 180.19 43.9745 179.843 44.6679C179.502 45.3559 179.331 46.1719 179.331 47.1159C179.331 48.0172 179.505 48.8065 179.851 49.4839C180.203 50.1559 180.697 50.6812 181.331 51.0599C181.966 51.4332 182.707 51.6199 183.555 51.6199ZM183.539 43.7799C185.006 43.7799 185.827 44.6252 186.003 46.3159H180.883C180.985 45.4945 181.259 44.8679 181.707 44.4359C182.155 43.9985 182.766 43.7799 183.539 43.7799ZM189.022 51.3799H190.398V45.7079L193.15 51.3799H193.902L196.654 45.7079V51.3799H198.03V42.7399H196.806L193.526 49.4439L190.246 42.7399H189.022V51.3799ZM202.988 51.3799H204.524L206.572 48.2439C206.694 48.2492 206.817 48.2519 206.94 48.2519H208.804V51.3799H210.236L210.228 42.7399H206.86C206.662 42.7399 206.428 42.7452 206.156 42.7559C205.884 42.7665 205.614 42.8012 205.348 42.8599C204.75 42.9932 204.252 43.2865 203.852 43.7399C203.452 44.1879 203.252 44.7825 203.252 45.5239C203.252 46.2225 203.43 46.7825 203.788 47.2039C204.15 47.6199 204.604 47.9079 205.148 48.0679L202.988 51.3799ZM206.836 47.0759C206.708 47.0759 206.556 47.0705 206.38 47.0599C206.209 47.0492 206.038 47.0225 205.868 46.9799C205.542 46.8945 205.268 46.7292 205.044 46.4839C204.825 46.2332 204.716 45.9079 204.716 45.5079C204.716 45.0919 204.828 44.7612 205.052 44.5159C205.281 44.2652 205.524 44.1025 205.78 44.0279C205.961 43.9745 206.15 43.9425 206.348 43.9319C206.55 43.9212 206.713 43.9159 206.836 43.9159H208.804V47.0759H206.836ZM215.678 51.3799H217.054V45.7079L219.806 51.3799H220.558L223.31 45.7079V51.3799H224.686V42.7399H223.462L220.182 49.4439L216.902 42.7399H215.678V51.3799ZM230.601 51.6199C231.459 51.6199 232.198 51.4279 232.817 51.0439C233.441 50.6599 233.921 50.1239 234.257 49.4359C234.598 48.7479 234.769 47.9532 234.769 47.0519C234.769 46.1612 234.601 45.3745 234.265 44.6919C233.934 44.0039 233.457 43.4679 232.833 43.0839C232.209 42.6945 231.465 42.4999 230.601 42.4999C229.758 42.4999 229.025 42.6919 228.401 43.0759C227.777 43.4545 227.294 43.9852 226.953 44.6679C226.611 45.3505 226.441 46.1452 226.441 47.0519C226.441 47.9425 226.606 48.7319 226.937 49.4199C227.273 50.1079 227.753 50.6465 228.377 51.0359C229.001 51.4252 229.742 51.6199 230.601 51.6199ZM230.601 50.2679C229.731 50.2679 229.073 49.9772 228.625 49.3959C228.177 48.8092 227.953 48.0279 227.953 47.0519C227.953 46.1079 228.169 45.3399 228.601 44.7479C229.033 44.1505 229.699 43.8519 230.601 43.8519C231.486 43.8519 232.15 44.1425 232.593 44.7239C233.035 45.3052 233.257 46.0812 233.257 47.0519C233.257 48.0012 233.035 48.7745 232.593 49.3719C232.155 49.9692 231.491 50.2679 230.601 50.2679ZM236.53 51.3799H237.954V44.0919H242.53V42.7399H236.53V51.3799ZM245.09 55.2199H246.474L251.178 42.7399H249.73L247.202 49.5399L244.506 42.7399H243.01L246.514 51.3479L245.09 55.2199ZM255.694 51.3799H259.79C260.025 51.3799 260.267 51.3719 260.518 51.3559C260.769 51.3345 260.998 51.2945 261.206 51.2359C261.702 51.0972 262.091 50.8359 262.374 50.4519C262.657 50.0679 262.798 49.5825 262.798 48.9959C262.798 48.5372 262.71 48.1585 262.534 47.8599C262.358 47.5559 262.121 47.3212 261.822 47.1559C261.625 47.0439 261.435 46.9719 261.254 46.9399C261.457 46.8599 261.641 46.7372 261.806 46.5719C261.982 46.4012 262.121 46.1959 262.222 45.9559C262.323 45.7105 262.374 45.4252 262.374 45.0999C262.374 44.5185 262.222 44.0385 261.918 43.6599C261.614 43.2812 261.233 43.0279 260.774 42.8999C260.566 42.8412 260.334 42.8012 260.078 42.7799C259.827 42.7532 259.593 42.7399 259.374 42.7399H255.694V51.3799ZM257.134 46.4759V43.9159H259.158C259.217 43.9159 259.35 43.9212 259.558 43.9319C259.766 43.9425 259.958 43.9772 260.134 44.0359C260.385 44.1212 260.574 44.2705 260.702 44.4839C260.83 44.6919 260.894 44.9319 260.894 45.2039C260.894 45.4545 260.835 45.6865 260.718 45.8999C260.601 46.1079 260.422 46.2572 260.182 46.3479C260.059 46.3959 259.913 46.4305 259.742 46.4519C259.577 46.4679 259.422 46.4759 259.278 46.4759H257.134ZM257.134 50.2199V47.6519H259.582C259.678 47.6519 259.79 47.6545 259.918 47.6599C260.051 47.6652 260.177 47.6839 260.294 47.7159C260.598 47.7692 260.846 47.9025 261.038 48.1159C261.23 48.3292 261.326 48.6065 261.326 48.9479C261.326 49.2039 261.262 49.4439 261.134 49.6679C261.011 49.8865 260.811 50.0332 260.534 50.1079C260.411 50.1452 260.27 50.1745 260.11 50.1959C259.955 50.2119 259.822 50.2199 259.71 50.2199H257.134ZM266.861 51.6199C268.301 51.6199 269.368 51.0919 270.061 50.0359V51.3799H271.325V46.0359C271.325 45.6945 271.309 45.3692 271.277 45.0599C271.245 44.7452 271.168 44.4545 271.045 44.1879C270.8 43.6225 270.394 43.2012 269.829 42.9239C269.264 42.6412 268.592 42.4999 267.813 42.4999C266.837 42.4999 266.048 42.7159 265.445 43.1479C264.848 43.5799 264.448 44.1745 264.245 44.9319L265.597 45.3399C265.752 44.8119 266.026 44.4279 266.421 44.1879C266.816 43.9479 267.274 43.8279 267.797 43.8279C268.544 43.8279 269.08 43.9959 269.405 44.3319C269.736 44.6625 269.909 45.1719 269.925 45.8599C269.285 45.9505 268.613 46.0465 267.909 46.1479C267.21 46.2439 266.589 46.3639 266.045 46.5079C265.389 46.6999 264.872 47.0012 264.493 47.4119C264.114 47.8172 263.925 48.3612 263.925 49.0439C263.925 49.5079 264.034 49.9345 264.253 50.3239C264.477 50.7132 264.805 51.0279 265.237 51.2679C265.674 51.5025 266.216 51.6199 266.861 51.6199ZM267.077 50.4279C266.464 50.4279 266.021 50.2865 265.749 50.0039C265.477 49.7159 265.341 49.3932 265.341 49.0359C265.341 48.6305 265.474 48.3212 265.741 48.1079C266.013 47.8892 266.328 47.7239 266.685 47.6119C267.106 47.4945 267.597 47.3959 268.157 47.3159C268.717 47.2359 269.301 47.1559 269.909 47.0759C269.909 47.2732 269.898 47.4972 269.877 47.7479C269.861 47.9985 269.824 48.2279 269.765 48.4359C269.664 48.9692 269.381 49.4359 268.917 49.8359C268.458 50.2305 267.845 50.4279 267.077 50.4279ZM273.397 51.3799H274.773V45.7079L277.525 51.3799H278.277L281.029 45.7079V51.3799H282.405V42.7399H281.181L277.901 49.4439L274.621 42.7399H273.397V51.3799ZM287.835 51.3799H289.259V44.0919H293.491V51.3799H294.915V42.7399H287.835V51.3799ZM300.835 51.6199C301.694 51.6199 302.432 51.4279 303.051 51.0439C303.675 50.6599 304.155 50.1239 304.491 49.4359C304.832 48.7479 305.003 47.9532 305.003 47.0519C305.003 46.1612 304.835 45.3745 304.499 44.6919C304.168 44.0039 303.691 43.4679 303.067 43.0839C302.443 42.6945 301.699 42.4999 300.835 42.4999C299.992 42.4999 299.259 42.6919 298.635 43.0759C298.011 43.4545 297.528 43.9852 297.187 44.6679C296.846 45.3505 296.675 46.1452 296.675 47.0519C296.675 47.9425 296.84 48.7319 297.171 49.4199C297.507 50.1079 297.987 50.6465 298.611 51.0359C299.235 51.4252 299.976 51.6199 300.835 51.6199ZM300.835 50.2679C299.966 50.2679 299.307 49.9772 298.859 49.3959C298.411 48.8092 298.187 48.0279 298.187 47.0519C298.187 46.1079 298.403 45.3399 298.835 44.7479C299.267 44.1505 299.934 43.8519 300.835 43.8519C301.72 43.8519 302.384 44.1425 302.827 44.7239C303.27 45.3052 303.491 46.0812 303.491 47.0519C303.491 48.0012 303.27 48.7745 302.827 49.3719C302.39 49.9692 301.726 50.2679 300.835 50.2679ZM306.757 51.3799H308.133V45.7079L310.885 51.3799H311.637L314.389 45.7079V51.3799H315.765V42.7399H314.541L311.261 49.4439L307.981 42.7399H306.757V51.3799ZM321.679 51.6199C322.538 51.6199 323.276 51.4279 323.895 51.0439C324.519 50.6599 324.999 50.1239 325.335 49.4359C325.676 48.7479 325.847 47.9532 325.847 47.0519C325.847 46.1612 325.679 45.3745 325.343 44.6919C325.012 44.0039 324.535 43.4679 323.911 43.0839C323.287 42.6945 322.543 42.4999 321.679 42.4999C320.836 42.4999 320.103 42.6919 319.479 43.0759C318.855 43.4545 318.372 43.9852 318.031 44.6679C317.69 45.3505 317.519 46.1452 317.519 47.0519C317.519 47.9425 317.684 48.7319 318.015 49.4199C318.351 50.1079 318.831 50.6465 319.455 51.0359C320.079 51.4252 320.82 51.6199 321.679 51.6199ZM321.679 50.2679C320.81 50.2679 320.151 49.9772 319.703 49.3959C319.255 48.8092 319.031 48.0279 319.031 47.0519C319.031 46.1079 319.247 45.3399 319.679 44.7479C320.111 44.1505 320.778 43.8519 321.679 43.8519C322.564 43.8519 323.228 44.1425 323.671 44.7239C324.114 45.3052 324.335 46.0812 324.335 47.0519C324.335 48.0012 324.114 48.7745 323.671 49.3719C323.234 49.9692 322.57 50.2679 321.679 50.2679ZM332.808 51.3799H334.24V42.7399H332.808V46.9479C332.563 47.1239 332.264 47.2652 331.912 47.3719C331.56 47.4785 331.179 47.5319 330.768 47.5319C330.15 47.5319 329.67 47.4012 329.328 47.1399C328.992 46.8732 328.771 46.4732 328.664 45.9399C328.622 45.7265 328.595 45.5079 328.584 45.2839C328.574 45.0599 328.568 44.8679 328.568 44.7079V42.7399H327.128V44.7079C327.128 44.8412 327.134 45.0892 327.144 45.4519C327.16 45.8145 327.203 46.1612 327.272 46.4919C327.432 47.2332 327.782 47.8012 328.32 48.1959C328.864 48.5905 329.576 48.7879 330.456 48.7879C330.915 48.7879 331.347 48.7399 331.752 48.6439C332.163 48.5425 332.515 48.4172 332.808 48.2679V51.3799ZM336.483 51.3799H339.851C340.097 51.3799 340.355 51.3745 340.627 51.3639C340.905 51.3479 341.15 51.3159 341.363 51.2679C341.987 51.1292 342.491 50.8412 342.875 50.4039C343.265 49.9665 343.459 49.3745 343.459 48.6279C343.459 47.8172 343.251 47.2039 342.835 46.7879C342.425 46.3665 341.886 46.0892 341.219 45.9559C341.022 45.9185 340.793 45.8945 340.531 45.8839C340.275 45.8732 340.022 45.8679 339.771 45.8679H337.907V42.7399H336.475L336.483 51.3799ZM337.907 50.2039V47.0439H339.875C340.03 47.0439 340.193 47.0492 340.363 47.0599C340.534 47.0705 340.697 47.0945 340.851 47.1319C341.187 47.2065 341.462 47.3639 341.675 47.6039C341.889 47.8439 341.995 48.1852 341.995 48.6279C341.995 49.0652 341.886 49.4039 341.667 49.6439C341.449 49.8785 341.206 50.0332 340.939 50.1079C340.779 50.1505 340.601 50.1772 340.403 50.1879C340.206 50.1985 340.03 50.2039 339.875 50.2039H337.907ZM347.418 48.2439H348.93C348.93 47.9079 348.938 47.6332 348.954 47.4199C348.97 47.2065 349.05 46.9745 349.194 46.7239C349.354 46.4412 349.591 46.1879 349.906 45.9639C350.226 45.7345 350.519 45.4759 350.786 45.1879C351.1 44.8572 351.354 44.4865 351.546 44.0759C351.738 43.6652 351.834 43.2225 351.834 42.7479C351.834 42.3639 351.772 41.9959 351.65 41.6439C351.527 41.2919 351.34 40.9772 351.09 40.6999C350.764 40.3212 350.356 40.0492 349.866 39.8839C349.38 39.7132 348.866 39.6279 348.322 39.6279C347.911 39.6279 347.503 39.6919 347.098 39.8199C346.692 39.9425 346.332 40.1372 346.018 40.4039C345.676 40.6759 345.412 41.0225 345.226 41.4439C345.039 41.8652 344.93 42.3052 344.898 42.7639H346.386C346.38 42.5132 346.418 42.2759 346.498 42.0519C346.578 41.8279 346.706 41.6385 346.882 41.4839C347.052 41.3132 347.266 41.1879 347.522 41.1079C347.783 41.0279 348.06 40.9879 348.354 40.9879C348.663 40.9879 348.959 41.0359 349.242 41.1319C349.53 41.2225 349.77 41.3852 349.962 41.6199C350.202 41.8972 350.322 42.2812 350.322 42.7719C350.322 43.0492 350.284 43.3105 350.21 43.5559C350.14 43.7959 350.002 44.0332 349.794 44.2679C349.554 44.5239 349.311 44.7425 349.066 44.9239C348.82 45.0999 348.591 45.2812 348.378 45.4679C348.164 45.6545 347.98 45.8972 347.826 46.1959C347.655 46.5052 347.543 46.8252 347.49 47.1559C347.442 47.4812 347.418 47.8439 347.418 48.2439ZM347.426 51.3799H348.93V49.6279H347.426V51.3799Z" fill="white"/>
<path d="M155.037 49.011C155.026 49.011 155.014 49.009 155.002 49.006C153.805 48.641 152.508 47.332 152.226 46.205C152.21 46.1414 152.249 46.0777 152.312 46.0618C152.375 46.0459 152.439 46.0847 152.455 46.1473C152.715 47.1868 153.962 48.4411 155.071 48.7802C155.134 48.7991 155.168 48.8648 155.15 48.9274C155.135 48.9782 155.088 49.011 155.037 49.011Z" fill="#975500"/>
<path d="M155.609 50.496C155.6 50.496 155.591 50.495 155.582 50.493C154.591 50.2622 153.44 49.5222 152.423 48.4619C151.472 47.4712 150.856 46.4168 150.817 45.7106C150.813 45.646 150.862 45.5893 150.928 45.5863C150.993 45.5823 151.049 45.632 151.052 45.6977C151.088 46.3402 151.693 47.3608 152.593 48.2987C153.579 49.3272 154.688 50.0424 155.636 50.2632C155.699 50.2781 155.739 50.3418 155.724 50.4055C155.711 50.4592 155.663 50.496 155.609 50.496Z" fill="#975500"/>
<path d="M160.686 40.1602C160.634 40.1602 160.586 40.1254 160.572 40.0727C160.406 39.4421 159.651 38.5369 158.964 38.3599C158.901 38.344 158.862 38.2793 158.879 38.2157C158.896 38.152 158.96 38.1142 159.023 38.1311C159.797 38.331 160.615 39.3068 160.801 40.013C160.818 40.0757 160.78 40.1403 160.716 40.1573C160.706 40.1592 160.696 40.1602 160.686 40.1602Z" fill="#975500"/>
<path d="M162.176 40.37C162.123 40.37 162.076 40.3342 162.062 40.2815C161.619 38.5388 159.964 37.1791 159.019 37.01C158.954 36.9981 158.913 36.9374 158.924 36.8727C158.936 36.8081 158.996 36.7663 159.061 36.7773C160.09 36.9623 161.817 38.3637 162.291 40.2228C162.306 40.2864 162.269 40.3501 162.205 40.366C162.195 40.369 162.186 40.37 162.176 40.37Z" fill="#975500"/>
<path d="M159.237 43.4667C159.427 43.6765 159.598 43.9521 159.526 44.0247C159.453 44.0973 159.23 43.966 159.06 43.7949C158.89 43.6248 158.483 45.4351 158.443 45.5266C158.414 45.5953 157.94 46.1384 157.692 46.6546C157.61 46.8267 157.622 47.3459 157.591 47.3767C157.467 47.501 157.309 47.4881 156.967 47.1867C156.626 46.8853 156.449 48.6807 156.856 48.9642C157.551 49.4496 158.942 51.3783 160.779 51.3783C162.905 51.3783 164.873 49.1612 164.873 47.5339C164.873 45.9066 164.396 45.2899 164.427 43.9262C164.453 42.7714 165.294 42.2203 165.294 41.6434C165.294 41.158 164.573 41.0397 164.336 41.0397C163.916 41.0397 162.84 41.5778 162.84 42.9942C162.84 43.5452 162.683 44.0436 162.119 44.0436C161.555 44.0436 160.925 43.2697 160.544 42.666" fill="url(#paint0_linear)"/>
<path d="M165.293 41.6436C165.293 41.38 165.079 41.2249 164.846 41.1373C165.126 42.0634 163.708 42.1032 163.708 45.2582C163.708 48.4133 161.871 49.3314 161.11 49.4896C160.349 49.6467 159.009 49.6925 157.988 48.4402C157.675 48.0553 157.25 47.6375 156.777 47.2426C156.578 47.5758 156.535 48.7406 156.856 48.9644C157.551 49.4498 158.942 51.3784 160.779 51.3784C162.905 51.3784 164.873 49.1613 164.873 47.534C164.873 45.9068 164.396 45.2901 164.427 43.9264C164.453 42.7716 165.293 42.2205 165.293 41.6436Z" fill="url(#paint1_linear)"/>
<path d="M156.967 47.1867C156.626 46.8853 155.819 46.0259 155.294 45.6051C154.769 45.1854 154.31 45.1904 153.995 45.6539C153.68 46.1174 154.599 46.931 154.809 47.1409C155.13 47.4622 156.449 48.6807 156.856 48.9651" fill="url(#paint2_linear)"/>
<path d="M158.441 45.5268C158.401 45.6183 158.133 45.6819 157.601 45.103C157.194 44.6604 156.105 43.3882 155.462 42.8113C154.82 42.2344 154.321 41.9977 153.901 42.3001C153.481 42.6024 153.72 43.2311 154.189 43.7563C154.77 44.4058 155.439 45.0682 156.078 45.7048C156.579 46.2021 157.711 47.2535 157.587 47.3778" fill="url(#paint3_linear)"/>
<path d="M156.083 45.7035C156.555 46.173 157.59 47.1348 157.601 47.3467C157.75 47.1139 157.477 46.4216 157.189 46.1789C155.522 44.7755 153.912 42.5126 153.707 42.5802C153.619 42.9095 153.841 43.361 154.193 43.7559C154.774 44.4044 155.442 45.0679 156.083 45.7035Z" fill="url(#paint4_linear)"/>
<path d="M160.543 42.6668C160.162 42.063 158.601 40.1214 158.221 39.5704C157.84 39.0193 157.328 39.0193 156.974 39.269C156.62 39.5187 156.515 40.017 157.313 41.0763C157.816 41.7447 158.234 42.3594 159.238 43.4675L160.406 43.3859L160.543 42.6668Z" fill="url(#paint5_linear)"/>
<path d="M159.059 43.7949C158.889 43.6248 157.38 41.8364 157.039 41.4525C156.399 40.7343 155.589 39.1956 154.622 39.8809C154.114 40.241 154.389 40.7632 154.533 40.973C154.678 41.1829 156.553 43.3483 156.737 43.5313C156.921 43.7153 158.482 45.4341 158.443 45.5256" fill="url(#paint6_linear)"/>
<path d="M159.237 43.4665C159.42 43.6685 159.584 43.9301 159.533 44.0146C160.141 43.5252 158.854 42.0869 158.125 41.2236C157.561 40.5551 157.407 39.7047 157.003 39.2491C156.993 39.2551 156.984 39.2621 156.974 39.268C156.62 39.5177 156.515 40.016 157.313 41.0754C157.815 41.7438 158.234 42.3595 159.237 43.4665Z" fill="url(#paint7_linear)"/>
<path d="M156.738 43.5321C156.922 43.7161 158.483 45.4349 158.444 45.5264C158.927 44.8769 157.057 42.9681 156.151 42.0033C155.367 41.1668 155.232 40.4347 154.466 40.0239C154.182 40.3681 154.408 40.7898 154.534 40.9738C154.678 41.1837 156.555 43.3491 156.738 43.5321Z" fill="url(#paint8_linear)"/>
<path d="M158.409 45.5651C158.354 45.5989 158.242 45.6019 158.068 45.5015C158.197 45.6059 158.317 45.6457 158.409 45.5651Z" fill="url(#paint9_linear)"/>
<path d="M164.445 41.2366C164.846 41.165 164.917 41.2108 164.845 41.1372C164.65 41.0645 164.441 41.0397 164.334 41.0397C163.914 41.0397 162.838 41.5778 162.838 42.9942C162.838 43.5452 162.681 44.0436 162.116 44.0436C161.893 44.0436 161.661 43.9232 161.438 43.7402C162.428 44.8373 163.205 43.8039 163.323 43.0957C163.442 42.3875 163.27 41.4475 164.445 41.2366Z" fill="url(#paint10_radial)"/>
<path d="M156.853 39.3756C156.608 39.6531 156.616 40.1505 157.311 41.0755C157.815 41.7439 158.232 42.3586 159.237 43.4667C159.427 43.6766 159.598 43.9521 159.526 44.0247C159.694 42.8768 158.059 41.7479 157.528 40.8825C157.107 40.1962 157.024 39.7914 156.853 39.3756Z" fill="url(#paint11_linear)"/>
<path d="M156.738 43.5323C156.922 43.7163 158.483 45.4351 158.444 45.5266C158.788 45.2809 158.554 44.898 158.022 44.3658C156.93 43.2747 155.412 41.8085 154.801 40.601C154.743 40.4866 154.636 40.4021 154.509 40.3862C154.18 40.3434 154.425 40.8139 154.535 40.974C154.678 41.1839 156.555 43.3493 156.738 43.5323Z" fill="url(#paint12_linear)"/>
<path d="M154.19 43.7559C154.771 44.4054 155.439 45.0679 156.079 45.7044C156.579 46.2018 157.712 47.2531 157.588 47.3775C158.29 46.7866 155.028 44.6511 153.702 42.5812C153.616 42.9084 153.838 43.361 154.19 43.7559Z" fill="url(#paint13_linear)"/>
<path d="M157.445 47.4951C157.511 47.4693 157.546 47.4384 157.557 47.4046C157.437 47.4971 157.278 47.4643 156.965 47.1868C156.624 46.8854 155.817 46.026 155.292 45.6053C155.061 45.4213 154.843 45.3188 154.645 45.3009C154.929 45.4789 154.797 45.5426 155.429 46.028C155.77 46.2886 157.011 47.6652 157.445 47.4951Z" fill="url(#paint14_linear)"/>
<path d="M156.619 44.3461C157.08 44.9071 157.979 45.8331 158.383 45.5775C158.271 45.6153 158.018 45.5536 157.604 45.103C157.197 44.6604 156.108 43.3882 155.465 42.8113C154.945 42.3438 154.518 42.1001 154.152 42.1847C155.218 42.5348 156.182 43.8159 156.619 44.3461Z" fill="url(#paint15_linear)"/>
<path d="M157.118 41.9322C157.853 42.7319 158.944 44.3184 159.497 44.0409C159.407 44.0687 159.212 43.9484 159.06 43.7952C158.889 43.6251 157.381 41.8367 157.039 41.4527C156.596 40.9554 156.072 40.0642 155.469 39.7916C156.076 40.2711 156.522 41.2846 157.118 41.9322Z" fill="url(#paint16_linear)"/>
<path d="M161.437 43.7413C161.438 43.7413 161.438 43.7413 161.437 43.7413C161.094 43.4608 160.772 43.0321 160.541 42.667C160.161 42.0632 158.6 40.1217 158.22 39.5706C158.103 39.4025 157.976 39.2861 157.844 39.2125C158.021 39.4672 158.121 39.8302 158.522 40.2798C159.165 41.0009 160.005 42.3 160.294 42.7466C160.581 43.1912 161.047 44.1322 161.437 43.7413Z" fill="url(#paint17_linear)"/>
<path d="M163.543 50.1447C163.304 49.5639 162.955 49.2097 162.45 49.542C161.075 50.4481 159.492 50.1418 157.508 48.5383C155.738 47.107 154.823 46.0845 153.962 45.7145C153.755 46.185 154.606 46.9399 154.807 47.1408C155.129 47.4621 156.448 48.6806 156.854 48.9651C157.55 49.4505 158.94 51.3791 160.777 51.3791C161.805 51.3781 162.794 50.8619 163.543 50.1447Z" fill="url(#paint18_linear)"/>
<path d="M164.424 43.9261C164.45 42.7713 165.291 42.2203 165.291 41.6434C165.291 41.4733 165.202 41.3489 165.077 41.2584C165.23 41.708 164.865 42.1069 164.32 42.7852C163.729 43.5203 163.599 44.6612 164.004 45.8031C164.411 46.945 163.899 48.5195 163.072 49.0178C162.246 49.5162 161.148 51.7074 158.004 49.2317C158.003 49.2307 158.003 49.2307 158.002 49.2297C157.81 49.0517 157.62 48.8935 157.428 48.7741C156.1 47.9516 155.343 47.2115 154.771 46.5899C154.659 46.4675 154.356 45.999 153.996 46.1532C154.176 46.561 154.661 46.9957 154.806 47.1409C155.127 47.4622 156.446 48.6806 156.853 48.9651C156.906 49.0019 156.963 49.0477 157.024 49.1004C157.04 49.1143 157.056 49.1283 157.072 49.1422C157.076 49.1462 157.081 49.1501 157.085 49.1531C157.094 49.1621 157.105 49.172 157.115 49.181C157.117 49.183 157.12 49.1849 157.122 49.1879C157.535 49.5629 158.103 50.1836 158.799 50.668C158.799 50.668 158.8 50.668 158.8 50.669C158.861 50.7118 158.924 50.7535 158.986 50.7933C158.987 50.7943 158.988 50.7943 158.989 50.7953C159.052 50.8351 159.116 50.8739 159.179 50.9107C159.18 50.9107 159.18 50.9117 159.181 50.9117C159.663 51.1882 160.197 51.3792 160.774 51.3792C162.899 51.3792 164.868 49.1621 164.868 47.5348C164.868 45.9075 164.393 45.2908 164.424 43.9261Z" fill="url(#paint19_radial)"/>
<defs>
<linearGradient id="paint0_linear" x1="163.84" y1="51.7992" x2="162.088" y2="47.6956" gradientUnits="userSpaceOnUse">
<stop offset="0.00132565" stop-color="#FFCB4B"/>
<stop offset="1" stop-color="#FFD748"/>
</linearGradient>
<linearGradient id="paint1_linear" x1="164.188" y1="48.9453" x2="160.515" y2="44.563" gradientUnits="userSpaceOnUse">
<stop offset="0.00132565" stop-color="#FFCB4B"/>
<stop offset="1" stop-color="#FFD748"/>
</linearGradient>
<linearGradient id="paint2_linear" x1="154.368" y1="46.0274" x2="156.533" y2="47.6216" gradientUnits="userSpaceOnUse">
<stop offset="0.00132565" stop-color="#FFCB4B"/>
<stop offset="1" stop-color="#FFD748"/>
</linearGradient>
<linearGradient id="paint3_linear" x1="153.577" y1="41.8083" x2="157.376" y2="45.7838" gradientUnits="userSpaceOnUse">
<stop offset="0.00132565" stop-color="#FFCB4B"/>
<stop offset="1" stop-color="#FFD748"/>
</linearGradient>
<linearGradient id="paint4_linear" x1="156.497" y1="44.1687" x2="155.241" y2="45.3516" gradientUnits="userSpaceOnUse">
<stop stop-color="#FFBC47" stop-opacity="0"/>
<stop offset="1" stop-color="#FFA754"/>
</linearGradient>
<linearGradient id="paint5_linear" x1="157.683" y1="39.9323" x2="159.887" y2="43.3962" gradientUnits="userSpaceOnUse">
<stop offset="0.00132565" stop-color="#FFCB4B"/>
<stop offset="1" stop-color="#FFD748"/>
</linearGradient>
<linearGradient id="paint6_linear" x1="155.407" y1="40.5079" x2="158.398" y2="44.5491" gradientUnits="userSpaceOnUse">
<stop offset="0.00132565" stop-color="#FFCB4B"/>
<stop offset="1" stop-color="#FFD748"/>
</linearGradient>
<linearGradient id="paint7_linear" x1="158.966" y1="40.9954" x2="157.076" y2="42.7011" gradientUnits="userSpaceOnUse">
<stop stop-color="#FFBC47" stop-opacity="0"/>
<stop offset="1" stop-color="#FFA754"/>
</linearGradient>
<linearGradient id="paint8_linear" x1="157.228" y1="42.2106" x2="154.63" y2="44.1098" gradientUnits="userSpaceOnUse">
<stop stop-color="#FFBC47" stop-opacity="0"/>
<stop offset="1" stop-color="#FFA754"/>
</linearGradient>
<linearGradient id="paint9_linear" x1="159.163" y1="44.8576" x2="156.565" y2="46.7568" gradientUnits="userSpaceOnUse">
<stop stop-color="#FFBC47" stop-opacity="0"/>
<stop offset="1" stop-color="#FFA754"/>
</linearGradient>
<radialGradient id="paint10_radial" cx="0" cy="0" r="1" gradientUnits="userSpaceOnUse" gradientTransform="translate(162.571 41.7746) scale(3.11883)">
<stop stop-color="#FFBC47" stop-opacity="0"/>
<stop offset="1" stop-color="#FFA754"/>
</radialGradient>
<linearGradient id="paint11_linear" x1="159.311" y1="40.6606" x2="157.697" y2="42.1563" gradientUnits="userSpaceOnUse">
<stop offset="0.3118" stop-color="#FFBC47" stop-opacity="0"/>
<stop offset="1" stop-color="#FF8900"/>
</linearGradient>
<linearGradient id="paint12_linear" x1="158.076" y1="41.4713" x2="155.951" y2="43.3869" gradientUnits="userSpaceOnUse">
<stop offset="0.3118" stop-color="#FFBC47" stop-opacity="0"/>
<stop offset="1" stop-color="#FF8900"/>
</linearGradient>
<linearGradient id="paint13_linear" x1="157.355" y1="43.543" x2="154.73" y2="45.7472" gradientUnits="userSpaceOnUse">
<stop offset="0.3118" stop-color="#FFBC47" stop-opacity="0"/>
<stop offset="1" stop-color="#FF8900"/>
</linearGradient>
<linearGradient id="paint14_linear" x1="154.492" y1="45.1445" x2="157.542" y2="47.6243" gradientUnits="userSpaceOnUse">
<stop stop-color="#FFBC47" stop-opacity="0"/>
<stop offset="1" stop-color="#FFBC47"/>
</linearGradient>
<linearGradient id="paint15_linear" x1="155.077" y1="42.0709" x2="157.458" y2="45.6921" gradientUnits="userSpaceOnUse">
<stop stop-color="#FFBC47" stop-opacity="0"/>
<stop offset="1" stop-color="#FFBC47"/>
</linearGradient>
<linearGradient id="paint16_linear" x1="156.942" y1="42.3297" x2="157.611" y2="41.818" gradientUnits="userSpaceOnUse">
<stop stop-color="#FFBC47" stop-opacity="0"/>
<stop offset="1" stop-color="#FFA754"/>
</linearGradient>
<linearGradient id="paint17_linear" x1="160.244" y1="44.3511" x2="159.352" y2="40.1" gradientUnits="userSpaceOnUse">
<stop stop-color="#FFBC47" stop-opacity="0"/>
<stop offset="1" stop-color="#FFBC47"/>
</linearGradient>
<linearGradient id="paint18_linear" x1="158.208" y1="48.4308" x2="156.869" y2="49.6609" gradientUnits="userSpaceOnUse">
<stop offset="0.3118" stop-color="#FFBC47" stop-opacity="0"/>
<stop offset="1" stop-color="#FF8900"/>
</linearGradient>
<radialGradient id="paint19_radial" cx="0" cy="0" r="1" gradientUnits="userSpaceOnUse" gradientTransform="translate(159.093 44.3657) rotate(48.14) scale(9.04013 8.2056)">
<stop offset="0.6134" stop-color="#FFBC47" stop-opacity="0"/>
<stop offset="1" stop-color="#FF8900"/>
</radialGradient>
</defs>
</svg>
