<svg width="488" height="87" viewBox="0 0 488 87" fill="none" xmlns="http://www.w3.org/2000/svg">
<path d="M450.818 0.0380859H35C15.67 0.0380859 0 15.7081 0 35.0381V74.3566V86.557L20.682 74.3566H450.818C471.34 74.3566 487.977 57.7198 487.977 37.1973C487.977 16.6749 471.34 0.0380859 450.818 0.0380859Z" fill="#343434"/>
<path d="M37.7288 27.3892H38.8148V18.7492H37.7288L36.1028 19.7212V20.9152L37.7288 19.9312V27.3892ZM44.8298 27.3892H45.9098V25.7992H46.8098V24.7852H45.9098V22.3552H44.8298V24.7852H42.0698L44.9198 18.7492H43.7078L40.8578 24.7852V25.7992H44.8298V27.3892ZM48.7263 26.4892H49.9023V25.3132H48.7263V26.4892ZM48.7323 22.9852H49.9083V21.8092H48.7323V22.9852ZM54.924 27.5692C55.484 27.5692 55.984 27.4432 56.424 27.1912C56.864 26.9392 57.21 26.5932 57.462 26.1532C57.714 25.7132 57.84 25.2132 57.84 24.6532V21.4852C57.84 20.9252 57.714 20.4252 57.462 19.9852C57.21 19.5452 56.864 19.1992 56.424 18.9472C55.984 18.6952 55.484 18.5692 54.924 18.5692C54.364 18.5692 53.864 18.6952 53.424 18.9472C52.984 19.1992 52.638 19.5452 52.386 19.9852C52.134 20.4252 52.008 20.9252 52.008 21.4852V24.6532C52.008 25.2132 52.134 25.7132 52.386 26.1532C52.638 26.5932 52.984 26.9392 53.424 27.1912C53.864 27.4432 54.364 27.5692 54.924 27.5692ZM54.924 26.5432C54.588 26.5432 54.28 26.4612 54 26.2972C53.724 26.1332 53.504 25.9132 53.34 25.6372C53.176 25.3572 53.094 25.0492 53.094 24.7132V21.4192C53.094 21.0792 53.176 20.7712 53.34 20.4952C53.504 20.2192 53.724 19.9992 54 19.8352C54.28 19.6712 54.588 19.5892 54.924 19.5892C55.264 19.5892 55.572 19.6712 55.848 19.8352C56.124 19.9992 56.344 20.2192 56.508 20.4952C56.672 20.7712 56.754 21.0792 56.754 21.4192V24.7132C56.754 25.0492 56.672 25.3572 56.508 25.6372C56.344 25.9132 56.124 26.1332 55.848 26.2972C55.572 26.4612 55.264 26.5432 54.924 26.5432ZM62.3457 18.5752C61.8097 18.5752 61.3177 18.7052 60.8697 18.9652C60.4257 19.2212 60.0697 19.5692 59.8017 20.0092C59.5337 20.4452 59.3997 20.9312 59.3997 21.4672C59.3997 22.0032 59.5217 22.4872 59.7657 22.9192C60.0137 23.3472 60.3497 23.6872 60.7737 23.9392C61.2017 24.1912 61.6837 24.3172 62.2197 24.3172C62.6077 24.3172 62.9717 24.2372 63.3117 24.0772C63.6557 23.9172 63.9537 23.6992 64.2057 23.4232V24.5992C64.2057 24.9432 64.1217 25.2652 63.9537 25.5652C63.7897 25.8612 63.5597 26.1012 63.2637 26.2852C62.9677 26.4652 62.6297 26.5552 62.2497 26.5552C61.9297 26.5552 61.6317 26.4812 61.3557 26.3332C61.0797 26.1812 60.8557 25.9812 60.6837 25.7332L59.8857 26.4412C60.1657 26.8052 60.5097 27.0852 60.9177 27.2812C61.3297 27.4732 61.7737 27.5692 62.2497 27.5692C62.8417 27.5692 63.3657 27.4372 63.8217 27.1732C64.2777 26.9092 64.6357 26.5452 64.8957 26.0812C65.1597 25.6172 65.2917 25.0832 65.2917 24.4792V21.6052C65.2917 21.0292 65.1597 20.5132 64.8957 20.0572C64.6357 19.5972 64.2817 19.2352 63.8337 18.9712C63.3897 18.7072 62.8937 18.5752 62.3457 18.5752ZM62.3457 19.6072C62.6897 19.6072 63.0017 19.6912 63.2817 19.8592C63.5657 20.0272 63.7897 20.2532 63.9537 20.5372C64.1217 20.8172 64.2057 21.1272 64.2057 21.4672C64.2057 21.8112 64.1217 22.1252 63.9537 22.4092C63.7857 22.6892 63.5597 22.9132 63.2757 23.0812C62.9957 23.2492 62.6837 23.3332 62.3397 23.3332C61.9957 23.3332 61.6817 23.2492 61.3977 23.0812C61.1177 22.9132 60.8937 22.6892 60.7257 22.4092C60.5617 22.1252 60.4797 21.8112 60.4797 21.4672C60.4797 21.1232 60.5637 20.8112 60.7317 20.5312C60.8997 20.2472 61.1237 20.0232 61.4037 19.8592C61.6877 19.6912 62.0017 19.6072 62.3457 19.6072Z" fill="#8E8E8E"/>
<path d="M38.6231 52.3892H40.1671L45.5431 40.8692H44.0231L40.7431 48.0132L37.5351 40.8692H35.9431L39.9991 49.5332L38.6231 52.3892ZM49.4245 52.3892H50.8005V46.7172L53.5525 52.3892H54.3045L57.0565 46.7172V52.3892H58.4325V43.7492H57.2085L53.9285 50.4532L50.6485 43.7492H49.4245V52.3892ZM64.4109 52.6292C65.2482 52.6292 66.0029 52.4212 66.6749 52.0052C67.3469 51.5838 67.8535 50.9918 68.1949 50.2292L66.8269 49.7572C66.3309 50.7705 65.5042 51.2772 64.3469 51.2772C63.5522 51.2772 62.9282 51.0345 62.4749 50.5492C62.0269 50.0585 61.7735 49.3652 61.7149 48.4692H68.3389C68.3815 47.4452 68.2482 46.5625 67.9389 45.8212C67.6349 45.0798 67.1762 44.5092 66.5629 44.1092C65.9549 43.7092 65.2162 43.5092 64.3469 43.5092C63.5095 43.5092 62.7789 43.6985 62.1549 44.0772C61.5309 44.4505 61.0455 44.9838 60.6989 45.6772C60.3575 46.3652 60.1869 47.1812 60.1869 48.1252C60.1869 49.0265 60.3602 49.8158 60.7069 50.4932C61.0589 51.1652 61.5522 51.6905 62.1869 52.0692C62.8215 52.4425 63.5629 52.6292 64.4109 52.6292ZM64.3949 44.7892C65.8615 44.7892 66.6829 45.6345 66.8589 47.3252H61.7389C61.8402 46.5038 62.1149 45.8772 62.5629 45.4452C63.0109 45.0078 63.6215 44.7892 64.3949 44.7892ZM70.112 52.3892H71.536V48.7412H76.08V52.3892H77.504V43.7492H76.08V47.3892H71.536V43.7492H70.112V52.3892ZM79.265 52.3892H80.801L82.849 49.2532C82.9717 49.2585 83.0943 49.2612 83.217 49.2612H85.081V52.3892H86.513L86.505 43.7492H83.137C82.9397 43.7492 82.705 43.7545 82.433 43.7652C82.161 43.7758 81.8917 43.8105 81.625 43.8692C81.0277 44.0025 80.529 44.2958 80.129 44.7492C79.729 45.1972 79.529 45.7918 79.529 46.5332C79.529 47.2318 79.7077 47.7918 80.065 48.2132C80.4277 48.6292 80.881 48.9172 81.425 49.0772L79.265 52.3892ZM83.113 48.0852C82.985 48.0852 82.833 48.0798 82.657 48.0692C82.4863 48.0585 82.3157 48.0318 82.145 47.9892C81.8197 47.9038 81.545 47.7385 81.321 47.4932C81.1023 47.2425 80.993 46.9172 80.993 46.5172C80.993 46.1012 81.105 45.7705 81.329 45.5252C81.5583 45.2745 81.801 45.1118 82.057 45.0372C82.2383 44.9838 82.4277 44.9518 82.625 44.9412C82.8277 44.9305 82.9903 44.9252 83.113 44.9252H85.081V48.0852H83.113ZM91.9558 52.3892H93.3798V48.7412H97.9238V52.3892H99.3478V43.7492H97.9238V47.3892H93.3798V43.7492H91.9558V52.3892ZM105.333 52.6292C106.17 52.6292 106.925 52.4212 107.597 52.0052C108.269 51.5838 108.775 50.9918 109.117 50.2292L107.749 49.7572C107.253 50.7705 106.426 51.2772 105.269 51.2772C104.474 51.2772 103.85 51.0345 103.397 50.5492C102.949 50.0585 102.695 49.3652 102.637 48.4692H109.261C109.303 47.4452 109.17 46.5625 108.861 45.8212C108.557 45.0798 108.098 44.5092 107.485 44.1092C106.877 43.7092 106.138 43.5092 105.269 43.5092C104.431 43.5092 103.701 43.6985 103.077 44.0772C102.453 44.4505 101.967 44.9838 101.621 45.6772C101.279 46.3652 101.109 47.1812 101.109 48.1252C101.109 49.0265 101.282 49.8158 101.629 50.4932C101.981 51.1652 102.474 51.6905 103.109 52.0692C103.743 52.4425 104.485 52.6292 105.333 52.6292ZM105.317 44.7892C106.783 44.7892 107.605 45.6345 107.781 47.3252H102.661C102.762 46.5038 103.037 45.8772 103.485 45.4452C103.933 45.0078 104.543 44.7892 105.317 44.7892ZM114.237 52.3892H115.661V45.1012H119.893V52.3892H121.317V43.7492H114.237V52.3892ZM127.238 52.6292C128.096 52.6292 128.835 52.4372 129.454 52.0532C130.078 51.6692 130.558 51.1332 130.894 50.4452C131.235 49.7572 131.406 48.9625 131.406 48.0612C131.406 47.1705 131.238 46.3838 130.902 45.7012C130.571 45.0132 130.094 44.4772 129.47 44.0932C128.846 43.7038 128.102 43.5092 127.238 43.5092C126.395 43.5092 125.662 43.7012 125.038 44.0852C124.414 44.4638 123.931 44.9945 123.59 45.6772C123.248 46.3598 123.078 47.1545 123.078 48.0612C123.078 48.9518 123.243 49.7412 123.574 50.4292C123.91 51.1172 124.39 51.6558 125.014 52.0452C125.638 52.4345 126.379 52.6292 127.238 52.6292ZM127.238 51.2772C126.368 51.2772 125.71 50.9865 125.262 50.4052C124.814 49.8185 124.59 49.0372 124.59 48.0612C124.59 47.1172 124.806 46.3492 125.238 45.7572C125.67 45.1598 126.336 44.8612 127.238 44.8612C128.123 44.8612 128.787 45.1518 129.23 45.7332C129.672 46.3145 129.894 47.0905 129.894 48.0612C129.894 49.0105 129.672 49.7838 129.23 50.3812C128.792 50.9785 128.128 51.2772 127.238 51.2772ZM132.367 52.3892C132.948 52.5065 133.41 52.5172 133.751 52.4212C134.092 52.3305 134.354 52.1305 134.535 51.8212C134.716 51.5065 134.858 51.0878 134.959 50.5652C135.039 50.1598 135.114 49.6558 135.183 49.0532C135.258 48.4505 135.324 47.8052 135.383 47.1172C135.447 46.4292 135.503 45.7572 135.551 45.1012H138.871V52.3892H140.295V43.7492H134.255C134.18 45.0345 134.098 46.1918 134.007 47.2212C133.922 48.2452 133.812 49.1358 133.679 49.8932C133.594 50.3785 133.474 50.7332 133.319 50.9572C133.164 51.1812 132.847 51.2505 132.367 51.1652V52.3892ZM143.742 56.2292H145.126L149.83 43.7492H148.382L145.854 50.5492L143.158 43.7492H141.662L145.166 52.3572L143.742 56.2292ZM156.351 52.3892H157.783V43.7492H156.351V47.9572C156.106 48.1332 155.807 48.2745 155.455 48.3812C155.103 48.4878 154.722 48.5412 154.311 48.5412C153.693 48.5412 153.213 48.4105 152.871 48.1492C152.535 47.8825 152.314 47.4825 152.207 46.9492C152.165 46.7358 152.138 46.5172 152.127 46.2932C152.117 46.0692 152.111 45.8772 152.111 45.7172V43.7492H150.671V45.7172C150.671 45.8505 150.677 46.0985 150.687 46.4612C150.703 46.8238 150.746 47.1705 150.815 47.5012C150.975 48.2425 151.325 48.8105 151.863 49.2052C152.407 49.5998 153.119 49.7972 153.999 49.7972C154.458 49.7972 154.89 49.7492 155.295 49.6532C155.706 49.5518 156.058 49.4265 156.351 49.2772V52.3892ZM162.482 52.6292C163.922 52.6292 164.989 52.1012 165.682 51.0452V52.3892H166.946V47.0452C166.946 46.7038 166.93 46.3785 166.898 46.0692C166.866 45.7545 166.789 45.4638 166.666 45.1972C166.421 44.6318 166.016 44.2105 165.45 43.9332C164.885 43.6505 164.213 43.5092 163.434 43.5092C162.458 43.5092 161.669 43.7252 161.066 44.1572C160.469 44.5892 160.069 45.1838 159.866 45.9412L161.218 46.3492C161.373 45.8212 161.648 45.4372 162.042 45.1972C162.437 44.9572 162.896 44.8372 163.418 44.8372C164.165 44.8372 164.701 45.0052 165.026 45.3412C165.357 45.6718 165.53 46.1812 165.546 46.8692C164.906 46.9598 164.234 47.0558 163.53 47.1572C162.832 47.2532 162.21 47.3732 161.666 47.5172C161.01 47.7092 160.493 48.0105 160.114 48.4212C159.736 48.8265 159.546 49.3705 159.546 50.0532C159.546 50.5172 159.656 50.9438 159.874 51.3332C160.098 51.7225 160.426 52.0372 160.858 52.2772C161.296 52.5118 161.837 52.6292 162.482 52.6292ZM162.698 51.4372C162.085 51.4372 161.642 51.2958 161.37 51.0132C161.098 50.7252 160.962 50.4025 160.962 50.0452C160.962 49.6398 161.096 49.3305 161.362 49.1172C161.634 48.8985 161.949 48.7332 162.306 48.6212C162.728 48.5038 163.218 48.4052 163.778 48.3252C164.338 48.2452 164.922 48.1652 165.53 48.0852C165.53 48.2825 165.52 48.5065 165.498 48.7572C165.482 49.0078 165.445 49.2372 165.386 49.4452C165.285 49.9785 165.002 50.4452 164.538 50.8452C164.08 51.2398 163.466 51.4372 162.698 51.4372ZM172.77 52.6292C173.608 52.6292 174.362 52.4212 175.034 52.0052C175.706 51.5838 176.213 50.9918 176.554 50.2292L175.186 49.7572C174.69 50.7705 173.864 51.2772 172.706 51.2772C171.912 51.2772 171.288 51.0345 170.834 50.5492C170.386 50.0585 170.133 49.3652 170.074 48.4692H176.698C176.741 47.4452 176.608 46.5625 176.298 45.8212C175.994 45.0798 175.536 44.5092 174.922 44.1092C174.314 43.7092 173.576 43.5092 172.706 43.5092C171.869 43.5092 171.138 43.6985 170.514 44.0772C169.89 44.4505 169.405 44.9838 169.058 45.6772C168.717 46.3652 168.546 47.1812 168.546 48.1252C168.546 49.0265 168.72 49.8158 169.066 50.4932C169.418 51.1652 169.912 51.6905 170.546 52.0692C171.181 52.4425 171.922 52.6292 172.77 52.6292ZM172.754 44.7892C174.221 44.7892 175.042 45.6345 175.218 47.3252H170.098C170.2 46.5038 170.474 45.8772 170.922 45.4452C171.37 45.0078 171.981 44.7892 172.754 44.7892ZM180.611 52.3892H182.035V45.0452H185.043V43.7492H177.603V45.0452H180.611V52.3892ZM190.041 52.6292C190.932 52.6292 191.695 52.4158 192.329 51.9892C192.964 51.5625 193.433 50.9465 193.737 50.1412L192.297 49.7652C191.897 50.7732 191.145 51.2772 190.041 51.2772C189.183 51.2772 188.535 50.9838 188.097 50.3972C187.665 49.8105 187.444 49.0345 187.433 48.0692C187.444 47.1305 187.66 46.3625 188.081 45.7652C188.503 45.1625 189.156 44.8612 190.041 44.8612C190.564 44.8612 191.031 44.9998 191.441 45.2772C191.852 45.5545 192.148 45.9438 192.329 46.4452L193.737 46.0212C193.508 45.2425 193.063 44.6292 192.401 44.1812C191.745 43.7332 190.964 43.5092 190.057 43.5092C189.193 43.5092 188.452 43.7038 187.833 44.0932C187.22 44.4772 186.751 45.0105 186.425 45.6932C186.1 46.3758 185.932 47.1678 185.921 48.0692C185.932 48.9492 186.097 49.7332 186.417 50.4212C186.737 51.1092 187.201 51.6505 187.809 52.0452C188.423 52.4345 189.167 52.6292 190.041 52.6292ZM194.812 52.3892H196.348L198.396 49.2532C198.519 49.2585 198.641 49.2612 198.764 49.2612H200.628V52.3892H202.06L202.052 43.7492H198.684C198.487 43.7492 198.252 43.7545 197.98 43.7652C197.708 43.7758 197.439 43.8105 197.172 43.8692C196.575 44.0025 196.076 44.2958 195.676 44.7492C195.276 45.1972 195.076 45.7918 195.076 46.5332C195.076 47.2318 195.255 47.7918 195.612 48.2132C195.975 48.6292 196.428 48.9172 196.972 49.0772L194.812 52.3892ZM198.66 48.0852C198.532 48.0852 198.38 48.0798 198.204 48.0692C198.033 48.0585 197.863 48.0318 197.692 47.9892C197.367 47.9038 197.092 47.7385 196.868 47.4932C196.649 47.2425 196.54 46.9172 196.54 46.5172C196.54 46.1012 196.652 45.7705 196.876 45.5252C197.105 45.2745 197.348 45.1118 197.604 45.0372C197.785 44.9838 197.975 44.9518 198.172 44.9412C198.375 44.9305 198.537 44.9252 198.66 44.9252H200.628V48.0852H198.66ZM207.503 52.3892H211.599C211.833 52.3892 212.076 52.3812 212.327 52.3652C212.577 52.3438 212.807 52.3038 213.015 52.2452C213.511 52.1065 213.9 51.8452 214.183 51.4612C214.465 51.0772 214.607 50.5918 214.607 50.0052C214.607 49.5465 214.519 49.1678 214.343 48.8692C214.167 48.5652 213.929 48.3305 213.631 48.1652C213.433 48.0532 213.244 47.9812 213.063 47.9492C213.265 47.8692 213.449 47.7465 213.615 47.5812C213.791 47.4105 213.929 47.2052 214.031 46.9652C214.132 46.7198 214.183 46.4345 214.183 46.1092C214.183 45.5278 214.031 45.0478 213.727 44.6692C213.423 44.2905 213.041 44.0372 212.583 43.9092C212.375 43.8505 212.143 43.8105 211.887 43.7892C211.636 43.7625 211.401 43.7492 211.183 43.7492H207.503V52.3892ZM208.943 47.4852V44.9252H210.967C211.025 44.9252 211.159 44.9305 211.367 44.9412C211.575 44.9518 211.767 44.9865 211.943 45.0452C212.193 45.1305 212.383 45.2798 212.511 45.4932C212.639 45.7012 212.703 45.9412 212.703 46.2132C212.703 46.4638 212.644 46.6958 212.527 46.9092C212.409 47.1172 212.231 47.2665 211.991 47.3572C211.868 47.4052 211.721 47.4398 211.551 47.4612C211.385 47.4772 211.231 47.4852 211.087 47.4852H208.943ZM208.943 51.2292V48.6612H211.391C211.487 48.6612 211.599 48.6638 211.727 48.6692C211.86 48.6745 211.985 48.6932 212.103 48.7252C212.407 48.7785 212.655 48.9118 212.847 49.1252C213.039 49.3385 213.135 49.6158 213.135 49.9572C213.135 50.2132 213.071 50.4532 212.943 50.6772C212.82 50.8958 212.62 51.0425 212.343 51.1172C212.22 51.1545 212.079 51.1838 211.919 51.2052C211.764 51.2212 211.631 51.2292 211.519 51.2292H208.943ZM219.894 52.6292C220.752 52.6292 221.491 52.4372 222.11 52.0532C222.734 51.6692 223.214 51.1332 223.55 50.4452C223.891 49.7572 224.062 48.9625 224.062 48.0612C224.062 47.1705 223.894 46.3838 223.558 45.7012C223.227 45.0132 222.75 44.4772 222.126 44.0932C221.502 43.7038 220.758 43.5092 219.894 43.5092C219.051 43.5092 218.318 43.7012 217.694 44.0852C217.07 44.4638 216.587 44.9945 216.246 45.6772C215.904 46.3598 215.734 47.1545 215.734 48.0612C215.734 48.9518 215.899 49.7412 216.23 50.4292C216.566 51.1172 217.046 51.6558 217.67 52.0452C218.294 52.4345 219.035 52.6292 219.894 52.6292ZM219.894 51.2772C219.024 51.2772 218.366 50.9865 217.918 50.4052C217.47 49.8185 217.246 49.0372 217.246 48.0612C217.246 47.1172 217.462 46.3492 217.894 45.7572C218.326 45.1598 218.992 44.8612 219.894 44.8612C220.779 44.8612 221.443 45.1518 221.886 45.7332C222.328 46.3145 222.55 47.0905 222.55 48.0612C222.55 49.0105 222.328 49.7838 221.886 50.3812C221.448 50.9785 220.784 51.2772 219.894 51.2772ZM229.463 52.6292C230.354 52.6292 231.116 52.4158 231.751 51.9892C232.386 51.5625 232.855 50.9465 233.159 50.1412L231.719 49.7652C231.319 50.7732 230.567 51.2772 229.463 51.2772C228.604 51.2772 227.956 50.9838 227.519 50.3972C227.087 49.8105 226.866 49.0345 226.855 48.0692C226.866 47.1305 227.082 46.3625 227.503 45.7652C227.924 45.1625 228.578 44.8612 229.463 44.8612C229.986 44.8612 230.452 44.9998 230.863 45.2772C231.274 45.5545 231.57 45.9438 231.751 46.4452L233.159 46.0212C232.93 45.2425 232.484 44.6292 231.823 44.1812C231.167 43.7332 230.386 43.5092 229.479 43.5092C228.615 43.5092 227.874 43.7038 227.255 44.0932C226.642 44.4772 226.172 45.0105 225.847 45.6932C225.522 46.3758 225.354 47.1678 225.343 48.0692C225.354 48.9492 225.519 49.7332 225.839 50.4212C226.159 51.1092 226.623 51.6505 227.231 52.0452C227.844 52.4345 228.588 52.6292 229.463 52.6292ZM238.198 52.6292C239.088 52.6292 239.851 52.4158 240.486 51.9892C241.12 51.5625 241.59 50.9465 241.894 50.1412L240.454 49.7652C240.054 50.7732 239.302 51.2772 238.198 51.2772C237.339 51.2772 236.691 50.9838 236.254 50.3972C235.822 49.8105 235.6 49.0345 235.59 48.0692C235.6 47.1305 235.816 46.3625 236.238 45.7652C236.659 45.1625 237.312 44.8612 238.198 44.8612C238.72 44.8612 239.187 44.9998 239.598 45.2772C240.008 45.5545 240.304 45.9438 240.486 46.4452L241.894 46.0212C241.664 45.2425 241.219 44.6292 240.558 44.1812C239.902 43.7332 239.12 43.5092 238.214 43.5092C237.35 43.5092 236.608 43.7038 235.99 44.0932C235.376 44.4772 234.907 45.0105 234.582 45.6932C234.256 46.3758 234.088 47.1678 234.078 48.0692C234.088 48.9492 234.254 49.7332 234.574 50.4212C234.894 51.1092 235.358 51.6505 235.966 52.0452C236.579 52.4345 237.323 52.6292 238.198 52.6292ZM245.658 52.3892H247.082V45.0452H250.09V43.7492H242.65V45.0452H245.658V52.3892ZM253.779 52.6292C255.219 52.6292 256.286 52.1012 256.979 51.0452V52.3892H258.243V47.0452C258.243 46.7038 258.227 46.3785 258.195 46.0692C258.163 45.7545 258.086 45.4638 257.963 45.1972C257.718 44.6318 257.312 44.2105 256.747 43.9332C256.182 43.6505 255.51 43.5092 254.731 43.5092C253.755 43.5092 252.966 43.7252 252.363 44.1572C251.766 44.5892 251.366 45.1838 251.163 45.9412L252.515 46.3492C252.67 45.8212 252.944 45.4372 253.339 45.1972C253.734 44.9572 254.192 44.8372 254.715 44.8372C255.462 44.8372 255.998 45.0052 256.323 45.3412C256.654 45.6718 256.827 46.1812 256.843 46.8692C256.203 46.9598 255.531 47.0558 254.827 47.1572C254.128 47.2532 253.507 47.3732 252.963 47.5172C252.307 47.7092 251.79 48.0105 251.411 48.4212C251.032 48.8265 250.843 49.3705 250.843 50.0532C250.843 50.5172 250.952 50.9438 251.171 51.3332C251.395 51.7225 251.723 52.0372 252.155 52.2772C252.592 52.5118 253.134 52.6292 253.779 52.6292ZM253.995 51.4372C253.382 51.4372 252.939 51.2958 252.667 51.0132C252.395 50.7252 252.259 50.4025 252.259 50.0452C252.259 49.6398 252.392 49.3305 252.659 49.1172C252.931 48.8985 253.246 48.7332 253.603 48.6212C254.024 48.5038 254.515 48.4052 255.075 48.3252C255.635 48.2452 256.219 48.1652 256.827 48.0852C256.827 48.2825 256.816 48.5065 256.795 48.7572C256.779 49.0078 256.742 49.2372 256.683 49.4452C256.582 49.9785 256.299 50.4452 255.835 50.8452C255.376 51.2398 254.763 51.4372 253.995 51.4372ZM260.315 52.3892H261.739V48.7412H266.283V52.3892H267.707V43.7492H266.283V47.3892H261.739V43.7492H260.315V52.3892ZM273.628 52.6292C274.487 52.6292 275.225 52.4372 275.844 52.0532C276.468 51.6692 276.948 51.1332 277.284 50.4452C277.625 49.7572 277.796 48.9625 277.796 48.0612C277.796 47.1705 277.628 46.3838 277.292 45.7012C276.961 45.0132 276.484 44.4772 275.86 44.0932C275.236 43.7038 274.492 43.5092 273.628 43.5092C272.785 43.5092 272.052 43.7012 271.428 44.0852C270.804 44.4638 270.321 44.9945 269.98 45.6772C269.639 46.3598 269.468 47.1545 269.468 48.0612C269.468 48.9518 269.633 49.7412 269.964 50.4292C270.3 51.1172 270.78 51.6558 271.404 52.0452C272.028 52.4345 272.769 52.6292 273.628 52.6292ZM273.628 51.2772C272.759 51.2772 272.1 50.9865 271.652 50.4052C271.204 49.8185 270.98 49.0372 270.98 48.0612C270.98 47.1172 271.196 46.3492 271.628 45.7572C272.06 45.1598 272.727 44.8612 273.628 44.8612C274.513 44.8612 275.177 45.1518 275.62 45.7332C276.063 46.3145 276.284 47.0905 276.284 48.0612C276.284 49.0105 276.063 49.7838 275.62 50.3812C275.183 50.9785 274.519 51.2772 273.628 51.2772ZM279.55 52.3892H283.646C283.88 52.3892 284.123 52.3812 284.374 52.3652C284.624 52.3438 284.854 52.3038 285.062 52.2452C285.558 52.1065 285.947 51.8452 286.23 51.4612C286.512 51.0772 286.654 50.5918 286.654 50.0052C286.654 49.5465 286.566 49.1678 286.39 48.8692C286.214 48.5652 285.976 48.3305 285.678 48.1652C285.48 48.0532 285.291 47.9812 285.11 47.9492C285.312 47.8692 285.496 47.7465 285.662 47.5812C285.838 47.4105 285.976 47.2052 286.078 46.9652C286.179 46.7198 286.23 46.4345 286.23 46.1092C286.23 45.5278 286.078 45.0478 285.774 44.6692C285.47 44.2905 285.088 44.0372 284.63 43.9092C284.422 43.8505 284.19 43.8105 283.934 43.7892C283.683 43.7625 283.448 43.7492 283.23 43.7492H279.55V52.3892ZM280.99 47.4852V44.9252H283.014C283.072 44.9252 283.206 44.9305 283.414 44.9412C283.622 44.9518 283.814 44.9865 283.99 45.0452C284.24 45.1305 284.43 45.2798 284.558 45.4932C284.686 45.7012 284.75 45.9412 284.75 46.2132C284.75 46.4638 284.691 46.6958 284.574 46.9092C284.456 47.1172 284.278 47.2665 284.038 47.3572C283.915 47.4052 283.768 47.4398 283.598 47.4612C283.432 47.4772 283.278 47.4852 283.134 47.4852H280.99ZM280.99 51.2292V48.6612H283.438C283.534 48.6612 283.646 48.6638 283.774 48.6692C283.907 48.6745 284.032 48.6932 284.15 48.7252C284.454 48.7785 284.702 48.9118 284.894 49.1252C285.086 49.3385 285.182 49.6158 285.182 49.9572C285.182 50.2132 285.118 50.4532 284.99 50.6772C284.867 50.8958 284.667 51.0425 284.39 51.1172C284.267 51.1545 284.126 51.1838 283.966 51.2052C283.811 51.2212 283.678 51.2292 283.566 51.2292H280.99ZM295.333 43.7492H294.165L289.629 50.0292V43.7492H288.253V52.3892H289.429L293.957 46.0212V52.3892H295.333V43.7492ZM299.861 52.3892H301.285V45.0452H304.293V43.7492H296.853V45.0452H299.861V52.3892ZM305.808 52.3892H309.176C309.421 52.3892 309.68 52.3838 309.952 52.3732C310.229 52.3572 310.474 52.3252 310.688 52.2772C311.312 52.1385 311.816 51.8505 312.2 51.4132C312.589 50.9758 312.784 50.3838 312.784 49.6372C312.784 48.8265 312.576 48.2132 312.16 47.7972C311.749 47.3758 311.21 47.0985 310.544 46.9652C310.346 46.9278 310.117 46.9038 309.856 46.8932C309.6 46.8825 309.346 46.8772 309.095 46.8772H307.232V43.7492H305.8L305.808 52.3892ZM307.232 51.2132V48.0532H309.2C309.354 48.0532 309.517 48.0585 309.688 48.0692C309.858 48.0798 310.021 48.1038 310.176 48.1412C310.512 48.2158 310.786 48.3732 311 48.6132C311.213 48.8532 311.32 49.1945 311.32 49.6372C311.32 50.0745 311.21 50.4132 310.992 50.6532C310.773 50.8878 310.53 51.0425 310.264 51.1172C310.104 51.1598 309.925 51.1865 309.728 51.1972C309.53 51.2078 309.354 51.2132 309.2 51.2132H307.232ZM317.105 54.3092H318.465V52.3892H324.545V54.3092H325.905V51.2132H325.065V43.7492H319.113C319.06 44.9812 318.998 46.0212 318.929 46.8692C318.865 47.7118 318.772 48.4772 318.649 49.1652C318.521 49.8958 318.35 50.4212 318.137 50.7412C317.929 51.0558 317.585 51.2132 317.105 51.2132V54.3092ZM319.297 51.2132C319.489 51.0265 319.63 50.7945 319.721 50.5172C319.817 50.2398 319.9 49.8985 319.969 49.4932C320.049 49.1145 320.116 48.6665 320.169 48.1492C320.222 47.6265 320.268 47.0852 320.305 46.5252C320.342 45.9598 320.374 45.4265 320.401 44.9252H323.641V51.2132H319.297ZM330.878 52.6292C331.737 52.6292 332.475 52.4372 333.094 52.0532C333.718 51.6692 334.198 51.1332 334.534 50.4452C334.875 49.7572 335.046 48.9625 335.046 48.0612C335.046 47.1705 334.878 46.3838 334.542 45.7012C334.211 45.0132 333.734 44.4772 333.11 44.0932C332.486 43.7038 331.742 43.5092 330.878 43.5092C330.035 43.5092 329.302 43.7012 328.678 44.0852C328.054 44.4638 327.571 44.9945 327.23 45.6772C326.889 46.3598 326.718 47.1545 326.718 48.0612C326.718 48.9518 326.883 49.7412 327.214 50.4292C327.55 51.1172 328.03 51.6558 328.654 52.0452C329.278 52.4345 330.019 52.6292 330.878 52.6292ZM330.878 51.2772C330.009 51.2772 329.35 50.9865 328.902 50.4052C328.454 49.8185 328.23 49.0372 328.23 48.0612C328.23 47.1172 328.446 46.3492 328.878 45.7572C329.31 45.1598 329.977 44.8612 330.878 44.8612C331.763 44.8612 332.427 45.1518 332.87 45.7332C333.313 46.3145 333.534 47.0905 333.534 48.0612C333.534 49.0105 333.313 49.7838 332.87 50.3812C332.433 50.9785 331.769 51.2772 330.878 51.2772ZM340.448 52.6292C341.338 52.6292 342.101 52.4158 342.736 51.9892C343.37 51.5625 343.84 50.9465 344.144 50.1412L342.704 49.7652C342.304 50.7732 341.552 51.2772 340.448 51.2772C339.589 51.2772 338.941 50.9838 338.504 50.3972C338.072 49.8105 337.85 49.0345 337.84 48.0692C337.85 47.1305 338.066 46.3625 338.488 45.7652C338.909 45.1625 339.562 44.8612 340.448 44.8612C340.97 44.8612 341.437 44.9998 341.848 45.2772C342.258 45.5545 342.554 45.9438 342.736 46.4452L344.144 46.0212C343.914 45.2425 343.469 44.6292 342.808 44.1812C342.152 43.7332 341.37 43.5092 340.464 43.5092C339.6 43.5092 338.858 43.7038 338.24 44.0932C337.626 44.4772 337.157 45.0105 336.832 45.6932C336.506 46.3758 336.338 47.1678 336.328 48.0692C336.338 48.9492 336.504 49.7332 336.824 50.4212C337.144 51.1092 337.608 51.6505 338.216 52.0452C338.829 52.4345 339.573 52.6292 340.448 52.6292ZM347.908 52.3892H349.332V45.0452H352.34V43.7492H344.9V45.0452H347.908V52.3892ZM354.898 56.2292H356.282L360.986 43.7492H359.538L357.01 50.5492L354.314 43.7492H352.818L356.322 52.3572L354.898 56.2292ZM362.3 52.3892H363.724V45.1012H367.956V52.3892H369.38V43.7492H362.3V52.3892ZM374.815 52.3892H376.263V48.2292L380.191 52.3892H382.183L377.919 48.0692L381.735 43.7492H379.887L376.263 47.9092V43.7492H374.823L374.815 52.3892ZM388.639 52.6292C390.079 52.6292 391.145 52.1012 391.839 51.0452V52.3892H393.102V47.0452C393.102 46.7038 393.087 46.3785 393.055 46.0692C393.023 45.7545 392.945 45.4638 392.823 45.1972C392.577 44.6318 392.172 44.2105 391.607 43.9332C391.041 43.6505 390.369 43.5092 389.591 43.5092C388.615 43.5092 387.825 43.7252 387.223 44.1572C386.625 44.5892 386.225 45.1838 386.023 45.9412L387.375 46.3492C387.529 45.8212 387.804 45.4372 388.199 45.1972C388.593 44.9572 389.052 44.8372 389.575 44.8372C390.321 44.8372 390.857 45.0052 391.183 45.3412C391.513 45.6718 391.687 46.1812 391.703 46.8692C391.063 46.9598 390.391 47.0558 389.687 47.1572C388.988 47.2532 388.367 47.3732 387.823 47.5172C387.167 47.7092 386.649 48.0105 386.271 48.4212C385.892 48.8265 385.703 49.3705 385.703 50.0532C385.703 50.5172 385.812 50.9438 386.031 51.3332C386.255 51.7225 386.583 52.0372 387.015 52.2772C387.452 52.5118 387.993 52.6292 388.639 52.6292ZM388.855 51.4372C388.241 51.4372 387.799 51.2958 387.527 51.0132C387.255 50.7252 387.118 50.4025 387.118 50.0452C387.118 49.6398 387.252 49.3305 387.519 49.1172C387.791 48.8985 388.105 48.7332 388.463 48.6212C388.884 48.5038 389.375 48.4052 389.935 48.3252C390.495 48.2452 391.079 48.1652 391.687 48.0852C391.687 48.2825 391.676 48.5065 391.655 48.7572C391.639 49.0078 391.601 49.2372 391.543 49.4452C391.441 49.9785 391.159 50.4452 390.695 50.8452C390.236 51.2398 389.623 51.4372 388.855 51.4372ZM395.175 52.3892H396.623V48.2292L400.551 52.3892H402.543L398.279 48.0692L402.095 43.7492H400.247L396.623 47.9092V43.7492H395.183L395.175 52.3892ZM403.331 52.3892H404.779V48.2292L408.707 52.3892H410.699L406.435 48.0692L410.251 43.7492H408.403L404.779 47.9092V43.7492H403.339L403.331 52.3892ZM413.951 52.6292C415.391 52.6292 416.458 52.1012 417.151 51.0452V52.3892H418.415V47.0452C418.415 46.7038 418.399 46.3785 418.367 46.0692C418.335 45.7545 418.258 45.4638 418.135 45.1972C417.89 44.6318 417.484 44.2105 416.919 43.9332C416.354 43.6505 415.682 43.5092 414.903 43.5092C413.927 43.5092 413.138 43.7252 412.535 44.1572C411.938 44.5892 411.538 45.1838 411.335 45.9412L412.687 46.3492C412.842 45.8212 413.116 45.4372 413.511 45.1972C413.906 44.9572 414.364 44.8372 414.887 44.8372C415.634 44.8372 416.17 45.0052 416.495 45.3412C416.826 45.6718 416.999 46.1812 417.015 46.8692C416.375 46.9598 415.703 47.0558 414.999 47.1572C414.3 47.2532 413.679 47.3732 413.135 47.5172C412.479 47.7092 411.962 48.0105 411.583 48.4212C411.204 48.8265 411.015 49.3705 411.015 50.0532C411.015 50.5172 411.124 50.9438 411.343 51.3332C411.567 51.7225 411.895 52.0372 412.327 52.2772C412.764 52.5118 413.306 52.6292 413.951 52.6292ZM414.167 51.4372C413.554 51.4372 413.111 51.2958 412.839 51.0132C412.567 50.7252 412.431 50.4025 412.431 50.0452C412.431 49.6398 412.564 49.3305 412.831 49.1172C413.103 48.8985 413.418 48.7332 413.775 48.6212C414.196 48.5038 414.687 48.4052 415.247 48.3252C415.807 48.2452 416.391 48.1652 416.999 48.0852C416.999 48.2825 416.988 48.5065 416.967 48.7572C416.951 49.0078 416.914 49.2372 416.855 49.4452C416.754 49.9785 416.471 50.4452 416.007 50.8452C415.548 51.2398 414.935 51.4372 414.167 51.4372ZM421.211 56.2292H422.595L427.299 43.7492H425.851L423.323 50.5492L420.627 43.7492H419.131L422.635 52.3572L421.211 56.2292ZM428.612 52.3892H430.036V48.7412H434.58V52.3892H436.004V43.7492H434.58V47.3892H430.036V43.7492H428.612V52.3892ZM440.533 52.3892H441.957V45.0452H444.965V43.7492H437.525V45.0452H440.533V52.3892ZM447.523 56.2292H448.907L453.611 43.7492H452.163L449.635 50.5492L446.939 43.7492H445.443L448.947 52.3572L447.523 56.2292Z" fill="white"/>
</svg>
