<svg width="468" height="123" viewBox="0 0 468 123" fill="none" xmlns="http://www.w3.org/2000/svg">
<path d="M52.8459 0.557617H432.125C451.455 0.557617 467.125 16.2276 467.125 35.5576V105.263V122.452L446.443 105.263H52.8459C23.9323 105.263 0.493164 81.824 0.493164 52.9103C0.493164 23.9967 23.9323 0.557617 52.8459 0.557617Z" fill="#8A55F9"/>
<path d="M46.3655 26.418H47.4515V17.778H46.3655L44.7395 18.75V19.944L46.3655 18.96V26.418ZM53.4665 26.418H54.5465V24.828H55.4465V23.814H54.5465V21.384H53.4665V23.814H50.7065L53.5565 17.778H52.3445L49.4945 23.814V24.828H53.4665V26.418ZM57.363 25.518H58.539V24.342H57.363V25.518ZM57.369 22.014H58.545V20.838H57.369V22.014ZM62.1507 26.418H63.2367V17.778H62.1507L60.5247 18.75V19.944L62.1507 18.96V26.418ZM68.4357 26.598C68.9957 26.598 69.4957 26.472 69.9357 26.22C70.3757 25.968 70.7217 25.622 70.9737 25.182C71.2257 24.742 71.3517 24.242 71.3517 23.682V20.514C71.3517 19.954 71.2257 19.454 70.9737 19.014C70.7217 18.574 70.3757 18.228 69.9357 17.976C69.4957 17.724 68.9957 17.598 68.4357 17.598C67.8757 17.598 67.3757 17.724 66.9357 17.976C66.4957 18.228 66.1497 18.574 65.8977 19.014C65.6457 19.454 65.5197 19.954 65.5197 20.514V23.682C65.5197 24.242 65.6457 24.742 65.8977 25.182C66.1497 25.622 66.4957 25.968 66.9357 26.22C67.3757 26.472 67.8757 26.598 68.4357 26.598ZM68.4357 25.572C68.0997 25.572 67.7917 25.49 67.5117 25.326C67.2357 25.162 67.0157 24.942 66.8517 24.666C66.6877 24.386 66.6057 24.078 66.6057 23.742V20.448C66.6057 20.108 66.6877 19.8 66.8517 19.524C67.0157 19.248 67.2357 19.028 67.5117 18.864C67.7917 18.7 68.0997 18.618 68.4357 18.618C68.7757 18.618 69.0837 18.7 69.3597 18.864C69.6357 19.028 69.8557 19.248 70.0197 19.524C70.1837 19.8 70.2657 20.108 70.2657 20.448V23.742C70.2657 24.078 70.1837 24.386 70.0197 24.666C69.8557 24.942 69.6357 25.162 69.3597 25.326C69.0837 25.49 68.7757 25.572 68.4357 25.572Z" fill="#BDA7FF"/>
<path d="M43.7255 51.3398H45.1495V46.2518H51.2135V51.3398H52.6375V39.8198H51.2135V44.8998H45.1495V39.8198H43.7255V51.3398ZM58.6257 51.5798C59.4631 51.5798 60.2177 51.3718 60.8897 50.9558C61.5617 50.5345 62.0684 49.9425 62.4097 49.1798L61.0417 48.7078C60.5457 49.7212 59.7191 50.2278 58.5617 50.2278C57.7671 50.2278 57.1431 49.9852 56.6897 49.4998C56.2417 49.0092 55.9884 48.3158 55.9297 47.4198H62.5537C62.5964 46.3958 62.4631 45.5132 62.1537 44.7718C61.8497 44.0305 61.3911 43.4598 60.7777 43.0598C60.1697 42.6598 59.4311 42.4598 58.5617 42.4598C57.7244 42.4598 56.9937 42.6492 56.3697 43.0278C55.7457 43.4012 55.2604 43.9345 54.9137 44.6278C54.5724 45.3158 54.4017 46.1318 54.4017 47.0758C54.4017 47.9772 54.5751 48.7665 54.9217 49.4438C55.2737 50.1158 55.7671 50.6412 56.4017 51.0198C57.0364 51.3932 57.7777 51.5798 58.6257 51.5798ZM58.6097 43.7398C60.0764 43.7398 60.8977 44.5852 61.0737 46.2758H55.9537C56.0551 45.4545 56.3297 44.8278 56.7777 44.3958C57.2257 43.9585 57.8364 43.7398 58.6097 43.7398ZM71.05 51.5878C71.8873 51.5932 72.6153 51.4198 73.234 51.0678C73.858 50.7158 74.3406 50.2198 74.682 49.5798C75.0233 48.9398 75.194 48.1932 75.194 47.3398C75.194 46.5345 75.042 45.8172 74.738 45.1878C74.4393 44.5585 74.01 44.0652 73.45 43.7078C72.89 43.3452 72.2233 43.1638 71.45 43.1638C70.8526 43.1638 70.29 43.2865 69.762 43.5318C69.234 43.7718 68.8046 44.1452 68.474 44.6518C68.522 44.0332 68.6553 43.4758 68.874 42.9798C69.098 42.4838 69.418 42.1078 69.834 41.8518C70.1166 41.6705 70.4526 41.5292 70.842 41.4278C71.2366 41.3212 71.6473 41.2385 72.074 41.1798C72.506 41.1212 72.922 41.0705 73.322 41.0278C73.722 40.9798 74.0686 40.9238 74.362 40.8598L74.218 39.5798C73.6633 39.6865 73.074 39.7745 72.45 39.8438C71.8313 39.9132 71.2286 40.0145 70.642 40.1478C70.0606 40.2812 69.546 40.5025 69.098 40.8118C68.394 41.2758 67.8926 41.9132 67.594 42.7238C67.4713 43.0492 67.3673 43.4625 67.282 43.9638C67.1966 44.4652 67.1353 44.9878 67.098 45.5318C67.066 46.0758 67.0606 46.5745 67.082 47.0278C67.1406 48.5052 67.5113 49.6332 68.194 50.4118C68.8766 51.1852 69.8286 51.5772 71.05 51.5878ZM71.138 50.2358C70.3166 50.2358 69.6873 49.9825 69.25 49.4758C68.8126 48.9692 68.594 48.2705 68.594 47.3798C68.594 46.4945 68.81 45.7985 69.242 45.2918C69.6793 44.7798 70.3086 44.5238 71.13 44.5238C71.9406 44.5238 72.57 44.7798 73.018 45.2918C73.466 45.7985 73.69 46.4945 73.69 47.3798C73.69 48.2438 73.474 48.9372 73.042 49.4598C72.61 49.9772 71.9753 50.2358 71.138 50.2358ZM80.7038 51.5798C81.5412 51.5798 82.2958 51.3718 82.9678 50.9558C83.6398 50.5345 84.1465 49.9425 84.4878 49.1798L83.1198 48.7078C82.6238 49.7212 81.7972 50.2278 80.6398 50.2278C79.8452 50.2278 79.2212 49.9852 78.7678 49.4998C78.3198 49.0092 78.0665 48.3158 78.0078 47.4198H84.6318C84.6745 46.3958 84.5412 45.5132 84.2318 44.7718C83.9278 44.0305 83.4692 43.4598 82.8558 43.0598C82.2478 42.6598 81.5092 42.4598 80.6398 42.4598C79.8025 42.4598 79.0718 42.6492 78.4478 43.0278C77.8238 43.4012 77.3385 43.9345 76.9918 44.6278C76.6505 45.3158 76.4798 46.1318 76.4798 47.0758C76.4798 47.9772 76.6532 48.7665 76.9998 49.4438C77.3518 50.1158 77.8452 50.6412 78.4798 51.0198C79.1145 51.3932 79.8558 51.5798 80.7038 51.5798ZM80.6878 43.7398C82.1545 43.7398 82.9758 44.5852 83.1518 46.2758H78.0318C78.1332 45.4545 78.4078 44.8278 78.8558 44.3958C79.3038 43.9585 79.9145 43.7398 80.6878 43.7398ZM90.053 51.5798C90.9436 51.5798 91.7063 51.3665 92.341 50.9398C92.9756 50.5132 93.445 49.8972 93.749 49.0918L92.309 48.7158C91.909 49.7238 91.157 50.2278 90.053 50.2278C89.1943 50.2278 88.5463 49.9345 88.109 49.3478C87.677 48.7612 87.4556 47.9852 87.445 47.0198C87.4556 46.0812 87.6716 45.3132 88.093 44.7158C88.5143 44.1132 89.1676 43.8118 90.053 43.8118C90.5756 43.8118 91.0423 43.9505 91.453 44.2278C91.8636 44.5052 92.1596 44.8945 92.341 45.3958L93.749 44.9718C93.5196 44.1932 93.0743 43.5798 92.413 43.1318C91.757 42.6838 90.9756 42.4598 90.069 42.4598C89.205 42.4598 88.4636 42.6545 87.845 43.0438C87.2316 43.4278 86.7623 43.9612 86.437 44.6438C86.1116 45.3265 85.9436 46.1185 85.933 47.0198C85.9436 47.8998 86.109 48.6838 86.429 49.3718C86.749 50.0598 87.213 50.6012 87.821 50.9958C88.4343 51.3852 89.1783 51.5798 90.053 51.5798ZM95.3737 51.3398H96.7977V44.0518H101.03V51.3398H102.454V42.6998H95.3737V51.3398ZM108.374 51.5798C109.233 51.5798 109.972 51.3878 110.59 51.0038C111.214 50.6198 111.694 50.0838 112.03 49.3958C112.372 48.7078 112.542 47.9132 112.542 47.0118C112.542 46.1212 112.374 45.3345 112.038 44.6518C111.708 43.9638 111.23 43.4278 110.606 43.0438C109.982 42.6545 109.238 42.4598 108.374 42.4598C107.532 42.4598 106.798 42.6518 106.174 43.0358C105.55 43.4145 105.068 43.9452 104.726 44.6278C104.385 45.3105 104.214 46.1052 104.214 47.0118C104.214 47.9025 104.38 48.6918 104.71 49.3798C105.046 50.0678 105.526 50.6065 106.15 50.9958C106.774 51.3852 107.516 51.5798 108.374 51.5798ZM108.374 50.2278C107.505 50.2278 106.846 49.9372 106.398 49.3558C105.95 48.7692 105.726 47.9878 105.726 47.0118C105.726 46.0678 105.942 45.2998 106.374 44.7078C106.806 44.1105 107.473 43.8118 108.374 43.8118C109.26 43.8118 109.924 44.1025 110.366 44.6838C110.809 45.2652 111.03 46.0412 111.03 47.0118C111.03 47.9612 110.809 48.7345 110.366 49.3318C109.929 49.9292 109.265 50.2278 108.374 50.2278ZM114.296 51.3398H115.744V47.1798L119.672 51.3398H121.664L117.4 47.0198L121.216 42.6998H119.368L115.744 46.8598V42.6998H114.304L114.296 51.3398ZM125.984 51.5798C126.842 51.5798 127.581 51.3878 128.2 51.0038C128.824 50.6198 129.304 50.0838 129.64 49.3958C129.981 48.7078 130.152 47.9132 130.152 47.0118C130.152 46.1212 129.984 45.3345 129.648 44.6518C129.317 43.9638 128.84 43.4278 128.216 43.0438C127.592 42.6545 126.848 42.4598 125.984 42.4598C125.141 42.4598 124.408 42.6518 123.784 43.0358C123.16 43.4145 122.677 43.9452 122.336 44.6278C121.994 45.3105 121.824 46.1052 121.824 47.0118C121.824 47.9025 121.989 48.6918 122.32 49.3798C122.656 50.0678 123.136 50.6065 123.76 50.9958C124.384 51.3852 125.125 51.5798 125.984 51.5798ZM125.984 50.2278C125.114 50.2278 124.456 49.9372 124.008 49.3558C123.56 48.7692 123.336 47.9878 123.336 47.0118C123.336 46.0678 123.552 45.2998 123.984 44.7078C124.416 44.1105 125.082 43.8118 125.984 43.8118C126.869 43.8118 127.533 44.1025 127.976 44.6838C128.418 45.2652 128.64 46.0412 128.64 47.0118C128.64 47.9612 128.418 48.7345 127.976 49.3318C127.538 49.9292 126.874 50.2278 125.984 50.2278ZM135.633 41.6918C136.038 41.6918 136.404 41.5932 136.729 41.3958C137.06 41.1985 137.324 40.9345 137.521 40.6038C137.718 40.2732 137.817 39.9078 137.817 39.5078H136.665C136.665 39.7905 136.564 40.0332 136.361 40.2358C136.164 40.4385 135.921 40.5398 135.633 40.5398C135.35 40.5398 135.108 40.4385 134.905 40.2358C134.702 40.0332 134.601 39.7905 134.601 39.5078H133.449C133.449 39.9078 133.548 40.2732 133.745 40.6038C133.942 40.9345 134.206 41.1985 134.537 41.3958C134.868 41.5932 135.233 41.6918 135.633 41.6918ZM138.985 42.6998H137.817L133.281 48.9798V42.6998H131.905V51.3398H133.081L137.609 44.9718V51.3398H138.985V42.6998ZM143.513 51.3398H144.937V43.9958H147.945V42.6998H140.505V43.9958H143.513V51.3398ZM153.204 51.5798C154.041 51.5798 154.796 51.3718 155.468 50.9558C156.14 50.5345 156.647 49.9425 156.988 49.1798L155.62 48.7078C155.124 49.7212 154.297 50.2278 153.14 50.2278C152.345 50.2278 151.721 49.9852 151.268 49.4998C150.82 49.0092 150.567 48.3158 150.508 47.4198H157.132C157.175 46.3958 157.041 45.5132 156.732 44.7718C156.428 44.0305 155.969 43.4598 155.356 43.0598C154.748 42.6598 154.009 42.4598 153.14 42.4598C152.303 42.4598 151.572 42.6492 150.948 43.0278C150.324 43.4012 149.839 43.9345 149.492 44.6278C149.151 45.3158 148.98 46.1318 148.98 47.0758C148.98 47.9772 149.153 48.7665 149.5 49.4438C149.852 50.1158 150.345 50.6412 150.98 51.0198C151.615 51.3932 152.356 51.5798 153.204 51.5798ZM153.188 43.7398C154.655 43.7398 155.476 44.5852 155.652 46.2758H150.532C150.633 45.4545 150.908 44.8278 151.356 44.3958C151.804 43.9585 152.415 43.7398 153.188 43.7398ZM162.553 51.5798C163.444 51.5798 164.206 51.3665 164.841 50.9398C165.476 50.5132 165.945 49.8972 166.249 49.0918L164.809 48.7158C164.409 49.7238 163.657 50.2278 162.553 50.2278C161.694 50.2278 161.046 49.9345 160.609 49.3478C160.177 48.7612 159.956 47.9852 159.945 47.0198C159.956 46.0812 160.172 45.3132 160.593 44.7158C161.014 44.1132 161.668 43.8118 162.553 43.8118C163.076 43.8118 163.542 43.9505 163.953 44.2278C164.364 44.5052 164.66 44.8945 164.841 45.3958L166.249 44.9718C166.02 44.1932 165.574 43.5798 164.913 43.1318C164.257 42.6838 163.476 42.4598 162.569 42.4598C161.705 42.4598 160.964 42.6545 160.345 43.0438C159.732 43.4278 159.262 43.9612 158.937 44.6438C158.612 45.3265 158.444 46.1185 158.433 47.0198C158.444 47.8998 158.609 48.6838 158.929 49.3718C159.249 50.0598 159.713 50.6012 160.321 50.9958C160.934 51.3852 161.678 51.5798 162.553 51.5798ZM167.882 51.3398H171.25C171.495 51.3398 171.754 51.3345 172.026 51.3238C172.303 51.3078 172.548 51.2758 172.762 51.2278C173.386 51.0892 173.89 50.8012 174.274 50.3638C174.663 49.9265 174.858 49.3345 174.858 48.5878C174.858 47.7772 174.65 47.1638 174.234 46.7478C173.823 46.3265 173.284 46.0492 172.618 45.9158C172.42 45.8785 172.191 45.8545 171.93 45.8438C171.674 45.8332 171.42 45.8278 171.17 45.8278H169.306V42.6998H167.874L167.882 51.3398ZM169.306 50.1638V47.0038H171.274C171.428 47.0038 171.591 47.0092 171.762 47.0198C171.932 47.0305 172.095 47.0545 172.25 47.0918C172.586 47.1665 172.86 47.3238 173.074 47.5638C173.287 47.8038 173.394 48.1452 173.394 48.5878C173.394 49.0252 173.284 49.3638 173.066 49.6038C172.847 49.8385 172.604 49.9932 172.338 50.0678C172.178 50.1105 171.999 50.1372 171.802 50.1478C171.604 50.1585 171.428 50.1638 171.274 50.1638H169.306ZM176.456 53.1318C176.952 53.2225 177.336 53.1265 177.608 52.8438C177.885 52.5612 178.024 52.1398 178.024 51.5798V49.5318H176.456V51.3398H177.28C177.307 51.6598 177.272 51.9318 177.176 52.1558C177.085 52.3852 176.875 52.4892 176.544 52.4678L176.456 53.1318ZM187.912 51.5798C188.803 51.5798 189.566 51.3665 190.2 50.9398C190.835 50.5132 191.304 49.8972 191.608 49.0918L190.168 48.7158C189.768 49.7238 189.016 50.2278 187.912 50.2278C187.054 50.2278 186.406 49.9345 185.968 49.3478C185.536 48.7612 185.315 47.9852 185.304 47.0198C185.315 46.0812 185.531 45.3132 185.952 44.7158C186.374 44.1132 187.027 43.8118 187.912 43.8118C188.435 43.8118 188.902 43.9505 189.312 44.2278C189.723 44.5052 190.019 44.8945 190.2 45.3958L191.608 44.9718C191.379 44.1932 190.934 43.5798 190.272 43.1318C189.616 42.6838 188.835 42.4598 187.928 42.4598C187.064 42.4598 186.323 42.6545 185.704 43.0438C185.091 43.4278 184.622 43.9612 184.296 44.6438C183.971 45.3265 183.803 46.1185 183.792 47.0198C183.803 47.8998 183.968 48.6838 184.288 49.3718C184.608 50.0598 185.072 50.6012 185.68 50.9958C186.294 51.3852 187.038 51.5798 187.912 51.5798ZM196.985 51.5798C197.822 51.5798 198.577 51.3718 199.249 50.9558C199.921 50.5345 200.428 49.9425 200.769 49.1798L199.401 48.7078C198.905 49.7212 198.078 50.2278 196.921 50.2278C196.126 50.2278 195.502 49.9852 195.049 49.4998C194.601 49.0092 194.348 48.3158 194.289 47.4198H200.913C200.956 46.3958 200.822 45.5132 200.513 44.7718C200.209 44.0305 199.75 43.4598 199.137 43.0598C198.529 42.6598 197.79 42.4598 196.921 42.4598C196.084 42.4598 195.353 42.6492 194.729 43.0278C194.105 43.4012 193.62 43.9345 193.273 44.6278C192.932 45.3158 192.761 46.1318 192.761 47.0758C192.761 47.9772 192.934 48.7665 193.281 49.4438C193.633 50.1158 194.126 50.6412 194.761 51.0198C195.396 51.3932 196.137 51.5798 196.985 51.5798ZM196.969 43.7398C198.436 43.7398 199.257 44.5852 199.433 46.2758H194.313C194.414 45.4545 194.689 44.8278 195.137 44.3958C195.585 43.9585 196.196 43.7398 196.969 43.7398ZM206.414 41.6918C206.82 41.6918 207.185 41.5932 207.51 41.3958C207.841 41.1985 208.105 40.9345 208.302 40.6038C208.5 40.2732 208.598 39.9078 208.598 39.5078H207.446C207.446 39.7905 207.345 40.0332 207.142 40.2358C206.945 40.4385 206.702 40.5398 206.414 40.5398C206.132 40.5398 205.889 40.4385 205.686 40.2358C205.484 40.0332 205.382 39.7905 205.382 39.5078H204.23C204.23 39.9078 204.329 40.2732 204.526 40.6038C204.724 40.9345 204.988 41.1985 205.318 41.3958C205.649 41.5932 206.014 41.6918 206.414 41.6918ZM209.766 42.6998H208.598L204.062 48.9798V42.6998H202.686V51.3398H203.862L208.39 44.9718V51.3398H209.766V42.6998ZM217.207 51.3398H218.639V42.6998H217.207V46.9078C216.961 47.0838 216.663 47.2252 216.311 47.3318C215.959 47.4385 215.577 47.4918 215.167 47.4918C214.548 47.4918 214.068 47.3612 213.727 47.0998C213.391 46.8332 213.169 46.4332 213.063 45.8998C213.02 45.6865 212.993 45.4678 212.983 45.2438C212.972 45.0198 212.967 44.8278 212.967 44.6678V42.6998H211.527V44.6678C211.527 44.8012 211.532 45.0492 211.543 45.4118C211.559 45.7745 211.601 46.1212 211.671 46.4518C211.831 47.1932 212.18 47.7612 212.719 48.1558C213.263 48.5505 213.975 48.7478 214.855 48.7478C215.313 48.7478 215.745 48.6998 216.151 48.6038C216.561 48.5025 216.913 48.3772 217.207 48.2278V51.3398ZM223.338 51.5798C224.778 51.5798 225.844 51.0518 226.538 49.9958V51.3398H227.802V45.9958C227.802 45.6545 227.786 45.3292 227.754 45.0198C227.722 44.7052 227.644 44.4145 227.522 44.1478C227.276 43.5825 226.871 43.1612 226.306 42.8838C225.74 42.6012 225.068 42.4598 224.29 42.4598C223.314 42.4598 222.524 42.6758 221.922 43.1078C221.324 43.5398 220.924 44.1345 220.722 44.8918L222.074 45.2998C222.228 44.7718 222.503 44.3878 222.898 44.1478C223.292 43.9078 223.751 43.7878 224.274 43.7878C225.02 43.7878 225.556 43.9558 225.882 44.2918C226.212 44.6225 226.386 45.1318 226.402 45.8198C225.762 45.9105 225.09 46.0065 224.386 46.1078C223.687 46.2038 223.066 46.3238 222.522 46.4678C221.866 46.6598 221.348 46.9612 220.97 47.3718C220.591 47.7772 220.402 48.3212 220.402 49.0038C220.402 49.4678 220.511 49.8945 220.73 50.2838C220.954 50.6732 221.282 50.9878 221.714 51.2278C222.151 51.4625 222.692 51.5798 223.338 51.5798ZM223.554 50.3878C222.94 50.3878 222.498 50.2465 222.226 49.9638C221.954 49.6758 221.818 49.3532 221.818 48.9958C221.818 48.5905 221.951 48.2812 222.218 48.0678C222.49 47.8492 222.804 47.6838 223.162 47.5718C223.583 47.4545 224.074 47.3558 224.634 47.2758C225.194 47.1958 225.778 47.1158 226.386 47.0358C226.386 47.2332 226.375 47.4572 226.354 47.7078C226.338 47.9585 226.3 48.1878 226.242 48.3958C226.14 48.9292 225.858 49.3958 225.394 49.7958C224.935 50.1905 224.322 50.3878 223.554 50.3878ZM233.522 51.5798C234.412 51.5798 235.175 51.3665 235.81 50.9398C236.444 50.5132 236.914 49.8972 237.218 49.0918L235.778 48.7158C235.378 49.7238 234.626 50.2278 233.522 50.2278C232.663 50.2278 232.015 49.9345 231.578 49.3478C231.146 48.7612 230.924 47.9852 230.914 47.0198C230.924 46.0812 231.14 45.3132 231.562 44.7158C231.983 44.1132 232.636 43.8118 233.522 43.8118C234.044 43.8118 234.511 43.9505 234.922 44.2278C235.332 44.5052 235.628 44.8945 235.81 45.3958L237.218 44.9718C236.988 44.1932 236.543 43.5798 235.882 43.1318C235.226 42.6838 234.444 42.4598 233.538 42.4598C232.674 42.4598 231.932 42.6545 231.314 43.0438C230.7 43.4278 230.231 43.9612 229.906 44.6438C229.58 45.3265 229.412 46.1185 229.402 47.0198C229.412 47.8998 229.578 48.6838 229.898 49.3718C230.218 50.0598 230.682 50.6012 231.29 50.9958C231.903 51.3852 232.647 51.5798 233.522 51.5798ZM242.046 51.3398H246.142C246.376 51.3398 246.619 51.3318 246.87 51.3158C247.12 51.2945 247.35 51.2545 247.558 51.1958C248.054 51.0572 248.443 50.7958 248.726 50.4118C249.008 50.0278 249.15 49.5425 249.15 48.9558C249.15 48.4972 249.062 48.1185 248.886 47.8198C248.71 47.5158 248.472 47.2812 248.174 47.1158C247.976 47.0038 247.787 46.9318 247.606 46.8998C247.808 46.8198 247.992 46.6972 248.158 46.5318C248.334 46.3612 248.472 46.1558 248.574 45.9158C248.675 45.6705 248.726 45.3852 248.726 45.0598C248.726 44.4785 248.574 43.9985 248.27 43.6198C247.966 43.2412 247.584 42.9878 247.126 42.8598C246.918 42.8012 246.686 42.7612 246.43 42.7398C246.179 42.7132 245.944 42.6998 245.726 42.6998H242.046V51.3398ZM243.486 46.4358V43.8758H245.51C245.568 43.8758 245.702 43.8812 245.91 43.8918C246.118 43.9025 246.31 43.9372 246.486 43.9958C246.736 44.0812 246.926 44.2305 247.054 44.4438C247.182 44.6518 247.246 44.8918 247.246 45.1638C247.246 45.4145 247.187 45.6465 247.07 45.8598C246.952 46.0678 246.774 46.2172 246.534 46.3078C246.411 46.3558 246.264 46.3905 246.094 46.4118C245.928 46.4278 245.774 46.4358 245.63 46.4358H243.486ZM243.486 50.1798V47.6118H245.934C246.03 47.6118 246.142 47.6145 246.27 47.6198C246.403 47.6252 246.528 47.6438 246.646 47.6758C246.95 47.7292 247.198 47.8625 247.39 48.0758C247.582 48.2892 247.678 48.5665 247.678 48.9078C247.678 49.1638 247.614 49.4038 247.486 49.6278C247.363 49.8465 247.163 49.9932 246.886 50.0678C246.763 50.1052 246.622 50.1345 246.462 50.1558C246.307 50.1718 246.174 50.1798 246.062 50.1798H243.486ZM254.397 51.5798C255.287 51.5798 256.05 51.3665 256.685 50.9398C257.319 50.5132 257.789 49.8972 258.093 49.0918L256.653 48.7158C256.253 49.7238 255.501 50.2278 254.397 50.2278C253.538 50.2278 252.89 49.9345 252.453 49.3478C252.021 48.7612 251.799 47.9852 251.789 47.0198C251.799 46.0812 252.015 45.3132 252.437 44.7158C252.858 44.1132 253.511 43.8118 254.397 43.8118C254.919 43.8118 255.386 43.9505 255.797 44.2278C256.207 44.5052 256.503 44.8945 256.685 45.3958L258.093 44.9718C257.863 44.1932 257.418 43.5798 256.757 43.1318C256.101 42.6838 255.319 42.4598 254.413 42.4598C253.549 42.4598 252.807 42.6545 252.189 43.0438C251.575 43.4278 251.106 43.9612 250.781 44.6438C250.455 45.3265 250.287 46.1185 250.277 47.0198C250.287 47.8998 250.453 48.6838 250.773 49.3718C251.093 50.0598 251.557 50.6012 252.165 50.9958C252.778 51.3852 253.522 51.5798 254.397 51.5798ZM263.469 51.5798C264.307 51.5798 265.061 51.3718 265.733 50.9558C266.405 50.5345 266.912 49.9425 267.253 49.1798L265.885 48.7078C265.389 49.7212 264.563 50.2278 263.405 50.2278C262.611 50.2278 261.987 49.9852 261.533 49.4998C261.085 49.0092 260.832 48.3158 260.773 47.4198H267.397C267.44 46.3958 267.307 45.5132 266.997 44.7718C266.693 44.0305 266.235 43.4598 265.621 43.0598C265.013 42.6598 264.275 42.4598 263.405 42.4598C262.568 42.4598 261.837 42.6492 261.213 43.0278C260.589 43.4012 260.104 43.9345 259.757 44.6278C259.416 45.3158 259.245 46.1318 259.245 47.0758C259.245 47.9772 259.419 48.7665 259.765 49.4438C260.117 50.1158 260.611 50.6412 261.245 51.0198C261.88 51.3932 262.621 51.5798 263.469 51.5798ZM263.453 43.7398C264.92 43.7398 265.741 44.5852 265.917 46.2758H260.797C260.899 45.4545 261.173 44.8278 261.621 44.3958C262.069 43.9585 262.68 43.7398 263.453 43.7398ZM276.022 51.5798C276.912 51.5798 277.675 51.3665 278.31 50.9398C278.944 50.5132 279.414 49.8972 279.718 49.0918L278.278 48.7158C277.878 49.7238 277.126 50.2278 276.022 50.2278C275.163 50.2278 274.515 49.9345 274.078 49.3478C273.646 48.7612 273.424 47.9852 273.414 47.0198C273.424 46.0812 273.64 45.3132 274.062 44.7158C274.483 44.1132 275.136 43.8118 276.022 43.8118C276.544 43.8118 277.011 43.9505 277.422 44.2278C277.832 44.5052 278.128 44.8945 278.31 45.3958L279.718 44.9718C279.488 44.1932 279.043 43.5798 278.382 43.1318C277.726 42.6838 276.944 42.4598 276.038 42.4598C275.174 42.4598 274.432 42.6545 273.814 43.0438C273.2 43.4278 272.731 43.9612 272.406 44.6438C272.08 45.3265 271.912 46.1185 271.902 47.0198C271.912 47.8998 272.078 48.6838 272.398 49.3718C272.718 50.0598 273.182 50.6012 273.79 50.9958C274.403 51.3852 275.147 51.5798 276.022 51.5798ZM280.476 53.2598H281.836V51.3398H287.916V53.2598H289.276V50.1638H288.436V42.6998H282.484C282.431 43.9318 282.369 44.9718 282.3 45.8198C282.236 46.6625 282.143 47.4278 282.02 48.1158C281.892 48.8465 281.721 49.3718 281.508 49.6918C281.3 50.0065 280.956 50.1638 280.476 50.1638V53.2598ZM282.668 50.1638C282.86 49.9772 283.001 49.7452 283.092 49.4678C283.188 49.1905 283.271 48.8492 283.34 48.4438C283.42 48.0652 283.487 47.6172 283.54 47.0998C283.593 46.5772 283.639 46.0358 283.676 45.4758C283.713 44.9105 283.745 44.3772 283.772 43.8758H287.012V50.1638H282.668ZM294.626 51.5798C295.463 51.5798 296.218 51.3718 296.89 50.9558C297.562 50.5345 298.068 49.9425 298.41 49.1798L297.042 48.7078C296.546 49.7212 295.719 50.2278 294.562 50.2278C293.767 50.2278 293.143 49.9852 292.69 49.4998C292.242 49.0092 291.988 48.3158 291.93 47.4198H298.554C298.596 46.3958 298.463 45.5132 298.154 44.7718C297.85 44.0305 297.391 43.4598 296.778 43.0598C296.17 42.6598 295.431 42.4598 294.562 42.4598C293.724 42.4598 292.994 42.6492 292.37 43.0278C291.746 43.4012 291.26 43.9345 290.914 44.6278C290.572 45.3158 290.402 46.1318 290.402 47.0758C290.402 47.9772 290.575 48.7665 290.922 49.4438C291.274 50.1158 291.767 50.6412 292.402 51.0198C293.036 51.3932 293.778 51.5798 294.626 51.5798ZM294.61 43.7398C296.076 43.7398 296.898 44.5852 297.074 46.2758H291.954C292.055 45.4545 292.33 44.8278 292.778 44.3958C293.226 43.9585 293.836 43.7398 294.61 43.7398ZM299.535 51.3398C300.116 51.4572 300.578 51.4678 300.919 51.3718C301.26 51.2812 301.522 51.0812 301.703 50.7718C301.884 50.4572 302.026 50.0385 302.127 49.5158C302.207 49.1105 302.282 48.6065 302.351 48.0038C302.426 47.4012 302.492 46.7558 302.551 46.0678C302.615 45.3798 302.671 44.7078 302.719 44.0518H306.039V51.3398H307.463V42.6998H301.423C301.348 43.9852 301.266 45.1425 301.175 46.1718C301.09 47.1958 300.98 48.0865 300.847 48.8438C300.762 49.3292 300.642 49.6838 300.487 49.9078C300.332 50.1318 300.015 50.2012 299.535 50.1158V51.3398ZM312.166 51.5798C313.606 51.5798 314.673 51.0518 315.366 49.9958V51.3398H316.63V45.9958C316.63 45.6545 316.614 45.3292 316.582 45.0198C316.55 44.7052 316.473 44.4145 316.35 44.1478C316.105 43.5825 315.699 43.1612 315.134 42.8838C314.569 42.6012 313.897 42.4598 313.118 42.4598C312.142 42.4598 311.353 42.6758 310.75 43.1078C310.153 43.5398 309.753 44.1345 309.55 44.8918L310.902 45.2998C311.057 44.7718 311.331 44.3878 311.726 44.1478C312.121 43.9078 312.579 43.7878 313.102 43.7878C313.849 43.7878 314.385 43.9558 314.71 44.2918C315.041 44.6225 315.214 45.1318 315.23 45.8198C314.59 45.9105 313.918 46.0065 313.214 46.1078C312.515 46.2038 311.894 46.3238 311.35 46.4678C310.694 46.6598 310.177 46.9612 309.798 47.3718C309.419 47.7772 309.23 48.3212 309.23 49.0038C309.23 49.4678 309.339 49.8945 309.558 50.2838C309.782 50.6732 310.11 50.9878 310.542 51.2278C310.979 51.4625 311.521 51.5798 312.166 51.5798ZM312.382 50.3878C311.769 50.3878 311.326 50.2465 311.054 49.9638C310.782 49.6758 310.646 49.3532 310.646 48.9958C310.646 48.5905 310.779 48.2812 311.046 48.0678C311.318 47.8492 311.633 47.6838 311.99 47.5718C312.411 47.4545 312.902 47.3558 313.462 47.2758C314.022 47.1958 314.606 47.1158 315.214 47.0358C315.214 47.2332 315.203 47.4572 315.182 47.7078C315.166 47.9585 315.129 48.1878 315.07 48.3958C314.969 48.9292 314.686 49.3958 314.222 49.7958C313.763 50.1905 313.15 50.3878 312.382 50.3878ZM322.454 51.5798C323.291 51.5798 324.046 51.3718 324.718 50.9558C325.39 50.5345 325.897 49.9425 326.238 49.1798L324.87 48.7078C324.374 49.7212 323.547 50.2278 322.39 50.2278C321.595 50.2278 320.971 49.9852 320.518 49.4998C320.07 49.0092 319.817 48.3158 319.758 47.4198H326.382C326.425 46.3958 326.291 45.5132 325.982 44.7718C325.678 44.0305 325.219 43.4598 324.606 43.0598C323.998 42.6598 323.259 42.4598 322.39 42.4598C321.553 42.4598 320.822 42.6492 320.198 43.0278C319.574 43.4012 319.089 43.9345 318.742 44.6278C318.401 45.3158 318.23 46.1318 318.23 47.0758C318.23 47.9772 318.403 48.7665 318.75 49.4438C319.102 50.1158 319.595 50.6412 320.23 51.0198C320.865 51.3932 321.606 51.5798 322.454 51.5798ZM322.438 43.7398C323.905 43.7398 324.726 44.5852 324.902 46.2758H319.782C319.883 45.4545 320.158 44.8278 320.606 44.3958C321.054 43.9585 321.665 43.7398 322.438 43.7398ZM327.921 51.3398H329.297V45.6678L332.049 51.3398H332.801L335.553 45.6678V51.3398H336.929V42.6998H335.705L332.425 49.4038L329.145 42.6998H327.921V51.3398ZM339.419 51.3398H340.987V49.7718H339.419V51.3398ZM346.679 51.3398H348.103V46.2518H354.167V51.3398H355.591V39.8198H354.167V44.8998H348.103V39.8198H346.679V51.3398ZM360.291 51.5798C361.731 51.5798 362.798 51.0518 363.491 49.9958V51.3398H364.755V45.9958C364.755 45.6545 364.739 45.3292 364.707 45.0198C364.675 44.7052 364.598 44.4145 364.475 44.1478C364.23 43.5825 363.824 43.1612 363.259 42.8838C362.694 42.6012 362.022 42.4598 361.243 42.4598C360.267 42.4598 359.478 42.6758 358.875 43.1078C358.278 43.5398 357.878 44.1345 357.675 44.8918L359.027 45.2998C359.182 44.7718 359.456 44.3878 359.851 44.1478C360.246 43.9078 360.704 43.7878 361.227 43.7878C361.974 43.7878 362.51 43.9558 362.835 44.2918C363.166 44.6225 363.339 45.1318 363.355 45.8198C362.715 45.9105 362.043 46.0065 361.339 46.1078C360.64 46.2038 360.019 46.3238 359.475 46.4678C358.819 46.6598 358.302 46.9612 357.923 47.3718C357.544 47.7772 357.355 48.3212 357.355 49.0038C357.355 49.4678 357.464 49.8945 357.683 50.2838C357.907 50.6732 358.235 50.9878 358.667 51.2278C359.104 51.4625 359.646 51.5798 360.291 51.5798ZM360.507 50.3878C359.894 50.3878 359.451 50.2465 359.179 49.9638C358.907 49.6758 358.771 49.3532 358.771 48.9958C358.771 48.5905 358.904 48.2812 359.171 48.0678C359.443 47.8492 359.758 47.6838 360.115 47.5718C360.536 47.4545 361.027 47.3558 361.587 47.2758C362.147 47.1958 362.731 47.1158 363.339 47.0358C363.339 47.2332 363.328 47.4572 363.307 47.7078C363.291 47.9585 363.254 48.1878 363.195 48.3958C363.094 48.9292 362.811 49.3958 362.347 49.7958C361.888 50.1905 361.275 50.3878 360.507 50.3878ZM366.827 51.3398H368.251V44.0518H372.483V51.3398H373.907V42.6998H366.827V51.3398ZM383.219 42.6998H382.051L377.515 48.9798V42.6998H376.139V51.3398H377.315L381.843 44.9718V51.3398H383.219V42.6998ZM385.452 51.3398H395.524V42.6998H394.148V50.0438H391.18V42.6998H389.804V50.0438H386.828V42.6998H385.452V51.3398ZM404.829 42.6998H403.661L399.125 48.9798V42.6998H397.749V51.3398H398.925L403.453 44.9718V51.3398H404.829V42.6998ZM409.357 51.3398H410.781V43.9958H413.789V42.6998H406.349V43.9958H409.357V51.3398ZM419.048 51.5798C419.885 51.5798 420.64 51.3718 421.312 50.9558C421.984 50.5345 422.49 49.9425 422.832 49.1798L421.464 48.7078C420.968 49.7212 420.141 50.2278 418.984 50.2278C418.189 50.2278 417.565 49.9852 417.112 49.4998C416.664 49.0092 416.41 48.3158 416.352 47.4198H422.976C423.018 46.3958 422.885 45.5132 422.576 44.7718C422.272 44.0305 421.813 43.4598 421.2 43.0598C420.592 42.6598 419.853 42.4598 418.984 42.4598C418.146 42.4598 417.416 42.6492 416.792 43.0278C416.168 43.4012 415.682 43.9345 415.336 44.6278C414.994 45.3158 414.824 46.1318 414.824 47.0758C414.824 47.9772 414.997 48.7665 415.344 49.4438C415.696 50.1158 416.189 50.6412 416.824 51.0198C417.458 51.3932 418.2 51.5798 419.048 51.5798ZM419.032 43.7398C420.498 43.7398 421.32 44.5852 421.496 46.2758H416.376C416.477 45.4545 416.752 44.8278 417.2 44.3958C417.648 43.9585 418.258 43.7398 419.032 43.7398ZM424.284 53.1318C424.78 53.2225 425.164 53.1265 425.436 52.8438C425.714 52.5612 425.852 52.1398 425.852 51.5798V49.5318H424.284V51.3398H425.108C425.135 51.6598 425.1 51.9318 425.004 52.1558C424.914 52.3852 424.703 52.4892 424.372 52.4678L424.284 53.1318ZM43.7175 75.3398H45.1415V68.0518H49.3735V75.3398H50.7975V66.6998H43.7175V75.3398ZM56.718 75.5798C57.5766 75.5798 58.3153 75.3878 58.934 75.0038C59.558 74.6198 60.038 74.0838 60.374 73.3958C60.7153 72.7078 60.886 71.9132 60.886 71.0118C60.886 70.1212 60.718 69.3345 60.382 68.6518C60.0513 67.9638 59.574 67.4278 58.95 67.0438C58.326 66.6545 57.582 66.4598 56.718 66.4598C55.8753 66.4598 55.142 66.6518 54.518 67.0358C53.894 67.4145 53.4113 67.9452 53.07 68.6278C52.7286 69.3105 52.558 70.1052 52.558 71.0118C52.558 71.9025 52.7233 72.6918 53.054 73.3798C53.39 74.0678 53.87 74.6065 54.494 74.9958C55.118 75.3852 55.8593 75.5798 56.718 75.5798ZM56.718 74.2278C55.8486 74.2278 55.19 73.9372 54.742 73.3558C54.294 72.7692 54.07 71.9878 54.07 71.0118C54.07 70.0678 54.286 69.2998 54.718 68.7078C55.15 68.1105 55.8166 67.8118 56.718 67.8118C57.6033 67.8118 58.2673 68.1025 58.71 68.6838C59.1526 69.2652 59.374 70.0412 59.374 71.0118C59.374 71.9612 59.1526 72.7345 58.71 73.3318C58.2726 73.9292 57.6086 74.2278 56.718 74.2278ZM61.4842 75.3398H63.1402L66.4442 71.0998V75.3398H67.7402V71.0998L71.0442 75.3398H72.7002L69.2122 71.0198L72.5322 66.6998H70.9482L67.7402 70.9398V66.6998H66.4442V70.9398L63.2362 66.6998H61.6522L64.9722 71.0198L61.4842 75.3398ZM76.119 75.5798C77.559 75.5798 78.6256 75.0518 79.319 73.9958V75.3398H80.583V69.9958C80.583 69.6545 80.567 69.3292 80.535 69.0198C80.503 68.7052 80.4256 68.4145 80.303 68.1478C80.0576 67.5825 79.6523 67.1612 79.087 66.8838C78.5216 66.6012 77.8496 66.4598 77.071 66.4598C76.095 66.4598 75.3056 66.6758 74.703 67.1078C74.1056 67.5398 73.7056 68.1345 73.503 68.8918L74.855 69.2998C75.0096 68.7718 75.2843 68.3878 75.679 68.1478C76.0736 67.9078 76.5323 67.7878 77.055 67.7878C77.8016 67.7878 78.3376 67.9558 78.663 68.2918C78.9936 68.6225 79.167 69.1318 79.183 69.8198C78.543 69.9105 77.871 70.0065 77.167 70.1078C76.4683 70.2038 75.847 70.3238 75.303 70.4678C74.647 70.6598 74.1296 70.9612 73.751 71.3718C73.3723 71.7772 73.183 72.3212 73.183 73.0038C73.183 73.4678 73.2923 73.8945 73.511 74.2838C73.735 74.6732 74.063 74.9878 74.495 75.2278C74.9323 75.4625 75.4736 75.5798 76.119 75.5798ZM76.335 74.3878C75.7216 74.3878 75.279 74.2465 75.007 73.9638C74.735 73.6758 74.599 73.3532 74.599 72.9958C74.599 72.5905 74.7323 72.2812 74.999 72.0678C75.271 71.8492 75.5856 71.6838 75.943 71.5718C76.3643 71.4545 76.855 71.3558 77.415 71.2758C77.975 71.1958 78.559 71.1158 79.167 71.0358C79.167 71.2332 79.1563 71.4572 79.135 71.7078C79.119 71.9585 79.0816 72.1878 79.023 72.3958C78.9216 72.9292 78.639 73.3958 78.175 73.7958C77.7163 74.1905 77.103 74.3878 76.335 74.3878ZM81.863 75.3398C82.4443 75.4572 82.9056 75.4678 83.247 75.3718C83.5883 75.2812 83.8496 75.0812 84.031 74.7718C84.2123 74.4572 84.3536 74.0385 84.455 73.5158C84.535 73.1105 84.6096 72.6065 84.679 72.0038C84.7536 71.4012 84.8203 70.7558 84.879 70.0678C84.943 69.3798 84.999 68.7078 85.047 68.0518H88.367V75.3398H89.791V66.6998H83.751C83.6763 67.9852 83.5936 69.1425 83.503 70.1718C83.4176 71.1958 83.3083 72.0865 83.175 72.8438C83.0896 73.3292 82.9696 73.6838 82.815 73.9078C82.6603 74.1318 82.343 74.2012 81.863 74.1158V75.3398ZM93.238 79.1798H94.622L99.326 66.6998H97.878L95.35 73.4998L92.654 66.6998H91.158L94.662 75.3078L93.238 79.1798ZM104.367 65.6918C104.773 65.6918 105.138 65.5932 105.463 65.3958C105.794 65.1985 106.058 64.9345 106.255 64.6038C106.453 64.2732 106.551 63.9078 106.551 63.5078H105.399C105.399 63.7905 105.298 64.0332 105.095 64.2358C104.898 64.4385 104.655 64.5398 104.367 64.5398C104.085 64.5398 103.842 64.4385 103.639 64.2358C103.437 64.0332 103.335 63.7905 103.335 63.5078H102.183C102.183 63.9078 102.282 64.2732 102.479 64.6038C102.677 64.9345 102.941 65.1985 103.271 65.3958C103.602 65.5932 103.967 65.6918 104.367 65.6918ZM107.719 66.6998H106.551L102.015 72.9798V66.6998H100.639V75.3398H101.815L106.343 68.9718V75.3398H107.719V66.6998ZM113.6 75.5798C114.491 75.5798 115.253 75.3665 115.888 74.9398C116.523 74.5132 116.992 73.8972 117.296 73.0918L115.856 72.7158C115.456 73.7238 114.704 74.2278 113.6 74.2278C112.741 74.2278 112.093 73.9345 111.656 73.3478C111.224 72.7612 111.003 71.9852 110.992 71.0198C111.003 70.0812 111.219 69.3132 111.64 68.7158C112.061 68.1132 112.715 67.8118 113.6 67.8118C114.123 67.8118 114.589 67.9505 115 68.2278C115.411 68.5052 115.707 68.8945 115.888 69.3958L117.296 68.9718C117.067 68.1932 116.621 67.5798 115.96 67.1318C115.304 66.6838 114.523 66.4598 113.616 66.4598C112.752 66.4598 112.011 66.6545 111.392 67.0438C110.779 67.4278 110.309 67.9612 109.984 68.6438C109.659 69.3265 109.491 70.1185 109.48 71.0198C109.491 71.8998 109.656 72.6838 109.976 73.3718C110.296 74.0598 110.76 74.6012 111.368 74.9958C111.981 75.3852 112.725 75.5798 113.6 75.5798ZM121.06 75.3398H122.484V67.9958H125.492V66.6998H118.052V67.9958H121.06V75.3398ZM129.181 75.5798C130.621 75.5798 131.688 75.0518 132.381 73.9958V75.3398H133.645V69.9958C133.645 69.6545 133.629 69.3292 133.597 69.0198C133.565 68.7052 133.488 68.4145 133.365 68.1478C133.12 67.5825 132.715 67.1612 132.149 66.8838C131.584 66.6012 130.912 66.4598 130.133 66.4598C129.157 66.4598 128.368 66.6758 127.765 67.1078C127.168 67.5398 126.768 68.1345 126.565 68.8918L127.917 69.2998C128.072 68.7718 128.347 68.3878 128.741 68.1478C129.136 67.9078 129.595 67.7878 130.117 67.7878C130.864 67.7878 131.4 67.9558 131.725 68.2918C132.056 68.6225 132.229 69.1318 132.245 69.8198C131.605 69.9105 130.933 70.0065 130.229 70.1078C129.531 70.2038 128.909 70.3238 128.365 70.4678C127.709 70.6598 127.192 70.9612 126.813 71.3718C126.435 71.7772 126.245 72.3212 126.245 73.0038C126.245 73.4678 126.355 73.8945 126.573 74.2838C126.797 74.6732 127.125 74.9878 127.557 75.2278C127.995 75.4625 128.536 75.5798 129.181 75.5798ZM129.397 74.3878C128.784 74.3878 128.341 74.2465 128.069 73.9638C127.797 73.6758 127.661 73.3532 127.661 72.9958C127.661 72.5905 127.795 72.2812 128.061 72.0678C128.333 71.8492 128.648 71.6838 129.005 71.5718C129.427 71.4545 129.917 71.3558 130.477 71.2758C131.037 71.1958 131.621 71.1158 132.229 71.0358C132.229 71.2332 132.219 71.4572 132.197 71.7078C132.181 71.9585 132.144 72.1878 132.085 72.3958C131.984 72.9292 131.701 73.3958 131.237 73.7958C130.779 74.1905 130.165 74.3878 129.397 74.3878ZM141.385 75.5798C142.825 75.5798 143.891 75.0518 144.585 73.9958V75.3398H145.849V69.9958C145.849 69.6545 145.833 69.3292 145.801 69.0198C145.769 68.7052 145.691 68.4145 145.569 68.1478C145.323 67.5825 144.918 67.1612 144.353 66.8838C143.787 66.6012 143.115 66.4598 142.337 66.4598C141.361 66.4598 140.571 66.6758 139.969 67.1078C139.371 67.5398 138.971 68.1345 138.769 68.8918L140.121 69.2998C140.275 68.7718 140.55 68.3878 140.945 68.1478C141.339 67.9078 141.798 67.7878 142.321 67.7878C143.067 67.7878 143.603 67.9558 143.929 68.2918C144.259 68.6225 144.433 69.1318 144.449 69.8198C143.809 69.9105 143.137 70.0065 142.433 70.1078C141.734 70.2038 141.113 70.3238 140.569 70.4678C139.913 70.6598 139.395 70.9612 139.017 71.3718C138.638 71.7772 138.449 72.3212 138.449 73.0038C138.449 73.4678 138.558 73.8945 138.777 74.2838C139.001 74.6732 139.329 74.9878 139.761 75.2278C140.198 75.4625 140.739 75.5798 141.385 75.5798ZM141.601 74.3878C140.987 74.3878 140.545 74.2465 140.273 73.9638C140.001 73.6758 139.865 73.3532 139.865 72.9958C139.865 72.5905 139.998 72.2812 140.265 72.0678C140.537 71.8492 140.851 71.6838 141.209 71.5718C141.63 71.4545 142.121 71.3558 142.681 71.2758C143.241 71.1958 143.825 71.1158 144.433 71.0358C144.433 71.2332 144.422 71.4572 144.401 71.7078C144.385 71.9585 144.347 72.1878 144.289 72.3958C144.187 72.9292 143.905 73.3958 143.441 73.7958C142.982 74.1905 142.369 74.3878 141.601 74.3878ZM147.289 77.2598H148.649V75.3398H154.729V77.2598H156.089V74.1638H155.249V66.6998H149.297C149.243 67.9318 149.182 68.9718 149.113 69.8198C149.049 70.6625 148.955 71.4278 148.833 72.1158C148.705 72.8465 148.534 73.3718 148.321 73.6918C148.113 74.0065 147.769 74.1638 147.289 74.1638V77.2598ZM149.481 74.1638C149.673 73.9772 149.814 73.7452 149.905 73.4678C150.001 73.1905 150.083 72.8492 150.153 72.4438C150.233 72.0652 150.299 71.6172 150.353 71.0998C150.406 70.5772 150.451 70.0358 150.489 69.4758C150.526 68.9105 150.558 68.3772 150.585 67.8758H153.825V74.1638H149.481ZM157.686 79.1798H159.118V74.5398C159.428 74.8652 159.793 75.1212 160.214 75.3078C160.641 75.4892 161.124 75.5798 161.662 75.5798C162.468 75.5798 163.158 75.3798 163.734 74.9798C164.316 74.5745 164.761 74.0278 165.07 73.3398C165.38 72.6518 165.534 71.8758 165.534 71.0118C165.534 70.1478 165.38 69.3718 165.07 68.6838C164.761 67.9958 164.316 67.4545 163.734 67.0598C163.158 66.6598 162.47 66.4598 161.67 66.4598C161.084 66.4598 160.564 66.5665 160.11 66.7798C159.657 66.9932 159.273 67.2892 158.958 67.6678V66.6998H157.686V79.1798ZM161.486 74.2758C160.617 74.2758 159.977 73.9692 159.566 73.3558C159.161 72.7425 158.958 71.9612 158.958 71.0118C158.958 70.0572 159.161 69.2785 159.566 68.6758C159.977 68.0678 160.604 67.7638 161.446 67.7638C162.033 67.7638 162.516 67.9078 162.894 68.1958C163.278 68.4838 163.561 68.8732 163.742 69.3638C163.929 69.8545 164.022 70.4038 164.022 71.0118C164.022 71.6252 163.929 72.1798 163.742 72.6758C163.556 73.1665 163.276 73.5558 162.902 73.8438C162.529 74.1318 162.057 74.2758 161.486 74.2758ZM171.032 75.5798C171.869 75.5798 172.624 75.3718 173.296 74.9558C173.968 74.5345 174.475 73.9425 174.816 73.1798L173.448 72.7078C172.952 73.7212 172.125 74.2278 170.968 74.2278C170.173 74.2278 169.549 73.9852 169.096 73.4998C168.648 73.0092 168.395 72.3158 168.336 71.4198H174.96C175.003 70.3958 174.869 69.5132 174.56 68.7718C174.256 68.0305 173.797 67.4598 173.184 67.0598C172.576 66.6598 171.837 66.4598 170.968 66.4598C170.131 66.4598 169.4 66.6492 168.776 67.0278C168.152 67.4012 167.667 67.9345 167.32 68.6278C166.979 69.3158 166.808 70.1318 166.808 71.0758C166.808 71.9772 166.981 72.7665 167.328 73.4438C167.68 74.1158 168.173 74.6412 168.808 75.0198C169.443 75.3932 170.184 75.5798 171.032 75.5798ZM171.016 67.7398C172.483 67.7398 173.304 68.5852 173.48 70.2758H168.36C168.461 69.4545 168.736 68.8278 169.184 68.3958C169.632 67.9585 170.243 67.7398 171.016 67.7398ZM180.381 75.5798C181.272 75.5798 182.034 75.3665 182.669 74.9398C183.304 74.5132 183.773 73.8972 184.077 73.0918L182.637 72.7158C182.237 73.7238 181.485 74.2278 180.381 74.2278C179.522 74.2278 178.874 73.9345 178.437 73.3478C178.005 72.7612 177.784 71.9852 177.773 71.0198C177.784 70.0812 178 69.3132 178.421 68.7158C178.842 68.1132 179.496 67.8118 180.381 67.8118C180.904 67.8118 181.37 67.9505 181.781 68.2278C182.192 68.5052 182.488 68.8945 182.669 69.3958L184.077 68.9718C183.848 68.1932 183.402 67.5798 182.741 67.1318C182.085 66.6838 181.304 66.4598 180.397 66.4598C179.533 66.4598 178.792 66.6545 178.173 67.0438C177.56 67.4278 177.09 67.9612 176.765 68.6438C176.44 69.3265 176.272 70.1185 176.261 71.0198C176.272 71.8998 176.437 72.6838 176.757 73.3718C177.077 74.0598 177.541 74.6012 178.149 74.9958C178.762 75.3852 179.506 75.5798 180.381 75.5798ZM188.905 75.3398H193.001C193.236 75.3398 193.478 75.3318 193.729 75.3158C193.98 75.2945 194.209 75.2545 194.417 75.1958C194.913 75.0572 195.302 74.7958 195.585 74.4118C195.868 74.0278 196.009 73.5425 196.009 72.9558C196.009 72.4972 195.921 72.1185 195.745 71.8198C195.569 71.5158 195.332 71.2812 195.033 71.1158C194.836 71.0038 194.646 70.9318 194.465 70.8998C194.668 70.8198 194.852 70.6972 195.017 70.5318C195.193 70.3612 195.332 70.1558 195.433 69.9158C195.534 69.6705 195.585 69.3852 195.585 69.0598C195.585 68.4785 195.433 67.9985 195.129 67.6198C194.825 67.2412 194.444 66.9878 193.985 66.8598C193.777 66.8012 193.545 66.7612 193.289 66.7398C193.038 66.7132 192.804 66.6998 192.585 66.6998H188.905V75.3398ZM190.345 70.4358V67.8758H192.369C192.428 67.8758 192.561 67.8812 192.769 67.8918C192.977 67.9025 193.169 67.9372 193.345 67.9958C193.596 68.0812 193.785 68.2305 193.913 68.4438C194.041 68.6518 194.105 68.8918 194.105 69.1638C194.105 69.4145 194.046 69.6465 193.929 69.8598C193.812 70.0678 193.633 70.2172 193.393 70.3078C193.27 70.3558 193.124 70.3905 192.953 70.4118C192.788 70.4278 192.633 70.4358 192.489 70.4358H190.345ZM190.345 74.1798V71.6118H192.793C192.889 71.6118 193.001 71.6145 193.129 71.6198C193.262 71.6252 193.388 71.6438 193.505 71.6758C193.809 71.7292 194.057 71.8625 194.249 72.0758C194.441 72.2892 194.537 72.5665 194.537 72.9078C194.537 73.1638 194.473 73.4038 194.345 73.6278C194.222 73.8465 194.022 73.9932 193.745 74.0678C193.622 74.1052 193.481 74.1345 193.321 74.1558C193.166 74.1718 193.033 74.1798 192.921 74.1798H190.345ZM200.072 75.5798C201.512 75.5798 202.579 75.0518 203.272 73.9958V75.3398H204.536V69.9958C204.536 69.6545 204.52 69.3292 204.488 69.0198C204.456 68.7052 204.379 68.4145 204.256 68.1478C204.011 67.5825 203.605 67.1612 203.04 66.8838C202.475 66.6012 201.803 66.4598 201.024 66.4598C200.048 66.4598 199.259 66.6758 198.656 67.1078C198.059 67.5398 197.659 68.1345 197.456 68.8918L198.808 69.2998C198.963 68.7718 199.237 68.3878 199.632 68.1478C200.027 67.9078 200.485 67.7878 201.008 67.7878C201.755 67.7878 202.291 67.9558 202.616 68.2918C202.947 68.6225 203.12 69.1318 203.136 69.8198C202.496 69.9105 201.824 70.0065 201.12 70.1078C200.421 70.2038 199.8 70.3238 199.256 70.4678C198.6 70.6598 198.083 70.9612 197.704 71.3718C197.325 71.7772 197.136 72.3212 197.136 73.0038C197.136 73.4678 197.245 73.8945 197.464 74.2838C197.688 74.6732 198.016 74.9878 198.448 75.2278C198.885 75.4625 199.427 75.5798 200.072 75.5798ZM200.288 74.3878C199.675 74.3878 199.232 74.2465 198.96 73.9638C198.688 73.6758 198.552 73.3532 198.552 72.9958C198.552 72.5905 198.685 72.2812 198.952 72.0678C199.224 71.8492 199.539 71.6838 199.896 71.5718C200.317 71.4545 200.808 71.3558 201.368 71.2758C201.928 71.1958 202.512 71.1158 203.12 71.0358C203.12 71.2332 203.109 71.4572 203.088 71.7078C203.072 71.9585 203.035 72.1878 202.976 72.3958C202.875 72.9292 202.592 73.3958 202.128 73.7958C201.669 74.1905 201.056 74.3878 200.288 74.3878ZM206.608 75.3398H216.68V66.6998H215.304V74.0438H212.336V66.6998H210.96V74.0438H207.984V66.6998H206.608V75.3398ZM222.657 75.5798C223.494 75.5798 224.249 75.3718 224.921 74.9558C225.593 74.5345 226.1 73.9425 226.441 73.1798L225.073 72.7078C224.577 73.7212 223.75 74.2278 222.593 74.2278C221.798 74.2278 221.174 73.9852 220.721 73.4998C220.273 73.0092 220.02 72.3158 219.961 71.4198H226.585C226.628 70.3958 226.494 69.5132 226.185 68.7718C225.881 68.0305 225.422 67.4598 224.809 67.0598C224.201 66.6598 223.462 66.4598 222.593 66.4598C221.756 66.4598 221.025 66.6492 220.401 67.0278C219.777 67.4012 219.292 67.9345 218.945 68.6278C218.604 69.3158 218.433 70.1318 218.433 71.0758C218.433 71.9772 218.606 72.7665 218.953 73.4438C219.305 74.1158 219.798 74.6412 220.433 75.0198C221.068 75.3932 221.809 75.5798 222.657 75.5798ZM222.641 67.7398C224.108 67.7398 224.929 68.5852 225.105 70.2758H219.985C220.086 69.4545 220.361 68.8278 220.809 68.3958C221.257 67.9585 221.868 67.7398 222.641 67.7398ZM232.086 65.6918C232.491 65.6918 232.857 65.5932 233.182 65.3958C233.513 65.1985 233.777 64.9345 233.974 64.6038C234.171 64.2732 234.27 63.9078 234.27 63.5078H233.118C233.118 63.7905 233.017 64.0332 232.814 64.2358C232.617 64.4385 232.374 64.5398 232.086 64.5398C231.803 64.5398 231.561 64.4385 231.358 64.2358C231.155 64.0332 231.054 63.7905 231.054 63.5078H229.902C229.902 63.9078 230.001 64.2732 230.198 64.6038C230.395 64.9345 230.659 65.1985 230.99 65.3958C231.321 65.5932 231.686 65.6918 232.086 65.6918ZM235.438 66.6998H234.27L229.734 72.9798V66.6998H228.358V75.3398H229.534L234.062 68.9718V75.3398H235.438V66.6998ZM243.994 75.5798C244.858 75.5798 245.596 75.3878 246.21 75.0038C246.823 74.6145 247.292 74.0785 247.618 73.3958C247.943 72.7132 248.106 71.9238 248.106 71.0278C248.106 70.1265 247.94 69.3345 247.61 68.6518C247.284 67.9638 246.815 67.4278 246.202 67.0438C245.588 66.6545 244.855 66.4598 244.002 66.4598C243.074 66.4598 242.279 66.6838 241.618 67.1318C240.962 67.5798 240.519 68.1932 240.29 68.9718L241.698 69.3958C241.884 68.8892 242.183 68.4998 242.594 68.2278C243.004 67.9505 243.479 67.8118 244.018 67.8118C244.796 67.8118 245.394 68.0572 245.81 68.5478C246.226 69.0332 246.471 69.6598 246.546 70.4278H243.01V71.6038H246.546C246.46 72.4038 246.204 73.0412 245.778 73.5158C245.356 73.9905 244.759 74.2278 243.986 74.2278C242.882 74.2278 242.13 73.7238 241.73 72.7158L240.29 73.0918C240.594 73.8972 241.063 74.5132 241.698 74.9398C242.332 75.3665 243.098 75.5798 243.994 75.5798ZM249.066 75.3398C249.647 75.4572 250.109 75.4678 250.45 75.3718C250.791 75.2812 251.053 75.0812 251.234 74.7718C251.415 74.4572 251.557 74.0385 251.658 73.5158C251.738 73.1105 251.813 72.6065 251.882 72.0038C251.957 71.4012 252.023 70.7558 252.082 70.0678C252.146 69.3798 252.202 68.7078 252.25 68.0518H255.57V75.3398H256.994V66.6998H250.954C250.879 67.9852 250.797 69.1425 250.706 70.1718C250.621 71.1958 250.511 72.0865 250.378 72.8438C250.293 73.3292 250.173 73.6838 250.018 73.9078C249.863 74.1318 249.546 74.2012 249.066 74.1158V75.3398ZM262.985 75.5798C263.822 75.5798 264.577 75.3718 265.249 74.9558C265.921 74.5345 266.428 73.9425 266.769 73.1798L265.401 72.7078C264.905 73.7212 264.078 74.2278 262.921 74.2278C262.126 74.2278 261.502 73.9852 261.049 73.4998C260.601 73.0092 260.348 72.3158 260.289 71.4198H266.913C266.956 70.3958 266.822 69.5132 266.513 68.7718C266.209 68.0305 265.75 67.4598 265.137 67.0598C264.529 66.6598 263.79 66.4598 262.921 66.4598C262.084 66.4598 261.353 66.6492 260.729 67.0278C260.105 67.4012 259.62 67.9345 259.273 68.6278C258.932 69.3158 258.761 70.1318 258.761 71.0758C258.761 71.9772 258.934 72.7665 259.281 73.4438C259.633 74.1158 260.126 74.6412 260.761 75.0198C261.396 75.3932 262.137 75.5798 262.985 75.5798ZM262.969 67.7398C264.436 67.7398 265.257 68.5852 265.433 70.2758H260.313C260.414 69.4545 260.689 68.8278 261.137 68.3958C261.585 67.9585 262.196 67.7398 262.969 67.7398ZM268.686 75.3398H270.134V71.1798L274.062 75.3398H276.054L271.79 71.0198L275.606 66.6998H273.758L270.134 70.8598V66.6998H268.694L268.686 75.3398ZM279.138 75.3398H280.562V67.9958H283.57V66.6998H276.13V67.9958H279.138V75.3398ZM285.077 79.1798H286.509V74.5398C286.818 74.8652 287.184 75.1212 287.605 75.3078C288.032 75.4892 288.514 75.5798 289.053 75.5798C289.858 75.5798 290.549 75.3798 291.125 74.9798C291.706 74.5745 292.152 74.0278 292.461 73.3398C292.77 72.6518 292.925 71.8758 292.925 71.0118C292.925 70.1478 292.77 69.3718 292.461 68.6838C292.152 67.9958 291.706 67.4545 291.125 67.0598C290.549 66.6598 289.861 66.4598 289.061 66.4598C288.474 66.4598 287.954 66.5665 287.501 66.7798C287.048 66.9932 286.664 67.2892 286.349 67.6678V66.6998H285.077V79.1798ZM288.877 74.2758C288.008 74.2758 287.368 73.9692 286.957 73.3558C286.552 72.7425 286.349 71.9612 286.349 71.0118C286.349 70.0572 286.552 69.2785 286.957 68.6758C287.368 68.0678 287.994 67.7638 288.837 67.7638C289.424 67.7638 289.906 67.9078 290.285 68.1958C290.669 68.4838 290.952 68.8732 291.133 69.3638C291.32 69.8545 291.413 70.4038 291.413 71.0118C291.413 71.6252 291.32 72.1798 291.133 72.6758C290.946 73.1665 290.666 73.5558 290.293 73.8438C289.92 74.1318 289.448 74.2758 288.877 74.2758ZM298.359 75.5798C299.217 75.5798 299.956 75.3878 300.575 75.0038C301.199 74.6198 301.679 74.0838 302.015 73.3958C302.356 72.7078 302.527 71.9132 302.527 71.0118C302.527 70.1212 302.359 69.3345 302.023 68.6518C301.692 67.9638 301.215 67.4278 300.591 67.0438C299.967 66.6545 299.223 66.4598 298.359 66.4598C297.516 66.4598 296.783 66.6518 296.159 67.0358C295.535 67.4145 295.052 67.9452 294.711 68.6278C294.369 69.3105 294.199 70.1052 294.199 71.0118C294.199 71.9025 294.364 72.6918 294.695 73.3798C295.031 74.0678 295.511 74.6065 296.135 74.9958C296.759 75.3852 297.5 75.5798 298.359 75.5798ZM298.359 74.2278C297.489 74.2278 296.831 73.9372 296.383 73.3558C295.935 72.7692 295.711 71.9878 295.711 71.0118C295.711 70.0678 295.927 69.2998 296.359 68.7078C296.791 68.1105 297.457 67.8118 298.359 67.8118C299.244 67.8118 299.908 68.1025 300.351 68.6838C300.793 69.2652 301.015 70.0412 301.015 71.0118C301.015 71.9612 300.793 72.7345 300.351 73.3318C299.913 73.9292 299.249 74.2278 298.359 74.2278ZM304.28 75.3398H305.704V71.6918H310.248V75.3398H311.672V66.6998H310.248V70.3398H305.704V66.6998H304.28V75.3398ZM313.905 75.3398H315.329V71.6918H319.873V75.3398H321.297V66.6998H319.873V70.3398H315.329V66.6998H313.905V75.3398ZM327.218 75.5798C328.077 75.5798 328.815 75.3878 329.434 75.0038C330.058 74.6198 330.538 74.0838 330.874 73.3958C331.215 72.7078 331.386 71.9132 331.386 71.0118C331.386 70.1212 331.218 69.3345 330.882 68.6518C330.551 67.9638 330.074 67.4278 329.45 67.0438C328.826 66.6545 328.082 66.4598 327.218 66.4598C326.375 66.4598 325.642 66.6518 325.018 67.0358C324.394 67.4145 323.911 67.9452 323.57 68.6278C323.229 69.3105 323.058 70.1052 323.058 71.0118C323.058 71.9025 323.223 72.6918 323.554 73.3798C323.89 74.0678 324.37 74.6065 324.994 74.9958C325.618 75.3852 326.359 75.5798 327.218 75.5798ZM327.218 74.2278C326.349 74.2278 325.69 73.9372 325.242 73.3558C324.794 72.7692 324.57 71.9878 324.57 71.0118C324.57 70.0678 324.786 69.2998 325.218 68.7078C325.65 68.1105 326.317 67.8118 327.218 67.8118C328.103 67.8118 328.767 68.1025 329.21 68.6838C329.653 69.2652 329.874 70.0412 329.874 71.0118C329.874 71.9612 329.653 72.7345 329.21 73.3318C328.773 73.9292 328.109 74.2278 327.218 74.2278ZM336.867 65.6918C337.273 65.6918 337.638 65.5932 337.963 65.3958C338.294 65.1985 338.558 64.9345 338.755 64.6038C338.953 64.2732 339.051 63.9078 339.051 63.5078H337.899C337.899 63.7905 337.798 64.0332 337.595 64.2358C337.398 64.4385 337.155 64.5398 336.867 64.5398C336.585 64.5398 336.342 64.4385 336.139 64.2358C335.937 64.0332 335.835 63.7905 335.835 63.5078H334.683C334.683 63.9078 334.782 64.2732 334.979 64.6038C335.177 64.9345 335.441 65.1985 335.771 65.3958C336.102 65.5932 336.467 65.6918 336.867 65.6918ZM340.219 66.6998H339.051L334.515 72.9798V66.6998H333.139V75.3398H334.315L338.843 68.9718V75.3398H340.219V66.6998ZM345.655 75.3398H347.079V68.0518H351.311V75.3398H352.735V66.6998H345.655V75.3398ZM358.655 75.5798C359.514 75.5798 360.253 75.3878 360.871 75.0038C361.495 74.6198 361.975 74.0838 362.311 73.3958C362.653 72.7078 362.823 71.9132 362.823 71.0118C362.823 70.1212 362.655 69.3345 362.319 68.6518C361.989 67.9638 361.511 67.4278 360.887 67.0438C360.263 66.6545 359.519 66.4598 358.655 66.4598C357.813 66.4598 357.079 66.6518 356.455 67.0358C355.831 67.4145 355.349 67.9452 355.007 68.6278C354.666 69.3105 354.495 70.1052 354.495 71.0118C354.495 71.9025 354.661 72.6918 354.991 73.3798C355.327 74.0678 355.807 74.6065 356.431 74.9958C357.055 75.3852 357.797 75.5798 358.655 75.5798ZM358.655 74.2278C357.786 74.2278 357.127 73.9372 356.679 73.3558C356.231 72.7692 356.007 71.9878 356.007 71.0118C356.007 70.0678 356.223 69.2998 356.655 68.7078C357.087 68.1105 357.754 67.8118 358.655 67.8118C359.541 67.8118 360.205 68.1025 360.647 68.6838C361.09 69.2652 361.311 70.0412 361.311 71.0118C361.311 71.9612 361.09 72.7345 360.647 73.3318C360.21 73.9292 359.546 74.2278 358.655 74.2278ZM369.785 75.3398H371.217V66.6998H369.785V70.9078C369.54 71.0838 369.241 71.2252 368.889 71.3318C368.537 71.4385 368.156 71.4918 367.745 71.4918C367.126 71.4918 366.646 71.3612 366.305 71.0998C365.969 70.8332 365.748 70.4332 365.641 69.8998C365.598 69.6865 365.572 69.4678 365.561 69.2438C365.55 69.0198 365.545 68.8278 365.545 68.6678V66.6998H364.105V68.6678C364.105 68.8012 364.11 69.0492 364.121 69.4118C364.137 69.7745 364.18 70.1212 364.249 70.4518C364.409 71.1932 364.758 71.7612 365.297 72.1558C365.841 72.5505 366.553 72.7478 367.433 72.7478C367.892 72.7478 368.324 72.6998 368.729 72.6038C369.14 72.5025 369.492 72.3772 369.785 72.2278V75.3398ZM375.748 75.3398H377.172V67.9958H380.18V66.6998H372.74V67.9958H375.748V75.3398ZM381.694 75.3398H384.518C384.764 75.3398 385.022 75.3345 385.294 75.3238C385.572 75.3078 385.817 75.2758 386.03 75.2278C386.654 75.0892 387.158 74.8012 387.542 74.3638C387.932 73.9265 388.126 73.3345 388.126 72.5878C388.126 71.7772 387.918 71.1638 387.502 70.7478C387.092 70.3265 386.553 70.0492 385.886 69.9158C385.689 69.8785 385.46 69.8545 385.198 69.8438C384.942 69.8332 384.689 69.8278 384.438 69.8278H383.118V66.6998H381.686L381.694 75.3398ZM389.118 75.3398H390.542V66.6998H389.118V75.3398ZM383.118 74.1638V71.0038H384.542C384.697 71.0038 384.86 71.0092 385.03 71.0198C385.201 71.0305 385.364 71.0545 385.518 71.0918C385.854 71.1665 386.129 71.3238 386.342 71.5638C386.556 71.8038 386.662 72.1452 386.662 72.5878C386.662 73.0252 386.553 73.3638 386.334 73.6038C386.116 73.8385 385.873 73.9932 385.606 74.0678C385.446 74.1105 385.268 74.1372 385.07 74.1478C384.873 74.1585 384.697 74.1638 384.542 74.1638H383.118ZM393.044 75.3398H394.612V73.7718H393.044V75.3398Z" fill="white"/>
</svg>
