<svg width="6" height="9" viewBox="0 0 6 9" fill="none" xmlns="http://www.w3.org/2000/svg">
<path d="M5.41665 4.51767C5.41734 4.63555 5.39458 4.75241 5.34968 4.86155C5.30479 4.97068 5.23864 5.06994 5.15503 5.15364L1.54638 8.73657C1.46227 8.82009 1.36241 8.88634 1.25251 8.93154C1.1426 8.97674 1.02481 9 0.905851 9C0.786893 9 0.669099 8.97674 0.559196 8.93154C0.449293 8.88634 0.349433 8.82009 0.265317 8.73657C0.181201 8.65306 0.114477 8.55391 0.0689532 8.44479C0.0234299 8.33567 -3.59238e-08 8.21871 -3.93139e-08 8.1006C-4.27041e-08 7.98249 0.0234299 7.86554 0.0689532 7.75642C0.114476 7.6473 0.181201 7.54815 0.265317 7.46463L3.25147 4.51767L0.382598 1.56175C0.290316 1.47935 0.216151 1.37893 0.16474 1.26677C0.11333 1.15462 0.0857801 1.03313 0.083814 0.909924C0.081848 0.786713 0.105507 0.664423 0.153314 0.550705C0.20112 0.436987 0.272045 0.334287 0.361651 0.249026C0.451258 0.163765 0.557619 0.0977768 0.674082 0.0551908C0.790546 0.0126048 0.914607 -0.00566334 1.03851 0.00152758C1.16241 0.00871849 1.28348 0.0412149 1.39415 0.0969835C1.50482 0.152752 1.60272 0.230593 1.68171 0.325639L5.16405 3.90857C5.32311 4.07238 5.41343 4.29015 5.41665 4.51767Z" fill="#0B1A2F"/>
</svg>
