<svg width="259" height="42" viewBox="0 0 259 42" fill="none" xmlns="http://www.w3.org/2000/svg">
<path d="M6.19424 41.4786H0L5.66605 6.20993H20.9356L15.2695 41.4786H9.07528L13.733 12.4199H10.8519L6.19424 41.4786Z" fill="#FBFBFF"/>
<path d="M22.8308 6.20993H36.0355L35.0272 12.4199H28.0646L26.8162 20.0993H32.3862L31.3298 26.4515H25.7598L24.3673 35.1264H31.762L30.7056 41.4786H17.1647L22.8308 6.20993Z" fill="#FBFBFF"/>
<path d="M44.0349 27.3521H40.4336L38.1768 41.4786H31.9826L37.6486 6.20993H45.8596C48.3885 6.20993 50.1011 6.81039 50.9974 8.01129C51.9258 9.18059 52.1819 10.9029 51.7657 13.1783L50.6133 20.2415C50.2612 22.5485 49.5889 24.3183 48.5966 25.5508C47.6042 26.7517 46.0837 27.3521 44.0349 27.3521ZM42.9785 11.6614L41.394 21.6163H42.6904C43.2986 21.6163 43.7148 21.474 43.9389 21.1896C44.163 20.9052 44.323 20.4154 44.4191 19.7201L45.3794 13.7472C45.6035 12.3567 45.1713 11.6614 44.0829 11.6614H42.9785Z" fill="#FBFBFF"/>
<path d="M54.2952 6.20993H67.5L66.4917 12.4199H59.5291L58.2807 20.0993H63.8507L62.7943 26.4515H57.2243L55.8318 35.1264H63.2265L62.1701 41.4786H48.6292L54.2952 6.20993Z" fill="#FBFBFF"/>
<path d="M73.5787 41.4786L76.6038 22.754L69.4492 41.4786H63.351L69.0171 6.20993H75.1153L72.0902 25.0767L79.2448 6.20993H85.343L79.6769 41.4786H73.5787ZM77.8043 5.11964H77.6122C76.0116 5.11964 74.7952 4.6772 73.9629 3.79233C73.1306 2.87585 72.8104 1.61174 73.0025 0H76.8919C76.8279 0.410836 76.8759 0.758466 77.036 1.04289C77.228 1.29571 77.5162 1.42212 77.9003 1.42212H77.9483C78.7806 1.42212 79.1968 0.948082 79.1968 0H83.1822C83.1182 1.61174 82.59 2.87585 81.5976 3.79233C80.6373 4.6772 79.3728 5.11964 77.8043 5.11964Z" fill="#FBFBFF"/>
<path d="M86.6372 6.20993H101.715L100.706 12.4199H96.3367L91.679 41.4786H85.4848L90.1425 12.4199H85.6288L86.6372 6.20993Z" fill="#FBFBFF"/>
<path d="M107.388 41.4786L110.413 22.754L103.258 41.4786H97.1601L102.826 6.20993H108.924L105.899 25.0767L113.054 6.20993H119.152L113.486 41.4786H107.388Z" fill="#FBFBFF"/>
<path d="M120.28 41.4786L125.946 6.20993H134.829C137.006 6.20993 138.559 6.71558 139.487 7.72686C140.447 8.70655 140.735 10.3025 140.351 12.5147L139.631 17.0181C139.183 19.8307 137.918 21.5372 135.838 22.1377C138.015 22.9278 138.895 24.7765 138.479 27.684L137.566 33.5621C137.086 36.3747 136.366 38.3973 135.406 39.6298C134.477 40.8623 133.085 41.4786 131.228 41.4786H120.28ZM130.46 25.693H129.019L127.339 35.8849H129.115C129.691 35.8849 130.124 35.7585 130.412 35.5056C130.7 35.2528 130.924 34.6524 131.084 33.7043L131.996 28.0158C132.124 27.2257 132.076 26.6411 131.852 26.2619C131.628 25.8826 131.164 25.693 130.46 25.693ZM132.669 11.614H131.276L129.932 20.0045H131.468C131.98 20.0045 132.364 19.8781 132.621 19.6253C132.909 19.3725 133.133 18.8826 133.293 18.1558L134.061 13.4628C134.253 12.2302 133.789 11.614 132.669 11.614Z" fill="#FBFBFF"/>
<path d="M152.923 41.4786L151.195 26.2144L148.746 41.4786H142.552L148.218 6.20993H154.412L152.251 19.6253L158.301 6.20993H164.591L157.245 22.4695L159.454 41.4786H152.923Z" fill="#FBFBFF"/>
<path d="M170.208 41.4786L170.496 35.553H166.703L165.215 41.4786H159.597L169.632 6.20993H176.979L176.163 41.4786H170.208ZM168.288 29.4853H170.785L171.313 17.5869L168.288 29.4853Z" fill="#FBFBFF"/>
<path d="M179.436 6.20993H194.514L193.505 12.4199H189.136L184.478 41.4786H178.284L182.942 12.4199H178.428L179.436 6.20993Z" fill="#FBFBFF"/>
<path d="M197.64 41.4786L197.928 35.553H194.135L192.646 41.4786H187.028L197.064 6.20993H204.411L203.594 41.4786H197.64ZM195.72 29.4853H198.216L198.745 17.5869L195.72 29.4853Z" fill="#FBFBFF"/>
<path d="M214.494 41.4786L219.151 12.4199H216.702C214.878 24.0497 213.517 31.6659 212.621 35.2686C212.077 37.4808 211.292 39.0768 210.268 40.0564C209.244 41.0045 207.611 41.4786 205.37 41.4786H203.786L204.794 35.079H205.178C205.786 35.079 206.235 34.9052 206.523 34.5576C206.811 34.2099 207.051 33.5937 207.243 32.7088C208.683 25.4718 210.22 16.6388 211.853 6.20993H226.354L220.688 41.4786H214.494Z" fill="#FBFBFF"/>
<path d="M235.18 11.9458C234.572 11.9458 234.124 12.1354 233.836 12.5147C233.579 12.8623 233.387 13.447 233.259 14.2686L230.138 33.7043C229.946 35.0316 230.442 35.6953 231.627 35.6953C232.651 35.6953 233.275 35.0316 233.499 33.7043L236.621 14.2686C236.845 12.7201 236.364 11.9458 235.18 11.9458ZM234.652 5.7833H235.948C238.733 5.7833 240.718 6.58917 241.902 8.2009C243.087 9.81264 243.471 11.9932 243.055 14.7427L240.078 33.3251C239.085 39.1084 236.46 42 232.203 42H230.906C228.217 42 226.233 41.2099 224.952 39.6298C223.704 38.0497 223.304 35.8691 223.752 33.088L226.681 14.7901C227.161 11.7878 227.993 9.54402 229.178 8.05869C230.394 6.54176 232.219 5.7833 234.652 5.7833Z" fill="#FBFBFF"/>
<path d="M246.515 41.4786H240.321L245.987 6.20993H259L257.992 12.4199H251.173L246.515 41.4786Z" fill="#FBFBFF"/>
</svg>
