<svg width="108" height="143" viewBox="0 0 108 143" fill="none" xmlns="http://www.w3.org/2000/svg">
<path d="M100.879 77.5108C98.9432 65.9772 90.8118 64.134 86.9914 63.9173C85.7888 63.8489 84.6715 63.2392 84.0119 62.2313C81.2441 58.0061 77.5347 56.8888 74.3836 56.8888C72.1208 56.8888 70.1466 57.4652 69.0165 57.8813C68.8752 57.9337 68.7293 57.9583 68.5865 57.9583C68.1396 57.9583 67.7122 57.7164 67.4753 57.31C64.6639 52.4879 60.6673 51.2437 57.2928 51.2437C55.3284 51.2432 53.5746 51.665 52.3874 52.0471C52.2641 52.0867 52.1362 52.1057 52.0155 52.1057C51.3703 52.1057 50.8016 51.5761 50.8016 50.8846V26.0872C50.8016 20.4191 46.5769 17.585 42.3255 17.585C38.0742 17.585 33.8495 20.4191 33.8495 26.0872V69.7067C33.8495 72.27 31.7505 73.8548 29.6402 73.8548C28.359 73.8548 27.0532 73.2702 26.2041 71.9654L22.0914 65.6566C20.2893 62.6833 17.6684 61.4505 15.0747 61.4505C9.21234 61.4499 3.46967 67.7474 7.54332 74.4697L39.6409 135.934C39.851 136.336 40.2661 136.618 40.7192 136.618H85.8006C86.4438 136.618 86.9765 136.087 87.0155 135.445L88.1436 117.057C88.1565 116.844 88.2269 116.63 88.344 116.453C99.5344 99.5039 102.738 88.5852 100.879 77.5108Z" fill="white"/>
<path d="M106.957 76.4905C104.415 61.3455 93.3009 58.4118 88.4742 57.8601C85.0468 53.2475 80.086 50.7237 74.3823 50.7237C73.0144 50.7237 71.7296 50.9179 70.5753 51.1316C67.1916 47.2347 62.6684 45.1788 57.3742 45.1788C57.2668 45.1788 56.9648 45.1788 56.9648 45.1788V26.0871C56.9648 17.7261 50.6858 11.4204 42.3243 11.4204C33.9628 11.4204 27.6838 17.7256 27.6838 26.0871V62.8882L27.3221 62.3683C24.5538 57.8662 20.0918 55.2864 15.0827 55.2859C9.68471 55.2854 4.47474 58.3332 1.81737 63.049C-0.72032 67.5546 -0.594977 72.8016 2.15949 77.4783L34.1759 138.789C35.453 141.234 37.9588 142.783 40.7169 142.783H85.7983C89.6912 142.783 92.9275 139.709 93.1664 135.823L94.2138 118.746C105.397 101.535 109.093 89.2144 106.957 76.4905ZM88.1418 117.041L87.0138 135.444C86.9747 136.087 86.442 136.618 85.7988 136.618H40.7174C40.2643 136.618 39.8488 136.335 39.6386 135.933L7.54 74.4845C3.46686 67.7622 9.20748 61.457 15.0704 61.4575C17.664 61.458 20.2824 62.6868 22.0839 65.6606L26.1905 71.9673C27.0396 73.2721 28.3572 73.8557 29.6384 73.8557C31.7482 73.8557 33.8477 72.2699 33.8477 69.7065V26.0871C33.8477 20.4189 38.0724 17.5848 42.3238 17.5848C46.5752 17.5848 50.7998 20.4189 50.7998 26.0871V50.885C50.7998 51.5765 51.3685 52.1061 52.0137 52.1061C52.1344 52.1061 52.2608 52.0871 52.3841 52.0475C53.5707 51.6653 55.3256 51.2436 57.29 51.2441C60.6645 51.2441 64.6621 52.4883 67.4731 57.3104C67.7104 57.7167 68.1378 57.9587 68.5847 57.9587C68.7275 57.9587 68.8734 57.9335 69.0147 57.8816C70.1448 57.4655 72.1195 56.8892 74.3823 56.8892C77.5329 56.8892 81.2428 58.007 84.0107 62.2317C84.6708 63.2396 85.7881 63.8498 86.9901 63.9176C90.811 64.1344 98.9419 65.9776 100.878 77.5112C102.737 88.5856 99.5332 99.4961 88.3422 116.446C88.2251 116.622 88.1547 116.829 88.1418 117.041Z" fill="black"/>
<path fill-rule="evenodd" clip-rule="evenodd" d="M26.6408 12.8365C22.7116 17.3791 20.4766 23.7689 20.4766 31C20.4766 32.3807 19.3573 33.5 17.9766 33.5C16.5959 33.5 15.4766 32.3807 15.4766 31C15.4766 22.7671 18.0227 15.157 22.8592 9.56551C27.728 3.93659 34.7992 0.5 43.4766 0.5C52.154 0.5 59.2251 3.93659 64.0939 9.56551C68.9304 15.157 71.4766 22.7671 71.4766 31C71.4766 32.3807 70.3573 33.5 68.9766 33.5C67.5959 33.5 66.4766 32.3807 66.4766 31C66.4766 23.7689 64.2415 17.3791 60.3123 12.8365C56.4155 8.33142 50.7367 5.5 43.4766 5.5C36.2165 5.5 30.5376 8.33142 26.6408 12.8365Z" fill="#D9B8FF"/>
</svg>
