<svg width="187" height="173" viewBox="0 0 187 173" fill="none" xmlns="http://www.w3.org/2000/svg">
<path d="M0 12.1215C0 5.83688 5.16807 0.742188 11.5432 0.742188H175.457C181.832 0.742188 187 5.83688 187 12.1215V66.7422H0V12.1215Z" fill="url(#paint0_linear)"/>
<path d="M43 18.5542H44.4083V21.6505H45.5925L46.8088 19.4203C46.9724 19.1171 47.1502 18.897 47.3422 18.7599C47.5342 18.6227 47.7761 18.5542 48.0677 18.5542H48.6758V19.8208H48.0143L47.0862 21.5205C46.9724 21.7226 46.8586 21.8742 46.7448 21.9752C46.6381 22.0691 46.5065 22.1413 46.35 22.1918V22.2567C46.5278 22.2928 46.6772 22.365 46.7981 22.4733C46.9261 22.5743 47.0506 22.7331 47.1715 22.9496L48.1957 24.8442H48.8572V26.1109H48.0677C47.7974 26.1109 47.5734 26.0495 47.3955 25.9268C47.2177 25.7969 47.0399 25.5696 46.8621 25.2448L45.5925 22.8955H44.4083V26.1109H43V18.5542Z" fill="white"/>
<path d="M54.1587 26.1109C53.86 26.1109 53.6217 26.0243 53.4439 25.851C53.2732 25.6706 53.1665 25.4324 53.1239 25.1365H53.0599C52.9674 25.5046 52.7789 25.7825 52.4944 25.9701C52.2099 26.1506 51.8578 26.2408 51.4382 26.2408C50.8692 26.2408 50.4318 26.0892 50.1259 25.7861C49.8201 25.483 49.6672 25.0788 49.6672 24.5735C49.6672 23.9889 49.8734 23.5559 50.286 23.2744C50.6985 22.9857 51.2853 22.8413 52.0463 22.8413H52.9958V22.43C52.9958 22.1124 52.914 21.867 52.7505 21.6938C52.5869 21.5205 52.3237 21.4339 51.961 21.4339C51.6409 21.4339 51.3813 21.5061 51.1821 21.6505C50.9901 21.7876 50.8265 21.9536 50.6914 22.1485L49.8805 21.4123C50.0868 21.0875 50.3606 20.8277 50.702 20.6328C51.0434 20.4307 51.4951 20.3297 52.057 20.3297C52.8109 20.3297 53.3835 20.5029 53.7747 20.8493C54.1659 21.1958 54.3614 21.6938 54.3614 22.3433V25.0066H54.9162V26.1109H54.1587ZM51.897 25.2339C52.2028 25.2339 52.4624 25.1654 52.6758 25.0283C52.8892 24.8911 52.9958 24.689 52.9958 24.422V23.675H52.121C51.4097 23.675 51.0541 23.9059 51.0541 24.3678V24.5519C51.0541 24.7829 51.1252 24.9561 51.2675 25.0716C51.4169 25.1798 51.6267 25.2339 51.897 25.2339Z" fill="white"/>
<path d="M56.0214 20.4596H57.3871V22.679H58.2832L59.1261 21.1958C59.2825 20.9215 59.4426 20.7302 59.6062 20.622C59.7698 20.5137 59.9867 20.4596 60.257 20.4596H60.8651V21.5639H60.2676L59.6808 22.6032C59.5813 22.7908 59.4853 22.9244 59.3928 23.0037C59.3003 23.0759 59.1901 23.13 59.0621 23.1661V23.2203C59.1901 23.2491 59.3039 23.2997 59.4035 23.3718C59.5101 23.444 59.6133 23.5703 59.7129 23.7508L60.4063 25.0066H60.9931V26.1109H60.2996C60.0294 26.1109 59.8053 26.0531 59.6275 25.9377C59.4568 25.8222 59.2932 25.6237 59.1367 25.3422L58.2832 23.7724H57.3871V26.1109H56.0214V20.4596Z" fill="white"/>
<path d="M64.2728 26.2408C63.8745 26.2408 63.5153 26.1722 63.1952 26.0351C62.8823 25.898 62.612 25.6995 62.3844 25.4396C62.1639 25.1798 61.9932 24.8695 61.8723 24.5086C61.7514 24.1405 61.6909 23.7291 61.6909 23.2744C61.6909 22.8197 61.7514 22.4119 61.8723 22.051C61.9932 21.6902 62.1639 21.3834 62.3844 21.1308C62.612 20.871 62.8823 20.6725 63.1952 20.5354C63.5153 20.3982 63.8745 20.3297 64.2728 20.3297C64.6711 20.3297 65.0303 20.3982 65.3503 20.5354C65.6704 20.6725 65.9407 20.871 66.1611 21.1308C66.3888 21.3834 66.563 21.6902 66.6839 22.051C66.8048 22.4119 66.8653 22.8197 66.8653 23.2744C66.8653 23.7291 66.8048 24.1405 66.6839 24.5086C66.563 24.8695 66.3888 25.1798 66.1611 25.4396C65.9407 25.6995 65.6704 25.898 65.3503 26.0351C65.0303 26.1722 64.6711 26.2408 64.2728 26.2408ZM64.2728 25.1257C64.6355 25.1257 64.92 25.0138 65.1263 24.7901C65.3325 24.5663 65.4357 24.2379 65.4357 23.8049V22.7547C65.4357 22.3289 65.3325 22.0041 65.1263 21.7804C64.92 21.5566 64.6355 21.4448 64.2728 21.4448C63.9171 21.4448 63.6362 21.5566 63.4299 21.7804C63.2237 22.0041 63.1205 22.3289 63.1205 22.7547V23.8049C63.1205 24.2379 63.2237 24.5663 63.4299 24.7901C63.6362 25.0138 63.9171 25.1257 64.2728 25.1257Z" fill="white"/>
<path d="M68.076 20.4596H69.4096V22.9821L69.2922 24.3029H69.3349L69.9857 23.1012L71.7247 20.4596H72.9516V26.1109H71.618V23.5884L71.7354 22.2567H71.6927L71.0419 23.4693L69.3029 26.1109H68.076V20.4596ZM70.5191 19.7883C70.071 19.7883 69.7118 19.6945 69.4416 19.5069C69.1713 19.312 68.9579 19.0377 68.8014 18.6841L68.5774 18.1752L69.6656 17.7422L70.0177 18.7815C70.0746 18.8032 70.1493 18.8212 70.2417 18.8356C70.3342 18.8429 70.4266 18.8465 70.5191 18.8465C70.6116 18.8465 70.704 18.8429 70.7965 18.8356C70.889 18.8212 70.9636 18.8032 71.0205 18.7815L71.3726 17.7422L72.4608 18.1752L72.2368 18.6841C72.0803 19.0377 71.8669 19.312 71.5967 19.5069C71.3264 19.6945 70.9672 19.7883 70.5191 19.7883Z" fill="white"/>
<path d="M81.4845 26.1109H77.0569V20.4596H78.4225V25.0066H80.4069V20.4596H81.7725V25.0066H82.7221V27.6265H81.4845V26.1109Z" fill="white"/>
<path d="M83.7041 20.4596H86.766C87.2639 20.4596 87.6444 20.5895 87.9076 20.8493C88.1708 21.1019 88.3023 21.4448 88.3023 21.8778C88.3023 22.5923 87.9183 23.0037 87.1501 23.112V23.1553C87.6053 23.1986 87.9467 23.3321 88.1743 23.5559C88.4019 23.7796 88.5157 24.0791 88.5157 24.4545C88.5157 24.9452 88.3664 25.3458 88.0676 25.6562C87.7689 25.9593 87.3528 26.1109 86.8194 26.1109H83.7041V20.4596ZM86.542 25.104C86.7269 25.104 86.8692 25.0571 86.9687 24.9633C87.0683 24.8622 87.1181 24.7215 87.1181 24.5411V24.2379C87.1181 24.0575 87.0683 23.9204 86.9687 23.8265C86.8692 23.7255 86.7269 23.675 86.542 23.675H85.0377V25.104H86.542ZM86.382 22.798C86.5456 22.798 86.6736 22.7511 86.766 22.6573C86.8656 22.5635 86.9154 22.4336 86.9154 22.2676V21.9969C86.9154 21.8309 86.8656 21.701 86.766 21.6072C86.6736 21.5133 86.5456 21.4664 86.382 21.4664H85.0377V22.798H86.382Z" fill="white"/>
<path d="M92.0502 26.2408C91.6377 26.2408 91.2678 26.1722 90.9406 26.0351C90.6206 25.8907 90.3467 25.6923 90.1191 25.4396C89.8986 25.1798 89.7279 24.8695 89.607 24.5086C89.4861 24.1405 89.4257 23.7291 89.4257 23.2744C89.4257 22.8269 89.4826 22.4227 89.5964 22.0619C89.7173 21.701 89.888 21.3942 90.1085 21.1416C90.3289 20.8818 90.5992 20.6833 90.9193 20.5462C91.2394 20.4018 91.6021 20.3297 92.0075 20.3297C92.4414 20.3297 92.8183 20.4054 93.1384 20.557C93.4585 20.7086 93.7216 20.9143 93.9279 21.1741C94.1342 21.4339 94.2871 21.7371 94.3867 22.0835C94.4933 22.4227 94.5467 22.7872 94.5467 23.177V23.6317H90.8446V23.7724C90.8446 24.1838 90.9584 24.5158 91.186 24.7684C91.4136 25.0138 91.7515 25.1365 92.1995 25.1365C92.5409 25.1365 92.8183 25.0643 93.0317 24.92C93.2522 24.7756 93.4478 24.5916 93.6185 24.3678L94.3546 25.2015C94.127 25.5263 93.8141 25.7825 93.4158 25.9701C93.0246 26.1506 92.5694 26.2408 92.0502 26.2408ZM92.0288 21.369C91.6661 21.369 91.3781 21.4917 91.1647 21.7371C90.9513 21.9825 90.8446 22.3 90.8446 22.6898V22.7764H93.1277V22.679C93.1277 22.2892 93.0317 21.9752 92.8397 21.7371C92.6547 21.4917 92.3845 21.369 92.0288 21.369Z" fill="white"/>
<path d="M96.7955 21.5639H95.0991V20.4596H99.8574V21.5639H98.1611V26.1109H96.7955V21.5639Z" fill="white"/>
<path d="M103.385 20.4596H108.101V26.1109H106.735V21.5639H104.751V26.1109H103.385V20.4596Z" fill="white"/>
<path d="M111.886 26.2408C111.488 26.2408 111.129 26.1722 110.809 26.0351C110.496 25.898 110.226 25.6995 109.998 25.4396C109.778 25.1798 109.607 24.8695 109.486 24.5086C109.365 24.1405 109.305 23.7291 109.305 23.2744C109.305 22.8197 109.365 22.4119 109.486 22.051C109.607 21.6902 109.778 21.3834 109.998 21.1308C110.226 20.871 110.496 20.6725 110.809 20.5354C111.129 20.3982 111.488 20.3297 111.886 20.3297C112.285 20.3297 112.644 20.3982 112.964 20.5354C113.284 20.6725 113.554 20.871 113.775 21.1308C114.002 21.3834 114.177 21.6902 114.298 22.051C114.419 22.4119 114.479 22.8197 114.479 23.2744C114.479 23.7291 114.419 24.1405 114.298 24.5086C114.177 24.8695 114.002 25.1798 113.775 25.4396C113.554 25.6995 113.284 25.898 112.964 26.0351C112.644 26.1722 112.285 26.2408 111.886 26.2408ZM111.886 25.1257C112.249 25.1257 112.534 25.0138 112.74 24.7901C112.946 24.5663 113.049 24.2379 113.049 23.8049V22.7547C113.049 22.3289 112.946 22.0041 112.74 21.7804C112.534 21.5566 112.249 21.4448 111.886 21.4448C111.531 21.4448 111.25 21.5566 111.044 21.7804C110.837 22.0041 110.734 22.3289 110.734 22.7547V23.8049C110.734 24.2379 110.837 24.5663 111.044 24.7901C111.25 25.0138 111.531 25.1257 111.886 25.1257Z" fill="white"/>
<path d="M115.69 20.4596H117.258L118.73 22.9496H118.773L120.224 20.4596H121.75V26.1109H120.427V22.1701H120.384L120 22.9063L118.72 25.0499L117.439 22.9063L117.055 22.1701H117.013V26.1109H115.69V20.4596Z" fill="white"/>
<path d="M127.423 26.1109C127.125 26.1109 126.886 26.0243 126.709 25.851C126.538 25.6706 126.431 25.4324 126.389 25.1365H126.325C126.232 25.5046 126.044 25.7825 125.759 25.9701C125.475 26.1506 125.123 26.2408 124.703 26.2408C124.134 26.2408 123.696 26.0892 123.391 25.7861C123.085 25.483 122.932 25.0788 122.932 24.5735C122.932 23.9889 123.138 23.5559 123.551 23.2744C123.963 22.9857 124.55 22.8413 125.311 22.8413H126.261V22.43C126.261 22.1124 126.179 21.867 126.015 21.6938C125.852 21.5205 125.588 21.4339 125.226 21.4339C124.906 21.4339 124.646 21.5061 124.447 21.6505C124.255 21.7876 124.091 21.9536 123.956 22.1485L123.145 21.4123C123.352 21.0875 123.625 20.8277 123.967 20.6328C124.308 20.4307 124.76 20.3297 125.322 20.3297C126.076 20.3297 126.648 20.5029 127.039 20.8493C127.431 21.1958 127.626 21.6938 127.626 22.3433V25.0066H128.181V26.1109H127.423ZM125.162 25.2339C125.467 25.2339 125.727 25.1654 125.94 25.0283C126.154 24.8911 126.261 24.689 126.261 24.422V23.675H125.386C124.674 23.675 124.319 23.9059 124.319 24.3678V24.5519C124.319 24.7829 124.39 24.9561 124.532 25.0716C124.682 25.1798 124.891 25.2339 125.162 25.2339Z" fill="white"/>
<path d="M128.697 25.0066H129.401C129.607 24.7035 129.76 24.3209 129.86 23.859C129.959 23.3971 130.009 22.8017 130.009 22.0727V20.4596H134.287V25.0066H135.237V27.6265H133.999V26.1109H129.934V27.6265H128.697V25.0066ZM132.922 25.0066V21.5639H131.311V22.1376C131.311 22.9099 131.264 23.5234 131.172 23.9781C131.08 24.4256 130.966 24.7684 130.831 25.0066H132.922Z" fill="white"/>
<path d="M136.215 20.4596H137.58V22.2459H138.967C139.237 22.2459 139.486 22.2892 139.714 22.3758C139.949 22.4624 140.148 22.5887 140.311 22.7547C140.482 22.9135 140.614 23.112 140.706 23.3502C140.806 23.5884 140.856 23.8626 140.856 24.173C140.856 24.4833 140.809 24.7612 140.717 25.0066C140.624 25.2448 140.493 25.4469 140.322 25.6129C140.159 25.7717 139.959 25.8944 139.725 25.981C139.497 26.0676 139.245 26.1109 138.967 26.1109H136.215V20.4596ZM138.69 25.0824C138.932 25.0824 139.12 25.0246 139.255 24.9092C139.397 24.7937 139.469 24.6205 139.469 24.3895V23.9673C139.469 23.7363 139.397 23.5631 139.255 23.4476C139.12 23.3321 138.932 23.2744 138.69 23.2744H137.58V25.0824H138.69ZM141.634 20.4596H143V26.1109H141.634V20.4596Z" fill="white"/>
<path d="M43.4773 35.9256H46.5392C47.0371 35.9256 47.4176 36.0556 47.6808 36.3154C47.9439 36.568 48.0755 36.9108 48.0755 37.3439C48.0755 38.0584 47.6914 38.4698 46.9233 38.5781V38.6214C47.3785 38.6647 47.7199 38.7982 47.9475 39.0219C48.1751 39.2457 48.2889 39.5452 48.2889 39.9205C48.2889 40.4113 48.1395 40.8119 47.8408 41.1222C47.5421 41.4254 47.126 41.5769 46.5926 41.5769H43.4773V35.9256ZM46.3152 40.5701C46.5001 40.5701 46.6423 40.5232 46.7419 40.4294C46.8415 40.3283 46.8913 40.1876 46.8913 40.0071V39.704C46.8913 39.5236 46.8415 39.3864 46.7419 39.2926C46.6423 39.1916 46.5001 39.141 46.3152 39.141H44.8109V40.5701H46.3152ZM46.1551 38.2641C46.3187 38.2641 46.4467 38.2172 46.5392 38.1234C46.6388 38.0295 46.6886 37.8996 46.6886 37.7336V37.463C46.6886 37.297 46.6388 37.167 46.5392 37.0732C46.4467 36.9794 46.3187 36.9325 46.1551 36.9325H44.8109V38.2641H46.1551Z" fill="white"/>
<path d="M49.5722 35.9256H50.9378V37.712H52.3248C52.5951 37.712 52.844 37.7553 53.0716 37.8419C53.3063 37.9285 53.5055 38.0548 53.6691 38.2208C53.8398 38.3796 53.9713 38.5781 54.0638 38.8162C54.1634 39.0544 54.2132 39.3287 54.2132 39.639C54.2132 39.9494 54.1669 40.2273 54.0745 40.4727C53.982 40.7108 53.8504 40.9129 53.6797 41.0789C53.5161 41.2377 53.317 41.3604 53.0823 41.447C52.8547 41.5336 52.6022 41.5769 52.3248 41.5769H49.5722V35.9256ZM52.0474 40.5484C52.2892 40.5484 52.4777 40.4907 52.6128 40.3752C52.7551 40.2597 52.8262 40.0865 52.8262 39.8556V39.4333C52.8262 39.2024 52.7551 39.0292 52.6128 38.9137C52.4777 38.7982 52.2892 38.7405 52.0474 38.7405H50.9378V40.5484H52.0474ZM54.992 35.9256H56.3576V41.5769H54.992V35.9256Z" fill="white"/>
<path d="M60.4598 35.9256H65.1755V41.5769H63.8098V37.0299H61.8254V41.5769H60.4598V35.9256Z" fill="white"/>
<path d="M66.7528 35.9256H68.1184V36.8567H68.1611C68.2606 36.5319 68.4491 36.2757 68.7265 36.088C69.0039 35.8932 69.3275 35.7957 69.6974 35.7957C70.4086 35.7957 70.9492 36.0519 71.319 36.5644C71.696 37.0696 71.8845 37.795 71.8845 38.7405C71.8845 39.6932 71.696 40.4257 71.319 40.9382C70.9492 41.4506 70.4086 41.7069 69.6974 41.7069C69.3275 41.7069 69.0039 41.6094 68.7265 41.4145C68.4562 41.2197 68.2677 40.9598 68.1611 40.6351H68.1184V43.7422H66.7528V35.9256ZM69.2599 40.5593C69.6156 40.5593 69.9036 40.4402 70.1241 40.202C70.3446 39.9638 70.4548 39.6426 70.4548 39.2385V38.2641C70.4548 37.8599 70.3446 37.5387 70.1241 37.3006C69.9036 37.0552 69.6156 36.9325 69.2599 36.9325C68.9328 36.9325 68.6589 37.0155 68.4384 37.1815C68.2251 37.3475 68.1184 37.5676 68.1184 37.8419V39.639C68.1184 39.935 68.2251 40.1623 68.4384 40.3211C68.6589 40.4799 68.9328 40.5593 69.2599 40.5593Z" fill="white"/>
<path d="M75.401 41.7069C74.9885 41.7069 74.6186 41.6383 74.2915 41.5012C73.9714 41.3568 73.6976 41.1583 73.47 40.9057C73.2495 40.6459 73.0788 40.3355 72.9578 39.9747C72.8369 39.6066 72.7765 39.1952 72.7765 38.7405C72.7765 38.293 72.8334 37.8888 72.9472 37.5279C73.0681 37.167 73.2388 36.8603 73.4593 36.6077C73.6798 36.3479 73.95 36.1494 74.2701 36.0122C74.5902 35.8679 74.9529 35.7957 75.3583 35.7957C75.7922 35.7957 76.1692 35.8715 76.4892 36.0231C76.8093 36.1746 77.0725 36.3803 77.2787 36.6402C77.485 36.9 77.6379 37.2031 77.7375 37.5496C77.8442 37.8888 77.8975 38.2533 77.8975 38.643V39.0977H74.1954V39.2385C74.1954 39.6499 74.3092 39.9819 74.5368 40.2345C74.7644 40.4799 75.1023 40.6026 75.5504 40.6026C75.8918 40.6026 76.1692 40.5304 76.3825 40.386C76.603 40.2417 76.7986 40.0577 76.9693 39.8339L77.7055 40.6675C77.4779 40.9923 77.1649 41.2485 76.7666 41.4362C76.3754 41.6166 75.9202 41.7069 75.401 41.7069ZM75.3797 36.835C75.0169 36.835 74.7289 36.9577 74.5155 37.2031C74.3021 37.4485 74.1954 37.7661 74.1954 38.1558V38.2425H76.4786V38.145C76.4786 37.7553 76.3825 37.4413 76.1905 37.2031C76.0056 36.9577 75.7353 36.835 75.3797 36.835Z" fill="white"/>
<path d="M78.4055 40.4727H79.1097C79.3159 40.1695 79.4689 39.787 79.5684 39.3251C79.668 38.8632 79.7178 38.2677 79.7178 37.5387V35.9256H83.996V40.4727H84.9455V43.0926H83.7079V41.5769H79.6431V43.0926H78.4055V40.4727ZM82.6304 40.4727V37.0299H81.0194V37.6037C81.0194 38.376 80.9732 38.9895 80.8807 39.4442C80.7882 39.8917 80.6744 40.2345 80.5393 40.4727H82.6304Z" fill="white"/>
<path d="M85.9233 35.9256H90.6389V41.5769H89.2733V37.0299H87.2889V41.5769H85.9233V35.9256Z" fill="white"/>
<path d="M94.4247 41.7069C94.0264 41.7069 93.6672 41.6383 93.3471 41.5012C93.0342 41.364 92.7639 41.1655 92.5363 40.9057C92.3158 40.6459 92.1451 40.3355 92.0242 39.9747C91.9033 39.6066 91.8428 39.1952 91.8428 38.7405C91.8428 38.2858 91.9033 37.878 92.0242 37.5171C92.1451 37.1562 92.3158 36.8495 92.5363 36.5969C92.7639 36.337 93.0342 36.1386 93.3471 36.0014C93.6672 35.8643 94.0264 35.7957 94.4247 35.7957C94.823 35.7957 95.1821 35.8643 95.5022 36.0014C95.8223 36.1386 96.0925 36.337 96.313 36.5969C96.5406 36.8495 96.7149 37.1562 96.8358 37.5171C96.9567 37.878 97.0172 38.2858 97.0172 38.7405C97.0172 39.1952 96.9567 39.6066 96.8358 39.9747C96.7149 40.3355 96.5406 40.6459 96.313 40.9057C96.0925 41.1655 95.8223 41.364 95.5022 41.5012C95.1821 41.6383 94.823 41.7069 94.4247 41.7069ZM94.4247 40.5918C94.7874 40.5918 95.0719 40.4799 95.2782 40.2561C95.4844 40.0324 95.5876 39.704 95.5876 39.2709V38.2208C95.5876 37.795 95.4844 37.4702 95.2782 37.2464C95.0719 37.0227 94.7874 36.9108 94.4247 36.9108C94.069 36.9108 93.7881 37.0227 93.5818 37.2464C93.3756 37.4702 93.2724 37.795 93.2724 38.2208V39.2709C93.2724 39.704 93.3756 40.0324 93.5818 40.2561C93.7881 40.4799 94.069 40.5918 94.4247 40.5918Z" fill="white"/>
<path d="M101.332 39.1194H101.279C101.137 39.3359 100.945 39.5127 100.703 39.6499C100.461 39.7798 100.152 39.8447 99.7748 39.8447C98.5728 39.8447 97.9718 39.1988 97.9718 37.9068V35.9256H99.3374V37.8311C99.3374 38.1342 99.4121 38.3543 99.5614 38.4915C99.7108 38.6286 99.9491 38.6972 100.276 38.6972C100.611 38.6972 100.87 38.643 101.055 38.5348C101.24 38.4265 101.332 38.2785 101.332 38.0909V35.9256H102.698V41.5769H101.332V39.1194Z" fill="white"/>
<path d="M104.281 35.9256H105.615V38.4482L105.497 39.769H105.54L106.191 38.5672L107.93 35.9256H109.157V41.5769H107.823V39.0544L107.941 37.7228H107.898L107.247 38.9353L105.508 41.5769H104.281V35.9256Z" fill="white"/>
<path d="M111.861 37.0299H110.165V35.9256H114.923V37.0299H113.227V41.5769H111.861V37.0299Z" fill="white"/>
<path d="M119.953 41.5769C119.654 41.5769 119.416 41.4903 119.238 41.3171C119.068 41.1367 118.961 40.8985 118.918 40.6026H118.854C118.762 40.9707 118.573 41.2485 118.289 41.4362C118.004 41.6166 117.652 41.7069 117.233 41.7069C116.664 41.7069 116.226 41.5553 115.92 41.2522C115.615 40.949 115.462 40.5448 115.462 40.0396C115.462 39.455 115.668 39.0219 116.08 38.7405C116.493 38.4518 117.08 38.3074 117.841 38.3074H118.79V37.896C118.79 37.5784 118.709 37.333 118.545 37.1598C118.381 36.9866 118.118 36.9 117.755 36.9C117.435 36.9 117.176 36.9722 116.977 37.1165C116.785 37.2537 116.621 37.4197 116.486 37.6145L115.675 36.8783C115.881 36.5536 116.155 36.2937 116.497 36.0989C116.838 35.8968 117.29 35.7957 117.851 35.7957C118.605 35.7957 119.178 35.9689 119.569 36.3154C119.96 36.6618 120.156 37.1598 120.156 37.8094V40.4727H120.711V41.5769H119.953ZM117.691 40.7C117.997 40.7 118.257 40.6314 118.47 40.4943C118.684 40.3572 118.79 40.1551 118.79 39.888V39.141H117.915C117.204 39.141 116.849 39.372 116.849 39.8339V40.018C116.849 40.2489 116.92 40.4221 117.062 40.5376C117.211 40.6459 117.421 40.7 117.691 40.7Z" fill="white"/>
<path d="M124.067 41.7069C123.654 41.7069 123.285 41.6383 122.957 41.5012C122.637 41.3568 122.364 41.1583 122.136 40.9057C121.915 40.6459 121.745 40.3355 121.624 39.9747C121.503 39.6066 121.442 39.1952 121.442 38.7405C121.442 38.293 121.499 37.8888 121.613 37.5279C121.734 37.167 121.905 36.8603 122.125 36.6077C122.346 36.3479 122.616 36.1494 122.936 36.0122C123.256 35.8679 123.619 35.7957 124.024 35.7957C124.458 35.7957 124.835 35.8715 125.155 36.0231C125.475 36.1746 125.738 36.3803 125.945 36.6402C126.151 36.9 126.304 37.2031 126.403 37.5496C126.51 37.8888 126.564 38.2533 126.564 38.643V39.0977H122.861V39.2385C122.861 39.6499 122.975 39.9819 123.203 40.2345C123.43 40.4799 123.768 40.6026 124.216 40.6026C124.558 40.6026 124.835 40.5304 125.049 40.386C125.269 40.2417 125.465 40.0577 125.635 39.8339L126.371 40.6675C126.144 40.9923 125.831 41.2485 125.433 41.4362C125.041 41.6166 124.586 41.7069 124.067 41.7069ZM124.046 36.835C123.683 36.835 123.395 36.9577 123.182 37.2031C122.968 37.4485 122.861 37.7661 122.861 38.1558V38.2425H125.145V38.145C125.145 37.7553 125.049 37.4413 124.857 37.2031C124.672 36.9577 124.401 36.835 124.046 36.835Z" fill="white"/>
<path d="M128.812 37.0299H127.116V35.9256H131.874V37.0299H130.178V41.5769H128.812V37.0299Z" fill="white"/>
<path d="M135.059 41.7069C134.646 41.7069 134.276 41.6383 133.949 41.5012C133.629 41.3568 133.355 41.1583 133.128 40.9057C132.907 40.6459 132.737 40.3355 132.616 39.9747C132.495 39.6066 132.434 39.1952 132.434 38.7405C132.434 38.293 132.491 37.8888 132.605 37.5279C132.726 37.167 132.897 36.8603 133.117 36.6077C133.338 36.3479 133.608 36.1494 133.928 36.0122C134.248 35.8679 134.611 35.7957 135.016 35.7957C135.45 35.7957 135.827 35.8715 136.147 36.0231C136.467 36.1746 136.73 36.3803 136.937 36.6402C137.143 36.9 137.296 37.2031 137.395 37.5496C137.502 37.8888 137.555 38.2533 137.555 38.643V39.0977H133.853V39.2385C133.853 39.6499 133.967 39.9819 134.195 40.2345C134.422 40.4799 134.76 40.6026 135.208 40.6026C135.55 40.6026 135.827 40.5304 136.04 40.386C136.261 40.2417 136.456 40.0577 136.627 39.8339L137.363 40.6675C137.136 40.9923 136.823 41.2485 136.424 41.4362C136.033 41.6166 135.578 41.7069 135.059 41.7069ZM135.037 36.835C134.675 36.835 134.387 36.9577 134.173 37.2031C133.96 37.4485 133.853 37.7661 133.853 38.1558V38.2425H136.136V38.145C136.136 37.7553 136.04 37.4413 135.848 37.2031C135.663 36.9577 135.393 36.835 135.037 36.835Z" fill="white"/>
<path d="M139.717 39.1302V37.4413C140.286 37.4197 140.716 37.3114 141.008 37.1165C141.307 36.9144 141.456 36.6041 141.456 36.1855V36.0339C141.456 35.7308 141.367 35.4962 141.189 35.3302C141.011 35.1642 140.773 35.0812 140.474 35.0812C140.154 35.0812 139.895 35.1786 139.696 35.3735C139.504 35.5612 139.368 35.8065 139.29 36.1097L138.149 35.6333C138.213 35.4096 138.305 35.1931 138.426 34.9838C138.547 34.7744 138.703 34.5904 138.896 34.4316C139.088 34.2656 139.319 34.1357 139.589 34.0419C139.859 33.9408 140.172 33.8903 140.528 33.8903C140.891 33.8903 141.218 33.9444 141.509 34.0527C141.801 34.1537 142.05 34.3017 142.256 34.4966C142.462 34.6842 142.622 34.9116 142.736 35.1786C142.85 35.4457 142.907 35.7416 142.907 36.0664C142.907 36.3839 142.854 36.669 142.747 36.9217C142.647 37.167 142.509 37.3836 142.331 37.5712C142.153 37.7517 141.95 37.8996 141.723 38.0151C141.495 38.1234 141.26 38.1992 141.019 38.2425V39.1302H139.717ZM140.378 41.7069C140.08 41.7069 139.863 41.6347 139.728 41.4903C139.593 41.346 139.525 41.1619 139.525 40.9382V40.7217C139.525 40.4979 139.593 40.3139 139.728 40.1695C139.863 40.0252 140.08 39.953 140.378 39.953C140.684 39.953 140.905 40.0252 141.04 40.1695C141.175 40.3139 141.243 40.4979 141.243 40.7217V40.9382C141.243 41.1619 141.175 41.346 141.04 41.4903C140.905 41.6347 140.684 41.7069 140.378 41.7069Z" fill="white"/>
<path d="M187 161.226C187 167.586 181.832 172.742 175.457 172.742L11.5432 172.742C5.16806 172.742 -1.4808e-05 167.586 -1.4252e-05 161.226L-5.86225e-06 65.2583C-5.30623e-06 58.8981 5.16807 53.7422 11.5432 53.7422L175.457 53.7422C181.832 53.7422 187 58.8981 187 65.2583L187 161.226Z" fill="white"/>
<path fill-rule="evenodd" clip-rule="evenodd" d="M152.905 77.5081H35.095C25.5267 77.5081 17.77 85.2241 17.77 94.7422C17.77 104.26 25.5267 111.976 35.095 111.976H152.905C162.473 111.976 170.23 104.26 170.23 94.7422C170.23 85.2241 162.473 77.5081 152.905 77.5081ZM35.095 76.7422C25.1014 76.7422 17 84.8011 17 94.7422C17 104.683 25.1014 112.742 35.095 112.742H152.905C162.899 112.742 171 104.683 171 94.7422C171 84.8011 162.899 76.7422 152.905 76.7422H35.095Z" fill="#DBE2EA"/>
<path fill-rule="evenodd" clip-rule="evenodd" d="M152.905 123.508H35.095C25.5267 123.508 17.77 131.224 17.77 140.742C17.77 150.26 25.5267 157.976 35.095 157.976H152.905C162.473 157.976 170.23 150.26 170.23 140.742C170.23 131.224 162.473 123.508 152.905 123.508ZM35.095 122.742C25.1014 122.742 17 130.801 17 140.742C17 150.683 25.1014 158.742 35.095 158.742H152.905C162.899 158.742 171 150.683 171 140.742C171 130.801 162.899 122.742 152.905 122.742H35.095Z" fill="#DBE2EA"/>
<path fill-rule="evenodd" clip-rule="evenodd" d="M35.5 84.2716C28.9213 84.2716 23.5882 89.4072 23.5882 95.7422C23.5882 102.077 28.9213 107.213 35.5 107.213C42.0787 107.213 47.4118 102.077 47.4118 95.7422C47.4118 89.4072 42.0787 84.2716 35.5 84.2716ZM22 95.7422C22 88.5625 28.0442 82.7422 35.5 82.7422C42.9558 82.7422 49 88.5625 49 95.7422C49 102.922 42.9558 108.742 35.5 108.742C28.0442 108.742 22 102.922 22 95.7422Z" fill="#C8058B"/>
<path fill-rule="evenodd" clip-rule="evenodd" d="M35.5 129.272C28.9213 129.272 23.5882 134.407 23.5882 140.742C23.5882 147.077 28.9213 152.213 35.5 152.213C42.0787 152.213 47.4118 147.077 47.4118 140.742C47.4118 134.407 42.0787 129.272 35.5 129.272ZM22 140.742C22 133.562 28.0442 127.742 35.5 127.742C42.9558 127.742 49 133.562 49 140.742C49 147.922 42.9558 153.742 35.5 153.742C28.0442 153.742 22 147.922 22 140.742Z" fill="#C8058B"/>
<path d="M56 92.1717H56.7558V95.1208H57.9796L59.2393 92.8397C59.3773 92.598 59.5123 92.4262 59.6443 92.3244C59.7762 92.2226 59.9382 92.1717 60.1302 92.1717H60.5441V92.8779H59.9772L58.8614 94.9013C58.7534 95.0921 58.6635 95.2194 58.5915 95.283C58.5255 95.3466 58.4385 95.3975 58.3305 95.4357V95.4834C58.4685 95.5153 58.5885 95.5693 58.6904 95.6457C58.7924 95.722 58.9034 95.8716 59.0234 96.0943L60.1931 98.1271H60.742V98.8334H60.1841C60.0402 98.8334 59.9022 98.792 59.7702 98.7093C59.6383 98.6202 59.5033 98.4548 59.3653 98.213L57.9796 95.8079H56.7558V98.8334H56V92.1717Z" fill="#1C1A1F"/>
<path d="M61.8858 93.9087H62.6056V94.7104H62.6416C62.7616 94.3986 62.9356 94.1695 63.1635 94.0232C63.3975 93.8705 63.6764 93.7941 64.0003 93.7941C64.2883 93.7941 64.5492 93.8546 64.7832 93.9755C65.0171 94.0964 65.2151 94.2682 65.3771 94.4909C65.545 94.7136 65.671 94.984 65.755 95.3021C65.845 95.6202 65.89 95.9765 65.89 96.371C65.89 96.7655 65.845 97.1218 65.755 97.44C65.671 97.7581 65.545 98.0285 65.3771 98.2512C65.2151 98.4739 65.0171 98.6457 64.7832 98.7666C64.5492 98.8875 64.2883 98.9479 64.0003 98.9479C63.3705 98.9479 62.9176 98.6425 62.6416 98.0317H62.6056V100.742H61.8858V93.9087ZM63.8024 98.2607C64.2103 98.2607 64.5312 98.1271 64.7652 97.8599C64.9991 97.5863 65.1161 97.23 65.1161 96.791V95.9511C65.1161 95.5121 64.9991 95.1589 64.7652 94.8917C64.5312 94.6181 64.2103 94.4813 63.8024 94.4813C63.6404 94.4813 63.4844 94.5068 63.3345 94.5577C63.1905 94.6022 63.0645 94.6658 62.9566 94.7485C62.8486 94.8313 62.7616 94.9331 62.6956 95.054C62.6356 95.1685 62.6056 95.2926 62.6056 95.4262V97.2586C62.6056 97.4177 62.6356 97.5609 62.6956 97.6881C62.7616 97.809 62.8486 97.914 62.9566 98.0031C63.0645 98.0858 63.1905 98.1494 63.3345 98.1939C63.4844 98.2385 63.6404 98.2607 63.8024 98.2607Z" fill="#1C1A1F"/>
<path d="M70.4797 98.8334C70.2098 98.8334 70.0148 98.757 69.8948 98.6043C69.7809 98.4516 69.7089 98.2607 69.6789 98.0317H69.6339C69.5319 98.3371 69.3639 98.5662 69.13 98.7189C68.896 98.8716 68.6171 98.9479 68.2932 98.9479C67.8013 98.9479 67.4173 98.8143 67.1414 98.5471C66.8715 98.2798 66.7365 97.9172 66.7365 97.459C66.7365 96.9946 66.8955 96.6383 67.2134 96.3901C67.5373 96.142 68.0382 96.0179 68.7161 96.0179H69.6339V95.5312C69.6339 95.1812 69.5439 94.914 69.3639 94.7295C69.184 94.5449 68.908 94.4527 68.5361 94.4527C68.2542 94.4527 68.0172 94.5195 67.8253 94.6531C67.6393 94.7867 67.4833 94.9649 67.3574 95.1876L66.9254 94.7581C67.0514 94.4909 67.2524 94.265 67.5283 94.0805C67.8043 93.8896 68.1522 93.7941 68.5721 93.7941C69.136 93.7941 69.5739 93.9405 69.8858 94.2332C70.1978 94.5259 70.3537 94.9331 70.3537 95.4548V98.1653H70.8846V98.8334H70.4797ZM68.4101 98.2989C68.5901 98.2989 68.7551 98.2767 68.905 98.2321C69.055 98.1876 69.184 98.1239 69.292 98.0412C69.3999 97.9585 69.4839 97.8631 69.5439 97.7549C69.6039 97.6467 69.6339 97.529 69.6339 97.4018V96.5905H68.6801C68.2662 96.5905 67.9632 96.6542 67.7713 96.7814C67.5853 96.9087 67.4923 97.0932 67.4923 97.335V97.5354C67.4923 97.7772 67.5733 97.9649 67.7353 98.0985C67.9032 98.2321 68.1282 98.2989 68.4101 98.2989Z" fill="#1C1A1F"/>
<path d="M73.6397 98.9479C73.3158 98.9479 73.0248 98.8875 72.7669 98.7666C72.5089 98.6457 72.29 98.4739 72.11 98.2512C71.936 98.0285 71.8011 97.7581 71.7051 97.44C71.6151 97.1218 71.5701 96.7655 71.5701 96.371C71.5701 95.9765 71.6151 95.6202 71.7051 95.3021C71.8011 94.984 71.936 94.7136 72.11 94.4909C72.29 94.2682 72.5089 94.0964 72.7669 93.9755C73.0248 93.8546 73.3158 93.7941 73.6397 93.7941C74.1016 93.7941 74.4705 93.9023 74.7465 94.1186C75.0284 94.3286 75.2384 94.6054 75.3763 94.949L74.7735 95.2735C74.6895 95.019 74.5515 94.8217 74.3595 94.6817C74.1676 94.5418 73.9276 94.4718 73.6397 94.4718C73.4237 94.4718 73.2348 94.51 73.0728 94.5863C72.9108 94.6563 72.7759 94.7581 72.6679 94.8917C72.5599 95.019 72.4789 95.1748 72.4249 95.3594C72.3709 95.5375 72.344 95.7348 72.344 95.9511V96.791C72.344 97.2236 72.4519 97.5799 72.6679 97.8599C72.8898 98.1335 73.2138 98.2703 73.6397 98.2703C74.2216 98.2703 74.6415 97.984 74.8994 97.4113L75.4213 97.7835C75.2714 98.1399 75.0464 98.423 74.7465 98.633C74.4525 98.8429 74.0836 98.9479 73.6397 98.9479Z" fill="#1C1A1F"/>
<path d="M76.4375 93.9087H77.1573V95.9606H79.4789V93.9087H80.1987V98.8334H79.4789V96.6287H77.1573V98.8334H76.4375V93.9087Z" fill="#1C1A1F"/>
<path d="M81.7274 93.9087H82.4473V95.6934H83.68C84.1479 95.6934 84.5198 95.8334 84.7958 96.1133C85.0717 96.3933 85.2097 96.7782 85.2097 97.2682C85.2097 97.7645 85.0747 98.1494 84.8048 98.423C84.5348 98.6966 84.1629 98.8334 83.689 98.8334H81.7274V93.9087ZM83.581 98.1653C83.851 98.1653 84.0609 98.1112 84.2109 98.0031C84.3609 97.8949 84.4359 97.7136 84.4359 97.459V97.0582C84.4359 96.8037 84.3609 96.6255 84.2109 96.5237C84.0609 96.4156 83.851 96.3615 83.581 96.3615H82.4473V98.1653H83.581ZM85.9925 93.9087H86.7124V98.8334H85.9925V93.9087Z" fill="#1C1A1F"/>
<path d="M88.2388 93.9087H88.9406V96.6383L88.8686 97.8217H88.9046L89.4805 96.7719L91.3341 93.9087H92V98.8334H91.2981V96.1038L91.3701 94.9203H91.3341L90.7583 95.9702L88.9046 98.8334H88.2388V93.9087ZM90.1374 93.1452C89.8134 93.1452 89.5555 93.0783 89.3635 92.9447C89.1716 92.8048 89.0186 92.6234 88.9046 92.4007L88.7247 92.0381L89.3545 91.7422L89.6695 92.5248C89.7415 92.5439 89.8195 92.5598 89.9034 92.5725C89.9874 92.5789 90.0654 92.5821 90.1374 92.5821C90.2094 92.5821 90.2874 92.5789 90.3713 92.5725C90.4553 92.5598 90.5333 92.5439 90.6053 92.5248L90.9202 91.7422L91.5501 92.0381L91.3701 92.4007C91.2562 92.6234 91.1032 92.8048 90.9112 92.9447C90.7193 93.0783 90.4613 93.1452 90.1374 93.1452Z" fill="#1C1A1F"/>
<path d="M36.6952 99.7422L36.1619 97.7021H33.8L33.2762 99.7422H32L34.2286 91.7422H35.7905L38 99.7422H36.6952ZM35 93.1175H34.9524L34.1048 96.4069H35.8571L35 93.1175Z" fill="#C8058B"/>
<path d="M33 136.742H37.3619V138.083H34.2571V139.837H36.0381C36.3429 139.837 36.6159 139.898 36.8571 140.02C37.0984 140.135 37.3048 140.303 37.4762 140.524C37.6476 140.738 37.7778 140.998 37.8667 141.304C37.9556 141.602 38 141.934 38 142.301C38 142.66 37.9556 142.992 37.8667 143.298C37.7778 143.596 37.6476 143.852 37.4762 144.066C37.3048 144.28 37.0984 144.448 36.8571 144.57C36.6159 144.685 36.3429 144.742 36.0381 144.742H33V136.742ZM35.9143 143.424C36.1556 143.424 36.346 143.348 36.4857 143.195C36.6254 143.042 36.6952 142.809 36.6952 142.496V142.083C36.6952 141.778 36.6254 141.548 36.4857 141.395C36.346 141.235 36.1556 141.155 35.9143 141.155H34.2571V143.424H35.9143Z" fill="#C8058B"/>
<path d="M56 142.631V136.159H58.5004C59.064 136.159 59.4957 136.326 59.7955 136.66C60.1013 136.988 60.2542 137.439 60.2542 138.014C60.2542 138.589 60.1013 139.043 59.7955 139.377C59.4957 139.704 59.064 139.868 58.5004 139.868H56.7555V142.631H56ZM56.7555 139.182H58.5004C58.8002 139.182 59.031 139.102 59.1929 138.941C59.3608 138.78 59.4447 138.551 59.4447 138.255V137.773C59.4447 137.476 59.3608 137.247 59.1929 137.087C59.031 136.926 58.8002 136.845 58.5004 136.845H56.7555V139.182Z" fill="#1C1A1F"/>
<path d="M62.9607 142.742C62.6489 142.742 62.364 142.683 62.1062 142.566C61.8484 142.449 61.6265 142.282 61.4406 142.065C61.2608 141.843 61.1199 141.58 61.0179 141.277C60.916 140.968 60.865 140.622 60.865 140.239C60.865 139.862 60.916 139.519 61.0179 139.21C61.1199 138.901 61.2608 138.638 61.4406 138.422C61.6265 138.199 61.8484 138.029 62.1062 137.912C62.364 137.794 62.6489 137.736 62.9607 137.736C63.2724 137.736 63.5543 137.794 63.8061 137.912C64.0639 138.029 64.2858 138.199 64.4717 138.422C64.6575 138.638 64.8014 138.901 64.9034 139.21C65.0053 139.519 65.0563 139.862 65.0563 140.239C65.0563 140.622 65.0053 140.968 64.9034 141.277C64.8014 141.58 64.6575 141.843 64.4717 142.065C64.2858 142.282 64.0639 142.449 63.8061 142.566C63.5543 142.683 63.2724 142.742 62.9607 142.742ZM62.9607 142.084C63.3504 142.084 63.6682 141.96 63.914 141.713C64.1599 141.466 64.2828 141.089 64.2828 140.582V139.896C64.2828 139.389 64.1599 139.012 63.914 138.765C63.6682 138.517 63.3504 138.394 62.9607 138.394C62.5709 138.394 62.2531 138.517 62.0073 138.765C61.7614 139.012 61.6385 139.389 61.6385 139.896V140.582C61.6385 141.089 61.7614 141.466 62.0073 141.713C62.2531 141.96 62.5709 142.084 62.9607 142.084Z" fill="#1C1A1F"/>
<path d="M67.4913 142.742C67.0176 142.742 66.6398 142.659 66.358 142.492C66.0762 142.325 65.8454 142.087 65.6655 141.778L66.2051 141.333C66.325 141.568 66.4899 141.753 66.6998 141.889C66.9157 142.019 67.1795 142.084 67.4913 142.084C67.869 142.084 68.1479 142.013 68.3277 141.871C68.5136 141.729 68.6065 141.546 68.6065 141.324V141.212C68.6065 140.971 68.5256 140.789 68.3637 140.665C68.2078 140.536 67.986 140.471 67.6981 140.471H66.7088V139.849H67.6082C67.896 139.849 68.1179 139.791 68.2738 139.673C68.4297 139.556 68.5076 139.389 68.5076 139.173V139.061C68.5076 138.857 68.4267 138.697 68.2648 138.579C68.1089 138.456 67.845 138.394 67.4733 138.394C67.1675 138.394 66.9157 138.459 66.7178 138.589C66.5199 138.712 66.361 138.882 66.2411 139.098L65.7644 138.681C65.9083 138.403 66.1182 138.178 66.394 138.004C66.6758 137.825 67.0476 137.736 67.5093 137.736C68.1149 137.736 68.5616 137.85 68.8494 138.079C69.1372 138.307 69.2811 138.623 69.2811 139.024C69.2811 139.321 69.2032 139.556 69.0473 139.729C68.8974 139.902 68.6785 140.023 68.3907 140.091V140.128C68.7205 140.177 68.9663 140.301 69.1282 140.498C69.2961 140.69 69.38 140.937 69.38 141.24C69.38 141.704 69.2092 142.072 68.8674 142.344C68.5316 142.609 68.0729 142.742 67.4913 142.742Z" fill="#1C1A1F"/>
<path d="M72.4378 142.742C72.126 142.742 71.8412 142.683 71.5834 142.566C71.3256 142.449 71.1037 142.282 70.9178 142.065C70.7379 141.843 70.597 141.58 70.4951 141.277C70.3932 140.968 70.3422 140.622 70.3422 140.239C70.3422 139.862 70.3932 139.519 70.4951 139.21C70.597 138.901 70.7379 138.638 70.9178 138.422C71.1037 138.199 71.3256 138.029 71.5834 137.912C71.8412 137.794 72.126 137.736 72.4378 137.736C72.7496 137.736 73.0314 137.794 73.2833 137.912C73.5411 138.029 73.7629 138.199 73.9488 138.422C74.1347 138.638 74.2786 138.901 74.3805 139.21C74.4825 139.519 74.5334 139.862 74.5334 140.239C74.5334 140.622 74.4825 140.968 74.3805 141.277C74.2786 141.58 74.1347 141.843 73.9488 142.065C73.7629 142.282 73.5411 142.449 73.2833 142.566C73.0314 142.683 72.7496 142.742 72.4378 142.742ZM72.4378 142.084C72.8276 142.084 73.1454 141.96 73.3912 141.713C73.637 141.466 73.76 141.089 73.76 140.582V139.896C73.76 139.389 73.637 139.012 73.3912 138.765C73.1454 138.517 72.8276 138.394 72.4378 138.394C72.0481 138.394 71.7303 138.517 71.4844 138.765C71.2386 139.012 71.1157 139.389 71.1157 139.896V140.582C71.1157 141.089 71.2386 141.466 71.4844 141.713C71.7303 141.96 72.0481 142.084 72.4378 142.084Z" fill="#1C1A1F"/>
<path d="M75.7168 137.847H78.0553C78.433 137.847 78.7298 137.958 78.9457 138.181C79.1615 138.397 79.2695 138.691 79.2695 139.061C79.2695 139.661 78.9667 139.998 78.3611 140.072V140.109C78.7208 140.14 78.9876 140.257 79.1615 140.461C79.3414 140.659 79.4314 140.906 79.4314 141.203C79.4314 141.395 79.4014 141.577 79.3414 141.75C79.2874 141.923 79.2065 142.075 79.0986 142.204C78.9906 142.334 78.8587 142.439 78.7028 142.52C78.5469 142.594 78.3701 142.631 78.1722 142.631H75.7168V137.847ZM77.9563 142.019C78.1722 142.019 78.3431 141.96 78.469 141.843C78.5949 141.725 78.6579 141.559 78.6579 141.342V141.129C78.6579 140.913 78.5949 140.746 78.469 140.628C78.3431 140.511 78.1722 140.452 77.9563 140.452H76.4363V142.019H77.9563ZM77.8664 139.849C78.0643 139.849 78.2172 139.8 78.3251 139.701C78.439 139.596 78.496 139.448 78.496 139.256V139.052C78.496 138.861 78.439 138.715 78.3251 138.616C78.2172 138.511 78.0643 138.459 77.8664 138.459H76.4363V139.849H77.8664Z" fill="#1C1A1F"/>
<path d="M80.7321 137.847H81.4516V139.581H82.6838C83.1515 139.581 83.5232 139.717 83.799 139.989C84.0749 140.261 84.2128 140.634 84.2128 141.11C84.2128 141.593 84.0779 141.966 83.808 142.232C83.5382 142.498 83.1665 142.631 82.6928 142.631H80.7321V137.847ZM82.5848 141.982C82.8547 141.982 83.0645 141.929 83.2144 141.824C83.3643 141.719 83.4393 141.543 83.4393 141.296V140.906C83.4393 140.659 83.3643 140.486 83.2144 140.387C83.0645 140.282 82.8547 140.23 82.5848 140.23H81.4516V141.982H82.5848ZM84.9953 137.847H85.7148V142.631H84.9953V137.847Z" fill="#1C1A1F"/>
<path d="M87.2405 137.847H87.942V140.498L87.8701 141.648H87.906L88.4817 140.628L90.3344 137.847H91V142.631H90.2985V139.979L90.3704 138.83H90.3344L89.7588 139.849L87.906 142.631H87.2405V137.847ZM89.1382 137.105C88.8144 137.105 88.5566 137.04 88.3647 136.91C88.1729 136.774 88.02 136.598 87.906 136.382L87.7262 136.03L88.3557 135.742L88.6705 136.502C88.7425 136.521 88.8204 136.536 88.9044 136.549C88.9883 136.555 89.0663 136.558 89.1382 136.558C89.2102 136.558 89.2881 136.555 89.3721 136.549C89.456 136.536 89.534 136.521 89.6059 136.502L89.9207 135.742L90.5503 136.03L90.3704 136.382C90.2565 136.598 90.1036 136.774 89.9117 136.91C89.7198 137.04 89.462 137.105 89.1382 137.105Z" fill="#1C1A1F"/>
<defs>
<linearGradient id="paint0_linear" x1="0" y1="0.742187" x2="41.4277" y2="118.121" gradientUnits="userSpaceOnUse">
<stop stop-color="#FF0076"/>
<stop offset="1" stop-color="#590FB7"/>
</linearGradient>
</defs>
</svg>
