<svg width="190" height="94" viewBox="0 0 190 94" fill="none" xmlns="http://www.w3.org/2000/svg">
<path d="M0 5.24219C0 2.75691 2.00943 0.742188 4.48819 0.742188H185.512C187.991 0.742188 190 2.75691 190 5.24219V89.2422C190 91.7275 187.991 93.7422 185.512 93.7422H4.48819C2.00943 93.7422 0 91.7275 0 89.2422V5.24219Z" fill="url(#paint0_linear)"/>
<path d="M16 36.2422C16 33.7569 18.0147 31.7422 20.5 31.7422H32.5C34.9853 31.7422 37 33.7569 37 36.2422V63.2422C37 65.7275 34.9853 67.7422 32.5 67.7422H20.5C18.0147 67.7422 16 65.7275 16 63.2422V36.2422Z" fill="#FFE0F7"/>
<path d="M73 36.2422C73 33.7569 75.0147 31.7422 77.5 31.7422H89.5C91.9853 31.7422 94 33.7569 94 36.2422V63.2422C94 65.7275 91.9853 67.7422 89.5 67.7422H77.5C75.0147 67.7422 73 65.7275 73 63.2422V36.2422Z" fill="#FFE0F7"/>
<path d="M129 36.2422C129 33.7569 131.015 31.7422 133.5 31.7422H145.5C147.985 31.7422 150 33.7569 150 36.2422V63.2422C150 65.7275 147.985 67.7422 145.5 67.7422H133.5C131.015 67.7422 129 65.7275 129 63.2422V36.2422Z" fill="#FFE0F7"/>
<path d="M40 36.2422C40 33.7569 42.0147 31.7422 44.5 31.7422H56.5C58.9853 31.7422 61 33.7569 61 36.2422V63.2422C61 65.7275 58.9853 67.7422 56.5 67.7422H44.5C42.0147 67.7422 40 65.7275 40 63.2422V36.2422Z" fill="#FFE0F7"/>
<path d="M96 36.2422C96 33.7569 98.0147 31.7422 100.5 31.7422H112.5C114.985 31.7422 117 33.7569 117 36.2422V63.2422C117 65.7275 114.985 67.7422 112.5 67.7422H100.5C98.0147 67.7422 96 65.7275 96 63.2422V36.2422Z" fill="#FFE0F7"/>
<path d="M153 36.2422C153 33.7569 155.015 31.7422 157.5 31.7422H169.5C171.985 31.7422 174 33.7569 174 36.2422V63.2422C174 65.7275 171.985 67.7422 169.5 67.7422H157.5C155.015 67.7422 153 65.7275 153 63.2422V36.2422Z" fill="#FFE0F7"/>
<path d="M30 18.9085H30.7836C30.9159 18.7599 31.0344 18.5795 31.1388 18.3672C31.2503 18.1549 31.3443 17.8967 31.4209 17.5924C31.4976 17.2811 31.5568 16.9167 31.5986 16.4993C31.6473 16.0818 31.6717 15.5971 31.6717 15.0453V12.7422H36.6554V18.9085H37.7838V21.7422H36.4882V20.1502H31.2956V21.7422H30V18.9085ZM35.2763 18.9085V13.9839H33.009V15.2257C33.009 15.7351 32.9916 16.1844 32.9568 16.5736C32.9289 16.9556 32.8871 17.2917 32.8314 17.5818C32.7757 17.8719 32.706 18.1231 32.6225 18.3353C32.5458 18.5405 32.4553 18.7174 32.3508 18.866V18.9085H35.2763Z" fill="white"/>
<path d="M41.0131 20.2776C40.6231 20.2776 40.2713 20.2103 39.9579 20.0759C39.6514 19.9415 39.3867 19.7469 39.1638 19.4922C38.9479 19.2375 38.7807 18.9332 38.6623 18.5795C38.5439 18.2186 38.4847 17.8153 38.4847 17.3695C38.4847 16.9238 38.5439 16.524 38.6623 16.1703C38.7807 15.8165 38.9479 15.5158 39.1638 15.2681C39.3867 15.0134 39.6514 14.8188 39.9579 14.6844C40.2713 14.55 40.6231 14.4828 41.0131 14.4828C41.4032 14.4828 41.755 14.55 42.0684 14.6844C42.3818 14.8188 42.6465 15.0134 42.8624 15.2681C43.0853 15.5158 43.256 15.8165 43.3744 16.1703C43.4928 16.524 43.552 16.9238 43.552 17.3695C43.552 17.8153 43.4928 18.2186 43.3744 18.5795C43.256 18.9332 43.0853 19.2375 42.8624 19.4922C42.6465 19.7469 42.3818 19.9415 42.0684 20.0759C41.755 20.2103 41.4032 20.2776 41.0131 20.2776ZM41.0131 19.1844C41.3684 19.1844 41.647 19.0747 41.849 18.8554C42.051 18.6361 42.152 18.3141 42.152 17.8896V16.8601C42.152 16.4427 42.051 16.1243 41.849 15.9049C41.647 15.6856 41.3684 15.5759 41.0131 15.5759C40.6649 15.5759 40.3897 15.6856 40.1877 15.9049C39.9857 16.1243 39.8848 16.4427 39.8848 16.8601V17.8896C39.8848 18.3141 39.9857 18.6361 40.1877 18.8554C40.3897 19.0747 40.6649 19.1844 41.0131 19.1844Z" fill="white"/>
<path d="M47.2068 14.6101H48.5441V16.7858H49.4218L50.2472 15.3318C50.4004 15.0629 50.5571 14.8754 50.7173 14.7693C50.8775 14.6632 51.09 14.6101 51.3547 14.6101H51.9502V15.6927H51.3651L50.7905 16.7115C50.693 16.8955 50.5989 17.0264 50.5084 17.1042C50.4178 17.175 50.3099 17.228 50.1845 17.2634V17.3165C50.3099 17.3448 50.4213 17.3943 50.5188 17.4651C50.6233 17.5358 50.7243 17.6596 50.8218 17.8365L51.5009 19.0677H52.0756V20.1502H51.3965C51.1318 20.1502 50.9124 20.0936 50.7382 19.9804C50.5711 19.8672 50.4109 19.6726 50.2576 19.3967L49.4218 17.8578H48.5441V20.1502H47.2068V14.6101Z" fill="white"/>
<path d="M55.2874 20.2776C54.8973 20.2776 54.5456 20.2103 54.2321 20.0759C53.9256 19.9415 53.661 19.7469 53.4381 19.4922C53.2221 19.2375 53.055 18.9332 52.9366 18.5795C52.8182 18.2186 52.7589 17.8153 52.7589 17.3695C52.7589 16.9238 52.8182 16.524 52.9366 16.1703C53.055 15.8165 53.2221 15.5158 53.4381 15.2681C53.661 15.0134 53.9256 14.8188 54.2321 14.6844C54.5456 14.55 54.8973 14.4828 55.2874 14.4828C55.6774 14.4828 56.0292 14.55 56.3426 14.6844C56.6561 14.8188 56.9208 15.0134 57.1367 15.2681C57.3596 15.5158 57.5302 15.8165 57.6486 16.1703C57.767 16.524 57.8263 16.9238 57.8263 17.3695C57.8263 17.8153 57.767 18.2186 57.6486 18.5795C57.5302 18.9332 57.3596 19.2375 57.1367 19.4922C56.9208 19.7469 56.6561 19.9415 56.3426 20.0759C56.0292 20.2103 55.6774 20.2776 55.2874 20.2776ZM55.2874 19.1844C55.6426 19.1844 55.9212 19.0747 56.1232 18.8554C56.3252 18.6361 56.4262 18.3141 56.4262 17.8896V16.8601C56.4262 16.4427 56.3252 16.1243 56.1232 15.9049C55.9212 15.6856 55.6426 15.5759 55.2874 15.5759C54.9391 15.5759 54.664 15.6856 54.462 15.9049C54.26 16.1243 54.159 16.4427 54.159 16.8601V17.8896C54.159 18.3141 54.26 18.6361 54.462 18.8554C54.664 19.0747 54.9391 19.1844 55.2874 19.1844Z" fill="white"/>
<path d="M59.0119 14.6101H60.3492V16.7858H62.4493V14.6101H63.7866V20.1502H62.4493V17.8684H60.3492V20.1502H59.0119V14.6101Z" fill="white"/>
<path d="M69.6738 20.1502H65.3378V14.6101H66.6752V19.0677H68.6185V14.6101H69.9559V19.0677H70.8857V21.6361H69.6738V20.1502Z" fill="white"/>
<path d="M75.8595 20.1502C75.567 20.1502 75.3336 20.0653 75.1595 19.8955C74.9923 19.7186 74.8878 19.4851 74.846 19.195H74.7834C74.6928 19.5559 74.5082 19.8283 74.2296 20.0122C73.951 20.1891 73.6062 20.2776 73.1952 20.2776C72.638 20.2776 72.2096 20.129 71.9101 19.8318C71.6106 19.5346 71.4609 19.1384 71.4609 18.6431C71.4609 18.07 71.6629 17.6455 72.0669 17.3695C72.4709 17.0865 73.0455 16.945 73.7908 16.945H74.7207V16.5417C74.7207 16.2304 74.6406 15.9898 74.4804 15.82C74.3202 15.6502 74.0624 15.5653 73.7072 15.5653C73.3938 15.5653 73.1395 15.6361 72.9445 15.7776C72.7564 15.912 72.5962 16.0747 72.4639 16.2658L71.6698 15.5441C71.8718 15.2257 72.14 14.971 72.4743 14.7799C72.8087 14.5818 73.251 14.4828 73.8012 14.4828C74.5396 14.4828 75.1003 14.6526 75.4834 14.9922C75.8665 15.3318 76.058 15.82 76.058 16.4568V19.0677H76.6013V20.1502H75.8595ZM73.6445 19.2905C73.944 19.2905 74.1983 19.2233 74.4072 19.0889C74.6162 18.9545 74.7207 18.7563 74.7207 18.4945V17.7622H73.8639C73.1674 17.7622 72.8191 17.9886 72.8191 18.4415V18.6219C72.8191 18.8483 72.8888 19.0181 73.0281 19.1313C73.1744 19.2375 73.3798 19.2905 73.6445 19.2905Z" fill="white"/>
<path d="M84.1649 20.1502C83.8723 20.1502 83.639 20.0653 83.4649 19.8955C83.2977 19.7186 83.1932 19.4851 83.1514 19.195H83.0887C82.9982 19.5559 82.8136 19.8283 82.535 20.0122C82.2564 20.1891 81.9116 20.2776 81.5006 20.2776C80.9434 20.2776 80.515 20.129 80.2155 19.8318C79.916 19.5346 79.7663 19.1384 79.7663 18.6431C79.7663 18.07 79.9683 17.6455 80.3722 17.3695C80.7762 17.0865 81.3509 16.945 82.0962 16.945H83.026V16.5417C83.026 16.2304 82.9459 15.9898 82.7857 15.82C82.6255 15.6502 82.3678 15.5653 82.0126 15.5653C81.6991 15.5653 81.4449 15.6361 81.2499 15.7776C81.0618 15.912 80.9016 16.0747 80.7693 16.2658L79.9752 15.5441C80.1772 15.2257 80.4454 14.971 80.7797 14.7799C81.1141 14.5818 81.5564 14.4828 82.1066 14.4828C82.8449 14.4828 83.4057 14.6526 83.7887 14.9922C84.1718 15.3318 84.3634 15.82 84.3634 16.4568V19.0677H84.9067V20.1502H84.1649ZM81.9499 19.2905C82.2494 19.2905 82.5036 19.2233 82.7126 19.0889C82.9216 18.9545 83.026 18.7563 83.026 18.4945V17.7622H82.1693C81.4728 17.7622 81.1245 17.9886 81.1245 18.4415V18.6219C81.1245 18.8483 81.1942 19.0181 81.3335 19.1313C81.4797 19.2375 81.6852 19.2905 81.9499 19.2905Z" fill="white"/>
<path d="M85.989 14.6101H87.3264V16.7858H88.204L89.0294 15.3318C89.1827 15.0629 89.3394 14.8754 89.4996 14.7693C89.6598 14.6632 89.8722 14.6101 90.1369 14.6101H90.7325V15.6927H90.1474L89.5727 16.7115C89.4752 16.8955 89.3812 17.0264 89.2906 17.1042C89.2001 17.175 89.0921 17.228 88.9667 17.2634V17.3165C89.0921 17.3448 89.2036 17.3943 89.3011 17.4651C89.4056 17.5358 89.5065 17.6596 89.6041 17.8365L90.2832 19.0677H90.8578V20.1502H90.1787C89.914 20.1502 89.6946 20.0936 89.5205 19.9804C89.3533 19.8672 89.1931 19.6726 89.0399 19.3967L88.204 17.8578H87.3264V20.1502H85.989V14.6101Z" fill="white"/>
<path d="M96.3755 20.1502H92.0395V14.6101H93.3769V19.0677H95.3202V14.6101H96.6576V19.0677H97.5874V21.6361H96.3755V20.1502Z" fill="white"/>
<path d="M98.5491 14.6101H99.8552V17.083L99.7402 18.3778H99.782L100.419 17.1997L102.122 14.6101H103.324V20.1502H102.018V17.6773L102.133 16.3719H102.091L101.454 17.5606L99.7507 20.1502H98.5491V14.6101Z" fill="white"/>
<path d="M104.875 14.6101H106.181V17.083L106.066 18.3778H106.108L106.745 17.1997L108.448 14.6101H109.65V20.1502H108.344V17.6773L108.459 16.3719H108.417L107.78 17.5606L106.077 20.1502H104.875V14.6101Z" fill="white"/>
<path d="M115.833 20.2776C115.443 20.2776 115.091 20.2103 114.778 20.0759C114.471 19.9415 114.207 19.7469 113.984 19.4922C113.768 19.2375 113.601 18.9332 113.482 18.5795C113.364 18.2186 113.305 17.8153 113.305 17.3695C113.305 16.9238 113.364 16.524 113.482 16.1703C113.601 15.8165 113.768 15.5158 113.984 15.2681C114.207 15.0134 114.471 14.8188 114.778 14.6844C115.091 14.55 115.443 14.4828 115.833 14.4828C116.223 14.4828 116.575 14.55 116.888 14.6844C117.202 14.8188 117.466 15.0134 117.682 15.2681C117.905 15.5158 118.076 15.8165 118.194 16.1703C118.313 16.524 118.372 16.9238 118.372 17.3695C118.372 17.8153 118.313 18.2186 118.194 18.5795C118.076 18.9332 117.905 19.2375 117.682 19.4922C117.466 19.7469 117.202 19.9415 116.888 20.0759C116.575 20.2103 116.223 20.2776 115.833 20.2776ZM115.833 19.1844C116.188 19.1844 116.467 19.0747 116.669 18.8554C116.871 18.6361 116.972 18.3141 116.972 17.8896V16.8601C116.972 16.4427 116.871 16.1243 116.669 15.9049C116.467 15.6856 116.188 15.5759 115.833 15.5759C115.485 15.5759 115.21 15.6856 115.008 15.9049C114.806 16.1243 114.705 16.4427 114.705 16.8601V17.8896C114.705 18.3141 114.806 18.6361 115.008 18.8554C115.21 19.0747 115.485 19.1844 115.833 19.1844Z" fill="white"/>
<path d="M121.71 20.2776C121.306 20.2776 120.947 20.2103 120.634 20.0759C120.32 19.9415 120.056 19.7469 119.84 19.4922C119.631 19.2375 119.47 18.9332 119.359 18.5795C119.248 18.2186 119.192 17.8153 119.192 17.3695C119.192 16.9238 119.248 16.524 119.359 16.1703C119.47 15.8165 119.631 15.5158 119.84 15.2681C120.056 15.0134 120.32 14.8188 120.634 14.6844C120.947 14.55 121.306 14.4828 121.71 14.4828C122.26 14.4828 122.713 14.6066 123.068 14.8542C123.43 15.1019 123.691 15.445 123.852 15.8837L122.755 16.3825C122.692 16.149 122.573 15.958 122.399 15.8094C122.232 15.6537 122.002 15.5759 121.71 15.5759C121.334 15.5759 121.052 15.6962 120.863 15.9368C120.682 16.1773 120.592 16.4922 120.592 16.8813V17.8896C120.592 18.2787 120.682 18.5936 120.863 18.8342C121.052 19.0677 121.334 19.1844 121.71 19.1844C122.03 19.1844 122.277 19.103 122.452 18.9403C122.626 18.7705 122.762 18.5618 122.859 18.3141L123.883 18.8129C123.702 19.3011 123.427 19.6691 123.058 19.9167C122.688 20.1573 122.239 20.2776 121.71 20.2776Z" fill="white"/>
<path d="M126.083 15.6927H124.421V14.6101H129.081V15.6927H127.42V20.1502H126.083V15.6927Z" fill="white"/>
<path d="M134.007 20.1502C133.715 20.1502 133.481 20.0653 133.307 19.8955C133.14 19.7186 133.036 19.4851 132.994 19.195H132.931C132.841 19.5559 132.656 19.8283 132.377 20.0122C132.099 20.1891 131.754 20.2776 131.343 20.2776C130.786 20.2776 130.358 20.129 130.058 19.8318C129.758 19.5346 129.609 19.1384 129.609 18.6431C129.609 18.07 129.811 17.6455 130.215 17.3695C130.619 17.0865 131.193 16.945 131.939 16.945H132.869V16.5417C132.869 16.2304 132.788 15.9898 132.628 15.82C132.468 15.6502 132.21 15.5653 131.855 15.5653C131.542 15.5653 131.287 15.6361 131.092 15.7776C130.904 15.912 130.744 16.0747 130.612 16.2658L129.818 15.5441C130.02 15.2257 130.288 14.971 130.622 14.7799C130.957 14.5818 131.399 14.4828 131.949 14.4828C132.687 14.4828 133.248 14.6526 133.631 14.9922C134.014 15.3318 134.206 15.82 134.206 16.4568V19.0677H134.749V20.1502H134.007ZM131.792 19.2905C132.092 19.2905 132.346 19.2233 132.555 19.0889C132.764 18.9545 132.869 18.7563 132.869 18.4945V17.7622H132.012C131.315 17.7622 130.967 17.9886 130.967 18.4415V18.6219C130.967 18.8483 131.037 19.0181 131.176 19.1313C131.322 19.2375 131.528 19.2905 131.792 19.2905Z" fill="white"/>
<path d="M135.225 19.0677H135.935C136.005 18.9615 136.068 18.8342 136.123 18.6856C136.186 18.537 136.238 18.3566 136.28 18.1443C136.322 17.925 136.353 17.6667 136.374 17.3695C136.402 17.0653 136.416 16.7115 136.416 16.3082V14.6101H140.564V20.1502H139.226V15.6927H137.691V16.3719C137.691 16.8743 137.673 17.3129 137.638 17.6879C137.603 18.0559 137.551 18.3743 137.482 18.6431C137.419 18.912 137.339 19.1384 137.241 19.3224C137.151 19.4993 137.05 19.6443 136.938 19.7575C136.778 19.9203 136.597 20.0335 136.395 20.0971C136.193 20.1608 135.946 20.1927 135.653 20.1927H135.225V19.0677Z" fill="white"/>
<path d="M144.259 20.2776C143.869 20.2776 143.517 20.2103 143.204 20.0759C142.897 19.9415 142.633 19.7469 142.41 19.4922C142.194 19.2375 142.027 18.9332 141.908 18.5795C141.79 18.2186 141.731 17.8153 141.731 17.3695C141.731 16.9238 141.79 16.524 141.908 16.1703C142.027 15.8165 142.194 15.5158 142.41 15.2681C142.633 15.0134 142.897 14.8188 143.204 14.6844C143.517 14.55 143.869 14.4828 144.259 14.4828C144.649 14.4828 145.001 14.55 145.314 14.6844C145.628 14.8188 145.892 15.0134 146.108 15.2681C146.331 15.5158 146.502 15.8165 146.62 16.1703C146.739 16.524 146.798 16.9238 146.798 17.3695C146.798 17.8153 146.739 18.2186 146.62 18.5795C146.502 18.9332 146.331 19.2375 146.108 19.4922C145.892 19.7469 145.628 19.9415 145.314 20.0759C145.001 20.2103 144.649 20.2776 144.259 20.2776ZM144.259 19.1844C144.614 19.1844 144.893 19.0747 145.095 18.8554C145.297 18.6361 145.398 18.3141 145.398 17.8896V16.8601C145.398 16.4427 145.297 16.1243 145.095 15.9049C144.893 15.6856 144.614 15.5759 144.259 15.5759C143.911 15.5759 143.636 15.6856 143.434 15.9049C143.232 16.1243 143.131 16.4427 143.131 16.8601V17.8896C143.131 18.3141 143.232 18.6361 143.434 18.8554C143.636 19.0747 143.911 19.1844 144.259 19.1844Z" fill="white"/>
<path d="M150.136 20.2776C149.732 20.2776 149.373 20.2103 149.06 20.0759C148.746 19.9415 148.482 19.7469 148.266 19.4922C148.057 19.2375 147.896 18.9332 147.785 18.5795C147.674 18.2186 147.618 17.8153 147.618 17.3695C147.618 16.9238 147.674 16.524 147.785 16.1703C147.896 15.8165 148.057 15.5158 148.266 15.2681C148.482 15.0134 148.746 14.8188 149.06 14.6844C149.373 14.55 149.732 14.4828 150.136 14.4828C150.686 14.4828 151.139 14.6066 151.494 14.8542C151.856 15.1019 152.117 15.445 152.278 15.8837L151.181 16.3825C151.118 16.149 151 15.958 150.825 15.8094C150.658 15.6537 150.428 15.5759 150.136 15.5759C149.76 15.5759 149.478 15.6962 149.29 15.9368C149.108 16.1773 149.018 16.4922 149.018 16.8813V17.8896C149.018 18.2787 149.108 18.5936 149.29 18.8342C149.478 19.0677 149.76 19.1844 150.136 19.1844C150.456 19.1844 150.703 19.103 150.878 18.9403C151.052 18.7705 151.188 18.5618 151.285 18.3141L152.309 18.8129C152.128 19.3011 151.853 19.6691 151.484 19.9167C151.114 20.1573 150.665 20.2776 150.136 20.2776Z" fill="white"/>
<path d="M153.34 14.6101H154.678V16.3613H156.14C156.412 16.3613 156.659 16.4037 156.882 16.4886C157.112 16.5736 157.307 16.6974 157.467 16.8601C157.634 17.0158 157.763 17.2103 157.854 17.4438C157.951 17.6773 158 17.9462 158 18.2504C158 18.5547 157.951 18.8271 157.854 19.0677C157.763 19.3011 157.634 19.4993 157.467 19.662C157.307 19.8177 157.112 19.9379 156.882 20.0228C156.659 20.1078 156.415 20.1502 156.151 20.1502H153.34V14.6101ZM155.879 19.142C156.116 19.142 156.3 19.0853 156.433 18.9721C156.572 18.8589 156.642 18.6891 156.642 18.4627V18.0488C156.642 17.8224 156.572 17.6526 156.433 17.5394C156.3 17.4261 156.116 17.3695 155.879 17.3695H154.678V19.142H155.879Z" fill="white"/>
<path d="M26.5 56.7422C27.3919 56.7422 28.1737 56.5544 28.8456 56.1789C29.5232 55.7975 30.0502 55.2689 30.4266 54.5929C30.8089 53.9169 31 53.1369 31 52.2529V48.2315C31 47.3417 30.8089 46.5617 30.4266 45.8915C30.0502 45.2155 29.5232 44.6897 28.8456 44.3142C28.1737 43.9329 27.3919 43.7422 26.5 43.7422C25.6081 43.7422 24.8234 43.9329 24.1458 44.3142C23.4739 44.6897 22.9469 45.2155 22.5647 45.8915C22.1882 46.5617 22 47.3417 22 48.2315V52.2529C22 53.1369 22.1882 53.9169 22.5647 54.5929C22.9469 55.2689 23.4739 55.7975 24.1458 56.1789C24.8234 56.5544 25.6081 56.7422 26.5 56.7422ZM26.5 54.7575C26.0598 54.7575 25.6602 54.6535 25.3012 54.4455C24.9479 54.2317 24.6641 53.9486 24.4498 53.5962C24.2413 53.238 24.1371 52.8393 24.1371 52.4002V48.0755C24.1371 47.6306 24.2413 47.232 24.4498 46.8795C24.6641 46.5213 24.9479 46.2382 25.3012 46.0302C25.6602 45.8164 26.0598 45.7095 26.5 45.7095C26.9402 45.7095 27.3369 45.8164 27.6902 46.0302C28.0492 46.2382 28.333 46.5213 28.5415 46.8795C28.7558 47.232 28.8629 47.6306 28.8629 48.0755V52.4002C28.8629 52.8393 28.7558 53.238 28.5415 53.5962C28.333 53.9486 28.0492 54.2317 27.6902 54.4455C27.3369 54.6535 26.9402 54.7575 26.5 54.7575Z" fill="#5C0EB5"/>
<path d="M83 56.7422C83.7928 56.7422 84.4878 56.5544 85.0849 56.1789C85.6873 55.7975 86.1557 55.2689 86.4903 54.5929C86.8301 53.9169 87 53.1369 87 52.2529V48.2315C87 47.3417 86.8301 46.5617 86.4903 45.8915C86.1557 45.2155 85.6873 44.6897 85.0849 44.3142C84.4878 43.9329 83.7928 43.7422 83 43.7422C82.2072 43.7422 81.5097 43.9329 80.9073 44.3142C80.3102 44.6897 79.8417 45.2155 79.5019 45.8915C79.1673 46.5617 79 47.3417 79 48.2315V52.2529C79 53.1369 79.1673 53.9169 79.5019 54.5929C79.8417 55.2689 80.3102 55.7975 80.9073 56.1789C81.5097 56.5544 82.2072 56.7422 83 56.7422ZM83 54.7575C82.6088 54.7575 82.2535 54.6535 81.9344 54.4455C81.6203 54.2317 81.3681 53.9486 81.1776 53.5962C80.9923 53.238 80.8996 52.8393 80.8996 52.4002V48.0755C80.8996 47.6306 80.9923 47.232 81.1776 46.8795C81.3681 46.5213 81.6203 46.2382 81.9344 46.0302C82.2535 45.8164 82.6088 45.7095 83 45.7095C83.3912 45.7095 83.7439 45.8164 84.0579 46.0302C84.3771 46.2382 84.6293 46.5213 84.8147 46.8795C85.0051 47.232 85.1004 47.6306 85.1004 48.0755V52.4002C85.1004 52.8393 85.0051 53.238 84.8147 53.5962C84.6293 53.9486 84.3771 54.2317 84.0579 54.4455C83.7439 54.6535 83.3912 54.7575 83 54.7575Z" fill="#5C0EB5"/>
<path d="M139.844 56.7422C140.59 56.7422 141.276 56.5653 141.901 56.2116C142.532 55.8578 143.04 55.3844 143.424 54.7912C143.808 54.1925 144 53.5259 144 52.7912C144 52.0565 143.835 51.4007 143.506 50.8238C143.182 50.2415 142.733 49.7844 142.156 49.4524C141.586 49.1204 140.93 48.9544 140.189 48.9544C139.888 48.9544 139.575 48.998 139.251 49.085C138.933 49.1721 138.631 49.3027 138.346 49.4769L138.527 46.5871H143.202V44.7422H136.765L136.403 50.9626L138.099 51.5014C138.258 51.3163 138.486 51.1422 138.782 50.9789C139.084 50.8157 139.462 50.734 139.918 50.734C140.296 50.734 140.645 50.8265 140.963 51.0116C141.281 51.1966 141.534 51.4442 141.72 51.7544C141.912 52.0646 142.008 52.4102 142.008 52.7912C142.008 53.1667 141.915 53.5123 141.728 53.8279C141.542 54.1381 141.289 54.3884 140.971 54.5789C140.658 54.764 140.307 54.8565 139.918 54.8565C139.473 54.8565 139.056 54.7204 138.667 54.4483C138.283 54.1708 138.03 53.7952 137.909 53.3218L136 53.8279C136.165 54.4048 136.433 54.9136 136.807 55.3544C137.185 55.7898 137.635 56.1299 138.156 56.3748C138.683 56.6197 139.246 56.7422 139.844 56.7422Z" fill="#5C0EB5"/>
<path d="M49.6163 55.7422H52V44.7422H49.6163L47 45.9797V48.0116L49.6163 46.7512V55.7422Z" fill="#5C0EB5"/>
<path d="M104.05 55.7422H106.101L110 46.4839V44.7422H103V46.4839H107.964L104.05 55.7422Z" fill="#5C0EB5"/>
<path d="M163.844 56.7422C164.59 56.7422 165.276 56.5653 165.901 56.2116C166.532 55.8578 167.04 55.3844 167.424 54.7912C167.808 54.1925 168 53.5259 168 52.7912C168 52.0565 167.835 51.4007 167.506 50.8238C167.182 50.2415 166.733 49.7844 166.156 49.4524C165.586 49.1204 164.93 48.9544 164.189 48.9544C163.888 48.9544 163.575 48.998 163.251 49.085C162.933 49.1721 162.631 49.3027 162.346 49.4769L162.527 46.5871H167.202V44.7422H160.765L160.403 50.9626L162.099 51.5014C162.258 51.3163 162.486 51.1422 162.782 50.9789C163.084 50.8157 163.462 50.734 163.918 50.734C164.296 50.734 164.645 50.8265 164.963 51.0116C165.281 51.1966 165.534 51.4442 165.72 51.7544C165.912 52.0646 166.008 52.4102 166.008 52.7912C166.008 53.1667 165.915 53.5123 165.728 53.8279C165.542 54.1381 165.289 54.3884 164.971 54.5789C164.658 54.764 164.307 54.8565 163.918 54.8565C163.473 54.8565 163.056 54.7204 162.667 54.4483C162.283 54.1708 162.03 53.7952 161.909 53.3218L160 53.8279C160.165 54.4048 160.433 54.9136 160.807 55.3544C161.185 55.7898 161.635 56.1299 162.156 56.3748C162.683 56.6197 163.246 56.7422 163.844 56.7422Z" fill="#5C0EB5"/>
<path d="M33.6241 77.3168H33.5799C33.4208 77.3788 33.2234 77.4267 32.9877 77.4605C32.7519 77.4943 32.4956 77.5112 32.2186 77.5112C31.4526 77.5112 30.8898 77.3422 30.5304 77.0042C30.1768 76.6605 30 76.1309 30 75.4154V73.7422H30.7425V75.4154C30.7425 75.9337 30.8662 76.3084 31.1137 76.5394C31.3671 76.7704 31.7443 76.8858 32.2452 76.8858C32.5398 76.8858 32.805 76.8689 33.0407 76.8351C33.2764 76.8013 33.4709 76.7535 33.6241 76.6915V73.7422H34.3666V79.6408H33.6241V77.3168Z" fill="white"/>
<path d="M39.2505 79.6408C38.9854 79.6408 38.7938 79.5732 38.676 79.438C38.564 79.3028 38.4933 79.1337 38.4638 78.9309H38.4196C38.3195 79.2013 38.1545 79.4042 37.9246 79.5394C37.6948 79.6746 37.4208 79.7422 37.1026 79.7422C36.6194 79.7422 36.2422 79.6239 35.9712 79.3873C35.706 79.1506 35.5734 78.8295 35.5734 78.4239C35.5734 78.0126 35.7296 77.6971 36.0419 77.4774C36.3601 77.2577 36.8522 77.1478 37.518 77.1478H38.4196V76.7168C38.4196 76.407 38.3313 76.1704 38.1545 76.007C37.9777 75.8436 37.7066 75.7619 37.3413 75.7619C37.0643 75.7619 36.8315 75.8211 36.643 75.9394C36.4603 76.0577 36.3071 76.2154 36.1833 76.4126L35.759 76.0323C35.8828 75.7957 36.0802 75.5957 36.3513 75.4323C36.6223 75.2633 36.9641 75.1788 37.3766 75.1788C37.9305 75.1788 38.3607 75.3084 38.6671 75.5675C38.9736 75.8267 39.1268 76.1873 39.1268 76.6492V79.0492H39.6483V79.6408H39.2505ZM37.2175 79.1675C37.3943 79.1675 37.5563 79.1478 37.7037 79.1084C37.851 79.0689 37.9777 79.0126 38.0838 78.9394C38.1898 78.8661 38.2723 78.7816 38.3313 78.6858C38.3902 78.5901 38.4196 78.4858 38.4196 78.3732V77.6549H37.4827C37.0761 77.6549 36.7785 77.7112 36.5899 77.8239C36.4072 77.9366 36.3159 78.0999 36.3159 78.314V78.4915C36.3159 78.7056 36.3955 78.8718 36.5546 78.9901C36.7196 79.1084 36.9405 79.1675 37.2175 79.1675Z" fill="white"/>
<path d="M42.3547 79.7422C42.0365 79.7422 41.7507 79.6887 41.4973 79.5816C41.2439 79.4746 41.0288 79.3225 40.852 79.1253C40.6811 78.9281 40.5485 78.6887 40.4543 78.407C40.3659 78.1253 40.3217 77.8098 40.3217 77.4605C40.3217 77.1112 40.3659 76.7957 40.4543 76.514C40.5485 76.2323 40.6811 75.9929 40.852 75.7957C41.0288 75.5985 41.2439 75.4464 41.4973 75.3394C41.7507 75.2323 42.0365 75.1788 42.3547 75.1788C42.8084 75.1788 43.1708 75.2746 43.4419 75.4661C43.7189 75.652 43.9251 75.8971 44.0607 76.2013L43.4684 76.4887C43.3859 76.2633 43.2504 76.0887 43.0618 75.9647C42.8733 75.8408 42.6375 75.7788 42.3547 75.7788C42.1425 75.7788 41.9569 75.8126 41.7978 75.8802C41.6387 75.9422 41.5061 76.0323 41.4001 76.1506C41.294 76.2633 41.2144 76.4013 41.1614 76.5647C41.1084 76.7225 41.0818 76.8971 41.0818 77.0887V77.8323C41.0818 78.2154 41.1879 78.5309 41.4001 78.7788C41.6181 79.0211 41.9363 79.1422 42.3547 79.1422C42.9263 79.1422 43.3388 78.8887 43.5922 78.3816L44.1049 78.7112C43.9575 79.0267 43.7366 79.2774 43.4419 79.4633C43.1532 79.6492 42.7908 79.7422 42.3547 79.7422Z" fill="white"/>
<path d="M45.1031 75.2802H45.8102V76.8605H47.0212C47.4808 76.8605 47.8462 76.9844 48.1172 77.2323C48.3883 77.4802 48.5238 77.8211 48.5238 78.2549C48.5238 78.6943 48.3913 79.0351 48.1261 79.2774C47.8609 79.5197 47.4956 79.6408 47.03 79.6408H45.1031V75.2802ZM46.9239 79.0492C47.1891 79.0492 47.3954 79.0013 47.5427 78.9056C47.69 78.8098 47.7637 78.6492 47.7637 78.4239V78.0689C47.7637 77.8436 47.69 77.6858 47.5427 77.5957C47.3954 77.4999 47.1891 77.452 46.9239 77.452H45.8102V79.0492H46.9239ZM49.2929 75.2802H50V79.6408H49.2929V75.2802Z" fill="white"/>
<path d="M83.9584 74.7221H83.9128L83.375 75.7645L81.8529 78.4727L80.3307 75.7645L79.793 74.7221H79.7474V79.9605H79V73.7422H80.0208L81.8438 77.0919H81.8893L83.7214 73.7422H84.7058V79.9605H83.9584V74.7221Z" fill="white"/>
<path d="M86.3238 75.3636H87.0347V77.9115L86.9618 79.0161H86.9983L87.5816 78.0362L89.4592 75.3636H90.1337V79.9605H89.4228V77.4126L89.4957 76.3079H89.4592L88.8759 77.2878L86.9983 79.9605H86.3238V75.3636Z" fill="white"/>
<path d="M91.6822 75.3636H92.4114V77.2789H94.7629V75.3636H95.4921V79.9605H94.7629V77.9025H92.4114V79.9605H91.6822V75.3636Z" fill="white"/>
<path d="M99.9391 75.3636H100.659L98.5536 81.0295C98.4989 81.1661 98.4443 81.2789 98.3896 81.368C98.3349 81.463 98.268 81.5373 98.189 81.5907C98.1101 81.6442 98.0098 81.6828 97.8883 81.7066C97.7728 81.7303 97.63 81.7422 97.4599 81.7422H97.0862V81.1186H97.8245L98.1799 80.1386L96.4208 75.3636H97.15L98.2802 78.4905L98.4989 79.2388H98.5445L98.7997 78.4905L99.9391 75.3636Z" fill="white"/>
<path d="M102.663 75.9872H101.059V75.3636H104.996V75.9872H103.392V79.9605H102.663V75.9872Z" fill="white"/>
<path d="M105.951 75.3636H106.68V77.0295H107.928C108.402 77.0295 108.779 77.1602 109.059 77.4215C109.338 77.6828 109.478 78.0421 109.478 78.4994C109.478 78.9627 109.341 79.322 109.068 79.5774C108.794 79.8328 108.418 79.9605 107.937 79.9605H105.951V75.3636ZM107.828 79.3368C108.102 79.3368 108.314 79.2864 108.466 79.1854C108.618 79.0844 108.694 78.9152 108.694 78.6776V78.3034C108.694 78.0659 108.618 77.8996 108.466 77.8045C108.314 77.7036 108.102 77.6531 107.828 77.6531H106.68V79.3368H107.828ZM110.271 75.3636H111V79.9605H110.271V75.3636Z" fill="white"/>
<path d="M138.539 80.0894C137.738 80.0894 137.114 79.8257 136.669 79.2982C136.223 78.7649 136 77.9825 136 76.951C136 75.9195 136.223 75.1283 136.669 74.5774C137.114 74.0206 137.738 73.7422 138.539 73.7422C139.069 73.7422 139.512 73.8594 139.867 74.0938C140.229 74.3283 140.509 74.6594 140.707 75.0872L140.093 75.4477C139.967 75.1312 139.774 74.8792 139.515 74.6916C139.256 74.4982 138.93 74.4015 138.539 74.4015C138.268 74.4015 138.024 74.4513 137.807 74.551C137.596 74.6506 137.416 74.7942 137.265 74.9817C137.12 75.1634 137.009 75.3832 136.931 75.6411C136.852 75.8931 136.813 76.1774 136.813 76.4938V77.4081C136.813 78.0411 136.964 78.5363 137.265 78.8938C137.566 79.2513 137.991 79.4301 138.539 79.4301C138.943 79.4301 139.28 79.3305 139.551 79.1312C139.822 78.9261 140.021 78.6565 140.147 78.3224L140.753 78.6916C140.554 79.1253 140.268 79.4682 139.894 79.7202C139.521 79.9664 139.069 80.0894 138.539 80.0894Z" fill="white"/>
<path d="M143.609 80.0894C143.289 80.0894 143 80.0338 142.741 79.9224C142.488 79.8111 142.268 79.6528 142.082 79.4477C141.901 79.2367 141.759 78.9876 141.657 78.7004C141.561 78.4074 141.512 78.0792 141.512 77.7158C141.512 77.3583 141.561 77.033 141.657 76.74C141.759 76.4469 141.901 76.1979 142.082 75.9927C142.268 75.7817 142.488 75.6206 142.741 75.5092C143 75.3979 143.289 75.3422 143.609 75.3422C143.922 75.3422 144.202 75.3979 144.449 75.5092C144.696 75.6206 144.907 75.7759 145.081 75.9752C145.256 76.1686 145.389 76.4001 145.479 76.6697C145.575 76.9393 145.624 77.2352 145.624 77.5576V77.8916H142.271V78.1026C142.271 78.296 142.302 78.4777 142.362 78.6477C142.428 78.8118 142.518 78.9554 142.633 79.0785C142.753 79.2015 142.898 79.2982 143.067 79.3686C143.241 79.4389 143.437 79.4741 143.654 79.4741C143.949 79.4741 144.205 79.4067 144.422 79.2719C144.645 79.1371 144.816 78.9437 144.937 78.6916L145.452 79.0521C145.301 79.3627 145.066 79.6147 144.747 79.8081C144.428 79.9957 144.048 80.0894 143.609 80.0894ZM143.609 75.9312C143.41 75.9312 143.229 75.9664 143.067 76.0367C142.904 76.1012 142.762 76.1949 142.642 76.318C142.527 76.4411 142.437 76.5876 142.371 76.7576C142.305 76.9217 142.271 77.1034 142.271 77.3026V77.3642H144.847V77.2675C144.847 76.8631 144.732 76.5407 144.503 76.3004C144.28 76.0543 143.982 75.9312 143.609 75.9312Z" fill="white"/>
<path d="M146.815 75.4477H147.538V77.3466H148.468L149.372 75.9576C149.438 75.8521 149.501 75.7671 149.561 75.7026C149.622 75.6323 149.682 75.5796 149.742 75.5444C149.802 75.5092 149.866 75.4858 149.932 75.4741C149.998 75.4565 150.073 75.4477 150.158 75.4477H150.582V76.0631H150.022L149.29 77.1883C149.242 77.2645 149.2 77.3261 149.164 77.373C149.128 77.4198 149.092 77.4609 149.055 77.496C149.019 77.5253 148.98 77.5517 148.938 77.5752C148.896 77.5927 148.845 77.6103 148.784 77.6279V77.6631C148.911 77.6806 149.019 77.7217 149.11 77.7861C149.206 77.8448 149.305 77.962 149.408 78.1378L150.122 79.3686H150.655V79.9839H150.131C149.974 79.9839 149.83 79.9459 149.697 79.8697C149.57 79.7876 149.447 79.6411 149.327 79.4301L148.468 77.9444H147.538V79.9839H146.815V75.4477Z" fill="white"/>
<path d="M154.656 75.4477H155.369L153.282 81.0389C153.228 81.1737 153.174 81.285 153.12 81.373C153.065 81.4667 152.999 81.54 152.921 81.5927C152.843 81.6455 152.743 81.6836 152.623 81.707C152.508 81.7305 152.367 81.7422 152.198 81.7422H151.828V81.1268H152.559L152.912 80.1598L151.168 75.4477H151.891L153.011 78.5334L153.228 79.2719H153.273L153.526 78.5334L154.656 75.4477Z" fill="white"/>
<path d="M156.291 75.4477H157.014V77.3378H159.345V75.4477H160.068V79.9839H159.345V77.9532H157.014V79.9839H156.291V75.4477Z" fill="white"/>
<path d="M160.907 79.3686H161.44C161.627 79.0755 161.778 78.7092 161.892 78.2697C162.007 77.8301 162.064 77.3261 162.064 76.7576V75.4477H165.217V79.3686H165.994V81.2147H165.335V79.9839H161.567V81.2147H160.907V79.3686ZM164.494 79.3686V76.0631H162.751V76.7927C162.751 77.3964 162.696 77.9122 162.588 78.34C162.486 78.762 162.362 79.1048 162.218 79.3686H164.494Z" fill="white"/>
<path d="M166.994 75.4477H167.717V77.0916H168.955C169.425 77.0916 169.798 77.2206 170.075 77.4785C170.353 77.7363 170.491 78.0909 170.491 78.5422C170.491 78.9993 170.356 79.3539 170.084 79.6059C169.813 79.8579 169.44 79.9839 168.964 79.9839H166.994V75.4477ZM168.856 79.3686C169.127 79.3686 169.338 79.3187 169.488 79.2191C169.639 79.1195 169.714 78.9524 169.714 78.718V78.3488C169.714 78.1143 169.639 77.9502 169.488 77.8565C169.338 77.7568 169.127 77.707 168.856 77.707H167.717V79.3686H168.856ZM171.277 75.4477H172V79.9839H171.277V75.4477Z" fill="white"/>
<defs>
<linearGradient id="paint0_linear" x1="0" y1="0.742188" x2="73.6233" y2="150.563" gradientUnits="userSpaceOnUse">
<stop stop-color="#FF0076"/>
<stop offset="1" stop-color="#590FB7"/>
</linearGradient>
</defs>
</svg>
