<svg width="276" height="15" viewBox="0 0 276 15" fill="none" xmlns="http://www.w3.org/2000/svg">
<circle cx="138" cy="7.45117" r="5.5" stroke="#8C30F5" stroke-width="3"/>
<circle cx="161" cy="7.45117" r="3.5" fill="#8C30F5" stroke="#8C30F5"/>
<circle cx="115" cy="7.45117" r="3.5" fill="#8C30F5" stroke="#8C30F5"/>
<circle cx="55" cy="7.45117" r="3.5" fill="#8C30F5" stroke="#8C30F5"/>
<circle cx="35" cy="7.45117" r="3.5" fill="#8C30F5" stroke="#8C30F5"/>
<circle cx="181" cy="7.45117" r="3.5" fill="#8C30F5" stroke="#8C30F5"/>
<circle cx="201" cy="7.45117" r="3.5" fill="#8C30F5" stroke="#8C30F5"/>
<circle cx="221" cy="7.45117" r="3.5" fill="#8C30F5" stroke="#8C30F5"/>
<circle cx="241" cy="7.45117" r="3.5" fill="#8C30F5" stroke="#8C30F5"/>
<circle cx="95" cy="7.45117" r="3.5" fill="#8C30F5" stroke="#8C30F5"/>
<circle cx="75" cy="7.45117" r="3.5" fill="#8C30F5" stroke="#8C30F5"/>
<path fill-rule="evenodd" clip-rule="evenodd" d="M268.293 0.744065C267.902 1.13459 267.902 1.76775 268.293 2.15828L273.586 7.45117L268.293 12.7441C267.902 13.1346 267.902 13.7678 268.293 14.1583C268.683 14.5488 269.317 14.5488 269.707 14.1583L275.707 8.15828C276.098 7.76775 276.098 7.13459 275.707 6.74407L269.707 0.744065C269.317 0.353541 268.683 0.353541 268.293 0.744065Z" fill="#8C30F5"/>
<path fill-rule="evenodd" clip-rule="evenodd" d="M7.70711 0.744065C8.09763 1.13459 8.09763 1.76775 7.70711 2.15828L2.41421 7.45117L7.70711 12.7441C8.09763 13.1346 8.09763 13.7678 7.70711 14.1583C7.31658 14.5488 6.68342 14.5488 6.29289 14.1583L0.292894 8.15828C-0.0976295 7.76775 -0.0976295 7.13459 0.292894 6.74407L6.29289 0.744065C6.68342 0.353541 7.31658 0.353541 7.70711 0.744065Z" fill="#8C30F5"/>
</svg>
