<svg width="157" height="29" viewBox="0 0 157 29" fill="none" xmlns="http://www.w3.org/2000/svg">
<path d="M16.0117 19.3322H18.3276V10.3568H26.0521V8.28516H16.0117V19.3322Z" fill="#3B3952"/>
<path d="M31.8426 9.34626C31.9273 12.258 31.426 15.7635 30.8823 16.6857C30.2892 17.6836 29.8091 17.6205 28.8982 17.6078C28.7853 17.6078 28.6794 17.6078 28.5664 17.6078V19.6795C28.6653 19.6795 28.7641 19.6795 28.8629 19.6795C28.9688 19.6795 29.0748 19.6795 29.1878 19.6795C30.2609 19.6795 31.7155 19.6227 32.7746 17.8036C33.7137 16.193 33.989 12.4096 33.989 10.3505H40.3437V19.3258H42.6596V8.28516H31.8214L31.8426 9.34626Z" fill="#3B3952"/>
<path d="M52.0151 8.28516L48.3789 19.3322H50.7938L51.4152 17.431H60.6786L61.3 19.3322H63.715L60.0856 8.28516H52.0151ZM52.1071 15.3592L53.7524 10.3505H58.363L60.0078 15.3592H52.1071Z" fill="#3B3952"/>
<path d="M117.362 8.28516H109.284L106.495 17.2604H104.836V19.3322H121.817V17.2604H120.158L117.362 8.28516ZM111.014 10.3568H115.625L117.743 17.2604H108.896L111.014 10.3568Z" fill="#3B3952"/>
<path d="M129.59 8.28516L125.953 19.3322H128.368L128.989 17.431H138.253L138.874 19.3322H141.289L137.66 8.28516H129.59ZM129.681 15.3592L131.326 10.3568H135.937L137.582 15.3656H129.681V15.3592Z" fill="#3B3952"/>
<path d="M80.803 13.4078C81.6498 12.6814 81.8202 11.7971 81.8202 11.2161C81.8202 10.4139 81.403 8.97383 78.607 8.36118C77.2865 8.07063 75.8389 8.03906 74.8722 8.03906C73.2124 8.03906 70.6073 8.24747 70.1835 8.27903H69.8516V19.326H70.1975C70.586 19.3513 73.3049 19.5282 75.2248 19.5282C81.1556 19.5282 82.3989 17.4375 82.3989 15.6816C82.3989 15.0058 82.1095 14.3931 81.5727 13.9131C81.3465 13.7236 81.0924 13.553 80.803 13.4078ZM79.5037 11.2161C79.5037 12.1951 78.2191 12.5993 75.0625 12.5993H72.168V10.2181C73.0501 10.1613 74.0879 10.1108 74.8722 10.1108C78.5291 10.1108 79.5037 10.8055 79.5037 11.2161ZM75.2248 17.4627C74.2928 17.4627 73.1279 17.4186 72.1746 17.368V14.671H75.0272C75.0485 14.671 75.0765 14.671 75.1051 14.671C75.2528 14.671 75.4157 14.671 75.5781 14.671C77.9364 14.671 79.4046 14.911 79.9415 15.3911C80.0472 15.4795 80.0825 15.5616 80.0825 15.6879C80.0825 17.1533 77.4421 17.4627 75.2248 17.4627Z" fill="#3B3952"/>
<path d="M88.957 8.28516V19.3322H99.5685V17.2604H91.2721V15.3908H97.2601V13.3191H91.2721V10.3568H99.5685V8.28516H88.957Z" fill="#3B3952"/>
<path d="M140.967 0H15.7243C7.05369 0 0 6.30984 0 14.0661C0 21.8224 7.05369 28.1322 15.7243 28.1322H140.96C149.631 28.1322 156.685 21.8224 156.685 14.0661C156.685 6.30984 149.638 0 140.967 0ZM140.967 26.0668H15.7243C8.33164 26.0668 2.31592 20.6855 2.31592 14.0725C2.31592 7.45939 8.33164 2.07169 15.7243 2.07169H140.96C148.353 2.07169 154.369 7.45307 154.369 14.0661C154.369 20.6792 148.36 26.0668 140.967 26.0668Z" fill="#3B3952"/>
</svg>
