<svg width="141" height="44" viewBox="0 0 141 44" fill="none" xmlns="http://www.w3.org/2000/svg">
<path d="M21.3424 37.8137C13.398 37.8137 9.72234 31.3683 9.72234 25.0422C9.73851 23.9246 9.818 22.8088 9.95957 21.7003C11.2643 13.5846 16.5992 5.82623 21.3424 5.82623C26.796 5.82623 32.9612 15.9714 32.9612 24.9231C32.9814 25.7206 32.9423 26.5185 32.8439 27.3101C32.0136 32.8003 28.3379 37.8137 21.3424 37.8137ZM38.5347 0.216835H4.26879C3.70671 0.214443 3.15136 0.323963 2.63246 0.53908C2.1135 0.75413 1.64176 1.07059 1.24547 1.47006C0.84785 1.86952 0.533783 2.34415 0.320835 2.86649C0.10649 3.3889 -0.00267767 3.94866 4.98767e-05 4.5136V39.0072C-0.00267767 39.5721 0.10649 40.1316 0.320835 40.654C0.533783 41.1763 0.84785 41.6515 1.24547 42.0509C1.64176 42.4503 2.1135 42.7666 2.63246 42.9819C3.15136 43.1966 3.70671 43.3062 4.26879 43.3036H38.5347C39.0954 43.3062 39.6521 43.1966 40.171 42.9819C40.6899 42.7666 41.1617 42.4503 41.558 42.0509C41.9543 41.6515 42.2697 41.1763 42.4827 40.654C42.697 40.1316 42.8048 39.5721 42.8034 39.0072V4.5136C42.8048 3.94866 42.697 3.3889 42.4827 2.86649C42.2697 2.34415 41.9543 1.86952 41.558 1.47006C41.1617 1.07059 40.6899 0.75413 40.171 0.53908C39.6521 0.323963 39.0954 0.214443 38.5347 0.216835Z" fill="#0085C3"/>
<path d="M85.6094 10.9883V32.5318H92.198V16.4937H99.0315L99.5198 10.9883H85.6094Z" fill="#0085C3"/>
<path d="M70.626 30.3876L74.074 22.1774H74.4312L75.1444 32.5318H81.3273L80.0194 10.9883H73.9556L68.7234 23.1274H68.3675L63.0161 10.9883H57.0719L55.6445 32.4112H61.7089L62.303 22.0567H62.6602L66.4655 30.2701L70.626 30.3876Z" fill="#0085C3"/>
<path d="M102.025 16.374H107.634V32.5318H114.217V16.374H120.556L120.921 10.9883H101.66L102.025 16.374Z" fill="#0085C3"/>
<path d="M139.837 27.8927C138.076 28.1354 136.302 28.2572 134.525 28.2576C131.061 28.2576 130.368 27.0417 130.368 24.123V20.5959C130.368 17.5556 130.945 16.4612 134.525 16.4612C136.225 16.4617 137.922 16.5836 139.607 16.8261L139.953 11.4751C138 11.1921 136.034 11.0296 134.064 10.9883C126.789 10.9883 124.133 13.541 124.133 19.6229V24.9743C124.133 31.7847 127.367 33.609 133.949 33.609C136.034 33.5679 138.116 33.4056 140.183 33.1225L139.837 27.8927Z" fill="#0085C3"/>
</svg>
