<svg width="298" height="180" viewBox="0 0 298 180" fill="none" xmlns="http://www.w3.org/2000/svg">
<path fill-rule="evenodd" clip-rule="evenodd" d="M8.50391 17.0703H254.802V131.684H8.50391V17.0703ZM10.7951 19.3626V129.392H252.511V19.3626H10.7951Z" fill="#6F49E3" fill-opacity="0.7"/>
<path d="M271.058 17.4766C271.058 27.1287 263.416 34.9532 253.988 34.9532C244.561 34.9532 236.918 27.1287 236.918 17.4766C236.918 7.82454 244.561 0 253.988 0C263.416 0 271.058 7.82454 271.058 17.4766Z" fill="#6340CD" fill-opacity="0.25"/>
<g filter="url(#filter0_ddd)">
<path d="M261 17.5C261 21.6421 257.642 25 253.5 25C249.358 25 246 21.6421 246 17.5C246 13.3579 249.358 10 253.5 10C257.642 10 261 13.3579 261 17.5Z" fill="white"/>
</g>
<path d="M259 17.5C259 20.5376 256.538 23 253.5 23C250.462 23 248 20.5376 248 17.5C248 14.4624 250.462 12 253.5 12C256.538 12 259 14.4624 259 17.5Z" fill="#6F49E3"/>
<g filter="url(#filter1_ddd)">
<path d="M17 130.5C17 134.642 13.6421 138 9.5 138C5.35786 138 2 134.642 2 130.5C2 126.358 5.35786 123 9.5 123C13.6421 123 17 126.358 17 130.5Z" fill="white"/>
</g>
<g filter="url(#filter2_ddd)">
<path d="M261 130.5C261 134.642 257.642 138 253.5 138C249.358 138 246 134.642 246 130.5C246 126.358 249.358 123 253.5 123C257.642 123 261 126.358 261 130.5Z" fill="white"/>
</g>
<g filter="url(#filter3_ddd)">
<path d="M17 19.5C17 23.6421 13.6421 27 9.5 27C5.35786 27 2 23.6421 2 19.5C2 15.3579 5.35786 12 9.5 12C13.6421 12 17 15.3579 17 19.5Z" fill="white"/>
</g>
<path d="M15 130.5C15 133.538 12.5376 136 9.5 136C6.46243 136 4 133.538 4 130.5C4 127.462 6.46243 125 9.5 125C12.5376 125 15 127.462 15 130.5Z" fill="#6F49E3"/>
<path d="M259 130.5C259 133.538 256.538 136 253.5 136C250.462 136 248 133.538 248 130.5C248 127.462 250.462 125 253.5 125C256.538 125 259 127.462 259 130.5Z" fill="#6F49E3"/>
<path d="M15 19.5C15 22.5376 12.5376 25 9.5 25C6.46243 25 4 22.5376 4 19.5C4 16.4624 6.46243 14 9.5 14C12.5376 14 15 16.4624 15 19.5Z" fill="#6F49E3"/>
<g filter="url(#filter4_d)">
<path d="M10.9414 74.3772C10.9414 44.0742 35.6054 19.5088 66.0301 19.5088H198.087C228.511 19.5088 253.175 44.0742 253.175 74.3772C253.175 104.68 228.511 129.246 198.087 129.246H66.03C35.6054 129.246 10.9414 104.68 10.9414 74.3772Z" fill="white"/>
</g>
<path d="M209.826 88.6047L50.7308 91.9881C49.8513 92.0068 49.1484 92.7025 49.1484 93.5543C49.1484 94.4066 49.8522 95.1026 50.7323 95.1205L209.83 98.3568C212.653 98.4142 214.973 96.2144 214.973 93.4807C214.973 90.7452 212.65 88.5447 209.826 88.6047Z" fill="url(#paint0_linear)"/>
<path d="M45.2687 63.154C44.7514 62.5828 44.4991 61.8523 44.4991 60.9757C44.4991 60.0991 44.7514 59.3686 45.2687 58.7974C45.786 58.2263 46.442 57.9341 47.2242 57.9341C48.0064 57.9341 48.6498 58.2263 49.1671 58.7974C49.6843 59.3686 49.9493 60.0991 49.9493 60.9757C49.9493 61.8523 49.6843 62.5828 49.1671 63.154C48.6498 63.7251 48.0064 64.0173 47.2242 64.0173C46.442 64.0173 45.786 63.7251 45.2687 63.154ZM42.6445 60.9757C42.6445 62.3172 43.0735 63.4595 43.944 64.4025C44.8145 65.3455 45.9121 65.8104 47.2242 65.8104C48.5363 65.8104 49.6213 65.3455 50.4918 64.4025C51.3623 63.4595 51.8039 62.3172 51.8039 60.9757C51.8039 59.6209 51.3623 58.4787 50.4918 57.5489C49.6213 56.6059 48.5363 56.141 47.2242 56.141C45.9121 56.141 44.8145 56.6059 43.944 57.5489C43.0735 58.4787 42.6445 59.6209 42.6445 60.9757Z" fill="black"/>
<path d="M60.4715 67.3113V64.0572H59.437V58.9967H57.6581V64.0572H55.1223V58.9967H53.3434V65.6244H58.7557V67.3113H60.4715Z" fill="black"/>
<path d="M64.775 65.7971C65.8096 65.7971 66.6044 65.5713 67.1721 65.1197V63.6188C66.5287 64.004 65.86 64.2033 65.1535 64.2033C64.0433 64.2033 63.2359 63.7251 63.0466 62.8219H67.5632V62.3305C67.5632 61.3476 67.2856 60.5241 66.7432 59.8467C66.2007 59.1693 65.4815 58.824 64.5606 58.824C63.5891 58.824 62.7943 59.1561 62.1887 59.8334C61.5831 60.4976 61.2804 61.321 61.2804 62.3039C61.2804 63.3532 61.621 64.2033 62.2897 64.8408C62.9583 65.4783 63.791 65.7971 64.775 65.7971ZM63.0466 61.6265C63.1349 60.8429 63.6774 60.2983 64.4849 60.2983C65.2797 60.2983 65.7717 60.896 65.8096 61.6265H63.0466Z" fill="black"/>
<path d="M70.7077 65.6244V63.0212H73.294V65.6244H75.0729V58.9967H73.294V61.4539H70.7077V58.9967H68.9288V65.6244H70.7077Z" fill="black"/>
<path d="M78.4792 65.6244L81.3305 61.7195V65.6244H83.0841V58.9967H81.4188L78.5675 62.9016V58.9967H76.8139V65.6244H78.4792Z" fill="black"/>
<path d="M87.8879 65.6244V60.564H89.8813V58.9967H84.1409V60.564H86.109V65.6244H87.8879Z" fill="black"/>
<path d="M94.0115 65.7971C95.046 65.7971 95.8408 65.5713 96.4086 65.1197V63.6188C95.7651 64.004 95.0965 64.2033 94.39 64.2033C93.2797 64.2033 92.4723 63.7251 92.2831 62.8219H96.7997V62.3305C96.7997 61.3476 96.5221 60.5241 95.9796 59.8467C95.4371 59.1693 94.718 58.824 93.797 58.824C92.8256 58.824 92.0307 59.1561 91.4252 59.8334C90.8196 60.4976 90.5168 61.321 90.5168 62.3039C90.5168 63.3532 90.8574 64.2033 91.5261 64.8408C92.1948 65.4783 93.0274 65.7971 94.0115 65.7971ZM92.2831 61.6265C92.3714 60.8429 92.9139 60.2983 93.7213 60.2983C94.5161 60.2983 95.0082 60.896 95.046 61.6265H92.2831Z" fill="black"/>
<path d="M104.446 58.917C102.238 59.0896 100.977 60.3913 100.977 62.3039C100.977 63.247 101.28 64.0439 101.885 64.6814C102.503 65.3057 103.349 65.651 104.446 65.6909V68.2809H106.2V65.6909C108.42 65.5182 109.657 64.2298 109.657 62.3039C109.657 61.3609 109.354 60.564 108.736 59.9397C108.13 59.3154 107.285 58.9701 106.2 58.917V56.327H104.446V58.917ZM104.446 64.19C103.374 64.1369 102.693 63.4063 102.693 62.3039C102.693 61.2015 103.374 60.4976 104.446 60.4311V64.19ZM106.2 60.4311C107.272 60.4976 107.954 61.2015 107.954 62.3039C107.954 63.4063 107.272 64.1369 106.2 64.19V60.4311Z" fill="black"/>
<path d="M112.796 63.6321C112.468 63.2735 112.304 62.8352 112.304 62.3039C112.304 61.7726 112.468 61.3343 112.796 60.989C113.124 60.6304 113.54 60.4577 114.045 60.4577C114.549 60.4577 114.966 60.6304 115.294 60.989C115.622 61.3343 115.786 61.7726 115.786 62.3039C115.786 62.8352 115.622 63.2735 115.294 63.6321C114.966 63.9908 114.549 64.1634 114.045 64.1634C113.54 64.1634 113.124 63.9908 112.796 63.6321ZM110.55 62.3039C110.55 63.3001 110.878 64.1236 111.534 64.801C112.19 65.4651 113.023 65.7971 114.045 65.7971C115.066 65.7971 115.899 65.4651 116.555 64.801C117.211 64.1236 117.539 63.3001 117.539 62.3039C117.539 61.3343 117.211 60.5108 116.555 59.8334C115.899 59.1561 115.066 58.824 114.045 58.824C113.023 58.824 112.19 59.1561 111.534 59.8334C110.878 60.4976 110.55 61.321 110.55 62.3039Z" fill="black"/>
<path d="M122.699 58.824C121.791 58.824 121.097 59.1561 120.63 59.8069V58.9967H118.851V68.2809H120.63V64.8142C121.122 65.4651 121.803 65.7971 122.699 65.7971C123.557 65.7971 124.264 65.4651 124.819 64.801C125.386 64.1236 125.664 63.3001 125.664 62.3172C125.664 61.321 125.386 60.4976 124.819 59.8334C124.264 59.1561 123.557 58.824 122.699 58.824ZM122.195 60.4577C122.687 60.4577 123.103 60.6304 123.418 60.989C123.734 61.3476 123.898 61.7859 123.898 62.3172C123.898 62.8352 123.734 63.2735 123.418 63.6321C123.103 63.9908 122.687 64.1634 122.195 64.1634C121.501 64.1634 120.92 63.7517 120.63 63.1805V61.4539C120.92 60.8827 121.501 60.4577 122.195 60.4577Z" fill="black"/>
<path d="M128.648 65.6244V61.5336L130.2 63.5923H130.907L132.471 61.5336V65.6244H134.149V58.9967H132.395L130.553 61.4671L128.724 58.9967H126.97V65.6244H128.648Z" fill="black"/>
<path d="M141.883 64.1767C141.593 64.1767 141.442 64.004 141.442 63.672V61.4273C141.442 60.6171 141.164 59.9796 140.609 59.5147C140.066 59.0498 139.335 58.824 138.439 58.824C137.518 58.824 136.748 58.9967 136.105 59.3553V60.9226C136.698 60.5507 137.341 60.3647 138.01 60.3647C139.12 60.3647 139.675 60.7765 139.675 61.6133V61.8125C139.171 61.5336 138.565 61.4007 137.859 61.4007C137.177 61.4007 136.597 61.5867 136.105 61.9586C135.613 62.3305 135.373 62.8751 135.373 63.579C135.373 64.9205 136.332 65.7971 137.695 65.7971C138.59 65.7971 139.309 65.4916 139.865 64.8939C140.104 65.4651 140.571 65.744 141.29 65.744C141.707 65.744 142.022 65.651 142.249 65.4651V64.097C142.161 64.1501 142.035 64.1767 141.883 64.1767ZM139.675 63.672C139.347 64.1236 138.868 64.3494 138.25 64.3494C137.594 64.3494 137.127 64.0704 137.127 63.486C137.127 62.9415 137.606 62.6227 138.363 62.6227C138.881 62.6227 139.309 62.7555 139.675 63.0079V63.672Z" fill="black"/>
<path d="M146.275 65.6244V60.564H148.268V58.9967H142.528V60.564H144.496V65.6244H146.275Z" fill="black"/>
<path d="M155.752 65.6244C157.215 65.6244 158.048 64.9205 158.048 63.8048C158.048 62.968 157.644 62.3969 156.849 62.1047C157.367 61.8258 157.619 61.3609 157.619 60.6968C157.619 59.7272 156.912 58.9967 155.6 58.9967H152.043V65.6244H155.752ZM153.796 62.8219H155.31C155.928 62.8219 156.231 63.0743 156.231 63.5657C156.231 64.0572 155.928 64.3095 155.31 64.3095H153.796V62.8219ZM153.796 60.285H155.033C155.6 60.285 155.878 60.5108 155.878 60.9624C155.878 61.414 155.6 61.6398 155.033 61.6398H153.796V60.285Z" fill="black"/>
<path d="M162.501 65.7971C163.535 65.7971 164.33 65.5713 164.898 65.1197V63.6188C164.255 64.004 163.586 64.2033 162.879 64.2033C161.769 64.2033 160.962 63.7251 160.772 62.8219H165.289V62.3305C165.289 61.3476 165.012 60.5241 164.469 59.8467C163.927 59.1693 163.207 58.824 162.286 58.824C161.315 58.824 160.52 59.1561 159.915 59.8334C159.309 60.4976 159.006 61.321 159.006 62.3039C159.006 63.3532 159.347 64.2033 160.016 64.8408C160.684 65.4783 161.517 65.7971 162.501 65.7971ZM160.772 61.6265C160.861 60.8429 161.403 60.2983 162.211 60.2983C163.006 60.2983 163.498 60.896 163.535 61.6265H160.772Z" fill="black"/>
<path d="M170.238 59.4217C169.241 59.4217 168.459 59.7936 167.891 60.5507C167.942 59.9131 168.131 59.4217 168.484 59.0896C168.749 58.8373 168.9 58.6912 169.304 58.5318C169.708 58.3724 169.872 58.306 170.376 58.1997C170.641 58.1333 170.831 58.0935 170.969 58.0669L171.625 57.9474L172.294 57.8278V56.0879C171.209 56.2738 170.313 56.4864 169.607 56.7387C168.913 56.9778 168.295 57.3098 167.765 57.7216C166.718 58.5318 166.276 59.7139 166.276 61.4804C166.276 62.7954 166.579 63.8446 167.172 64.6283C167.765 65.4119 168.623 65.7971 169.733 65.7971C170.679 65.7971 171.461 65.4783 172.08 64.8408C172.71 64.2033 173.026 63.3798 173.026 62.3836C173.026 61.4937 172.761 60.7765 172.244 60.2319C171.726 59.6873 171.058 59.4217 170.238 59.4217ZM169.72 64.2165C168.661 64.2165 168.03 63.4196 168.017 61.9851C168.37 61.4007 169.077 60.9757 169.783 60.9757C170.654 60.9757 171.272 61.5734 171.272 62.5164C171.272 63.5126 170.629 64.2165 169.72 64.2165Z" fill="black"/>
<path d="M178.582 62.7821V61.0952H174.683V62.7821H178.582Z" fill="black"/>
<path d="M183.666 65.7971C184.41 65.7971 185.066 65.6377 185.659 65.3057V63.7118C185.167 64.0173 184.599 64.1634 183.956 64.1634C183.413 64.1634 182.947 63.9907 182.568 63.6454C182.19 63.3001 182 62.8485 182 62.3039C182 61.7594 182.19 61.3078 182.555 60.9757C182.934 60.6304 183.401 60.4577 183.956 60.4577C184.473 60.4577 185.016 60.5905 185.558 60.8562V59.2623C185.003 58.9701 184.385 58.824 183.691 58.824C182.745 58.824 181.937 59.1428 181.256 59.7803C180.587 60.4046 180.247 61.2414 180.247 62.2906C180.247 63.3399 180.587 64.19 181.256 64.8408C181.925 65.4783 182.732 65.7971 183.666 65.7971Z" fill="black"/>
<path d="M190.234 65.6244V60.564H192.227V58.9967H186.487V60.564H188.455V65.6244H190.234Z" fill="black"/>
<path d="M195.109 63.6321C194.781 63.2735 194.617 62.8352 194.617 62.3039C194.617 61.7726 194.781 61.3343 195.109 60.989C195.437 60.6304 195.853 60.4577 196.358 60.4577C196.862 60.4577 197.279 60.6304 197.607 60.989C197.935 61.3343 198.099 61.7726 198.099 62.3039C198.099 62.8352 197.935 63.2735 197.607 63.6321C197.279 63.9908 196.862 64.1634 196.358 64.1634C195.853 64.1634 195.437 63.9908 195.109 63.6321ZM192.863 62.3039C192.863 63.3001 193.191 64.1236 193.847 64.801C194.503 65.4651 195.336 65.7971 196.358 65.7971C197.379 65.7971 198.212 65.4651 198.868 64.801C199.524 64.1236 199.852 63.3001 199.852 62.3039C199.852 61.3343 199.524 60.5108 198.868 59.8334C198.212 59.1561 197.379 58.824 196.358 58.824C195.336 58.824 194.503 59.1561 193.847 59.8334C193.191 60.4976 192.863 61.321 192.863 62.3039Z" fill="black"/>
<path d="M205.012 58.824C204.104 58.824 203.41 59.1561 202.943 59.8069V58.9967H201.164V68.2809H202.943V64.8142C203.435 65.4651 204.116 65.7971 205.012 65.7971C205.87 65.7971 206.577 65.4651 207.132 64.801C207.699 64.1236 207.977 63.3001 207.977 62.3172C207.977 61.321 207.699 60.4976 207.132 59.8334C206.577 59.1561 205.87 58.824 205.012 58.824ZM204.508 60.4577C205 60.4577 205.416 60.6304 205.731 60.989C206.047 61.3476 206.211 61.7859 206.211 62.3172C206.211 62.8352 206.047 63.2735 205.731 63.6321C205.416 63.9908 205 64.1634 204.508 64.1634C203.814 64.1634 203.233 63.7517 202.943 63.1805V61.4539C203.233 60.8827 203.814 60.4577 204.508 60.4577Z" fill="black"/>
<path d="M210.949 65.6244L213.8 61.7195V65.6244H215.554V58.9967H213.888L211.037 62.9016V58.9967H209.283V65.6244H210.949Z" fill="black"/>
<path d="M220.294 65.7971C221.039 65.7971 221.695 65.6377 222.288 65.3057V63.7118C221.796 64.0173 221.228 64.1634 220.585 64.1634C220.042 64.1634 219.575 63.9907 219.197 63.6454C218.818 63.3001 218.629 62.8485 218.629 62.3039C218.629 61.7594 218.818 61.3078 219.184 60.9757C219.563 60.6304 220.029 60.4577 220.585 60.4577C221.102 60.4577 221.644 60.5905 222.187 60.8562V59.2623C221.632 58.9701 221.014 58.824 220.32 58.824C219.373 58.824 218.566 59.1428 217.885 59.7803C217.216 60.4046 216.875 61.2414 216.875 62.2906C216.875 63.3399 217.216 64.19 217.885 64.8408C218.553 65.4783 219.361 65.7971 220.294 65.7971Z" fill="black"/>
<path d="M209.8 106.6C217.422 106.6 223.6 100.422 223.6 92.8C223.6 85.1785 217.422 79 209.8 79C202.178 79 196 85.1785 196 92.8C196 100.422 202.178 106.6 209.8 106.6Z" fill="url(#paint1_radial)"/>
<path opacity="0.5" d="M209.8 106.6C217.422 106.6 223.6 100.422 223.6 92.8C223.6 85.1785 217.422 79 209.8 79C202.178 79 196 85.1785 196 92.8C196 100.422 202.178 106.6 209.8 106.6Z" fill="url(#paint2_radial)"/>
<path d="M209.8 106.6C217.422 106.6 223.6 100.422 223.6 92.8C223.6 85.1785 217.422 79 209.8 79C202.178 79 196 85.1785 196 92.8C196 100.422 202.178 106.6 209.8 106.6Z" fill="url(#paint3_radial)"/>
<path d="M209.8 106.6C217.422 106.6 223.6 100.422 223.6 92.8C223.6 85.1785 217.422 79 209.8 79C202.178 79 196 85.1785 196 92.8C196 100.422 202.178 106.6 209.8 106.6Z" fill="url(#paint4_radial)"/>
<path d="M219.314 97.3885C219.323 97.3109 219.332 97.2333 219.34 97.1643C219.323 96.9141 219.168 96.6813 218.918 96.595C218.788 96.5433 218.65 96.5433 218.512 96.5778C215.692 97.3626 212.759 97.768 209.801 97.768C206.843 97.768 203.91 97.3713 201.09 96.5778C200.96 96.5433 200.814 96.5433 200.684 96.595C200.443 96.6899 200.288 96.9055 200.262 97.1556C200.27 97.2419 200.279 97.3281 200.296 97.423L200.451 98.0699C200.486 98.1906 200.529 98.32 200.581 98.458C201.547 100.718 204.065 104.694 209.81 104.694C215.545 104.694 218.064 100.709 219.038 98.4494C219.081 98.3286 219.125 98.2165 219.15 98.1044L219.314 97.3885Z" fill="url(#paint5_radial)"/>
<path d="M209.799 104.064C212.024 104.064 213.732 103.426 215.034 102.52C213.602 101.856 211.877 101.425 209.799 101.425C207.72 101.425 205.986 101.856 204.555 102.529C205.866 103.434 207.573 104.064 209.799 104.064Z" fill="url(#paint6_radial)"/>
<path d="M219.151 98.0785L219.307 97.4144C219.324 97.3195 219.332 97.2333 219.332 97.1556C219.315 96.9055 219.151 96.6899 218.91 96.595C218.78 96.5433 218.642 96.5433 218.504 96.5778C215.684 97.3626 212.752 97.768 209.793 97.768C206.835 97.768 203.902 97.3713 201.082 96.5778C200.953 96.5433 200.806 96.5433 200.677 96.595C200.435 96.6899 200.28 96.9055 200.254 97.1556C200.263 97.2333 200.271 97.3281 200.28 97.423L200.435 98.0785C200.47 98.1993 200.513 98.3286 200.564 98.458C200.953 99.3723 201.599 100.563 202.6 101.658C201.66 100.537 202.816 99.9243 204.894 100.174C206.964 100.425 209.793 100.433 209.793 100.433C209.793 100.433 212.622 100.425 214.692 100.174C216.762 99.9243 217.927 100.545 216.986 101.658C217.996 100.563 218.634 99.3723 219.022 98.458C219.074 98.32 219.117 98.1993 219.151 98.0785Z" fill="url(#paint7_linear)"/>
<path d="M209.801 98.3973C206.816 98.3973 203.867 98.0005 201.012 97.207L201.046 97.5952C201.115 98.3369 201.659 98.9493 202.383 99.1132C204.807 99.6479 207.291 99.9153 209.792 99.9153C212.492 99.9153 215.165 99.6048 217.77 98.9838C218.158 98.8889 218.443 98.5612 218.486 98.1644L218.581 97.2157C215.735 98.0005 212.785 98.3973 209.801 98.3973Z" fill="url(#paint8_radial)"/>
<path d="M204.246 84.822C203.314 85.2447 202.702 86.0899 202.529 87.0214C201.71 86.5298 200.675 86.4263 199.744 86.8489C198.234 87.5303 197.57 89.307 198.251 90.8078C199.752 94.1284 206.083 94.8701 206.083 94.8701C206.083 94.8701 209.705 89.6348 208.205 86.3055C207.532 84.8134 205.755 84.1407 204.246 84.822Z" fill="url(#paint9_radial)"/>
<path opacity="0.5" d="M205.488 84.5547C208.058 86.2624 208.092 90.0057 206.842 91.6358C205.462 93.4384 204.004 93.5419 200.761 93.2401C203.116 94.5252 206.083 94.8702 206.083 94.8702C206.083 94.8702 209.705 89.6348 208.205 86.3056C207.713 85.2188 206.626 84.5633 205.488 84.5547Z" fill="url(#paint10_radial)"/>
<path opacity="0.5" d="M204.246 84.822C203.314 85.2447 202.702 86.0899 202.529 87.0214C201.71 86.5298 200.675 86.4263 199.744 86.8489C198.234 87.5303 197.57 89.307 198.251 90.8078C199.752 94.1284 206.083 94.8701 206.083 94.8701C206.083 94.8701 209.705 89.6348 208.205 86.3055C207.532 84.8134 205.755 84.1407 204.246 84.822Z" fill="url(#paint11_radial)"/>
<path opacity="0.5" d="M204.246 84.822C203.314 85.2447 202.702 86.0899 202.529 87.0214C201.71 86.5298 200.675 86.4263 199.744 86.8489C198.234 87.5303 197.57 89.307 198.251 90.8078C199.752 94.1284 206.083 94.8701 206.083 94.8701C206.083 94.8701 209.705 89.6348 208.205 86.3055C207.532 84.8134 205.755 84.1407 204.246 84.822Z" fill="url(#paint12_radial)"/>
<path opacity="0.24" d="M201.823 87.2546C202.383 87.7721 202.176 88.9193 201.348 89.8163C200.52 90.7133 199.399 91.0151 198.83 90.4976C198.269 89.9801 198.476 88.833 199.304 87.936C200.132 87.039 201.253 86.7371 201.823 87.2546Z" fill="url(#paint13_radial)"/>
<path opacity="0.24" d="M204.919 85.2279C205.497 85.478 205.644 86.4354 205.238 87.3669C204.833 88.2897 204.039 88.8331 203.453 88.583C202.866 88.3329 202.728 87.3755 203.134 86.444C203.539 85.5211 204.333 84.9777 204.919 85.2279Z" fill="url(#paint14_radial)"/>
<path opacity="0.32" d="M204.626 85.5296C206.204 85.3744 208.429 86.8061 207.36 90.3251C206.722 92.4296 205.626 93.8441 203.651 94.3789C205.023 94.7584 206.092 94.8878 206.092 94.8878C206.092 94.8878 209.715 89.6524 208.214 86.3231C207.532 84.8138 205.756 84.1496 204.255 84.831C203.323 85.2536 202.711 86.0989 202.539 87.0304C202.539 87.0304 203.47 85.6418 204.626 85.5296Z" fill="url(#paint15_linear)"/>
<path d="M220.066 86.8406C219.134 86.418 218.091 86.5215 217.28 87.0218C217.107 86.0816 216.495 85.245 215.563 84.8224C214.054 84.1496 212.286 84.8224 211.605 86.3318C210.112 89.6524 213.761 94.8791 213.761 94.8791C213.761 94.8791 220.083 94.1201 221.575 90.7909C222.248 89.2901 221.575 87.5134 220.066 86.8406Z" fill="url(#paint16_radial)"/>
<path opacity="0.5" d="M221.093 87.5908C221.524 90.6441 218.738 93.1539 216.686 93.3006C214.417 93.4644 213.382 92.4381 211.45 89.8161C212.045 92.4294 213.753 94.8876 213.753 94.8876C213.753 94.8876 220.075 94.1286 221.567 90.7993C222.068 89.6867 221.843 88.4447 221.093 87.5908Z" fill="url(#paint17_radial)"/>
<path opacity="0.5" d="M220.066 86.8406C219.134 86.418 218.091 86.5215 217.28 87.0218C217.107 86.0816 216.495 85.245 215.563 84.8224C214.054 84.1496 212.286 84.8224 211.605 86.3318C210.112 89.6524 213.761 94.8791 213.761 94.8791C213.761 94.8791 220.083 94.1201 221.575 90.7909C222.248 89.2901 221.575 87.5134 220.066 86.8406Z" fill="url(#paint18_radial)"/>
<path opacity="0.5" d="M220.066 86.8406C219.134 86.418 218.091 86.5215 217.28 87.0218C217.107 86.0816 216.495 85.245 215.563 84.8224C214.054 84.1496 212.286 84.8224 211.605 86.3318C210.112 89.6524 213.761 94.8791 213.761 94.8791C213.761 94.8791 220.083 94.1201 221.575 90.7909C222.248 89.2901 221.575 87.5134 220.066 86.8406Z" fill="url(#paint19_radial)"/>
<path opacity="0.24" d="M216.631 86.6337C216.614 87.4013 215.613 88.0051 214.397 87.9792C213.181 87.9533 212.206 87.3151 212.215 86.5475C212.232 85.7798 213.233 85.1761 214.449 85.202C215.674 85.2278 216.648 85.8661 216.631 86.6337Z" fill="url(#paint20_radial)"/>
<path opacity="0.24" d="M220.212 87.6078C220.41 88.2115 219.789 88.9533 218.832 89.2638C217.875 89.5743 216.935 89.3414 216.736 88.7376C216.538 88.1339 217.159 87.3921 218.116 87.0816C219.074 86.7625 220.014 87.004 220.212 87.6078Z" fill="url(#paint21_radial)"/>
<path opacity="0.32" d="M219.79 87.5816C220.955 88.6597 221.352 91.2731 218.014 92.8084C216.013 93.7226 214.227 93.8434 212.52 92.7221C213.141 93.9986 213.762 94.887 213.762 94.887C213.762 94.887 220.084 94.128 221.576 90.7987C222.249 89.2894 221.576 87.5212 220.066 86.8399C219.135 86.4172 218.091 86.5207 217.281 87.021C217.281 87.0124 218.945 86.7967 219.79 87.5816Z" fill="url(#paint22_linear)"/>
<defs>
<filter id="filter0_ddd" x="244" y="8" width="19" height="21" filterUnits="userSpaceOnUse" color-interpolation-filters="sRGB">
<feFlood flood-opacity="0" result="BackgroundImageFix"/>
<feColorMatrix in="SourceAlpha" type="matrix" values="0 0 0 0 0 0 0 0 0 0 0 0 0 0 0 0 0 0 127 0"/>
<feOffset/>
<feGaussianBlur stdDeviation="1"/>
<feColorMatrix type="matrix" values="0 0 0 0 0 0 0 0 0 0 0 0 0 0 0 0 0 0 0.15 0"/>
<feBlend mode="normal" in2="BackgroundImageFix" result="effect1_dropShadow"/>
<feColorMatrix in="SourceAlpha" type="matrix" values="0 0 0 0 0 0 0 0 0 0 0 0 0 0 0 0 0 0 127 0"/>
<feOffset/>
<feGaussianBlur stdDeviation="0.5"/>
<feColorMatrix type="matrix" values="0 0 0 0 0 0 0 0 0 0 0 0 0 0 0 0 0 0 0.1 0"/>
<feBlend mode="normal" in2="effect1_dropShadow" result="effect2_dropShadow"/>
<feColorMatrix in="SourceAlpha" type="matrix" values="0 0 0 0 0 0 0 0 0 0 0 0 0 0 0 0 0 0 127 0"/>
<feOffset dy="2"/>
<feGaussianBlur stdDeviation="1"/>
<feColorMatrix type="matrix" values="0 0 0 0 0 0 0 0 0 0 0 0 0 0 0 0 0 0 0.1 0"/>
<feBlend mode="normal" in2="effect2_dropShadow" result="effect3_dropShadow"/>
<feBlend mode="normal" in="SourceGraphic" in2="effect3_dropShadow" result="shape"/>
</filter>
<filter id="filter1_ddd" x="0" y="121" width="19" height="21" filterUnits="userSpaceOnUse" color-interpolation-filters="sRGB">
<feFlood flood-opacity="0" result="BackgroundImageFix"/>
<feColorMatrix in="SourceAlpha" type="matrix" values="0 0 0 0 0 0 0 0 0 0 0 0 0 0 0 0 0 0 127 0"/>
<feOffset/>
<feGaussianBlur stdDeviation="1"/>
<feColorMatrix type="matrix" values="0 0 0 0 0 0 0 0 0 0 0 0 0 0 0 0 0 0 0.15 0"/>
<feBlend mode="normal" in2="BackgroundImageFix" result="effect1_dropShadow"/>
<feColorMatrix in="SourceAlpha" type="matrix" values="0 0 0 0 0 0 0 0 0 0 0 0 0 0 0 0 0 0 127 0"/>
<feOffset/>
<feGaussianBlur stdDeviation="0.5"/>
<feColorMatrix type="matrix" values="0 0 0 0 0 0 0 0 0 0 0 0 0 0 0 0 0 0 0.1 0"/>
<feBlend mode="normal" in2="effect1_dropShadow" result="effect2_dropShadow"/>
<feColorMatrix in="SourceAlpha" type="matrix" values="0 0 0 0 0 0 0 0 0 0 0 0 0 0 0 0 0 0 127 0"/>
<feOffset dy="2"/>
<feGaussianBlur stdDeviation="1"/>
<feColorMatrix type="matrix" values="0 0 0 0 0 0 0 0 0 0 0 0 0 0 0 0 0 0 0.1 0"/>
<feBlend mode="normal" in2="effect2_dropShadow" result="effect3_dropShadow"/>
<feBlend mode="normal" in="SourceGraphic" in2="effect3_dropShadow" result="shape"/>
</filter>
<filter id="filter2_ddd" x="244" y="121" width="19" height="21" filterUnits="userSpaceOnUse" color-interpolation-filters="sRGB">
<feFlood flood-opacity="0" result="BackgroundImageFix"/>
<feColorMatrix in="SourceAlpha" type="matrix" values="0 0 0 0 0 0 0 0 0 0 0 0 0 0 0 0 0 0 127 0"/>
<feOffset/>
<feGaussianBlur stdDeviation="1"/>
<feColorMatrix type="matrix" values="0 0 0 0 0 0 0 0 0 0 0 0 0 0 0 0 0 0 0.15 0"/>
<feBlend mode="normal" in2="BackgroundImageFix" result="effect1_dropShadow"/>
<feColorMatrix in="SourceAlpha" type="matrix" values="0 0 0 0 0 0 0 0 0 0 0 0 0 0 0 0 0 0 127 0"/>
<feOffset/>
<feGaussianBlur stdDeviation="0.5"/>
<feColorMatrix type="matrix" values="0 0 0 0 0 0 0 0 0 0 0 0 0 0 0 0 0 0 0.1 0"/>
<feBlend mode="normal" in2="effect1_dropShadow" result="effect2_dropShadow"/>
<feColorMatrix in="SourceAlpha" type="matrix" values="0 0 0 0 0 0 0 0 0 0 0 0 0 0 0 0 0 0 127 0"/>
<feOffset dy="2"/>
<feGaussianBlur stdDeviation="1"/>
<feColorMatrix type="matrix" values="0 0 0 0 0 0 0 0 0 0 0 0 0 0 0 0 0 0 0.1 0"/>
<feBlend mode="normal" in2="effect2_dropShadow" result="effect3_dropShadow"/>
<feBlend mode="normal" in="SourceGraphic" in2="effect3_dropShadow" result="shape"/>
</filter>
<filter id="filter3_ddd" x="0" y="10" width="19" height="21" filterUnits="userSpaceOnUse" color-interpolation-filters="sRGB">
<feFlood flood-opacity="0" result="BackgroundImageFix"/>
<feColorMatrix in="SourceAlpha" type="matrix" values="0 0 0 0 0 0 0 0 0 0 0 0 0 0 0 0 0 0 127 0"/>
<feOffset/>
<feGaussianBlur stdDeviation="1"/>
<feColorMatrix type="matrix" values="0 0 0 0 0 0 0 0 0 0 0 0 0 0 0 0 0 0 0.15 0"/>
<feBlend mode="normal" in2="BackgroundImageFix" result="effect1_dropShadow"/>
<feColorMatrix in="SourceAlpha" type="matrix" values="0 0 0 0 0 0 0 0 0 0 0 0 0 0 0 0 0 0 127 0"/>
<feOffset/>
<feGaussianBlur stdDeviation="0.5"/>
<feColorMatrix type="matrix" values="0 0 0 0 0 0 0 0 0 0 0 0 0 0 0 0 0 0 0.1 0"/>
<feBlend mode="normal" in2="effect1_dropShadow" result="effect2_dropShadow"/>
<feColorMatrix in="SourceAlpha" type="matrix" values="0 0 0 0 0 0 0 0 0 0 0 0 0 0 0 0 0 0 127 0"/>
<feOffset dy="2"/>
<feGaussianBlur stdDeviation="1"/>
<feColorMatrix type="matrix" values="0 0 0 0 0 0 0 0 0 0 0 0 0 0 0 0 0 0 0.1 0"/>
<feBlend mode="normal" in2="effect2_dropShadow" result="effect3_dropShadow"/>
<feBlend mode="normal" in="SourceGraphic" in2="effect3_dropShadow" result="shape"/>
</filter>
<filter id="filter4_d" x="2.94141" y="17.5088" width="294.234" height="161.737" filterUnits="userSpaceOnUse" color-interpolation-filters="sRGB">
<feFlood flood-opacity="0" result="BackgroundImageFix"/>
<feColorMatrix in="SourceAlpha" type="matrix" values="0 0 0 0 0 0 0 0 0 0 0 0 0 0 0 0 0 0 127 0"/>
<feMorphology radius="6" operator="erode" in="SourceAlpha" result="effect1_dropShadow"/>
<feOffset dx="18" dy="24"/>
<feGaussianBlur stdDeviation="16"/>
<feColorMatrix type="matrix" values="0 0 0 0 0.0941176 0 0 0 0 0.152941 0 0 0 0 0.294118 0 0 0 0.14 0"/>
<feBlend mode="normal" in2="BackgroundImageFix" result="effect1_dropShadow"/>
<feBlend mode="normal" in="SourceGraphic" in2="effect1_dropShadow" result="shape"/>
</filter>
<linearGradient id="paint0_linear" x1="49.1484" y1="93.6062" x2="214.973" y2="93.6062" gradientUnits="userSpaceOnUse">
<stop stop-color="#FF0076"/>
<stop offset="1" stop-color="#590FB7"/>
</linearGradient>
<radialGradient id="paint1_radial" cx="0" cy="0" r="1" gradientUnits="userSpaceOnUse" gradientTransform="translate(207.085 87.2073) scale(16.6479)">
<stop stop-color="#FFE030"/>
<stop offset="1" stop-color="#FFB92E"/>
</radialGradient>
<radialGradient id="paint2_radial" cx="0" cy="0" r="1" gradientUnits="userSpaceOnUse" gradientTransform="translate(207.085 87.2073) scale(13.0976)">
<stop stop-color="#FFEA5F"/>
<stop offset="1" stop-color="#FFBC47" stop-opacity="0"/>
</radialGradient>
<radialGradient id="paint3_radial" cx="0" cy="0" r="1" gradientUnits="userSpaceOnUse" gradientTransform="translate(202.139 92.9211) rotate(32.7366) scale(7.30653 5.33297)">
<stop stop-color="#EB672A" stop-opacity="0.5"/>
<stop offset="0.4286" stop-color="#DC641B" stop-opacity="0.2846"/>
<stop offset="0.995" stop-color="#C25E00" stop-opacity="0"/>
</radialGradient>
<radialGradient id="paint4_radial" cx="0" cy="0" r="1" gradientUnits="userSpaceOnUse" gradientTransform="translate(217.469 92.9098) rotate(147.263) scale(7.30653 5.33297)">
<stop stop-color="#EB672A" stop-opacity="0.5"/>
<stop offset="0.4286" stop-color="#DC641B" stop-opacity="0.2846"/>
<stop offset="0.995" stop-color="#C25E00" stop-opacity="0"/>
</radialGradient>
<radialGradient id="paint5_radial" cx="0" cy="0" r="1" gradientUnits="userSpaceOnUse" gradientTransform="translate(209.8 100.625) scale(7.33254)">
<stop offset="0.00132565" stop-color="#7A4400"/>
<stop offset="1" stop-color="#643800"/>
</radialGradient>
<radialGradient id="paint6_radial" cx="0" cy="0" r="1" gradientUnits="userSpaceOnUse" gradientTransform="translate(209.904 103.063) scale(5.834 1.76397)">
<stop offset="0.2479" stop-color="#FF0000"/>
<stop offset="1" stop-color="#C20000"/>
</radialGradient>
<linearGradient id="paint7_linear" x1="219.233" y1="99.1087" x2="200.485" y2="99.1087" gradientUnits="userSpaceOnUse">
<stop offset="0.00132565" stop-color="#3C2200"/>
<stop offset="0.5" stop-color="#512D00"/>
<stop offset="1" stop-color="#3C2200"/>
</linearGradient>
<radialGradient id="paint8_radial" cx="0" cy="0" r="1" gradientUnits="userSpaceOnUse" gradientTransform="translate(209.8 98.5604) scale(16.0824)">
<stop offset="0.00132565" stop-color="white"/>
<stop offset="1" stop-color="#A9BCBE"/>
</radialGradient>
<radialGradient id="paint9_radial" cx="0" cy="0" r="1" gradientUnits="userSpaceOnUse" gradientTransform="translate(201.721 88.9896) rotate(-53.7394) scale(8.54695 6.77897)">
<stop offset="0.2479" stop-color="#FF0000"/>
<stop offset="0.8639" stop-color="#C20000"/>
</radialGradient>
<radialGradient id="paint10_radial" cx="0" cy="0" r="1" gradientUnits="userSpaceOnUse" gradientTransform="translate(201.697 88.4248) rotate(-53.7394) scale(7.35863 5.83647)">
<stop offset="0.2479" stop-color="#FF0000"/>
<stop offset="1" stop-color="#C20000"/>
</radialGradient>
<radialGradient id="paint11_radial" cx="0" cy="0" r="1" gradientUnits="userSpaceOnUse" gradientTransform="translate(201.721 88.9896) rotate(-53.7394) scale(8.54695 6.77897)">
<stop stop-color="white" stop-opacity="0.25"/>
<stop offset="1" stop-color="white" stop-opacity="0"/>
</radialGradient>
<radialGradient id="paint12_radial" cx="0" cy="0" r="1" gradientUnits="userSpaceOnUse" gradientTransform="translate(205.711 90.3853) rotate(-50.6229) scale(6.23856 3.0823)">
<stop stop-color="#BD2719" stop-opacity="0.25"/>
<stop offset="1" stop-color="#BD2719" stop-opacity="0"/>
</radialGradient>
<radialGradient id="paint13_radial" cx="0" cy="0" r="1" gradientUnits="userSpaceOnUse" gradientTransform="translate(200.325 88.8897) rotate(-46.0208) scale(2.21769 1.37762)">
<stop stop-color="white"/>
<stop offset="1" stop-color="white" stop-opacity="0"/>
</radialGradient>
<radialGradient id="paint14_radial" cx="0" cy="0" r="1" gradientUnits="userSpaceOnUse" gradientTransform="translate(204.185 86.9152) rotate(-65.0908) scale(1.83611 1.14064)">
<stop stop-color="white"/>
<stop offset="1" stop-color="white" stop-opacity="0"/>
</radialGradient>
<linearGradient id="paint15_linear" x1="208.724" y1="97.9673" x2="203.809" y2="84.5298" gradientUnits="userSpaceOnUse">
<stop stop-color="#860805"/>
<stop offset="1" stop-color="#BD2719" stop-opacity="0"/>
</linearGradient>
<radialGradient id="paint16_radial" cx="0" cy="0" r="1" gradientUnits="userSpaceOnUse" gradientTransform="translate(215.251 87.707) rotate(-5.26571) scale(8.54689 6.77911)">
<stop offset="0.2479" stop-color="#FF0000"/>
<stop offset="0.8639" stop-color="#C20000"/>
</radialGradient>
<radialGradient id="paint17_radial" cx="0" cy="0" r="1" gradientUnits="userSpaceOnUse" gradientTransform="translate(215.659 87.3149) rotate(-5.26571) scale(7.35857 5.83658)">
<stop offset="0.2479" stop-color="#FF0000"/>
<stop offset="1" stop-color="#C20000"/>
</radialGradient>
<radialGradient id="paint18_radial" cx="0" cy="0" r="1" gradientUnits="userSpaceOnUse" gradientTransform="translate(215.251 87.707) rotate(-5.26571) scale(8.54689 6.77911)">
<stop stop-color="white" stop-opacity="0.25"/>
<stop offset="1" stop-color="white" stop-opacity="0"/>
</radialGradient>
<radialGradient id="paint19_radial" cx="0" cy="0" r="1" gradientUnits="userSpaceOnUse" gradientTransform="translate(216.868 91.6099) rotate(-2.1516) scale(6.23872 3.08234)">
<stop stop-color="#BD2719" stop-opacity="0.25"/>
<stop offset="1" stop-color="#BD2719" stop-opacity="0"/>
</radialGradient>
<radialGradient id="paint20_radial" cx="0" cy="0" r="1" gradientUnits="userSpaceOnUse" gradientTransform="translate(214.427 86.6009) rotate(2.44968) scale(2.21772 1.37777)">
<stop stop-color="white"/>
<stop offset="1" stop-color="white" stop-opacity="0"/>
</radialGradient>
<radialGradient id="paint21_radial" cx="0" cy="0" r="1" gradientUnits="userSpaceOnUse" gradientTransform="translate(218.486 88.166) rotate(-16.6196) scale(1.83617 1.14066)">
<stop stop-color="white"/>
<stop offset="1" stop-color="white" stop-opacity="0"/>
</radialGradient>
<linearGradient id="paint22_linear" x1="213.2" y1="98.8991" x2="220.001" y2="86.3118" gradientUnits="userSpaceOnUse">
<stop stop-color="#860805"/>
<stop offset="1" stop-color="#BD2719" stop-opacity="0"/>
</linearGradient>
</defs>
</svg>
