<svg width="58" height="58" viewBox="0 0 58 58" fill="none" xmlns="http://www.w3.org/2000/svg">
<path d="M41.4908 55.0979C39.9968 55.0979 38.3768 54.7919 36.6488 54.0539C36.2888 53.8919 36.1088 53.4779 36.2708 53.1179C36.4328 52.7579 36.8468 52.5779 37.2068 52.7399C42.6788 55.0439 46.9448 52.6139 49.1228 49.5719C49.3568 49.2479 49.8068 49.1758 50.1308 49.4098C50.4548 49.6438 50.5268 50.0938 50.2928 50.4178C48.4928 52.9199 45.4148 55.0979 41.4908 55.0979Z" fill="url(#paint0_linear)"/>
<path d="M28.8 57.6C44.7058 57.6 57.6 44.7058 57.6 28.8C57.6 12.8942 44.7058 0 28.8 0C12.8942 0 0 12.8942 0 28.8C0 44.7058 12.8942 57.6 28.8 57.6Z" fill="url(#paint1_radial)"/>
<path opacity="0.5" d="M28.8 57.6C44.7058 57.6 57.6 44.7058 57.6 28.8C57.6 12.8942 44.7058 0 28.8 0C12.8942 0 0 12.8942 0 28.8C0 44.7058 12.8942 57.6 28.8 57.6Z" fill="url(#paint2_radial)"/>
<path opacity="0.5" d="M37.6563 38.3039C39.9783 38.4479 42.1383 37.8899 43.9743 36.8099C44.4603 36.5219 45.0903 36.5759 45.5043 36.9719C45.6663 37.1339 45.8283 37.2419 46.0263 37.3319C46.4223 38.8439 47.2683 40.1759 48.1143 41.4719C49.5183 43.6499 50.7603 45.5939 50.0223 48.2399C50.5983 47.6099 51.1383 46.9619 51.6603 46.2959C51.5163 44.1359 50.3823 42.3539 49.3203 40.6979C48.6183 39.5999 47.9343 38.5379 47.5563 37.4039C47.8083 37.3139 48.0423 37.1699 48.2403 36.9539C48.9063 36.2879 48.9783 35.2619 48.4743 34.5059C48.4383 34.4699 48.4203 34.4159 48.3843 34.3799C48.3843 34.3799 48.3843 34.3799 48.3843 34.3619C48.3483 34.3079 48.2943 34.2719 48.2583 34.2179L47.5383 33.5159C48.9243 31.5179 49.6983 29.0519 49.5183 26.4059C49.1583 20.7179 44.4423 16.1639 38.7363 15.9839C32.2923 15.7859 27.0183 21.0419 27.2163 27.5039C27.4143 33.2279 31.9503 37.9439 37.6563 38.3039ZM38.3763 18.0179C43.4343 18.0179 47.5203 22.1219 47.5203 27.1619C47.5203 32.2019 43.4163 36.3059 38.3763 36.3059C33.3183 36.3059 29.2323 32.2019 29.2323 27.1619C29.2323 22.1219 33.3363 18.0179 38.3763 18.0179Z" fill="url(#paint3_radial)"/>
<path d="M19.4048 30.0238C20.9357 30.0238 22.1768 28.146 22.1768 25.8297C22.1768 23.5135 20.9357 21.6357 19.4048 21.6357C17.8739 21.6357 16.6328 23.5135 16.6328 25.8297C16.6328 28.146 17.8739 30.0238 19.4048 30.0238Z" fill="url(#paint4_radial)"/>
<path d="M19.4048 23.0579C20.5928 23.0579 21.6368 24.1019 22.1768 25.6319C22.1408 23.3639 20.9168 21.5459 19.4048 21.5459C17.8928 21.5459 16.6688 23.3639 16.6328 25.6319C17.1728 24.1019 18.1988 23.0579 19.4048 23.0579Z" fill="url(#paint5_linear)"/>
<path d="M38.1978 30.0238C39.7287 30.0238 40.9698 28.146 40.9698 25.8297C40.9698 23.5135 39.7287 21.6357 38.1978 21.6357C36.6669 21.6357 35.4258 23.5135 35.4258 25.8297C35.4258 28.146 36.6669 30.0238 38.1978 30.0238Z" fill="url(#paint6_radial)"/>
<path d="M38.1978 23.1663C37.0098 23.1663 35.9658 24.2103 35.4258 25.7403C35.4618 23.4723 36.6858 21.6543 38.1978 21.6543C39.7098 21.6543 40.9338 23.4723 40.9698 25.7403C40.4298 24.2103 39.3858 23.1663 38.1978 23.1663Z" fill="url(#paint7_linear)"/>
<path d="M23.7075 17.4417C22.6635 17.4957 21.7095 17.4777 19.4055 16.7937C16.0035 15.8037 15.1755 16.5597 12.9435 18.5937C12.7815 18.7377 12.6015 18.8997 12.4215 19.0617C12.0615 19.3857 12.0075 19.9796 12.3315 20.4476C12.5295 20.7356 13.3215 21.2037 14.0235 20.6097C16.2015 18.7917 17.8035 18.9896 19.7295 19.4576C21.2595 19.8176 22.8435 20.2136 24.5355 19.3856C25.2195 19.0616 25.3995 18.5757 25.2375 18.0537C25.0395 17.4057 24.4455 17.3877 23.7075 17.4417Z" fill="url(#paint8_linear)"/>
<path d="M34.0221 14.0217C35.0661 13.9317 35.9481 13.6617 38.1981 12.7437C40.9881 11.6097 42.8961 12.1857 44.8401 13.5717C45.0201 13.6977 45.2181 13.8237 45.4341 13.9677C45.8481 14.2377 45.9741 14.8317 45.7221 15.3177C45.5781 15.6237 44.8401 16.1997 44.0661 15.7317C41.6361 14.2557 40.0881 14.6877 38.2521 15.4257C36.7941 16.0197 35.2821 16.6317 33.4821 16.0557C32.7621 15.8217 32.5101 15.3897 32.5821 14.8497C32.6901 14.2017 33.2841 14.0937 34.0221 14.0217Z" fill="url(#paint9_linear)"/>
<path d="M37.1522 46.8726C37.0262 46.8726 36.9182 46.8545 36.7922 46.8185C36.7562 46.8185 33.9842 46.0265 30.6182 45.5585C26.3162 44.9645 23.0222 45.1085 21.0782 46.0085C20.4482 46.2965 19.6922 46.0265 19.4042 45.3965C19.1162 44.7665 19.3862 44.0105 20.0162 43.7225C25.6682 41.0945 36.9902 44.2445 37.4582 44.3885C38.1242 44.5685 38.5202 45.2705 38.3222 45.9365C38.1962 46.4945 37.6922 46.8546 37.1522 46.8726Z" fill="#643800"/>
<path d="M38.395 45.5584C38.377 45.0184 38.017 44.5504 37.477 44.3884C36.991 44.2444 25.6869 41.1125 20.0349 43.7225C19.4409 43.9925 19.1709 44.6585 19.3689 45.2525C21.9249 43.3445 26.209 42.3724 38.395 45.5584Z" fill="url(#paint10_linear)"/>
<path d="M49.6978 50.6887C49.5718 50.6887 49.4278 50.6527 49.3198 50.5807C48.9778 50.3647 48.8878 49.9147 49.1038 49.5907C51.6418 45.6127 50.0938 43.2007 48.3118 40.4107C47.1778 38.6467 46.0078 36.8107 46.0078 34.5247C46.0078 34.1287 46.3318 33.8047 46.7278 33.8047C47.1238 33.8047 47.4478 34.1287 47.4478 34.5247C47.4478 36.3787 48.4558 37.9627 49.5358 39.6367C51.3358 42.4267 53.3698 45.6127 50.3278 50.3647C50.1658 50.5807 49.9318 50.6887 49.6978 50.6887Z" fill="url(#paint11_linear)"/>
<path d="M38.1932 15.5879C32.3972 15.5879 27.6992 20.2859 27.6992 26.0819C27.6992 31.8779 32.3972 36.5759 38.1932 36.5759C43.9892 36.5759 48.6872 31.8779 48.6872 26.0819C48.7052 20.2859 43.9892 15.5879 38.1932 15.5879ZM38.1932 35.2259C33.1352 35.2259 29.0492 31.1219 29.0492 26.0819C29.0492 21.0239 33.1532 16.9379 38.1932 16.9379C43.2332 16.9379 47.3372 21.0419 47.3372 26.0819C47.3372 31.1399 43.2512 35.2259 38.1932 35.2259Z" fill="url(#paint12_linear)"/>
<path d="M38.1952 14.9219C32.0392 14.9219 27.0352 19.9259 27.0352 26.0819C27.0352 32.2379 32.0392 37.2419 38.1952 37.2419C44.3512 37.2419 49.3552 32.2379 49.3552 26.0819C49.3552 19.9259 44.3692 14.9219 38.1952 14.9219ZM38.1952 36.0359C32.6872 36.0359 28.2412 31.5719 28.2412 26.0819C28.2412 20.5919 32.7052 16.1279 38.1952 16.1279C43.6852 16.1279 48.1492 20.5919 48.1492 26.0819C48.1492 31.5719 43.7032 36.0359 38.1952 36.0359Z" fill="url(#paint13_linear)"/>
<path d="M38.1952 34.5779C42.8874 34.5779 46.6912 30.7742 46.6912 26.082C46.6912 21.3897 42.8874 17.5859 38.1952 17.5859C33.503 17.5859 29.6992 21.3897 29.6992 26.082C29.6992 30.7742 33.503 34.5779 38.1952 34.5779Z" fill="url(#paint14_radial)"/>
<path opacity="0.5" d="M40.8406 17.3333C45.6826 18.7913 48.4186 23.8853 46.9606 28.7273C45.5026 33.5693 40.4086 36.3053 35.5666 34.8473C30.7246 33.3893 27.9886 28.2953 29.4466 23.4533C30.9046 18.6113 35.9986 15.8753 40.8406 17.3333Z" fill="url(#paint15_radial)"/>
<path d="M48.3117 33.4439C48.2757 33.4079 48.2577 33.3539 48.2217 33.3179C48.2217 33.3179 48.2217 33.3179 48.2217 33.2999C48.1857 33.2459 48.1317 33.2099 48.0957 33.1559L47.0337 32.1299C46.6737 32.6699 46.2417 33.1739 45.7737 33.6419C45.3057 34.1099 44.7837 34.5239 44.2617 34.9019L45.3597 35.8919C46.1157 36.6479 47.3397 36.6479 48.0957 35.8919C48.7437 35.2259 48.8157 34.1999 48.3117 33.4439Z" fill="url(#paint16_linear)"/>
<path d="M46.7084 35.3339C47.1558 35.3339 47.5184 34.9712 47.5184 34.5239C47.5184 34.0765 47.1558 33.7139 46.7084 33.7139C46.2611 33.7139 45.8984 34.0765 45.8984 34.5239C45.8984 34.9712 46.2611 35.3339 46.7084 35.3339Z" fill="url(#paint17_linear)"/>
<defs>
<linearGradient id="paint0_linear" x1="44.5056" y1="51.278" x2="47.9256" y2="48.938" gradientUnits="userSpaceOnUse">
<stop offset="0.00132565" stop-color="#643800"/>
<stop offset="1" stop-color="#975500"/>
</linearGradient>
<radialGradient id="paint1_radial" cx="0" cy="0" r="1" gradientUnits="userSpaceOnUse" gradientTransform="translate(23.1316 17.1278) scale(34.7435)">
<stop stop-color="#FFE030"/>
<stop offset="1" stop-color="#FFB92E"/>
</radialGradient>
<radialGradient id="paint2_radial" cx="0" cy="0" r="1" gradientUnits="userSpaceOnUse" gradientTransform="translate(23.1316 17.1278) scale(27.3342)">
<stop stop-color="#FFEA5F"/>
<stop offset="1" stop-color="#FFBC47" stop-opacity="0"/>
</radialGradient>
<radialGradient id="paint3_radial" cx="0" cy="0" r="1" gradientUnits="userSpaceOnUse" gradientTransform="translate(37.4726 34.6742) scale(30.4174)">
<stop stop-color="#7A4400" stop-opacity="0.5"/>
<stop offset="0.5833" stop-color="#894D00" stop-opacity="0.2069"/>
<stop offset="0.995" stop-color="#975500" stop-opacity="0"/>
</radialGradient>
<radialGradient id="paint4_radial" cx="0" cy="0" r="1" gradientUnits="userSpaceOnUse" gradientTransform="translate(18.5401 25.9418) rotate(73.8539) scale(4.06924 2.63273)">
<stop offset="0.00132565" stop-color="#7A4400"/>
<stop offset="1" stop-color="#643800"/>
</radialGradient>
<linearGradient id="paint5_linear" x1="19.396" y1="21.6191" x2="19.396" y2="25.5277" gradientUnits="userSpaceOnUse">
<stop offset="0.00132565" stop-color="#3C2200"/>
<stop offset="1" stop-color="#512D00"/>
</linearGradient>
<radialGradient id="paint6_radial" cx="0" cy="0" r="1" gradientUnits="userSpaceOnUse" gradientTransform="translate(37.3475 25.9425) rotate(73.8539) scale(4.06924 2.63273)">
<stop offset="0.00132565" stop-color="#7A4400"/>
<stop offset="1" stop-color="#643800"/>
</radialGradient>
<linearGradient id="paint7_linear" x1="38.2027" y1="21.7224" x2="38.2027" y2="25.631" gradientUnits="userSpaceOnUse">
<stop offset="0.00132565" stop-color="#3C2200"/>
<stop offset="1" stop-color="#512D00"/>
</linearGradient>
<linearGradient id="paint8_linear" x1="18.5263" y1="21.4391" x2="18.7937" y2="17.8735" gradientUnits="userSpaceOnUse">
<stop offset="0.00132565" stop-color="#3C2200"/>
<stop offset="1" stop-color="#512D00"/>
</linearGradient>
<linearGradient id="paint9_linear" x1="39.7383" y1="17.2275" x2="38.9695" y2="13.8392" gradientUnits="userSpaceOnUse">
<stop offset="0.00132565" stop-color="#3C2200"/>
<stop offset="1" stop-color="#512D00"/>
</linearGradient>
<linearGradient id="paint10_linear" x1="28.9812" y1="48.3904" x2="28.4423" y2="35.6768" gradientUnits="userSpaceOnUse">
<stop offset="0.00132565" stop-color="#3C2200"/>
<stop offset="1" stop-color="#512D00"/>
</linearGradient>
<linearGradient id="paint11_linear" x1="46.1126" y1="36.6287" x2="49.8695" y2="45.8231" gradientUnits="userSpaceOnUse">
<stop offset="0.00132565" stop-color="#643800"/>
<stop offset="1" stop-color="#975500"/>
</linearGradient>
<linearGradient id="paint12_linear" x1="35.6944" y1="17.4391" x2="45.0544" y2="49.7491" gradientUnits="userSpaceOnUse">
<stop/>
<stop offset="1" stop-color="#8EA5A8"/>
</linearGradient>
<linearGradient id="paint13_linear" x1="41.4657" y1="44.1015" x2="33.9957" y2="2.88149" gradientUnits="userSpaceOnUse">
<stop/>
<stop offset="1" stop-color="#8EA5A8"/>
</linearGradient>
<radialGradient id="paint14_radial" cx="0" cy="0" r="1" gradientUnits="userSpaceOnUse" gradientTransform="translate(34.2227 21.7108) scale(11.505)">
<stop stop-color="white" stop-opacity="0.5"/>
<stop offset="1" stop-color="white" stop-opacity="0"/>
</radialGradient>
<radialGradient id="paint15_radial" cx="0" cy="0" r="1" gradientUnits="userSpaceOnUse" gradientTransform="translate(34.9435 20.7449) rotate(-163.238) scale(19.1756 19.175)">
<stop stop-color="white" stop-opacity="0.24"/>
<stop offset="1" stop-color="white" stop-opacity="0"/>
</radialGradient>
<linearGradient id="paint16_linear" x1="45.4655" y1="34.8954" x2="51.2254" y2="32.6904" gradientUnits="userSpaceOnUse">
<stop/>
<stop offset="1" stop-color="#8EA5A8"/>
</linearGradient>
<linearGradient id="paint17_linear" x1="45.6853" y1="39.4139" x2="46.8853" y2="33.6539" gradientUnits="userSpaceOnUse">
<stop/>
<stop offset="1" stop-color="#8EA5A8"/>
</linearGradient>
</defs>
</svg>
