<svg width="187" height="222" viewBox="0 0 187 222" fill="none" xmlns="http://www.w3.org/2000/svg">
<path d="M1.07332e-05 11.5179C1.07332e-05 5.15672 5.16808 0 11.5432 0H175.457C181.832 0 187 5.15672 187 11.5179V66.8036H1.07332e-05V11.5179Z" fill="white"/>
<path d="M187 160.482C187 166.843 181.832 172 175.457 172L11.5432 172C5.16807 172 -5.57332e-07 166.843 0 160.482L8.40949e-06 64.5C8.96683e-06 58.1389 5.16808 52.9821 11.5432 52.9821L175.457 52.9822C181.832 52.9822 187 58.1389 187 64.5L187 160.482Z" fill="white"/>
<path d="M0 11.3793C0 5.09469 5.16807 0 11.5432 0H175.457C181.832 0 187 5.09469 187 11.3793V66H0V11.3793Z" fill="url(#paint0_linear)"/>
<path d="M187 210.484C187 216.844 181.832 222 175.457 222L11.5432 222C5.16806 222 -1.4808e-05 216.844 -1.4252e-05 210.484L-1.49111e-06 64.5161C-9.35088e-07 58.1559 5.16808 53 11.5432 53L175.457 53C181.832 53 187 58.156 187 64.5161L187 210.484Z" fill="white"/>
<path fill-rule="evenodd" clip-rule="evenodd" d="M11.5432 221.232L175.457 221.232C181.407 221.232 186.23 216.42 186.23 210.484L186.23 64.5161C186.23 58.58 181.407 53.7678 175.457 53.7678L11.5432 53.7677C5.59309 53.7677 0.769546 58.58 0.769545 64.5161L0.769532 210.484C0.769532 216.42 5.59308 221.232 11.5432 221.232ZM175.457 222C181.832 222 187 216.844 187 210.484L187 64.5161C187 58.156 181.832 53 175.457 53L11.5432 53C5.16808 53 -9.35088e-07 58.1559 -1.49111e-06 64.5161L-1.4252e-05 210.484C-1.4808e-05 216.844 5.16806 222 11.5432 222L175.457 222Z" fill="#DBE2EA" fill-opacity="0.6"/>
<path fill-rule="evenodd" clip-rule="evenodd" d="M152.905 76.766H35.095C25.5267 76.766 17.77 84.4819 17.77 94C17.77 103.518 25.5267 111.234 35.095 111.234H152.905C162.473 111.234 170.23 103.518 170.23 94C170.23 84.4819 162.473 76.766 152.905 76.766ZM35.095 76C25.1014 76 17 84.0589 17 94C17 103.941 25.1014 112 35.095 112H152.905C162.899 112 171 103.941 171 94C171 84.0589 162.899 76 152.905 76H35.095Z" fill="#DBE2EA"/>
<path fill-rule="evenodd" clip-rule="evenodd" d="M152.905 122.766H35.095C25.5267 122.766 17.77 130.482 17.77 140C17.77 149.518 25.5267 157.234 35.095 157.234H152.905C162.473 157.234 170.23 149.518 170.23 140C170.23 130.482 162.473 122.766 152.905 122.766ZM35.095 122C25.1014 122 17 130.059 17 140C17 149.941 25.1014 158 35.095 158H152.905C162.899 158 171 149.941 171 140C171 130.059 162.899 122 152.905 122H35.095Z" fill="#DBE2EA"/>
<path fill-rule="evenodd" clip-rule="evenodd" d="M152.905 168.766H35.095C25.5267 168.766 17.77 176.482 17.77 186C17.77 195.518 25.5267 203.234 35.095 203.234H152.905C162.473 203.234 170.23 195.518 170.23 186C170.23 176.482 162.473 168.766 152.905 168.766ZM35.095 168C25.1014 168 17 176.059 17 186C17 195.941 25.1014 204 35.095 204H152.905C162.899 204 171 195.941 171 186C171 176.059 162.899 168 152.905 168H35.095Z" fill="#DBE2EA"/>
<path fill-rule="evenodd" clip-rule="evenodd" d="M35.5 83.5294C28.9213 83.5294 23.5882 88.665 23.5882 95C23.5882 101.335 28.9213 106.471 35.5 106.471C42.0787 106.471 47.4118 101.335 47.4118 95C47.4118 88.665 42.0787 83.5294 35.5 83.5294ZM22 95C22 87.8203 28.0442 82 35.5 82C42.9558 82 49 87.8203 49 95C49 102.18 42.9558 108 35.5 108C28.0442 108 22 102.18 22 95Z" fill="#C8058B"/>
<path fill-rule="evenodd" clip-rule="evenodd" d="M35.5 128.529C28.9213 128.529 23.5882 133.665 23.5882 140C23.5882 146.335 28.9213 151.471 35.5 151.471C42.0787 151.471 47.4118 146.335 47.4118 140C47.4118 133.665 42.0787 128.529 35.5 128.529ZM22 140C22 132.82 28.0442 127 35.5 127C42.9558 127 49 132.82 49 140C49 147.18 42.9558 153 35.5 153C28.0442 153 22 147.18 22 140Z" fill="#C8058B"/>
<path fill-rule="evenodd" clip-rule="evenodd" d="M35.5 174.529C28.9213 174.529 23.5882 179.665 23.5882 186C23.5882 192.335 28.9213 197.471 35.5 197.471C42.0787 197.471 47.4118 192.335 47.4118 186C47.4118 179.665 42.0787 174.529 35.5 174.529ZM22 186C22 178.82 28.0442 173 35.5 173C42.9558 173 49 178.82 49 186C49 193.18 42.9558 199 35.5 199C28.0442 199 22 193.18 22 186Z" fill="#C8058B"/>
<path d="M55.3188 91.2275H59.3368C60.1488 91.2275 60.7835 91.4562 61.2408 91.9135C61.7075 92.3709 61.9408 92.9822 61.9408 93.7475C61.9408 94.1115 61.8895 94.4195 61.7868 94.6715C61.6842 94.9235 61.5535 95.1335 61.3948 95.3015C61.2362 95.4602 61.0635 95.5815 60.8768 95.6655C60.6902 95.7402 60.5175 95.7915 60.3588 95.8195V95.9035C60.5362 95.9129 60.7322 95.9595 60.9468 96.0435C61.1708 96.1275 61.3808 96.2629 61.5768 96.4495C61.7728 96.6269 61.9362 96.8602 62.0668 97.1495C62.2068 97.4295 62.2768 97.7702 62.2768 98.1715C62.2768 98.5729 62.2115 98.9462 62.0808 99.2915C61.9595 99.6369 61.7868 99.9355 61.5628 100.188C61.3388 100.44 61.0728 100.64 60.7648 100.79C60.4568 100.93 60.1208 101 59.7568 101H55.3188V91.2275ZM56.4948 99.9635H59.3928C59.8968 99.9635 60.2935 99.8375 60.5828 99.5855C60.8722 99.3242 61.0168 98.9462 61.0168 98.4515V97.9755C61.0168 97.4809 60.8722 97.1075 60.5828 96.8555C60.2935 96.5942 59.8968 96.4635 59.3928 96.4635H56.4948V99.9635ZM56.4948 95.4555H59.1968C59.6635 95.4555 60.0275 95.3389 60.2888 95.1055C60.5502 94.8722 60.6808 94.5362 60.6808 94.0975V93.6215C60.6808 93.1829 60.5502 92.8469 60.2888 92.6135C60.0275 92.3802 59.6635 92.2635 59.1968 92.2635H56.4948V95.4555Z" fill="black"/>
<path d="M69.6033 101C69.1833 101 68.88 100.888 68.6933 100.664C68.516 100.44 68.404 100.16 68.3573 99.8235H68.2873C68.1287 100.272 67.8673 100.608 67.5033 100.832C67.1393 101.056 66.7053 101.168 66.2013 101.168C65.436 101.168 64.8387 100.972 64.4093 100.58C63.9893 100.188 63.7793 99.6555 63.7793 98.9835C63.7793 98.3022 64.0267 97.7795 64.5213 97.4155C65.0253 97.0515 65.8047 96.8695 66.8593 96.8695H68.2873V96.1555C68.2873 95.6422 68.1473 95.2502 67.8673 94.9795C67.5873 94.7089 67.158 94.5735 66.5793 94.5735C66.1407 94.5735 65.772 94.6715 65.4733 94.8675C65.184 95.0635 64.9413 95.3249 64.7453 95.6515L64.0733 95.0215C64.2693 94.6295 64.582 94.2982 65.0113 94.0275C65.4407 93.7475 65.982 93.6075 66.6353 93.6075C67.5127 93.6075 68.194 93.8222 68.6793 94.2515C69.1647 94.6809 69.4073 95.2782 69.4073 96.0435V100.02H70.2333V101H69.6033ZM66.3833 100.216C66.6633 100.216 66.92 100.183 67.1533 100.118C67.3867 100.052 67.5873 99.9589 67.7553 99.8375C67.9233 99.7162 68.054 99.5762 68.1473 99.4175C68.2407 99.2589 68.2873 99.0862 68.2873 98.8995V97.7095H66.8033C66.1593 97.7095 65.688 97.8029 65.3893 97.9895C65.1 98.1762 64.9553 98.4469 64.9553 98.8015V99.0955C64.9553 99.4502 65.0813 99.7255 65.3333 99.9215C65.5947 100.118 65.9447 100.216 66.3833 100.216Z" fill="black"/>
<path d="M71.8318 93.7755H72.9518V100.02H75.6678V93.7755H76.7878V100.02H79.5038V93.7755H80.6238V101H71.8318V93.7755Z" fill="black"/>
<path d="M83.0018 93.7755H84.0938V97.7795L83.9818 99.5155H84.0378L84.9338 97.9755L87.8178 93.7755H88.8538V101H87.7618V96.9955L87.8738 95.2595H87.8178L86.9218 96.7995L84.0378 101H83.0018V93.7755Z" fill="black"/>
<path d="M91.2322 93.7755H92.3522V96.7855H95.9642V93.7755H97.0842V101H95.9642V97.7655H92.3522V101H91.2322V93.7755Z" fill="black"/>
<path d="M99.4627 93.7755H104.027V94.7555H100.583V101H99.4627V93.7755Z" fill="black"/>
<path d="M107.237 94.7555H104.773V93.7755H110.821V94.7555H108.357V101H107.237V94.7555Z" fill="black"/>
<path d="M114.839 101.168C114.354 101.168 113.911 101.079 113.509 100.902C113.108 100.724 112.763 100.472 112.473 100.146C112.193 99.8095 111.974 99.4129 111.815 98.9555C111.657 98.4889 111.577 97.9662 111.577 97.3875C111.577 96.8182 111.657 96.3002 111.815 95.8335C111.974 95.3669 112.193 94.9702 112.473 94.6435C112.763 94.3075 113.108 94.0509 113.509 93.8735C113.911 93.6962 114.354 93.6075 114.839 93.6075C115.325 93.6075 115.763 93.6962 116.155 93.8735C116.557 94.0509 116.902 94.3075 117.191 94.6435C117.481 94.9702 117.705 95.3669 117.863 95.8335C118.022 96.3002 118.101 96.8182 118.101 97.3875C118.101 97.9662 118.022 98.4889 117.863 98.9555C117.705 99.4129 117.481 99.8095 117.191 100.146C116.902 100.472 116.557 100.724 116.155 100.902C115.763 101.079 115.325 101.168 114.839 101.168ZM114.839 100.174C115.446 100.174 115.941 99.9869 116.323 99.6135C116.706 99.2402 116.897 98.6709 116.897 97.9055V96.8695C116.897 96.1042 116.706 95.5349 116.323 95.1615C115.941 94.7882 115.446 94.6015 114.839 94.6015C114.233 94.6015 113.738 94.7882 113.355 95.1615C112.973 95.5349 112.781 96.1042 112.781 96.8695V97.9055C112.781 98.6709 112.973 99.2402 113.355 99.6135C113.738 99.9869 114.233 100.174 114.839 100.174Z" fill="black"/>
<path d="M119.943 93.7755H121.063V96.7855H124.675V93.7755H125.795V101H124.675V97.7655H121.063V101H119.943V93.7755Z" fill="black"/>
<path d="M61.7259 140.576H56.7839V145H55.6079V135.228H56.7839V139.54H61.7259V135.228H62.9019V145H61.7259V140.576Z" fill="black"/>
<path d="M65.3943 137.776H66.5143V140.394H68.5723C69.3003 140.394 69.879 140.599 70.3083 141.01C70.7377 141.42 70.9523 141.985 70.9523 142.704C70.9523 143.432 70.7423 143.996 70.3223 144.398C69.9023 144.799 69.3237 145 68.5863 145H65.3943V137.776ZM68.4183 144.02C68.8383 144.02 69.165 143.94 69.3983 143.782C69.6317 143.623 69.7483 143.357 69.7483 142.984V142.396C69.7483 142.022 69.6317 141.761 69.3983 141.612C69.165 141.453 68.8383 141.374 68.4183 141.374H66.5143V144.02H68.4183Z" fill="black"/>
<path d="M78.5898 145.168C77.6751 145.168 76.9331 144.869 76.3638 144.272C75.8038 143.674 75.4911 142.834 75.4258 141.752H73.7878V145H72.6678V137.776H73.7878V140.8H75.4538C75.5471 139.782 75.8691 138.998 76.4198 138.448C76.9798 137.888 77.7031 137.608 78.5898 137.608C79.0658 137.608 79.4998 137.696 79.8918 137.874C80.2838 138.042 80.6151 138.289 80.8858 138.616C81.1658 138.933 81.3805 139.325 81.5298 139.792C81.6791 140.258 81.7538 140.79 81.7538 141.388C81.7538 141.985 81.6791 142.517 81.5298 142.984C81.3805 143.45 81.1658 143.847 80.8858 144.174C80.6151 144.491 80.2838 144.738 79.8918 144.916C79.4998 145.084 79.0658 145.168 78.5898 145.168ZM78.5898 144.174C79.1871 144.174 79.6631 143.996 80.0178 143.642C80.3725 143.287 80.5498 142.708 80.5498 141.906V140.87C80.5498 140.067 80.3725 139.488 80.0178 139.134C79.6631 138.779 79.1871 138.602 78.5898 138.602C77.9925 138.602 77.5165 138.779 77.1618 139.134C76.8071 139.488 76.6298 140.067 76.6298 140.87V141.906C76.6298 142.708 76.8071 143.287 77.1618 143.642C77.5165 143.996 77.9925 144.174 78.5898 144.174Z" fill="black"/>
<path d="M83.518 141.346V140.142H87.172V141.346H83.518Z" fill="black"/>
<path d="M89.4458 135.228H90.5938V141.36L90.4818 143.362H90.5238L91.5038 141.598L95.6758 135.228H96.7398V145H95.5918V138.868L95.7038 136.866H95.6618L94.6818 138.63L90.5098 145H89.4458V135.228ZM93.0578 134.276C92.5538 134.276 92.1525 134.178 91.8538 133.982C91.5551 133.776 91.3171 133.51 91.1398 133.184L90.8598 132.652L91.8398 132.218L92.3298 133.366C92.4418 133.394 92.5631 133.417 92.6938 133.436C92.8245 133.445 92.9458 133.45 93.0578 133.45C93.1698 133.45 93.2911 133.445 93.4218 133.436C93.5525 133.417 93.6738 133.394 93.7858 133.366L94.2758 132.218L95.2558 132.652L94.9758 133.184C94.7985 133.51 94.5605 133.776 94.2618 133.982C93.9631 134.178 93.5618 134.276 93.0578 134.276Z" fill="black"/>
<path d="M101.962 145.168C101.477 145.168 101.034 145.079 100.632 144.902C100.231 144.724 99.8856 144.472 99.5962 144.146C99.3162 143.81 99.0969 143.413 98.9382 142.956C98.7796 142.489 98.7002 141.966 98.7002 141.388C98.7002 140.818 98.7796 140.3 98.9382 139.834C99.0969 139.367 99.3162 138.97 99.5962 138.644C99.8856 138.308 100.231 138.051 100.632 137.874C101.034 137.696 101.477 137.608 101.962 137.608C102.448 137.608 102.886 137.696 103.278 137.874C103.68 138.051 104.025 138.308 104.314 138.644C104.604 138.97 104.828 139.367 104.986 139.834C105.145 140.3 105.224 140.818 105.224 141.388C105.224 141.966 105.145 142.489 104.986 142.956C104.828 143.413 104.604 143.81 104.314 144.146C104.025 144.472 103.68 144.724 103.278 144.902C102.886 145.079 102.448 145.168 101.962 145.168ZM101.962 144.174C102.569 144.174 103.064 143.987 103.446 143.614C103.829 143.24 104.02 142.671 104.02 141.906V140.87C104.02 140.104 103.829 139.535 103.446 139.162C103.064 138.788 102.569 138.602 101.962 138.602C101.356 138.602 100.861 138.788 100.478 139.162C100.096 139.535 99.9042 140.104 99.9042 140.87V141.906C99.9042 142.671 100.096 143.24 100.478 143.614C100.861 143.987 101.356 144.174 101.962 144.174Z" fill="black"/>
<path d="M107.066 137.776H108.186V138.952H108.242C108.429 138.494 108.7 138.158 109.054 137.944C109.418 137.72 109.852 137.608 110.356 137.608C110.804 137.608 111.21 137.696 111.574 137.874C111.938 138.051 112.246 138.303 112.498 138.63C112.76 138.956 112.956 139.353 113.086 139.82C113.226 140.286 113.296 140.809 113.296 141.388C113.296 141.966 113.226 142.489 113.086 142.956C112.956 143.422 112.76 143.819 112.498 144.146C112.246 144.472 111.938 144.724 111.574 144.902C111.21 145.079 110.804 145.168 110.356 145.168C109.376 145.168 108.672 144.72 108.242 143.824H108.186V147.8H107.066V137.776ZM110.048 144.16C110.683 144.16 111.182 143.964 111.546 143.572C111.91 143.17 112.092 142.648 112.092 142.004V140.772C112.092 140.128 111.91 139.61 111.546 139.218C111.182 138.816 110.683 138.616 110.048 138.616C109.796 138.616 109.554 138.653 109.32 138.728C109.096 138.793 108.9 138.886 108.732 139.008C108.564 139.129 108.429 139.278 108.326 139.456C108.233 139.624 108.186 139.806 108.186 140.002V142.69C108.186 142.923 108.233 143.133 108.326 143.32C108.429 143.497 108.564 143.651 108.732 143.782C108.9 143.903 109.096 143.996 109.32 144.062C109.554 144.127 109.796 144.16 110.048 144.16Z" fill="black"/>
<path d="M115.187 137.776H116.307V140.8H117.749L119.149 138.588C119.252 138.42 119.35 138.284 119.443 138.182C119.537 138.07 119.63 137.986 119.723 137.93C119.817 137.874 119.915 137.836 120.017 137.818C120.12 137.79 120.237 137.776 120.367 137.776H121.025V138.756H120.157L119.023 140.548C118.949 140.669 118.883 140.767 118.827 140.842C118.771 140.916 118.715 140.982 118.659 141.038C118.603 141.084 118.543 141.126 118.477 141.164C118.412 141.192 118.333 141.22 118.239 141.248V141.304C118.435 141.332 118.603 141.397 118.743 141.5C118.893 141.593 119.047 141.78 119.205 142.06L120.311 144.02H121.137V145H120.325C120.083 145 119.859 144.939 119.653 144.818C119.457 144.687 119.266 144.454 119.079 144.118L117.749 141.752H116.307V145H115.187V137.776Z" fill="black"/>
<path d="M54.5425 189.964H55.5505C55.7651 189.758 55.9518 189.511 56.1105 189.222C56.2691 188.923 56.3998 188.545 56.5025 188.088C56.6051 187.63 56.6798 187.066 56.7265 186.394C56.7731 185.722 56.7965 184.9 56.7965 183.93V181.228H62.6765V191H61.5005V182.264H57.9165V184.014C57.9165 185.022 57.8838 185.885 57.8185 186.604C57.7625 187.313 57.6785 187.92 57.5665 188.424C57.4545 188.918 57.3145 189.324 57.1465 189.642C56.9785 189.95 56.7871 190.211 56.5725 190.426C56.3765 190.622 56.1571 190.766 55.9145 190.86C55.6718 190.953 55.3825 191 55.0465 191H54.5425V189.964Z" fill="black"/>
<path d="M67.8928 191.168C67.4075 191.168 66.9641 191.079 66.5628 190.902C66.1615 190.724 65.8161 190.472 65.5268 190.146C65.2468 189.81 65.0275 189.413 64.8688 188.956C64.7101 188.489 64.6308 187.966 64.6308 187.388C64.6308 186.818 64.7101 186.3 64.8688 185.834C65.0275 185.367 65.2468 184.97 65.5268 184.644C65.8161 184.308 66.1615 184.051 66.5628 183.874C66.9641 183.696 67.4075 183.608 67.8928 183.608C68.3781 183.608 68.8168 183.696 69.2088 183.874C69.6101 184.051 69.9555 184.308 70.2448 184.644C70.5341 184.97 70.7581 185.367 70.9168 185.834C71.0755 186.3 71.1548 186.818 71.1548 187.388C71.1548 187.966 71.0755 188.489 70.9168 188.956C70.7581 189.413 70.5341 189.81 70.2448 190.146C69.9555 190.472 69.6101 190.724 69.2088 190.902C68.8168 191.079 68.3781 191.168 67.8928 191.168ZM67.8928 190.174C68.4995 190.174 68.9941 189.987 69.3768 189.614C69.7595 189.24 69.9508 188.671 69.9508 187.906V186.87C69.9508 186.104 69.7595 185.535 69.3768 185.162C68.9941 184.788 68.4995 184.602 67.8928 184.602C67.2861 184.602 66.7915 184.788 66.4088 185.162C66.0261 185.535 65.8348 186.104 65.8348 186.87V187.906C65.8348 188.671 66.0261 189.24 66.4088 189.614C66.7915 189.987 67.2861 190.174 67.8928 190.174Z" fill="black"/>
<path d="M75.6848 191.168C75.1808 191.168 74.7281 191.079 74.3268 190.902C73.9254 190.724 73.5848 190.472 73.3048 190.146C73.0341 189.819 72.8241 189.422 72.6748 188.956C72.5348 188.489 72.4648 187.966 72.4648 187.388C72.4648 186.809 72.5348 186.286 72.6748 185.82C72.8241 185.353 73.0341 184.956 73.3048 184.63C73.5848 184.303 73.9254 184.051 74.3268 183.874C74.7281 183.696 75.1808 183.608 75.6848 183.608C76.4034 183.608 76.9774 183.766 77.4068 184.084C77.8454 184.392 78.1721 184.798 78.3868 185.302L77.4488 185.778C77.3181 185.404 77.1034 185.115 76.8048 184.91C76.5061 184.704 76.1328 184.602 75.6848 184.602C75.3488 184.602 75.0548 184.658 74.8028 184.77C74.5508 184.872 74.3408 185.022 74.1728 185.218C74.0048 185.404 73.8788 185.633 73.7948 185.904C73.7108 186.165 73.6688 186.454 73.6688 186.772V188.004C73.6688 188.638 73.8368 189.161 74.1728 189.572C74.5181 189.973 75.0221 190.174 75.6848 190.174C76.5901 190.174 77.2434 189.754 77.6448 188.914L78.4568 189.46C78.2234 189.982 77.8734 190.398 77.4068 190.706C76.9494 191.014 76.3754 191.168 75.6848 191.168Z" fill="black"/>
<path d="M79.8138 187.346V186.142H83.4678V187.346H79.8138Z" fill="black"/>
<path d="M91.5862 191L90.6062 188.116H86.6582L85.6782 191H84.4882L87.9042 181.228H89.4022L92.8182 191H91.5862ZM88.6602 182.32H88.5902L86.9382 187.08H90.3122L88.6602 182.32Z" fill="black"/>
<path d="M94.3249 183.776H95.4449V186.786H99.0569V183.776H100.177V191H99.0569V187.766H95.4449V191H94.3249V183.776Z" fill="black"/>
<path d="M101.477 190.02H102.303C102.593 189.553 102.826 188.97 103.003 188.27C103.181 187.57 103.269 186.767 103.269 185.862V183.776H108.155V190.02H109.359V192.96H108.337V191H102.499V192.96H101.477V190.02ZM107.035 190.02V184.756H104.333V185.918C104.333 186.879 104.249 187.7 104.081 188.382C103.923 189.054 103.731 189.6 103.507 190.02H107.035Z" fill="black"/>
<path d="M110.279 190.02H111.119L111.931 188.074C112.034 187.831 112.16 187.649 112.309 187.528C112.458 187.406 112.626 187.332 112.813 187.304V187.248C112.626 187.192 112.463 187.098 112.323 186.968C112.183 186.837 112.062 186.655 111.959 186.422L111.217 184.756H110.377V183.776H111.035C111.315 183.776 111.558 183.846 111.763 183.986C111.978 184.126 112.155 184.35 112.295 184.658L113.261 186.8H114.549V183.776H115.669V186.8H116.957L117.923 184.658C118.063 184.35 118.236 184.126 118.441 183.986C118.656 183.846 118.903 183.776 119.183 183.776H119.841V184.756H119.001L118.259 186.422C118.156 186.655 118.035 186.837 117.895 186.968C117.755 187.098 117.592 187.192 117.405 187.248V187.304C117.592 187.332 117.76 187.406 117.909 187.528C118.058 187.649 118.184 187.831 118.287 188.074L119.099 190.02H119.939V191H119.141C118.889 191 118.66 190.934 118.455 190.804C118.25 190.664 118.068 190.402 117.909 190.02L116.957 187.752H115.669V191H114.549V187.752H113.261L112.309 190.02C112.15 190.402 111.968 190.664 111.763 190.804C111.558 190.934 111.329 191 111.077 191H110.279V190.02Z" fill="black"/>
<path d="M124.18 191.168C123.685 191.168 123.237 191.079 122.836 190.902C122.444 190.724 122.103 190.472 121.814 190.146C121.534 189.81 121.314 189.413 121.156 188.956C121.006 188.489 120.932 187.966 120.932 187.388C120.932 186.818 121.006 186.3 121.156 185.834C121.314 185.367 121.534 184.97 121.814 184.644C122.103 184.308 122.444 184.051 122.836 183.874C123.237 183.696 123.685 183.608 124.18 183.608C124.665 183.608 125.099 183.696 125.482 183.874C125.864 184.051 126.191 184.298 126.462 184.616C126.732 184.924 126.938 185.292 127.078 185.722C127.227 186.151 127.302 186.622 127.302 187.136V187.668H122.108V188.004C122.108 188.312 122.154 188.601 122.248 188.872C122.35 189.133 122.49 189.362 122.668 189.558C122.854 189.754 123.078 189.908 123.34 190.02C123.61 190.132 123.914 190.188 124.25 190.188C124.707 190.188 125.104 190.08 125.44 189.866C125.785 189.651 126.051 189.343 126.238 188.942L127.036 189.516C126.802 190.01 126.438 190.412 125.944 190.72C125.449 191.018 124.861 191.168 124.18 191.168ZM124.18 184.546C123.872 184.546 123.592 184.602 123.34 184.714C123.088 184.816 122.868 184.966 122.682 185.162C122.504 185.358 122.364 185.591 122.262 185.862C122.159 186.123 122.108 186.412 122.108 186.73V186.828H126.098V186.674C126.098 186.03 125.92 185.516 125.566 185.134C125.22 184.742 124.758 184.546 124.18 184.546Z" fill="black"/>
<path d="M128.069 190.02H129.021C129.143 189.852 129.25 189.651 129.343 189.418C129.437 189.184 129.516 188.904 129.581 188.578C129.647 188.251 129.698 187.864 129.735 187.416C129.773 186.968 129.791 186.44 129.791 185.834V183.776H134.677V191H133.557V184.756H130.855V185.862C130.855 186.562 130.827 187.173 130.771 187.696C130.725 188.218 130.654 188.666 130.561 189.04C130.477 189.413 130.374 189.721 130.253 189.964C130.132 190.197 130.001 190.384 129.861 190.524C129.684 190.701 129.488 190.827 129.273 190.902C129.059 190.967 128.802 191 128.503 191H128.069V190.02Z" fill="black"/>
<path d="M139.779 191.168C139.285 191.168 138.837 191.079 138.435 190.902C138.043 190.724 137.703 190.472 137.413 190.146C137.133 189.81 136.914 189.413 136.755 188.956C136.606 188.489 136.531 187.966 136.531 187.388C136.531 186.818 136.606 186.3 136.755 185.834C136.914 185.367 137.133 184.97 137.413 184.644C137.703 184.308 138.043 184.051 138.435 183.874C138.837 183.696 139.285 183.608 139.779 183.608C140.265 183.608 140.699 183.696 141.081 183.874C141.464 184.051 141.791 184.298 142.061 184.616C142.332 184.924 142.537 185.292 142.677 185.722C142.827 186.151 142.901 186.622 142.901 187.136V187.668H137.707V188.004C137.707 188.312 137.754 188.601 137.847 188.872C137.95 189.133 138.09 189.362 138.267 189.558C138.454 189.754 138.678 189.908 138.939 190.02C139.21 190.132 139.513 190.188 139.849 190.188C140.307 190.188 140.703 190.08 141.039 189.866C141.385 189.651 141.651 189.343 141.837 188.942L142.635 189.516C142.402 190.01 142.038 190.412 141.543 190.72C141.049 191.018 140.461 191.168 139.779 191.168ZM139.779 184.546C139.471 184.546 139.191 184.602 138.939 184.714C138.687 184.816 138.468 184.966 138.281 185.162C138.104 185.358 137.964 185.591 137.861 185.862C137.759 186.123 137.707 186.412 137.707 186.73V186.828H141.697V186.674C141.697 186.03 141.52 185.516 141.165 185.134C140.82 184.742 140.358 184.546 139.779 184.546Z" fill="black"/>
<path d="M147.435 191.168C146.931 191.168 146.478 191.079 146.077 190.902C145.675 190.724 145.335 190.472 145.055 190.146C144.784 189.819 144.574 189.422 144.425 188.956C144.285 188.489 144.215 187.966 144.215 187.388C144.215 186.809 144.285 186.286 144.425 185.82C144.574 185.353 144.784 184.956 145.055 184.63C145.335 184.303 145.675 184.051 146.077 183.874C146.478 183.696 146.931 183.608 147.435 183.608C148.153 183.608 148.727 183.766 149.157 184.084C149.595 184.392 149.922 184.798 150.137 185.302L149.199 185.778C149.068 185.404 148.853 185.115 148.555 184.91C148.256 184.704 147.883 184.602 147.435 184.602C147.099 184.602 146.805 184.658 146.553 184.77C146.301 184.872 146.091 185.022 145.923 185.218C145.755 185.404 145.629 185.633 145.545 185.904C145.461 186.165 145.419 186.454 145.419 186.772V188.004C145.419 188.638 145.587 189.161 145.923 189.572C146.268 189.973 146.772 190.174 147.435 190.174C148.34 190.174 148.993 189.754 149.395 188.914L150.207 189.46C149.973 189.982 149.623 190.398 149.157 190.706C148.699 191.014 148.125 191.168 147.435 191.168Z" fill="black"/>
<path d="M35.3998 190.144C34.8318 190.144 34.3198 190.056 33.8638 189.88C33.4078 189.696 33.0198 189.428 32.6998 189.076C32.3798 188.716 32.1318 188.272 31.9558 187.744C31.7798 187.208 31.6918 186.584 31.6918 185.872C31.6918 185.168 31.7798 184.544 31.9558 184C32.1318 183.448 32.3798 182.988 32.6998 182.62C33.0198 182.244 33.4078 181.96 33.8638 181.768C34.3198 181.576 34.8318 181.48 35.3998 181.48C36.1758 181.48 36.8158 181.64 37.3198 181.96C37.8238 182.272 38.2278 182.768 38.5318 183.448L36.9598 184.264C36.8478 183.912 36.6718 183.632 36.4318 183.424C36.1998 183.208 35.8558 183.1 35.3998 183.1C34.8638 183.1 34.4318 183.276 34.1038 183.628C33.7838 183.972 33.6238 184.476 33.6238 185.14V186.484C33.6238 187.148 33.7838 187.656 34.1038 188.008C34.4318 188.352 34.8638 188.524 35.3998 188.524C35.8478 188.524 36.2038 188.404 36.4678 188.164C36.7398 187.916 36.9398 187.62 37.0678 187.276L38.5558 188.14C38.2438 188.78 37.8318 189.276 37.3198 189.628C36.8158 189.972 36.1758 190.144 35.3998 190.144Z" fill="#C8058B"/>
<path d="M36.6952 99L36.1619 96.9599H33.8L33.2762 99H32L34.2286 91H35.7905L38 99H36.6952ZM35 92.3754H34.9524L34.1048 95.6648H35.8571L35 92.3754Z" fill="#C8058B"/>
<path d="M33 136H37.3619V137.341H34.2571V139.095H36.0381C36.3429 139.095 36.6159 139.156 36.8571 139.278C37.0984 139.393 37.3048 139.561 37.4762 139.782C37.6476 139.996 37.7778 140.256 37.8667 140.562C37.9556 140.86 38 141.192 38 141.559C38 141.918 37.9556 142.25 37.8667 142.556C37.7778 142.854 37.6476 143.11 37.4762 143.324C37.3048 143.538 37.0984 143.706 36.8571 143.828C36.6159 143.943 36.3429 144 36.0381 144H33V136ZM35.9143 142.682C36.1556 142.682 36.346 142.606 36.4857 142.453C36.6254 142.3 36.6952 142.067 36.6952 141.754V141.341C36.6952 141.035 36.6254 140.806 36.4857 140.653C36.346 140.493 36.1556 140.413 35.9143 140.413H34.2571V142.682H35.9143Z" fill="#C8058B"/>
<path d="M23.5251 13.2276H28.2711C29.0831 13.2276 29.7131 13.4562 30.1611 13.9136C30.6184 14.3709 30.8471 14.9776 30.8471 15.7336C30.8471 16.1069 30.7958 16.4242 30.6931 16.6856C30.5998 16.9469 30.4691 17.1616 30.3011 17.3296C30.1424 17.4976 29.9511 17.6236 29.7271 17.7076C29.5124 17.7822 29.2791 17.8242 29.0271 17.8336V17.9176C29.2604 17.9176 29.5031 17.9596 29.7551 18.0436C30.0164 18.1276 30.2544 18.2629 30.4691 18.4496C30.6838 18.6269 30.8611 18.8602 31.0011 19.1496C31.1504 19.4389 31.2251 19.7936 31.2251 20.2136C31.2251 20.5962 31.1598 20.9602 31.0291 21.3056C30.9078 21.6416 30.7351 21.9356 30.5111 22.1876C30.2871 22.4396 30.0211 22.6402 29.7131 22.7896C29.4051 22.9296 29.0691 22.9996 28.7051 22.9996H23.5251V13.2276ZM25.6531 21.2076H28.1031C28.3831 21.2076 28.6024 21.1329 28.7611 20.9836C28.9291 20.8249 29.0131 20.6056 29.0131 20.3256V19.8496C29.0131 19.5696 28.9291 19.3549 28.7611 19.2056C28.6024 19.0469 28.3831 18.9676 28.1031 18.9676H25.6531V21.2076ZM25.6531 17.2316H27.7671C28.0471 17.2316 28.2664 17.1522 28.4251 16.9936C28.5838 16.8349 28.6631 16.6156 28.6631 16.3356V15.9156C28.6631 15.6356 28.5838 15.4162 28.4251 15.2576C28.2664 15.0989 28.0471 15.0196 27.7671 15.0196H25.6531V17.2316Z" fill="white"/>
<path d="M36.0596 15.6496H38.1316V18.4636H39.1956L40.1616 16.6716C40.3576 16.3076 40.5769 16.0462 40.8196 15.8876C41.0716 15.7289 41.3936 15.6496 41.7856 15.6496H42.6396V17.2596H41.8976L41.2676 18.4356C41.1369 18.6782 41.0062 18.8509 40.8756 18.9536C40.7542 19.0562 40.6096 19.1309 40.4416 19.1776V19.2476C40.6002 19.2849 40.7449 19.3502 40.8756 19.4436C41.0156 19.5369 41.1416 19.6862 41.2536 19.8916L42.0796 21.3896H42.8356V22.9996H41.8696C41.4776 22.9996 41.1602 22.9202 40.9176 22.7616C40.6749 22.6029 40.4462 22.3322 40.2316 21.9496L39.1956 20.0736H38.1316V22.9996H36.0596V15.6496Z" fill="white"/>
<path d="M49.6263 22.9996C49.253 22.9996 48.9403 22.8829 48.6883 22.6496C48.4457 22.4162 48.2917 22.1036 48.2263 21.7116H48.1423C48.0303 22.1876 47.783 22.5516 47.4003 22.8036C47.0177 23.0462 46.5463 23.1676 45.9863 23.1676C45.249 23.1676 44.6843 22.9716 44.2923 22.5796C43.9003 22.1876 43.7043 21.6696 43.7043 21.0256C43.7043 20.2509 43.9843 19.6769 44.5443 19.3036C45.1137 18.9209 45.8837 18.7296 46.8543 18.7296H48.0163V18.2676C48.0163 17.9129 47.923 17.6329 47.7363 17.4276C47.5497 17.2129 47.237 17.1056 46.7983 17.1056C46.3877 17.1056 46.061 17.1942 45.8183 17.3716C45.5757 17.5489 45.375 17.7496 45.2163 17.9736L43.9843 16.8816C44.283 16.4429 44.6563 16.1022 45.1043 15.8596C45.5617 15.6076 46.1777 15.4816 46.9523 15.4816C47.9977 15.4816 48.7817 15.7102 49.3043 16.1676C49.827 16.6249 50.0883 17.2922 50.0883 18.1696V21.3896H50.7743V22.9996H49.6263ZM46.7563 21.7256C47.1017 21.7256 47.3957 21.6509 47.6383 21.5016C47.8903 21.3522 48.0163 21.1096 48.0163 20.7736V19.9056H47.0083C46.1963 19.9056 45.7903 20.1809 45.7903 20.7316V20.9416C45.7903 21.2122 45.8743 21.4129 46.0423 21.5436C46.2103 21.6649 46.4483 21.7256 46.7563 21.7256Z" fill="white"/>
<path d="M52.165 15.6496H54.237V18.4636H55.301L56.267 16.6716C56.463 16.3076 56.6824 16.0462 56.925 15.8876C57.177 15.7289 57.499 15.6496 57.891 15.6496H58.745V17.2596H58.003L57.373 18.4356C57.2424 18.6782 57.1117 18.8509 56.981 18.9536C56.8597 19.0562 56.715 19.1309 56.547 19.1776V19.2476C56.7057 19.2849 56.8504 19.3502 56.981 19.4436C57.121 19.5369 57.247 19.6862 57.359 19.8916L58.185 21.3896H58.941V22.9996H57.975C57.583 22.9996 57.2657 22.9202 57.023 22.7616C56.7804 22.6029 56.5517 22.3322 56.337 21.9496L55.301 20.0736H54.237V22.9996H52.165V15.6496Z" fill="white"/>
<path d="M63.2545 23.1676C62.7131 23.1676 62.2278 23.0789 61.7985 22.9016C61.3785 22.7242 61.0191 22.4676 60.7205 22.1316C60.4311 21.7956 60.2071 21.3896 60.0485 20.9136C59.8898 20.4376 59.8105 19.9056 59.8105 19.3176C59.8105 18.7296 59.8898 18.1976 60.0485 17.7216C60.2071 17.2456 60.4311 16.8442 60.7205 16.5176C61.0191 16.1816 61.3785 15.9249 61.7985 15.7476C62.2278 15.5702 62.7131 15.4816 63.2545 15.4816C63.7958 15.4816 64.2765 15.5702 64.6965 15.7476C65.1258 15.9249 65.4851 16.1816 65.7745 16.5176C66.0731 16.8442 66.3018 17.2456 66.4605 17.7216C66.6191 18.1976 66.6985 18.7296 66.6985 19.3176C66.6985 19.9056 66.6191 20.4376 66.4605 20.9136C66.3018 21.3896 66.0731 21.7956 65.7745 22.1316C65.4851 22.4676 65.1258 22.7242 64.6965 22.9016C64.2765 23.0789 63.7958 23.1676 63.2545 23.1676ZM63.2545 21.5296C63.6651 21.5296 63.9825 21.4036 64.2065 21.1516C64.4305 20.8996 64.5425 20.5402 64.5425 20.0736V18.5756C64.5425 18.1089 64.4305 17.7496 64.2065 17.4976C63.9825 17.2456 63.6651 17.1196 63.2545 17.1196C62.8438 17.1196 62.5265 17.2456 62.3025 17.4976C62.0785 17.7496 61.9665 18.1089 61.9665 18.5756V20.0736C61.9665 20.5402 62.0785 20.8996 62.3025 21.1516C62.5265 21.4036 62.8438 21.5296 63.2545 21.5296Z" fill="white"/>
<path d="M68.1748 15.6496H70.4148L72.2628 18.6596H72.3188L74.1668 15.6496H76.4068V22.9996H74.3908V18.2256H74.3488L73.7888 19.2476L72.2908 21.6836L70.7928 19.2476L70.2328 18.2256H70.1908V22.9996H68.1748V15.6496Z" fill="white"/>
<path d="M81.6416 15.6496H86.6116V17.2596H83.7136V22.9996H81.6416V15.6496Z" fill="white"/>
<path d="M90.7349 23.1676C90.1936 23.1676 89.7083 23.0789 89.2789 22.9016C88.8589 22.7242 88.4996 22.4676 88.2009 22.1316C87.9116 21.7956 87.6876 21.3896 87.5289 20.9136C87.3703 20.4376 87.2909 19.9056 87.2909 19.3176C87.2909 18.7296 87.3703 18.1976 87.5289 17.7216C87.6876 17.2456 87.9116 16.8442 88.2009 16.5176C88.4996 16.1816 88.8589 15.9249 89.2789 15.7476C89.7083 15.5702 90.1936 15.4816 90.7349 15.4816C91.2763 15.4816 91.7569 15.5702 92.1769 15.7476C92.6063 15.9249 92.9656 16.1816 93.2549 16.5176C93.5536 16.8442 93.7823 17.2456 93.9409 17.7216C94.0996 18.1976 94.1789 18.7296 94.1789 19.3176C94.1789 19.9056 94.0996 20.4376 93.9409 20.9136C93.7823 21.3896 93.5536 21.7956 93.2549 22.1316C92.9656 22.4676 92.6063 22.7242 92.1769 22.9016C91.7569 23.0789 91.2763 23.1676 90.7349 23.1676ZM90.7349 21.5296C91.1456 21.5296 91.4629 21.4036 91.6869 21.1516C91.9109 20.8996 92.0229 20.5402 92.0229 20.0736V18.5756C92.0229 18.1089 91.9109 17.7496 91.6869 17.4976C91.4629 17.2456 91.1456 17.1196 90.7349 17.1196C90.3243 17.1196 90.0069 17.2456 89.7829 17.4976C89.5589 17.7496 89.4469 18.1089 89.4469 18.5756V20.0736C89.4469 20.5402 89.5589 20.8996 89.7829 21.1516C90.0069 21.4036 90.3243 21.5296 90.7349 21.5296Z" fill="white"/>
<path d="M95.6553 15.6496H97.7273V16.8816H97.7973C97.8999 16.4709 98.1333 16.1349 98.4973 15.8736C98.8706 15.6122 99.2953 15.4816 99.7713 15.4816C100.705 15.4816 101.409 15.8082 101.885 16.4616C102.361 17.1149 102.599 18.0669 102.599 19.3176C102.599 20.5682 102.361 21.5249 101.885 22.1876C101.409 22.8409 100.705 23.1676 99.7713 23.1676C99.5286 23.1676 99.2999 23.1302 99.0853 23.0556C98.8706 22.9902 98.6746 22.8969 98.4973 22.7756C98.3293 22.6449 98.1846 22.4956 98.0633 22.3276C97.9419 22.1502 97.8533 21.9636 97.7973 21.7676H97.7273V25.7996H95.6553V15.6496ZM99.0853 21.4876C99.4773 21.4876 99.7993 21.3522 100.051 21.0816C100.313 20.8016 100.443 20.4282 100.443 19.9616V18.6876C100.443 18.2209 100.313 17.8522 100.051 17.5816C99.7993 17.3016 99.4773 17.1616 99.0853 17.1616C98.6933 17.1616 98.3666 17.2596 98.1053 17.4556C97.8533 17.6422 97.7273 17.9036 97.7273 18.2396V20.4096C97.7273 20.7456 97.8533 21.0116 98.1053 21.2076C98.3666 21.3942 98.6933 21.4876 99.0853 21.4876Z" fill="white"/>
<path d="M107.155 23.1676C106.614 23.1676 106.128 23.0789 105.699 22.9016C105.279 22.7242 104.92 22.4676 104.621 22.1316C104.332 21.7956 104.108 21.3896 103.949 20.9136C103.79 20.4376 103.711 19.9056 103.711 19.3176C103.711 18.7296 103.79 18.1976 103.949 17.7216C104.108 17.2456 104.332 16.8442 104.621 16.5176C104.92 16.1816 105.279 15.9249 105.699 15.7476C106.128 15.5702 106.614 15.4816 107.155 15.4816C107.696 15.4816 108.177 15.5702 108.597 15.7476C109.026 15.9249 109.386 16.1816 109.675 16.5176C109.974 16.8442 110.202 17.2456 110.361 17.7216C110.52 18.1976 110.599 18.7296 110.599 19.3176C110.599 19.9056 110.52 20.4376 110.361 20.9136C110.202 21.3896 109.974 21.7956 109.675 22.1316C109.386 22.4676 109.026 22.7242 108.597 22.9016C108.177 23.0789 107.696 23.1676 107.155 23.1676ZM107.155 21.5296C107.566 21.5296 107.883 21.4036 108.107 21.1516C108.331 20.8996 108.443 20.5402 108.443 20.0736V18.5756C108.443 18.1089 108.331 17.7496 108.107 17.4976C107.883 17.2456 107.566 17.1196 107.155 17.1196C106.744 17.1196 106.427 17.2456 106.203 17.4976C105.979 17.7496 105.867 18.1089 105.867 18.5756V20.0736C105.867 20.5402 105.979 20.8996 106.203 21.1516C106.427 21.4036 106.744 21.5296 107.155 21.5296Z" fill="white"/>
<path d="M111.181 21.3896H112.147C112.268 21.2122 112.376 21.0116 112.469 20.7876C112.562 20.5636 112.637 20.3069 112.693 20.0176C112.758 19.7189 112.805 19.3829 112.833 19.0096C112.861 18.6362 112.875 18.2116 112.875 17.7356V15.6496H118.783V21.3896H120.043V24.9596H118.167V22.9996H113.057V24.9596H111.181V21.3896ZM116.711 21.3896V17.2596H114.863V17.8476C114.863 18.8556 114.807 19.6349 114.695 20.1856C114.592 20.7269 114.466 21.1282 114.317 21.3896H116.711Z" fill="white"/>
<path d="M124.288 23.1676C123.728 23.1676 123.228 23.0789 122.79 22.9016C122.351 22.7149 121.978 22.4582 121.67 22.1316C121.371 21.7956 121.142 21.3896 120.984 20.9136C120.834 20.4376 120.76 19.9056 120.76 19.3176C120.76 18.7389 120.834 18.2162 120.984 17.7496C121.133 17.2736 121.352 16.8676 121.642 16.5316C121.94 16.1956 122.304 15.9389 122.734 15.7616C123.163 15.5749 123.653 15.4816 124.204 15.4816C124.81 15.4816 125.328 15.5842 125.758 15.7896C126.196 15.9949 126.551 16.2702 126.822 16.6156C127.102 16.9609 127.302 17.3622 127.424 17.8196C127.554 18.2676 127.62 18.7389 127.62 19.2336V19.8496H122.902V19.9616C122.902 20.4469 123.032 20.8342 123.294 21.1236C123.555 21.4036 123.966 21.5436 124.526 21.5436C124.955 21.5436 125.305 21.4596 125.576 21.2916C125.846 21.1142 126.098 20.9042 126.332 20.6616L127.368 21.9496C127.041 22.3322 126.612 22.6309 126.08 22.8456C125.557 23.0602 124.96 23.1676 124.288 23.1676ZM124.246 17.0076C123.826 17.0076 123.494 17.1476 123.252 17.4276C123.018 17.6982 122.902 18.0622 122.902 18.5196V18.6316H125.478V18.5056C125.478 18.0576 125.375 17.6982 125.17 17.4276C124.974 17.1476 124.666 17.0076 124.246 17.0076Z" fill="white"/>
<path d="M136.452 23.1676C135.789 23.1676 135.192 23.0649 134.66 22.8596C134.128 22.6449 133.675 22.3322 133.302 21.9216C132.928 21.5016 132.639 20.9836 132.434 20.3676C132.228 19.7422 132.126 19.0142 132.126 18.1836C132.126 17.3622 132.228 16.6342 132.434 15.9996C132.639 15.3556 132.928 14.8189 133.302 14.3896C133.675 13.9509 134.128 13.6196 134.66 13.3956C135.192 13.1716 135.789 13.0596 136.452 13.0596C137.357 13.0596 138.104 13.2462 138.692 13.6196C139.28 13.9836 139.751 14.5622 140.106 15.3556L138.272 16.3076C138.141 15.8969 137.936 15.5702 137.656 15.3276C137.385 15.0756 136.984 14.9496 136.452 14.9496C135.826 14.9496 135.322 15.1549 134.94 15.5656C134.566 15.9669 134.38 16.5549 134.38 17.3296V18.8976C134.38 19.6722 134.566 20.2649 134.94 20.6756C135.322 21.0769 135.826 21.2776 136.452 21.2776C136.974 21.2776 137.39 21.1376 137.698 20.8576C138.015 20.5682 138.248 20.2229 138.398 19.8216L140.134 20.8296C139.77 21.5762 139.289 22.1549 138.692 22.5656C138.104 22.9669 137.357 23.1676 136.452 23.1676Z" fill="white"/>
<path d="M141.623 13.2276H143.751V21.1096H146.705V13.2276H148.833V21.1096H151.759V13.2276H153.887V22.9996H141.623V13.2276Z" fill="white"/>
<path d="M162.067 22.9996L161.367 20.6756H158.105L157.405 22.9996H155.249L158.469 13.2276H161.101L164.279 22.9996H162.067ZM159.757 15.1596H159.687L158.609 18.8696H160.849L159.757 15.1596Z" fill="white"/>
<path d="M18.2451 33.6496H20.3171V36.4636H22.8091V33.6496H24.8811V40.9996H22.8091V38.0736H20.3171V40.9996H18.2451V33.6496Z" fill="white"/>
<path d="M32.2494 40.9996C31.8761 40.9996 31.5634 40.8829 31.3114 40.6496C31.0687 40.4162 30.9147 40.1036 30.8494 39.7116H30.7654C30.6534 40.1876 30.406 40.5516 30.0234 40.8036C29.6407 41.0462 29.1694 41.1676 28.6094 41.1676C27.872 41.1676 27.3074 40.9716 26.9154 40.5796C26.5234 40.1876 26.3274 39.6696 26.3274 39.0256C26.3274 38.2509 26.6074 37.6769 27.1674 37.3036C27.7367 36.9209 28.5067 36.7296 29.4774 36.7296H30.6394V36.2676C30.6394 35.9129 30.546 35.6329 30.3594 35.4276C30.1727 35.2129 29.86 35.1056 29.4214 35.1056C29.0107 35.1056 28.6841 35.1942 28.4414 35.3716C28.1987 35.5489 27.998 35.7496 27.8394 35.9736L26.6074 34.8816C26.906 34.4429 27.2794 34.1022 27.7274 33.8596C28.1847 33.6076 28.8007 33.4816 29.5754 33.4816C30.6207 33.4816 31.4047 33.7102 31.9274 34.1676C32.4501 34.6249 32.7114 35.2922 32.7114 36.1696V39.3896H33.3974V40.9996H32.2494ZM29.3794 39.7256C29.7247 39.7256 30.0187 39.6509 30.2614 39.5016C30.5134 39.3522 30.6394 39.1096 30.6394 38.7736V37.9056H29.6314C28.8194 37.9056 28.4134 38.1809 28.4134 38.7316V38.9416C28.4134 39.2122 28.4974 39.4129 28.6654 39.5436C28.8334 39.6649 29.0714 39.7256 29.3794 39.7256Z" fill="white"/>
<path d="M34.0741 40.9996L36.4961 37.2616L34.1021 33.6496H36.4541L37.8261 35.9596H37.8821L39.2121 33.6496H41.3961L38.9601 37.3316L41.4101 40.9996H39.0581L37.6441 38.6056H37.5881L36.2301 40.9996H34.0741Z" fill="white"/>
<path d="M45.3853 41.1676C44.844 41.1676 44.3587 41.0789 43.9293 40.9016C43.5093 40.7242 43.15 40.4676 42.8513 40.1316C42.562 39.7956 42.338 39.3896 42.1793 38.9136C42.0207 38.4376 41.9413 37.9056 41.9413 37.3176C41.9413 36.7296 42.0207 36.1976 42.1793 35.7216C42.338 35.2456 42.562 34.8442 42.8513 34.5176C43.15 34.1816 43.5093 33.9249 43.9293 33.7476C44.3587 33.5702 44.844 33.4816 45.3853 33.4816C45.9267 33.4816 46.4073 33.5702 46.8273 33.7476C47.2567 33.9249 47.616 34.1816 47.9053 34.5176C48.204 34.8442 48.4327 35.2456 48.5913 35.7216C48.75 36.1976 48.8293 36.7296 48.8293 37.3176C48.8293 37.9056 48.75 38.4376 48.5913 38.9136C48.4327 39.3896 48.204 39.7956 47.9053 40.1316C47.616 40.4676 47.2567 40.7242 46.8273 40.9016C46.4073 41.0789 45.9267 41.1676 45.3853 41.1676ZM45.3853 39.5296C45.796 39.5296 46.1133 39.4036 46.3373 39.1516C46.5613 38.8996 46.6733 38.5402 46.6733 38.0736V36.5756C46.6733 36.1089 46.5613 35.7496 46.3373 35.4976C46.1133 35.2456 45.796 35.1196 45.3853 35.1196C44.9747 35.1196 44.6573 35.2456 44.4333 35.4976C44.2093 35.7496 44.0973 36.1089 44.0973 36.5756V38.0736C44.0973 38.5402 44.2093 38.8996 44.4333 39.1516C44.6573 39.4036 44.9747 39.5296 45.3853 39.5296Z" fill="white"/>
<path d="M49.4113 39.3896H50.3773C50.4986 39.2122 50.606 39.0116 50.6993 38.7876C50.7926 38.5636 50.8673 38.3069 50.9233 38.0176C50.9886 37.7189 51.0353 37.3829 51.0633 37.0096C51.0913 36.6362 51.1053 36.2116 51.1053 35.7356V33.6496H57.0133V39.3896H58.2733V42.9596H56.3973V40.9996H51.2873V42.9596H49.4113V39.3896ZM54.9413 39.3896V35.2596H53.0933V35.8476C53.0933 36.8556 53.0373 37.6349 52.9253 38.1856C52.8226 38.7269 52.6966 39.1282 52.5473 39.3896H54.9413Z" fill="white"/>
<path d="M59.4521 33.6496H61.4821V36.6036L61.3001 38.3116H61.3421L62.1961 36.7436L64.2402 33.6496H66.0882V40.9996H64.0581V38.0456L64.2402 36.3376H64.1982L63.3442 37.9056L61.3001 40.9996H59.4521V33.6496Z" fill="white"/>
<path d="M69.4664 35.2596H67.3384V33.6496H73.6664V35.2596H71.5384V40.9996H69.4664V35.2596Z" fill="white"/>
<path d="M77.8147 41.1676C77.264 41.1676 76.774 41.0789 76.3447 40.9016C75.9153 40.7149 75.556 40.4582 75.2667 40.1316C74.9773 39.7956 74.758 39.3896 74.6087 38.9136C74.4593 38.4376 74.3847 37.9056 74.3847 37.3176C74.3847 36.7296 74.4593 36.2022 74.6087 35.7356C74.758 35.2596 74.9773 34.8536 75.2667 34.5176C75.556 34.1816 75.9153 33.9249 76.3447 33.7476C76.774 33.5702 77.264 33.4816 77.8147 33.4816C78.5613 33.4816 79.182 33.6496 79.6767 33.9856C80.1807 34.3216 80.54 34.7929 80.7547 35.3996L79.0747 36.1276C79.0093 35.8476 78.874 35.6096 78.6687 35.4136C78.4633 35.2176 78.1787 35.1196 77.8147 35.1196C77.3947 35.1196 77.0773 35.2596 76.8627 35.5396C76.648 35.8102 76.5407 36.1789 76.5407 36.6456V38.0176C76.5407 38.4842 76.648 38.8576 76.8627 39.1376C77.0773 39.4082 77.3947 39.5436 77.8147 39.5436C78.2253 39.5436 78.5287 39.4362 78.7247 39.2216C78.93 38.9976 79.084 38.7362 79.1867 38.4376L80.7967 39.1376C80.554 39.8376 80.176 40.3509 79.6627 40.6776C79.1587 41.0042 78.5427 41.1676 77.8147 41.1676Z" fill="white"/>
<path d="M81.7151 39.3896H82.4991L82.8351 38.7316C83.0031 38.3862 83.2598 38.1996 83.6051 38.1716V38.1016C83.0544 38.0269 82.6158 37.8262 82.2891 37.4996C81.9624 37.1729 81.7991 36.7062 81.7991 36.0996C81.7991 35.7169 81.8644 35.3762 81.9951 35.0776C82.1258 34.7696 82.3031 34.5129 82.5271 34.3076C82.7604 34.0929 83.0311 33.9296 83.3391 33.8176C83.6471 33.7056 83.9784 33.6496 84.3331 33.6496H88.3371V40.9996H86.2651V38.4376H85.1311L84.3611 39.9496C84.1651 40.3416 83.9364 40.6169 83.6751 40.7756C83.4231 40.9249 83.1011 40.9996 82.7091 40.9996H81.7151V39.3896ZM86.2651 36.9676V35.1196H84.7811C84.5104 35.1196 84.2911 35.1942 84.1231 35.3436C83.9644 35.4836 83.8851 35.6889 83.8851 35.9596V36.1976C83.8851 36.4216 83.9644 36.6082 84.1231 36.7576C84.2911 36.8976 84.5104 36.9676 84.7811 36.9676H86.2651Z" fill="white"/>
<path d="M95.1451 36.5756H97.4411V36.5336C97.4411 36.1136 97.3245 35.7729 97.0911 35.5116C96.8578 35.2409 96.5171 35.1056 96.0691 35.1056C95.6211 35.1056 95.2945 35.1896 95.0891 35.3576C94.8838 35.5256 94.7298 35.7636 94.6271 36.0716L92.9751 35.2176C93.2365 34.6856 93.6098 34.2656 94.0951 33.9576C94.5805 33.6402 95.2385 33.4816 96.0691 33.4816C97.2358 33.4816 98.1131 33.8269 98.7011 34.5176C99.2985 35.2082 99.5971 36.1416 99.5971 37.3176C99.5971 37.9056 99.5225 38.4376 99.3731 38.9136C99.2238 39.3896 98.9951 39.7956 98.6871 40.1316C98.3885 40.4582 98.0151 40.7149 97.5671 40.9016C97.1285 41.0789 96.6151 41.1676 96.0271 41.1676C95.6351 41.1676 95.2851 41.1302 94.9771 41.0556C94.6691 40.9902 94.3938 40.8829 94.1511 40.7336C93.9085 40.5842 93.6891 40.3929 93.4931 40.1596C93.2971 39.9262 93.1105 39.6462 92.9331 39.3196L94.5151 38.4936C94.6551 38.8576 94.8418 39.1236 95.0751 39.2916C95.3085 39.4596 95.6258 39.5436 96.0271 39.5436C96.5218 39.5436 96.8811 39.4176 97.1051 39.1656C97.3291 38.9042 97.4411 38.5216 97.4411 38.0176V37.9476H95.1451V36.5756Z" fill="white"/>
<path d="M102.443 35.2596H100.315V33.6496H106.643V35.2596H104.515V40.9996H102.443V35.2596Z" fill="white"/>
<path d="M113.255 40.9996C112.882 40.9996 112.569 40.8829 112.317 40.6496C112.075 40.4162 111.921 40.1036 111.855 39.7116H111.771C111.659 40.1876 111.412 40.5516 111.029 40.8036C110.647 41.0462 110.175 41.1676 109.615 41.1676C108.878 41.1676 108.313 40.9716 107.921 40.5796C107.529 40.1876 107.333 39.6696 107.333 39.0256C107.333 38.2509 107.613 37.6769 108.173 37.3036C108.743 36.9209 109.513 36.7296 110.483 36.7296H111.645V36.2676C111.645 35.9129 111.552 35.6329 111.365 35.4276C111.179 35.2129 110.866 35.1056 110.427 35.1056C110.017 35.1056 109.69 35.1942 109.447 35.3716C109.205 35.5489 109.004 35.7496 108.845 35.9736L107.613 34.8816C107.912 34.4429 108.285 34.1022 108.733 33.8596C109.191 33.6076 109.807 33.4816 110.581 33.4816C111.627 33.4816 112.411 33.7102 112.933 34.1676C113.456 34.6249 113.717 35.2922 113.717 36.1696V39.3896H114.403V40.9996H113.255ZM110.385 39.7256C110.731 39.7256 111.025 39.6509 111.267 39.5016C111.519 39.3522 111.645 39.1096 111.645 38.7736V37.9056H110.637C109.825 37.9056 109.419 38.1809 109.419 38.7316V38.9416C109.419 39.2122 109.503 39.4129 109.671 39.5436C109.839 39.6649 110.077 39.7256 110.385 39.7256Z" fill="white"/>
<path d="M122.071 41.1676C121.52 41.1676 121.03 41.0789 120.601 40.9016C120.171 40.7149 119.812 40.4582 119.523 40.1316C119.233 39.7956 119.014 39.3896 118.865 38.9136C118.715 38.4376 118.641 37.9056 118.641 37.3176C118.641 36.7296 118.715 36.2022 118.865 35.7356C119.014 35.2596 119.233 34.8536 119.523 34.5176C119.812 34.1816 120.171 33.9249 120.601 33.7476C121.03 33.5702 121.52 33.4816 122.071 33.4816C122.817 33.4816 123.438 33.6496 123.933 33.9856C124.437 34.3216 124.796 34.7929 125.011 35.3996L123.331 36.1276C123.265 35.8476 123.13 35.6096 122.925 35.4136C122.719 35.2176 122.435 35.1196 122.071 35.1196C121.651 35.1196 121.333 35.2596 121.119 35.5396C120.904 35.8102 120.797 36.1789 120.797 36.6456V38.0176C120.797 38.4842 120.904 38.8576 121.119 39.1376C121.333 39.4082 121.651 39.5436 122.071 39.5436C122.481 39.5436 122.785 39.4362 122.981 39.2216C123.186 38.9976 123.34 38.7362 123.443 38.4376L125.053 39.1376C124.81 39.8376 124.432 40.3509 123.919 40.6776C123.415 41.0042 122.799 41.1676 122.071 41.1676Z" fill="white"/>
<path d="M127.886 35.2596H125.758V33.6496H132.086V35.2596H129.958V40.9996H127.886V35.2596Z" fill="white"/>
<path d="M138.699 40.9996C138.325 40.9996 138.013 40.8829 137.761 40.6496C137.518 40.4162 137.364 40.1036 137.299 39.7116H137.215C137.103 40.1876 136.855 40.5516 136.473 40.8036C136.09 41.0462 135.619 41.1676 135.059 41.1676C134.321 41.1676 133.757 40.9716 133.365 40.5796C132.973 40.1876 132.777 39.6696 132.777 39.0256C132.777 38.2509 133.057 37.6769 133.617 37.3036C134.186 36.9209 134.956 36.7296 135.927 36.7296H137.089V36.2676C137.089 35.9129 136.995 35.6329 136.809 35.4276C136.622 35.2129 136.309 35.1056 135.871 35.1056C135.46 35.1056 135.133 35.1942 134.891 35.3716C134.648 35.5489 134.447 35.7496 134.289 35.9736L133.057 34.8816C133.355 34.4429 133.729 34.1022 134.177 33.8596C134.634 33.6076 135.25 33.4816 136.025 33.4816C137.07 33.4816 137.854 33.7102 138.377 34.1676C138.899 34.6249 139.161 35.2922 139.161 36.1696V39.3896H139.847V40.9996H138.699ZM135.829 39.7256C136.174 39.7256 136.468 39.6509 136.711 39.5016C136.963 39.3522 137.089 39.1096 137.089 38.7736V37.9056H136.081C135.269 37.9056 134.863 38.1809 134.863 38.7316V38.9416C134.863 39.2122 134.947 39.4129 135.115 39.5436C135.283 39.6649 135.521 39.7256 135.829 39.7256Z" fill="white"/>
<path d="M142.433 35.2596H140.305V33.6496H146.633V35.2596H144.505V40.9996H142.433V35.2596Z" fill="white"/>
<path d="M152.622 33.6496H154.554L151.726 42.1336C151.539 42.7029 151.273 43.1229 150.928 43.3936C150.592 43.6642 150.107 43.7996 149.472 43.7996H148.184V42.1896H149.57L149.822 41.3776L147.246 33.6496H149.304L150.382 37.0796L150.914 39.2076H150.998L151.544 37.0796L152.622 33.6496Z" fill="white"/>
<path d="M155.133 39.3896H155.917L156.253 38.7316C156.421 38.3862 156.678 38.1996 157.023 38.1716V38.1016C156.472 38.0269 156.034 37.8262 155.707 37.4996C155.38 37.1729 155.217 36.7062 155.217 36.0996C155.217 35.7169 155.282 35.3762 155.413 35.0776C155.544 34.7696 155.721 34.5129 155.945 34.3076C156.178 34.0929 156.449 33.9296 156.757 33.8176C157.065 33.7056 157.396 33.6496 157.751 33.6496H161.755V40.9996H159.683V38.4376H158.549L157.779 39.9496C157.583 40.3416 157.354 40.6169 157.093 40.7756C156.841 40.9249 156.519 40.9996 156.127 40.9996H155.133V39.3896ZM159.683 36.9676V35.1196H158.199C157.928 35.1196 157.709 35.1942 157.541 35.3436C157.382 35.4836 157.303 35.6889 157.303 35.9596V36.1976C157.303 36.4216 157.382 36.6082 157.541 36.7576C157.709 36.8976 157.928 36.9676 158.199 36.9676H159.683Z" fill="white"/>
<path d="M164.933 37.7376V35.5956C165.67 35.5676 166.221 35.4462 166.585 35.2316C166.958 35.0076 167.145 34.6342 167.145 34.1116V33.9156C167.145 33.5609 167.037 33.2902 166.823 33.1036C166.617 32.9169 166.347 32.8236 166.011 32.8236C165.647 32.8236 165.343 32.9356 165.101 33.1596C164.867 33.3836 164.709 33.6682 164.625 34.0136L162.917 33.2996C163.001 33.0196 163.122 32.7489 163.281 32.4876C163.439 32.2169 163.645 31.9789 163.897 31.7736C164.158 31.5589 164.466 31.3862 164.821 31.2556C165.185 31.1249 165.605 31.0596 166.081 31.0596C166.566 31.0596 167.009 31.1296 167.411 31.2696C167.812 31.4096 168.157 31.6056 168.447 31.8576C168.736 32.1096 168.955 32.4129 169.105 32.7676C169.263 33.1222 169.343 33.5142 169.343 33.9436C169.343 34.3356 169.277 34.6902 169.147 35.0076C169.016 35.3249 168.839 35.6049 168.615 35.8476C168.391 36.0809 168.129 36.2722 167.831 36.4216C167.532 36.5709 167.219 36.6736 166.893 36.7296V37.7376H164.933ZM165.941 41.1676C165.493 41.1676 165.171 41.0649 164.975 40.8596C164.788 40.6542 164.695 40.4022 164.695 40.1036V39.7676C164.695 39.4689 164.788 39.2169 164.975 39.0116C165.171 38.8062 165.493 38.7036 165.941 38.7036C166.389 38.7036 166.706 38.8062 166.893 39.0116C167.089 39.2169 167.187 39.4689 167.187 39.7676V40.1036C167.187 40.4022 167.089 40.6542 166.893 40.8596C166.706 41.0649 166.389 41.1676 165.941 41.1676Z" fill="white"/>
<defs>
<linearGradient id="paint0_linear" x1="0" y1="0" x2="41.4277" y2="117.378" gradientUnits="userSpaceOnUse">
<stop stop-color="#FF0076"/>
<stop offset="1" stop-color="#590FB7"/>
</linearGradient>
</defs>
</svg>
