<svg width="32" height="40" viewBox="0 0 32 40" fill="none" xmlns="http://www.w3.org/2000/svg">
<path d="M30.2925 27.5C31.1555 27.5 31.855 26.8005 31.855 25.9375V6.25C31.855 2.80375 29.0513 0 25.605 0H6.39502C2.94877 0 0.14502 2.80375 0.14502 6.25V33.75C0.14502 37.1963 2.94877 40 6.39502 40H25.605C29.0513 40 31.855 37.1963 31.8551 33.75C31.8551 32.887 31.1556 32.1875 30.2926 32.1875C29.4296 32.1875 28.7301 32.887 28.7301 33.75C28.7301 35.4731 27.3282 36.875 25.6051 36.875H6.39502C4.67189 36.875 3.27002 35.4731 3.27002 33.75V6.25C3.27002 4.52688 4.67189 3.125 6.39502 3.125H25.6051C27.3282 3.125 28.7301 4.52688 28.7301 6.25V25.9375C28.73 26.8005 29.4296 27.5 30.2925 27.5Z" fill="#8C30F5"/>
<path d="M7.64128 18.6582C7.362 18.6582 7.15664 18.5924 7.02521 18.461C6.902 18.3296 6.84039 18.1612 6.84039 17.9558V17.7464C6.84039 17.541 6.902 17.3726 7.02521 17.2412C7.15664 17.1098 7.362 17.044 7.64128 17.044C7.92057 17.044 8.12182 17.1098 8.24504 17.2412C8.36825 17.3726 8.42986 17.541 8.42986 17.7464V17.9558C8.42986 18.1612 8.36825 18.3296 8.24504 18.461C8.12182 18.5924 7.92057 18.6582 7.64128 18.6582ZM6.9636 20.4756C6.9636 20.1047 7.26425 19.8041 7.63512 19.8041C8.00599 19.8041 8.30664 20.1047 8.30664 20.4756V23.137C8.30664 23.5079 8.00599 23.8085 7.63512 23.8085C7.26425 23.8085 6.9636 23.5079 6.9636 23.137V20.4756Z" fill="#8C30F5"/>
<path d="M13.8636 23.9564C13.305 23.9564 12.7957 23.8619 12.3357 23.673C11.8839 23.4758 11.4937 23.1925 11.1652 22.8228C10.8448 22.445 10.5943 21.9808 10.4136 21.4305C10.2411 20.8719 10.1548 20.2312 10.1548 19.5083C10.1548 18.7855 10.2411 18.1489 10.4136 17.5985C10.5943 17.0399 10.8448 16.5758 11.1652 16.2062C11.4937 15.8283 11.8839 15.5449 12.3357 15.356C12.7957 15.1589 13.305 15.0603 13.8636 15.0603C14.4221 15.0603 14.9273 15.1589 15.3791 15.356C15.8391 15.5449 16.2293 15.8283 16.5496 16.2062C16.8782 16.5758 17.1288 17.0399 17.3013 17.5985C17.482 18.1489 17.5723 18.7855 17.5723 19.5083C17.5723 20.2312 17.482 20.8719 17.3013 21.4305C17.1288 21.9808 16.8782 22.445 16.5496 22.8228C16.2293 23.1925 15.8391 23.4758 15.3791 23.673C14.9273 23.8619 14.4221 23.9564 13.8636 23.9564ZM13.8636 22.7119C14.1921 22.7119 14.492 22.6544 14.763 22.5394C15.0423 22.4244 15.2764 22.2601 15.4654 22.0466C15.6625 21.8248 15.8145 21.5578 15.9213 21.2457C16.028 20.9335 16.0814 20.5803 16.0814 20.186V18.8307C16.0814 18.4364 16.028 18.0832 15.9213 17.771C15.8145 17.4589 15.6625 17.196 15.4654 16.9824C15.2764 16.7607 15.0423 16.5923 14.763 16.4773C14.492 16.3623 14.1921 16.3048 13.8636 16.3048C13.5268 16.3048 13.2229 16.3623 12.9518 16.4773C12.6807 16.5923 12.4466 16.7607 12.2495 16.9824C12.0605 17.196 11.9127 17.4589 11.8059 17.771C11.6991 18.0832 11.6457 18.4364 11.6457 18.8307V20.186C11.6457 20.5803 11.6991 20.9335 11.8059 21.2457C11.9127 21.5578 12.0605 21.8248 12.2495 22.0466C12.4466 22.2601 12.6807 22.4244 12.9518 22.5394C13.2229 22.6544 13.5268 22.7119 13.8636 22.7119Z" fill="#8C30F5"/>
<path d="M22.0556 23.9564C21.3327 23.9564 20.7166 23.825 20.2074 23.5621C19.888 23.3946 19.5971 23.1904 19.3345 22.9495C19.0795 22.7156 19.1097 22.319 19.3623 22.0825C19.6398 21.8228 20.0742 21.8593 20.3668 22.1019C20.5287 22.2362 20.6973 22.3492 20.8727 22.4408C21.2424 22.6298 21.6613 22.7242 22.1295 22.7242C22.6799 22.7242 23.0947 22.601 23.374 22.3546C23.6533 22.1082 23.7929 21.7755 23.7929 21.3566C23.7929 21.0198 23.6943 20.7528 23.4972 20.5557C23.3 20.3585 22.9509 20.2107 22.4499 20.1121L21.6859 19.9766C20.8481 19.8205 20.2197 19.5453 19.8008 19.151C19.3818 18.7567 19.1724 18.2146 19.1724 17.5246C19.1724 17.1467 19.2422 16.8058 19.3818 16.5019C19.5297 16.1898 19.7309 15.931 19.9856 15.7256C20.2484 15.5121 20.5647 15.3478 20.9343 15.2328C21.304 15.1178 21.7188 15.0603 22.1788 15.0603C22.8277 15.0603 23.3904 15.1753 23.8668 15.4053C24.1614 15.5424 24.4293 15.7188 24.6705 15.9344C24.9255 16.1625 24.8865 16.556 24.6305 16.7829C24.3507 17.0308 23.9225 16.981 23.6232 16.7571C23.5217 16.6812 23.414 16.6125 23.3 16.5512C22.9797 16.3787 22.5813 16.2924 22.1049 16.2924C21.612 16.2924 21.23 16.391 20.959 16.5882C20.6879 16.7853 20.5524 17.0728 20.5524 17.4507C20.5524 17.8121 20.6633 18.0832 20.885 18.2639C21.1068 18.4364 21.4518 18.5678 21.92 18.6582L22.684 18.8183C23.5465 18.9826 24.1749 19.2619 24.5692 19.6562C24.9717 20.0505 25.1729 20.5926 25.1729 21.2826C25.1729 21.6851 25.1031 22.0507 24.9634 22.3792C24.8238 22.7078 24.6184 22.9912 24.3474 23.2294C24.0845 23.4594 23.76 23.6401 23.374 23.7716C22.9879 23.8948 22.5484 23.9564 22.0556 23.9564Z" fill="#8C30F5"/>
<path fill-rule="evenodd" clip-rule="evenodd" d="M6.8793 18.5978C6.71643 18.4241 6.64039 18.2043 6.64039 17.9558V17.7464C6.64039 17.4979 6.71643 17.2781 6.8793 17.1044L6.88372 17.0997C7.06788 16.9155 7.33528 16.844 7.64128 16.844C7.94589 16.844 8.21341 16.915 8.39094 17.1044L8.24504 17.2412C8.12182 17.1098 7.92057 17.044 7.64128 17.044C7.362 17.044 7.15664 17.1098 7.02521 17.2412C6.902 17.3726 6.84039 17.541 6.84039 17.7464V17.9558C6.84039 18.1612 6.902 18.3296 7.02521 18.461C7.15664 18.5924 7.362 18.6582 7.64128 18.6582C7.92057 18.6582 8.12182 18.5924 8.24504 18.461L8.39094 18.5978C8.21341 18.7872 7.94589 18.8582 7.64128 18.8582C7.33528 18.8582 7.06795 18.7866 6.88379 18.6024L6.8793 18.5978ZM8.24504 18.461C8.36825 18.3296 8.42986 18.1612 8.42986 17.9558V17.7464C8.42986 17.541 8.36825 17.3726 8.24504 17.2412L8.39094 17.1044C8.55381 17.2781 8.62986 17.4979 8.62986 17.7464V17.9558C8.62986 18.2043 8.55381 18.4241 8.39094 18.5978L8.24504 18.461ZM12.2557 23.8563C11.7773 23.6475 11.3634 23.3469 11.0157 22.9557L11.0126 22.9522C10.6729 22.5516 10.411 22.0637 10.2235 21.4929L10.2224 21.4895C10.0428 20.9079 9.95481 20.2467 9.95481 19.5083C9.95481 18.7701 10.0428 18.1126 10.2227 17.5387L10.2233 17.5369C10.4106 16.9578 10.6729 16.4688 11.014 16.0752C11.3621 15.6749 11.7773 15.3729 12.2577 15.1718C12.7452 14.9631 13.2814 14.8603 13.8636 14.8603C14.4452 14.8603 14.9774 14.9629 15.4571 15.1718C15.945 15.3726 16.3603 15.6741 16.7007 16.0751C17.0503 16.4689 17.3127 16.9584 17.4918 17.5378C17.6802 18.1122 17.7723 18.77 17.7723 19.5083C17.7723 20.2471 17.6801 20.9089 17.4918 21.4911C17.3124 22.0633 17.0497 22.5525 16.7008 22.9538C16.3601 23.3468 15.945 23.648 15.4579 23.8568L15.4563 23.8575C14.9768 24.058 14.4449 24.1564 13.8636 24.1564C13.2821 24.1564 12.7466 24.058 12.2597 23.858L12.2557 23.8563ZM16.5496 22.8228C16.8782 22.445 17.1288 21.9808 17.3013 21.4305C17.482 20.8719 17.5723 20.2312 17.5723 19.5083C17.5723 18.7855 17.482 18.1489 17.3013 17.5985C17.1288 17.0399 16.8782 16.5758 16.5496 16.2062C16.2293 15.8283 15.8391 15.5449 15.3791 15.356C14.9273 15.1589 14.4221 15.0603 13.8636 15.0603C13.305 15.0603 12.7957 15.1589 12.3357 15.356C11.8839 15.5449 11.4937 15.8283 11.1652 16.2062C10.8448 16.5758 10.5943 17.0399 10.4136 17.5985C10.2411 18.1489 10.1548 18.7855 10.1548 19.5083C10.1548 20.2312 10.2411 20.8719 10.4136 21.4305C10.5943 21.9808 10.8448 22.445 11.1652 22.8228C11.4937 23.1925 11.8839 23.4758 12.3357 23.673C12.7957 23.8619 13.305 23.9564 13.8636 23.9564C14.4221 23.9564 14.9273 23.8619 15.3791 23.673C15.8391 23.4758 16.2293 23.1925 16.5496 22.8228ZM14.6869 22.3545C14.9397 22.2504 15.148 22.1034 15.3156 21.914C15.4932 21.7142 15.6329 21.4708 15.732 21.1809C15.8304 20.8932 15.8814 20.5625 15.8814 20.186V18.8307C15.8814 18.4542 15.8304 18.1234 15.732 17.8357C15.633 17.5464 15.4943 17.3086 15.3184 17.1181L15.313 17.1122C15.1454 16.9155 14.9379 16.7655 14.6869 16.6622L14.6849 16.6614C14.4413 16.558 14.1684 16.5048 13.8636 16.5048C13.5498 16.5048 13.273 16.5583 13.0299 16.6614C12.7864 16.7647 12.5767 16.9154 12.3991 17.1151C12.2303 17.306 12.0947 17.5448 11.9951 17.8357C11.8967 18.1234 11.8457 18.4542 11.8457 18.8307V20.186C11.8457 20.5625 11.8967 20.8932 11.9951 21.1809C12.0943 21.4709 12.2297 21.7141 12.3991 21.9138C12.5762 22.1048 12.7858 22.2518 13.0299 22.3553C13.273 22.4584 13.5498 22.5119 13.8636 22.5119C14.1684 22.5119 14.4413 22.4587 14.6849 22.3553L14.6869 22.3545ZM12.2495 22.0466C12.4466 22.2601 12.6807 22.4244 12.9518 22.5394C13.2229 22.6544 13.5268 22.7119 13.8636 22.7119C14.1921 22.7119 14.492 22.6544 14.763 22.5394C15.0423 22.4244 15.2764 22.2601 15.4654 22.0466C15.6625 21.8248 15.8145 21.5578 15.9213 21.2457C16.028 20.9335 16.0814 20.5803 16.0814 20.186V18.8307C16.0814 18.4364 16.028 18.0832 15.9213 17.771C15.8145 17.4589 15.6625 17.196 15.4654 16.9824C15.2764 16.7607 15.0423 16.5923 14.763 16.4773C14.492 16.3623 14.1921 16.3048 13.8636 16.3048C13.5268 16.3048 13.2229 16.3623 12.9518 16.4773C12.6807 16.5923 12.4466 16.7607 12.2495 16.9824C12.0605 17.196 11.9127 17.4589 11.8059 17.771C11.6991 18.0832 11.6457 18.4364 11.6457 18.8307V20.186C11.6457 20.5803 11.6991 20.9335 11.8059 21.2457C11.9127 21.5578 12.0605 21.8248 12.2495 22.0466ZM20.1156 23.7398L20.1144 23.7392C19.78 23.5638 19.4748 23.3496 19.1993 23.0969C18.8442 22.7711 18.9029 22.2386 19.2256 21.9365C19.5938 21.5919 20.1439 21.6572 20.4945 21.948C20.6459 22.0736 20.8026 22.1785 20.9645 22.2632C21.3024 22.4357 21.6892 22.5242 22.1295 22.5242C22.6539 22.5242 23.013 22.4064 23.2417 22.2046C23.4723 22.0011 23.5929 21.7261 23.5929 21.3566C23.5929 21.061 23.5078 20.8491 23.3558 20.6971C23.2019 20.5432 22.9021 20.4051 22.4131 20.3087L21.6493 20.1732C20.7908 20.0133 20.1209 19.727 19.6637 19.2967C19.1967 18.8571 18.9724 18.2578 18.9724 17.5246C18.9724 17.1216 19.0469 16.7517 19.2001 16.4184L19.2011 16.4163C19.361 16.0786 19.5805 15.7955 19.8597 15.5702C20.1449 15.3386 20.4845 15.1633 20.8749 15.0418C21.267 14.9198 21.7023 14.8603 22.1788 14.8603C22.8506 14.8603 23.4438 14.9793 23.9525 15.2246C24.2643 15.3699 24.5482 15.5569 24.8038 15.7853C25.1658 16.109 25.0898 16.6431 24.7631 16.9326C24.3895 17.2636 23.8513 17.1775 23.5034 16.9172C23.41 16.8474 23.3106 16.784 23.2052 16.7273C22.9216 16.5746 22.5581 16.4924 22.1049 16.4924C21.6353 16.4924 21.3008 16.5868 21.0766 16.7499C20.8644 16.9042 20.7524 17.1274 20.7524 17.4507C20.7524 17.7681 20.8474 17.9743 21.0096 18.1074C21.1951 18.2509 21.5033 18.3741 21.9579 18.4618L21.9611 18.4624L22.7232 18.6222C23.6029 18.79 24.2755 19.0801 24.7099 19.514C25.1586 19.954 25.3729 20.5522 25.3729 21.2826C25.3729 21.7086 25.2989 22.1012 25.1475 22.4575C24.996 22.8139 24.7727 23.1219 24.4794 23.3797C24.1939 23.6295 23.8451 23.8224 23.4384 23.9609L23.4348 23.9621C23.0253 24.0928 22.5648 24.1564 22.0556 24.1564C21.3089 24.1564 20.6597 24.0206 20.1156 23.7398ZM24.5692 19.6562C24.1749 19.2619 23.5465 18.9826 22.684 18.8183L21.92 18.6582C21.4518 18.5678 21.1068 18.4364 20.885 18.2639C20.6633 18.0832 20.5524 17.8121 20.5524 17.4507C20.5524 17.0728 20.6879 16.7853 20.959 16.5882C21.23 16.391 21.612 16.2924 22.1049 16.2924C22.5813 16.2924 22.9797 16.3787 23.3 16.5512C23.414 16.6125 23.5217 16.6812 23.6232 16.7571C23.9225 16.981 24.3507 17.0308 24.6305 16.7829C24.8865 16.556 24.9255 16.1625 24.6705 15.9344C24.4293 15.7188 24.1614 15.5424 23.8668 15.4053C23.3904 15.1753 22.8277 15.0603 22.1788 15.0603C21.7188 15.0603 21.304 15.1178 20.9343 15.2328C20.5647 15.3478 20.2484 15.5121 19.9856 15.7256C19.7309 15.931 19.5297 16.1898 19.3818 16.5019C19.2422 16.8058 19.1724 17.1467 19.1724 17.5246C19.1724 18.2146 19.3818 18.7567 19.8008 19.151C20.2197 19.5453 20.8481 19.8205 21.6859 19.9766L22.4499 20.1121C22.9509 20.2107 23.3 20.3585 23.4972 20.5557C23.6943 20.7528 23.7929 21.0198 23.7929 21.3566C23.7929 21.7755 23.6533 22.1082 23.374 22.3546C23.0947 22.601 22.6799 22.7242 22.1295 22.7242C21.6613 22.7242 21.2424 22.6298 20.8727 22.4408C20.6973 22.3492 20.5287 22.2362 20.3668 22.1019C20.0742 21.8593 19.6398 21.8228 19.3623 22.0825C19.1097 22.319 19.0795 22.7156 19.3345 22.9495C19.5971 23.1904 19.888 23.3946 20.2074 23.5621C20.7166 23.825 21.3327 23.9564 22.0556 23.9564C22.5484 23.9564 22.9879 23.8948 23.374 23.7716C23.76 23.6401 24.0845 23.4594 24.3474 23.2294C24.6184 22.9912 24.8238 22.7078 24.9634 22.3792C25.1031 22.0507 25.1729 21.6851 25.1729 21.2826C25.1729 20.5926 24.9717 20.0505 24.5692 19.6562ZM8.50664 20.4756V23.137C8.50664 23.6183 8.11645 24.0085 7.63512 24.0085C7.1538 24.0085 6.7636 23.6183 6.7636 23.137V20.4756C6.7636 19.9942 7.1538 19.6041 7.63512 19.6041C8.11645 19.6041 8.50664 19.9942 8.50664 20.4756ZM6.9636 20.4756C6.9636 20.1047 7.26425 19.8041 7.63512 19.8041C8.00599 19.8041 8.30664 20.1047 8.30664 20.4756V23.137C8.30664 23.5079 8.00599 23.8085 7.63512 23.8085C7.26425 23.8085 6.9636 23.5079 6.9636 23.137V20.4756Z" fill="#8C30F5"/>
</svg>
