<svg width="32" height="40" viewBox="0 0 32 40" fill="none" xmlns="http://www.w3.org/2000/svg">
<path d="M30.2925 27.5C31.1555 27.5 31.855 26.8005 31.855 25.9375V6.25C31.855 2.80375 29.0513 0 25.605 0H6.39502C2.94877 0 0.14502 2.80375 0.14502 6.25V33.75C0.14502 37.1963 2.94877 40 6.39502 40H25.605C29.0513 40 31.855 37.1963 31.8551 33.75C31.8551 32.887 31.1556 32.1875 30.2926 32.1875C29.4296 32.1875 28.7301 32.887 28.7301 33.75C28.7301 35.4731 27.3282 36.875 25.6051 36.875H6.39502C4.67189 36.875 3.27002 35.4731 3.27002 33.75V6.25C3.27002 4.52688 4.67189 3.125 6.39502 3.125H25.6051C27.3282 3.125 28.7301 4.52688 28.7301 6.25V25.9375C28.73 26.8005 29.4296 27.5 30.2925 27.5Z" fill="#8C30F5"/>
<path d="M20.4111 17.5703L21.9091 15.0043C21.9299 14.9523 21.9363 14.8958 21.9276 14.8405C21.919 14.7853 21.8955 14.7333 21.8597 14.69C21.824 14.6467 21.7771 14.6137 21.7241 14.5942C21.6711 14.5748 21.6138 14.5698 21.5581 14.5796C21.4836 14.593 21.4164 14.6326 21.369 14.691L19.8519 17.2968C18.64 16.7591 17.3269 16.4811 15.9986 16.4811C14.6704 16.4811 13.3572 16.7591 12.1454 17.2968L10.6283 14.6971C10.5805 14.6391 10.5133 14.6 10.4389 14.5868C10.3645 14.5735 10.2877 14.5871 10.2225 14.6249C10.1573 14.6627 10.1079 14.7224 10.0833 14.7931C10.0586 14.8638 10.0604 14.9409 10.0882 15.0104L11.5862 17.571C10.2924 18.2682 9.19518 19.274 8.39426 20.4972C7.7921 21.4167 7.37176 22.4372 7.15174 23.5045C7.03399 24.0756 7.49846 24.5747 8.0816 24.5747H23.918C24.5013 24.5747 24.9658 24.0754 24.8478 23.5042C24.6274 22.4369 24.2067 21.4164 23.6042 20.4969C22.8029 19.2738 21.7052 18.2681 20.4111 17.571V17.5703ZM11.8532 22.0385C11.7051 22.038 11.5604 21.9942 11.4374 21.9126C11.3144 21.8311 11.2185 21.7153 11.1618 21.58C11.1051 21.4447 11.0901 21.2958 11.1187 21.1521C11.1474 21.0084 11.2183 20.8763 11.3227 20.7723C11.4099 20.6862 11.5172 20.6227 11.6351 20.5874C11.7531 20.5521 11.878 20.5461 11.9988 20.5699C12.1197 20.5937 12.2327 20.6466 12.328 20.7239C12.4232 20.8012 12.4977 20.9006 12.5449 21.0132C12.5921 21.1258 12.6105 21.2481 12.5985 21.3694C12.5864 21.4907 12.5444 21.6072 12.476 21.7086C12.4076 21.8099 12.3149 21.8931 12.2063 21.9506C12.0977 22.0081 11.9764 22.0383 11.8532 22.0385ZM20.14 22.0385C20.0415 22.0386 19.9439 22.0196 19.8529 21.9825C19.7618 21.9454 19.679 21.8909 19.6093 21.8221C19.5395 21.7534 19.4841 21.6717 19.4462 21.5818C19.4084 21.4919 19.3888 21.3954 19.3886 21.298C19.3884 21.2006 19.4077 21.1041 19.4452 21.0141C19.4827 20.924 19.5378 20.8421 19.6073 20.7731C19.6768 20.7041 19.7594 20.6493 19.8504 20.6119C19.9413 20.5745 20.0388 20.5551 20.1373 20.5549C20.3362 20.5546 20.5271 20.6324 20.668 20.7712C20.8089 20.9101 20.8883 21.0986 20.8887 21.2953C20.889 21.4921 20.8104 21.6809 20.67 21.8202C20.5296 21.9596 20.3389 22.0381 20.14 22.0385Z" fill="#8C30F5"/>
</svg>
