<svg width="141" height="51" viewBox="0 0 141 51" fill="none" xmlns="http://www.w3.org/2000/svg">
<path d="M14.1163 51L11.3623 29.0645L7.85093 51H0.277344L8.40173 0H15.9753L12.877 19.5363L21.6211 0H29.2635L18.4539 23.9234L21.8965 51H14.1163Z" fill="#FBFBFF"/>
<path d="M24.5747 51L25.814 43.1169H27.2599C28.0402 43.1169 28.6139 42.957 28.9811 42.6371C29.3483 42.3172 29.6467 41.746 29.8762 40.9234L30.0827 40.2379C30.3581 39.3239 30.4958 37.8387 30.4958 35.7823L30.427 0H38.1383L37.4498 22.5524L43.784 0H50.9445L36.4859 44.2823C35.6596 46.7957 34.7416 48.5551 33.7318 49.5605C32.7679 50.5202 31.322 51 29.3942 51H24.5747Z" fill="#FBFBFF"/>
<path d="M53.1284 51H45.5548L53.6792 0H73.5771L65.4527 51H57.8791L64.833 7.40322H60.0823L53.1284 51Z" fill="#FBFBFF"/>
<path d="M82.6519 51L87.2649 22.0726L77.075 51H69.6391L77.7635 0H85.1994L80.5864 28.9274L90.7763 0H98.2122L90.0878 51H82.6519Z" fill="#FBFBFF"/>
<path d="M101.422 0H121.664L120.493 7.47177H114.228L107.274 51H99.7005L106.654 7.47177H100.251L101.422 0Z" fill="#FBFBFF"/>
<path d="M129.128 19.7419H131.745C138.446 19.7419 141.2 23.3065 140.007 30.4355L138.148 41.8831C137.597 45.0363 136.61 47.3441 135.187 48.8065C133.764 50.2688 131.607 51 128.715 51H116.597L124.722 0H132.295L129.128 19.7419ZM125.342 43.5968H127.338C129.174 43.5968 130.253 42.4315 130.574 40.1008L132.089 30.8468C132.41 28.379 131.699 27.1452 129.955 27.1452H127.958L125.342 43.5968Z" fill="#FBFBFF"/>
</svg>
