<svg width="45" height="58" viewBox="0 0 45 58" fill="none" xmlns="http://www.w3.org/2000/svg">
<path d="M33.4588 24.3783C33.6452 15.0099 19.4146 16.2974 23.0739 0C23.0739 0 13.5191 3.76094 15.1962 15.2979C15.7722 19.2621 14.3831 22.2268 14.3831 22.2268C12.9769 22.5148 10.7915 19.7195 11.5539 15.3995C11.5539 15.3995 6.53929 19.1435 6.53929 23.9548C6.53929 28.7661 8.86024 33.8654 8.86024 33.8654C3.08329 32.6118 3.65929 24.8188 3.65929 24.8188C3.65929 24.8188 0 29.7148 0 38.9478C0 46.1308 8.09788 57.6 21.1595 57.6C34.2212 57.6 44.7078 47.4692 44.7078 38.4565C44.7078 34.5092 43.3694 29.4099 40.4725 26.6315C40.4725 26.6315 40.8621 34.5092 36.9656 34.1365C36.9656 34.1365 40.1845 23.8532 36.8132 19.1435C36.8132 19.1435 35.1868 24.2259 33.4588 24.3783Z" fill="url(#paint0_linear)"/>
<path d="M33.4758 17.3142C37.2706 10.3175 27.8682 9.35189 27.8513 5.04883C27.8513 5.04883 26.1911 9.48742 30.1553 12.5199C33.391 14.9764 33.4758 17.3142 33.4758 17.3142Z" fill="url(#paint1_linear)"/>
<path d="M13.5191 3.92969C12.0791 5.35275 14.0612 11.2313 9.55483 13.5523C9.55483 13.5523 8.03012 7.09769 13.5191 3.92969Z" fill="url(#paint2_linear)"/>
<path opacity="0.5" d="M2.96471 27.1734C1.71106 29.325 0 33.3061 0 38.9476C0 45.2497 8.03012 56.8374 21.1595 56.8374C33.984 56.8374 43.9454 46.9607 43.9454 38.4732C43.9454 35.4069 43.0984 31.4934 41.2179 28.7151C41.0824 30.46 40.6588 32.8318 39.3544 34.0685C38.6767 34.7123 37.8297 35.0003 36.8979 34.8986L35.9492 34.8139L36.2372 33.916C36.2711 33.8313 38.7275 25.8012 36.9487 21.0407C36.2372 22.7857 35.0174 25.0389 33.5266 25.1574L32.6795 25.2252L32.6965 24.3781C32.7642 20.8713 30.6127 19.0078 28.1224 16.8563C24.5647 13.773 20.5496 10.2831 22.0235 1.42285C19.5501 2.87979 14.7388 6.89485 15.9416 15.1791C16.5515 19.3297 15.1115 22.413 15.0607 22.5485L14.8913 22.9043L14.5186 22.972C13.8071 23.1076 13.0616 22.8196 12.384 22.1758C11.4692 21.2779 10.6391 19.5838 10.6052 17.2798C9.216 18.7029 7.30165 21.1593 7.30165 23.9546C7.30165 28.5457 9.53788 33.4925 9.55482 33.5433L10.1816 34.9325L8.69082 34.6106C4.79435 33.7636 3.33741 30.1381 2.96471 27.1734Z" fill="url(#paint3_linear)"/>
<path d="M27.8514 5.04883C27.5126 7.60695 28.5291 11.2832 30.1554 12.5199C31.6463 13.6549 33.3234 15.6032 33.459 17.3142C36.0001 12.3335 32.4255 10.4869 30.3757 9.75848C29.5117 9.45353 27.9192 7.67471 27.8514 5.04883Z" fill="url(#paint4_radial)"/>
<path d="M20.0414 4.31934C14.4169 13.1287 21.7186 22.4295 17.9576 28.0031C14.1967 33.5767 10.3849 28.4266 10.1308 24.9367C10.1308 24.9367 10.1647 36.2196 15.7383 40.6751C21.312 45.1306 5.01456 44.165 2.77832 38.7269C2.77832 38.7269 2.77832 56.837 21.1595 56.837C39.5407 56.837 42.607 39.9805 42.607 39.9805C42.607 39.9805 35.9153 45.6897 31.4597 41.2342C31.4597 41.2342 34.7971 35.3895 35.6442 29.3923C35.6442 29.3923 33.3402 30.8492 29.7995 30.2902C29.7995 30.2902 31.7647 21.8704 27.7496 19.109C22.5995 15.5683 18.2456 7.13157 20.0414 4.31934Z" fill="url(#paint5_linear)"/>
<path d="M21.4474 14.6875C18.4997 18.567 24.2427 28.5284 18.2117 32.4757C14.8742 34.6611 12.9599 32.0353 12.9599 32.0353C12.9599 32.0353 13.8578 36.0673 17.4493 39.6588C21.0408 43.2503 12.0451 48.1124 4.74341 41.8273C4.74341 41.8273 7.2507 56.9218 24.2427 54.3807C42.9966 51.5854 41.6074 37.6428 41.6074 37.6428C41.6074 37.6428 36.5251 45.639 29.2912 41.8103C29.2912 41.8103 33.8484 35.4574 33.8484 31.815C33.8484 31.815 30.7651 33.6447 27.2413 31.8828C27.2413 31.8828 28.9185 23.4122 26.9194 22.1416C22.1251 19.0753 21.4474 14.6875 21.4474 14.6875Z" fill="url(#paint6_linear)"/>
<path opacity="0.5" d="M33.4588 24.3783C33.6452 15.0099 19.4146 16.2974 23.0739 0C23.0739 0 13.5191 3.76094 15.1962 15.2979C15.7722 19.2621 14.3831 22.2268 14.3831 22.2268C12.9769 22.5148 10.7915 19.7195 11.5539 15.3995C11.5539 15.3995 6.53929 19.1435 6.53929 23.9548C6.53929 28.7661 8.86024 33.8654 8.86024 33.8654C3.08329 32.6118 3.65929 24.8188 3.65929 24.8188C3.65929 24.8188 0 29.7148 0 38.9478C0 46.1308 8.09788 57.6 21.1595 57.6C34.2212 57.6 44.7078 47.4692 44.7078 38.4565C44.7078 34.5092 43.3694 29.4099 40.4725 26.6315C40.4725 26.6315 40.8621 34.5092 36.9656 34.1365C36.9656 34.1365 40.1845 23.8532 36.8132 19.1435C36.8132 19.1435 35.1868 24.2259 33.4588 24.3783Z" fill="url(#paint7_radial)"/>
<path opacity="0.5" d="M33.4588 24.3783C33.6452 15.0099 19.4146 16.2974 23.0739 0C23.0739 0 13.5191 3.76094 15.1962 15.2979C15.7722 19.2621 14.3831 22.2268 14.3831 22.2268C12.9769 22.5148 10.7915 19.7195 11.5539 15.3995C11.5539 15.3995 6.53929 19.1435 6.53929 23.9548C6.53929 28.7661 8.86024 33.8654 8.86024 33.8654C3.08329 32.6118 3.65929 24.8188 3.65929 24.8188C3.65929 24.8188 0 29.7148 0 38.9478C0 46.1308 8.09788 57.6 21.1595 57.6C34.2212 57.6 44.7078 47.4692 44.7078 38.4565C44.7078 34.5092 43.3694 29.4099 40.4725 26.6315C40.4725 26.6315 40.8621 34.5092 36.9656 34.1365C36.9656 34.1365 40.1845 23.8532 36.8132 19.1435C36.8132 19.1435 35.1868 24.2259 33.4588 24.3783Z" fill="url(#paint8_radial)"/>
<path d="M1.15186 35.0175C1.5415 44.5893 9.41915 56.0585 21.7354 56.0585C34.0516 56.0585 40.2013 43.0646 40.5909 35.458C40.5909 35.458 38.2869 39.9305 33.086 40.8284C27.885 41.7263 33.4417 31.8834 29.7994 26.0557C29.7994 26.0557 26.5806 36.2034 22.0064 36.5761C17.4323 36.9488 13.5528 29.8674 13.5528 26.0557C13.5528 26.0557 10.7406 32.9168 11.4351 38.3719C12.5024 46.6561 1.15186 35.0175 1.15186 35.0175Z" fill="url(#paint9_radial)"/>
<path opacity="0.5" d="M33.4588 24.3783C33.6452 15.0099 19.4146 16.2974 23.0739 0C23.0739 0 13.5191 3.76094 15.1962 15.2979C15.7722 19.2621 14.3831 22.2268 14.3831 22.2268C12.9769 22.5148 10.7915 19.7195 11.5539 15.3995C11.5539 15.3995 6.53929 19.1435 6.53929 23.9548C6.53929 28.7661 8.86024 33.8654 8.86024 33.8654C3.08329 32.6118 3.65929 24.8188 3.65929 24.8188C3.65929 24.8188 0 29.7148 0 38.9478C0 46.1308 8.09788 57.6 21.1595 57.6C34.2212 57.6 44.7078 47.4692 44.7078 38.4565C44.7078 34.5092 43.3694 29.4099 40.4725 26.6315C40.4725 26.6315 40.8621 34.5092 36.9656 34.1365C36.9656 34.1365 40.1845 23.8532 36.8132 19.1435C36.8132 19.1435 35.1868 24.2259 33.4588 24.3783Z" fill="url(#paint10_radial)"/>
<path opacity="0.5" d="M33.4758 17.3142C37.2706 10.3175 27.8682 9.35189 27.8513 5.04883C27.8513 5.04883 26.1911 9.48742 30.1553 12.5199C33.391 14.9764 33.4758 17.3142 33.4758 17.3142Z" fill="url(#paint11_radial)"/>
<path d="M13.5191 3.92969C12.096 5.35275 13.0108 9.84216 9.55483 13.5523C9.55483 13.5523 8.03012 7.09769 13.5191 3.92969Z" fill="url(#paint12_radial)"/>
<path opacity="0.5" d="M13.5191 3.92969C12.0791 5.35275 14.0612 11.2313 9.55483 13.5523C9.55483 13.5523 8.03012 7.09769 13.5191 3.92969Z" fill="url(#paint13_radial)"/>
<path opacity="0.5" d="M33.4588 24.3783C33.6452 15.0099 19.4146 16.2974 23.0739 0C23.0739 0 13.5191 3.76094 15.1962 15.2979C15.7722 19.2621 14.3831 22.2268 14.3831 22.2268C12.9769 22.5148 10.7915 19.7195 11.5539 15.3995C11.5539 15.3995 6.53929 19.1435 6.53929 23.9548C6.53929 28.7661 8.86024 33.8654 8.86024 33.8654C3.08329 32.6118 3.65929 24.8188 3.65929 24.8188C3.65929 24.8188 0 29.7148 0 38.9478C0 46.1308 8.09788 57.6 21.1595 57.6C34.2212 57.6 44.7078 47.4692 44.7078 38.4565C44.7078 34.5092 43.3694 29.4099 40.4725 26.6315C40.4725 26.6315 40.8621 34.5092 36.9656 34.1365C36.9656 34.1365 40.1845 23.8532 36.8132 19.1435C36.8132 19.1435 35.1868 24.2259 33.4588 24.3783Z" fill="url(#paint14_radial)"/>
<path opacity="0.25" d="M33.4588 24.3783C33.6452 15.0099 19.4146 16.2974 23.0739 0C23.0739 0 13.5191 3.76094 15.1962 15.2979C15.7722 19.2621 14.3831 22.2268 14.3831 22.2268C12.9769 22.5148 10.7915 19.7195 11.5539 15.3995C11.5539 15.3995 6.53929 19.1435 6.53929 23.9548C6.53929 28.7661 8.86024 33.8654 8.86024 33.8654C3.08329 32.6118 3.65929 24.8188 3.65929 24.8188C3.65929 24.8188 0 29.7148 0 38.9478C0 46.1308 8.09788 57.6 21.1595 57.6C34.2212 57.6 44.7078 47.4692 44.7078 38.4565C44.7078 34.5092 43.3694 29.4099 40.4725 26.6315C40.4725 26.6315 40.8621 34.5092 36.9656 34.1365C36.9656 34.1365 40.1845 23.8532 36.8132 19.1435C36.8132 19.1435 35.1868 24.2259 33.4588 24.3783Z" fill="url(#paint15_radial)"/>
<path opacity="0.25" d="M33.4588 24.3783C33.6452 15.0099 19.4146 16.2974 23.0739 0C23.0739 0 13.5191 3.76094 15.1962 15.2979C15.7722 19.2621 14.3831 22.2268 14.3831 22.2268C12.9769 22.5148 10.7915 19.7195 11.5539 15.3995C11.5539 15.3995 6.53929 19.1435 6.53929 23.9548C6.53929 28.7661 8.86024 33.8654 8.86024 33.8654C3.08329 32.6118 3.65929 24.8188 3.65929 24.8188C3.65929 24.8188 0 29.7148 0 38.9478C0 46.1308 8.09788 57.6 21.1595 57.6C34.2212 57.6 44.7078 47.4692 44.7078 38.4565C44.7078 34.5092 43.3694 29.4099 40.4725 26.6315C40.4725 26.6315 40.8621 34.5092 36.9656 34.1365C36.9656 34.1365 40.1845 23.8532 36.8132 19.1435C36.8132 19.1435 35.1868 24.2259 33.4588 24.3783Z" fill="url(#paint16_radial)"/>
<path opacity="0.25" d="M33.4588 24.3783C33.6452 15.0099 19.4146 16.2974 23.0739 0C23.0739 0 13.5191 3.76094 15.1962 15.2979C15.7722 19.2621 14.3831 22.2268 14.3831 22.2268C12.9769 22.5148 10.7915 19.7195 11.5539 15.3995C11.5539 15.3995 6.53929 19.1435 6.53929 23.9548C6.53929 28.7661 8.86024 33.8654 8.86024 33.8654C3.08329 32.6118 3.65929 24.8188 3.65929 24.8188C3.65929 24.8188 0 29.7148 0 38.9478C0 46.1308 8.09788 57.6 21.1595 57.6C34.2212 57.6 44.7078 47.4692 44.7078 38.4565C44.7078 34.5092 43.3694 29.4099 40.4725 26.6315C40.4725 26.6315 40.8621 34.5092 36.9656 34.1365C36.9656 34.1365 40.1845 23.8532 36.8132 19.1435C36.8132 19.1435 35.1868 24.2259 33.4588 24.3783Z" fill="url(#paint17_radial)"/>
<defs>
<linearGradient id="paint0_linear" x1="25.2188" y1="59.192" x2="14.8335" y2="-16.0694" gradientUnits="userSpaceOnUse">
<stop stop-color="#FF0000"/>
<stop offset="0.2317" stop-color="#FF1500"/>
<stop offset="0.7367" stop-color="#FF3D00"/>
<stop offset="0.9987" stop-color="#FF4C00"/>
</linearGradient>
<linearGradient id="paint1_linear" x1="37.3882" y1="57.5131" x2="27.0029" y2="-17.7483" gradientUnits="userSpaceOnUse">
<stop stop-color="#FF0000"/>
<stop offset="0.2317" stop-color="#FF1500"/>
<stop offset="0.7367" stop-color="#FF3D00"/>
<stop offset="0.9987" stop-color="#FF4C00"/>
</linearGradient>
<linearGradient id="paint2_linear" x1="18.6115" y1="60.1031" x2="8.22619" y2="-15.1583" gradientUnits="userSpaceOnUse">
<stop stop-color="#FF0000"/>
<stop offset="0.2317" stop-color="#FF1500"/>
<stop offset="0.7367" stop-color="#FF3D00"/>
<stop offset="0.9987" stop-color="#FF4C00"/>
</linearGradient>
<linearGradient id="paint3_linear" x1="24.939" y1="46.3719" x2="2.24515" y2="-18.4402" gradientUnits="userSpaceOnUse">
<stop stop-color="#FF8000"/>
<stop offset="0.6388" stop-color="#FF5B00"/>
<stop offset="0.9987" stop-color="#FF4C00"/>
</linearGradient>
<radialGradient id="paint4_radial" cx="0" cy="0" r="1" gradientUnits="userSpaceOnUse" gradientTransform="translate(34.6585 -6.3739) scale(30.2417)">
<stop offset="0.00134333" stop-color="#FFED1C" stop-opacity="0.6"/>
<stop offset="0.9477" stop-color="#FFED1C" stop-opacity="0.0264782"/>
<stop offset="0.9914" stop-color="#FFED1C" stop-opacity="0"/>
</radialGradient>
<linearGradient id="paint5_linear" x1="16.1266" y1="3.12176" x2="24.3323" y2="49.1505" gradientUnits="userSpaceOnUse">
<stop stop-color="#FF8000"/>
<stop offset="0.022669" stop-color="#FE7F02" stop-opacity="0.9773"/>
<stop offset="0.6663" stop-color="#ED582A" stop-opacity="0.3337"/>
<stop offset="1" stop-color="#E74939" stop-opacity="0"/>
</linearGradient>
<linearGradient id="paint6_linear" x1="22.4986" y1="52.8608" x2="24.2722" y2="20.5416" gradientUnits="userSpaceOnUse">
<stop stop-color="#FFBC47"/>
<stop offset="0.1869" stop-color="#FFB137" stop-opacity="0.8131"/>
<stop offset="0.7223" stop-color="#FF940F" stop-opacity="0.2777"/>
<stop offset="1" stop-color="#FF8900" stop-opacity="0"/>
</linearGradient>
<radialGradient id="paint7_radial" cx="0" cy="0" r="1" gradientUnits="userSpaceOnUse" gradientTransform="translate(22.0578 44.1393) scale(23.3937 18.991)">
<stop offset="0.00134333" stop-color="#FFBC47"/>
<stop offset="0.2941" stop-color="#FFBF4B" stop-opacity="0.7068"/>
<stop offset="0.5624" stop-color="#FEC656" stop-opacity="0.4382"/>
<stop offset="0.8201" stop-color="#FCD368" stop-opacity="0.1801"/>
<stop offset="1" stop-color="#FBE07A" stop-opacity="0"/>
</radialGradient>
<radialGradient id="paint8_radial" cx="0" cy="0" r="1" gradientUnits="userSpaceOnUse" gradientTransform="translate(22.0578 43.1777) scale(22.6728 18.4058)">
<stop offset="0.00134333" stop-color="white"/>
<stop offset="1" stop-color="white" stop-opacity="0"/>
</radialGradient>
<radialGradient id="paint9_radial" cx="0" cy="0" r="1" gradientUnits="userSpaceOnUse" gradientTransform="translate(12.116 47.3598) scale(27.8519 32.428)">
<stop offset="0.00134333" stop-color="#FFED1C" stop-opacity="0.6"/>
<stop offset="0.9477" stop-color="#FFED1C" stop-opacity="0.0264782"/>
<stop offset="0.9914" stop-color="#FFED1C" stop-opacity="0"/>
</radialGradient>
<radialGradient id="paint10_radial" cx="0" cy="0" r="1" gradientUnits="userSpaceOnUse" gradientTransform="translate(22.0591 43.1753) rotate(92.8876) scale(8.80255 7.14552)">
<stop offset="0.00134333" stop-color="white"/>
<stop offset="1" stop-color="white" stop-opacity="0"/>
</radialGradient>
<radialGradient id="paint11_radial" cx="0" cy="0" r="1" gradientUnits="userSpaceOnUse" gradientTransform="translate(26.9249 5.03275) scale(9.99161)">
<stop offset="0.00134333" stop-color="#FFED1C"/>
<stop offset="0.1997" stop-color="#FFEE2B" stop-opacity="0.8013"/>
<stop offset="0.5839" stop-color="#FFF254" stop-opacity="0.4167"/>
<stop offset="1" stop-color="#FFF686" stop-opacity="0"/>
</radialGradient>
<radialGradient id="paint12_radial" cx="0" cy="0" r="1" gradientUnits="userSpaceOnUse" gradientTransform="translate(10.4493 9.83962) rotate(-56.4116) scale(8.09341 1.83804)">
<stop offset="0.00134333" stop-color="#FFED1C" stop-opacity="0.6"/>
<stop offset="0.9477" stop-color="#FFED1C" stop-opacity="0.0264782"/>
<stop offset="0.9914" stop-color="#FFED1C" stop-opacity="0"/>
</radialGradient>
<radialGradient id="paint13_radial" cx="0" cy="0" r="1" gradientUnits="userSpaceOnUse" gradientTransform="translate(12.0521 3.49307) rotate(95.0573) scale(7.27234 2.92617)">
<stop offset="0.00134333" stop-color="#FFED1C"/>
<stop offset="0.1997" stop-color="#FFEE2B" stop-opacity="0.8013"/>
<stop offset="0.5839" stop-color="#FFF254" stop-opacity="0.4167"/>
<stop offset="1" stop-color="#FFF686" stop-opacity="0"/>
</radialGradient>
<radialGradient id="paint14_radial" cx="0" cy="0" r="1" gradientUnits="userSpaceOnUse" gradientTransform="translate(24.7047 3.75025) scale(31.1768)">
<stop offset="0.00134333" stop-color="#FF4C00"/>
<stop offset="0.135" stop-color="#FF5B0C" stop-opacity="0.8661"/>
<stop offset="0.3941" stop-color="#FF842C" stop-opacity="0.6067"/>
<stop offset="0.7491" stop-color="#FFC45F" stop-opacity="0.2512"/>
<stop offset="1" stop-color="#FFF686" stop-opacity="0"/>
</radialGradient>
<radialGradient id="paint15_radial" cx="0" cy="0" r="1" gradientUnits="userSpaceOnUse" gradientTransform="translate(38.8848 29.0083) scale(16.5481)">
<stop offset="0.00134333" stop-color="#FFED1C"/>
<stop offset="0.1997" stop-color="#FFEE2B" stop-opacity="0.8013"/>
<stop offset="0.5839" stop-color="#FFF254" stop-opacity="0.4167"/>
<stop offset="1" stop-color="#FFF686" stop-opacity="0"/>
</radialGradient>
<radialGradient id="paint16_radial" cx="0" cy="0" r="1" gradientUnits="userSpaceOnUse" gradientTransform="translate(5.01027 34.9062) scale(17.6382)">
<stop offset="0.00134333" stop-color="#FFED1C"/>
<stop offset="0.1997" stop-color="#FFEE2B" stop-opacity="0.8013"/>
<stop offset="0.5839" stop-color="#FFF254" stop-opacity="0.4167"/>
<stop offset="1" stop-color="#FFF686" stop-opacity="0"/>
</radialGradient>
<radialGradient id="paint17_radial" cx="0" cy="0" r="1" gradientUnits="userSpaceOnUse" gradientTransform="translate(21.7945 31.3412) rotate(86.1102) scale(30.2129 18.3664)">
<stop stop-color="#FF4C00" stop-opacity="0"/>
<stop offset="0.9874" stop-color="#FF4C00" stop-opacity="0.9888"/>
<stop offset="0.9987" stop-color="#FF4C00"/>
</radialGradient>
</defs>
</svg>
