<svg width="41" height="42" viewBox="0 0 41 42" fill="none" xmlns="http://www.w3.org/2000/svg">
<path d="M20.4773 40.4C31.6335 40.4 40.6773 31.3562 40.6773 20.2C40.6773 9.04385 31.6335 0 20.4773 0C9.32119 0 0.277344 9.04385 0.277344 20.2C0.277344 31.3562 9.32119 40.4 20.4773 40.4Z" fill="url(#paint0_radial)"/>
<path opacity="0.5" d="M20.4773 40.4C31.6335 40.4 40.6773 31.3562 40.6773 20.2C40.6773 9.04385 31.6335 0 20.4773 0C9.32119 0 0.277344 9.04385 0.277344 20.2C0.277344 31.3562 9.32119 40.4 20.4773 40.4Z" fill="url(#paint1_radial)"/>
<path d="M20.4773 40.4C31.6335 40.4 40.6773 31.3562 40.6773 20.2C40.6773 9.04385 31.6335 0 20.4773 0C9.32119 0 0.277344 9.04385 0.277344 20.2C0.277344 31.3562 9.32119 40.4 20.4773 40.4Z" fill="url(#paint2_radial)"/>
<path d="M16.0362 7.96769C16.0362 7.15969 15.1624 6.65234 13.6591 6.65234C12.3814 6.65234 9.57217 7.35699 7.63673 9.84676C7.27971 10.3071 7.82464 10.5608 8.18166 10.2602C9.37487 9.24546 12.5599 7.9489 15.0497 8.22137C16.0456 8.33411 16.0362 7.96769 16.0362 7.96769Z" fill="url(#paint3_linear)"/>
<path d="M24.9233 7.96769C24.9233 7.15969 25.7971 6.65234 27.3004 6.65234C28.5781 6.65234 31.3873 7.35699 33.3228 9.84676C33.6798 10.3071 33.1349 10.5608 32.7779 10.2602C31.5846 9.24546 28.3996 7.9489 25.9099 8.22137C24.9139 8.33411 24.9233 7.96769 24.9233 7.96769Z" fill="url(#paint4_linear)"/>
<path d="M20.4814 33.4382C9.87404 33.4382 6.47292 22.6241 9.70492 24.3153C14.0456 26.5889 16.789 27.2466 20.4814 27.2466C24.1644 27.2466 26.9172 26.5889 31.2579 24.3153C34.4899 22.6335 31.0887 33.4382 20.4814 33.4382Z" fill="#643800"/>
<path d="M26.8624 29.013C26.8624 28.3647 26.2423 27.8855 25.6128 28.0734C24.1096 28.5244 22.3996 28.7875 20.483 28.7875C18.5663 28.7875 16.8564 28.515 15.3531 28.0734C14.733 27.8855 14.1035 28.3647 14.1035 29.013V34.7535C14.1035 38.2768 16.9597 41.2739 20.483 41.2739C24.0062 41.2739 26.8624 38.2768 26.8624 34.7535V33.2973V29.013Z" fill="url(#paint5_radial)"/>
<path d="M26.8624 29.013C26.8624 28.3647 26.2423 27.8855 25.6128 28.0734C24.1096 28.5244 22.3996 28.7875 20.483 28.7875C18.5663 28.7875 16.8564 28.515 15.3531 28.0734C14.733 27.8855 14.1035 28.3647 14.1035 29.013V34.7535C14.1035 38.2768 16.9597 41.2739 20.483 41.2739C24.0062 41.2739 26.8624 38.2768 26.8624 34.7535V33.2973V29.013Z" fill="url(#paint6_radial)"/>
<path d="M31.2585 24.3243C26.9178 26.598 24.1744 27.2557 20.482 27.2557C16.799 27.2557 14.0462 26.598 9.70556 24.3243C8.57812 23.7324 8.25867 24.6626 8.76602 26.1188C8.76602 26.0906 8.93514 24.531 10.4572 25.6021C10.4572 25.6021 10.4666 25.6021 10.4666 25.6115C12.7309 27.3496 16.0568 28.7871 20.482 28.7871C24.9072 28.7871 28.2332 27.3496 30.4975 25.6115C30.4975 25.6115 30.5069 25.6115 30.5069 25.6021C32.0289 24.5216 32.198 26.0813 32.198 26.1188C32.7054 24.6626 32.3765 23.7324 31.2585 24.3243Z" fill="url(#paint7_linear)"/>
<path opacity="0.5" d="M20.4815 28.7963C18.5648 28.7963 16.8549 28.5238 15.3516 28.0822C14.7315 27.8943 14.1021 28.3735 14.1021 29.0218C14.1021 30.1492 14.1021 31.4364 14.1021 31.4364C14.1021 31.4364 14.1772 29.9049 20.4815 29.9049C26.7764 29.9049 26.8609 31.4364 26.8609 31.4364C26.8609 31.4364 26.8609 30.1492 26.8609 29.0218C26.8609 28.3735 26.2408 27.8943 25.6114 28.0822C24.1081 28.5238 22.3981 28.7963 20.4815 28.7963Z" fill="#366E0D"/>
<path opacity="0.24" d="M20.4812 28.7967C20.2557 28.7967 20.0396 28.778 19.8235 28.7686C19.8329 36.4633 20.1241 39.1504 20.4812 39.1504C20.8382 39.1504 21.1294 36.5009 21.1388 28.7686C20.9228 28.7686 20.7067 28.7967 20.4812 28.7967Z" fill="url(#paint8_linear)"/>
<path d="M13.4995 12.5615H9.91983V17.3156H8.29443V18.3866H9.91983V19.1758H8.29443V20.2469H9.91983V21.6186H11.1506V20.2469H11.16H12.7854V19.1758H11.1506V18.3866H13.4713C15.3222 18.3866 16.4402 17.1371 16.4402 15.4741C16.4402 13.7078 15.3222 12.5615 13.4995 12.5615ZM13.2552 17.3156H11.1506V13.6702H13.3116C14.5142 13.6702 15.1624 14.45 15.1624 15.4365C15.1624 16.4794 14.5142 17.3156 13.2552 17.3156Z" fill="url(#paint9_linear)"/>
<path d="M28.5224 12.5615H24.9428V17.3156H23.3174V18.3866H24.9428V19.1759H23.3174V20.2469H24.9428V21.6186H26.1736V20.2469H26.183H27.8084V19.1759H26.1736V18.3866H28.4942C30.3451 18.3866 31.4631 17.1371 31.4631 15.4741C31.4631 13.7078 30.3451 12.5615 28.5224 12.5615ZM28.2875 17.3156H26.183V13.6702H28.3439C29.5465 13.6702 30.1948 14.45 30.1948 15.4365C30.1948 16.4794 29.5465 17.3156 28.2875 17.3156Z" fill="url(#paint10_linear)"/>
<path d="M9.92117 19.5892V19.1758H8.28638V19.5892H9.92117Z" fill="url(#paint11_linear)"/>
<path d="M9.91177 17.3154H8.28638V17.7194H9.91177V17.3154Z" fill="url(#paint12_linear)"/>
<path d="M13.258 17.7199C14.517 17.7199 15.1652 16.8837 15.1652 15.8409C15.1652 15.7751 15.1559 15.7093 15.1465 15.6436C15.0619 16.5925 14.423 17.3159 13.2486 17.3159H11.144V17.7199H13.258Z" fill="url(#paint13_linear)"/>
<path d="M13.5017 12.5615H9.92212V12.9655H13.5017C15.2493 12.9655 16.3391 14.0272 16.4237 15.6714C16.4237 15.6056 16.4425 15.5398 16.4425 15.4741C16.4425 13.7078 15.3244 12.5615 13.5017 12.5615Z" fill="url(#paint14_linear)"/>
<path d="M12.7869 19.1758H11.1521V19.5798H12.7869V19.1758Z" fill="url(#paint15_linear)"/>
<path d="M24.9416 19.5892V19.1758H23.3162V19.5892H24.9416Z" fill="url(#paint16_linear)"/>
<path d="M24.9416 17.3154H23.3162V17.7194H24.9416V17.3154Z" fill="url(#paint17_linear)"/>
<path d="M28.2851 17.7199C29.5441 17.7199 30.1923 16.8837 30.1923 15.8409C30.1923 15.7751 30.183 15.7093 30.1736 15.6436C30.089 16.5925 29.4501 17.3159 28.2757 17.3159H26.1711V17.7199H28.2851Z" fill="url(#paint18_linear)"/>
<path d="M28.5205 12.5615H24.9409V12.9655H28.5205C30.2681 12.9655 31.3579 14.0272 31.4425 15.6714C31.4425 15.6056 31.4613 15.5398 31.4613 15.4741C31.4613 13.7078 30.3432 12.5615 28.5205 12.5615Z" fill="url(#paint19_linear)"/>
<path d="M27.8059 19.1758H26.1711V19.5798H27.8059V19.1758Z" fill="url(#paint20_linear)"/>
<path d="M21.5148 30.7227H18.3955V34.866H16.9768V35.8055H18.3955V36.4914H16.9768V37.4309H18.3955V38.6241H19.4666V37.4309H19.476H20.8947V36.4914H19.4666V35.8055H21.4866C23.1026 35.8055 24.0703 34.7251 24.0703 33.2688C24.0797 31.728 23.1026 30.7227 21.5148 30.7227ZM21.2987 34.866H19.4666V31.6904H21.355C22.4073 31.6904 22.971 32.3668 22.971 33.2312C22.971 34.1426 22.3979 34.866 21.2987 34.866Z" fill="url(#paint21_linear)"/>
<path d="M18.3945 36.8482V36.4912H16.9758V36.8482H18.3945Z" fill="url(#paint22_linear)"/>
<path d="M18.3945 34.8662H16.9758V35.2232H18.3945V34.8662Z" fill="url(#paint23_linear)"/>
<path d="M21.2968 35.2228C22.3961 35.2228 22.9598 34.4994 22.9598 33.5881C22.9598 33.5317 22.9504 33.4753 22.941 33.4189C22.8658 34.2457 22.3115 34.8752 21.2874 34.8752H19.4553V35.2322H21.2968V35.2228Z" fill="url(#paint24_linear)"/>
<path d="M21.5143 30.7227H18.395V31.0797H21.5143C23.0363 31.0797 23.9852 32.0004 24.0604 33.4379C24.0604 33.3815 24.0792 33.3252 24.0792 33.2688C24.0792 31.728 23.1021 30.7227 21.5143 30.7227Z" fill="url(#paint25_linear)"/>
<path d="M20.8944 36.4912H19.4663V36.8482H20.8944V36.4912Z" fill="url(#paint26_linear)"/>
<defs>
<radialGradient id="paint0_radial" cx="0" cy="0" r="1" gradientUnits="userSpaceOnUse" gradientTransform="translate(16.503 12.0136) scale(24.3687)">
<stop stop-color="#FFDF30"/>
<stop offset="1" stop-color="#FFB82E"/>
</radialGradient>
<radialGradient id="paint1_radial" cx="0" cy="0" r="1" gradientUnits="userSpaceOnUse" gradientTransform="translate(16.503 12.0136) scale(19.1719)">
<stop stop-color="#FFE95F"/>
<stop offset="1" stop-color="#FFBB47" stop-opacity="0"/>
</radialGradient>
<radialGradient id="paint2_radial" cx="0" cy="0" r="1" gradientUnits="userSpaceOnUse" gradientTransform="translate(20.5405 36.5744) scale(10.4733 3.77771)">
<stop stop-color="#7A4400" stop-opacity="0.5"/>
<stop offset="0.6008" stop-color="#894D00" stop-opacity="0.1981"/>
<stop offset="0.995" stop-color="#965500" stop-opacity="0"/>
</radialGradient>
<linearGradient id="paint3_linear" x1="11.7766" y1="9.32072" x2="11.7766" y2="7.19221" gradientUnits="userSpaceOnUse">
<stop offset="0.00132565" stop-color="#3C2200"/>
<stop offset="1" stop-color="#7A4400"/>
</linearGradient>
<linearGradient id="paint4_linear" x1="29.1829" y1="9.32072" x2="29.1829" y2="7.19221" gradientUnits="userSpaceOnUse">
<stop offset="0.00132565" stop-color="#3C2200"/>
<stop offset="1" stop-color="#7A4400"/>
</linearGradient>
<radialGradient id="paint5_radial" cx="0" cy="0" r="1" gradientUnits="userSpaceOnUse" gradientTransform="translate(20.4827 32.8123) scale(6.49953 12.1021)">
<stop stop-color="#7CEB00"/>
<stop offset="1" stop-color="#2F9200"/>
</radialGradient>
<radialGradient id="paint6_radial" cx="0" cy="0" r="1" gradientUnits="userSpaceOnUse" gradientTransform="translate(22.4029 36.7356) rotate(-39.9023) scale(6.69448 4.05973)">
<stop stop-color="white" stop-opacity="0.33"/>
<stop offset="1" stop-color="white" stop-opacity="0"/>
</radialGradient>
<linearGradient id="paint7_linear" x1="20.4818" y1="20.3332" x2="20.4818" y2="28.5631" gradientUnits="userSpaceOnUse">
<stop offset="0.00132565" stop-color="#3C2200"/>
<stop offset="1" stop-color="#512D00"/>
</linearGradient>
<linearGradient id="paint8_linear" x1="20.4806" y1="54.3237" x2="20.4806" y2="25.2355" gradientUnits="userSpaceOnUse">
<stop stop-color="#7CEB00"/>
<stop offset="1" stop-color="#2F9200"/>
</linearGradient>
<linearGradient id="paint9_linear" x1="12.3636" y1="-29.2946" x2="12.3636" y2="56.523" gradientUnits="userSpaceOnUse">
<stop offset="0.00132565" stop-color="#3C2200"/>
<stop offset="1" stop-color="#7A4400"/>
</linearGradient>
<linearGradient id="paint10_linear" x1="27.3924" y1="-29.2946" x2="27.3924" y2="56.523" gradientUnits="userSpaceOnUse">
<stop offset="0.00132565" stop-color="#3C2200"/>
<stop offset="1" stop-color="#7A4400"/>
</linearGradient>
<linearGradient id="paint11_linear" x1="9.10443" y1="17.3061" x2="9.10443" y2="21.1471" gradientUnits="userSpaceOnUse">
<stop offset="0.00132565" stop-color="#3C2200"/>
<stop offset="1" stop-color="#512D00"/>
</linearGradient>
<linearGradient id="paint12_linear" x1="9.10443" y1="15.4397" x2="9.10443" y2="19.2807" gradientUnits="userSpaceOnUse">
<stop offset="0.00132565" stop-color="#3C2200"/>
<stop offset="1" stop-color="#512D00"/>
</linearGradient>
<linearGradient id="paint13_linear" x1="13.1596" y1="6.04436" x2="13.1596" y2="25.7192" gradientUnits="userSpaceOnUse">
<stop offset="0.00132565" stop-color="#3C2200"/>
<stop offset="1" stop-color="#512D00"/>
</linearGradient>
<linearGradient id="paint14_linear" x1="13.1802" y1="-1.8052" x2="13.1802" y2="27.6488" gradientUnits="userSpaceOnUse">
<stop offset="0.00132565" stop-color="#3C2200"/>
<stop offset="1" stop-color="#512D00"/>
</linearGradient>
<linearGradient id="paint15_linear" x1="11.9671" y1="17.3073" x2="11.9671" y2="21.1462" gradientUnits="userSpaceOnUse">
<stop offset="0.00132565" stop-color="#3C2200"/>
<stop offset="1" stop-color="#512D00"/>
</linearGradient>
<linearGradient id="paint16_linear" x1="24.1306" y1="17.3061" x2="24.1306" y2="21.1471" gradientUnits="userSpaceOnUse">
<stop offset="0.00132565" stop-color="#3C2200"/>
<stop offset="1" stop-color="#512D00"/>
</linearGradient>
<linearGradient id="paint17_linear" x1="24.1306" y1="15.4397" x2="24.1306" y2="19.2807" gradientUnits="userSpaceOnUse">
<stop offset="0.00132565" stop-color="#3C2200"/>
<stop offset="1" stop-color="#512D00"/>
</linearGradient>
<linearGradient id="paint18_linear" x1="28.1831" y1="6.04436" x2="28.1831" y2="25.7192" gradientUnits="userSpaceOnUse">
<stop offset="0.00132565" stop-color="#3C2200"/>
<stop offset="1" stop-color="#512D00"/>
</linearGradient>
<linearGradient id="paint19_linear" x1="28.2048" y1="-1.8052" x2="28.2048" y2="27.6488" gradientUnits="userSpaceOnUse">
<stop offset="0.00132565" stop-color="#3C2200"/>
<stop offset="1" stop-color="#512D00"/>
</linearGradient>
<linearGradient id="paint20_linear" x1="26.9919" y1="17.3073" x2="26.9919" y2="21.1462" gradientUnits="userSpaceOnUse">
<stop offset="0.00132565" stop-color="#3C2200"/>
<stop offset="1" stop-color="#512D00"/>
</linearGradient>
<linearGradient id="paint21_linear" x1="20.5262" y1="-5.72995" x2="20.5262" y2="69.0198" gradientUnits="userSpaceOnUse">
<stop offset="0.00132565" stop-color="#3C2200"/>
<stop offset="1" stop-color="#7A4400"/>
</linearGradient>
<linearGradient id="paint22_linear" x1="17.6852" y1="34.8605" x2="17.6852" y2="38.2062" gradientUnits="userSpaceOnUse">
<stop offset="0.00132565" stop-color="#3C2200"/>
<stop offset="1" stop-color="#512D00"/>
</linearGradient>
<linearGradient id="paint23_linear" x1="17.6852" y1="33.2353" x2="17.6852" y2="36.5809" gradientUnits="userSpaceOnUse">
<stop offset="0.00132565" stop-color="#3C2200"/>
<stop offset="1" stop-color="#512D00"/>
</linearGradient>
<linearGradient id="paint24_linear" x1="21.2152" y1="25.0509" x2="21.2152" y2="42.1882" gradientUnits="userSpaceOnUse">
<stop offset="0.00132565" stop-color="#3C2200"/>
<stop offset="1" stop-color="#512D00"/>
</linearGradient>
<linearGradient id="paint25_linear" x1="21.235" y1="18.2142" x2="21.235" y2="43.8695" gradientUnits="userSpaceOnUse">
<stop offset="0.00132565" stop-color="#3C2200"/>
<stop offset="1" stop-color="#512D00"/>
</linearGradient>
<linearGradient id="paint26_linear" x1="20.1792" y1="34.8616" x2="20.1792" y2="38.2055" gradientUnits="userSpaceOnUse">
<stop offset="0.00132565" stop-color="#3C2200"/>
<stop offset="1" stop-color="#512D00"/>
</linearGradient>
</defs>
</svg>
