<svg width="82" height="110" viewBox="0 0 82 110" fill="none" xmlns="http://www.w3.org/2000/svg">
<path d="M76.9366 59.6253C75.4668 50.8696 69.2939 49.4704 66.3936 49.3058C65.4807 49.2539 64.6325 48.791 64.1318 48.0259C62.0306 44.8184 59.2146 43.9702 56.8225 43.9702C55.1047 43.9702 53.606 44.4077 52.748 44.7236C52.6408 44.7634 52.53 44.7821 52.4216 44.7821C52.0823 44.7821 51.7579 44.5984 51.5781 44.2899C49.4438 40.6293 46.4098 39.6847 43.848 39.6847C42.3568 39.6843 41.0254 40.0045 40.1242 40.2947C40.0306 40.3247 39.9335 40.3391 39.8418 40.3391C39.352 40.3391 38.9203 39.937 38.9203 39.4121V20.5873C38.9203 16.2843 35.7132 14.1328 32.4857 14.1328C29.2583 14.1328 26.0511 16.2843 26.0511 20.5873V53.7008C26.0511 55.6468 24.4577 56.8499 22.8557 56.8499C21.8831 56.8499 20.8918 56.4061 20.2471 55.4155L17.125 50.6263C15.757 48.3691 13.7673 47.4331 11.7983 47.4331C7.34796 47.4328 2.98843 52.2135 6.08093 57.3167L30.4477 103.977C30.6072 104.282 30.9223 104.497 31.2663 104.497H65.4897C65.9779 104.497 66.3823 104.093 66.412 103.606L67.2684 89.6463C67.2781 89.4853 67.3315 89.3227 67.4204 89.1881C75.9157 76.3213 78.3475 68.0324 76.9366 59.6253Z" fill="white"/>
<path d="M81.5516 58.8508C79.622 47.3536 71.1845 45.1265 67.5203 44.7076C64.9184 41.206 61.1524 39.2901 56.8226 39.2901C55.784 39.2901 54.8087 39.4375 53.9325 39.5997C51.3637 36.6414 47.93 35.0807 43.9109 35.0807C43.8294 35.0807 43.6001 35.0807 43.6001 35.0807V20.5873C43.6001 14.2401 38.8334 9.45312 32.4858 9.45312C26.1382 9.45312 21.3715 14.2397 21.3715 20.5873V48.5247L21.097 48.13C18.9954 44.7123 15.6081 42.7538 11.8054 42.7535C7.70758 42.7531 3.75245 45.0668 1.73512 48.6468C-0.19136 52.0672 -0.0962057 56.0504 1.99484 59.6008L26.3 106.145C27.2695 108.001 29.1718 109.176 31.2656 109.176H65.489C68.4442 109.176 70.901 106.843 71.0824 103.893L71.8775 90.9286C80.3673 77.8637 83.1731 68.5101 81.5516 58.8508ZM67.268 89.6347L66.4116 103.606C66.382 104.093 65.9776 104.496 65.4893 104.496H31.266C30.922 104.496 30.6065 104.282 30.447 103.977L6.07943 57.328C2.98733 52.2248 7.34529 47.4382 11.7961 47.4386C13.7651 47.439 15.7528 48.3718 17.1204 50.6294L20.2379 55.4171C20.8825 56.4076 21.8828 56.8507 22.8554 56.8507C24.457 56.8507 26.0508 55.6468 26.0508 53.7008V20.5873C26.0508 16.2843 29.258 14.1328 32.4854 14.1328C35.7128 14.1328 38.92 16.2843 38.92 20.5873V39.4125C38.92 39.9375 39.3517 40.3395 39.8415 40.3395C39.9331 40.3395 40.0291 40.3251 40.1227 40.2951C41.0235 40.0049 42.3557 39.6847 43.8469 39.6851C46.4087 39.6851 49.4435 40.6297 51.5774 44.2903C51.7576 44.5988 52.082 44.7825 52.4213 44.7825C52.5297 44.7825 52.6405 44.7634 52.7477 44.724C53.6057 44.4081 55.1047 43.9706 56.8226 43.9706C59.2143 43.9706 62.0307 44.8192 64.1318 48.0263C64.633 48.7914 65.4812 49.2547 66.3937 49.3062C69.2943 49.4708 75.4669 50.87 76.9367 59.6257C78.3476 68.0328 75.9157 76.3155 67.4201 89.1827C67.3312 89.3168 67.2778 89.4736 67.268 89.6347Z" fill="black"/>
<path fill-rule="evenodd" clip-rule="evenodd" d="M21.0367 10.9218C18.1632 14.244 16.5039 18.9478 16.5039 24.3166C16.5039 25.6974 15.3846 26.8166 14.0039 26.8166C12.6232 26.8166 11.5039 25.6974 11.5039 24.3166C11.5039 17.9461 13.4743 12.0219 17.2551 7.65082C21.0684 3.2423 26.6041 0.560547 33.3621 0.560547C40.1202 0.560547 45.6559 3.2423 49.4691 7.65082C53.25 12.0219 55.2204 17.9461 55.2204 24.3166C55.2204 25.6974 54.1011 26.8166 52.7204 26.8166C51.3397 26.8166 50.2204 25.6974 50.2204 24.3166C50.2204 18.9478 48.5611 14.244 45.6875 10.9218C42.8464 7.63713 38.7029 5.56055 33.3621 5.56055C28.0213 5.56055 23.8779 7.63713 21.0367 10.9218Z" fill="#D9B8FF"/>
</svg>
