<svg width="48" height="48" viewBox="0 0 48 48" fill="none" xmlns="http://www.w3.org/2000/svg">
<path fill-rule="evenodd" clip-rule="evenodd" d="M24 0C10.748 0 0 10.744 0 24C0 37.254 10.748 48 24 48C37.254 48 48 37.254 48 24C48 10.744 37.254 0 24 0ZM34.84 14.116C34.106 13.44 31.14 11.288 24.536 11.258C24.536 11.258 16.748 10.788 12.952 14.272C10.84 16.386 10.096 19.476 10.018 23.312C9.94 27.148 9.838 34.332 16.764 36.282L16.77 36.284L16.766 39.256C16.766 39.256 16.724 40.46 17.516 40.706C18.474 41.004 19.036 40.088 19.952 39.102C20.454 38.562 21.148 37.766 21.672 37.158C26.408 37.554 30.052 36.646 30.466 36.51C31.422 36.2 36.836 35.506 37.716 28.322C38.624 20.914 37.276 16.228 34.84 14.116V14.116ZM35.642 27.786C34.898 33.786 30.51 34.166 29.7 34.424C29.356 34.536 26.154 35.332 22.13 35.068C22.13 35.068 19.132 38.686 18.196 39.626C18.05 39.774 17.878 39.834 17.762 39.806C17.602 39.766 17.558 39.576 17.56 39.296L17.584 34.356C11.726 32.728 12.068 26.61 12.134 23.408C12.2 20.206 12.802 17.582 14.588 15.816C17.8 12.908 24.414 13.342 24.414 13.342C30.002 13.368 32.678 15.05 33.298 15.614C35.36 17.378 36.41 21.6 35.642 27.786ZM25.098 28.148C25.098 28.148 25.622 28.194 25.904 27.844L26.456 27.15C26.72 26.806 27.364 26.586 27.992 26.936C28.824 27.406 29.9 28.144 30.636 28.832C31.042 29.174 31.136 29.678 30.86 30.21L30.856 30.222C30.572 30.724 30.192 31.194 29.71 31.634L29.7 31.642C29.158 32.094 28.536 32.356 27.87 32.14L27.858 32.122C26.662 31.784 23.794 30.32 21.966 28.862C18.974 26.502 16.848 22.61 16.26 20.524L16.242 20.512C16.026 19.844 16.29 19.22 16.74 18.682L16.748 18.672C17.186 18.19 17.658 17.81 18.16 17.524L18.17 17.522C18.702 17.246 19.206 17.34 19.55 17.746C20.002 18.212 20.85 19.334 21.444 20.39C21.794 21.018 21.576 21.66 21.232 21.926L20.538 22.476C20.188 22.76 20.234 23.284 20.234 23.284C20.234 23.284 21.26 27.168 25.098 28.148V28.148ZM31.136 24.928C31.342 24.926 31.508 24.758 31.508 24.552C31.488 22.094 30.736 20.122 29.272 18.692C27.81 17.268 25.968 16.538 23.802 16.522H23.798C23.594 16.522 23.426 16.688 23.424 16.892C23.424 17.098 23.59 17.268 23.796 17.268C25.764 17.282 27.43 17.942 28.75 19.228C30.066 20.512 30.744 22.306 30.76 24.558C30.762 24.762 30.928 24.928 31.134 24.928H31.136ZM29.172 24.16H29.164C28.956 24.156 28.794 23.986 28.798 23.778C28.828 22.502 28.462 21.468 27.684 20.62C26.908 19.772 25.844 19.308 24.43 19.204C24.224 19.19 24.068 19.01 24.084 18.806C24.1 18.6 24.278 18.446 24.484 18.46C26.076 18.576 27.338 19.134 28.234 20.114C29.136 21.1 29.578 22.338 29.544 23.796C29.54 24 29.374 24.16 29.172 24.16V24.16ZM27.256 23.518C27.058 23.518 26.892 23.364 26.882 23.164C26.82 21.896 26.222 21.276 25.004 21.21C24.798 21.198 24.64 21.022 24.65 20.816C24.662 20.61 24.838 20.452 25.044 20.464C26.652 20.55 27.546 21.472 27.628 23.126C27.638 23.332 27.48 23.508 27.274 23.518H27.256Z" fill="#7D3DAF"/>
</svg>
