<svg width="58" height="54" viewBox="0 0 58 54" fill="none" xmlns="http://www.w3.org/2000/svg">
<path d="M42.0009 0.900391C36.6026 0.900391 31.8341 3.61754 28.991 7.75625C26.1478 3.61754 21.3793 0.900391 15.981 0.900391C7.27174 0.900391 0.199951 7.97218 0.199951 16.6815C0.199951 35.9174 28.991 53.21 28.991 53.21C28.991 53.21 57.782 35.9174 57.782 16.6815C57.782 7.97218 50.7102 0.900391 42.0009 0.900391Z" fill="url(#paint0_radial)"/>
<path opacity="0.5" d="M48.5328 2.30371C57.1701 16.0694 49.2166 34.1358 39.6616 39.2642C29.1169 44.9324 21.9012 42.2692 6.96582 33.7939C15.4772 45.0763 28.9909 53.1918 28.9909 53.1918C28.9909 53.1918 57.782 35.8992 57.782 16.6632C57.782 10.2932 53.9851 4.78694 48.5328 2.30371Z" fill="url(#paint1_radial)"/>
<path opacity="0.5" d="M42.0009 0.900391C36.6026 0.900391 31.8341 3.61754 28.991 7.75625C26.1478 3.61754 21.3793 0.900391 15.981 0.900391C7.27174 0.900391 0.199951 7.97218 0.199951 16.6815C0.199951 35.9174 28.991 53.21 28.991 53.21C28.991 53.21 57.782 35.9174 57.782 16.6815C57.782 7.97218 50.7102 0.900391 42.0009 0.900391Z" fill="url(#paint2_radial)"/>
<path opacity="0.5" d="M42.0009 0.900391C36.6026 0.900391 31.8341 3.61754 28.991 7.75625C26.1478 3.61754 21.3793 0.900391 15.981 0.900391C7.27174 0.900391 0.199951 7.97218 0.199951 16.6815C0.199951 35.9174 28.991 53.21 28.991 53.21C28.991 53.21 57.782 35.9174 57.782 16.6815C57.782 7.97218 50.7102 0.900391 42.0009 0.900391Z" fill="url(#paint3_radial)"/>
<path opacity="0.24" d="M25.0519 7.30604C26.6354 11.0309 23.1265 16.0873 17.2064 18.5885C11.2862 21.0897 5.2221 20.118 3.63859 16.4112C2.05509 12.7044 5.56399 7.62994 11.4841 5.12872C17.4043 2.6275 23.4684 3.58121 25.0519 7.30604Z" fill="url(#paint4_radial)"/>
<path opacity="0.24" d="M44.3401 4.28292C46.5894 6.76614 45.2038 11.6786 41.2631 15.2415C37.3223 18.8044 32.3019 19.6861 30.0526 17.2029C27.8033 14.7197 29.1888 9.80719 33.1296 6.2443C37.0704 2.68142 42.0908 1.79969 44.3401 4.28292Z" fill="url(#paint5_radial)"/>
<path opacity="0.32" d="M42.2903 5.09308C50.2078 7.79224 57.7654 19.4886 44.9894 34.064C37.3418 42.7913 28.9924 47.1999 18.3757 45.4725C24.1159 50.259 29.0104 53.21 29.0104 53.21C29.0104 53.21 57.8014 35.9174 57.8014 16.6815C57.7834 7.97218 50.7116 0.900391 42.0023 0.900391C36.604 0.900391 31.8355 3.61754 28.9924 7.75625C28.9924 7.75625 36.4961 3.1137 42.2903 5.09308Z" fill="url(#paint6_linear)"/>
<defs>
<radialGradient id="paint0_radial" cx="0" cy="0" r="1" gradientUnits="userSpaceOnUse" gradientTransform="translate(20.7555 15.4908) rotate(-29.408) scale(45.051 35.737)">
<stop offset="0.2479" stop-color="#FF0000"/>
<stop offset="0.8639" stop-color="#C20000"/>
</radialGradient>
<radialGradient id="paint1_radial" cx="0" cy="0" r="1" gradientUnits="userSpaceOnUse" gradientTransform="translate(21.8698 12.727) rotate(-29.408) scale(38.7874 30.7684)">
<stop offset="0.2479" stop-color="#FF0000"/>
<stop offset="1" stop-color="#C20000"/>
</radialGradient>
<radialGradient id="paint2_radial" cx="0" cy="0" r="1" gradientUnits="userSpaceOnUse" gradientTransform="translate(20.7555 15.4908) rotate(-29.408) scale(45.051 35.737)">
<stop stop-color="white" stop-opacity="0.25"/>
<stop offset="1" stop-color="white" stop-opacity="0"/>
</radialGradient>
<radialGradient id="paint3_radial" cx="0" cy="0" r="1" gradientUnits="userSpaceOnUse" gradientTransform="translate(36.9505 30.7846) rotate(-26.296) scale(32.8855 16.2501)">
<stop stop-color="#BD2719" stop-opacity="0.25"/>
<stop offset="1" stop-color="#BD2719" stop-opacity="0"/>
</radialGradient>
<radialGradient id="paint4_radial" cx="0" cy="0" r="1" gradientUnits="userSpaceOnUse" gradientTransform="translate(14.3418 11.8586) rotate(-21.6908) scale(11.6908 7.26213)">
<stop stop-color="white"/>
<stop offset="1" stop-color="white" stop-opacity="0"/>
</radialGradient>
<radialGradient id="paint5_radial" cx="0" cy="0" r="1" gradientUnits="userSpaceOnUse" gradientTransform="translate(37.1798 10.7615) rotate(-40.7634) scale(9.67932 6.01304)">
<stop stop-color="white"/>
<stop offset="1" stop-color="white" stop-opacity="0"/>
</radialGradient>
<linearGradient id="paint6_linear" x1="34.9338" y1="73.7542" x2="40.5121" y2="-1.46223" gradientUnits="userSpaceOnUse">
<stop stop-color="#860805"/>
<stop offset="1" stop-color="#BD2719" stop-opacity="0"/>
</linearGradient>
</defs>
</svg>
