<svg width="124" height="28" viewBox="0 0 124 28" fill="none" xmlns="http://www.w3.org/2000/svg">
<path fill-rule="evenodd" clip-rule="evenodd" d="M27.9939 6.8451L18.7235 13.6889L19.3477 13.7314C20.6616 13.8206 21.521 14.3718 21.9193 15.3807C22.1164 15.8801 22.1159 16.7621 21.9181 17.2715C21.7597 17.6794 21.3333 18.1878 20.9829 18.3864C20.6792 18.5587 20.6713 18.7098 20.9589 18.8475C21.0787 18.9048 21.3082 19.071 21.4689 19.2168C22.4995 20.1517 22.5553 21.9521 21.5864 23.0126C21.284 23.3435 20.9347 23.5597 20.4158 23.7368C20.0518 23.861 19.8895 23.8684 17.044 23.8885C14.5368 23.9062 14.043 23.8956 13.983 23.8227C13.931 23.7596 13.907 22.8472 13.8955 20.4999L13.8795 17.2642L6.95645 22.3726C-0.366015 27.7757 -0.177092 27.6236 0.0959548 27.899C0.187893 27.9918 1.71313 28 18.8958 28H37.5957L37.6914 27.862C37.7744 27.7425 37.7873 27.3772 37.7873 25.129V22.5341L37.3411 22.8771C35.9833 23.921 34.3294 24.2898 32.618 23.9304C30.1053 23.4026 28.4949 21.4054 28.4949 18.8171C28.4949 17.5162 28.8677 16.3928 29.6042 15.4746C30.6866 14.125 32.7294 13.3444 34.5257 13.594C35.6619 13.7519 36.539 14.1852 37.3103 14.9695L37.7873 15.4545V7.85078C37.7873 0.329875 37.7859 0.245747 37.6642 0.122939C37.5965 0.0546428 37.4788 -0.000676701 37.4026 6.25635e-06C37.3172 0.000813387 33.7151 2.62144 27.9939 6.8451ZM109.91 13.5378C107.805 13.7961 106.142 15.2797 105.67 17.321C105.345 18.7297 105.477 20.0673 106.061 21.2636C106.691 22.5565 107.79 23.4594 109.21 23.8506C109.601 23.9583 109.868 23.9844 110.587 23.9855C111.39 23.9866 111.529 23.9703 111.972 23.8219C112.243 23.7313 112.643 23.5516 112.862 23.4227C113.31 23.1582 113.973 22.5291 114.274 22.0832C114.525 21.7097 114.514 21.6936 113.705 21.284L113.093 20.9742L112.735 21.3749C112.102 22.0823 111.412 22.4122 110.564 22.4122C109.139 22.4122 107.955 21.5201 107.474 20.0839C107.139 19.0846 107.217 17.8595 107.675 16.9087C107.88 16.4845 108.442 15.856 108.856 15.5876C109.531 15.151 110.547 14.9751 111.233 15.1762C111.931 15.3809 112.529 15.7891 112.869 16.2917C112.951 16.4134 113.049 16.5132 113.086 16.5135C113.123 16.5137 113.435 16.3584 113.778 16.1685C114.217 15.9258 114.403 15.7892 114.403 15.7096C114.403 15.6473 114.283 15.4325 114.136 15.2324C113.192 13.9431 111.649 13.3244 109.91 13.5378ZM43.5913 13.5921C40.9116 14.0229 39.1797 16.2911 39.3455 19.1526C39.4568 21.075 40.415 22.6497 41.9664 23.4598C42.5842 23.7824 43.1229 23.9427 43.8587 24.023C45.2522 24.1749 46.4489 23.8036 47.3858 22.9284C47.8687 22.4774 48.2492 21.9856 48.2481 21.814C48.2475 21.73 48.074 21.6085 47.6173 21.3718C47.2708 21.1923 46.9578 21.0456 46.9218 21.0458C46.8858 21.0461 46.7612 21.1747 46.6449 21.3317C45.6041 22.7366 43.488 22.838 42.1796 21.5457C41.4712 20.846 41.1651 20.0977 41.1237 18.9643C41.0917 18.0886 41.1749 17.6658 41.5206 16.9485C42.4708 14.977 45.0981 14.5249 46.4951 16.0926C46.6473 16.2634 46.7719 16.4251 46.7719 16.4519C46.7719 16.6058 47.0287 16.5333 47.6025 16.2173C48.0143 15.9904 48.2478 15.8252 48.2481 15.7602C48.2492 15.6027 47.7569 14.9653 47.352 14.6001C46.9558 14.2426 46.2013 13.8332 45.6642 13.6844C45.2642 13.5735 44.0447 13.5191 43.5913 13.5921ZM53.3444 13.6007C51.2909 13.9046 49.6953 15.5318 49.3193 17.7055C49.1907 18.4487 49.2335 19.6917 49.4104 20.3547C49.8882 22.1451 51.1769 23.459 52.895 23.9073C53.5404 24.0757 54.72 24.088 55.3873 23.9332C57.1564 23.5228 58.5011 22.1805 58.9943 20.3323C59.1558 19.7275 59.1598 18.094 59.0014 17.5073C58.8583 16.9775 58.4644 16.1511 58.1305 15.6802C57.0372 14.1381 55.1764 13.3297 53.3444 13.6007ZM26.4491 18.7762C26.4616 22.7553 26.4488 23.8117 26.3876 23.8508C26.2977 23.9084 24.6136 23.9205 24.4692 23.8646C24.3815 23.8306 24.3719 23.3279 24.3719 18.8148C24.3719 16.0582 24.391 13.7835 24.4144 13.7599C24.4377 13.7363 24.9016 13.7247 25.4451 13.734L26.4334 13.751L26.4491 18.7762ZM60.9407 18.7956L60.9565 23.8712H61.818H62.6796L62.6971 19.9908L62.7147 16.1103L64.2238 19.9267C65.0538 22.0257 65.7624 23.7788 65.7984 23.8227C65.8368 23.8692 66.0004 23.9023 66.1932 23.9023C66.4912 23.9023 66.5305 23.886 66.6063 23.7315C66.6523 23.6376 67.3384 21.9048 68.1309 19.8808L69.5719 16.2008L69.5878 19.9682C69.5992 22.6715 69.6234 23.7595 69.6736 23.8206C69.7278 23.8865 69.9258 23.9018 70.5501 23.8885L71.3565 23.8712L71.3723 18.7956L71.388 13.72H70.1605C69.2457 13.72 68.9204 13.7397 68.8838 13.7976C68.8568 13.8403 68.2359 15.4348 67.504 17.341L66.1734 20.8069L66.0667 20.5385C66.008 20.3909 65.4058 18.8313 64.7286 17.0727C64.0514 15.3141 63.4691 13.8403 63.4347 13.7976C63.3885 13.7402 63.0531 13.72 62.1486 13.72H60.925L60.9407 18.7956ZM73.9869 18.7956L74.0027 23.8712H74.8642H75.7257L75.7565 20.008L75.7873 16.1448L77.2588 19.8839C78.0681 21.9403 78.768 23.6857 78.8141 23.7626C78.8841 23.8795 78.9515 23.9023 79.2273 23.9023C79.4188 23.9023 79.5813 23.8697 79.6152 23.8246C79.6472 23.782 80.3134 22.1126 81.0955 20.115C81.8776 18.1173 82.554 16.399 82.5985 16.2966C82.6671 16.1391 82.6843 16.7095 82.7104 19.9908L82.7411 23.8712H83.5719H84.4027L84.4184 18.7956L84.4342 13.72H83.2052C82.0974 13.72 81.9706 13.7307 81.9193 13.8286C81.8881 13.8884 81.2744 15.4739 80.5557 17.3521C79.8368 19.2302 79.2426 20.7743 79.2351 20.7833C79.2276 20.7923 78.8256 19.7725 78.3419 18.5171C77.8581 17.2617 77.2425 15.6687 76.974 14.9773L76.4858 13.72H75.2284H73.9712L73.9869 18.7956ZM87.0556 13.8177C87.035 13.872 87.0181 16.1297 87.0181 18.8348C87.0181 22.5775 87.0357 23.7711 87.0919 23.8278C87.1984 23.9352 93.7915 23.9352 93.8981 23.8278C93.9994 23.7256 93.9994 22.4647 93.8981 22.3625C93.8431 22.307 93.1925 22.288 91.3508 22.288C89.1522 22.288 88.8733 22.2771 88.84 22.1898C88.8195 22.1358 88.8027 21.5513 88.8027 20.891C88.8027 20.2307 88.8195 19.6463 88.84 19.5923C88.8732 19.5051 89.1467 19.4941 91.2893 19.4941C93.0831 19.4941 93.72 19.475 93.775 19.4196C93.8236 19.3705 93.8488 19.1078 93.8488 18.6501C93.8488 18.0737 93.8322 17.9487 93.7515 17.9175C93.6979 17.8968 92.5794 17.8798 91.2658 17.8798C89.1447 17.8798 88.8732 17.8688 88.84 17.7816C88.7662 17.5874 88.7986 15.4253 88.8765 15.3467C88.9315 15.2912 89.5833 15.2722 91.4292 15.2722H93.908L93.9426 15.1325C93.9616 15.0556 93.969 14.7134 93.9591 14.3719L93.9411 13.751L90.5171 13.735C87.4348 13.7205 87.0894 13.7288 87.0556 13.8177ZM96.51 18.7956L96.5258 23.8712L97.2335 23.8892C97.6227 23.8992 98.0035 23.8916 98.0796 23.8725L98.2181 23.8378V22.0429C98.2181 20.4939 98.2313 20.2347 98.3148 20.1504C98.4637 20.0002 99.8165 20.0092 99.989 20.1615C100.057 20.2212 100.576 21.0664 101.143 22.0396C101.71 23.0129 102.205 23.8297 102.242 23.8548C102.324 23.9096 103.89 23.9182 104.028 23.8646C104.082 23.8438 104.126 23.7796 104.126 23.7217C104.126 23.6638 103.626 22.8102 103.015 21.8247C102.405 20.8392 101.918 19.9984 101.934 19.9562C101.95 19.914 102.102 19.8331 102.271 19.7763C103.474 19.3731 104.187 18.2977 104.187 16.8864C104.187 15.6164 103.618 14.6174 102.598 14.0979C101.901 13.743 101.699 13.7219 98.9715 13.7209L96.4943 13.72L96.51 18.7956ZM116.167 13.7614C116.144 13.7841 116.126 16.0416 116.126 18.778C116.126 22.5648 116.143 23.7711 116.2 23.8278C116.306 23.9352 122.899 23.9352 123.006 23.8278C123.114 23.7184 123.107 22.4501 122.997 22.3584C122.941 22.311 122.139 22.2843 120.428 22.2732L117.941 22.257V20.891V19.5251L120.367 19.5089C122.032 19.4977 122.818 19.471 122.874 19.4237C122.934 19.3739 122.957 19.1689 122.957 18.687C122.957 18.205 122.934 18 122.874 17.9502C122.818 17.9029 122.032 17.8762 120.367 17.865L117.941 17.8488L117.924 16.6461C117.913 15.8115 117.929 15.4172 117.978 15.3578C118.036 15.2876 118.496 15.2722 120.527 15.2722C122.73 15.2722 123.009 15.2612 123.042 15.1739C123.091 15.0463 123.091 13.9459 123.042 13.8182C123.009 13.7303 122.649 13.72 119.606 13.72C117.737 13.72 116.189 13.7386 116.167 13.7614ZM54.9548 15.215C56.4894 15.5718 57.5006 17.1482 57.4009 19.0284C57.2924 21.0735 55.9897 22.4689 54.1848 22.4733C52.7116 22.477 51.5108 21.4623 51.1 19.8666C50.9592 19.3196 50.9618 18.2327 51.1052 17.6936C51.5275 16.1065 52.6689 15.1559 54.1565 15.1523C54.4442 15.1516 54.8034 15.1798 54.9548 15.215ZM101.464 15.4504C101.878 15.6393 102.185 15.9846 102.307 16.3973C102.427 16.8068 102.427 16.9667 102.304 17.3873C102.173 17.8385 101.744 18.2672 101.288 18.404C100.874 18.528 98.4109 18.5463 98.2919 18.4262C98.1844 18.3177 98.1873 15.4525 98.295 15.3429C98.3535 15.2835 98.7037 15.2693 99.7565 15.284C101.059 15.3021 101.16 15.3119 101.464 15.4504ZM33.2026 15.5229C32.0235 15.7668 31.1126 16.6398 30.7997 17.8259C30.7496 18.0159 30.7115 18.4481 30.7111 18.8312C30.7102 19.6044 30.8682 20.1962 31.2249 20.7562C31.8527 21.7417 33.1201 22.3004 34.306 22.1144C34.8686 22.0261 35.473 21.7881 35.7776 21.5348L36.0071 21.344L35.9895 20.776L35.9719 20.2081L34.7206 20.177C33.5603 20.1482 33.4628 20.137 33.3783 20.0218C33.2481 19.8444 33.2817 18.3997 33.418 18.313C33.4714 18.279 34.4119 18.2538 35.6488 18.2533L37.7873 18.2523V17.1037C37.7873 16.472 37.7788 15.9551 37.7684 15.9551C37.7581 15.9551 37.4465 16.1226 37.0761 16.3273C36.7057 16.5319 36.3645 16.6995 36.3178 16.6998C36.2711 16.7 36.046 16.5222 35.8173 16.3045C35.0719 15.595 34.1649 15.3239 33.2026 15.5229ZM16.0781 16.6846L16.0949 17.7246L17.572 17.7412C19.0017 17.7573 19.0581 17.7533 19.3254 17.617C19.7114 17.4203 19.8795 17.1438 19.8795 16.7056C19.8795 16.2495 19.729 15.9687 19.3864 15.7859C19.1316 15.65 19.0648 15.6447 17.5915 15.6447H16.0612L16.0781 16.6846ZM16.0781 20.8134L16.0949 21.9465L17.5919 21.9632C18.4738 21.973 19.1849 21.9537 19.3224 21.9164C19.833 21.7776 20.085 21.4155 20.0864 20.8186C20.0875 20.3362 19.8939 20.0069 19.4949 19.812C19.2416 19.6883 19.1296 19.6803 17.6434 19.6803H16.0614L16.0781 20.8134Z" fill="white"/>
</svg>
