<svg width="156" height="28" viewBox="0 0 156 28" fill="none" xmlns="http://www.w3.org/2000/svg">
<g clip-path="url(#clip0)">
<path d="M106 20.32H120.08V17.2H110.8C112.08 12.08 119.92 10.96 119.92 5.28C119.92 2.24 117.84 0 113.44 0C110.72 0 108.32 0.8 106.72 1.6L107.68 4.48C109.12 3.76 110.8 3.12 112.88 3.12C114.48 3.12 116 3.84 116 5.68C116 9.84 106.8 10.16 106 20.32ZM120.48 15.36H129.52V20.32H133.12V15.36H136.16V12.32H133.12V0H130.48L120.48 12.96V15.36ZM124.56 12.48L129.68 5.6C129.68 6.16 129.52 7.92 129.52 9.52V12.4H127.12C126.4 12.4 125.04 12.48 124.56 12.48Z" fill="white"/>
<path d="M3.76 17.2798V10.9598H5.28C6.64 10.9598 7.76 11.1198 8.56 11.5998C9.36 12.0798 9.84 12.8798 9.84 14.1598C9.84 16.3198 8.56 17.2798 5.52 17.2798H3.76ZM0.08 20.3198H5.44C11.44 20.3198 13.6 17.6798 13.6 13.9998C13.6 11.5198 12.56 9.83983 10.72 8.87983C9.28 8.07983 7.44 7.83983 5.2 7.83983H3.76V3.03983H11.84L12.8 0.079834H0V20.3198H0.08ZM16.08 20.3198H19.6L24.16 13.7598C25.04 12.5598 25.68 11.3598 26.08 10.7198H26.16C26.08 11.5998 26 12.7198 26 13.8398V20.2398H29.6V5.83983H26.08L21.52 12.3998C20.72 13.5998 20 14.7998 19.6 15.4398H19.52C19.6 14.5598 19.68 13.4398 19.68 12.3198V5.91983H16.08V20.3198ZM35.76 20.3198H39.44V8.87983H43.76L44.72 5.83983H31.36V8.87983H35.76V20.3198ZM46 27.5998H49.6V20.3198C50.32 20.5598 51.04 20.6398 51.84 20.6398C56.4 20.6398 59.36 17.5198 59.36 13.0398C59.36 8.39983 56.64 5.43983 51.44 5.43983C49.44 5.43983 47.52 5.83983 45.92 6.31983V27.5998H46ZM49.6 17.1998V8.71983C50.16 8.55983 50.64 8.47983 51.28 8.47983C53.92 8.47983 55.6 9.91983 55.6 13.0398C55.6 15.8398 54.24 17.5998 51.52 17.5998C50.8 17.5998 50.24 17.4398 49.6 17.1998ZM61.52 20.3198H65.04L69.6 13.7598C70.48 12.5598 71.12 11.3598 71.52 10.7198H71.6C71.52 11.5998 71.44 12.7198 71.44 13.8398V20.2398H75.04V5.83983H71.52L66.96 12.3998C66.16 13.5998 65.44 14.7998 65.04 15.4398H64.96C65.04 14.5598 65.12 13.4398 65.12 12.3198V5.91983H61.52V20.3198ZM77.92 20.3198H81.6V14.3198H83.76C84.16 14.3198 84.56 14.7198 85.04 15.6798L86.88 20.3198H90.8L88.16 14.7998C87.68 13.8398 87.2 13.2798 86.48 13.0398V12.9598C87.68 12.2398 87.84 10.1598 88.56 9.11983C88.8 8.79983 89.12 8.63983 89.6 8.63983C89.84 8.63983 90.16 8.63983 90.4 8.79983V5.67983C90 5.51983 89.28 5.43983 88.88 5.43983C87.6 5.43983 86.8 5.91983 86.24 6.71983C85.04 8.47983 85.04 11.5198 83.28 11.5198H81.6V5.83983H77.92V20.3198ZM98.96 20.6398C100.96 20.6398 102.8 19.9998 103.92 19.1998L102.88 16.7198C101.84 17.2798 100.88 17.6798 99.52 17.6798C97.04 17.6798 95.44 16.0798 95.44 13.1198C95.44 10.4798 97.04 8.39983 99.76 8.39983C101.2 8.39983 102.24 8.79983 103.28 9.51983V6.39983C102.48 5.91983 101.2 5.43983 99.36 5.43983C95.04 5.43983 91.68 8.63983 91.68 13.1998C91.68 17.3598 94.24 20.6398 98.96 20.6398Z" fill="white"/>
<path d="M148.08 15.3599C152 15.3599 155.2 12.1599 155.2 8.23987C155.2 4.31987 152 1.11987 148.08 1.11987C144.16 1.11987 140.96 4.31987 140.96 8.23987C141.04 12.1599 144.16 15.3599 148.08 15.3599Z" stroke="white" stroke-width="1.7688"/>
<path d="M152.562 8.24031H148.642V4.32031H147.602V9.28031H152.562V8.24031Z" fill="white"/>
</g>
<defs>
<clipPath id="clip0">
<rect width="156" height="28" fill="white"/>
</clipPath>
</defs>
</svg>
