<svg width="99" height="28" viewBox="0 0 99 28" fill="none" xmlns="http://www.w3.org/2000/svg">
<path fill-rule="evenodd" clip-rule="evenodd" d="M9.95369 0.137221C8.18981 0.688241 6.24548 3.3609 5.6788 6.01336L5.5607 6.56645L4.07893 7.02557C2.4039 7.54458 2.1871 7.65648 2.1079 8.0426C2.01462 8.49818 -0.030775 24.4442 0.000351652 24.4739C0.0162105 24.4892 3.66394 25.1299 8.10638 25.8976C12.5488 26.6653 16.3055 27.3178 16.4544 27.3475L16.7253 27.4016V15.3286C16.7253 8.3453 16.6882 3.23265 16.6373 3.20123C16.5889 3.17128 16.3604 3.21344 16.1294 3.2949C15.8985 3.37646 15.7015 3.43152 15.6917 3.41744C15.6819 3.40325 15.5387 3.09809 15.3734 2.73935C14.8419 1.5856 14.0882 0.94543 13.1057 0.81324C12.8482 0.778568 12.5021 0.647855 12.3367 0.522659C11.644 -0.00147038 10.8229 -0.134251 9.95369 0.137221ZM11.4348 1.07161C11.4776 1.11141 11.3325 1.2632 11.1123 1.40898C10.3443 1.91725 9.49595 3.27313 9.04038 4.72072L8.77708 5.5571L7.72567 5.8926C7.14747 6.07709 6.64678 6.20061 6.61319 6.16703C6.5796 6.13344 6.67328 5.7612 6.82142 5.33981C7.59851 3.12922 9.02166 1.36515 10.311 1.01478C10.7503 0.895391 11.2738 0.921888 11.4348 1.07161ZM13.5731 1.9141C13.7301 1.99527 13.9666 2.20586 14.0987 2.38198C14.3665 2.73915 14.7553 3.47831 14.7553 3.6302C14.7553 3.72467 13.875 4.03199 13.6046 4.03199C13.5159 4.03199 13.4734 3.88355 13.4704 3.56411C13.4664 3.1173 13.3893 2.62647 13.2308 2.03733C13.1468 1.72517 13.1828 1.71227 13.5731 1.9141ZM12.3683 2.36494C12.4393 2.6046 12.5237 3.1567 12.5559 3.59169L12.6144 4.38276L11.2818 4.79834C10.5488 5.02696 9.9266 5.21402 9.89892 5.21402C9.71029 5.21402 10.559 3.35509 10.9922 2.81933C11.3666 2.35628 11.995 1.84781 12.135 1.8945C12.1923 1.91351 12.2973 2.12529 12.3683 2.36494ZM17.2178 15.3373C17.2178 21.9049 17.2511 27.2782 17.2917 27.2778C17.364 27.277 23.0156 25.8911 23.7436 25.6956C24.0194 25.6215 24.113 25.5448 24.113 25.3926C24.113 24.7687 21.1369 5.16319 21.0321 5.0966C20.9658 5.05444 20.4471 5.01938 19.8795 5.01849L18.8472 5.01701L18.0325 4.20654L17.2178 3.39606V15.3373ZM85.1161 5.59956C83.305 6.11768 82.0633 7.60496 81.5358 9.88774L81.3184 10.8286H80.5569H79.7954L79.584 11.9515C79.4678 12.5691 79.3726 13.1453 79.3726 13.232C79.3726 13.3627 79.5004 13.3897 80.1192 13.3897H80.8658L80.8084 13.6606C80.7769 13.8095 80.3969 15.8153 79.9641 18.1178C79.5312 20.4203 79.1535 22.4049 79.1246 22.5281L79.0722 22.752L80.7694 22.7251L82.4666 22.6981L82.6315 21.8609C82.7222 21.4004 83.1203 19.306 83.5161 17.2066L84.2358 13.3897H85.3871H86.5383L86.6947 12.5278C86.7807 12.0538 86.8807 11.4776 86.9168 11.2473L86.9825 10.8286H85.8326H84.6828L84.751 10.4593C84.9381 9.4436 85.3672 8.71803 85.9863 8.37002C86.3446 8.16859 86.475 8.14938 87.1143 8.20336L87.837 8.26453L87.9334 7.89662C88.2451 6.70514 88.4348 5.90156 88.4348 5.77213C88.4348 5.40551 86.2005 5.28927 85.1161 5.59956ZM40.3276 5.78041C40.2701 5.97288 37.1152 22.5676 37.1152 22.6777C37.1152 22.716 37.8679 22.7474 38.7879 22.7474C40.4421 22.7474 40.4612 22.7449 40.5106 22.5258C40.5382 22.4038 40.805 21.0155 41.1036 19.4406C41.8019 15.7577 41.9622 15.2308 42.6755 14.2782C43.2111 13.5626 44.1049 13.2053 44.7447 13.4509C45.0281 13.5596 45.1924 14.038 45.1924 14.7544C45.1924 15.2992 44.1742 21.1751 43.8453 22.5281L43.7908 22.7521L45.497 22.7251L47.2032 22.6981L47.929 18.9551C48.5889 15.5517 48.6563 15.0913 48.672 13.8822C48.6914 12.385 48.5706 11.9565 47.956 11.3418C47.376 10.7619 47.1279 10.6809 45.9312 10.6809C44.9245 10.6809 44.8022 10.7025 44.2074 10.9849C43.8553 11.1521 43.3097 11.5246 42.9951 11.8126C42.5166 12.2506 42.4322 12.2976 42.4789 12.0996C42.535 11.8614 43.7149 5.69333 43.7149 5.63777C43.7149 5.62142 42.9643 5.60803 42.047 5.60803C40.5438 5.60803 40.374 5.62507 40.3276 5.78041ZM76.7583 5.99021C75.9938 6.33743 75.5687 7.10733 75.6536 7.99089C75.7033 8.50793 75.9111 8.86431 76.357 9.19725C76.7365 9.48064 77.6951 9.47916 78.2399 9.19439C79.0986 8.74561 79.4717 7.52044 79.0168 6.64368C78.6304 5.8993 77.6091 5.60369 76.7583 5.99021ZM12.342 8.69912C12.6473 8.79289 12.7288 8.86322 12.7042 9.01177C12.6608 9.2727 11.9759 11.8537 11.9378 11.8997C11.9211 11.9198 11.6221 11.8592 11.2734 11.7648C10.0727 11.4397 8.71582 11.6992 8.39756 12.3145C8.20823 12.6807 8.21543 13.2391 8.41341 13.5412C8.50098 13.6749 9.01605 14.0814 9.55791 14.4444C10.8774 15.3285 11.4106 15.8257 11.778 16.5151C12.6329 18.1191 12.2816 20.4546 11.014 21.5943C10.7454 21.8359 10.3176 22.1312 10.0633 22.2507C8.72439 22.8801 6.76016 22.6961 5.28686 21.8033C4.45265 21.2978 4.46939 21.3538 4.76697 20.0749C4.91039 19.459 5.03903 18.9419 5.05302 18.9258C5.067 18.9097 5.36084 19.0511 5.70589 19.2399C6.51016 19.68 7.43155 19.9377 7.89234 19.8513C8.60559 19.7175 8.9734 18.8356 8.60697 18.1375C8.43706 17.8137 7.88712 17.2909 7.19987 16.7996C6.47548 16.2818 5.8368 15.5362 5.64964 14.9898C4.90231 12.8087 5.97165 10.2966 8.09318 9.24926C8.53388 9.03176 9.18252 8.79191 9.53466 8.71626C10.3261 8.54625 11.8143 8.53718 12.342 8.69912ZM32.7015 10.8249C31.3078 11.202 30.243 12.0105 29.7477 13.0676C29.5202 13.5532 29.4814 13.765 29.4814 14.5225C29.4813 15.2561 29.5216 15.4907 29.7147 15.883C30.0174 16.4976 30.7841 17.2464 31.6187 17.7423C32.5226 18.2792 32.9782 18.7939 32.9782 19.2781C32.9782 20.0159 32.4687 20.3833 31.4459 20.3833C30.7187 20.3833 29.7904 20.1741 29.215 19.8806L28.8382 19.6884L28.7303 19.9619C28.6709 20.1125 28.476 20.6645 28.2973 21.1887L27.9725 22.1418L28.5792 22.3974C30.3091 23.1261 32.5261 23.1095 34.1369 22.3556C34.865 22.015 35.2539 21.7111 35.7082 21.1279C36.4322 20.1985 36.6471 18.6466 36.188 17.6607C35.7825 16.7897 35.4394 16.4794 33.4391 15.1748C32.7652 14.7352 32.6017 14.1105 33.028 13.6039C33.4904 13.0545 34.5199 12.9768 35.8573 13.3903L36.4216 13.5647L36.775 12.4326C36.9694 11.81 37.1056 11.2412 37.0777 11.1685C36.9794 10.9123 36.0193 10.7108 34.7019 10.6699C33.6464 10.6371 33.2949 10.6643 32.7015 10.8249ZM54.5994 10.8181C51.6459 11.68 49.625 14.6422 49.625 18.1097C49.625 19.7735 49.9377 20.6861 50.8313 21.631C51.7423 22.5943 52.9207 23.0032 54.5497 22.9213C57.4134 22.7773 59.697 20.724 60.5262 17.5475C60.8741 16.2149 60.8924 14.5177 60.5689 13.5867C60.0445 12.0775 59.1713 11.2238 57.7089 10.7902C56.9832 10.5751 55.383 10.5895 54.5994 10.8181ZM68.1716 10.7746C67.5284 10.9755 66.9043 11.3817 66.3083 11.9873L65.7633 12.5412L65.8164 12.2021C65.8456 12.0155 65.8968 11.608 65.9301 11.2965L65.9905 10.7301H64.5029C63.397 10.7301 63.0061 10.7618 62.98 10.8533C62.9607 10.921 62.8502 11.6739 62.7343 12.5264C62.5723 13.7181 60.2826 26.1237 60.0156 27.2562L59.9628 27.4801L61.6644 27.4532L63.3661 27.4262L63.8153 25.0129C64.1639 23.1407 64.2964 22.6044 64.4063 22.6205C64.4843 22.632 64.7905 22.7096 65.0867 22.7929C65.7731 22.986 66.8529 22.9867 67.6056 22.7945C70.5683 22.0381 72.7709 18.6993 72.7702 14.9657C72.7699 12.8408 71.993 11.3376 70.6318 10.8283C70.0148 10.5976 68.8215 10.5714 68.1716 10.7746ZM75.0918 10.9518C75.0435 11.1041 72.8714 22.5713 72.8714 22.6735C72.8715 22.7141 73.6242 22.7474 74.5442 22.7474C76.198 22.7474 76.2174 22.7449 76.2676 22.5258C76.356 22.1396 78.4861 10.9798 78.4861 10.9025C78.4861 10.8619 77.7312 10.8286 76.8085 10.8286C75.5529 10.8286 75.1211 10.8596 75.0918 10.9518ZM87.6448 10.9987C87.6436 11.0948 88.0927 13.6063 88.6429 16.5799L89.643 21.9864L89.4413 22.4014C88.9891 23.3324 87.5747 24.5384 86.3904 25.003C86.1333 25.1039 85.9127 25.2471 85.9001 25.3212C85.8875 25.3955 86.0684 26.0324 86.3022 26.7367C86.72 27.9958 86.7319 28.0169 87.008 27.9963C87.4692 27.9617 88.829 27.2492 89.5813 26.6479C91.0292 25.4907 92.5702 23.3407 93.991 20.4956C94.6231 19.23 98.482 10.976 98.482 10.8897C98.482 10.8561 97.7079 10.8286 96.7617 10.8286C95.2234 10.8286 95.0318 10.8469 94.9511 11.001C94.7996 11.2903 93.2708 15.3031 92.615 17.1328C92.2751 18.0809 91.9765 18.7901 91.9512 18.7088C91.9258 18.6275 91.7338 16.8323 91.5242 14.7195L91.1432 10.8779L89.395 10.851C87.7776 10.8261 87.6466 10.8371 87.6448 10.9987ZM56.661 13.4253C57.1381 13.7379 57.3473 14.3214 57.337 15.3105C57.3213 16.8412 56.9217 18.2416 56.1916 19.325C55.4378 20.4434 54.3755 20.6946 53.6151 19.9343C53.1536 19.4728 53.0383 18.9767 53.1012 17.7238C53.2022 15.716 54.1007 13.8174 55.1816 13.3274C55.5613 13.1553 56.326 13.2059 56.661 13.4253ZM68.5414 13.5395C69.4721 14.0208 69.4704 16.2715 68.5379 18.2805C67.9049 19.6443 67.0459 20.3855 66.1034 20.3812C65.6774 20.3792 64.7943 20.0831 64.7943 19.9422C64.7943 19.7277 65.4177 16.4858 65.5429 16.0492C66.0918 14.1355 67.4674 12.9841 68.5414 13.5395Z" fill="white"/>
</svg>
