<svg width="194" height="28" viewBox="0 0 194 28" fill="none" xmlns="http://www.w3.org/2000/svg">
<path fill-rule="evenodd" clip-rule="evenodd" d="M6.30772 4.94531C3.61953 7.6653 1.25186 10.1397 1.0463 10.4439C0.167357 11.7446 -0.199283 13.5708 0.105952 15.1279C0.350333 16.375 0.854515 17.3413 1.77311 18.3233C3.67818 20.3599 6.62962 20.8851 9.16237 19.6383C9.95292 19.2491 10.7164 18.5325 15.8832 13.3292L21.7121 7.4592L20.8595 6.59319L20.0068 5.72705L14.2931 11.5004C10.3555 15.479 8.4083 17.3513 8.02871 17.5236C7.72073 17.6634 7.03494 17.7981 6.47266 17.8292C5.56026 17.8797 5.38472 17.8441 4.572 17.444C3.13518 16.7367 2.4264 15.541 2.43452 13.8386C2.44155 12.3563 2.59905 12.1527 7.9859 6.66121L12.8995 1.65202L12.0474 0.825939L11.1953 0L6.30772 4.94531ZM19.2861 0.443328C17.5784 0.903177 17.4432 1.01814 11.3074 7.22679L5.49913 13.1041L6.34668 13.9644L7.19438 14.8246L12.7539 9.17771C16.0706 5.80897 18.5718 3.37893 18.9536 3.15437C19.5232 2.81954 19.7304 2.7781 20.8329 2.77865C22.2715 2.7792 22.6302 2.92596 23.7247 3.96104L24.4295 4.62768L25.2915 3.75796L26.1535 2.8881L25.3193 2.13321C23.4821 0.470726 21.3754 -0.119368 19.2861 0.443328ZM45.684 6.77383C43.3256 7.42436 42.0127 9.65491 42.7254 11.8005C43.1907 13.2014 44.4038 14.0341 47.1297 14.8241C48.9908 15.3635 49.5988 15.6906 49.8933 16.3114C50.7118 18.0361 48.6198 19.5819 46.3282 18.9455C45.6444 18.7555 44.7787 17.9662 44.5739 17.3458L44.4121 16.8558L43.7057 16.9406C43.3172 16.9873 42.793 17.0261 42.5409 17.0267C42.0967 17.0279 42.0855 17.0415 42.1795 17.4699C42.5971 19.3709 43.954 20.6099 46.0753 21.0274C48.0952 21.4247 50.0771 20.9028 51.3511 19.638C52.2033 18.792 52.568 17.9348 52.568 16.778C52.568 14.795 51.5141 13.7852 48.3688 12.7542C46.4513 12.1257 45.8674 11.8597 45.4741 11.4352C44.8613 10.774 45.0707 9.54518 45.8798 9.05366C47.2174 8.24135 49.1909 8.76963 49.7569 10.0915L49.9408 10.521L50.9446 10.4539C51.4967 10.417 52.0065 10.333 52.0775 10.2672C52.1569 10.1935 52.1116 9.84683 51.9597 9.36509C51.6462 8.37063 50.6143 7.30155 49.6079 6.92885C48.666 6.57998 46.6723 6.50122 45.684 6.77383ZM132.422 6.77383C130.064 7.42436 128.751 9.65491 129.463 11.8005C129.929 13.2014 131.142 14.0341 133.868 14.8241C135.729 15.3635 136.337 15.6906 136.631 16.3114C137.45 18.0361 135.358 19.5819 133.066 18.9455C132.382 18.7555 131.517 17.9662 131.312 17.3458L131.15 16.8558L130.444 16.9406C130.055 16.9873 129.531 17.0261 129.279 17.0267C128.835 17.0279 128.824 17.0415 128.918 17.4699C129.335 19.3709 130.692 20.6099 132.813 21.0274C134.833 21.4247 136.815 20.9028 138.089 19.638C138.941 18.792 139.306 17.9348 139.306 16.778C139.306 14.795 138.252 13.7852 135.107 12.7542C133.189 12.1257 132.605 11.8597 132.212 11.4352C131.599 10.774 131.809 9.54518 132.618 9.05366C133.955 8.24135 135.929 8.76963 136.495 10.0915L136.679 10.521L137.683 10.4539C138.235 10.417 138.745 10.333 138.815 10.2672C138.895 10.1935 138.85 9.84683 138.698 9.36509C138.384 8.37063 137.352 7.30155 136.346 6.92885C135.404 6.57998 133.41 6.50122 132.422 6.77383ZM60.899 7.00141C58.3914 7.47957 56.3768 9.56638 55.805 12.278C54.9193 16.4775 57.1176 20.3785 60.8011 21.1443C62.2054 21.4363 63.444 21.3435 65.3207 20.806C65.5568 20.7382 65.729 20.8703 66.2137 21.4909L66.8142 22.2597H68.0207C69.1805 22.2597 69.2272 22.2478 69.2258 21.95C69.225 21.7707 68.848 21.194 68.3309 20.581C67.8394 19.9985 67.4374 19.4957 67.4374 19.4635C67.4374 19.4312 67.7081 19.0013 68.0388 18.5081C68.8421 17.31 69.2264 16.1417 69.3178 14.6185C69.6248 9.50718 65.8184 6.06326 60.899 7.00141ZM73.252 12.037C73.2967 16.6967 73.3284 17.3056 73.5589 17.9228C74.1092 19.3971 74.9094 20.2455 76.2489 20.7747C76.8836 21.0254 77.2845 21.0739 78.7271 21.0739C80.1697 21.0739 80.5706 21.0254 81.2053 20.7747C82.5448 20.2455 83.345 19.3971 83.8953 17.9228C84.1258 17.3056 84.1574 16.6967 84.2022 12.037L84.2522 6.83964H83.0729H81.8937L81.8895 11.0044C81.8871 13.2952 81.825 15.6331 81.7515 16.1999C81.4971 18.1609 80.5226 19.0931 78.7271 19.0931C76.9316 19.0931 75.9571 18.1609 75.7027 16.1999C75.6292 15.6331 75.5671 13.2952 75.5647 11.0044L75.5605 6.83964H74.3812H73.202L73.252 12.037ZM174.071 7.00141C172.376 7.32482 170.513 8.70148 169.694 10.2369C167.757 13.8698 169.031 18.7196 172.367 20.4101C174.964 21.7264 178.513 21.2241 180.356 19.2798C180.942 18.6613 181.731 17.4459 181.641 17.3004C181.607 17.2452 181.07 17.1208 180.448 17.0242C179.318 16.8484 179.317 16.8485 179.108 17.1791C178.764 17.7233 177.934 18.4731 177.361 18.7576C176.512 19.179 174.702 19.1245 173.786 18.6498C171.482 17.4557 170.622 14.1819 171.878 11.3847C173.042 8.79056 176.308 8.07132 178.258 9.97969C178.621 10.335 178.982 10.7442 179.059 10.8891C179.192 11.1374 179.258 11.1423 180.234 10.9754C180.802 10.8782 181.342 10.7526 181.433 10.6965C181.887 10.4157 180.18 8.27564 178.982 7.62317C177.696 6.92349 175.764 6.67883 174.071 7.00141ZM184.878 13.9301V20.8829H189.421H193.965V19.7815V18.6801H190.592H187.218V16.7526V14.825H190.316H193.414V13.7924V12.7599H190.316H187.218V10.9012V9.04251H190.523H193.827V8.00991V6.97732H189.353H184.878V13.9301ZM91.5168 7.49362C89.285 13.3097 86.7125 20.3025 86.7125 20.5532C86.7125 20.8745 86.7416 20.8829 87.8484 20.8821L88.9842 20.8813L89.68 18.9202L90.3759 16.9591H93.39H96.404L97.0999 18.9202L97.7957 20.8813L99.0004 20.8821C100.157 20.8829 100.205 20.8705 100.209 20.5732C100.211 20.4027 99.113 17.3051 97.7682 13.6892L95.323 7.115H93.4925H91.6621L91.5168 7.49362ZM103.234 13.999V20.8829H104.404H105.575V18.1982V15.5134H106.391H107.207L109.292 18.1982L111.377 20.8829H112.537C113.688 20.8829 113.698 20.8799 113.698 20.5338C113.698 20.2909 113.109 19.4522 111.764 17.7773C110.7 16.4532 109.861 15.3203 109.898 15.2594C109.936 15.1987 110.222 15.0649 110.533 14.962C111.321 14.702 112.3 13.7964 112.684 12.9716C112.938 12.4258 113.007 12.0432 113.007 11.1765C113.007 9.44495 112.396 8.40643 110.942 7.66475C110.137 7.25378 108.894 7.1172 105.953 7.1161L103.234 7.115V13.999ZM116.727 13.999V20.8829H121.27H125.813V19.8503V18.8177H122.44H119.067V16.8929V14.968L122.131 14.9309L125.194 14.8939L125.234 13.8983L125.275 12.9028L122.205 12.8657L119.136 12.8287L119.098 11.0044L119.059 9.18019H122.367H125.676V8.14759V7.115H121.201H116.727V13.999ZM142.886 13.999V20.8829H144.125H145.364V18.267V15.6511L146.431 15.65C147.965 15.6484 149.809 15.4121 150.583 15.1179C151.54 14.7544 152.145 14.2435 152.602 13.4144C152.958 12.7688 153.001 12.5577 153.003 11.4519C153.004 10.7477 152.924 9.98217 152.816 9.67845C152.413 8.53764 151.173 7.59082 149.66 7.26975C149.246 7.18205 147.621 7.115 145.908 7.115H142.886V13.999ZM158.429 7.49362C156.197 13.3097 153.625 20.3025 153.625 20.5532C153.625 20.8745 153.654 20.8829 154.761 20.8821L155.896 20.8813L156.592 18.9202L157.288 16.9591H160.302H163.316L164.012 18.9202L164.708 20.8813L165.913 20.8821C167.069 20.8829 167.117 20.8705 167.121 20.5732C167.124 20.4027 166.025 17.3051 164.68 13.6892L162.235 7.115H160.405H158.574L158.429 7.49362ZM26.6843 7.81689C26.3435 7.88339 25.6692 8.13245 25.1856 8.37036C24.4109 8.75146 23.6144 9.49988 18.4817 14.6707L12.6572 20.5387L13.5096 21.4035L14.362 22.2684L20.0757 16.4961C24.0165 12.5148 25.9602 10.6462 26.3401 10.474C26.6475 10.3346 27.3348 10.1997 27.8961 10.1687C28.8052 10.1185 28.9854 10.1545 29.7807 10.5461C30.714 11.0055 31.4445 11.8184 31.758 12.7459C32.0112 13.4958 31.9498 14.9439 31.6352 15.6372C31.4394 16.0688 29.9389 17.6941 26.4148 21.2918L21.4693 26.3408L22.2988 27.1703L23.1284 28L28.0385 23.0543C30.7391 20.3341 33.1169 17.8594 33.3225 17.5547C34.5308 15.7643 34.699 13.2866 33.7489 11.2737C33.3049 10.3331 32.089 9.02406 31.1723 8.4995C29.9108 7.77765 28.2098 7.51895 26.6843 7.81689ZM64.188 9.29749C66.0916 10.1395 67.1601 12.5181 66.7813 15.0701C66.5148 16.8664 65.7859 18.0557 64.5231 18.7552C63.8544 19.1256 63.6721 19.1619 62.4809 19.1619C61.2853 19.1619 61.1089 19.1264 60.4266 18.7489C58.2423 17.5399 57.3883 13.8236 58.7 11.2352C59.1518 10.3433 60.2333 9.4086 61.1317 9.13338C62.0348 8.85678 63.3515 8.92741 64.188 9.29749ZM94.7124 11.9926C95.2329 13.5014 95.6373 14.7576 95.6109 14.784C95.5844 14.8105 94.5725 14.815 93.3621 14.7941L91.1615 14.7562L92.0754 12.2091C92.5781 10.8082 93.0328 9.54931 93.0858 9.41149C93.1463 9.25412 93.2908 9.1773 93.4741 9.20497C93.7211 9.24228 93.9112 9.67033 94.7124 11.9926ZM109.668 9.56858C110.356 9.92641 110.669 10.4594 110.668 11.2729C110.667 12.102 110.256 12.7141 109.46 13.0678C108.929 13.3044 108.521 13.3593 107.227 13.3683L105.643 13.3794L105.605 11.2634L105.567 9.14742L107.326 9.20662C108.795 9.25619 109.182 9.3158 109.668 9.56858ZM149.579 9.55977C150.331 9.95161 150.648 10.6121 150.565 11.6116C150.449 13.0132 149.722 13.4089 147.011 13.5452L145.364 13.6279V11.3882V9.14825L147.188 9.20649C148.711 9.25509 149.106 9.31346 149.579 9.55977ZM161.625 11.9926C162.145 13.5014 162.549 14.7576 162.523 14.784C162.497 14.8105 161.485 14.815 160.274 14.7941L158.074 14.7562L158.988 12.2091C159.49 10.8082 159.945 9.54931 159.998 9.41149C160.058 9.25412 160.203 9.1773 160.386 9.20497C160.633 9.24228 160.823 9.67033 161.625 11.9926ZM21.6109 18.8222C18.2875 22.1997 15.8 24.6172 15.4163 24.8429C14.8454 25.1784 14.639 25.2198 13.5359 25.2193C12.0973 25.2187 11.7386 25.072 10.6441 24.0369L9.93929 23.3703L9.07728 24.24L8.21527 25.1098L9.07714 25.8898C11.4684 28.0537 14.5292 28.35 17.0749 26.6638C17.4151 26.4384 20.2085 23.6926 23.2824 20.5621L28.8713 14.8702L28.0178 14.0243L27.1644 13.1784L21.6109 18.8222Z" fill="white"/>
</svg>
