<svg width="127" height="28" viewBox="0 0 127 28" fill="none" xmlns="http://www.w3.org/2000/svg">
<path fill-rule="evenodd" clip-rule="evenodd" d="M0 0.0814424C0 0.167279 6.8074 25.8466 7.12314 26.9519L7.32151 27.6463L8.00915 27.6452C10.511 27.6417 12.3435 26.7194 13.1882 25.0387C13.7088 24.0028 13.9805 23.0323 15.9321 15.2353C16.958 11.1371 17.8871 7.6107 17.9972 7.39896C18.2552 6.90193 18.7589 6.87838 19.0683 7.3487C19.1894 7.53294 20.1703 11.208 21.2481 15.5157C22.3258 19.8234 23.2971 23.5902 23.4065 23.8863C24.0081 25.514 24.7402 26.403 26.0044 27.0412C27.1436 27.6163 29.6643 27.8687 29.8353 27.425C29.8822 27.3033 31.5416 21.0986 33.5229 13.637L37.1251 0.0702004L36.2824 0.0309193C34.0936 -0.0709204 32.1561 1.0271 31.3329 2.83588C31.1313 3.27881 30.1119 6.96158 29.0676 11.0197C28.0232 15.0778 27.1271 18.3215 27.0761 18.2278C27.0253 18.1342 26.2264 15.1709 25.3009 11.6429C23.5469 4.95652 23.1333 3.76209 22.1788 2.62453C21.4136 1.71273 19.5098 1.08635 18.0152 1.25472C16.178 1.46183 14.9829 2.25579 14.1687 3.80997C13.5661 4.96023 13.3519 5.67707 11.5423 12.5981C10.7107 15.7785 9.99348 18.3377 9.94834 18.2852C9.90333 18.2327 9.01599 14.8866 7.97662 10.8493C6.93739 6.81212 5.94914 3.20422 5.78065 2.83178C5.18077 1.50588 4.06386 0.625028 2.4517 0.206824C1.69581 0.0106836 0 -0.0760785 0 0.0814424ZM41.7437 0.190556C40.2772 0.545012 39.4598 1.38777 39.1142 2.90161C38.7711 4.40434 38.8583 6.29843 39.2422 5.67985C39.2913 5.60076 39.9601 5.23625 40.7285 4.86976C43.0554 3.75997 43.6851 2.98335 43.7891 1.09521L43.8492 0.00407067L43.1354 0.0153127C42.743 0.0215289 42.1167 0.100355 41.7437 0.190556ZM46.2413 0.0831618C46.0901 0.151275 47.9488 2.97726 53.7231 11.4585L55.3536 13.8532L50.7797 20.62C48.2642 24.3418 46.2059 27.4452 46.2059 27.5165C46.2059 27.6895 48.2955 27.682 49.3925 27.5052C51.612 27.1474 52.63 26.2159 55.8183 21.6254C56.9792 19.9539 58.0501 18.4527 58.1983 18.2889C58.7849 17.6406 58.909 17.7571 61.3623 21.2604C64.6807 25.9987 65.7413 27.0146 67.8309 27.4558C68.6813 27.6353 71.3005 27.7233 71.3005 27.5721C71.3005 27.5313 69.2629 24.4812 66.7725 20.7938C64.2821 17.1065 62.2195 14.0289 62.1891 13.9544C62.1586 13.8799 64.1966 10.7587 66.718 7.01831C69.5865 2.763 71.2554 0.17085 71.1772 0.092949C71.1047 0.0207354 70.3365 -0.00346812 69.3506 0.0352839C66.9336 0.130378 66.3951 0.349664 64.9272 1.83666C64.1541 2.6199 63.1506 3.91392 61.7406 5.94609C60.6087 7.57737 59.4951 9.12256 59.2659 9.37967C58.8982 9.79232 58.8125 9.83041 58.5357 9.70358C58.3563 9.62144 57.2884 8.21738 56.0408 6.42368C52.0099 0.627806 51.4066 0.146117 48.0647 0.0548583C47.1519 0.0299935 46.3314 0.0426904 46.2413 0.0831618ZM43.3395 5.03628C43.1139 5.26112 42.1587 5.84266 41.2167 6.32858C39.937 6.98882 39.4282 7.32582 39.2037 7.66162L38.9032 8.11104V17.8973V27.6836L40.0019 27.6153C41.8017 27.5034 42.9462 26.8448 43.5104 25.5963C43.7311 25.108 43.7525 24.4304 43.787 16.801C43.8076 12.2546 43.8076 7.65567 43.787 6.5812L43.7495 4.62746L43.3395 5.03628ZM82.1479 13.2348C80.6018 13.6212 78.9337 14.9314 78.1675 16.3612C77.5943 17.431 77.275 18.8894 77.2776 20.4262C77.285 24.6779 79.3144 27.4363 82.7955 27.9267C85.9217 28.3671 88.7373 26.6623 89.5935 23.8108C89.9543 22.6085 89.9571 22.6204 89.3111 22.6204C88.7405 22.6204 88.7262 22.631 88.6453 23.1164C88.4161 24.4916 87.2797 25.9364 85.9318 26.5657C85.2558 26.8813 85.0203 26.9189 83.715 26.9189C82.4096 26.9189 82.1741 26.8813 81.4981 26.5657C79.6179 25.6878 78.5488 23.7876 78.3852 21.0333C78.159 17.2232 80.2613 14.3001 83.3971 14.0646C86.0107 13.8683 88.1758 15.2464 88.5083 17.3179C88.5946 17.855 88.5995 17.8591 89.1724 17.8591H89.7496L89.6751 17.4292C89.3404 15.4976 88.2564 14.2218 86.318 13.4783C85.4752 13.1549 83.0373 13.0126 82.1479 13.2348ZM96.2354 13.3531C95.169 13.6928 94.4384 14.1519 93.6626 14.9697C92.3488 16.3549 91.7662 17.8469 91.6564 20.1075C91.4134 25.1127 94.7348 28.5677 99.1696 27.9226C101.719 27.5517 103.608 25.8169 104.447 23.0765C104.629 22.4809 104.687 21.856 104.686 20.5043C104.684 18.8967 104.647 18.6134 104.314 17.6607C103.858 16.3524 103.365 15.5719 102.456 14.7151C101.672 13.9763 101.056 13.6259 99.989 13.3107C99.0122 13.0222 97.2104 13.0426 96.2354 13.3531ZM111.119 13.4014C109.889 13.9179 109.141 14.5628 108.631 15.5445L108.357 16.0736L108.351 14.7104L108.345 13.3471L107.781 13.3878L107.216 13.4284L107.182 20.5373L107.148 27.6463H107.746H108.345V22.909C108.345 17.8041 108.391 17.3837 109.083 16.2047C110.252 14.2144 112.951 13.4382 114.681 14.5951C115.136 14.8995 115.42 15.2319 115.711 15.7994L116.112 16.5832L116.153 22.1148L116.195 27.6463H116.718H117.241V23.1013C117.241 20.6016 117.301 18.2403 117.375 17.8538C117.679 16.2539 118.511 15.0596 119.739 14.4587C120.389 14.1407 120.65 14.0904 121.622 14.0949C123.249 14.1021 123.985 14.5288 124.694 15.8752C125.008 16.4697 125.008 16.477 125.048 22.0583L125.088 27.6463H125.618H126.147L126.109 21.9261L126.07 16.2058L125.722 15.467C125.299 14.5668 124.663 13.9115 123.799 13.4857C123.231 13.2051 122.966 13.1649 121.689 13.1645C120.447 13.164 120.127 13.2096 119.551 13.4691C118.779 13.8172 117.94 14.6174 117.463 15.459L117.138 16.0347L116.971 15.5325C116.736 14.8233 115.767 13.8441 114.946 13.4851C113.887 13.023 112.112 12.9841 111.119 13.4014ZM100.087 14.398C101.988 15.1184 103.245 16.9981 103.585 19.6278C103.955 22.4932 102.576 25.4865 100.393 26.5545C99.7171 26.8851 99.5126 26.9189 98.1875 26.9189C96.8672 26.9189 96.6565 26.8843 95.9923 26.5594C94.0081 25.5887 92.7772 23.3348 92.7579 20.6365C92.7476 19.1913 92.9401 18.2789 93.5105 17.0692C93.938 16.1622 94.9786 15.0064 95.7035 14.633C96.9605 13.9855 98.7458 13.8897 100.087 14.398ZM73.2921 26.1914V27.6463H74.0223H74.7526V26.1914V24.7366H74.0223H73.2921V26.1914Z" fill="white"/>
</svg>
