<svg width="138" height="28" viewBox="0 0 138 28" fill="none" xmlns="http://www.w3.org/2000/svg">
<path fill-rule="evenodd" clip-rule="evenodd" d="M12.272 0.0207106C9.88253 0.375003 7.64703 1.24443 5.84313 2.52092C4.83318 3.23564 3.22173 4.84692 2.50601 5.8577C1.44371 7.35799 0.597427 9.302 0.185648 11.1875C0.0228114 11.9333 0 12.2772 0 13.9871C0 15.6918 0.0231441 16.0422 0.18399 16.7782C0.591455 18.6433 1.46122 20.6432 2.50543 22.1165C3.22248 23.128 4.83392 24.7391 5.84313 25.4533C7.3338 26.5081 9.3007 27.3573 11.2023 27.7671C12.3683 28.0183 14.7617 28.0786 15.9806 27.8875C21.9448 26.9522 26.4921 22.653 27.7436 16.766C27.9719 15.6922 28.0565 13.4299 27.9117 12.2729C27.2397 6.90482 23.5485 2.3867 18.4381 0.676621C16.8587 0.148128 16.1227 0.0310808 14.2214 0.00619484C13.2861 -0.00608221 12.4089 0.000470072 12.272 0.0207106ZM16.7929 1.07206C17.9725 1.35252 18.5754 1.56463 19.6722 2.08516C23.3912 3.8504 26.0287 7.22095 26.931 11.3618C27.0886 12.0846 27.1145 12.4559 27.1145 13.9871C27.1145 15.5183 27.0886 15.8896 26.931 16.6124C25.7451 22.0542 21.5508 26.0924 16.1213 27.0198C15.2365 27.1709 14.8775 27.1893 13.5578 27.1516C11.4149 27.0903 10.1459 26.7872 8.26154 25.8866C4.53181 24.1041 1.9387 20.8052 1.01128 16.6631C0.854333 15.9618 0.830028 15.6039 0.830028 13.9871C0.830028 12.3703 0.854333 12.0124 1.01128 11.3111C2.1708 6.13228 6.02704 2.21971 11.0756 1.09985C12.3728 0.812083 12.3889 0.810756 14.2629 0.83954C15.6861 0.86144 16.0457 0.894456 16.7929 1.07206ZM12.6453 2.3419C10.1185 2.65065 7.74956 3.76264 5.9304 5.49387C5.24736 6.14381 4.26702 7.31054 4.26702 7.47346C4.26702 7.51187 5.18034 7.51983 6.29655 7.49121C8.31886 7.43937 8.32658 7.43987 8.45333 7.62087C8.77635 8.08201 8.4968 8.34215 7.579 8.43464C7.20738 8.47213 6.88585 8.52025 6.86453 8.54157C6.84321 8.56288 7.77527 11.4084 8.93579 14.8651L11.0457 21.1499L12.3018 17.3819C12.9925 15.3095 13.5578 13.551 13.5578 13.4742C13.5578 13.3547 11.8559 8.6076 11.789 8.54082C11.7758 8.52763 11.4586 8.4825 11.084 8.44061C10.3279 8.356 10.1561 8.26351 10.1579 7.94215C10.1607 7.47363 10.024 7.49121 13.7257 7.48292C17.0391 7.47554 17.148 7.48035 17.259 7.63895C17.5687 8.08109 17.2761 8.34356 16.372 8.43464C16.0004 8.47213 15.6784 8.52074 15.6565 8.54264C15.6346 8.56454 16.5612 11.3935 17.7157 14.8292L19.8147 21.0759L19.9962 20.4971C20.096 20.1787 20.478 18.9632 20.845 17.7961C21.6979 15.0844 21.8809 14.2172 21.8325 13.1161C21.7861 12.0605 21.4907 11.1743 20.7901 9.9886C19.8405 8.38171 19.6254 7.64941 19.8537 6.80154C20.0586 6.04053 20.8661 5.36214 21.5719 5.35816L21.8945 5.35633L21.6872 5.18719C19.9804 3.79516 18.4459 3.0115 16.5639 2.57069C15.8476 2.40287 15.4049 2.35659 14.3043 2.33419C13.5515 2.31893 12.805 2.32233 12.6453 2.3419ZM29.4018 7.54671V7.82551L29.8788 7.8689C31.0175 7.97234 31.5422 8.3414 32.0167 9.37251C32.1664 9.69777 32.9665 12.0543 33.7947 14.6092C36.1692 21.934 35.9398 21.287 36.1625 21.287C36.3446 21.287 36.4498 21.0049 37.9494 16.4964C38.8258 13.8617 39.5669 11.679 39.5963 11.6462C39.6258 11.6133 40.3583 13.7687 41.2243 16.4359C42.7499 21.1348 42.8052 21.2854 43.0066 21.2861C43.208 21.287 43.2713 21.116 45.0701 15.7084C46.8987 10.2115 47.2885 9.15956 47.6937 8.62825C47.9888 8.24127 48.6522 7.94555 49.3727 7.87968L49.9742 7.82477V7.54629V7.2679H47.0293H44.0845V7.54629V7.82477L44.6704 7.87918C45.781 7.98246 46.1414 8.31054 46.045 9.13053C46.006 9.46268 44.3343 14.6162 43.7298 16.2683L43.6084 16.6001L42.0778 11.9548L40.5471 7.30938H40.2311H39.9152L38.3686 11.8876C37.518 14.4057 36.8043 16.4835 36.7826 16.505C36.7609 16.5265 36.2239 14.9601 35.5893 13.024C34.2661 8.98711 34.209 8.68756 34.6823 8.26459C34.9489 8.02643 35.5479 7.84858 36.0836 7.84858C36.3554 7.84858 36.3699 7.83398 36.3699 7.55824V7.2679H32.8858H29.4018V7.54671ZM85.2292 7.5419V7.82477L85.8306 7.88001C86.6591 7.95625 87.1214 8.19723 87.3615 8.67811C87.6916 9.33883 87.7295 9.9808 87.6983 14.3719C87.6725 17.9941 87.6513 18.5607 87.5276 18.9321C87.2581 19.7411 86.8573 20.0253 85.8602 20.1144L85.2707 20.1671V20.4574V20.7478H88.8377H92.4046V20.4574V20.1671L91.8151 20.1144C90.2939 19.9785 90.0404 19.5153 89.9787 16.7586L89.9394 15.0091L91.3443 14.9586C92.1522 14.9296 93.0106 14.8501 93.3649 14.7713C95.2075 14.3622 96.4532 13.184 96.6652 11.65C96.8858 10.0528 96.1048 8.57035 94.6765 7.87587C93.5358 7.32116 93.5539 7.32315 89.1902 7.28955L85.2292 7.25903V7.5419ZM92.8042 8.54364C93.2798 8.75592 93.8134 9.29229 94.0336 9.77914C94.2023 10.1523 94.2292 10.3399 94.2268 11.1252C94.2235 12.2161 94.0701 12.6182 93.4419 13.183C92.8995 13.6706 92.6006 13.752 91.1811 13.7989L89.9575 13.8393V11.0839V8.32854L91.2226 8.36545C92.1727 8.39308 92.5664 8.43746 92.8042 8.54364ZM24.2974 9.62361C24.2929 11.3215 24.2752 11.3887 22.4353 16.6831C21.8328 18.4168 21.0089 20.796 20.6045 21.9702L19.8691 24.1051L20.2181 23.8861C21.5907 23.0253 22.948 21.6673 23.8608 20.2419C25.5245 17.6438 26.0765 14.2239 25.3257 11.1667C25.1457 10.4338 24.6668 9.13924 24.4342 8.75708C24.3063 8.54687 24.3 8.58661 24.2974 9.62361ZM3.02181 9.81871C2.00489 12.5323 2.03368 15.5905 3.10195 18.3227C4.07905 20.8219 5.8978 22.8599 8.44545 24.3108C8.66768 24.4374 8.83566 24.5004 8.81874 24.4509C8.30982 22.9631 3.29597 9.34372 3.25682 9.34289C3.22588 9.34223 3.12011 9.55633 3.02181 9.81871ZM53.56 10.0208C50.0579 10.311 47.4769 13.3675 48.1031 16.483C48.4491 18.2048 49.6035 19.6582 51.2599 20.4574C52.0934 20.8596 52.6573 21.0213 53.5161 21.1043C56.2664 21.3702 58.7829 20.0864 59.9188 17.838C60.2946 17.094 60.4529 16.3895 60.4485 15.4803C60.4386 13.452 59.1845 11.6036 57.1564 10.6281C56.0865 10.1135 54.8863 9.91079 53.56 10.0208ZM126.71 10.2866C126.624 10.4868 126.518 10.6726 126.475 10.6993C126.432 10.7261 126.194 10.6386 125.947 10.5048C124.426 9.68084 122.514 9.89129 121.4 11.0054C120.848 11.5571 120.621 12.1635 120.67 12.9502C120.752 14.2441 121.495 15.1073 123.271 15.972C123.86 16.2584 124.618 16.629 124.956 16.7954C125.75 17.1859 126.411 17.8058 126.535 18.2761C126.672 18.7946 126.52 19.3027 126.12 19.6639C125.714 20.0305 125.251 20.1533 124.448 20.1071C122.943 20.0208 121.715 18.9449 121.368 17.407C121.263 16.9424 121.253 16.9314 120.955 16.9062L120.65 16.8804V19.0423V21.204H120.921C121.169 21.204 121.204 21.1701 121.336 20.81C121.416 20.5932 121.533 20.348 121.597 20.2651C121.708 20.1219 121.737 20.1295 122.167 20.4147C123.428 21.2525 125.079 21.3742 126.447 20.7301C127.119 20.414 127.873 19.6331 128.114 19.0058C128.393 18.2754 128.385 17.4203 128.091 16.7786C127.681 15.8838 127.148 15.4691 125.123 14.4697C124.146 13.9873 123.194 13.4803 123.008 13.3432C121.791 12.4476 122.484 10.9764 124.122 10.9764C125.364 10.9764 126.301 11.7914 126.654 13.1796C126.76 13.5952 126.778 13.6149 127.067 13.6395L127.369 13.6653V11.7938V9.9224H127.118C126.899 9.9224 126.845 9.9706 126.71 10.2866ZM136.166 10.2866C136.08 10.4868 135.971 10.6747 135.924 10.704C135.876 10.7334 135.64 10.646 135.399 10.5099C133.875 9.65123 131.697 9.93833 130.73 11.1252C130.304 11.6475 130.166 11.9902 130.125 12.6284C130.077 13.3584 130.241 13.9002 130.687 14.4937C131.155 15.1172 131.709 15.4896 133.376 16.302C134.201 16.7041 135.035 17.15 135.228 17.2929C135.749 17.6788 136.016 18.1277 136.016 18.6179C136.016 19.6282 135.236 20.1846 133.927 20.1088C132.304 20.0148 131.133 18.9177 130.735 17.1186C130.692 16.9231 130.643 16.8905 130.396 16.8905H130.107V19.0472V21.204H130.348C130.563 21.204 130.616 21.1469 130.841 20.6648C130.98 20.3683 131.112 20.1256 131.135 20.1256C131.158 20.1256 131.347 20.2402 131.554 20.3802C133.547 21.725 136.381 21.2073 137.39 19.3142C138.034 18.1058 137.842 16.8211 136.87 15.8463C136.527 15.5028 136.118 15.2578 134.667 14.5284C132.63 13.5039 132.268 13.2764 132.012 12.8631C131.867 12.6276 131.837 12.4812 131.868 12.1541C131.939 11.4166 132.569 10.9747 133.549 10.9742C134.801 10.9734 135.708 11.7379 136.082 13.1076C136.216 13.6008 136.228 13.6145 136.523 13.6395L136.826 13.6653V11.7938V9.9224H136.574C136.356 9.9224 136.302 9.9706 136.166 10.2866ZM61.0069 10.6136V10.9059L61.4839 10.9599C62.1678 11.0373 62.4742 11.1491 62.6644 11.3909C63.0129 11.8339 63.0393 12.1278 63.0393 15.5632C63.0393 19.1517 63.0128 19.3923 62.5736 19.8027C62.3235 20.0363 62.1964 20.0776 61.4424 20.1705C61.0128 20.2234 61.0069 20.228 61.0069 20.5067V20.7893H64.1176H67.2284V20.509V20.2287L66.632 20.1401C65.9752 20.0426 65.6973 19.8818 65.4449 19.4533C65.3005 19.2082 65.2754 18.9914 65.2513 17.7822L65.2235 16.3927H65.4714C65.6963 16.3927 65.8833 16.5976 67.4772 18.591L69.2351 20.7893L73.8103 20.7864C79.8337 20.7828 80.4479 20.7231 81.9713 19.9929C83.7359 19.1473 84.6667 17.6 84.6594 15.5246C84.6522 13.472 83.7433 11.983 81.9825 11.1389C80.5425 10.4487 79.6995 10.3441 75.5444 10.34L72.7033 10.3372V10.6275C72.7033 10.8036 72.7441 10.9185 72.807 10.9195C73.2507 10.9266 73.9876 11.101 74.1934 11.2474C74.6456 11.5695 74.7076 11.9693 74.7533 14.8581C74.7971 17.633 74.7161 19.0084 74.4795 19.507C74.2158 20.0629 73.1845 20.3285 72.2474 20.0821C71.1828 19.802 70.4625 19.2528 68.7916 17.4472L67.7861 16.3604L68.3161 16.1815C69.4412 15.8018 70.0821 15.3082 70.4679 14.5241C70.638 14.1785 70.6709 13.9903 70.6702 13.365C70.6695 12.7186 70.6399 12.5623 70.4495 12.2003C70.0349 11.4122 69.2631 10.8656 68.0994 10.5358C67.6805 10.4171 67.0795 10.3888 64.3043 10.358L61.0069 10.3212V10.6136ZM97.4855 10.3849C97.382 10.4895 97.4152 10.9177 97.527 10.9195C97.9171 10.9258 98.7152 11.0959 98.8891 11.2098C99.0039 11.285 99.1783 11.5207 99.2768 11.7336C99.4509 12.1104 99.4556 12.2123 99.4556 15.5632C99.4556 18.9141 99.4509 19.016 99.2768 19.3928C99.1783 19.6057 99.0039 19.8414 98.8891 19.9167C98.7141 20.0313 97.9153 20.2009 97.5218 20.2069C97.449 20.208 97.4215 20.2983 97.4388 20.4782L97.4648 20.7478L100.555 20.7695L103.645 20.7912V20.5099V20.2287L103.048 20.1401C102.363 20.0384 102.095 19.8746 101.861 19.4151C101.72 19.1371 101.691 18.8889 101.668 17.7407L101.64 16.3927H101.897C102.135 16.3927 102.29 16.5623 103.903 18.5915L105.652 20.7902L112.052 20.769L118.452 20.7478L118.504 20.0842C118.532 19.7192 118.58 19.054 118.609 18.606L118.663 17.7915L118.44 17.818C118.242 17.8413 118.193 17.9144 118.016 18.4467C117.639 19.5795 117.263 19.7523 115.175 19.7523C113.951 19.7523 113.776 19.7346 113.516 19.5841C112.99 19.279 112.902 18.963 112.866 17.236L112.834 15.7152L113.611 15.7712C115.098 15.8783 115.307 16.0192 115.45 17.0131L115.541 17.645L115.794 17.6203L116.046 17.5956L116.068 15.2936L116.09 12.9917H115.805H115.52L115.462 13.5321C115.362 14.4684 115.037 14.6984 113.686 14.7869L112.853 14.8416V13.0871V11.3326H114.3C115.096 11.3326 115.946 11.375 116.187 11.4268C116.814 11.5611 117.179 11.9465 117.415 12.7254C117.588 13.2937 117.609 13.3235 117.845 13.3235C118.084 13.3235 118.092 13.3125 118.048 13.0124C118.024 12.8414 117.981 12.328 117.954 11.8718C117.927 11.4156 117.884 10.8836 117.858 10.6897L117.811 10.3372H113.258H108.705V10.6224C108.705 10.9002 108.715 10.909 109.099 10.9596C109.799 11.0517 109.938 11.0922 110.163 11.2693C110.637 11.6425 110.652 11.7531 110.68 15.1813C110.698 17.3042 110.675 18.5105 110.61 18.8966C110.448 19.8588 110.005 20.1862 108.979 20.1037C107.907 20.0177 107.018 19.3964 105.302 17.533L104.214 16.3522L104.661 16.2196C105.351 16.0148 106.112 15.5712 106.468 15.1667C107.083 14.4681 107.3 13.3574 106.996 12.4643C106.819 11.9453 106.179 11.2583 105.57 10.9338C104.638 10.437 104.347 10.4022 100.783 10.3602C99.0035 10.3392 97.5197 10.3504 97.4855 10.3849ZM55.0437 11.002C56.1255 11.2056 57.0676 11.956 57.5646 13.0099C57.986 13.9033 58.1114 14.478 58.1131 15.5217C58.1172 18.0866 56.87 19.8317 54.8269 20.1201C52.2423 20.4848 50.3847 18.5701 50.3903 15.5469C50.3938 13.6858 51.1065 12.1594 52.3083 11.4394C53.0958 10.9676 54.0503 10.815 55.0437 11.002ZM67.4511 11.506C68.1473 11.8429 68.5194 12.5557 68.4937 13.5029C68.4717 14.3134 68.1185 14.898 67.4358 15.2535C67.1753 15.3891 66.9034 15.4343 66.1707 15.4637L65.2375 15.5012V13.4169V11.3326H66.1653C66.9368 11.3326 67.1534 11.3618 67.4511 11.506ZM79.6334 11.446C81.4486 11.9294 82.3476 13.4779 82.2161 15.895C82.0732 18.5211 80.7948 19.7938 78.2998 19.7938C77.5415 19.7938 77.2157 19.6793 77.0351 19.3494C76.9071 19.1155 76.8897 18.6901 76.8659 15.2107L76.8393 11.3326L78.0272 11.3336C78.7553 11.3342 79.377 11.3777 79.6334 11.446ZM103.853 11.4873C104.26 11.672 104.668 12.1228 104.816 12.549C105.004 13.0956 104.954 13.8947 104.699 14.4093C104.305 15.2017 103.713 15.4745 102.38 15.4783L101.654 15.4803V13.4064V11.3326L102.587 11.3344C103.31 11.3358 103.595 11.3703 103.853 11.4873ZM13.509 16.9497C13.1509 17.9893 12.3676 20.2584 11.7685 21.9921C11.1695 23.7258 10.7053 25.174 10.737 25.2104C10.7689 25.2467 11.1459 25.3512 11.5749 25.4426C12.6923 25.6806 14.5203 25.7366 15.628 25.5668C16.5722 25.4221 17.7884 25.1021 17.7884 24.9983C17.7884 24.9318 14.2219 15.1261 14.1821 15.0832C14.17 15.0701 13.8671 15.91 13.509 16.9497Z" fill="white"/>
</svg>
