<svg width="40" height="40" viewBox="0 0 40 40" fill="none" xmlns="http://www.w3.org/2000/svg">
<path d="M38.4375 27.426C39.3005 27.426 40 26.7265 40 25.8635V6.25C40 2.80375 37.1963 0 33.75 0H6.25C2.80375 0 0 2.80375 0 6.25V33.75C0 37.1963 2.80375 40 6.25 40H33.75C37.1963 40 40 37.1963 40 33.75C40 32.887 39.3005 32.1875 38.4375 32.1875C37.5745 32.1875 36.875 32.887 36.875 33.75C36.875 35.4731 35.4731 36.875 33.75 36.875H6.25C4.52688 36.875 3.125 35.4731 3.125 33.75V6.25C3.125 4.52688 4.52688 3.125 6.25 3.125H33.75C35.4731 3.125 36.875 4.52688 36.875 6.25V25.8635C36.875 26.7265 37.5745 27.426 38.4375 27.426Z" fill="#8C30F5"/>
<path d="M32.2656 18.4375H7.89062C7.02766 18.4375 6.32812 19.137 6.32812 20C6.32812 20.863 7.02766 21.5625 7.89062 21.5625H32.2656C33.1286 21.5625 33.8281 20.863 33.8281 20C33.8281 19.137 33.1286 18.4375 32.2656 18.4375Z" fill="#8C30F5"/>
<path d="M28.9844 12.1875H11.1719C10.3089 12.1875 9.60938 12.887 9.60938 13.75C9.60938 14.613 10.3089 15.3125 11.1719 15.3125H28.9844C29.8473 15.3125 30.5469 14.613 30.5469 13.75C30.5469 12.887 29.8473 12.1875 28.9844 12.1875Z" fill="#8C30F5"/>
<path d="M27.4219 24.6875H12.7344C11.8714 24.6875 11.1719 25.387 11.1719 26.25C11.1719 27.113 11.8714 27.8125 12.7344 27.8125H27.4219C28.2848 27.8125 28.9844 27.113 28.9844 26.25C28.9844 25.387 28.2848 24.6875 27.4219 24.6875Z" fill="#8C30F5"/>
</svg>
