<svg width="218" height="231" viewBox="0 0 218 231" fill="none" xmlns="http://www.w3.org/2000/svg">
<path fill-rule="evenodd" clip-rule="evenodd" d="M57.1493 105.687C83.8394 105.687 105.476 84.0504 105.476 57.3602C105.476 30.6701 83.8394 9.03353 57.1493 9.03353C30.4592 9.03353 8.82259 30.6701 8.82259 57.3602C8.82259 84.0504 30.4592 105.687 57.1493 105.687ZM109.736 57.3602C109.736 86.4031 86.1922 109.947 57.1493 109.947C28.1064 109.947 4.5625 86.4031 4.5625 57.3602C4.5625 28.3174 28.1064 4.77344 57.1493 4.77344C86.1922 4.77344 109.736 28.3174 109.736 57.3602Z" fill="#CAF530"/>
<path d="M101.482 57.6098C101.482 81.7573 81.8118 101.341 57.5377 101.341C33.2636 101.341 13.5938 81.7573 13.5938 57.6098C13.5938 33.4624 33.2636 13.8789 57.5377 13.8789C81.8118 13.8789 101.482 33.4624 101.482 57.6098Z" fill="#ECF1FF" stroke="#DADADA" stroke-width="2"/>
<path d="M105.133 109.948C105.133 109.755 106.09 109.594 107.266 109.594C108.442 109.594 109.382 109.755 109.382 109.948C109.382 110.141 108.425 110.302 107.266 110.302C106.107 110.302 105.133 110.141 105.133 109.948Z" fill="#263238"/>
<path d="M96.6328 109.948C96.6328 109.755 97.5902 109.594 98.7659 109.594C99.9417 109.594 100.882 109.755 100.882 109.948C100.882 110.141 99.9249 110.302 98.7659 110.302C97.607 110.302 96.6328 110.141 96.6328 109.948Z" fill="#263238"/>
<path d="M87.7812 109.948C87.7812 109.755 88.8184 109.594 90.0921 109.594C91.3658 109.594 92.3848 109.755 92.3848 109.948C92.3848 110.141 91.3476 110.302 90.0921 110.302C88.8366 110.302 87.7812 110.141 87.7812 109.948Z" fill="#263238"/>
<path d="M79.2812 109.948C79.2812 109.755 80.2386 109.594 81.4144 109.594C82.5901 109.594 83.5307 109.755 83.5307 109.948C83.5307 110.141 82.5733 110.302 81.4144 110.302C80.2554 110.302 79.2812 110.141 79.2812 109.948Z" fill="#263238"/>
<path d="M70.7852 109.948C70.7852 109.755 71.7426 109.594 72.9015 109.594C74.0604 109.594 75.0346 109.755 75.0346 109.948C75.0346 110.141 74.0772 110.302 72.9015 110.302C71.7258 110.302 70.7852 110.141 70.7852 109.948Z" fill="#263238"/>
<path d="M62.2852 109.948C62.2852 109.755 63.2426 109.594 64.4015 109.594C65.5604 109.594 66.5346 109.755 66.5346 109.948C66.5346 110.141 65.5772 110.302 64.4015 110.302C63.2258 110.302 62.2852 110.141 62.2852 109.948Z" fill="#263238"/>
<path d="M53.7852 109.948C53.7852 109.755 54.7425 109.594 55.9015 109.594C57.0604 109.594 58.0346 109.755 58.0346 109.948C58.0346 110.141 57.0772 110.302 55.9015 110.302C54.7257 110.302 53.7852 110.141 53.7852 109.948Z" fill="#263238"/>
<path d="M44.9336 109.948C44.9336 109.755 45.9526 109.594 47.2263 109.594C48.5 109.594 49.5372 109.755 49.5372 109.948C49.5372 110.141 48.5 110.302 47.2263 110.302C45.9526 110.302 44.9336 110.141 44.9336 109.948Z" fill="#263238"/>
<path d="M36.4336 109.948C36.4336 109.755 37.3779 109.594 38.5583 109.594C39.7387 109.594 40.683 109.755 40.683 109.948C40.683 110.141 39.7387 110.302 38.5583 110.302C37.3779 110.302 36.4336 110.141 36.4336 109.948Z" fill="#263238"/>
<path d="M27.9336 109.948C27.9336 109.755 28.8779 109.594 30.0583 109.594C31.2387 109.594 32.183 109.755 32.183 109.948C32.183 110.141 31.2387 110.302 30.0583 110.302C28.8779 110.302 27.9336 110.141 27.9336 109.948Z" fill="#263238"/>
<path d="M19.4375 109.948C19.4375 109.755 20.3818 109.594 21.5622 109.594C22.7427 109.594 23.6869 109.755 23.6869 109.948C23.6869 110.141 22.7427 110.302 21.5622 110.302C20.3818 110.302 19.4375 110.141 19.4375 109.948Z" fill="#263238"/>
<path d="M10.9375 109.948C10.9375 109.755 11.8818 109.594 13.0622 109.594C14.2426 109.594 15.1869 109.755 15.1869 109.948C15.1869 110.141 14.2426 110.302 13.0622 110.302C11.8818 110.302 10.9375 110.141 10.9375 109.948Z" fill="#263238"/>
<path d="M4.55781 107.468C4.75535 107.468 4.91997 108.418 4.91997 109.606V109.928L4.57424 109.555C5.5784 109.555 6.33566 109.741 6.33566 109.928C6.33566 110.115 5.5784 110.267 4.57424 110.301H4.21207V109.606C4.19561 108.418 4.36027 107.468 4.55781 107.468Z" fill="#263238"/>
<path d="M4.56506 98.9697C4.75821 98.9697 4.91918 99.9141 4.91918 101.094C4.91918 102.275 4.75821 103.219 4.56506 103.219C4.3719 103.219 4.21094 102.275 4.21094 101.094C4.21094 99.9141 4.3719 98.9697 4.56506 98.9697Z" fill="#263238"/>
<path d="M4.56506 90.4712C4.75821 90.4712 4.91918 91.4155 4.91918 92.5959C4.91918 93.7763 4.75821 94.7206 4.56506 94.7206C4.3719 94.7206 4.21094 93.7763 4.21094 92.5959C4.21094 91.4155 4.3719 90.4712 4.56506 90.4712Z" fill="#263238"/>
<path d="M4.56506 81.9722C4.75821 81.9722 4.91918 82.9165 4.91918 84.0969C4.91918 85.2773 4.75821 86.2216 4.56506 86.2216C4.3719 86.2216 4.21094 85.2773 4.21094 84.0969C4.21094 82.9165 4.3719 81.9722 4.56506 81.9722Z" fill="#263238"/>
<path d="M4.56506 73.1191C4.75821 73.1191 4.91918 74.1563 4.91918 75.43C4.91918 76.7037 4.75821 77.7227 4.56506 77.7227C4.3719 77.7227 4.21094 76.6855 4.21094 75.43C4.21094 74.1745 4.3719 73.1191 4.56506 73.1191Z" fill="#263238"/>
<path d="M4.56506 64.6201C4.75821 64.6201 4.91918 65.5775 4.91918 66.7532C4.91918 67.929 4.75821 68.8696 4.56506 68.8696C4.3719 68.8696 4.21094 67.9122 4.21094 66.7532C4.21094 65.5943 4.3719 64.6201 4.56506 64.6201Z" fill="#263238"/>
<path d="M4.56506 56.1211C4.75821 56.1211 4.91918 57.0785 4.91918 58.2542C4.91918 59.43 4.75821 60.3705 4.56506 60.3705C4.3719 60.3705 4.21094 59.4132 4.21094 58.2542C4.21094 57.0953 4.3719 56.1211 4.56506 56.1211Z" fill="#263238"/>
<path d="M4.56506 47.6226C4.75821 47.6226 4.91918 48.5799 4.91918 49.7557C4.91918 50.9314 4.75821 51.872 4.56506 51.872C4.3719 51.872 4.21094 50.9146 4.21094 49.7557C4.21094 48.5967 4.3719 47.6226 4.56506 47.6226Z" fill="#263238"/>
<path d="M4.56506 39.1235C4.75821 39.1235 4.91918 40.0809 4.91918 41.2399C4.91918 42.3988 4.75821 43.373 4.56506 43.373C4.3719 43.373 4.21094 42.4156 4.21094 41.2399C4.21094 40.0641 4.3719 39.1235 4.56506 39.1235Z" fill="#263238"/>
<path d="M4.56506 30.2705C4.75821 30.2705 4.91918 31.2279 4.91918 32.3868C4.91918 33.5458 4.75821 34.5199 4.56506 34.5199C4.3719 34.5199 4.21094 33.5626 4.21094 32.3868C4.21094 31.2111 4.3719 30.2705 4.56506 30.2705Z" fill="#263238"/>
<path d="M4.56506 21.7715C4.75821 21.7715 4.91918 22.7289 4.91918 23.8878C4.91918 25.0467 4.75821 26.0209 4.56506 26.0209C4.3719 26.0209 4.21094 25.0635 4.21094 23.8878C4.21094 22.7121 4.3719 21.7715 4.56506 21.7715Z" fill="#263238"/>
<path d="M4.56506 13.2725C4.75821 13.2725 4.91918 14.2298 4.91918 15.3888C4.91918 16.5477 4.75821 17.5219 4.56506 17.5219C4.3719 17.5219 4.21094 16.5645 4.21094 15.3888C4.21094 14.2131 4.3719 13.2725 4.56506 13.2725Z" fill="#263238"/>
<path d="M5.2733 5.43015C5.2733 5.53089 5.00795 5.61485 4.60109 5.68201L4.86642 5.43015C4.95158 5.91846 4.99301 6.41274 4.99026 6.90768C4.99026 8.083 4.81337 9.02325 4.60109 9.02325C4.38882 9.02325 4.21193 8.083 4.21193 6.90768C4.2044 6.41324 4.23989 5.91905 4.31806 5.43015V5.12793H4.54803C5.02564 5.22867 5.2733 5.32941 5.2733 5.43015Z" fill="#263238"/>
<path d="M13.769 5.30511C13.769 5.59484 12.8116 5.83629 11.6359 5.83629C10.4601 5.83629 9.51953 5.59484 9.51953 5.30511C9.51953 5.01537 10.4769 4.77393 11.6359 4.77393C12.7948 4.77393 13.769 5.01537 13.769 5.30511Z" fill="#263238"/>
<path d="M22.269 5.30511C22.269 5.59484 21.3116 5.83629 20.1359 5.83629C18.9601 5.83629 18.0195 5.59484 18.0195 5.30511C18.0195 5.01537 18.9769 4.77393 20.1359 4.77393C21.2948 4.77393 22.269 5.01537 22.269 5.30511Z" fill="#263238"/>
<path d="M31.1205 5.30511C31.1205 5.59484 30.1631 5.83629 29.0042 5.83629C27.8453 5.83629 26.8711 5.59484 26.8711 5.30511C26.8711 5.01537 27.8285 4.77393 29.0042 4.77393C30.1799 4.77393 31.1205 5.01537 31.1205 5.30511Z" fill="#263238"/>
<path d="M39.6205 5.30511C39.6205 5.59484 38.6631 5.83629 37.5042 5.83629C36.3453 5.83629 35.3711 5.59484 35.3711 5.30511C35.3711 5.01537 36.3285 4.77393 37.5042 4.77393C38.6799 4.77393 39.6205 5.01537 39.6205 5.30511Z" fill="#263238"/>
<path d="M48.1205 5.30511C48.1205 5.59484 47.1631 5.83629 46.0042 5.83629C44.8453 5.83629 43.8711 5.59484 43.8711 5.30511C43.8711 5.01537 44.8285 4.77393 46.0042 4.77393C47.1799 4.77393 48.1205 5.01537 48.1205 5.30511Z" fill="#263238"/>
<path d="M56.6205 5.30511C56.6205 5.59484 55.6631 5.83629 54.5042 5.83629C53.3453 5.83629 52.3711 5.59484 52.3711 5.30511C52.3711 5.01537 53.3285 4.77393 54.5042 4.77393C55.6799 4.77393 56.6205 5.01537 56.6205 5.30511Z" fill="#263238"/>
<path d="M65.4707 5.30511C65.4707 5.59484 64.4478 5.83629 63.169 5.83629C61.8902 5.83629 60.8672 5.59484 60.8672 5.30511C60.8672 5.01537 61.8902 4.77393 63.169 4.77393C64.4478 4.77393 65.4707 5.01537 65.4707 5.30511Z" fill="#263238"/>
<path d="M73.9721 5.30511C73.9721 5.59484 73.0278 5.83629 71.8474 5.83629C70.667 5.83629 69.7227 5.59484 69.7227 5.30511C69.7227 5.01537 70.667 4.77393 71.8474 4.77393C73.0278 4.77393 73.9721 5.01537 73.9721 5.30511Z" fill="#263238"/>
<path d="M82.4682 5.30511C82.4682 5.59484 81.5238 5.83629 80.3434 5.83629C79.163 5.83629 78.2188 5.59484 78.2188 5.30511C78.2188 5.01537 79.163 4.77393 80.3434 4.77393C81.5238 4.77393 82.4682 5.01537 82.4682 5.30511Z" fill="#263238"/>
<path d="M90.9682 5.30511C90.9682 5.59484 90.0239 5.83629 88.8435 5.83629C87.6631 5.83629 86.7188 5.59484 86.7188 5.30511C86.7188 5.01537 87.6631 4.77393 88.8435 4.77393C90.0239 4.77393 90.9682 5.01537 90.9682 5.30511Z" fill="#263238"/>
<path d="M99.4682 5.30511C99.4682 5.59484 98.5238 5.83629 97.3434 5.83629C96.163 5.83629 95.2188 5.59484 95.2188 5.30511C95.2188 5.01537 96.163 4.77393 97.3434 4.77393C98.5238 4.77393 99.4682 5.01537 99.4682 5.30511Z" fill="#263238"/>
<path d="M108.32 5.30511C108.32 5.59484 107.375 5.83629 106.195 5.83629C105.015 5.83629 104.07 5.59484 104.07 5.30511C104.07 5.01537 105.015 4.77393 106.195 4.77393C107.375 4.77393 108.32 5.01537 108.32 5.30511Z" fill="#263238"/>
<path d="M109.381 12.9185C109.188 12.9185 109.027 11.8955 109.027 10.6167C109.027 9.33795 109.188 8.31494 109.381 8.31494C109.575 8.31494 109.736 9.33795 109.736 10.6167C109.736 11.8955 109.575 12.9185 109.381 12.9185Z" fill="#263238"/>
<path d="M109.381 21.4175C109.188 21.4175 109.027 20.3945 109.027 19.1157C109.027 17.837 109.188 16.814 109.381 16.814C109.575 16.814 109.736 17.837 109.736 19.1157C109.736 20.3945 109.575 21.4175 109.381 21.4175Z" fill="#263238"/>
<path d="M109.381 29.9164C109.188 29.9164 109.027 28.9721 109.027 27.7917C109.027 26.6113 109.188 25.667 109.381 25.667C109.575 25.667 109.736 26.6113 109.736 27.7917C109.736 28.9721 109.575 29.9164 109.381 29.9164Z" fill="#263238"/>
<path d="M109.381 38.4155C109.188 38.4155 109.027 37.4711 109.027 36.2907C109.027 35.1103 109.188 34.166 109.381 34.166C109.575 34.166 109.736 35.1103 109.736 36.2907C109.736 37.4711 109.575 38.4155 109.381 38.4155Z" fill="#263238"/>
<path d="M109.381 46.914C109.188 46.914 109.027 45.9566 109.027 44.7809C109.027 43.6051 109.188 42.6646 109.381 42.6646C109.575 42.6646 109.736 43.6219 109.736 44.7809C109.736 45.9398 109.575 46.914 109.381 46.914Z" fill="#263238"/>
<path d="M109.381 55.7671C109.188 55.7671 109.027 54.73 109.027 53.4562C109.027 52.1825 109.188 51.1636 109.381 51.1636C109.575 51.1636 109.736 52.2007 109.736 53.4562C109.736 54.7118 109.575 55.7671 109.381 55.7671Z" fill="#263238"/>
<path d="M109.381 64.266C109.188 64.266 109.027 63.3087 109.027 62.1329C109.027 60.9572 109.188 60.0166 109.381 60.0166C109.575 60.0166 109.736 60.974 109.736 62.1329C109.736 63.2919 109.575 64.266 109.381 64.266Z" fill="#263238"/>
<path d="M109.381 72.7646C109.188 72.7646 109.027 71.8072 109.027 70.6315C109.027 69.4557 109.188 68.5151 109.381 68.5151C109.575 68.5151 109.736 69.4725 109.736 70.6315C109.736 71.7904 109.575 72.7646 109.381 72.7646Z" fill="#263238"/>
<path d="M109.381 81.2636C109.188 81.2636 109.027 80.3062 109.027 79.1473C109.027 77.9883 109.188 77.0142 109.381 77.0142C109.575 77.0142 109.736 77.9715 109.736 79.1473C109.736 80.323 109.575 81.2636 109.381 81.2636Z" fill="#263238"/>
<path d="M109.381 89.7626C109.188 89.7626 109.027 88.8052 109.027 87.6463C109.027 86.4874 109.188 85.5132 109.381 85.5132C109.575 85.5132 109.736 86.4706 109.736 87.6463C109.736 88.822 109.575 89.7626 109.381 89.7626Z" fill="#263238"/>
<path d="M109.381 98.6158C109.188 98.6158 109.027 97.5786 109.027 96.3231C109.027 95.0676 109.188 94.0122 109.381 94.0122C109.575 94.0122 109.736 95.0494 109.736 96.3231C109.736 97.5968 109.575 98.6158 109.381 98.6158Z" fill="#263238"/>
<path d="M109.381 107.115C109.188 107.115 109.027 106.157 109.027 104.998C109.027 103.839 109.188 102.865 109.381 102.865C109.575 102.865 109.736 103.823 109.736 104.998C109.736 106.174 109.575 107.115 109.381 107.115Z" fill="#263238"/>
<path d="M113.279 104.99H105.488V112.78H113.279V104.99Z" fill="#263238"/>
<path d="M8.45861 106.052H0.667969V113.843H8.45861V106.052Z" fill="#263238"/>
<path d="M113.279 0.524414H105.488V8.31505H113.279V0.524414Z" fill="#263238"/>
<path d="M8.45861 1.58691H0.667969V9.02343H8.45861V1.58691Z" fill="#263238"/>
<path fill-rule="evenodd" clip-rule="evenodd" d="M182.554 88.1565C198.373 88.1565 211.196 75.3331 211.196 59.5147C211.196 43.6962 198.373 30.8729 182.554 30.8729C166.736 30.8729 153.912 43.6963 153.912 59.5147C153.912 75.3331 166.736 88.1565 182.554 88.1565ZM215.456 59.5147C215.456 77.6859 200.725 92.4166 182.554 92.4166C164.383 92.4166 149.652 77.6859 149.652 59.5147C149.652 41.3435 164.383 26.6128 182.554 26.6128C200.725 26.6128 215.456 41.3435 215.456 59.5147Z" fill="#F157D8"/>
<path d="M207.985 59.7395C207.985 73.5315 196.711 84.726 182.785 84.726C168.86 84.726 157.586 73.5315 157.586 59.7395C157.586 45.9475 168.86 34.7529 182.785 34.7529C196.711 34.7529 207.985 45.9475 207.985 59.7395Z" fill="#ECF1FF" stroke="#DADADA" stroke-width="2"/>
<path d="M212.574 92.4174C212.574 92.2965 213.173 92.1958 213.909 92.1958C214.644 92.1958 215.233 92.2965 215.233 92.4174C215.233 92.5382 214.634 92.6389 213.909 92.6389C213.184 92.6389 212.574 92.5382 212.574 92.4174Z" fill="#263238"/>
<path d="M207.258 92.4174C207.258 92.2965 207.857 92.1958 208.592 92.1958C209.328 92.1958 209.917 92.2965 209.917 92.4174C209.917 92.5382 209.318 92.6389 208.592 92.6389C207.867 92.6389 207.258 92.5382 207.258 92.4174Z" fill="#263238"/>
<path d="M201.719 92.4174C201.719 92.2965 202.368 92.1958 203.165 92.1958C203.962 92.1958 204.599 92.2965 204.599 92.4174C204.599 92.5382 203.95 92.6389 203.165 92.6389C202.379 92.6389 201.719 92.5382 201.719 92.4174Z" fill="#263238"/>
<path d="M196.402 92.4174C196.402 92.2965 197.001 92.1958 197.737 92.1958C198.473 92.1958 199.061 92.2965 199.061 92.4174C199.061 92.5382 198.462 92.6389 197.737 92.6389C197.012 92.6389 196.402 92.5382 196.402 92.4174Z" fill="#263238"/>
<path d="M191.086 92.4174C191.086 92.2965 191.685 92.1958 192.41 92.1958C193.135 92.1958 193.745 92.2965 193.745 92.4174C193.745 92.5382 193.146 92.6389 192.41 92.6389C191.674 92.6389 191.086 92.5382 191.086 92.4174Z" fill="#263238"/>
<path d="M185.766 92.4174C185.766 92.2965 186.365 92.1958 187.09 92.1958C187.815 92.1958 188.424 92.2965 188.424 92.4174C188.424 92.5382 187.825 92.6389 187.09 92.6389C186.354 92.6389 185.766 92.5382 185.766 92.4174Z" fill="#263238"/>
<path d="M180.449 92.4174C180.449 92.2965 181.048 92.1958 181.773 92.1958C182.498 92.1958 183.108 92.2965 183.108 92.4174C183.108 92.5382 182.509 92.6389 181.773 92.6389C181.038 92.6389 180.449 92.5382 180.449 92.4174Z" fill="#263238"/>
<path d="M174.91 92.4174C174.91 92.2965 175.548 92.1958 176.345 92.1958C177.142 92.1958 177.79 92.2965 177.79 92.4174C177.79 92.5382 177.142 92.6389 176.345 92.6389C175.548 92.6389 174.91 92.5382 174.91 92.4174Z" fill="#263238"/>
<path d="M169.594 92.4174C169.594 92.2965 170.185 92.1958 170.923 92.1958C171.662 92.1958 172.252 92.2965 172.252 92.4174C172.252 92.5382 171.662 92.6389 170.923 92.6389C170.185 92.6389 169.594 92.5382 169.594 92.4174Z" fill="#263238"/>
<path d="M164.273 92.4174C164.273 92.2965 164.864 92.1958 165.603 92.1958C166.341 92.1958 166.932 92.2965 166.932 92.4174C166.932 92.5382 166.341 92.6389 165.603 92.6389C164.864 92.6389 164.273 92.5382 164.273 92.4174Z" fill="#263238"/>
<path d="M158.957 92.4174C158.957 92.2965 159.548 92.1958 160.286 92.1958C161.025 92.1958 161.616 92.2965 161.616 92.4174C161.616 92.5382 161.025 92.6389 160.286 92.6389C159.548 92.6389 158.957 92.5382 158.957 92.4174Z" fill="#263238"/>
<path d="M153.641 92.4174C153.641 92.2965 154.231 92.1958 154.97 92.1958C155.709 92.1958 156.299 92.2965 156.299 92.4174C156.299 92.5382 155.709 92.6389 154.97 92.6389C154.231 92.6389 153.641 92.5382 153.641 92.4174Z" fill="#263238"/>
<path d="M149.647 90.8657C149.77 90.8657 149.873 91.4601 149.873 92.2031V92.4047L149.657 92.1712C150.285 92.1712 150.759 92.288 150.759 92.4047C150.759 92.5215 150.285 92.617 149.657 92.6382H149.43V92.2031C149.42 91.4601 149.523 90.8657 149.647 90.8657Z" fill="#263238"/>
<path d="M149.651 85.5493C149.772 85.5493 149.873 86.1402 149.873 86.8787C149.873 87.6172 149.772 88.2081 149.651 88.2081C149.53 88.2081 149.43 87.6172 149.43 86.8787C149.43 86.1402 149.53 85.5493 149.651 85.5493Z" fill="#263238"/>
<path d="M149.651 80.2305C149.772 80.2305 149.873 80.8213 149.873 81.5598C149.873 82.2984 149.772 82.8892 149.651 82.8892C149.53 82.8892 149.43 82.2984 149.43 81.5598C149.43 80.8213 149.53 80.2305 149.651 80.2305Z" fill="#263238"/>
<path d="M149.651 74.9141C149.772 74.9141 149.873 75.5049 149.873 76.2434C149.873 76.982 149.772 77.5728 149.651 77.5728C149.53 77.5728 149.43 76.982 149.43 76.2434C149.43 75.5049 149.53 74.9141 149.651 74.9141Z" fill="#263238"/>
<path d="M149.651 69.375C149.772 69.375 149.873 70.0239 149.873 70.8208C149.873 71.6178 149.772 72.2553 149.651 72.2553C149.53 72.2553 149.43 71.6064 149.43 70.8208C149.43 70.0353 149.53 69.375 149.651 69.375Z" fill="#263238"/>
<path d="M149.651 64.0576C149.772 64.0576 149.873 64.6566 149.873 65.3922C149.873 66.1279 149.772 66.7164 149.651 66.7164C149.53 66.7164 149.43 66.1173 149.43 65.3922C149.43 64.6671 149.53 64.0576 149.651 64.0576Z" fill="#263238"/>
<path d="M149.651 58.7397C149.772 58.7397 149.873 59.3388 149.873 60.0744C149.873 60.81 149.772 61.3985 149.651 61.3985C149.53 61.3985 149.43 60.7995 149.43 60.0744C149.43 59.3493 149.53 58.7397 149.651 58.7397Z" fill="#263238"/>
<path d="M149.651 53.4224C149.772 53.4224 149.873 54.0214 149.873 54.757C149.873 55.4926 149.772 56.0811 149.651 56.0811C149.53 56.0811 149.43 55.4821 149.43 54.757C149.43 54.0319 149.53 53.4224 149.651 53.4224Z" fill="#263238"/>
<path d="M149.651 48.1045C149.772 48.1045 149.873 48.7035 149.873 49.4286C149.873 50.1537 149.772 50.7632 149.651 50.7632C149.53 50.7632 149.43 50.1642 149.43 49.4286C149.43 48.693 149.53 48.1045 149.651 48.1045Z" fill="#263238"/>
<path d="M149.651 42.5654C149.772 42.5654 149.873 43.1644 149.873 43.8895C149.873 44.6147 149.772 45.2242 149.651 45.2242C149.53 45.2242 149.43 44.6252 149.43 43.8895C149.43 43.1539 149.53 42.5654 149.651 42.5654Z" fill="#263238"/>
<path d="M149.651 37.248C149.772 37.248 149.873 37.847 149.873 38.5722C149.873 39.2973 149.772 39.9068 149.651 39.9068C149.53 39.9068 149.43 39.3078 149.43 38.5722C149.43 37.8365 149.53 37.248 149.651 37.248Z" fill="#263238"/>
<path d="M149.651 31.9316C149.772 31.9316 149.873 32.5306 149.873 33.2558C149.873 33.9809 149.772 34.5904 149.651 34.5904C149.53 34.5904 149.43 33.9914 149.43 33.2558C149.43 32.5201 149.53 31.9316 149.651 31.9316Z" fill="#263238"/>
<path d="M150.094 27.0241C150.094 27.0871 149.928 27.1396 149.674 27.1816L149.84 27.0241C149.893 27.3296 149.919 27.6388 149.917 27.9485C149.917 28.6839 149.807 29.2721 149.674 29.2721C149.541 29.2721 149.43 28.6839 149.43 27.9485C149.426 27.6391 149.448 27.3299 149.497 27.0241V26.835H149.641C149.939 26.898 150.094 26.961 150.094 27.0241Z" fill="#263238"/>
<path d="M155.413 26.9451C155.413 27.1264 154.814 27.2775 154.078 27.2775C153.342 27.2775 152.754 27.1264 152.754 26.9451C152.754 26.7639 153.353 26.6128 154.078 26.6128C154.803 26.6128 155.413 26.7639 155.413 26.9451Z" fill="#263238"/>
<path d="M160.729 26.9451C160.729 27.1264 160.13 27.2775 159.394 27.2775C158.659 27.2775 158.07 27.1264 158.07 26.9451C158.07 26.7639 158.669 26.6128 159.394 26.6128C160.12 26.6128 160.729 26.7639 160.729 26.9451Z" fill="#263238"/>
<path d="M166.268 26.9451C166.268 27.1264 165.669 27.2775 164.944 27.2775C164.219 27.2775 163.609 27.1264 163.609 26.9451C163.609 26.7639 164.208 26.6128 164.944 26.6128C165.68 26.6128 166.268 26.7639 166.268 26.9451Z" fill="#263238"/>
<path d="M171.588 26.9451C171.588 27.1264 170.989 27.2775 170.264 27.2775C169.539 27.2775 168.93 27.1264 168.93 26.9451C168.93 26.7639 169.529 26.6128 170.264 26.6128C171 26.6128 171.588 26.7639 171.588 26.9451Z" fill="#263238"/>
<path d="M176.905 26.9451C176.905 27.1264 176.306 27.2775 175.581 27.2775C174.856 27.2775 174.246 27.1264 174.246 26.9451C174.246 26.7639 174.845 26.6128 175.581 26.6128C176.316 26.6128 176.905 26.7639 176.905 26.9451Z" fill="#263238"/>
<path d="M182.221 26.9451C182.221 27.1264 181.622 27.2775 180.897 27.2775C180.172 27.2775 179.562 27.1264 179.562 26.9451C179.562 26.7639 180.161 26.6128 180.897 26.6128C181.633 26.6128 182.221 26.7639 182.221 26.9451Z" fill="#263238"/>
<path d="M187.759 26.9451C187.759 27.1264 187.119 27.2775 186.319 27.2775C185.519 27.2775 184.879 27.1264 184.879 26.9451C184.879 26.7639 185.519 26.6128 186.319 26.6128C187.119 26.6128 187.759 26.7639 187.759 26.9451Z" fill="#263238"/>
<path d="M193.077 26.9451C193.077 27.1264 192.486 27.2775 191.747 27.2775C191.009 27.2775 190.418 27.1264 190.418 26.9451C190.418 26.7639 191.009 26.6128 191.747 26.6128C192.486 26.6128 193.077 26.7639 193.077 26.9451Z" fill="#263238"/>
<path d="M198.397 26.9451C198.397 27.1264 197.806 27.2775 197.068 27.2775C196.329 27.2775 195.738 27.1264 195.738 26.9451C195.738 26.7639 196.329 26.6128 197.068 26.6128C197.806 26.6128 198.397 26.7639 198.397 26.9451Z" fill="#263238"/>
<path d="M203.713 26.9451C203.713 27.1264 203.123 27.2775 202.384 27.2775C201.646 27.2775 201.055 27.1264 201.055 26.9451C201.055 26.7639 201.646 26.6128 202.384 26.6128C203.123 26.6128 203.713 26.7639 203.713 26.9451Z" fill="#263238"/>
<path d="M209.03 26.9451C209.03 27.1264 208.439 27.2775 207.7 27.2775C206.962 27.2775 206.371 27.1264 206.371 26.9451C206.371 26.7639 206.962 26.6128 207.7 26.6128C208.439 26.6128 209.03 26.7639 209.03 26.9451Z" fill="#263238"/>
<path d="M214.569 26.9451C214.569 27.1264 213.978 27.2775 213.24 27.2775C212.501 27.2775 211.91 27.1264 211.91 26.9451C211.91 26.7639 212.501 26.6128 213.24 26.6128C213.978 26.6128 214.569 26.7639 214.569 26.9451Z" fill="#263238"/>
<path d="M215.233 31.7089C215.112 31.7089 215.012 31.0688 215.012 30.2688C215.012 29.4687 215.112 28.8286 215.233 28.8286C215.354 28.8286 215.455 29.4687 215.455 30.2688C215.455 31.0688 215.354 31.7089 215.233 31.7089Z" fill="#263238"/>
<path d="M215.233 37.0273C215.112 37.0273 215.012 36.3872 215.012 35.5871C215.012 34.787 215.112 34.147 215.233 34.147C215.354 34.147 215.455 34.787 215.455 35.5871C215.455 36.3872 215.354 37.0273 215.233 37.0273Z" fill="#263238"/>
<path d="M215.233 42.3448C215.112 42.3448 215.012 41.7539 215.012 41.0154C215.012 40.2769 215.112 39.686 215.233 39.686C215.354 39.686 215.455 40.2769 215.455 41.0154C215.455 41.7539 215.354 42.3448 215.233 42.3448Z" fill="#263238"/>
<path d="M215.233 47.6617C215.112 47.6617 215.012 47.0708 215.012 46.3323C215.012 45.5938 215.112 45.0029 215.233 45.0029C215.354 45.0029 215.455 45.5938 215.455 46.3323C215.455 47.0708 215.354 47.6617 215.233 47.6617Z" fill="#263238"/>
<path d="M215.233 52.9786C215.112 52.9786 215.012 52.3796 215.012 51.6439C215.012 50.9083 215.112 50.3198 215.233 50.3198C215.354 50.3198 215.455 50.9188 215.455 51.6439C215.455 52.3691 215.354 52.9786 215.233 52.9786Z" fill="#263238"/>
<path d="M215.233 58.5185C215.112 58.5185 215.012 57.8696 215.012 57.0726C215.012 56.2757 215.112 55.6382 215.233 55.6382C215.354 55.6382 215.455 56.2871 215.455 57.0726C215.455 57.8582 215.354 58.5185 215.233 58.5185Z" fill="#263238"/>
<path d="M215.233 63.836C215.112 63.836 215.012 63.237 215.012 62.5014C215.012 61.7657 215.112 61.1772 215.233 61.1772C215.354 61.1772 215.455 61.7763 215.455 62.5014C215.455 63.2265 215.354 63.836 215.233 63.836Z" fill="#263238"/>
<path d="M215.233 69.1529C215.112 69.1529 215.012 68.5539 215.012 67.8183C215.012 67.0826 215.112 66.4941 215.233 66.4941C215.354 66.4941 215.455 67.0931 215.455 67.8183C215.455 68.5434 215.354 69.1529 215.233 69.1529Z" fill="#263238"/>
<path d="M215.233 74.4712C215.112 74.4712 215.012 73.8722 215.012 73.1471C215.012 72.422 215.112 71.8125 215.233 71.8125C215.354 71.8125 215.455 72.4115 215.455 73.1471C215.455 73.8827 215.354 74.4712 215.233 74.4712Z" fill="#263238"/>
<path d="M215.233 79.7881C215.112 79.7881 215.012 79.1891 215.012 78.464C215.012 77.7389 215.112 77.1294 215.233 77.1294C215.354 77.1294 215.455 77.7284 215.455 78.464C215.455 79.1996 215.354 79.7881 215.233 79.7881Z" fill="#263238"/>
<path d="M215.233 85.3266C215.112 85.3266 215.012 84.6777 215.012 83.8921C215.012 83.1066 215.112 82.4463 215.233 82.4463C215.354 82.4463 215.455 83.0952 215.455 83.8921C215.455 84.6891 215.354 85.3266 215.233 85.3266Z" fill="#263238"/>
<path d="M215.233 90.6441C215.112 90.6441 215.012 90.0451 215.012 89.32C215.012 88.5949 215.112 87.9854 215.233 87.9854C215.354 87.9854 215.455 88.5843 215.455 89.32C215.455 90.0556 215.354 90.6441 215.233 90.6441Z" fill="#263238"/>
<path d="M217.671 89.3154H212.797V94.1898H217.671V89.3154Z" fill="#263238"/>
<path d="M152.089 89.98H147.215V94.8543H152.089V89.98Z" fill="#263238"/>
<path d="M217.671 23.9546H212.797V28.8289H217.671V23.9546Z" fill="#263238"/>
<path d="M152.089 24.6196H147.215V29.2724H152.089V24.6196Z" fill="#263238"/>
<path fill-rule="evenodd" clip-rule="evenodd" d="M140.841 223.057C162.727 223.057 180.469 205.315 180.469 183.429C180.469 161.543 162.727 143.801 140.841 143.801C118.955 143.801 101.213 161.543 101.213 183.429C101.213 205.315 118.955 223.057 140.841 223.057ZM184.73 183.429C184.73 207.668 165.08 227.317 140.841 227.317C116.603 227.317 96.9531 207.668 96.9531 183.429C96.9531 159.19 116.603 139.541 140.841 139.541C165.08 139.541 184.73 159.19 184.73 183.429Z" fill="#8C30F5"/>
<path d="M176.035 184.134C176.035 203.574 160.181 219.344 140.611 219.344C121.042 219.344 105.188 203.574 105.188 184.134C105.188 164.693 121.042 148.923 140.611 148.923C160.181 148.923 176.035 164.693 176.035 184.134Z" fill="#ECF1FF" stroke="#DADADA" stroke-width="2"/>
<path d="M184.297 227.319C184.297 227.158 185.096 227.023 186.077 227.023C187.058 227.023 187.843 227.158 187.843 227.319C187.843 227.48 187.044 227.615 186.077 227.615C185.11 227.615 184.297 227.48 184.297 227.319Z" fill="#263238"/>
<path d="M177.203 227.319C177.203 227.158 178.002 227.023 178.983 227.023C179.965 227.023 180.75 227.158 180.75 227.319C180.75 227.48 179.951 227.615 178.983 227.615C178.016 227.615 177.203 227.48 177.203 227.319Z" fill="#263238"/>
<path d="M169.816 227.319C169.816 227.158 170.682 227.023 171.745 227.023C172.808 227.023 173.658 227.158 173.658 227.319C173.658 227.48 172.793 227.615 171.745 227.615C170.697 227.615 169.816 227.48 169.816 227.319Z" fill="#263238"/>
<path d="M162.723 227.319C162.723 227.158 163.522 227.023 164.503 227.023C165.484 227.023 166.269 227.158 166.269 227.319C166.269 227.48 165.47 227.615 164.503 227.615C163.536 227.615 162.723 227.48 162.723 227.319Z" fill="#263238"/>
<path d="M155.629 227.319C155.629 227.158 156.428 227.023 157.395 227.023C158.362 227.023 159.175 227.158 159.175 227.319C159.175 227.48 158.376 227.615 157.395 227.615C156.414 227.615 155.629 227.48 155.629 227.319Z" fill="#263238"/>
<path d="M148.535 227.319C148.535 227.158 149.334 227.023 150.301 227.023C151.269 227.023 152.082 227.158 152.082 227.319C152.082 227.48 151.283 227.615 150.301 227.615C149.32 227.615 148.535 227.48 148.535 227.319Z" fill="#263238"/>
<path d="M141.441 227.319C141.441 227.158 142.24 227.023 143.208 227.023C144.175 227.023 144.988 227.158 144.988 227.319C144.988 227.48 144.189 227.615 143.208 227.615C142.226 227.615 141.441 227.48 141.441 227.319Z" fill="#263238"/>
<path d="M134.055 227.319C134.055 227.158 134.905 227.023 135.968 227.023C137.031 227.023 137.897 227.158 137.897 227.319C137.897 227.48 137.031 227.615 135.968 227.615C134.905 227.615 134.055 227.48 134.055 227.319Z" fill="#263238"/>
<path d="M126.961 227.319C126.961 227.158 127.749 227.023 128.734 227.023C129.719 227.023 130.507 227.158 130.507 227.319C130.507 227.48 129.719 227.615 128.734 227.615C127.749 227.615 126.961 227.48 126.961 227.319Z" fill="#263238"/>
<path d="M119.867 227.319C119.867 227.158 120.655 227.023 121.64 227.023C122.626 227.023 123.414 227.158 123.414 227.319C123.414 227.48 122.626 227.615 121.64 227.615C120.655 227.615 119.867 227.48 119.867 227.319Z" fill="#263238"/>
<path d="M112.773 227.319C112.773 227.158 113.562 227.023 114.547 227.023C115.532 227.023 116.32 227.158 116.32 227.319C116.32 227.48 115.532 227.615 114.547 227.615C113.562 227.615 112.773 227.48 112.773 227.319Z" fill="#263238"/>
<path d="M105.684 227.319C105.684 227.158 106.472 227.023 107.457 227.023C108.442 227.023 109.23 227.158 109.23 227.319C109.23 227.48 108.442 227.615 107.457 227.615C106.472 227.615 105.684 227.48 105.684 227.319Z" fill="#263238"/>
<path d="M100.356 225.25C100.521 225.25 100.658 226.043 100.658 227.034V227.303L100.37 226.991C101.208 226.991 101.84 227.147 101.84 227.303C101.84 227.459 101.208 227.586 100.37 227.614H100.067V227.034C100.054 226.043 100.191 225.25 100.356 225.25Z" fill="#263238"/>
<path d="M100.362 218.158C100.523 218.158 100.657 218.946 100.657 219.931C100.657 220.916 100.523 221.704 100.362 221.704C100.201 221.704 100.066 220.916 100.066 219.931C100.066 218.946 100.201 218.158 100.362 218.158Z" fill="#263238"/>
<path d="M96.9557 211.063C97.1169 211.063 97.2512 211.852 97.2512 212.837C97.2512 213.822 97.1169 214.61 96.9557 214.61C96.7945 214.61 96.6602 213.822 96.6602 212.837C96.6602 211.852 96.7945 211.063 96.9557 211.063Z" fill="#263238"/>
<path d="M96.9557 203.972C97.1169 203.972 97.2512 204.76 97.2512 205.745C97.2512 206.73 97.1169 207.518 96.9557 207.518C96.7945 207.518 96.6602 206.73 96.6602 205.745C96.6602 204.76 96.7945 203.972 96.9557 203.972Z" fill="#263238"/>
<path d="M96.9557 196.582C97.1169 196.582 97.2512 197.447 97.2512 198.51C97.2512 199.573 97.1169 200.424 96.9557 200.424C96.7945 200.424 96.6602 199.558 96.6602 198.51C96.6602 197.462 96.7945 196.582 96.9557 196.582Z" fill="#263238"/>
<path d="M96.9557 189.49C97.1169 189.49 97.2512 190.289 97.2512 191.27C97.2512 192.251 97.1169 193.036 96.9557 193.036C96.7945 193.036 96.6602 192.237 96.6602 191.27C96.6602 190.303 96.7945 189.49 96.9557 189.49Z" fill="#263238"/>
<path d="M96.9557 182.395C97.1169 182.395 97.2512 183.194 97.2512 184.175C97.2512 185.157 97.1169 185.942 96.9557 185.942C96.7945 185.942 96.6602 185.143 96.6602 184.175C96.6602 183.208 96.7945 182.395 96.9557 182.395Z" fill="#263238"/>
<path d="M96.9557 175.303C97.1169 175.303 97.2512 176.102 97.2512 177.083C97.2512 178.065 97.1169 178.85 96.9557 178.85C96.7945 178.85 96.6602 178.051 96.6602 177.083C96.6602 176.116 96.7945 175.303 96.9557 175.303Z" fill="#263238"/>
<path d="M96.9557 168.209C97.1169 168.209 97.2512 169.008 97.2512 169.975C97.2512 170.942 97.1169 171.756 96.9557 171.756C96.7945 171.756 96.6602 170.956 96.6602 169.975C96.6602 168.994 96.7945 168.209 96.9557 168.209Z" fill="#263238"/>
<path d="M96.9557 160.821C97.1169 160.821 97.2512 161.62 97.2512 162.588C97.2512 163.555 97.1169 164.368 96.9557 164.368C96.7945 164.368 96.6602 163.569 96.6602 162.588C96.6602 161.606 96.7945 160.821 96.9557 160.821Z" fill="#263238"/>
<path d="M96.9557 153.729C97.1169 153.729 97.2512 154.528 97.2512 155.495C97.2512 156.462 97.1169 157.276 96.9557 157.276C96.7945 157.276 96.6602 156.477 96.6602 155.495C96.6602 154.514 96.7945 153.729 96.9557 153.729Z" fill="#263238"/>
<path d="M96.9557 146.635C97.1169 146.635 97.2512 147.434 97.2512 148.402C97.2512 149.369 97.1169 150.182 96.9557 150.182C96.7945 150.182 96.6602 149.383 96.6602 148.402C96.6602 147.42 96.7945 146.635 96.9557 146.635Z" fill="#263238"/>
<path d="M97.5468 140.09C97.5468 140.174 97.3253 140.244 96.9858 140.3L97.2072 140.09C97.2783 140.498 97.3129 140.91 97.3106 141.323C97.3106 142.304 97.1629 143.089 96.9858 143.089C96.8086 143.089 96.661 142.304 96.661 141.323C96.6547 140.911 96.6843 140.498 96.7496 140.09V139.838H96.9415C97.3401 139.922 97.5468 140.006 97.5468 140.09Z" fill="#263238"/>
<path d="M104.636 139.986C104.636 140.228 103.837 140.429 102.856 140.429C101.875 140.429 101.09 140.228 101.09 139.986C101.09 139.744 101.889 139.542 102.856 139.542C103.823 139.542 104.636 139.744 104.636 139.986Z" fill="#263238"/>
<path d="M111.73 139.986C111.73 140.228 110.931 140.429 109.95 140.429C108.969 140.429 108.184 140.228 108.184 139.986C108.184 139.744 108.983 139.542 109.95 139.542C110.917 139.542 111.73 139.744 111.73 139.986Z" fill="#263238"/>
<path d="M119.121 139.986C119.121 140.228 118.322 140.429 117.354 140.429C116.387 140.429 115.574 140.228 115.574 139.986C115.574 139.744 116.373 139.542 117.354 139.542C118.336 139.542 119.121 139.744 119.121 139.986Z" fill="#263238"/>
<path d="M126.214 139.986C126.214 140.228 125.415 140.429 124.448 140.429C123.481 140.429 122.668 140.228 122.668 139.986C122.668 139.744 123.467 139.542 124.448 139.542C125.429 139.542 126.214 139.744 126.214 139.986Z" fill="#263238"/>
<path d="M133.304 139.986C133.304 140.228 132.505 140.429 131.538 140.429C130.571 140.429 129.758 140.228 129.758 139.986C129.758 139.744 130.557 139.542 131.538 139.542C132.519 139.542 133.304 139.744 133.304 139.986Z" fill="#263238"/>
<path d="M140.398 139.986C140.398 140.228 139.599 140.429 138.632 140.429C137.665 140.429 136.852 140.228 136.852 139.986C136.852 139.744 137.651 139.542 138.632 139.542C139.613 139.542 140.398 139.744 140.398 139.986Z" fill="#263238"/>
<path d="M147.787 139.986C147.787 140.228 146.934 140.429 145.866 140.429C144.799 140.429 143.945 140.228 143.945 139.986C143.945 139.744 144.799 139.542 145.866 139.542C146.934 139.542 147.787 139.744 147.787 139.986Z" fill="#263238"/>
<path d="M154.882 139.986C154.882 140.228 154.094 140.429 153.109 140.429C152.124 140.429 151.336 140.228 151.336 139.986C151.336 139.744 152.124 139.542 153.109 139.542C154.094 139.542 154.882 139.744 154.882 139.986Z" fill="#263238"/>
<path d="M161.972 139.986C161.972 140.228 161.184 140.429 160.199 140.429C159.214 140.429 158.426 140.228 158.426 139.986C158.426 139.744 159.214 139.542 160.199 139.542C161.184 139.542 161.972 139.744 161.972 139.986Z" fill="#263238"/>
<path d="M169.066 139.986C169.066 140.228 168.278 140.429 167.293 140.429C166.308 140.429 165.52 140.228 165.52 139.986C165.52 139.744 166.308 139.542 167.293 139.542C168.278 139.542 169.066 139.744 169.066 139.986Z" fill="#263238"/>
<path d="M176.16 139.986C176.16 140.228 175.372 140.429 174.387 140.429C173.401 140.429 172.613 140.228 172.613 139.986C172.613 139.744 173.401 139.542 174.387 139.542C175.372 139.542 176.16 139.744 176.16 139.986Z" fill="#263238"/>
<path d="M183.55 139.986C183.55 140.228 182.762 140.429 181.777 140.429C180.792 140.429 180.004 140.228 180.004 139.986C180.004 139.744 180.792 139.542 181.777 139.542C182.762 139.542 183.55 139.744 183.55 139.986Z" fill="#263238"/>
<path d="M184.436 146.339C184.275 146.339 184.141 145.485 184.141 144.418C184.141 143.351 184.275 142.497 184.436 142.497C184.597 142.497 184.732 143.351 184.732 144.418C184.732 145.485 184.597 146.339 184.436 146.339Z" fill="#263238"/>
<path d="M184.436 153.434C184.275 153.434 184.141 152.58 184.141 151.513C184.141 150.446 184.275 149.592 184.436 149.592C184.597 149.592 184.732 150.446 184.732 151.513C184.732 152.58 184.597 153.434 184.436 153.434Z" fill="#263238"/>
<path d="M184.436 160.526C184.275 160.526 184.141 159.737 184.141 158.752C184.141 157.767 184.275 156.979 184.436 156.979C184.597 156.979 184.732 157.767 184.732 158.752C184.732 159.737 184.597 160.526 184.436 160.526Z" fill="#263238"/>
<path d="M184.436 167.62C184.275 167.62 184.141 166.832 184.141 165.847C184.141 164.861 184.275 164.073 184.436 164.073C184.597 164.073 184.732 164.861 184.732 165.847C184.732 166.832 184.597 167.62 184.436 167.62Z" fill="#263238"/>
<path d="M184.436 174.712C184.275 174.712 184.141 173.913 184.141 172.932C184.141 171.951 184.275 171.166 184.436 171.166C184.597 171.166 184.732 171.965 184.732 172.932C184.732 173.899 184.597 174.712 184.436 174.712Z" fill="#263238"/>
<path d="M184.436 182.1C184.275 182.1 184.141 181.234 184.141 180.171C184.141 179.108 184.275 178.258 184.436 178.258C184.597 178.258 184.732 179.123 184.732 180.171C184.732 181.219 184.597 182.1 184.436 182.1Z" fill="#263238"/>
<path d="M184.436 189.194C184.275 189.194 184.141 188.395 184.141 187.414C184.141 186.432 184.275 185.647 184.436 185.647C184.597 185.647 184.732 186.446 184.732 187.414C184.732 188.381 184.597 189.194 184.436 189.194Z" fill="#263238"/>
<path d="M184.436 196.286C184.275 196.286 184.141 195.487 184.141 194.506C184.141 193.524 184.275 192.739 184.436 192.739C184.597 192.739 184.732 193.538 184.732 194.506C184.732 195.473 184.597 196.286 184.436 196.286Z" fill="#263238"/>
<path d="M184.436 203.38C184.275 203.38 184.141 202.581 184.141 201.614C184.141 200.647 184.275 199.833 184.436 199.833C184.597 199.833 184.732 200.633 184.732 201.614C184.732 202.595 184.597 203.38 184.436 203.38Z" fill="#263238"/>
<path d="M184.436 210.473C184.275 210.473 184.141 209.674 184.141 208.707C184.141 207.739 184.275 206.926 184.436 206.926C184.597 206.926 184.732 207.725 184.732 208.707C184.732 209.688 184.597 210.473 184.436 210.473Z" fill="#263238"/>
<path d="M184.436 217.86C184.275 217.86 184.141 216.994 184.141 215.946C184.141 214.898 184.275 214.018 184.436 214.018C184.597 214.018 184.732 214.883 184.732 215.946C184.732 217.009 184.597 217.86 184.436 217.86Z" fill="#263238"/>
<path d="M187.842 224.954C187.681 224.954 187.547 224.155 187.547 223.188C187.547 222.221 187.681 221.408 187.842 221.408C188.004 221.408 188.138 222.207 188.138 223.188C188.138 224.169 188.004 224.954 187.842 224.954Z" fill="#263238"/>
<path d="M191.096 223.181H184.594V229.683H191.096V223.181Z" fill="#263238"/>
<path d="M103.611 224.069H97.1094V230.571H103.611V224.069Z" fill="#263238"/>
<path d="M187.686 135.996H181.184V142.498H187.686V135.996Z" fill="#263238"/>
<path d="M100.205 136.883H93.7031V143.09H100.205V136.883Z" fill="#263238"/>
</svg>
