<svg width="40" height="40" viewBox="0 0 40 40" fill="none" xmlns="http://www.w3.org/2000/svg">
<g clip-path="url(#clip0)">
<path d="M38.1619 18.72L25.4086 6.01184L28.7562 2.66793C29.3666 2.05809 29.3672 1.06871 28.7573 0.458242C28.1476 -0.152304 27.1583 -0.152773 26.5476 0.456992L7.69279 19.2913C5.05873 20.0262 3.12061 22.4473 3.12061 25.3126C3.12061 26.1756 3.82014 26.8751 4.68311 26.8751C5.54607 26.8751 6.24561 26.1756 6.24561 25.3126C6.24561 24.1 6.9399 23.0464 7.95178 22.5286L21.1702 35.7018C22.3885 36.9188 23.988 37.5271 25.5878 37.527C27.1878 37.5269 28.788 36.9181 30.0053 35.7008L38.1651 27.5621C39.3458 26.3814 39.9959 24.8114 39.9956 23.1415C39.9953 21.4715 39.3446 19.9018 38.1619 18.72ZM35.9568 25.3509L27.797 33.4897C26.5793 34.7075 24.5971 34.708 23.3776 33.4896L12.0367 22.1876H29.3707C30.2337 22.1876 30.9332 21.4881 30.9332 20.6251C30.9332 19.7621 30.2337 19.0626 29.3707 19.0626H12.3436L23.1976 8.22043L35.9545 20.9321C36.5451 21.5223 36.8705 22.3071 36.8707 23.1421C36.8708 23.977 36.5458 24.7619 35.9568 25.3509Z" fill="#8C30F5"/>
<path d="M7.43541 31.1948C6.64033 30.0077 5.85408 29.0483 5.82096 29.008C5.52416 28.6468 5.08119 28.4375 4.61377 28.4375C4.14635 28.4375 3.70338 28.6468 3.40658 29.008C3.37346 29.0483 2.58721 30.0077 1.79213 31.1948C0.189707 33.5873 0.00439453 34.7352 0.00439453 35.3907C0.00439453 37.9323 2.07221 40.0001 4.61377 40.0001C7.15533 40.0001 9.22314 37.9323 9.22314 35.3907C9.22314 34.7352 9.03783 33.5873 7.43541 31.1948ZM4.61377 36.8751C3.79525 36.8751 3.12939 36.2092 3.12932 35.3945C3.12963 35.3882 3.17041 34.7484 4.40182 32.914C4.47268 32.8085 4.54346 32.7048 4.61377 32.6038C4.684 32.7048 4.75486 32.8085 4.82572 32.914C6.03572 34.7166 6.09619 35.3656 6.09814 35.3935C6.09658 36.2106 5.43127 36.8751 4.61377 36.8751Z" fill="#8C30F5"/>
</g>
<defs>
<clipPath id="clip0">
<rect width="40" height="40" fill="white"/>
</clipPath>
</defs>
</svg>
