<svg width="40" height="40" viewBox="0 0 40 40" fill="none" xmlns="http://www.w3.org/2000/svg">
<g clip-path="url(#clip0)">
<path d="M31.4066 0C26.6682 0 22.8131 3.58789 22.8131 7.99789C22.8131 9.47555 23.2587 10.9305 24.082 12.1822L22.9269 15.0395C22.6886 15.6291 22.8314 16.3042 23.288 16.7469C23.5856 17.0353 23.9778 17.1876 24.3759 17.1876C24.5887 17.1875 24.8032 17.1441 25.0058 17.0548L28.4925 15.5177C29.3611 15.7941 30.3213 15.9293 31.4065 15.9293C33.6744 15.9293 35.8112 15.1263 37.4232 13.6682C39.0817 12.1681 39.9968 10.152 39.9999 7.98711C39.9937 3.58297 36.1387 0 31.4066 0ZM31.4066 12.8043C30.4662 12.8043 29.6964 12.6709 29.053 12.3962C28.8571 12.3127 28.6484 12.2709 28.4397 12.2709C28.2249 12.2709 28.0101 12.3152 27.8095 12.4037L27.2665 12.643L27.3087 12.5384C27.5269 11.9988 27.4269 11.3824 27.0493 10.9393C26.3224 10.0865 25.9382 9.0693 25.9382 7.99789C25.9382 5.31094 28.3913 3.125 31.4067 3.125C34.4181 3.125 36.8712 5.30813 36.8751 7.98703C36.8712 10.6432 34.418 12.8043 31.4066 12.8043ZM37.559 34.5327C37.8401 35.8778 37.505 37.2602 36.6394 38.3253C35.7745 39.3896 34.4905 40 33.1166 40H4.53959C3.16569 40 1.8817 39.3896 1.01686 38.3252C0.151232 37.2602 -0.183924 35.8777 0.0972481 34.5327C0.980451 30.3075 3.31951 26.4627 6.68365 23.7067C8.48405 22.2318 10.5365 21.1071 12.7236 20.3736C10.311 18.5316 8.74998 15.6177 8.74998 12.3438C8.74998 6.78664 13.2463 2.26562 18.7731 2.26562C18.9421 2.26562 19.0672 2.27 19.2144 2.27695C20.0764 2.31773 20.7422 3.04961 20.7013 3.91156C20.6605 4.77352 19.9279 5.44031 19.0667 5.39844C18.9576 5.39328 18.8821 5.39062 18.773 5.39062C14.9694 5.39062 11.875 8.50977 11.875 12.3438C11.875 16.1777 14.9694 19.2969 18.7731 19.2969C18.9489 19.2969 19.1172 19.3272 19.2749 19.3807C25.4958 19.5243 31.2469 22.6598 34.7283 27.8314C35.2102 28.5473 35.0206 29.5183 34.3047 30.0002C33.5887 30.4821 32.618 30.2923 32.136 29.5766C29.153 25.1454 24.178 22.5 18.8281 22.5C11.282 22.5 4.691 27.8294 3.15608 35.172C3.06834 35.592 3.17256 36.023 3.44201 36.3545C3.59998 36.5489 3.95264 36.875 4.53959 36.875H33.1166C33.7036 36.875 34.0562 36.5489 34.2141 36.3545C34.4836 36.023 34.5878 35.592 34.5001 35.172C34.3235 34.3273 34.8651 33.4995 35.7098 33.3229C36.5545 33.1465 37.3824 33.688 37.559 34.5327Z" fill="#8C30F5"/>
</g>
<defs>
<clipPath id="clip0">
<rect width="40" height="40" fill="white"/>
</clipPath>
</defs>
</svg>
