<svg width="39" height="40" viewBox="0 0 39 40" fill="none" xmlns="http://www.w3.org/2000/svg">
<path fill-rule="evenodd" clip-rule="evenodd" d="M17.9824 14.6915H34.5935C36.9736 14.6915 38.903 16.6209 38.903 19.001V30V31.4226V32.8452V35.6905C38.903 38.0706 36.9736 40 34.5935 40H17.9824C15.6023 40 13.6729 38.0706 13.6729 35.6905V19.001C13.6729 16.6209 15.6023 14.6915 17.9824 14.6915ZM17.9824 17.8257C17.3333 17.8257 16.807 18.3519 16.807 19.001V35.6905C16.807 36.3396 17.3333 36.8658 17.9824 36.8658H34.5935C35.2426 36.8658 35.7688 36.3396 35.7688 35.6905V32.8452V30V19.001C35.7688 18.3519 35.2426 17.8257 34.5935 17.8257H17.9824Z" fill="#8C30F5"/>
<path fill-rule="evenodd" clip-rule="evenodd" d="M18.7244 10.0488C14.0264 9.86752 10.0599 13.5451 9.87739 18.2763C9.7481 21.6273 11.5528 24.6021 14.2929 26.1149L15.6648 26.8724L14.1499 29.6161L12.778 28.8587C9.03689 26.7932 6.56901 22.7307 6.74554 18.1555C6.99439 11.7061 12.4061 6.66849 18.8452 6.91694C23.4812 7.09583 27.3736 9.96694 29.097 13.9606L29.7179 15.3994L26.8403 16.6413L26.2194 15.2025C24.9541 12.2704 22.1041 10.1792 18.7244 10.0488Z" fill="#8C30F5"/>
<path fill-rule="evenodd" clip-rule="evenodd" d="M3.47791 18.3706L6.90713 20.3459L7.08762 20.0325L8.4567 17.6563L5.05185 15.6951L3.10429 12.3285V8.42753L5.05258 5.05969L8.43411 3.10393H12.3298L15.7114 5.05969L17.674 8.4523C17.6646 8.43613 17.6597 8.41768 17.6597 8.39882H20.764C20.764 7.87185 20.625 7.35425 20.3611 6.89814L18.3844 3.48113C18.1216 3.02686 17.7442 2.6496 17.29 2.3869L13.86 0.403152C13.4034 0.139027 12.8851 0 12.3576 0H8.40631C7.87882 0 7.36058 0.139027 6.90391 0.403151L3.474 2.3869C3.01979 2.6496 2.64237 3.02686 2.37958 3.48113L0.402829 6.89814C0.138973 7.35425 0 7.87185 0 8.39882V12.3572C0 12.8842 0.138973 13.4018 0.402828 13.8579L2.37889 17.2737C2.64259 17.7295 3.02168 18.1078 3.47791 18.3706Z" fill="#8C30F5"/>
</svg>
