<svg width="107" height="50" viewBox="0 0 107 50" fill="none" xmlns="http://www.w3.org/2000/svg">
<path d="M9.10645 17.1514H5.13867V26H0.158203V1.82812H9.13965C11.9951 1.82812 14.1976 2.46452 15.7471 3.7373C17.2965 5.01009 18.0713 6.80859 18.0713 9.13281C18.0713 10.7819 17.7116 12.1598 16.9922 13.2666C16.2839 14.3623 15.2048 15.2367 13.7549 15.8896L18.9844 25.7676V26H13.6387L9.10645 17.1514ZM5.13867 13.1172H9.15625C10.4069 13.1172 11.3753 12.8018 12.0615 12.1709C12.7477 11.529 13.0908 10.6491 13.0908 9.53125C13.0908 8.39128 12.7643 7.49479 12.1113 6.8418C11.4694 6.1888 10.4788 5.8623 9.13965 5.8623H5.13867V13.1172Z" fill="black"/>
<path d="M20.8105 16.8525C20.8105 15.0706 21.1536 13.4824 21.8398 12.0879C22.526 10.6934 23.5111 9.61426 24.7949 8.85059C26.0898 8.08691 27.5895 7.70508 29.2939 7.70508C31.7178 7.70508 33.6934 8.44661 35.2207 9.92969C36.7591 11.4128 37.6169 13.4271 37.7939 15.9727L37.8271 17.2012C37.8271 19.957 37.0579 22.1706 35.5195 23.8418C33.9811 25.502 31.917 26.332 29.3271 26.332C26.7373 26.332 24.6676 25.502 23.1182 23.8418C21.5798 22.1816 20.8105 19.9238 20.8105 17.0684V16.8525ZM25.6084 17.2012C25.6084 18.9056 25.9294 20.2116 26.5713 21.1191C27.2132 22.0156 28.1318 22.4639 29.3271 22.4639C30.4893 22.4639 31.3968 22.0212 32.0498 21.1357C32.7028 20.2393 33.0293 18.8115 33.0293 16.8525C33.0293 15.1813 32.7028 13.8864 32.0498 12.9678C31.3968 12.0492 30.4782 11.5898 29.2939 11.5898C28.1208 11.5898 27.2132 12.0492 26.5713 12.9678C25.9294 13.8753 25.6084 15.2865 25.6084 17.2012Z" fill="black"/>
<path d="M56.9688 17.1846C56.9688 20.0622 56.3545 22.3089 55.126 23.9248C53.8975 25.5296 52.182 26.332 49.9795 26.332C48.0316 26.332 46.4766 25.585 45.3145 24.0908L45.0986 26H40.7822V0.5H45.5801V9.64746C46.6868 8.35254 48.1423 7.70508 49.9463 7.70508C52.1377 7.70508 53.8532 8.51302 55.0928 10.1289C56.3434 11.7337 56.9688 13.9971 56.9688 16.9189V17.1846ZM52.1709 16.8359C52.1709 15.0208 51.8831 13.6982 51.3076 12.8682C50.7321 12.027 49.8743 11.6064 48.7344 11.6064C47.207 11.6064 46.1556 12.2318 45.5801 13.4824V20.5713C46.1667 21.833 47.2292 22.4639 48.7676 22.4639C50.3171 22.4639 51.3353 21.7002 51.8223 20.1729C52.0547 19.4424 52.1709 18.3301 52.1709 16.8359Z" fill="black"/>
<path d="M59.1934 16.8525C59.1934 15.0706 59.5365 13.4824 60.2227 12.0879C60.9089 10.6934 61.8939 9.61426 63.1777 8.85059C64.4727 8.08691 65.9723 7.70508 67.6768 7.70508C70.1006 7.70508 72.0762 8.44661 73.6035 9.92969C75.1419 11.4128 75.9997 13.4271 76.1768 15.9727L76.21 17.2012C76.21 19.957 75.4408 22.1706 73.9023 23.8418C72.3639 25.502 70.2998 26.332 67.71 26.332C65.1201 26.332 63.0505 25.502 61.501 23.8418C59.9626 22.1816 59.1934 19.9238 59.1934 17.0684V16.8525ZM63.9912 17.2012C63.9912 18.9056 64.3122 20.2116 64.9541 21.1191C65.596 22.0156 66.5146 22.4639 67.71 22.4639C68.8721 22.4639 69.7796 22.0212 70.4326 21.1357C71.0856 20.2393 71.4121 18.8115 71.4121 16.8525C71.4121 15.1813 71.0856 13.8864 70.4326 12.9678C69.7796 12.0492 68.861 11.5898 67.6768 11.5898C66.5036 11.5898 65.596 12.0492 64.9541 12.9678C64.3122 13.8753 63.9912 15.2865 63.9912 17.2012Z" fill="black"/>
<path d="M84.9092 3.62109V8.03711H87.9805V11.5566H84.9092V20.5215C84.9092 21.1855 85.0365 21.6615 85.291 21.9492C85.5456 22.237 86.0326 22.3809 86.752 22.3809C87.2832 22.3809 87.7536 22.3421 88.1631 22.2646V25.9004C87.2223 26.1882 86.2539 26.332 85.2578 26.332C81.8932 26.332 80.1777 24.6331 80.1113 21.2354V11.5566H77.4883V8.03711H80.1113V3.62109H84.9092Z" fill="black"/>
<path d="M89.4082 16.8525C89.4082 15.0706 89.7513 13.4824 90.4375 12.0879C91.1237 10.6934 92.1087 9.61426 93.3926 8.85059C94.6875 8.08691 96.1872 7.70508 97.8916 7.70508C100.315 7.70508 102.291 8.44661 103.818 9.92969C105.357 11.4128 106.215 13.4271 106.392 15.9727L106.425 17.2012C106.425 19.957 105.656 22.1706 104.117 23.8418C102.579 25.502 100.515 26.332 97.9248 26.332C95.335 26.332 93.2653 25.502 91.7158 23.8418C90.1774 22.1816 89.4082 19.9238 89.4082 17.0684V16.8525ZM94.2061 17.2012C94.2061 18.9056 94.527 20.2116 95.1689 21.1191C95.8109 22.0156 96.7295 22.4639 97.9248 22.4639C99.0869 22.4639 99.9945 22.0212 100.647 21.1357C101.3 20.2393 101.627 18.8115 101.627 16.8525C101.627 15.1813 101.3 13.8864 100.647 12.9678C99.9945 12.0492 99.0758 11.5898 97.8916 11.5898C96.7184 11.5898 95.8109 12.0492 95.1689 12.9678C94.527 13.8753 94.2061 15.2865 94.2061 17.2012Z" fill="black"/>
<g opacity="0.6">
<path d="M21.1562 40.6797C21.1562 40.0755 20.9349 39.5964 20.4922 39.2422C20.0547 38.8828 19.4375 38.7031 18.6406 38.7031C17.974 38.7031 17.4141 38.888 16.9609 39.2578C16.513 39.6224 16.2891 40.0755 16.2891 40.6172H14.7891C14.7891 40.013 14.9531 39.4714 15.2812 38.9922C15.6146 38.513 16.0781 38.1406 16.6719 37.875C17.2656 37.6042 17.9219 37.4688 18.6406 37.4688C19.9115 37.4688 20.8984 37.7552 21.6016 38.3281C22.3047 38.8958 22.6562 39.6875 22.6562 40.7031C22.6562 41.2292 22.4948 41.7083 22.1719 42.1406C21.849 42.5729 21.3984 42.9141 20.8203 43.1641C22.1589 43.612 22.8281 44.5 22.8281 45.8281C22.8281 46.849 22.4479 47.6589 21.6875 48.2578C20.9271 48.8568 19.9115 49.1562 18.6406 49.1562C17.8854 49.1562 17.1979 49.0234 16.5781 48.7578C15.9635 48.487 15.4844 48.1042 15.1406 47.6094C14.7969 47.1146 14.625 46.526 14.625 45.8438H16.125C16.125 46.4427 16.362 46.9427 16.8359 47.3438C17.3099 47.7396 17.9115 47.9375 18.6406 47.9375C19.4583 47.9375 20.1094 47.7474 20.5938 47.3672C21.0833 46.987 21.3281 46.4844 21.3281 45.8594C21.3281 44.526 20.5026 43.8464 18.8516 43.8203H17.4453V42.5859H18.8438C19.6042 42.5703 20.1797 42.3984 20.5703 42.0703C20.9609 41.7422 21.1562 41.2786 21.1562 40.6797Z" fill="#645C90"/>
<path d="M29.8125 49C29.7292 48.8333 29.6615 48.5365 29.6094 48.1094C28.9375 48.8073 28.1354 49.1562 27.2031 49.1562C26.3698 49.1562 25.6849 48.9219 25.1484 48.4531C24.6172 47.9792 24.3516 47.3802 24.3516 46.6562C24.3516 45.776 24.6849 45.0938 25.3516 44.6094C26.0234 44.1198 26.9661 43.875 28.1797 43.875H29.5859V43.2109C29.5859 42.7057 29.4349 42.3047 29.1328 42.0078C28.8307 41.7057 28.3854 41.5547 27.7969 41.5547C27.2812 41.5547 26.849 41.6849 26.5 41.9453C26.151 42.2057 25.9766 42.5208 25.9766 42.8906H24.5234C24.5234 42.4688 24.6719 42.0625 24.9688 41.6719C25.2708 41.276 25.6771 40.9635 26.1875 40.7344C26.7031 40.5052 27.2682 40.3906 27.8828 40.3906C28.8568 40.3906 29.6198 40.6354 30.1719 41.125C30.724 41.6094 31.0104 42.2786 31.0312 43.1328V47.0234C31.0312 47.7995 31.1302 48.4167 31.3281 48.875V49H29.8125ZM27.4141 47.8984C27.8672 47.8984 28.2969 47.7812 28.7031 47.5469C29.1094 47.3125 29.4036 47.0078 29.5859 46.6328V44.8984H28.4531C26.6823 44.8984 25.7969 45.4167 25.7969 46.4531C25.7969 46.9062 25.9479 47.2604 26.25 47.5156C26.5521 47.7708 26.9401 47.8984 27.4141 47.8984Z" fill="#645C90"/>
<path d="M38.7578 41.7422H34.8594V49H33.4062V40.5469H38.7578V41.7422Z" fill="#645C90"/>
<path d="M39.4766 44.6953C39.4766 43.8672 39.638 43.1224 39.9609 42.4609C40.2891 41.7995 40.7422 41.2891 41.3203 40.9297C41.9036 40.5703 42.5677 40.3906 43.3125 40.3906C44.4635 40.3906 45.3932 40.7891 46.1016 41.5859C46.8151 42.3828 47.1719 43.4427 47.1719 44.7656V44.8672C47.1719 45.6901 47.013 46.4297 46.6953 47.0859C46.3828 47.737 45.9323 48.2448 45.3438 48.6094C44.7604 48.974 44.0885 49.1562 43.3281 49.1562C42.1823 49.1562 41.2526 48.7578 40.5391 47.9609C39.8307 47.1641 39.4766 46.1094 39.4766 44.7969V44.6953ZM40.9297 44.8672C40.9297 45.8047 41.1458 46.5573 41.5781 47.125C42.0156 47.6927 42.599 47.9766 43.3281 47.9766C44.0625 47.9766 44.6458 47.6901 45.0781 47.1172C45.5104 46.5391 45.7266 45.7318 45.7266 44.6953C45.7266 43.7682 45.5052 43.0182 45.0625 42.4453C44.625 41.8672 44.0417 41.5781 43.3125 41.5781C42.599 41.5781 42.0234 41.862 41.5859 42.4297C41.1484 42.9974 40.9297 43.8099 40.9297 44.8672Z" fill="#645C90"/>
<path d="M55.7891 40.5469V49H54.3359V41.7422H51.4609L51.2891 44.9062C51.1953 46.3594 50.9505 47.3984 50.5547 48.0234C50.1641 48.6484 49.5417 48.974 48.6875 49H48.1094V47.7266L48.5234 47.6953C48.9922 47.6432 49.3281 47.3724 49.5312 46.8828C49.7344 46.3932 49.8646 45.487 49.9219 44.1641L50.0781 40.5469H55.7891Z" fill="#645C90"/>
<path d="M57.7266 44.6953C57.7266 43.8672 57.888 43.1224 58.2109 42.4609C58.5391 41.7995 58.9922 41.2891 59.5703 40.9297C60.1536 40.5703 60.8177 40.3906 61.5625 40.3906C62.7135 40.3906 63.6432 40.7891 64.3516 41.5859C65.0651 42.3828 65.4219 43.4427 65.4219 44.7656V44.8672C65.4219 45.6901 65.263 46.4297 64.9453 47.0859C64.6328 47.737 64.1823 48.2448 63.5938 48.6094C63.0104 48.974 62.3385 49.1562 61.5781 49.1562C60.4323 49.1562 59.5026 48.7578 58.7891 47.9609C58.0807 47.1641 57.7266 46.1094 57.7266 44.7969V44.6953ZM59.1797 44.8672C59.1797 45.8047 59.3958 46.5573 59.8281 47.125C60.2656 47.6927 60.849 47.9766 61.5781 47.9766C62.3125 47.9766 62.8958 47.6901 63.3281 47.1172C63.7604 46.5391 63.9766 45.7318 63.9766 44.6953C63.9766 43.7682 63.7552 43.0182 63.3125 42.4453C62.875 41.8672 62.2917 41.5781 61.5625 41.5781C60.849 41.5781 60.2734 41.862 59.8359 42.4297C59.3984 42.9974 59.1797 43.8099 59.1797 44.8672Z" fill="#645C90"/>
<path d="M67.3672 49V40.5469H70.6641C71.7891 40.5469 72.651 40.7448 73.25 41.1406C73.8542 41.5312 74.1562 42.1068 74.1562 42.8672C74.1562 43.2578 74.0391 43.612 73.8047 43.9297C73.5703 44.2422 73.224 44.4818 72.7656 44.6484C73.276 44.7682 73.6849 45.0026 73.9922 45.3516C74.3047 45.7005 74.4609 46.1172 74.4609 46.6016C74.4609 47.3776 74.1745 47.9714 73.6016 48.3828C73.0339 48.7943 72.2292 49 71.1875 49H67.3672ZM68.8125 45.2891V47.8359H71.2031C71.8073 47.8359 72.2578 47.724 72.5547 47.5C72.8568 47.276 73.0078 46.9609 73.0078 46.5547C73.0078 45.7109 72.388 45.2891 71.1484 45.2891H68.8125ZM68.8125 44.1328H70.6797C72.0339 44.1328 72.7109 43.737 72.7109 42.9453C72.7109 42.1536 72.0703 41.7448 70.7891 41.7188H68.8125V44.1328Z" fill="#645C90"/>
<path d="M75.9922 44.6953C75.9922 43.8672 76.1536 43.1224 76.4766 42.4609C76.8047 41.7995 77.2578 41.2891 77.8359 40.9297C78.4193 40.5703 79.0833 40.3906 79.8281 40.3906C80.9792 40.3906 81.9089 40.7891 82.6172 41.5859C83.3307 42.3828 83.6875 43.4427 83.6875 44.7656V44.8672C83.6875 45.6901 83.5286 46.4297 83.2109 47.0859C82.8984 47.737 82.4479 48.2448 81.8594 48.6094C81.276 48.974 80.6042 49.1562 79.8438 49.1562C78.6979 49.1562 77.7682 48.7578 77.0547 47.9609C76.3464 47.1641 75.9922 46.1094 75.9922 44.7969V44.6953ZM77.4453 44.8672C77.4453 45.8047 77.6615 46.5573 78.0938 47.125C78.5312 47.6927 79.1146 47.9766 79.8438 47.9766C80.5781 47.9766 81.1615 47.6901 81.5938 47.1172C82.026 46.5391 82.2422 45.7318 82.2422 44.6953C82.2422 43.7682 82.0208 43.0182 81.5781 42.4453C81.1406 41.8672 80.5573 41.5781 79.8281 41.5781C79.1146 41.5781 78.5391 41.862 78.1016 42.4297C77.6641 42.9974 77.4453 43.8099 77.4453 44.8672Z" fill="#645C90"/>
<path d="M88.1328 45.3984H87.0781V49H85.625V40.5469H87.0781V44.125H88.0234L90.8672 40.5469H92.6172L89.2734 44.6094L92.8984 49H91.0625L88.1328 45.3984Z" fill="#645C90"/>
</g>
</svg>
