<svg width="40" height="40" viewBox="0 0 40 40" fill="none" xmlns="http://www.w3.org/2000/svg">
<path d="M32.6675 9.46411L26.1942 15.9375H30.625C31.488 15.9375 32.1875 16.637 32.1875 17.5C32.1875 18.363 31.488 19.0625 30.625 19.0625H24.7656C22.6117 19.0625 20.8594 17.3102 20.8594 15.1562V9.29688C20.8594 8.43384 21.5588 7.73438 22.4219 7.73438C23.2849 7.73438 23.9844 8.43384 23.9844 9.29688V13.7277L30.4575 7.25464C31.0678 6.64429 32.0572 6.64429 32.6672 7.25464C33.2776 7.86469 33.2776 8.85406 32.6675 9.46411ZM17.6562 32.0312C18.5193 32.0312 19.2188 31.3318 19.2188 30.4688V24.6094C19.2188 22.4554 17.4664 20.7031 15.3125 20.7031H9.45312C8.59009 20.7031 7.89062 21.4026 7.89062 22.2656C7.89062 23.1287 8.59009 23.8281 9.45312 23.8281H13.884L7.41058 30.3015C6.80054 30.9116 6.80054 31.9009 7.41058 32.511C7.71576 32.8162 8.11584 32.9688 8.51562 32.9688C8.91541 32.9688 9.31549 32.8162 9.62067 32.511L16.0938 26.0379V30.4688C16.0938 31.3318 16.7932 32.0312 17.6562 32.0312ZM38.4375 27.5C39.3005 27.5 40 26.8005 40 25.9375V6.25C40 2.80365 37.1964 0 33.75 0H6.25C2.80365 0 0 2.80365 0 6.25V33.75C0 37.1964 2.80365 40 6.25 40H33.75C37.1964 40 40 37.1964 40 33.75C40 32.887 39.3005 32.1875 38.4375 32.1875C37.5745 32.1875 36.875 32.887 36.875 33.75C36.875 35.473 35.473 36.875 33.75 36.875H6.25C4.52698 36.875 3.125 35.473 3.125 33.75V6.25C3.125 4.52698 4.52698 3.125 6.25 3.125H33.75C35.473 3.125 36.875 4.52698 36.875 6.25V25.9375C36.875 26.8005 37.5745 27.5 38.4375 27.5Z" fill="#8C30F5"/>
</svg>
