<svg width="34" height="34" viewBox="0 0 34 34" fill="none" xmlns="http://www.w3.org/2000/svg">
<path d="M32.6719 0H1.32812C0.594602 0 0 0.594602 0 1.32812V7.17188C0 7.9054 0.594602 8.5 1.32812 8.5C2.06165 8.5 2.65625 7.9054 2.65625 7.17188V2.65625H13.0156V31.3438H11.0234C10.2899 31.3438 9.69531 31.9384 9.69531 32.6719C9.69531 33.4054 10.2899 34 11.0234 34H22.9766C23.7101 34 24.3047 33.4054 24.3047 32.6719C24.3047 31.9384 23.7101 31.3438 22.9766 31.3438H20.9844V7.96875C20.9844 7.23523 20.3898 6.64062 19.6562 6.64062C18.9227 6.64062 18.3281 7.23523 18.3281 7.96875V31.3438H15.6719V2.65625H31.3438V7.17188C31.3438 7.9054 31.9384 8.5 32.6719 8.5C33.4054 8.5 34 7.9054 34 7.17188V1.32812C34 0.594602 33.4054 0 32.6719 0Z" fill="white"/>
</svg>
