<svg width="193" height="32" viewBox="0 0 193 32" fill="none" xmlns="http://www.w3.org/2000/svg">
<path d="M22.474 30.6742H20.2493L14.7062 13.4118H14.5734L9.02909 30.6742H6.80563L0 6.90533H2.22466L7.9018 27.1224H8.03464L13.5789 10.0921H15.7031L21.2474 27.1224H21.3802L26.7917 6.90533H29.0164L22.474 30.6742Z" fill="#0B1A2F"/>
<path d="M33.9264 8.93015V17.7929H44.151V19.7842H33.9264V28.6482H45.2136V30.673H31.801V6.90533H45.2124V8.93015H33.9264Z" fill="#0B1A2F"/>
<path d="M49.2956 6.90533H57.694C58.5784 6.90533 59.4197 7.06091 60.2167 7.36965C61.0137 7.6796 61.7161 8.11161 62.3241 8.66448C62.932 9.21855 63.4143 9.87674 63.7685 10.639C64.1227 11.4025 64.2998 12.2378 64.2998 13.1449C64.2998 14.3404 63.9899 15.3804 63.37 16.2659C62.7501 17.1515 61.9316 17.8372 60.9132 18.3242V18.4571C62.1302 18.834 63.1318 19.5245 63.9169 20.5321C64.7019 21.5398 65.0956 22.7065 65.0956 24.0349C65.0956 25.009 64.9077 25.9053 64.5308 26.7239C64.1538 27.5424 63.6512 28.2461 63.0205 28.8324C62.3899 29.4188 61.6479 29.8724 60.7959 30.1931C59.9438 30.5138 59.0535 30.6742 58.1237 30.6742H49.2932V6.90533H49.2956ZM57.6605 17.5284C58.3462 17.5284 58.9661 17.4076 59.519 17.1634C60.0719 16.9205 60.5482 16.5986 60.9467 16.2013C61.3452 15.8028 61.6491 15.3433 61.8597 14.8239C62.0704 14.3045 62.1757 13.7672 62.1757 13.2143C62.1757 12.6615 62.0704 12.1301 61.8597 11.6203C61.6491 11.1117 61.35 10.6582 60.9634 10.2597C60.5757 9.86118 60.1174 9.54047 59.586 9.29754C59.0547 9.05461 58.4575 8.93254 57.7934 8.93254H51.4197V17.5308H57.6605V17.5284ZM58.3582 28.6494C58.9996 28.6494 59.5968 28.5285 60.1509 28.2844C60.7037 28.0414 61.1908 27.7087 61.612 27.2887C62.0321 26.8687 62.3588 26.3816 62.5909 25.8275C62.8231 25.2747 62.9392 24.6883 62.9392 24.0684C62.9392 23.4497 62.8171 22.8681 62.5742 22.326C62.3301 21.7839 61.9986 21.3028 61.5785 20.8816C61.1573 20.4615 60.6595 20.1289 60.085 19.8859C59.5094 19.643 58.8895 19.5209 58.2266 19.5209H51.4209V28.6505H58.3582V28.6494Z" fill="#0B1A2F"/>
<path d="M77.8121 31.2047C75.5994 31.2047 73.6906 30.6123 72.0858 29.4288C70.4811 28.2453 69.3466 26.546 68.6836 24.3333L73.5638 22.4078C73.851 23.5363 74.3273 24.4661 74.9914 25.1961C75.6556 25.9261 76.5962 26.2911 77.8132 26.2911C78.2117 26.2911 78.5935 26.2468 78.9585 26.1582C79.3235 26.0697 79.6442 25.9321 79.9206 25.743C80.1971 25.5551 80.4232 25.317 80.6016 25.0297C80.7787 24.7425 80.8672 24.4099 80.8672 24.0341C80.8672 23.6583 80.7954 23.3089 80.6518 22.9882C80.507 22.6675 80.2701 22.3695 79.9386 22.0918C79.6071 21.8154 79.1631 21.539 78.6102 21.2613C78.0562 20.9849 77.3597 20.6917 76.5184 20.3818L75.0572 19.8504C74.4374 19.629 73.8007 19.3251 73.1485 18.9374C72.4951 18.5508 71.9039 18.0805 71.3726 17.5264C70.8413 16.9736 70.4105 16.3369 70.0778 15.6177C69.7463 14.8985 69.58 14.0967 69.58 13.2111C69.58 12.2598 69.7678 11.3634 70.1448 10.5222C70.5206 9.68088 71.0519 8.95688 71.7376 8.34776C72.4233 7.73984 73.2538 7.25757 74.2267 6.90335C75.2009 6.54912 76.2731 6.37201 77.4471 6.37201C78.6856 6.37201 79.7483 6.53237 80.6339 6.85309C81.5182 7.1738 82.271 7.58307 82.8908 8.0809C83.5107 8.57873 84.0026 9.13758 84.3676 9.75747C84.7326 10.3774 85.015 10.9745 85.2136 11.5501L80.732 13.4421C80.4879 12.7337 80.1013 12.164 79.57 11.732C79.0387 11.3 78.353 11.0846 77.5117 11.0846C76.6261 11.0846 75.9237 11.2677 75.4043 11.6327C74.8837 11.9977 74.624 12.468 74.624 13.0436C74.624 13.6408 74.8897 14.1721 75.421 14.6376C75.9524 15.1019 76.893 15.5674 78.2429 16.0318L79.704 16.5296C81.7181 17.2153 83.2774 18.1344 84.3843 19.2844C85.4913 20.4356 86.0441 21.9841 86.0441 23.9324C86.0441 25.1722 85.7952 26.2456 85.2974 27.1527C84.7996 28.0598 84.1569 28.8125 83.3719 29.4097C82.5857 30.0068 81.7001 30.4556 80.7164 30.7536C79.7316 31.0563 78.7634 31.2047 77.8121 31.2047V31.2047Z" fill="#0B1A2F"/>
<path d="M94.112 30.6741V11.8177H87.4727V6.90521H105.929V11.8177H99.2901V30.6729H94.112V30.6741Z" fill="#0B1A2F"/>
<path d="M119.14 31.2043C117.347 31.2043 115.687 30.8836 114.16 30.2422C112.633 29.6007 111.311 28.7212 110.193 27.6034C109.076 26.4857 108.202 25.1753 107.571 23.6699C106.941 22.1656 106.625 20.5381 106.625 18.7898C106.625 17.0414 106.941 15.4151 107.571 13.9096C108.202 12.4054 109.076 11.0938 110.193 9.9761C111.311 8.85839 112.633 7.97881 114.16 7.33738C115.687 6.69595 117.347 6.37524 119.14 6.37524C120.932 6.37524 122.592 6.69595 124.119 7.33738C125.646 7.98001 126.969 8.85958 128.086 9.9761C129.204 11.0938 130.078 12.4054 130.708 13.9096C131.339 15.4151 131.655 17.0414 131.655 18.7898C131.655 20.5381 131.34 22.1644 130.708 23.6699C130.078 25.1753 129.203 26.4869 128.086 27.6034C126.969 28.7212 125.646 29.6007 124.119 30.2422C122.592 30.8836 120.932 31.2043 119.14 31.2043V31.2043ZM119.14 26.2919C120.157 26.2919 121.114 26.1147 122.012 25.7605C122.908 25.4063 123.688 24.8977 124.353 24.2335C125.017 23.5694 125.536 22.7783 125.913 21.8605C126.289 20.9426 126.478 19.9182 126.478 18.7898C126.478 17.6613 126.29 16.6381 125.913 15.719C125.536 14.8012 125.017 14.0089 124.353 13.346C123.688 12.683 122.908 12.1732 122.012 11.819C121.116 11.4648 120.158 11.2876 119.14 11.2876C118.1 11.2876 117.137 11.4648 116.252 11.819C115.367 12.1732 114.592 12.6818 113.928 13.346C113.264 14.0101 112.745 14.8012 112.368 15.719C111.991 16.6381 111.803 17.6613 111.803 18.7898C111.803 19.9182 111.991 20.9426 112.368 21.8605C112.743 22.7795 113.264 23.5706 113.928 24.2335C114.592 24.8965 115.367 25.4063 116.252 25.7605C117.137 26.1147 118.1 26.2919 119.14 26.2919V26.2919Z" fill="#0B1A2F"/>
<path d="M134.941 6.90533H143.904C145.187 6.90533 146.338 7.0992 147.357 7.48573C148.374 7.87346 149.232 8.40959 149.93 9.09529C150.627 9.781 151.157 10.5948 151.524 11.5354C151.889 12.476 152.072 13.4991 152.072 14.6061C152.072 15.3816 151.944 16.0996 151.69 16.7637C151.435 17.4279 151.093 18.0418 150.661 18.6067C150.229 19.1715 149.726 19.6693 149.151 20.1001C148.575 20.5321 147.955 20.8912 147.292 21.1796V21.4787L153.499 30.3415V30.673H147.59L141.581 22.1082H140.12V30.673H134.942V6.90533H134.941ZM143.904 17.3286C144.834 17.3286 145.564 17.0581 146.095 16.5148C146.627 15.9727 146.892 15.3026 146.892 14.5068C146.892 13.711 146.643 13.0408 146.146 12.4987C145.648 11.9566 144.901 11.6849 143.905 11.6849H140.121V17.3286H143.904Z" fill="#0B1A2F"/>
<path d="M161.23 19.619L153.23 6.90521H159.471L163.654 13.876H163.985L167.969 6.90521H174.277L166.41 19.619V30.6729H161.232V19.619H161.23Z" fill="#0B1A2F"/>
<path d="M175.075 25.4949L186.826 11.8178H175.606V6.90533H192.868V12.0834L181.315 25.7605H193V30.673H175.075V25.4949Z" fill="#0B1A2F"/>
<path d="M7.99919 0.571228H0.0351562V1.76793H7.99919V0.571228Z" fill="#0B1A2F"/>
<path d="M29.0499 0.571228H21.0859V1.76793H29.0499V0.571228Z" fill="#0B1A2F" fill-opacity="0.2"/>
<path opacity="0.6" d="M18.1345 0.571228H10.8945V1.76793H18.1345V0.571228Z" fill="#0B1A2F" fill-opacity="0.6"/>
</svg>
