<svg width="9" height="6" viewBox="0 0 9 6" fill="none" xmlns="http://www.w3.org/2000/svg">
<path d="M4.48233 5.99998C4.36445 6.00067 4.24759 5.97791 4.13845 5.93302C4.02932 5.88812 3.93006 5.82197 3.84636 5.73836L0.263428 2.12972C0.179911 2.0456 0.113662 1.94574 0.0684629 1.83584C0.0232639 1.72593 1.75999e-09 1.60814 0 1.48918C-1.75999e-09 1.37023 0.0232639 1.25243 0.0684629 1.14253C0.113662 1.03263 0.179911 0.932766 0.263428 0.848649C0.346944 0.764533 0.446093 0.697809 0.555213 0.652285C0.664333 0.606762 0.781288 0.583332 0.899398 0.583332C1.01751 0.583332 1.13446 0.606762 1.24358 0.652285C1.3527 0.697809 1.45185 0.764533 1.53537 0.848649L4.48233 3.8348L7.43825 0.96593C7.52065 0.873649 7.62107 0.799483 7.73323 0.748073C7.84538 0.696662 7.96687 0.669112 8.09008 0.667146C8.21329 0.66518 8.33558 0.68884 8.44929 0.736646C8.56301 0.784452 8.66571 0.855377 8.75097 0.944984C8.83624 1.03459 8.90222 1.14095 8.94481 1.25741C8.9874 1.37388 9.00566 1.49794 8.99847 1.62184C8.99128 1.74574 8.95879 1.86681 8.90302 1.97748C8.84725 2.08816 8.76941 2.18605 8.67436 2.26504L5.09143 5.74738C4.92762 5.90644 4.70985 5.99676 4.48233 5.99998Z" fill="#A2B7C6"/>
</svg>
