<svg width="213" height="34" viewBox="0 0 213 34" fill="none" xmlns="http://www.w3.org/2000/svg">
<path d="M5.0941 33.5779H0L4.65972 5.02709H17.2173L12.5576 33.5779H7.46346L11.2939 10.0542H8.92455L5.0941 33.5779Z" fill="#FBFBFF"/>
<path d="M18.7759 5.02709H29.6354L28.8061 10.0542H23.0802L22.0535 16.2709H26.6342L25.7655 21.4131H21.1847L20.0395 28.4357H26.1209L25.2521 33.5779H14.1161L18.7759 5.02709Z" fill="#FBFBFF"/>
<path d="M36.214 22.1422H33.2524L31.3964 33.5779H26.3023L30.962 5.02709H37.7146C39.7944 5.02709 41.2028 5.51317 41.94 6.48533C42.7034 7.4319 42.914 8.82619 42.5718 10.6682L41.6241 16.386C41.3345 18.2536 40.7816 19.6862 39.9655 20.684C39.1494 21.6561 37.8989 22.1422 36.214 22.1422ZM35.3453 9.44018L34.0421 17.4989H35.1083C35.6085 17.4989 35.9508 17.3837 36.1351 17.1535C36.3193 16.9233 36.451 16.5267 36.53 15.9639L37.3197 11.1287C37.504 10.003 37.1486 9.44018 36.2535 9.44018H35.3453Z" fill="#FBFBFF"/>
<path d="M44.6521 5.02709H55.5116L54.6823 10.0542H48.9564L47.9297 16.2709H52.5104L51.6417 21.4131H47.0609L45.9157 28.4357H51.9971L51.1283 33.5779H39.9924L44.6521 5.02709Z" fill="#FBFBFF"/>
<path d="M60.5107 33.5779L62.9985 18.4199L57.1146 33.5779H52.0995L56.7592 5.02709H61.7743L59.2865 20.3002L65.1704 5.02709H70.1855L65.5258 33.5779H60.5107ZM63.9857 4.14447H63.8278C62.5115 4.14447 61.5111 3.78631 60.8266 3.06998C60.1421 2.32807 59.8789 1.30474 60.0368 0H63.2354C63.1828 0.332581 63.2223 0.613996 63.3539 0.844244C63.5119 1.04891 63.7488 1.15124 64.0647 1.15124H64.1042C64.7887 1.15124 65.1309 0.767495 65.1309 0H68.4085C68.3559 1.30474 67.9215 2.32807 67.1054 3.06998C66.3156 3.78631 65.2757 4.14447 63.9857 4.14447Z" fill="#FBFBFF"/>
<path d="M71.2499 5.02709H83.6495L82.8202 10.0542H79.2267L75.3963 33.5779H70.3022L74.1326 10.0542H70.4206L71.2499 5.02709Z" fill="#FBFBFF"/>
<path d="M88.3151 33.5779L90.8029 18.4199L84.919 33.5779H79.9039L84.5636 5.02709H89.5787L87.0909 20.3002L92.9748 5.02709H97.9899L93.3302 33.5779H88.3151Z" fill="#FBFBFF"/>
<path d="M98.9176 33.5779L103.577 5.02709H110.883C112.673 5.02709 113.95 5.43642 114.713 6.25508C115.503 7.04816 115.74 8.34011 115.424 10.1309L114.832 13.7765C114.463 16.0534 113.423 17.4349 111.712 17.921C113.502 18.5606 114.226 20.0572 113.884 22.4108L113.134 27.1693C112.739 29.4462 112.146 31.0835 111.357 32.0813C110.593 33.079 109.448 33.5779 107.921 33.5779H98.9176ZM107.289 20.7991H106.105L104.723 29.0497H106.184C106.657 29.0497 107.013 28.9473 107.25 28.7427C107.487 28.538 107.671 28.0519 107.803 27.2844L108.553 22.6795C108.658 22.0399 108.619 21.5666 108.435 21.2596C108.25 20.9526 107.868 20.7991 107.289 20.7991ZM109.106 9.40181H107.961L106.855 16.1941H108.119C108.54 16.1941 108.856 16.0918 109.066 15.8871C109.303 15.6825 109.488 15.2859 109.619 14.6975L110.251 10.8984C110.409 9.90068 110.027 9.40181 109.106 9.40181Z" fill="#FBFBFF"/>
<path d="M125.763 33.5779L124.342 21.2212L122.328 33.5779H117.233L121.893 5.02709H126.987L125.21 15.8871L130.186 5.02709H135.359L129.317 18.1896L131.134 33.5779H125.763Z" fill="#FBFBFF"/>
<path d="M139.978 33.5779L140.215 28.781H137.096L135.871 33.5779H131.251L139.504 5.02709H145.546L144.875 33.5779H139.978ZM138.399 23.8691H140.452L140.887 14.237L138.399 23.8691Z" fill="#FBFBFF"/>
<path d="M147.567 5.02709H159.967L159.138 10.0542H155.544L151.714 33.5779H146.62L150.45 10.0542H146.738L147.567 5.02709Z" fill="#FBFBFF"/>
<path d="M162.538 33.5779L162.775 28.781H159.655L158.431 33.5779H153.811L162.064 5.02709H168.106L167.435 33.5779H162.538ZM160.959 23.8691H163.012L163.446 14.237L160.959 23.8691Z" fill="#FBFBFF"/>
<path d="M176.398 33.5779L180.229 10.0542H178.215C176.714 19.4688 175.595 25.6343 174.858 28.5508C174.411 30.3416 173.766 31.6336 172.923 32.4266C172.081 33.1941 170.738 33.5779 168.895 33.5779H167.592L168.421 28.3973H168.737C169.237 28.3973 169.606 28.2566 169.843 27.9752C170.08 27.6938 170.277 27.1949 170.435 26.4786C171.62 20.62 172.884 13.4695 174.226 5.02709H186.152L181.492 33.5779H176.398Z" fill="#FBFBFF"/>
<path d="M193.411 9.67043C192.91 9.67043 192.542 9.82393 192.305 10.1309C192.094 10.4123 191.936 10.8856 191.831 11.5508L189.264 27.2844C189.106 28.3589 189.514 28.8962 190.488 28.8962C191.331 28.8962 191.844 28.3589 192.028 27.2844L194.595 11.5508C194.78 10.2972 194.385 9.67043 193.411 9.67043ZM192.976 4.68172H194.042C196.333 4.68172 197.965 5.33409 198.939 6.63883C199.913 7.94357 200.229 9.70881 199.887 11.9345L197.438 26.9774C196.622 31.6591 194.464 34 190.962 34H189.896C187.685 34 186.052 33.3604 184.999 32.0813C183.973 30.8021 183.644 29.0369 184.012 26.7856L186.421 11.9729C186.816 9.54251 187.5 7.72611 188.474 6.5237C189.475 5.29571 190.975 4.68172 192.976 4.68172Z" fill="#FBFBFF"/>
<path d="M202.733 33.5779H197.639L202.298 5.02709H213L212.171 10.0542H206.563L202.733 33.5779Z" fill="#FBFBFF"/>
</svg>
