<svg width="58" height="54" viewBox="0 0 58 54" fill="none" xmlns="http://www.w3.org/2000/svg">
<path d="M42.0011 0.900391C36.6028 0.900391 31.8343 3.61754 28.9912 7.75625C26.1481 3.61754 21.3796 0.900391 15.9813 0.900391C7.27198 0.900391 0.200195 7.97218 0.200195 16.6815C0.200195 35.9174 28.9912 53.21 28.9912 53.21C28.9912 53.21 57.7822 35.9174 57.7822 16.6815C57.7822 7.97218 50.7104 0.900391 42.0011 0.900391Z" fill="url(#paint0_radial)"/>
<path opacity="0.5" d="M48.5328 2.30371C57.1701 16.0694 49.2166 34.1358 39.6616 39.2642C29.1169 44.9324 21.9012 42.2692 6.96582 33.7939C15.4772 45.0763 28.9909 53.1918 28.9909 53.1918C28.9909 53.1918 57.782 35.8992 57.782 16.6632C57.782 10.2932 53.9851 4.78694 48.5328 2.30371Z" fill="url(#paint1_radial)"/>
<path opacity="0.5" d="M42.0011 0.900391C36.6028 0.900391 31.8343 3.61754 28.9912 7.75625C26.1481 3.61754 21.3796 0.900391 15.9813 0.900391C7.27198 0.900391 0.200195 7.97218 0.200195 16.6815C0.200195 35.9174 28.9912 53.21 28.9912 53.21C28.9912 53.21 57.7822 35.9174 57.7822 16.6815C57.7822 7.97218 50.7104 0.900391 42.0011 0.900391Z" fill="url(#paint2_radial)"/>
<path opacity="0.5" d="M42.0011 0.900391C36.6028 0.900391 31.8343 3.61754 28.9912 7.75625C26.1481 3.61754 21.3796 0.900391 15.9813 0.900391C7.27198 0.900391 0.200195 7.97218 0.200195 16.6815C0.200195 35.9174 28.9912 53.21 28.9912 53.21C28.9912 53.21 57.7822 35.9174 57.7822 16.6815C57.7822 7.97218 50.7104 0.900391 42.0011 0.900391Z" fill="url(#paint3_radial)"/>
<path opacity="0.24" d="M25.0521 7.30604C26.6357 11.0309 23.1267 16.0873 17.2066 18.5885C11.2864 21.0897 5.22234 20.118 3.63884 16.4112C2.05533 12.7044 5.56424 7.62994 11.4844 5.12872C17.4045 2.6275 23.4686 3.58121 25.0521 7.30604Z" fill="url(#paint4_radial)"/>
<path opacity="0.24" d="M44.3405 4.28292C46.5898 6.76614 45.2042 11.6786 41.2634 15.2415C37.3227 18.8044 32.3022 19.6861 30.0529 17.2029C27.8036 14.7197 29.1892 9.80719 33.13 6.2443C37.0707 2.68142 42.0912 1.79969 44.3405 4.28292Z" fill="url(#paint5_radial)"/>
<path opacity="0.32" d="M42.2905 5.09308C50.208 7.79224 57.7657 19.4886 44.9897 34.064C37.342 42.7913 28.9927 47.1999 18.376 45.4725C24.1162 50.259 29.0107 53.21 29.0107 53.21C29.0107 53.21 57.8017 35.9174 57.8017 16.6815C57.7837 7.97218 50.7119 0.900391 42.0026 0.900391C36.6043 0.900391 31.8358 3.61754 28.9927 7.75625C28.9927 7.75625 36.4963 3.1137 42.2905 5.09308Z" fill="url(#paint6_linear)"/>
<defs>
<radialGradient id="paint0_radial" cx="0" cy="0" r="1" gradientUnits="userSpaceOnUse" gradientTransform="translate(20.7557 15.4908) rotate(-29.408) scale(45.051 35.737)">
<stop offset="0.2479" stop-color="#FF0000"/>
<stop offset="0.8639" stop-color="#C20000"/>
</radialGradient>
<radialGradient id="paint1_radial" cx="0" cy="0" r="1" gradientUnits="userSpaceOnUse" gradientTransform="translate(21.8698 12.727) rotate(-29.408) scale(38.7874 30.7684)">
<stop offset="0.2479" stop-color="#FF0000"/>
<stop offset="1" stop-color="#C20000"/>
</radialGradient>
<radialGradient id="paint2_radial" cx="0" cy="0" r="1" gradientUnits="userSpaceOnUse" gradientTransform="translate(20.7557 15.4908) rotate(-29.408) scale(45.051 35.737)">
<stop stop-color="white" stop-opacity="0.25"/>
<stop offset="1" stop-color="white" stop-opacity="0"/>
</radialGradient>
<radialGradient id="paint3_radial" cx="0" cy="0" r="1" gradientUnits="userSpaceOnUse" gradientTransform="translate(36.9508 30.7846) rotate(-26.296) scale(32.8855 16.2501)">
<stop stop-color="#BD2719" stop-opacity="0.25"/>
<stop offset="1" stop-color="#BD2719" stop-opacity="0"/>
</radialGradient>
<radialGradient id="paint4_radial" cx="0" cy="0" r="1" gradientUnits="userSpaceOnUse" gradientTransform="translate(14.342 11.8586) rotate(-21.6908) scale(11.6908 7.26213)">
<stop stop-color="white"/>
<stop offset="1" stop-color="white" stop-opacity="0"/>
</radialGradient>
<radialGradient id="paint5_radial" cx="0" cy="0" r="1" gradientUnits="userSpaceOnUse" gradientTransform="translate(37.1802 10.7615) rotate(-40.7634) scale(9.67932 6.01304)">
<stop stop-color="white"/>
<stop offset="1" stop-color="white" stop-opacity="0"/>
</radialGradient>
<linearGradient id="paint6_linear" x1="34.934" y1="73.7542" x2="40.5123" y2="-1.46223" gradientUnits="userSpaceOnUse">
<stop stop-color="#860805"/>
<stop offset="1" stop-color="#BD2719" stop-opacity="0"/>
</linearGradient>
</defs>
</svg>
