<svg width="210" height="117" viewBox="0 0 210 117" fill="none" xmlns="http://www.w3.org/2000/svg">
<rect x="41" y="3" width="132" height="23" rx="6" fill="url(#paint0_linear)"/>
<rect x="54" y="29" width="105" height="23" rx="6" fill="url(#paint1_linear)"/>
<path d="M0 87.3846C0 75.4182 0 69.435 3.78508 65.7175C7.57016 62 13.6622 62 25.8462 62H184.154C196.338 62 202.43 62 206.215 65.7175C210 69.435 210 75.4182 210 87.3846V91.6154C210 103.582 210 109.565 206.215 113.283C202.43 117 196.338 117 184.154 117H25.8462C13.6622 117 7.57016 117 3.78508 113.283C0 109.565 0 103.582 0 91.6154V87.3846Z" fill="white"/>
<path fill-rule="evenodd" clip-rule="evenodd" d="M184.272 64.5312H25.7277C20.1198 64.5312 15.9681 64.5324 12.7817 64.9544C9.61081 65.3744 7.4767 66.2024 5.85617 67.7988C4.23564 69.3953 3.39513 71.4977 2.96881 74.6214C2.54041 77.7605 2.53927 81.8504 2.53927 87.375V91.625C2.53927 97.1496 2.54041 101.24 2.96881 104.379C3.39513 107.502 4.23564 109.605 5.85617 111.201C7.4767 112.798 9.61081 113.626 12.7817 114.046C15.9681 114.468 20.1198 114.469 25.7277 114.469H184.272C189.88 114.469 194.032 114.468 197.218 114.046C200.389 113.626 202.523 112.798 204.144 111.201C205.764 109.605 206.605 107.502 207.031 104.379C207.46 101.24 207.461 97.1496 207.461 91.625V87.375C207.461 81.8504 207.46 77.7605 207.031 74.6214C206.605 71.4977 205.764 69.3953 204.144 67.7988C202.523 66.2024 200.389 65.3744 197.218 64.9544C194.032 64.5324 189.88 64.5312 184.272 64.5312ZM5.47485 67.4232C2 70.8464 2 76.3559 2 87.375V91.625C2 102.644 2 108.154 5.47485 111.577C8.9497 115 14.5424 115 25.7277 115H184.272C195.458 115 201.05 115 204.525 111.577C208 108.154 208 102.644 208 91.625V87.375C208 76.3559 208 70.8464 204.525 67.4232C201.05 64 195.458 64 184.272 64H25.7277C14.5424 64 8.9497 64 5.47485 67.4232Z" fill="#BDCBE6"/>
<path d="M2 87.375C2 76.3559 2 70.8464 5.49031 67.4232C8.98062 64 14.5982 64 25.8333 64H106V115H25.8333C14.5982 115 8.98062 115 5.49031 111.577C2 108.154 2 102.644 2 91.625V87.375Z" fill="url(#paint2_linear)"/>
<path d="M54.0725 100H51.3934V96.4476H42.9016V99.9901H40.1547L40 94.0562H41.0639C41.6378 93.5667 42.0794 92.849 42.3889 91.903C42.7049 90.9504 42.9177 89.7729 43.0273 88.3705L43.4335 82H52.6604V94.0562H54.3047L54.0725 100ZM44.391 94.0562H49.7589V84.4112H46.19L45.9482 88.2117C45.7547 90.7585 45.2357 92.7067 44.391 94.0562Z" fill="white"/>
<path d="M63.9378 93.4708H58.8504L57.8832 96.4476H54.7979L60.0401 82H62.7288L68 96.4476H64.9147L63.9378 93.4708ZM59.6339 91.0595H63.1544L61.3845 85.6516L59.6339 91.0595Z" fill="white"/>
<path d="M153.161 96H150.336V90H144.826V96H142V82H144.826V87.6731H150.336V82H153.161V96Z" fill="url(#paint3_linear)"/>
<path d="M163.889 89.9327H158.464V93.6827H164.831V96H155.638V82H164.812V84.3365H158.464V87.6731H163.889V89.9327Z" fill="url(#paint4_linear)"/>
<path d="M177 84.3365H172.799V96H169.974V84.3365H165.829V82H177V84.3365Z" fill="url(#paint5_linear)"/>
<path d="M47.4954 7.436H53.5974C54.6414 7.436 55.4514 7.73 56.0274 8.318C56.6154 8.906 56.9094 9.686 56.9094 10.658C56.9094 11.138 56.8434 11.546 56.7114 11.882C56.5914 12.218 56.4234 12.494 56.2074 12.71C56.0034 12.926 55.7574 13.088 55.4694 13.196C55.1934 13.292 54.8934 13.346 54.5694 13.358V13.466C54.8694 13.466 55.1814 13.52 55.5054 13.628C55.8414 13.736 56.1474 13.91 56.4234 14.15C56.6994 14.378 56.9274 14.678 57.1074 15.05C57.2994 15.422 57.3954 15.878 57.3954 16.418C57.3954 16.91 57.3114 17.378 57.1434 17.822C56.9874 18.254 56.7654 18.632 56.4774 18.956C56.1894 19.28 55.8474 19.538 55.4514 19.73C55.0554 19.91 54.6234 20 54.1554 20H47.4954V7.436ZM50.2314 17.696H53.3814C53.7414 17.696 54.0234 17.6 54.2274 17.408C54.4434 17.204 54.5514 16.922 54.5514 16.562V15.95C54.5514 15.59 54.4434 15.314 54.2274 15.122C54.0234 14.918 53.7414 14.816 53.3814 14.816H50.2314V17.696ZM50.2314 12.584H52.9494C53.3094 12.584 53.5914 12.482 53.7954 12.278C53.9994 12.074 54.1014 11.792 54.1014 11.432V10.892C54.1014 10.532 53.9994 10.25 53.7954 10.046C53.5914 9.842 53.3094 9.74 52.9494 9.74H50.2314V12.584ZM66.3412 20C65.8612 20 65.4592 19.85 65.1352 19.55C64.8232 19.25 64.6252 18.848 64.5412 18.344H64.4332C64.2892 18.956 63.9712 19.424 63.4792 19.748C62.9872 20.06 62.3812 20.216 61.6612 20.216C60.7132 20.216 59.9872 19.964 59.4832 19.46C58.9792 18.956 58.7272 18.29 58.7272 17.462C58.7272 16.466 59.0872 15.728 59.8072 15.248C60.5392 14.756 61.5292 14.51 62.7772 14.51H64.2712V13.916C64.2712 13.46 64.1512 13.1 63.9112 12.836C63.6712 12.56 63.2692 12.422 62.7052 12.422C62.1772 12.422 61.7572 12.536 61.4452 12.764C61.1332 12.992 60.8752 13.25 60.6712 13.538L59.0872 12.134C59.4712 11.57 59.9512 11.132 60.5272 10.82C61.1152 10.496 61.9072 10.334 62.9032 10.334C64.2472 10.334 65.2552 10.628 65.9272 11.216C66.5992 11.804 66.9352 12.662 66.9352 13.79V17.93H67.8172V20H66.3412ZM62.6512 18.362C63.0952 18.362 63.4732 18.266 63.7852 18.074C64.1092 17.882 64.2712 17.57 64.2712 17.138V16.022H62.9752C61.9312 16.022 61.4092 16.376 61.4092 17.084V17.354C61.4092 17.702 61.5172 17.96 61.7332 18.128C61.9492 18.284 62.2552 18.362 62.6512 18.362ZM69.6053 10.55H72.4853L74.8613 14.42H74.9333L77.3093 10.55H80.1893V20H77.5973V13.862H77.5433L76.8233 15.176L74.8973 18.308L72.9713 15.176L72.2513 13.862H72.1973V20H69.6053V10.55ZM86.9197 10.55H89.5837V14.168H92.7877V10.55H95.4517V20H92.7877V16.238H89.5837V20H86.9197V10.55ZM97.9412 10.55H100.605V12.134H100.695C100.827 11.606 101.127 11.174 101.595 10.838C102.075 10.502 102.621 10.334 103.233 10.334C104.433 10.334 105.339 10.754 105.951 11.594C106.563 12.434 106.869 13.658 106.869 15.266C106.869 16.874 106.563 18.104 105.951 18.956C105.339 19.796 104.433 20.216 103.233 20.216C102.921 20.216 102.627 20.168 102.351 20.072C102.075 19.988 101.823 19.868 101.595 19.712C101.379 19.544 101.193 19.352 101.037 19.136C100.881 18.908 100.767 18.668 100.695 18.416H100.605V23.6H97.9412V10.55ZM102.351 18.056C102.855 18.056 103.269 17.882 103.593 17.534C103.929 17.174 104.097 16.694 104.097 16.094V14.456C104.097 13.856 103.929 13.382 103.593 13.034C103.269 12.674 102.855 12.494 102.351 12.494C101.847 12.494 101.427 12.62 101.091 12.872C100.767 13.112 100.605 13.448 100.605 13.88V16.67C100.605 17.102 100.767 17.444 101.091 17.696C101.427 17.936 101.847 18.056 102.351 18.056ZM115.876 20C115.396 20 114.994 19.85 114.67 19.55C114.358 19.25 114.16 18.848 114.076 18.344H113.968C113.824 18.956 113.506 19.424 113.014 19.748C112.522 20.06 111.916 20.216 111.196 20.216C110.248 20.216 109.522 19.964 109.018 19.46C108.514 18.956 108.262 18.29 108.262 17.462C108.262 16.466 108.622 15.728 109.342 15.248C110.074 14.756 111.064 14.51 112.312 14.51H113.806V13.916C113.806 13.46 113.686 13.1 113.446 12.836C113.206 12.56 112.804 12.422 112.24 12.422C111.712 12.422 111.292 12.536 110.98 12.764C110.668 12.992 110.41 13.25 110.206 13.538L108.622 12.134C109.006 11.57 109.486 11.132 110.062 10.82C110.65 10.496 111.442 10.334 112.438 10.334C113.782 10.334 114.79 10.628 115.462 11.216C116.134 11.804 116.47 12.662 116.47 13.79V17.93H117.352V20H115.876ZM112.186 18.362C112.63 18.362 113.008 18.266 113.32 18.074C113.644 17.882 113.806 17.57 113.806 17.138V16.022H112.51C111.466 16.022 110.944 16.376 110.944 17.084V17.354C110.944 17.702 111.052 17.96 111.268 18.128C111.484 18.284 111.79 18.362 112.186 18.362ZM119.14 10.55H124.522C125.386 10.55 126.046 10.766 126.502 11.198C126.958 11.63 127.186 12.206 127.186 12.926C127.186 13.538 127.024 14.012 126.7 14.348C126.376 14.684 125.872 14.9 125.188 14.996V15.086C126.76 15.23 127.546 15.956 127.546 17.264C127.546 18.104 127.282 18.77 126.754 19.262C126.226 19.754 125.494 20 124.558 20H119.14V10.55ZM124.072 18.11C124.312 18.11 124.504 18.044 124.648 17.912C124.792 17.78 124.864 17.594 124.864 17.354V16.796C124.864 16.556 124.792 16.37 124.648 16.238C124.504 16.094 124.312 16.022 124.072 16.022H121.732V18.11H124.072ZM123.748 14.438C123.988 14.438 124.174 14.372 124.306 14.24C124.438 14.108 124.504 13.922 124.504 13.682V13.196C124.504 12.956 124.438 12.77 124.306 12.638C124.174 12.506 123.988 12.44 123.748 12.44H121.732V14.438H123.748ZM129.512 10.55H132.122V14.348L131.888 16.544H131.942L133.04 14.528L135.668 10.55H138.044V20H135.434V16.202L135.668 14.006H135.614L134.516 16.022L131.888 20H129.512V10.55ZM142.387 12.62H139.651V10.55H147.787V12.62H145.051V20H142.387V12.62ZM153.121 20.216C152.413 20.216 151.783 20.102 151.231 19.874C150.679 19.634 150.217 19.304 149.845 18.884C149.473 18.452 149.191 17.93 148.999 17.318C148.807 16.706 148.711 16.022 148.711 15.266C148.711 14.51 148.807 13.832 148.999 13.232C149.191 12.62 149.473 12.098 149.845 11.666C150.217 11.234 150.679 10.904 151.231 10.676C151.783 10.448 152.413 10.334 153.121 10.334C154.081 10.334 154.879 10.55 155.515 10.982C156.163 11.414 156.625 12.02 156.901 12.8L154.741 13.736C154.657 13.376 154.483 13.07 154.219 12.818C153.955 12.566 153.589 12.44 153.121 12.44C152.581 12.44 152.173 12.62 151.897 12.98C151.621 13.328 151.483 13.802 151.483 14.402V16.166C151.483 16.766 151.621 17.246 151.897 17.606C152.173 17.954 152.581 18.128 153.121 18.128C153.649 18.128 154.039 17.99 154.291 17.714C154.555 17.426 154.753 17.09 154.885 16.706L156.955 17.606C156.643 18.506 156.157 19.166 155.497 19.586C154.849 20.006 154.057 20.216 153.121 20.216ZM158.135 17.93H159.143L159.575 17.084C159.791 16.64 160.121 16.4 160.565 16.364V16.274C159.857 16.178 159.293 15.92 158.873 15.5C158.453 15.08 158.243 14.48 158.243 13.7C158.243 13.208 158.327 12.77 158.495 12.386C158.663 11.99 158.891 11.66 159.179 11.396C159.479 11.12 159.827 10.91 160.223 10.766C160.619 10.622 161.045 10.55 161.501 10.55H166.649V20H163.985V16.706H162.527L161.537 18.65C161.285 19.154 160.991 19.508 160.655 19.712C160.331 19.904 159.917 20 159.413 20H158.135V17.93ZM163.985 14.816V12.44H162.077C161.729 12.44 161.447 12.536 161.231 12.728C161.027 12.908 160.925 13.172 160.925 13.52V13.826C160.925 14.114 161.027 14.354 161.231 14.546C161.447 14.726 161.729 14.816 162.077 14.816H163.985ZM62.5296 38.62H59.7936V36.55H67.9296V38.62H65.1936V46H62.5296V38.62ZM76.4311 46C75.9511 46 75.5491 45.85 75.2251 45.55C74.9131 45.25 74.7151 44.848 74.6311 44.344H74.5231C74.3791 44.956 74.0611 45.424 73.5691 45.748C73.0771 46.06 72.4711 46.216 71.7511 46.216C70.8031 46.216 70.0771 45.964 69.5731 45.46C69.0691 44.956 68.8171 44.29 68.8171 43.462C68.8171 42.466 69.1771 41.728 69.8971 41.248C70.6291 40.756 71.6191 40.51 72.8671 40.51H74.3611V39.916C74.3611 39.46 74.2411 39.1 74.0011 38.836C73.7611 38.56 73.3591 38.422 72.7951 38.422C72.2671 38.422 71.8471 38.536 71.5351 38.764C71.2231 38.992 70.9651 39.25 70.7611 39.538L69.1771 38.134C69.5611 37.57 70.0411 37.132 70.6171 36.82C71.2051 36.496 71.9971 36.334 72.9931 36.334C74.3371 36.334 75.3451 36.628 76.0171 37.216C76.6891 37.804 77.0251 38.662 77.0251 39.79V43.93H77.9071V46H76.4311ZM72.7411 44.362C73.1851 44.362 73.5631 44.266 73.8751 44.074C74.1991 43.882 74.3611 43.57 74.3611 43.138V42.022H73.0651C72.0211 42.022 71.4991 42.376 71.4991 43.084V43.354C71.4991 43.702 71.6071 43.96 71.8231 44.128C72.0391 44.284 72.3451 44.362 72.7411 44.362ZM79.6951 36.55H82.3591V40.168H83.7271L84.9691 37.864C85.2211 37.396 85.5031 37.06 85.8151 36.856C86.1391 36.652 86.5531 36.55 87.0571 36.55H88.1551V38.62H87.2011L86.3911 40.132C86.2231 40.444 86.0551 40.666 85.8871 40.798C85.7311 40.93 85.5451 41.026 85.3291 41.086V41.176C85.5331 41.224 85.7191 41.308 85.8871 41.428C86.0671 41.548 86.2291 41.74 86.3731 42.004L87.4351 43.93H88.4071V46H87.1651C86.6611 46 86.2531 45.898 85.9411 45.694C85.6291 45.49 85.3351 45.142 85.0591 44.65L83.7271 42.238H82.3591V46H79.6951V36.55ZM93.953 46.216C93.257 46.216 92.633 46.102 92.081 45.874C91.541 45.646 91.079 45.316 90.695 44.884C90.323 44.452 90.035 43.93 89.831 43.318C89.627 42.706 89.525 42.022 89.525 41.266C89.525 40.51 89.627 39.826 89.831 39.214C90.035 38.602 90.323 38.086 90.695 37.666C91.079 37.234 91.541 36.904 92.081 36.676C92.633 36.448 93.257 36.334 93.953 36.334C94.649 36.334 95.267 36.448 95.807 36.676C96.359 36.904 96.821 37.234 97.193 37.666C97.577 38.086 97.871 38.602 98.075 39.214C98.279 39.826 98.381 40.51 98.381 41.266C98.381 42.022 98.279 42.706 98.075 43.318C97.871 43.93 97.577 44.452 97.193 44.884C96.821 45.316 96.359 45.646 95.807 45.874C95.267 46.102 94.649 46.216 93.953 46.216ZM93.953 44.11C94.481 44.11 94.889 43.948 95.177 43.624C95.465 43.3 95.609 42.838 95.609 42.238V40.312C95.609 39.712 95.465 39.25 95.177 38.926C94.889 38.602 94.481 38.44 93.953 38.44C93.425 38.44 93.017 38.602 92.729 38.926C92.441 39.25 92.297 39.712 92.297 40.312V42.238C92.297 42.838 92.441 43.3 92.729 43.624C93.017 43.948 93.425 44.11 93.953 44.11ZM100.279 36.55H102.889V40.348L102.655 42.544H102.709L103.807 40.528L106.435 36.55H108.811V46H106.201V42.202L106.435 40.006H106.381L105.283 42.022L102.655 46H100.279V36.55ZM104.563 35.578C103.771 35.578 103.129 35.404 102.637 35.056C102.145 34.708 101.761 34.21 101.485 33.562L101.107 32.644L103.177 31.87L103.753 33.688C103.825 33.724 103.939 33.754 104.095 33.778C104.251 33.802 104.407 33.814 104.563 33.814C104.719 33.814 104.875 33.802 105.031 33.778C105.187 33.754 105.301 33.724 105.373 33.688L105.949 31.87L108.019 32.644L107.641 33.562C107.365 34.21 106.981 34.708 106.489 35.056C105.997 35.404 105.355 35.578 104.563 35.578ZM114.583 43.93H115.807C115.927 43.774 116.029 43.576 116.113 43.336C116.209 43.096 116.287 42.808 116.347 42.472C116.419 42.124 116.473 41.71 116.509 41.23C116.545 40.75 116.562 40.186 116.562 39.538V36.55H124.069V46H121.405V38.62H119.119V39.682C119.119 40.498 119.089 41.218 119.029 41.842C118.969 42.454 118.879 42.988 118.759 43.444C118.639 43.888 118.495 44.266 118.327 44.578C118.171 44.878 117.997 45.124 117.805 45.316C117.517 45.604 117.181 45.808 116.797 45.928C116.425 46.048 115.957 46.108 115.393 46.108H114.583V43.93ZM132.336 36.55H134.82L131.184 47.458C130.944 48.19 130.602 48.73 130.158 49.078C129.726 49.426 129.102 49.6 128.286 49.6H126.63V47.53H128.412L128.736 46.486L125.424 36.55H128.07L129.456 40.96L130.14 43.696H130.248L130.95 40.96L132.336 36.55ZM136.174 36.55H138.838V40.168H140.206L141.448 37.864C141.7 37.396 141.982 37.06 142.294 36.856C142.618 36.652 143.032 36.55 143.536 36.55H144.634V38.62H143.68L142.87 40.132C142.702 40.444 142.534 40.666 142.366 40.798C142.21 40.93 142.024 41.026 141.808 41.086V41.176C142.012 41.224 142.198 41.308 142.366 41.428C142.546 41.548 142.708 41.74 142.852 42.004L143.914 43.93H144.886V46H143.644C143.14 46 142.732 45.898 142.42 45.694C142.108 45.49 141.814 45.142 141.538 44.65L140.206 42.238H138.838V46H136.174V36.55ZM148.41 41.806V39.052C149.358 39.016 150.066 38.86 150.534 38.584C151.014 38.296 151.254 37.816 151.254 37.144V36.892C151.254 36.436 151.116 36.088 150.84 35.848C150.576 35.608 150.228 35.488 149.796 35.488C149.328 35.488 148.938 35.632 148.626 35.92C148.326 36.208 148.122 36.574 148.014 37.018L145.818 36.1C145.926 35.74 146.082 35.392 146.286 35.056C146.49 34.708 146.754 34.402 147.078 34.138C147.414 33.862 147.81 33.64 148.266 33.472C148.734 33.304 149.274 33.22 149.886 33.22C150.51 33.22 151.08 33.31 151.596 33.49C152.112 33.67 152.556 33.922 152.928 34.246C153.3 34.57 153.582 34.96 153.774 35.416C153.978 35.872 154.08 36.376 154.08 36.928C154.08 37.432 153.996 37.888 153.828 38.296C153.66 38.704 153.432 39.064 153.144 39.376C152.856 39.676 152.52 39.922 152.136 40.114C151.752 40.306 151.35 40.438 150.93 40.51V41.806H148.41ZM149.706 46.216C149.13 46.216 148.716 46.084 148.464 45.82C148.224 45.556 148.104 45.232 148.104 44.848V44.416C148.104 44.032 148.224 43.708 148.464 43.444C148.716 43.18 149.13 43.048 149.706 43.048C150.282 43.048 150.69 43.18 150.93 43.444C151.182 43.708 151.308 44.032 151.308 44.416V44.848C151.308 45.232 151.182 45.556 150.93 45.82C150.69 46.084 150.282 46.216 149.706 46.216Z" fill="white"/>
<defs>
<linearGradient id="paint0_linear" x1="173" y1="3.95833" x2="118.075" y2="77.9365" gradientUnits="userSpaceOnUse">
<stop stop-color="#0848C9"/>
<stop offset="1" stop-color="#A55CF4"/>
</linearGradient>
<linearGradient id="paint1_linear" x1="159" y1="29.9583" x2="101.757" y2="91.2874" gradientUnits="userSpaceOnUse">
<stop stop-color="#0848C9"/>
<stop offset="1" stop-color="#A55CF4"/>
</linearGradient>
<linearGradient id="paint2_linear" x1="106" y1="66.125" x2="6.91475" y2="113.545" gradientUnits="userSpaceOnUse">
<stop stop-color="#0848C9"/>
<stop offset="1" stop-color="#A55CF4"/>
</linearGradient>
<linearGradient id="paint3_linear" x1="145.825" y1="82.8718" x2="172.734" y2="104.951" gradientUnits="userSpaceOnUse">
<stop stop-color="#F3687C"/>
<stop offset="1" stop-color="#FEC49A"/>
</linearGradient>
<linearGradient id="paint4_linear" x1="145.825" y1="82.8718" x2="172.734" y2="104.951" gradientUnits="userSpaceOnUse">
<stop stop-color="#F3687C"/>
<stop offset="1" stop-color="#FEC49A"/>
</linearGradient>
<linearGradient id="paint5_linear" x1="145.825" y1="82.8718" x2="172.734" y2="104.951" gradientUnits="userSpaceOnUse">
<stop stop-color="#F3687C"/>
<stop offset="1" stop-color="#FEC49A"/>
</linearGradient>
</defs>
</svg>
