<svg width="17" height="17" viewBox="0 0 17 17" fill="none" xmlns="http://www.w3.org/2000/svg">
<path fill-rule="evenodd" clip-rule="evenodd" d="M10.9973 2.08436C9.66768 1.49194 8.18223 1.34518 6.76243 1.66596C5.34263 1.98675 4.06456 2.75789 3.11884 3.86439C2.17312 4.97088 1.61041 6.35345 1.51463 7.80588C1.41886 9.25831 1.79516 10.7028 2.5874 11.9239C3.37964 13.145 4.54539 14.0773 5.91077 14.5817C7.27615 15.0861 8.76802 15.1357 10.1639 14.723C11.5597 14.3103 12.7848 13.4574 13.6563 12.2916C14.5278 11.1258 14.9992 9.70945 15 8.25386V7.56429C15 7.15008 15.3358 6.81429 15.75 6.81429C16.1642 6.81429 16.5 7.15008 16.5 7.56429V8.25429C16.499 10.0333 15.9229 11.7648 14.8577 13.1897C13.7925 14.6146 12.2952 15.657 10.5892 16.1614C8.88313 16.6659 7.05974 16.6053 5.39094 15.9888C3.72214 15.3722 2.29734 14.2328 1.32904 12.7403C0.360745 11.2478 -0.0991723 9.48237 0.0178833 7.70718C0.134939 5.93199 0.822696 4.24219 1.97858 2.88981C3.13447 1.53742 4.69655 0.594913 6.43186 0.202843C8.16716 -0.189227 9.98272 -0.00984992 11.6078 0.714222C11.9861 0.882807 12.1562 1.32619 11.9876 1.70454C11.819 2.0829 11.3756 2.25295 10.9973 2.08436Z" fill="#8C30F5"/>
<path fill-rule="evenodd" clip-rule="evenodd" d="M16.2801 1.7237C16.5731 2.01645 16.5733 2.49132 16.2806 2.78436L8.7806 10.2919C8.63997 10.4326 8.44917 10.5117 8.25019 10.5118C8.05122 10.5118 7.86037 10.4328 7.71967 10.2921L5.46967 8.04212C5.17678 7.74923 5.17678 7.27436 5.46967 6.98146C5.76257 6.68857 6.23744 6.68857 6.53033 6.98146L8.24974 8.70087L15.2194 1.72423C15.5122 1.43119 15.987 1.43095 16.2801 1.7237Z" fill="#8C30F5"/>
</svg>
