<svg width="130" height="10" viewBox="0 0 130 10" fill="none" xmlns="http://www.w3.org/2000/svg">
<path d="M0 0H3.23976C3.89449 0 4.40623 0.181886 4.77498 0.545657C5.15126 0.909428 5.3394 1.39569 5.3394 2.00445C5.3394 2.29399 5.29801 2.53898 5.21523 2.73942C5.13245 2.93987 5.02708 3.1069 4.89915 3.24053C4.77121 3.36674 4.632 3.46325 4.48149 3.53007C4.33098 3.58946 4.19175 3.63029 4.06382 3.65256V3.71938C4.20681 3.7268 4.36484 3.76392 4.53793 3.83074C4.71854 3.89755 4.88787 4.0052 5.0459 4.15367C5.20394 4.29473 5.33564 4.48033 5.441 4.71047C5.55388 4.93318 5.61032 5.20416 5.61032 5.52338C5.61032 5.84261 5.55764 6.13957 5.45228 6.41425C5.35445 6.68894 5.21523 6.9265 5.03461 7.12695C4.854 7.3274 4.63952 7.48701 4.39117 7.60579C4.14283 7.71715 3.87192 7.77283 3.57842 7.77283H0V0ZM0.948228 6.94878H3.28492C3.6913 6.94878 4.01114 6.84855 4.24443 6.64811C4.47772 6.44024 4.59437 6.13957 4.59437 5.7461V5.36748C4.59437 4.97402 4.47772 4.67706 4.24443 4.47662C4.01114 4.26875 3.6913 4.16481 3.28492 4.16481H0.948228V6.94878ZM0.948228 3.36303H3.12688C3.50316 3.36303 3.79665 3.27023 4.00737 3.08463C4.21809 2.89904 4.32344 2.63177 4.32344 2.28285V1.90423C4.32344 1.55531 4.21809 1.28805 4.00737 1.10245C3.79665 0.916852 3.50316 0.824053 3.12688 0.824053H0.948228V3.36303ZM7.28476 2.02673H8.16526V5.21158L8.07495 6.59243H8.1201L8.84256 5.36748L11.168 2.02673H12.0033V7.77283H11.1228V4.58797L11.2131 3.20713H11.168L10.4455 4.43207L8.1201 7.77283H7.28476V2.02673ZM13.0519 6.99332H13.7179C13.9512 6.62212 14.1393 6.15813 14.2823 5.60134C14.4253 5.04454 14.4968 4.40609 14.4968 3.68597V2.02673H18.4364V6.99332H19.4072V9.33185H18.5832V7.77283H13.8759V9.33185H13.0519V6.99332ZM17.5333 6.99332V2.80624H15.3547V3.73051C15.3547 4.49517 15.287 5.14848 15.1515 5.69042C15.0236 6.22494 14.8693 6.65924 14.6887 6.99332H17.5333ZM20.1485 6.99332H20.8258L21.4805 5.44543C21.5633 5.25241 21.6649 5.10765 21.7853 5.01114C21.9057 4.91462 22.0412 4.85523 22.1917 4.83296V4.78842C22.0412 4.74388 21.9095 4.66964 21.7966 4.5657C21.6837 4.46177 21.5859 4.317 21.5031 4.1314L20.9048 2.80624H20.2275V2.02673H20.7581C20.9838 2.02673 21.1795 2.08241 21.3451 2.19376C21.5181 2.30512 21.6611 2.4833 21.774 2.72829L22.5529 4.43207H23.5914V2.02673H24.4945V4.43207H25.533L26.3119 2.72829C26.4248 2.4833 26.564 2.30512 26.7296 2.19376C26.9027 2.08241 27.1021 2.02673 27.3279 2.02673H27.8584V2.80624H27.1811L26.5829 4.1314C26.5001 4.317 26.4022 4.46177 26.2894 4.5657C26.1765 4.66964 26.0448 4.74388 25.8943 4.78842V4.83296C26.0448 4.85523 26.1802 4.91462 26.3006 5.01114C26.4211 5.10765 26.5227 5.25241 26.6054 5.44543L27.2602 6.99332H27.9375V7.77283H27.294C27.0908 7.77283 26.9065 7.72086 26.7409 7.61693C26.5753 7.50557 26.4286 7.2977 26.3006 6.99332L25.533 5.18931H24.4945V7.77283H23.5914V5.18931H22.5529L21.7853 6.99332C21.6574 7.2977 21.5106 7.50557 21.3451 7.61693C21.1795 7.72086 20.9951 7.77283 20.7919 7.77283H20.1485V6.99332ZM31.3566 7.90646C30.9577 7.90646 30.5965 7.83593 30.2729 7.69488C29.9568 7.55382 29.6821 7.35338 29.4488 7.09354C29.2231 6.82628 29.0462 6.51077 28.9183 6.14699C28.7979 5.7758 28.7377 5.36006 28.7377 4.89978C28.7377 4.44692 28.7979 4.03489 28.9183 3.6637C29.0462 3.2925 29.2231 2.97699 29.4488 2.71715C29.6821 2.44989 29.9568 2.24573 30.2729 2.10468C30.5965 1.96362 30.9577 1.8931 31.3566 1.8931C31.7479 1.8931 32.0979 1.96362 32.4064 2.10468C32.715 2.24573 32.9783 2.44246 33.1966 2.69488C33.4148 2.93987 33.5804 3.23311 33.6933 3.57461C33.8137 3.91611 33.8739 4.29102 33.8739 4.69933V5.12249H29.6859V5.38975C29.6859 5.63474 29.7235 5.86489 29.7988 6.08018C29.8816 6.28805 29.9944 6.46993 30.1374 6.62584C30.2879 6.78174 30.4686 6.90423 30.6793 6.99332C30.8975 7.08241 31.1421 7.12695 31.413 7.12695C31.7818 7.12695 32.1016 7.04157 32.3725 6.87082C32.651 6.70007 32.8655 6.45509 33.016 6.13586L33.6594 6.59243C33.4713 6.98589 33.1778 7.30512 32.7789 7.55011C32.3801 7.78768 31.9059 7.90646 31.3566 7.90646ZM31.3566 2.6392C31.1082 2.6392 30.8825 2.68374 30.6793 2.77283C30.4761 2.85449 30.2992 2.97327 30.1487 3.12918C30.0057 3.28508 29.8929 3.47068 29.8101 3.68597C29.7273 3.89384 29.6859 4.12398 29.6859 4.37639V4.45434H32.9031V4.33185C32.9031 3.8196 32.7601 3.41128 32.4741 3.1069C32.1957 2.7951 31.8232 2.6392 31.3566 2.6392ZM36.4721 2.80624H34.4853V2.02673H39.3619V2.80624H37.3752V7.77283H36.4721V2.80624ZM46.8009 2.02673H47.6927L45.0851 9.10913C45.0174 9.27988 44.9497 9.42094 44.8819 9.5323C44.8142 9.65108 44.7314 9.74388 44.6336 9.81069C44.5358 9.87751 44.4116 9.92576 44.2611 9.95546C44.1181 9.98515 43.9412 10 43.7305 10H43.2677V9.22049H44.182L44.6223 7.99555L42.4436 2.02673H43.3467L44.7465 5.93541L45.0174 6.87082H45.0738L45.3899 5.93541L46.8009 2.02673ZM50.9563 7.90646C50.5499 7.90646 50.185 7.83593 49.8614 7.69488C49.5378 7.55382 49.2631 7.35338 49.0373 7.09354C48.8191 6.83371 48.6497 6.51819 48.5293 6.14699C48.4164 5.7758 48.36 5.36006 48.36 4.89978C48.36 4.4395 48.4164 4.02376 48.5293 3.65256C48.6497 3.28137 48.8191 2.96585 49.0373 2.70601C49.2631 2.44618 49.5378 2.24573 49.8614 2.10468C50.185 1.96362 50.5499 1.8931 50.9563 1.8931C51.5358 1.8931 51.9986 2.0193 52.3448 2.27171C52.6985 2.5167 52.9619 2.83964 53.135 3.24053L52.3787 3.61915C52.2733 3.3222 52.1002 3.09206 51.8594 2.92873C51.6186 2.7654 51.3176 2.68374 50.9563 2.68374C50.6854 2.68374 50.4483 2.72828 50.2452 2.81737C50.042 2.89903 49.8726 3.01782 49.7372 3.17372C49.6017 3.3222 49.5001 3.50408 49.4324 3.71938C49.3647 3.92725 49.3308 4.15739 49.3308 4.4098V5.38975C49.3308 5.89458 49.4663 6.31032 49.7372 6.63697C50.0156 6.9562 50.422 7.11581 50.9563 7.11581C51.6863 7.11581 52.2131 6.78174 52.5367 6.11359L53.1914 6.54788C53.0033 6.96362 52.7211 7.29399 52.3448 7.53898C51.976 7.78397 51.5132 7.90646 50.9563 7.90646ZM54.4664 2.02673H59.0156V7.77283H58.1125V2.80624H55.3694V7.77283H54.4664V2.02673ZM63.1277 7.90646C62.7288 7.90646 62.3676 7.83593 62.044 7.69488C61.7279 7.55382 61.4533 7.35338 61.22 7.09354C60.9942 6.82628 60.8173 6.51077 60.6894 6.14699C60.569 5.7758 60.5088 5.36006 60.5088 4.89978C60.5088 4.44692 60.569 4.03489 60.6894 3.6637C60.8173 3.2925 60.9942 2.97699 61.22 2.71715C61.4533 2.44989 61.7279 2.24573 62.044 2.10468C62.3676 1.96362 62.7288 1.8931 63.1277 1.8931C63.519 1.8931 63.869 1.96362 64.1775 2.10468C64.4861 2.24573 64.7495 2.44246 64.9677 2.69488C65.1859 2.93987 65.3515 3.23311 65.4644 3.57461C65.5848 3.91611 65.645 4.29102 65.645 4.69933V5.12249H61.457V5.38975C61.457 5.63474 61.4947 5.86489 61.5699 6.08018C61.6527 6.28805 61.7656 6.46993 61.9085 6.62584C62.0591 6.78174 62.2397 6.90423 62.4504 6.99332C62.6686 7.08241 62.9132 7.12695 63.1841 7.12695C63.5529 7.12695 63.8727 7.04157 64.1436 6.87082C64.4221 6.70007 64.6366 6.45509 64.7871 6.13586L65.4305 6.59243C65.2424 6.98589 64.9489 7.30512 64.55 7.55011C64.1512 7.78768 63.6771 7.90646 63.1277 7.90646ZM63.1277 2.6392C62.8793 2.6392 62.6536 2.68374 62.4504 2.77283C62.2472 2.85449 62.0703 2.97327 61.9198 3.12918C61.7769 3.28508 61.664 3.47068 61.5812 3.68597C61.4984 3.89384 61.457 4.12398 61.457 4.37639V4.45434H64.6742V4.33185C64.6742 3.8196 64.5312 3.41128 64.2452 3.1069C63.9668 2.7951 63.5943 2.6392 63.1277 2.6392ZM67.1326 2.02673H68.0356V6.99332H70.2256V2.02673H71.1286V6.99332H73.3186V2.02673H74.2216V7.77283H67.1326V2.02673ZM76.1394 2.02673H77.0425V4.42094H79.9549V2.02673H80.858V7.77283H79.9549V5.20045H77.0425V7.77283H76.1394V2.02673ZM84.977 7.90646C84.5856 7.90646 84.2282 7.83593 83.9046 7.69488C83.581 7.55382 83.3025 7.35338 83.0692 7.09354C82.8435 6.82628 82.6666 6.51077 82.5387 6.14699C82.4107 5.7758 82.3468 5.36006 82.3468 4.89978C82.3468 4.44692 82.4107 4.03489 82.5387 3.6637C82.6666 3.2925 82.8435 2.97699 83.0692 2.71715C83.3025 2.44989 83.581 2.24573 83.9046 2.10468C84.2282 1.96362 84.5856 1.8931 84.977 1.8931C85.3683 1.8931 85.722 1.96362 86.0381 2.10468C86.3617 2.24573 86.6401 2.44989 86.8734 2.71715C87.1067 2.97699 87.2873 3.2925 87.4152 3.6637C87.5432 4.03489 87.6071 4.44692 87.6071 4.89978C87.6071 5.36006 87.5432 5.7758 87.4152 6.14699C87.2873 6.51077 87.1067 6.82628 86.8734 7.09354C86.6401 7.35338 86.3617 7.55382 86.0381 7.69488C85.722 7.83593 85.3683 7.90646 84.977 7.90646ZM84.977 7.11581C85.4661 7.11581 85.865 6.96733 86.1735 6.67038C86.4821 6.37342 86.6364 5.92056 86.6364 5.3118V4.48775C86.6364 3.87899 86.4821 3.42613 86.1735 3.12918C85.865 2.83222 85.4661 2.68374 84.977 2.68374C84.4878 2.68374 84.0889 2.83222 83.7804 3.12918C83.4718 3.42613 83.3176 3.87899 83.3176 4.48775V5.3118C83.3176 5.92056 83.4718 6.37342 83.7804 6.67038C84.0889 6.96733 84.4878 7.11581 84.977 7.11581ZM93.9274 7.90646C93.521 7.90646 93.156 7.83593 92.8324 7.69488C92.5088 7.55382 92.2341 7.35338 92.0084 7.09354C91.7901 6.83371 91.6208 6.51819 91.5004 6.14699C91.3875 5.7758 91.3311 5.36006 91.3311 4.89978C91.3311 4.4395 91.3875 4.02376 91.5004 3.65256C91.6208 3.28137 91.7901 2.96585 92.0084 2.70601C92.2341 2.44618 92.5088 2.24573 92.8324 2.10468C93.156 1.96362 93.521 1.8931 93.9274 1.8931C94.5068 1.8931 94.9697 2.0193 95.3159 2.27171C95.6696 2.5167 95.9329 2.83964 96.106 3.24053L95.3497 3.61915C95.2444 3.3222 95.0713 3.09206 94.8304 2.92873C94.5896 2.7654 94.2886 2.68374 93.9274 2.68374C93.6565 2.68374 93.4194 2.72828 93.2162 2.81737C93.013 2.89903 92.8437 3.01782 92.7082 3.17372C92.5728 3.3222 92.4712 3.50408 92.4035 3.71938C92.3357 3.92725 92.3019 4.15739 92.3019 4.4098V5.38975C92.3019 5.89458 92.4373 6.31032 92.7082 6.63697C92.9867 6.9562 93.3931 7.11581 93.9274 7.11581C94.6574 7.11581 95.1842 6.78174 95.5078 6.11359L96.1625 6.54788C95.9743 6.96362 95.6921 7.29399 95.3159 7.53898C94.9471 7.78397 94.4843 7.90646 93.9274 7.90646ZM99.5722 7.90646C99.1809 7.90646 98.8234 7.83593 98.4998 7.69488C98.1762 7.55382 97.8978 7.35338 97.6645 7.09354C97.4387 6.82628 97.2618 6.51077 97.1339 6.14699C97.006 5.7758 96.942 5.36006 96.942 4.89978C96.942 4.44692 97.006 4.03489 97.1339 3.6637C97.2618 3.2925 97.4387 2.97699 97.6645 2.71715C97.8978 2.44989 98.1762 2.24573 98.4998 2.10468C98.8234 1.96362 99.1809 1.8931 99.5722 1.8931C99.9635 1.8931 100.317 1.96362 100.633 2.10468C100.957 2.24573 101.235 2.44989 101.469 2.71715C101.702 2.97699 101.883 3.2925 102.01 3.6637C102.138 4.03489 102.202 4.44692 102.202 4.89978C102.202 5.36006 102.138 5.7758 102.01 6.14699C101.883 6.51077 101.702 6.82628 101.469 7.09354C101.235 7.35338 100.957 7.55382 100.633 7.69488C100.317 7.83593 99.9635 7.90646 99.5722 7.90646ZM99.5722 7.11581C100.061 7.11581 100.46 6.96733 100.769 6.67038C101.077 6.37342 101.232 5.92056 101.232 5.3118V4.48775C101.232 3.87899 101.077 3.42613 100.769 3.12918C100.46 2.83222 100.061 2.68374 99.5722 2.68374C99.083 2.68374 98.6842 2.83222 98.3756 3.12918C98.0671 3.42613 97.9128 3.87899 97.9128 4.48775V5.3118C97.9128 5.92056 98.0671 6.37342 98.3756 6.67038C98.6842 6.96733 99.083 7.11581 99.5722 7.11581ZM105.258 7.90646C104.664 7.90646 104.19 7.80624 103.836 7.60579C103.482 7.40535 103.193 7.11953 102.967 6.74833L103.644 6.21381C103.795 6.49592 104.002 6.71864 104.265 6.88196C104.536 7.03786 104.867 7.11581 105.258 7.11581C105.733 7.11581 106.082 7.03044 106.308 6.85969C106.542 6.68894 106.658 6.46993 106.658 6.20267V6.06904C106.658 5.77951 106.557 5.5605 106.353 5.41203C106.158 5.25612 105.879 5.17817 105.518 5.17817H104.276V4.43207H105.405C105.766 4.43207 106.045 4.36154 106.24 4.22049C106.436 4.07944 106.534 3.87899 106.534 3.61915V3.48552C106.534 3.24053 106.432 3.04751 106.229 2.90646C106.034 2.75798 105.702 2.68374 105.236 2.68374C104.852 2.68374 104.536 2.76169 104.288 2.91759C104.039 3.06607 103.84 3.27023 103.689 3.53007L103.091 3.02895C103.272 2.69488 103.535 2.4239 103.881 2.21604C104.235 2.00074 104.701 1.8931 105.281 1.8931C106.041 1.8931 106.602 2.03044 106.963 2.30512C107.324 2.57981 107.505 2.95843 107.505 3.44098C107.505 3.79733 107.407 4.07944 107.211 4.2873C107.023 4.49517 106.748 4.63994 106.387 4.7216V4.76615C106.801 4.82554 107.11 4.97402 107.313 5.21158C107.524 5.44172 107.629 5.73868 107.629 6.10245C107.629 6.65924 107.414 7.10097 106.986 7.42762C106.564 7.74685 105.988 7.90646 105.258 7.90646ZM108.397 6.99332H109.063C109.296 6.62212 109.484 6.15813 109.627 5.60134C109.77 5.04454 109.841 4.40609 109.841 3.68597V2.02673H113.781V6.99332H114.752V9.33185H113.928V7.77283H109.221V9.33185H108.397V6.99332ZM112.878 6.99332V2.80624H110.699V3.73051C110.699 4.49517 110.632 5.14848 110.496 5.69042C110.368 6.22494 110.214 6.65924 110.033 6.99332H112.878ZM120.234 7.77283C119.896 7.77283 119.651 7.68374 119.501 7.50557C119.358 7.3274 119.267 7.10468 119.23 6.83742H119.173C119.045 7.19376 118.835 7.46103 118.541 7.6392C118.248 7.81737 117.898 7.90646 117.491 7.90646C116.874 7.90646 116.392 7.75056 116.046 7.43875C115.708 7.12695 115.538 6.70379 115.538 6.16927C115.538 5.62732 115.738 5.21158 116.137 4.92205C116.543 4.63252 117.171 4.48775 118.022 4.48775H119.173V3.91982C119.173 3.51151 119.06 3.1997 118.835 2.98441C118.609 2.76912 118.263 2.66147 117.796 2.66147C117.442 2.66147 117.145 2.73942 116.904 2.89532C116.671 3.05122 116.475 3.25909 116.317 3.51893L115.775 3.01782C115.933 2.70601 116.186 2.44246 116.532 2.22717C116.878 2.00445 117.314 1.8931 117.841 1.8931C118.549 1.8931 119.098 2.06385 119.489 2.40534C119.881 2.74684 120.076 3.22197 120.076 3.83074V6.99332H120.742V7.77283H120.234ZM117.638 7.14922C117.864 7.14922 118.071 7.12324 118.259 7.07127C118.447 7.0193 118.609 6.94506 118.744 6.84855C118.88 6.75204 118.985 6.64068 119.06 6.51448C119.136 6.38827 119.173 6.25093 119.173 6.10245V5.1559H117.977C117.457 5.1559 117.077 5.23014 116.836 5.37862C116.603 5.5271 116.487 5.74239 116.487 6.0245V6.25835C116.487 6.54046 116.588 6.75946 116.791 6.91537C117.002 7.07127 117.284 7.14922 117.638 7.14922ZM122.031 2.02673H122.934V4.42094H125.846V2.02673H126.75V7.77283H125.846V5.20045H122.934V7.77283H122.031V2.02673ZM129.086 5.71269L128.815 2.26058V0H129.808V2.26058L129.537 5.71269H129.086ZM129.311 7.90646C129.071 7.90646 128.894 7.84707 128.781 7.72829C128.675 7.6095 128.623 7.4536 128.623 7.26058V7.11581C128.623 6.92279 128.675 6.76689 128.781 6.64811C128.894 6.52932 129.071 6.46993 129.311 6.46993C129.552 6.46993 129.725 6.52932 129.831 6.64811C129.944 6.76689 130 6.92279 130 7.11581V7.26058C130 7.4536 129.944 7.6095 129.831 7.72829C129.725 7.84707 129.552 7.90646 129.311 7.90646Z" fill="black"/>
</svg>
