<svg width="27" height="23" viewBox="0 0 27 23" fill="none" xmlns="http://www.w3.org/2000/svg">
<path fill-rule="evenodd" clip-rule="evenodd" d="M20.2116 21.8976C20.5551 22.1408 20.9977 22.2016 21.3924 22.0522C21.7871 21.9018 22.0772 21.5648 22.1647 21.1562C23.0916 16.8 25.3401 5.77383 26.1839 1.81116C26.2479 1.5125 26.1412 1.2021 25.9065 1.00263C25.6719 0.803163 25.3465 0.745563 25.0564 0.853296C20.5839 2.50876 6.80999 7.67676 1.18012 9.75996C0.822787 9.89223 0.590254 10.2357 0.601987 10.6122C0.614787 10.9898 0.868654 11.3173 1.23452 11.4272C3.75932 12.1824 7.07345 13.233 7.07345 13.233C7.07345 13.233 8.62225 17.9104 9.42972 20.289C9.53105 20.5877 9.76465 20.8224 10.0729 20.9034C10.3801 20.9834 10.7087 20.8992 10.938 20.6826C12.2351 19.4581 14.2404 17.5648 14.2404 17.5648C14.2404 17.5648 18.0505 20.3584 20.2116 21.8976ZM8.46759 12.6421L10.2585 18.5493L10.6564 14.8085C10.6564 14.8085 17.5759 8.56743 21.5204 5.0101C21.6356 4.90556 21.6516 4.73063 21.5556 4.60796C21.4607 4.4853 21.2857 4.4565 21.1545 4.5397C16.5828 7.45916 8.46759 12.6421 8.46759 12.6421Z" fill="white"/>
</svg>
