<svg width="26" height="15" viewBox="0 0 26 15" fill="none" xmlns="http://www.w3.org/2000/svg">
<path d="M14.2397 14.9269C14.8893 14.9269 15.1549 14.4939 15.1474 13.9509C15.1143 11.9061 15.909 10.8053 17.3437 12.24C18.9309 13.8272 19.2594 14.9269 21.1869 14.9269H24.6002C25.4621 14.9269 25.8013 14.6496 25.8013 14.2144C25.8013 13.2939 24.2855 11.6693 23.0013 10.4768C21.2029 8.80747 21.1186 8.768 22.6674 6.7584C24.5885 4.26347 27.1015 1.06667 24.8786 1.06667H20.6322C19.8087 1.06667 19.749 1.53067 19.4557 2.22187C18.3943 4.72533 16.3773 7.968 15.6114 7.472C14.8103 6.95467 15.1773 4.9056 15.2381 1.86027C15.2541 1.056 15.2498 0.504533 14.021 0.218667C13.3501 0.0639999 12.6973 0 12.0914 0C9.66686 0 7.99433 1.01653 8.94473 1.1936C10.6205 1.50613 10.4594 5.13173 10.069 6.6976C9.38846 9.424 6.8306 4.53867 5.765 2.1056C5.50793 1.52107 5.42899 1.06667 4.51166 1.06667H1.03966C0.514862 1.06667 0.200195 1.23733 0.200195 1.61707C0.200195 2.2592 3.35753 8.78507 6.37193 12.0384C9.31166 15.2117 12.2173 14.9269 14.2397 14.9269Z" fill="white"/>
</svg>
