<svg width="44" height="40" viewBox="0 0 44 40" fill="none" xmlns="http://www.w3.org/2000/svg">
<path d="M6.06088 20.5662C4.62603 20.5662 3.19119 21.1608 2.16999 22.3242C1.25221 23.3583 0.799776 24.6897 0.890262 26.0729C0.980748 27.456 1.60122 28.7099 2.63535 29.6277L11.9295 37.7843C12.8732 38.6116 14.0883 39.077 15.3421 39.077C15.4843 39.077 15.6265 39.077 15.7687 39.0641C17.1648 38.9477 18.4704 38.2626 19.3494 37.1768L42.113 9.30717C43.9227 7.09673 43.5866 3.82631 41.3762 2.0166C40.3033 1.15052 38.9589 0.736872 37.5887 0.879064C36.2185 1.02126 34.9775 1.68051 34.0985 2.75341L14.7217 26.4607L9.46056 21.8459C8.49107 20.9928 7.26305 20.5662 6.06088 20.5662Z" fill="url(#paint0_linear)"/>
<path d="M15.3423 38.1458C14.3082 38.1458 13.3128 37.7709 12.5373 37.0858L3.24307 28.9291C1.48506 27.378 1.30409 24.6892 2.85527 22.9312C4.40646 21.1732 7.09518 20.9923 8.85319 22.5434L14.8382 27.7916L34.8097 3.3346C36.2962 1.51196 38.972 1.25342 40.7947 2.72705C42.6173 4.2136 42.8758 6.8894 41.4022 8.71204L18.6257 36.5817C17.9018 37.4736 16.8289 38.0294 15.6913 38.1328C15.575 38.1328 15.4587 38.1458 15.3423 38.1458Z" fill="url(#paint1_linear)"/>
<path opacity="0.75" d="M15.3423 38.1458C14.3082 38.1458 13.3128 37.7709 12.5373 37.0858L3.24307 28.9291C1.48506 27.378 1.30409 24.6892 2.85527 22.9312C4.40646 21.1732 7.09518 20.9923 8.85319 22.5434L14.8382 27.7916L34.8097 3.3346C36.2962 1.51196 38.972 1.25342 40.7947 2.72705C42.6173 4.2136 42.8758 6.8894 41.4022 8.71204L18.6257 36.5817C17.9018 37.4736 16.8289 38.0294 15.6913 38.1328C15.575 38.1328 15.4587 38.1458 15.3423 38.1458Z" fill="url(#paint2_radial)"/>
<path opacity="0.5" d="M15.3423 38.1458C14.3082 38.1458 13.3128 37.7709 12.5373 37.0858L3.24307 28.9291C1.48506 27.378 1.30409 24.6892 2.85527 22.9312C4.40646 21.1732 7.09518 20.9923 8.85319 22.5434L14.8382 27.7916L34.8097 3.3346C36.2962 1.51196 38.972 1.25342 40.7947 2.72705C42.6173 4.2136 42.8758 6.8894 41.4022 8.71204L18.6257 36.5817C17.9018 37.4736 16.8289 38.0294 15.6913 38.1328C15.575 38.1328 15.4587 38.1458 15.3423 38.1458Z" fill="url(#paint3_radial)"/>
<defs>
<linearGradient id="paint0_linear" x1="30.7299" y1="-38.7557" x2="17.1577" y2="46.943" gradientUnits="userSpaceOnUse">
<stop stop-color="#00CC00"/>
<stop offset="0.1878" stop-color="#06C102"/>
<stop offset="0.5185" stop-color="#17A306"/>
<stop offset="0.9507" stop-color="#33740C"/>
<stop offset="1" stop-color="#366E0D"/>
</linearGradient>
<linearGradient id="paint1_linear" x1="29.4294" y1="-5.74657" x2="11.7492" y2="46.274" gradientUnits="userSpaceOnUse">
<stop offset="0.2544" stop-color="#90D856"/>
<stop offset="0.736" stop-color="#00CC00"/>
<stop offset="0.7716" stop-color="#0BCD07"/>
<stop offset="0.8342" stop-color="#29CF18"/>
<stop offset="0.9166" stop-color="#59D335"/>
<stop offset="1" stop-color="#90D856"/>
</linearGradient>
<radialGradient id="paint2_radial" cx="0" cy="0" r="1" gradientUnits="userSpaceOnUse" gradientTransform="translate(29.886 13.103) rotate(116.129) scale(18.9065 9.68914)">
<stop stop-color="#FBE07A" stop-opacity="0.75"/>
<stop offset="0.0803394" stop-color="#FBE387" stop-opacity="0.6897"/>
<stop offset="0.5173" stop-color="#FDF2C7" stop-opacity="0.362"/>
<stop offset="0.8357" stop-color="#FFFBF0" stop-opacity="0.1233"/>
<stop offset="1" stop-color="white" stop-opacity="0"/>
</radialGradient>
<radialGradient id="paint3_radial" cx="0" cy="0" r="1" gradientUnits="userSpaceOnUse" gradientTransform="translate(21.2722 31.3505) rotate(155.316) scale(22.1727 9.38578)">
<stop stop-color="#440063" stop-opacity="0.25"/>
<stop offset="1" stop-color="#420061" stop-opacity="0"/>
</radialGradient>
</defs>
</svg>
