<svg width="58" height="58" viewBox="0 0 58 58" fill="none" xmlns="http://www.w3.org/2000/svg">
<path d="M16.9281 48.2586C16.885 48.2586 16.8379 48.2508 16.7908 48.239C12.0673 46.7992 6.9515 41.6363 5.84124 37.1913C5.77847 36.9403 5.93148 36.6892 6.17864 36.6264C6.42972 36.5636 6.6808 36.7166 6.74357 36.9638C7.76752 41.0635 12.6872 46.0106 17.0615 47.3484C17.3087 47.423 17.446 47.6819 17.3714 47.9291C17.3126 48.1291 17.1282 48.2586 16.9281 48.2586Z" fill="#975500"/>
<path d="M19.1801 54.1166C19.1448 54.1166 19.1094 54.1127 19.0741 54.1049C15.1667 53.1947 10.6236 50.2758 6.61414 46.0937C2.86359 42.1863 0.43515 38.0277 0.278223 35.2423C0.262531 34.9872 0.458689 34.7636 0.717618 34.7519C0.972625 34.7362 1.19625 34.9323 1.20801 35.1913C1.34925 37.7256 3.73454 41.7508 7.28501 45.4503C11.1729 49.5069 15.5472 52.3277 19.286 53.1986C19.5371 53.2575 19.694 53.5085 19.6352 53.7596C19.5842 53.9715 19.3919 54.1166 19.1801 54.1166Z" fill="#975500"/>
<path d="M39.2079 13.3502C39 13.3502 38.8117 13.2129 38.7567 13.005C38.1016 10.5177 35.1239 6.94762 32.413 6.24929C32.1658 6.18652 32.0128 5.93152 32.0795 5.68043C32.1462 5.42935 32.3973 5.28027 32.6484 5.34696C35.7006 6.13552 38.9254 9.98415 39.6591 12.7696C39.7258 13.0168 39.5767 13.2718 39.3256 13.3385C39.2864 13.3463 39.2471 13.3502 39.2079 13.3502Z" fill="#975500"/>
<path d="M45.0809 14.1783C44.8729 14.1783 44.6846 14.0371 44.6297 13.8292C42.8839 6.95577 36.3557 1.59279 32.6287 0.925854C32.3737 0.878776 32.2089 0.639462 32.2521 0.384456C32.2992 0.12945 32.5385 -0.0353231 32.7935 0.00783176C36.854 0.737542 43.6646 6.26529 45.532 13.5977C45.5948 13.8488 45.4457 14.0999 45.1946 14.1626C45.1554 14.1744 45.1201 14.1783 45.0809 14.1783Z" fill="#975500"/>
<path d="M33.4879 26.3909C34.2372 27.2187 34.912 28.3054 34.6256 28.5918C34.3392 28.8782 33.4604 28.3603 32.7896 27.6855C32.1187 27.0147 30.5141 34.1549 30.3572 34.5158C30.2395 34.7865 28.3721 36.9285 27.3952 38.9647C27.0696 39.6434 27.1167 41.6913 26.9951 41.8129C26.5047 42.3033 25.8809 42.2523 24.5352 41.0636C23.1896 39.8748 22.4913 46.9562 24.0958 48.0743C26.8381 49.9888 32.3227 57.5958 39.5688 57.5958C47.9526 57.5958 55.7166 48.8511 55.7166 42.4327C55.7166 36.0144 53.8335 33.5821 53.959 28.2034C54.061 23.6486 57.3761 21.4752 57.3761 19.1997C57.3761 17.2852 54.5318 16.8184 53.5981 16.8184C51.9425 16.8184 47.6976 18.9408 47.6976 24.5274C47.6976 26.7008 47.0778 28.6663 44.8533 28.6663C42.6289 28.6663 40.1455 25.6141 38.6429 23.2327" fill="url(#paint0_linear)"/>
<path d="M57.3721 19.2C57.3721 18.1604 56.5286 17.5484 55.6106 17.2031C56.713 20.8556 51.1225 21.0125 51.1225 33.4568C51.1225 45.9011 43.8764 49.5222 40.8751 50.146C37.8739 50.7659 32.5855 50.9463 28.5603 46.007C27.3245 44.4888 25.6493 42.841 23.7858 41.2836C22.9972 42.5978 22.8285 47.1918 24.0957 48.0746C26.838 49.9891 32.3226 57.5961 39.5687 57.5961C47.9525 57.5961 55.7165 48.8513 55.7165 42.433C55.7165 36.0147 53.8334 33.5824 53.9589 28.2037C54.0609 23.6489 57.3721 21.4755 57.3721 19.2Z" fill="url(#paint1_linear)"/>
<path d="M24.5353 41.0636C23.1896 39.8749 20.0079 36.4853 17.9365 34.8258C15.865 33.1702 14.0565 33.1898 12.8128 35.018C11.5692 36.8462 15.1942 40.0553 16.022 40.8831C17.2892 42.1503 22.4913 46.9562 24.0959 48.0782" fill="url(#paint2_linear)"/>
<path d="M30.3572 34.5158C30.2002 34.8768 29.1449 35.1278 27.046 32.8446C25.4414 31.0988 21.1456 26.081 18.6112 23.8056C16.0768 21.5301 14.1074 20.5964 12.4518 21.7891C10.7962 22.9817 11.7378 25.4612 13.5895 27.5326C15.8807 30.0944 18.517 32.7073 21.0396 35.2181C23.013 37.1797 27.4815 41.3265 26.9911 41.8169" fill="url(#paint3_linear)"/>
<path d="M21.0436 35.2143C22.9071 37.066 26.9872 40.8597 27.0303 41.6953C27.6188 40.7773 26.5438 38.0468 25.4061 37.0895C18.8309 31.5539 12.4793 22.6287 11.6711 22.8955C11.3259 24.1941 12.2007 25.9752 13.5895 27.5327C15.8807 30.0906 18.517 32.7073 21.0436 35.2143Z" fill="url(#paint4_linear)"/>
<path d="M38.639 23.2366C37.1364 20.8553 30.977 13.1972 29.4783 11.0238C27.9758 8.85037 25.9593 8.85037 24.5626 9.83509C23.166 10.8198 22.7501 12.7853 25.8965 16.9635C27.8816 19.5999 29.5293 22.0244 33.4918 26.3948L38.0976 26.0731L38.639 23.2366Z" fill="url(#paint5_linear)"/>
<path d="M32.7895 27.6855C32.1186 27.0147 26.1672 19.9608 24.8215 18.4464C22.2989 15.6139 19.1015 9.54477 15.2882 12.2478C13.2835 13.668 14.3702 15.7277 14.9391 16.5555C15.5079 17.3833 22.907 25.924 23.6328 26.6459C24.3586 27.3717 30.5141 34.1509 30.361 34.5118" fill="url(#paint6_linear)"/>
<path d="M33.4878 26.3911C34.2097 27.1875 34.857 28.2193 34.653 28.5527C37.054 26.6225 31.9774 20.9496 29.1017 17.5443C26.8773 14.908 26.2692 11.5536 24.6764 9.75684C24.6372 9.78037 24.6018 9.80784 24.5626 9.83138C23.166 10.8161 22.7501 12.7816 25.8965 16.9598C27.8777 19.5961 29.5293 22.0246 33.4878 26.3911Z" fill="url(#paint7_linear)"/>
<path d="M23.6289 26.6505C24.3547 27.3763 30.5101 34.1555 30.3571 34.5165C32.2599 31.9546 24.8843 24.4261 21.3142 20.6206C18.2188 17.3212 17.6892 14.4337 14.6684 12.8135C13.5463 14.1709 14.4369 15.8343 14.9351 16.5601C15.504 17.3879 22.907 25.9286 23.6289 26.6505Z" fill="url(#paint8_linear)"/>
<path d="M30.2198 34.67C30.004 34.8034 29.5607 34.8152 28.8741 34.4189C29.3842 34.8309 29.8549 34.9878 30.2198 34.67Z" fill="url(#paint9_linear)"/>
<path d="M54.0336 17.5951C55.6146 17.3127 55.8932 17.4931 55.6107 17.2028C54.8418 16.9164 54.0179 16.8184 53.5942 16.8184C51.9386 16.8184 47.6937 18.9408 47.6937 24.5274C47.6937 26.7008 47.0739 28.6663 44.8455 28.6663C43.9667 28.6663 43.0526 28.1916 42.1699 27.4698C46.0774 31.797 49.1414 27.7209 49.6083 24.9276C50.0751 22.1343 49.3964 18.4269 54.0336 17.5951Z" fill="url(#paint10_radial)"/>
<path d="M24.084 10.2549C23.1189 11.3494 23.1503 13.311 25.8926 16.9596C27.8777 19.596 29.5254 22.0205 33.4878 26.3909C34.2371 27.2187 34.9119 28.3054 34.6255 28.5918C35.2885 24.0644 28.8428 19.6116 26.7478 16.1985C25.0883 13.4915 24.7588 11.8948 24.084 10.2549Z" fill="url(#paint11_linear)"/>
<path d="M23.6289 26.6502C24.3547 27.376 30.5101 34.1553 30.3571 34.5162C31.7146 33.5472 30.7887 32.0368 28.6898 29.9379C24.3861 25.6341 18.3954 19.8514 15.9866 15.0887C15.759 14.6375 15.3353 14.304 14.8371 14.2413C13.5385 14.0726 14.5036 15.9282 14.9391 16.5599C15.504 17.3876 22.907 25.9284 23.6289 26.6502Z" fill="url(#paint12_linear)"/>
<path d="M13.5895 27.5327C15.8807 30.0945 18.517 32.7073 21.0396 35.2182C23.013 37.1798 27.4815 41.3266 26.9911 41.8169C29.7608 39.4866 16.8968 31.0635 11.6672 22.8994C11.3259 24.1901 12.2007 25.9752 13.5895 27.5327Z" fill="url(#paint13_linear)"/>
<path d="M26.4262 42.2795C26.689 42.1775 26.8263 42.0559 26.8695 41.9225C26.3948 42.2874 25.771 42.1579 24.5352 41.0633C23.1896 39.8746 20.0079 36.485 17.9364 34.8255C17.0263 34.0997 16.1671 33.6956 15.3824 33.625C16.5045 34.3272 15.9827 34.5783 18.4778 36.4928C19.8196 37.5207 24.7157 42.9504 26.4262 42.2795Z" fill="url(#paint14_linear)"/>
<path d="M23.166 29.8589C24.9824 32.0716 28.529 35.7241 30.1218 34.7158C29.6824 34.8649 28.682 34.6217 27.0499 32.8445C25.4454 31.0987 21.1495 26.0809 18.6151 23.8055C16.5633 21.9616 14.8803 21.0004 13.4365 21.3339C17.6382 22.7148 21.4437 27.7679 23.166 29.8589Z" fill="url(#paint15_linear)"/>
<path d="M25.1316 20.3382C28.0308 23.4924 32.3345 29.7499 34.5158 28.6553C34.1588 28.7651 33.3898 28.2904 32.7896 27.6863C32.1187 27.0154 26.1673 19.9615 24.8216 18.4472C23.0719 16.4856 21.0044 12.9705 18.627 11.8955C21.024 13.7865 22.7816 17.7842 25.1316 20.3382Z" fill="url(#paint16_linear)"/>
<path d="M42.1699 27.4735C42.1738 27.4735 42.1738 27.4735 42.1699 27.4735C40.8164 26.3672 39.5453 24.6763 38.6351 23.2365C37.1365 20.8551 30.9771 13.1971 29.4784 11.0237C29.0194 10.3607 28.5173 9.90164 27.9955 9.61133C28.6938 10.6157 29.09 12.0476 30.6711 13.8209C33.2055 16.6652 36.5205 21.7889 37.6583 23.5504C38.7921 25.304 40.6281 29.0153 42.1699 27.4735Z" fill="url(#paint17_linear)"/>
<path d="M50.4713 52.7316C49.5298 50.4405 48.1527 49.0438 46.1637 50.3542C40.7379 53.9282 34.4962 52.7199 26.6694 46.3957C19.6901 40.7503 16.0808 36.7172 12.6833 35.2578C11.8673 37.1135 15.2256 40.0912 16.018 40.8836C17.2852 42.1508 22.4873 46.9567 24.0919 48.0787C26.8342 49.9932 32.3188 57.6003 39.5649 57.6003C43.6176 57.5964 47.5172 55.5602 50.4713 52.7316Z" fill="url(#paint18_linear)"/>
<path d="M53.955 28.2036C54.057 23.6488 57.3721 21.4753 57.3721 19.1999C57.3721 18.529 57.0229 18.0386 56.5286 17.6816C57.1328 19.4549 55.693 21.0281 53.5431 23.7037C51.2127 26.6029 50.6988 31.1028 52.2994 35.6066C53.904 40.1104 51.8836 46.3208 48.6234 48.2863C45.3633 50.2518 41.0321 58.8946 28.6309 49.1298C28.627 49.1259 28.627 49.1259 28.6231 49.1219C27.8659 48.4197 27.1166 47.7959 26.3594 47.3251C21.122 44.0807 18.1364 41.1618 15.8806 38.7098C15.4373 38.2273 14.2447 36.3795 12.8245 36.9876C13.5346 38.5961 15.4451 40.3105 16.0179 40.8833C17.2851 42.1505 22.4872 46.9563 24.0918 48.0784C24.2997 48.2235 24.5273 48.404 24.7666 48.6119C24.8294 48.6668 24.8921 48.7218 24.9549 48.7767C24.9706 48.7924 24.9902 48.8081 25.0059 48.8199C25.0451 48.8552 25.0883 48.8944 25.1275 48.9297C25.1354 48.9375 25.1471 48.9454 25.155 48.9572C26.7831 50.4362 29.0232 52.8843 31.7695 54.7948C31.7695 54.7948 31.7734 54.7948 31.7734 54.7988C32.0127 54.9675 32.2599 55.1322 32.507 55.2892C32.5109 55.2931 32.5149 55.2931 32.5188 55.297C32.7659 55.4539 33.017 55.6069 33.2681 55.7521C33.272 55.7521 33.272 55.756 33.276 55.756C35.1748 56.8467 37.2815 57.5999 39.557 57.5999C47.9408 57.5999 55.7047 48.8552 55.7047 42.4368C55.7047 36.0185 53.8334 33.5862 53.955 28.2036Z" fill="url(#paint19_radial)"/>
<defs>
<linearGradient id="paint0_linear" x1="51.6408" y1="59.2561" x2="44.7323" y2="43.0704" gradientUnits="userSpaceOnUse">
<stop offset="0.00132565" stop-color="#FFCB4B"/>
<stop offset="1" stop-color="#FFD748"/>
</linearGradient>
<linearGradient id="paint1_linear" x1="53.0157" y1="47.9992" x2="38.5256" y2="30.7147" gradientUnits="userSpaceOnUse">
<stop offset="0.00132565" stop-color="#FFCB4B"/>
<stop offset="1" stop-color="#FFD748"/>
</linearGradient>
<linearGradient id="paint2_linear" x1="14.2853" y1="36.4915" x2="22.8241" y2="42.7791" gradientUnits="userSpaceOnUse">
<stop offset="0.00132565" stop-color="#FFCB4B"/>
<stop offset="1" stop-color="#FFD748"/>
</linearGradient>
<linearGradient id="paint3_linear" x1="11.1761" y1="19.8494" x2="26.1578" y2="35.5297" gradientUnits="userSpaceOnUse">
<stop offset="0.00132565" stop-color="#FFCB4B"/>
<stop offset="1" stop-color="#FFD748"/>
</linearGradient>
<linearGradient id="paint4_linear" x1="22.6771" y1="29.1609" x2="17.7247" y2="33.8262" gradientUnits="userSpaceOnUse">
<stop stop-color="#FFBC47" stop-opacity="0"/>
<stop offset="1" stop-color="#FFA754"/>
</linearGradient>
<linearGradient id="paint5_linear" x1="27.3579" y1="12.4514" x2="36.0519" y2="26.1135" gradientUnits="userSpaceOnUse">
<stop offset="0.00132565" stop-color="#FFCB4B"/>
<stop offset="1" stop-color="#FFD748"/>
</linearGradient>
<linearGradient id="paint6_linear" x1="18.3834" y1="14.721" x2="30.1824" y2="30.66" gradientUnits="userSpaceOnUse">
<stop offset="0.00132565" stop-color="#FFCB4B"/>
<stop offset="1" stop-color="#FFD748"/>
</linearGradient>
<linearGradient id="paint7_linear" x1="32.416" y1="16.6445" x2="24.964" y2="23.3721" gradientUnits="userSpaceOnUse">
<stop stop-color="#FFBC47" stop-opacity="0"/>
<stop offset="1" stop-color="#FFA754"/>
</linearGradient>
<linearGradient id="paint8_linear" x1="25.5613" y1="21.438" x2="15.3148" y2="28.9288" gradientUnits="userSpaceOnUse">
<stop stop-color="#FFBC47" stop-opacity="0"/>
<stop offset="1" stop-color="#FFA754"/>
</linearGradient>
<linearGradient id="paint9_linear" x1="33.1943" y1="31.8795" x2="22.9477" y2="39.3703" gradientUnits="userSpaceOnUse">
<stop stop-color="#FFBC47" stop-opacity="0"/>
<stop offset="1" stop-color="#FFA754"/>
</linearGradient>
<radialGradient id="paint10_radial" cx="0" cy="0" r="1" gradientUnits="userSpaceOnUse" gradientTransform="translate(46.6395 19.7171) scale(12.3013)">
<stop stop-color="#FFBC47" stop-opacity="0"/>
<stop offset="1" stop-color="#FFA754"/>
</radialGradient>
<linearGradient id="paint11_linear" x1="33.7797" y1="15.3231" x2="27.4145" y2="21.2226" gradientUnits="userSpaceOnUse">
<stop offset="0.3118" stop-color="#FFBC47" stop-opacity="0"/>
<stop offset="1" stop-color="#FF8900"/>
</linearGradient>
<linearGradient id="paint12_linear" x1="28.9055" y1="18.5211" x2="20.522" y2="26.0767" gradientUnits="userSpaceOnUse">
<stop offset="0.3118" stop-color="#FFBC47" stop-opacity="0"/>
<stop offset="1" stop-color="#FF8900"/>
</linearGradient>
<linearGradient id="paint13_linear" x1="26.0723" y1="26.693" x2="15.7222" y2="35.387" gradientUnits="userSpaceOnUse">
<stop offset="0.3118" stop-color="#FFBC47" stop-opacity="0"/>
<stop offset="1" stop-color="#FF8900"/>
</linearGradient>
<linearGradient id="paint14_linear" x1="14.7789" y1="33.0083" x2="26.8108" y2="42.7891" gradientUnits="userSpaceOnUse">
<stop stop-color="#FFBC47" stop-opacity="0"/>
<stop offset="1" stop-color="#FFBC47"/>
</linearGradient>
<linearGradient id="paint15_linear" x1="17.0818" y1="20.885" x2="26.4744" y2="35.1681" gradientUnits="userSpaceOnUse">
<stop stop-color="#FFBC47" stop-opacity="0"/>
<stop offset="1" stop-color="#FFBC47"/>
</linearGradient>
<linearGradient id="paint16_linear" x1="24.4391" y1="21.9061" x2="27.0783" y2="19.8878" gradientUnits="userSpaceOnUse">
<stop stop-color="#FFBC47" stop-opacity="0"/>
<stop offset="1" stop-color="#FFA754"/>
</linearGradient>
<linearGradient id="paint17_linear" x1="37.463" y1="29.8789" x2="33.944" y2="13.1119" gradientUnits="userSpaceOnUse">
<stop stop-color="#FFBC47" stop-opacity="0"/>
<stop offset="1" stop-color="#FFBC47"/>
</linearGradient>
<linearGradient id="paint18_linear" x1="29.4298" y1="45.9717" x2="24.1513" y2="50.8233" gradientUnits="userSpaceOnUse">
<stop offset="0.3118" stop-color="#FFBC47" stop-opacity="0"/>
<stop offset="1" stop-color="#FF8900"/>
</linearGradient>
<radialGradient id="paint19_radial" cx="0" cy="0" r="1" gradientUnits="userSpaceOnUse" gradientTransform="translate(32.9258 29.9373) rotate(48.14) scale(35.656 32.3645)">
<stop offset="0.6134" stop-color="#FFBC47" stop-opacity="0"/>
<stop offset="1" stop-color="#FF8900"/>
</radialGradient>
</defs>
</svg>
