<svg width="180" height="125" viewBox="0 0 180 125" fill="none" xmlns="http://www.w3.org/2000/svg">
<path d="M4.55156 12.4258H7.74156C8.47823 12.4258 9.0249 12.2241 9.38156 11.8208C9.74156 11.4141 9.92156 10.8891 9.92156 10.2458C9.92156 9.89911 9.83656 9.58078 9.66656 9.29078C9.4999 8.99745 9.24823 8.78078 8.91156 8.64078C9.1249 8.51078 9.29156 8.32745 9.41156 8.09078C9.53156 7.85411 9.59156 7.57245 9.59156 7.24578C9.59156 6.92911 9.51823 6.61578 9.37156 6.30578C9.2249 5.99578 8.99323 5.73911 8.67656 5.53578C8.3599 5.32911 7.9449 5.22578 7.43156 5.22578H4.55156V12.4258ZM5.93156 8.03578V6.49578H7.41156C7.67156 6.49578 7.8699 6.57078 8.00656 6.72078C8.14323 6.87078 8.21156 7.05578 8.21156 7.27578C8.21156 7.53911 8.1349 7.73245 7.98156 7.85578C7.83156 7.97578 7.64156 8.03578 7.41156 8.03578H5.93156ZM5.93156 11.1458V9.30578H7.60156C7.91823 9.30578 8.1549 9.39078 8.31156 9.56078C8.47156 9.72745 8.55156 9.93911 8.55156 10.1958C8.55156 10.4858 8.46156 10.7174 8.28156 10.8908C8.1049 11.0608 7.87823 11.1458 7.60156 11.1458H5.93156ZM11.4188 12.4258H12.7788V9.98578H14.4588C14.5254 9.98578 14.6188 9.98245 14.7388 9.97578C14.8588 9.96911 14.9654 9.95911 15.0588 9.94578C15.6988 9.84578 16.1688 9.58245 16.4688 9.15578C16.7688 8.72578 16.9188 8.20911 16.9188 7.60578C16.9188 6.99911 16.7704 6.48245 16.4738 6.05578C16.1771 5.62911 15.7054 5.36578 15.0588 5.26578C14.9654 5.24911 14.8588 5.23911 14.7388 5.23578C14.6221 5.22911 14.5288 5.22578 14.4588 5.22578H11.4188V12.4258ZM12.7788 8.71578V6.49578H14.3988C14.4688 6.49578 14.5454 6.49911 14.6288 6.50578C14.7121 6.51245 14.7888 6.52578 14.8588 6.54578C15.0421 6.59578 15.1838 6.68078 15.2838 6.80078C15.3838 6.91745 15.4521 7.04911 15.4888 7.19578C15.5288 7.33911 15.5488 7.47578 15.5488 7.60578C15.5488 7.73578 15.5288 7.87411 15.4888 8.02078C15.4521 8.16411 15.3838 8.29578 15.2838 8.41578C15.1838 8.53245 15.0421 8.61578 14.8588 8.66578C14.7888 8.68578 14.7121 8.69911 14.6288 8.70578C14.5454 8.71245 14.4688 8.71578 14.3988 8.71578H12.7788ZM18.4227 12.4258H23.1227V11.1558H19.7827V9.30578H22.5227V8.03578H19.7827V6.49578H23.1227V5.22578H18.4227V12.4258ZM24.8211 12.4258H26.0911V8.12578L28.1811 12.4258H28.6611L30.7511 8.12578V12.4258H32.0211V5.22578H30.8011L28.4211 10.0058L26.0411 5.22578H24.8211V12.4258ZM39.2246 12.4258H37.8646V9.98578H36.3496L35.1646 12.4258H33.6246L34.9246 9.75578C34.5146 9.56911 34.2113 9.28745 34.0146 8.91078C33.8213 8.53078 33.7246 8.09578 33.7246 7.60578C33.7246 6.99911 33.8729 6.48245 34.1696 6.05578C34.4663 5.62911 34.9379 5.36578 35.5846 5.26578C35.6779 5.24911 35.7829 5.23911 35.8996 5.23578C36.0196 5.22911 36.1146 5.22578 36.1846 5.22578H39.2246V12.4258ZM37.8646 8.71578V6.49578H36.2446C36.1746 6.49578 36.0979 6.49911 36.0146 6.50578C35.9313 6.51245 35.8546 6.52578 35.7846 6.54578C35.6013 6.59578 35.4596 6.68078 35.3596 6.80078C35.2596 6.91745 35.1896 7.04911 35.1496 7.19578C35.1129 7.33911 35.0946 7.47578 35.0946 7.60578C35.0946 7.73578 35.1129 7.87411 35.1496 8.02078C35.1896 8.16411 35.2596 8.29578 35.3596 8.41578C35.4596 8.53245 35.6013 8.61578 35.7846 8.66578C35.8546 8.68578 35.9313 8.69911 36.0146 8.70578C36.0979 8.71245 36.1746 8.71578 36.2446 8.71578H37.8646ZM43.6258 12.4258H44.9858V9.45578H48.2058V12.4258H49.5658V5.22578H48.2058V8.18578H44.9858V5.22578H43.6258V12.4258ZM50.9695 12.4258H52.3695L52.8245 10.9258H55.5345L55.9995 12.4258H57.3995L55.1995 5.22578H53.1695L50.9695 12.4258ZM53.2095 9.65578L54.1695 6.50078L55.1445 9.65578H53.2095ZM58.1957 12.4258H59.8757L61.4657 9.94578L63.0457 12.4258H64.7157L62.3057 8.78578L64.6557 5.22578H62.9757L61.4657 7.62578L59.9357 5.22578H58.2657L60.6157 8.78578L58.1957 12.4258ZM68.8017 12.5758C69.5217 12.5758 70.1417 12.4191 70.6617 12.1058C71.1851 11.7924 71.5867 11.3541 71.8667 10.7908C72.1501 10.2274 72.2917 9.57245 72.2917 8.82578C72.2917 8.07911 72.1501 7.42411 71.8667 6.86078C71.5867 6.29745 71.1851 5.85911 70.6617 5.54578C70.1417 5.23245 69.5217 5.07578 68.8017 5.07578C68.0817 5.07578 67.4601 5.23245 66.9367 5.54578C66.4167 5.85911 66.0151 6.29745 65.7317 6.86078C65.4517 7.42411 65.3117 8.07911 65.3117 8.82578C65.3117 9.57245 65.4517 10.2274 65.7317 10.7908C66.0151 11.3541 66.4167 11.7924 66.9367 12.1058C67.4601 12.4191 68.0817 12.5758 68.8017 12.5758ZM68.8017 11.2958C68.1184 11.2858 67.6051 11.0591 67.2617 10.6158C66.9217 10.1724 66.7517 9.57578 66.7517 8.82578C66.7517 8.07578 66.9217 7.47411 67.2617 7.02078C67.6051 6.56745 68.1184 6.34578 68.8017 6.35578C69.4884 6.36578 70.0017 6.59245 70.3417 7.03578C70.6817 7.47911 70.8517 8.07578 70.8517 8.82578C70.8517 9.57578 70.6817 10.1774 70.3417 10.6308C70.0017 11.0841 69.4884 11.3058 68.8017 11.2958ZM72.6918 12.4258H74.3618L76.5318 9.24578V12.4258H77.8918V9.24578L80.0618 12.4258H81.7318L79.1818 8.77578L81.5418 5.22578H79.9318L77.8918 8.44578V5.22578H76.5318V8.44578L74.4918 5.22578H72.8818L75.2418 8.77578L72.6918 12.4258ZM82.6301 13.6258H83.9901V12.4258H88.1401V13.6258H89.5001V11.1558H88.9501V5.22578L84.1701 5.21578C84.1201 5.94578 84.0767 6.60411 84.0401 7.19078C84.0034 7.77411 83.9601 8.36578 83.9101 8.96578C83.8734 9.38578 83.8101 9.76078 83.7201 10.0908C83.6301 10.4208 83.4984 10.6808 83.3251 10.8708C83.1517 11.0608 82.9201 11.1558 82.6301 11.1558V13.6258ZM84.6601 11.1558C84.7967 10.9758 84.8984 10.8024 84.9651 10.6358C85.0351 10.4691 85.0867 10.2741 85.1201 10.0508C85.1534 9.82411 85.1867 9.53578 85.2201 9.18578C85.2534 8.83578 85.2801 8.51911 85.3001 8.23578C85.3201 7.95245 85.3367 7.67245 85.3501 7.39578C85.3667 7.11911 85.3867 6.81578 85.4101 6.48578L87.5901 6.49578V11.1558H84.6601ZM91.0984 12.4258H95.7984V11.1558H92.4584V9.30578H95.1984V8.03578H92.4584V6.49578H95.7984V5.22578H91.0984V12.4258ZM97.4969 12.4258H98.8569V9.45578H102.077V12.4258H103.437V5.22578H102.077V8.18578H98.8569V5.22578H97.4969V12.4258ZM111.231 12.4258H109.851V7.62578L106.721 12.4258H105.341V5.22578H106.721V10.0258L109.851 5.22578H111.231V12.4258ZM118.426 12.4258H117.066V9.98578H115.551L114.366 12.4258H112.826L114.126 9.75578C113.716 9.56911 113.412 9.28745 113.216 8.91078C113.022 8.53078 112.926 8.09578 112.926 7.60578C112.926 6.99911 113.074 6.48245 113.371 6.05578C113.667 5.62911 114.139 5.36578 114.786 5.26578C114.879 5.24911 114.984 5.23911 115.101 5.23578C115.221 5.22911 115.316 5.22578 115.386 5.22578H118.426V12.4258ZM117.066 8.71578V6.49578H115.446C115.376 6.49578 115.299 6.49911 115.216 6.50578C115.132 6.51245 115.056 6.52578 114.986 6.54578C114.802 6.59578 114.661 6.68078 114.561 6.80078C114.461 6.91745 114.391 7.04911 114.351 7.19578C114.314 7.33911 114.296 7.47578 114.296 7.60578C114.296 7.73578 114.314 7.87411 114.351 8.02078C114.391 8.16411 114.461 8.29578 114.561 8.41578C114.661 8.53245 114.802 8.61578 114.986 8.66578C115.056 8.68578 115.132 8.69911 115.216 8.70578C115.299 8.71245 115.376 8.71578 115.446 8.71578H117.066ZM122.827 12.4258H124.187V9.45578H127.407V12.4258H128.767V5.22578H127.407V8.18578H124.187V5.22578H122.827V12.4258ZM130.171 12.4258H131.571L132.026 10.9258H134.736L135.201 12.4258H136.601L134.401 5.22578H132.371L130.171 12.4258ZM132.411 9.65578L133.371 6.50078L134.346 9.65578H132.411ZM143.589 12.5758C144.415 12.5758 145.109 12.3708 145.669 11.9608C146.232 11.5508 146.629 10.9958 146.859 10.2958L145.489 9.91578C145.355 10.3491 145.13 10.6874 144.814 10.9308C144.497 11.1741 144.089 11.2958 143.589 11.2958C142.905 11.2958 142.39 11.0724 142.044 10.6258C141.7 10.1758 141.529 9.57578 141.529 8.82578C141.529 8.07578 141.7 7.47745 142.044 7.03078C142.39 6.58078 142.905 6.35578 143.589 6.35578C144.089 6.35578 144.497 6.47745 144.814 6.72078C145.13 6.96078 145.355 7.29911 145.489 7.73578L146.859 7.35578C146.629 6.65578 146.232 6.10078 145.669 5.69078C145.109 5.28078 144.415 5.07578 143.589 5.07578C142.869 5.07578 142.247 5.23245 141.724 5.54578C141.204 5.85911 140.802 6.29745 140.519 6.86078C140.239 7.42411 140.099 8.07911 140.099 8.82578C140.099 9.57245 140.239 10.2274 140.519 10.7908C140.802 11.3541 141.204 11.7924 141.724 12.1058C142.247 12.4191 142.869 12.5758 143.589 12.5758ZM147.764 12.4258H149.164L149.619 10.9258H152.329L152.794 12.4258H154.194L151.994 5.22578H149.964L147.764 12.4258ZM150.004 9.65578L150.964 6.50078L151.939 9.65578H150.004ZM158.511 4.62578C158.804 4.62578 159.071 4.55411 159.311 4.41078C159.551 4.26745 159.742 4.07578 159.886 3.83578C160.029 3.59578 160.101 3.32911 160.101 3.03578H159.051C159.051 3.18578 158.997 3.31411 158.891 3.42078C158.787 3.52411 158.661 3.57578 158.511 3.57578C158.361 3.57578 158.232 3.52411 158.126 3.42078C158.022 3.31411 157.971 3.18578 157.971 3.03578H156.921C156.921 3.32911 156.992 3.59578 157.136 3.83578C157.279 4.07578 157.471 4.26745 157.711 4.41078C157.951 4.55411 158.217 4.62578 158.511 4.62578ZM155.591 12.4258H156.971L160.101 7.62578V12.4258H161.481V5.22578H160.101L156.971 10.0258V5.22578H155.591V12.4258ZM165.046 12.4258H166.406V6.49578H168.676V5.22578H162.776V6.49578H165.046V12.4258ZM169.979 12.4258H174.679V11.1558H171.339V9.30578H174.079V8.03578H171.339V6.49578H174.679V5.22578H169.979V12.4258Z" fill="black"/>
<path d="M0.00781243 38.5874C0.00781247 33.3701 4.03725 29.1406 9.00781 29.1406C13.9784 29.1406 18.0078 33.3701 18.0078 38.5874L18.0078 93.6938C18.0078 98.9111 13.9784 103.141 9.00781 103.141C4.03725 103.141 0.00781196 98.9111 0.007812 93.6938L0.00781243 38.5874Z" fill="#E1E6EB"/>
<path d="M0.0546874 87.7845C0.0546875 82.4589 4.08412 78.1416 9.05469 78.1416C14.0252 78.1416 18.0547 82.4589 18.0547 87.7845L18.0547 93.4987C18.0547 98.8243 14.0252 103.142 9.05469 103.142C4.08412 103.142 0.0546873 98.8243 0.0546874 93.4987L0.0546874 87.7845Z" fill="#EF30F5"/>
<path d="M26.0078 38.5435C26.0078 33.3262 30.0372 29.0967 35.0078 29.0967C39.9784 29.0967 44.0078 33.3262 44.0078 38.5435L44.0078 93.6499C44.0078 98.8672 39.9784 103.097 35.0078 103.097C30.0372 103.097 26.0078 98.8672 26.0078 93.6499L26.0078 38.5435Z" fill="#E1E6EB"/>
<path d="M26.0586 93.6967C26.0586 88.3947 30.088 84.0967 35.0586 84.0967C40.0292 84.0967 44.0586 88.3947 44.0586 93.6967L44.0586 93.4967C44.0586 98.7986 40.0292 103.097 35.0586 103.097C30.088 103.097 26.0586 98.7986 26.0586 93.4967L26.0586 93.6967Z" fill="#EF30F5"/>
<path d="M51.0078 38.4986C51.0078 33.2812 55.2611 29.0518 60.5078 29.0518C65.7545 29.0518 70.0078 33.2812 70.0078 38.4986L70.0078 93.605C70.0078 98.8223 65.7545 103.052 60.5078 103.052C55.2611 103.052 51.0078 98.8223 51.0078 93.605L51.0078 38.4986Z" fill="#E1E6EB"/>
<path d="M51.0547 88.3431C51.0547 83.2122 55.308 79.0527 60.5547 79.0527C65.8014 79.0527 70.0547 83.2122 70.0547 88.3431L70.0547 93.7624C70.0547 98.8933 65.8014 103.053 60.5547 103.053C55.308 103.053 51.0547 98.8933 51.0547 93.7624L51.0547 88.3431Z" fill="#EF30F5"/>
<path d="M80.0078 38.4488C80.0078 33.2314 84.2611 29.002 89.5078 29.002C94.7545 29.002 99.0078 33.2314 99.0078 38.4488L99.0078 93.5551C99.0078 98.7725 94.7545 103.002 89.5078 103.002C84.2611 103.002 80.0078 98.7725 80.0078 93.5551L80.0078 38.4488Z" fill="#E1E6EB"/>
<path d="M80.0508 85.2591C80.0508 80.1465 84.3041 76.002 89.5508 76.002C94.7975 76.002 99.0508 80.1465 99.0508 85.2591L99.0508 93.7448C99.0508 98.8574 94.7975 103.002 89.5508 103.002C84.3041 103.002 80.0508 98.8574 80.0508 93.7448L80.0508 85.2591Z" fill="#EF30F5"/>
<path d="M107.008 38.4019C107.008 33.1846 111.261 28.9551 116.508 28.9551C121.755 28.9551 126.008 33.1846 126.008 38.4019L126.008 93.5083C126.008 98.7256 121.755 102.955 116.508 102.955C111.261 102.955 107.008 98.7256 107.008 93.5083L107.008 38.4019Z" fill="#E1E6EB"/>
<path d="M107.043 74.3615C107.043 69.167 111.296 64.9561 116.543 64.9561C121.79 64.9561 126.043 69.167 126.043 74.3615L126.043 93.5506C126.043 98.7451 121.79 102.956 116.543 102.956C111.296 102.956 107.043 98.7451 107.043 93.5506L107.043 74.3615Z" fill="#EF30F5"/>
<path d="M134.012 38.356C134.012 33.1387 138.265 28.9092 143.512 28.9092C148.758 28.9092 153.012 33.1387 153.012 38.356L153.012 93.4624C153.012 98.6797 148.758 102.909 143.512 102.909C138.265 102.909 134.012 98.6797 134.012 93.4624L134.012 38.356Z" fill="#E1E6EB"/>
<path d="M134.035 66.5092C134.035 61.2072 138.288 56.9092 143.535 56.9092C148.782 56.9092 153.035 61.2072 153.035 66.5092L153.035 93.3092C153.035 98.6111 148.782 102.909 143.535 102.909C138.288 102.909 134.035 98.6111 134.035 93.3092L134.035 66.5092Z" fill="#EF30F5"/>
<path d="M160.008 38.3101C160.008 33.0928 164.261 28.8633 169.508 28.8633C174.755 28.8633 179.008 33.0928 179.008 38.3101L179.008 93.4165C179.008 98.6338 174.755 102.863 169.508 102.863C164.261 102.863 160.008 98.6338 160.008 93.4165L160.008 38.3101Z" fill="#E1E6EB"/>
<path d="M160.027 55.2643C160.027 50.0728 164.281 45.8643 169.527 45.8643C174.774 45.8643 179.027 50.0728 179.027 55.2643L179.027 93.4643C179.027 98.6557 174.774 102.864 169.527 102.864C164.281 102.864 160.027 98.6557 160.027 93.4643L160.027 55.2643Z" fill="#EF30F5"/>
<path d="M1.55156 120.426H2.91156V114.496H6.13156V120.426H7.49156V113.226H1.55156V120.426ZM9.39531 120.426H10.7553V117.456H13.9753V120.426H15.3353V113.226H13.9753V116.186H10.7553V113.226H9.39531V120.426Z" fill="black"/>
<path d="M28.5516 120.426H31.7416C32.4782 120.426 33.0249 120.224 33.3816 119.821C33.7416 119.414 33.9216 118.889 33.9216 118.246C33.9216 117.899 33.8366 117.581 33.6666 117.291C33.4999 116.997 33.2482 116.781 32.9116 116.641C33.1249 116.511 33.2916 116.327 33.4116 116.091C33.5316 115.854 33.5916 115.572 33.5916 115.246C33.5916 114.929 33.5182 114.616 33.3716 114.306C33.2249 113.996 32.9932 113.739 32.6766 113.536C32.3599 113.329 31.9449 113.226 31.4316 113.226H28.5516V120.426ZM29.9316 116.036V114.496H31.4116C31.6716 114.496 31.8699 114.571 32.0066 114.721C32.1432 114.871 32.2116 115.056 32.2116 115.276C32.2116 115.539 32.1349 115.732 31.9816 115.856C31.8316 115.976 31.6416 116.036 31.4116 116.036H29.9316ZM29.9316 119.146V117.306H31.6016C31.9182 117.306 32.1549 117.391 32.3116 117.561C32.4716 117.727 32.5516 117.939 32.5516 118.196C32.5516 118.486 32.4616 118.717 32.2816 118.891C32.1049 119.061 31.8782 119.146 31.6016 119.146H29.9316ZM36.8934 120.426H38.2534V114.496H40.5234V113.226H34.6234V114.496H36.8934V120.426Z" fill="black"/>
<path d="M56.6416 120.576C57.4682 120.576 58.1616 120.371 58.7216 119.961C59.2849 119.551 59.6816 118.996 59.9116 118.296L58.5416 117.916C58.4082 118.349 58.1832 118.687 57.8666 118.931C57.5499 119.174 57.1416 119.296 56.6416 119.296C55.9582 119.296 55.4432 119.072 55.0966 118.626C54.7532 118.176 54.5816 117.576 54.5816 116.826C54.5816 116.076 54.7532 115.477 55.0966 115.031C55.4432 114.581 55.9582 114.356 56.6416 114.356C57.1416 114.356 57.5499 114.477 57.8666 114.721C58.1832 114.961 58.4082 115.299 58.5416 115.736L59.9116 115.356C59.6816 114.656 59.2849 114.101 58.7216 113.691C58.1616 113.281 57.4682 113.076 56.6416 113.076C55.9216 113.076 55.2999 113.232 54.7766 113.546C54.2566 113.859 53.8549 114.297 53.5716 114.861C53.2916 115.424 53.1516 116.079 53.1516 116.826C53.1516 117.572 53.2916 118.227 53.5716 118.791C53.8549 119.354 54.2566 119.792 54.7766 120.106C55.2999 120.419 55.9216 120.576 56.6416 120.576ZM61.5125 120.426H62.8725V117.986H64.5525C64.6192 117.986 64.7125 117.982 64.8325 117.976C64.9525 117.969 65.0592 117.959 65.1525 117.946C65.7925 117.846 66.2625 117.582 66.5625 117.156C66.8625 116.726 67.0125 116.209 67.0125 115.606C67.0125 114.999 66.8642 114.482 66.5675 114.056C66.2708 113.629 65.7992 113.366 65.1525 113.266C65.0592 113.249 64.9525 113.239 64.8325 113.236C64.7158 113.229 64.6225 113.226 64.5525 113.226H61.5125V120.426ZM62.8725 116.716V114.496H64.4925C64.5625 114.496 64.6392 114.499 64.7225 114.506C64.8058 114.512 64.8825 114.526 64.9525 114.546C65.1358 114.596 65.2775 114.681 65.3775 114.801C65.4775 114.917 65.5458 115.049 65.5825 115.196C65.6225 115.339 65.6425 115.476 65.6425 115.606C65.6425 115.736 65.6225 115.874 65.5825 116.021C65.5458 116.164 65.4775 116.296 65.3775 116.416C65.2775 116.532 65.1358 116.616 64.9525 116.666C64.8825 116.686 64.8058 116.699 64.7225 116.706C64.6392 116.712 64.5625 116.716 64.4925 116.716H62.8725Z" fill="black"/>
<path d="M87.6416 120.426H89.0116V113.226H87.6416V116.386C87.5082 116.502 87.3282 116.606 87.1016 116.696C86.8749 116.782 86.6116 116.826 86.3116 116.826C85.9682 116.826 85.7016 116.767 85.5116 116.651C85.3216 116.531 85.1849 116.374 85.1016 116.181C85.0216 115.987 84.9732 115.777 84.9566 115.551C84.9399 115.324 84.9316 115.102 84.9316 114.886V113.226H83.5516V115.296C83.5516 115.849 83.6299 116.337 83.7866 116.761C83.9432 117.181 84.1999 117.511 84.5566 117.751C84.9132 117.987 85.3916 118.106 85.9916 118.106C86.3016 118.106 86.6032 118.074 86.8966 118.011C87.1932 117.947 87.4416 117.856 87.6416 117.736V120.426ZM92.577 120.426H93.937V114.496H96.207V113.226H90.307V114.496H92.577V120.426Z" fill="black"/>
<path d="M110.552 120.426H111.912V114.496H115.132V120.426H116.492V113.226H110.552V120.426ZM120.065 120.426H121.425V114.496H123.695V113.226H117.795V114.496H120.065V120.426Z" fill="black"/>
<path d="M139.642 120.576C140.468 120.576 141.162 120.371 141.722 119.961C142.285 119.551 142.682 118.996 142.912 118.296L141.542 117.916C141.408 118.349 141.183 118.687 140.867 118.931C140.55 119.174 140.142 119.296 139.642 119.296C138.958 119.296 138.443 119.072 138.097 118.626C137.753 118.176 137.582 117.576 137.582 116.826C137.582 116.076 137.753 115.477 138.097 115.031C138.443 114.581 138.958 114.356 139.642 114.356C140.142 114.356 140.55 114.477 140.867 114.721C141.183 114.961 141.408 115.299 141.542 115.736L142.912 115.356C142.682 114.656 142.285 114.101 141.722 113.691C141.162 113.281 140.468 113.076 139.642 113.076C138.922 113.076 138.3 113.232 137.777 113.546C137.257 113.859 136.855 114.297 136.572 114.861C136.292 115.424 136.152 116.079 136.152 116.826C136.152 117.572 136.292 118.227 136.572 118.791C136.855 119.354 137.257 119.792 137.777 120.106C138.3 120.419 138.922 120.576 139.642 120.576ZM144.513 120.426H147.553C147.623 120.426 147.716 120.424 147.833 120.421C147.953 120.414 148.059 120.406 148.153 120.396C148.569 120.352 148.914 120.226 149.188 120.016C149.464 119.802 149.671 119.534 149.808 119.211C149.944 118.884 150.013 118.529 150.013 118.146C150.013 117.762 149.943 117.409 149.803 117.086C149.666 116.759 149.459 116.491 149.183 116.281C148.909 116.067 148.566 115.939 148.153 115.896C148.059 115.886 147.953 115.879 147.833 115.876C147.713 115.869 147.619 115.866 147.553 115.866H145.873V114.496H149.453V113.226H144.513V120.426ZM145.873 119.156V117.136H147.493C147.563 117.136 147.639 117.139 147.723 117.146C147.806 117.149 147.883 117.159 147.953 117.176C148.229 117.236 148.413 117.364 148.503 117.561C148.596 117.754 148.643 117.949 148.643 118.146C148.643 118.339 148.596 118.534 148.503 118.731C148.413 118.927 148.229 119.056 147.953 119.116C147.883 119.129 147.806 119.139 147.723 119.146C147.639 119.152 147.563 119.156 147.493 119.156H145.873Z" fill="black"/>
<path d="M163.552 120.426H166.742C167.478 120.426 168.025 120.224 168.382 119.821C168.742 119.414 168.922 118.889 168.922 118.246C168.922 117.899 168.837 117.581 168.667 117.291C168.5 116.997 168.248 116.781 167.912 116.641C168.125 116.511 168.292 116.327 168.412 116.091C168.532 115.854 168.592 115.572 168.592 115.246C168.592 114.929 168.518 114.616 168.372 114.306C168.225 113.996 167.993 113.739 167.677 113.536C167.36 113.329 166.945 113.226 166.432 113.226H163.552V120.426ZM164.932 116.036V114.496H166.412C166.672 114.496 166.87 114.571 167.007 114.721C167.143 114.871 167.212 115.056 167.212 115.276C167.212 115.539 167.135 115.732 166.982 115.856C166.832 115.976 166.642 116.036 166.412 116.036H164.932ZM164.932 119.146V117.306H166.602C166.918 117.306 167.155 117.391 167.312 117.561C167.472 117.727 167.552 117.939 167.552 118.196C167.552 118.486 167.462 118.717 167.282 118.891C167.105 119.061 166.878 119.146 166.602 119.146H164.932ZM173.509 120.576C174.335 120.576 175.029 120.371 175.589 119.961C176.152 119.551 176.549 118.996 176.779 118.296L175.409 117.916C175.275 118.349 175.05 118.687 174.734 118.931C174.417 119.174 174.009 119.296 173.509 119.296C172.825 119.296 172.31 119.072 171.964 118.626C171.62 118.176 171.449 117.576 171.449 116.826C171.449 116.076 171.62 115.477 171.964 115.031C172.31 114.581 172.825 114.356 173.509 114.356C174.009 114.356 174.417 114.477 174.734 114.721C175.05 114.961 175.275 115.299 175.409 115.736L176.779 115.356C176.549 114.656 176.152 114.101 175.589 113.691C175.029 113.281 174.335 113.076 173.509 113.076C172.789 113.076 172.167 113.232 171.644 113.546C171.124 113.859 170.722 114.297 170.439 114.861C170.159 115.424 170.019 116.079 170.019 116.826C170.019 117.572 170.159 118.227 170.439 118.791C170.722 119.354 171.124 119.792 171.644 120.106C172.167 120.419 172.789 120.576 173.509 120.576Z" fill="black"/>
</svg>
