<svg width="151" height="187" viewBox="0 0 151 187" fill="none" xmlns="http://www.w3.org/2000/svg">
<path fill-rule="evenodd" clip-rule="evenodd" d="M75.5113 170.029C43.755 170.017 18.021 143.816 18.033 111.508C18.045 79.1992 43.7983 53.0173 75.5547 53.0291C107.311 53.0409 133.045 79.2418 133.033 111.55C133.021 143.859 107.268 170.041 75.5113 170.029ZM75.5136 163.841C103.911 163.852 126.94 140.439 126.951 111.548C126.961 82.657 103.95 59.2277 75.5524 59.2171C47.1551 59.2066 24.126 82.619 24.1153 111.51C24.1046 140.401 47.1164 163.831 75.5136 163.841Z" fill="#E1E6EB"/>
<path fill-rule="evenodd" clip-rule="evenodd" d="M75.5148 159.029C48.729 159.019 27.0229 137.297 27.0328 110.511C27.0427 83.7249 48.765 62.0188 75.5508 62.0287C102.337 62.0386 124.043 83.7609 124.033 110.547C124.023 137.332 102.301 159.039 75.5148 159.029ZM75.5171 152.937C98.9385 152.946 117.932 133.966 117.941 110.544C117.95 87.123 98.9699 68.1292 75.5485 68.1206C52.1271 68.1119 33.1333 87.0916 33.1247 110.513C33.116 133.934 52.0957 152.928 75.5171 152.937Z" fill="#E1E6EB"/>
<path fill-rule="evenodd" clip-rule="evenodd" d="M21.7452 91.0374C22.3561 89.4477 24.1279 88.6496 25.7027 89.2548C27.2775 89.86 28.0588 91.6393 27.4479 93.2289C17.1192 120.106 30.3304 150.19 56.956 160.421C83.5816 170.653 113.539 157.16 123.868 130.282C134.196 103.405 120.985 73.3214 94.3597 63.0895C89.2292 61.1179 83.9 59.9974 78.5207 59.7301C76.8342 59.6463 75.5431 58.2012 75.6369 56.5023C75.7308 54.8033 77.174 53.494 78.8606 53.5778C84.8794 53.8769 90.8406 55.1302 96.5719 57.3327C126.347 68.775 141.121 102.417 129.571 132.474C118.02 162.53 84.5189 177.621 54.7438 166.178C24.9686 154.736 10.1946 121.094 21.7452 91.0374Z" fill="url(#paint0_linear)"/>
<path d="M78.0434 68.6121C99.2818 69.7515 116.504 86.4539 117.98 107.677C118.396 113.654 117.53 119.427 115.616 124.732C115.047 126.309 115.719 128.1 117.247 128.79C118.784 129.482 120.601 128.798 121.189 127.219C123.497 121.027 124.549 114.263 124.062 107.254C122.374 82.981 102.68 63.8814 78.3803 62.5778C76.6995 62.4876 75.2614 63.7653 75.1684 65.4317C75.0753 67.098 76.3625 68.5219 78.0434 68.6121Z" fill="url(#paint1_linear)"/>
<path d="M47.0254 129.018L54.9713 129.021L60.5366 120.666L66.0461 129.025L73.9921 129.028L64.3626 115.281L73.7538 101.844L65.8078 101.841L60.5406 109.893L55.1801 101.837L47.2341 101.834L56.6153 115.278L47.0254 129.018Z" fill="#0B1A2F"/>
<path d="M76.9955 128.978L102.025 128.988L102.028 122.544L87.4767 122.539L95.4749 115.444C96.8991 114.186 98.0997 113.062 99.0767 112.072C100.054 111.066 100.791 109.975 101.288 108.801C101.785 107.61 102.034 106.116 102.035 104.321C102.035 101.888 101.506 99.7482 100.448 97.902C99.3889 96.0558 97.9327 94.6206 96.079 93.5963C94.2419 92.5552 92.1562 92.0343 89.8221 92.0334C87.2728 92.0325 85.0378 92.5267 83.1171 93.516C81.1965 94.5053 79.6978 95.9059 78.6211 97.7177C77.5444 99.5296 77.0056 101.677 77.0047 104.161L83.9574 104.163C83.9247 103.156 84.1485 102.225 84.6289 101.37C85.1093 100.497 85.78 99.8011 86.641 99.2812C87.5186 98.7446 88.5285 98.4765 89.6707 98.4769C91.3096 98.4775 92.6172 99.0233 93.5934 100.114C94.5863 101.189 95.0824 102.556 95.0818 104.218C95.0815 104.99 94.8495 105.82 94.3856 106.709C93.9218 107.598 93.1268 108.546 92.0008 109.553L76.9977 123.038L76.9955 128.978Z" fill="#0B1A2F"/>
<path d="M43.5105 11H44.8705V7.72L47.7405 11H49.4605L46.2605 7.35L49.2705 3.8H47.6105L44.8705 7.12V3.8H43.5105V11ZM53.3505 11.15C54.0705 11.15 54.6905 10.9933 55.2105 10.68C55.7339 10.3667 56.1355 9.92833 56.4155 9.365C56.6989 8.80167 56.8405 8.14667 56.8405 7.4C56.8405 6.65333 56.6989 5.99833 56.4155 5.435C56.1355 4.87167 55.7339 4.43333 55.2105 4.12C54.6905 3.80667 54.0705 3.65 53.3505 3.65C52.6305 3.65 52.0089 3.80667 51.4855 4.12C50.9655 4.43333 50.5639 4.87167 50.2805 5.435C50.0005 5.99833 49.8605 6.65333 49.8605 7.4C49.8605 8.14667 50.0005 8.80167 50.2805 9.365C50.5639 9.92833 50.9655 10.3667 51.4855 10.68C52.0089 10.9933 52.6305 11.15 53.3505 11.15ZM53.3505 9.87C52.6672 9.86 52.1539 9.63333 51.8105 9.19C51.4705 8.74667 51.3005 8.15 51.3005 7.4C51.3005 6.65 51.4705 6.04833 51.8105 5.595C52.1539 5.14167 52.6672 4.92 53.3505 4.93C54.0372 4.94 54.5505 5.16667 54.8905 5.61C55.2305 6.05333 55.4005 6.65 55.4005 7.4C55.4005 8.15 55.2305 8.75167 54.8905 9.205C54.5505 9.65833 54.0372 9.88 53.3505 9.87ZM58.3387 11H59.6987V8.03H62.9187V11H64.2787V3.8H62.9187V6.76H59.6987V3.8H58.3387V11ZM66.1824 11H69.3724C70.1091 11 70.6558 10.7983 71.0124 10.395C71.3724 9.98833 71.5524 9.46333 71.5524 8.82C71.5524 8.47333 71.4674 8.155 71.2974 7.865C71.1308 7.57167 70.8791 7.355 70.5424 7.215C70.7558 7.085 70.9224 6.90167 71.0424 6.665C71.1624 6.42833 71.2224 6.14667 71.2224 5.82C71.2224 5.50333 71.1491 5.19 71.0024 4.88C70.8558 4.57 70.6241 4.31333 70.3074 4.11C69.9908 3.90333 69.5758 3.8 69.0624 3.8H66.1824V11ZM67.5624 6.61V5.07H69.0424C69.3024 5.07 69.5008 5.145 69.6374 5.295C69.7741 5.445 69.8424 5.63 69.8424 5.85C69.8424 6.11333 69.7658 6.30667 69.6124 6.43C69.4624 6.55 69.2724 6.61 69.0424 6.61H67.5624ZM67.5624 9.72V7.88H69.2324C69.5491 7.88 69.7858 7.965 69.9424 8.135C70.1024 8.30167 70.1824 8.51333 70.1824 8.77C70.1824 9.06 70.0924 9.29167 69.9124 9.465C69.7358 9.635 69.5091 9.72 69.2324 9.72H67.5624ZM73.0496 11H77.7496V9.73H74.4096V7.88H77.1496V6.61H74.4096V5.07H77.7496V3.8H73.0496V11ZM79.448 11H80.808V8.56H82.488C82.5547 8.56 82.648 8.55667 82.768 8.55C82.888 8.54333 82.9947 8.53333 83.088 8.52C83.728 8.42 84.198 8.15667 84.498 7.73C84.798 7.3 84.948 6.78333 84.948 6.18C84.948 5.57333 84.7997 5.05667 84.503 4.63C84.2064 4.20333 83.7347 3.94 83.088 3.84C82.9947 3.82333 82.888 3.81333 82.768 3.81C82.6514 3.80333 82.558 3.8 82.488 3.8H79.448V11ZM80.808 7.29V5.07H82.428C82.498 5.07 82.5747 5.07333 82.658 5.08C82.7414 5.08667 82.818 5.1 82.888 5.12C83.0714 5.17 83.213 5.255 83.313 5.375C83.413 5.49167 83.4814 5.62333 83.518 5.77C83.558 5.91333 83.578 6.05 83.578 6.18C83.578 6.31 83.558 6.44833 83.518 6.595C83.4814 6.73833 83.413 6.87 83.313 6.99C83.213 7.10667 83.0714 7.19 82.888 7.24C82.818 7.26 82.7414 7.27333 82.658 7.28C82.5747 7.28667 82.498 7.29 82.428 7.29H80.808ZM89.542 11.15C90.3686 11.15 91.062 10.945 91.622 10.535C92.1853 10.125 92.582 9.57 92.812 8.87L91.442 8.49C91.3086 8.92333 91.0836 9.26167 90.767 9.505C90.4503 9.74833 90.042 9.87 89.542 9.87C88.8586 9.87 88.3436 9.64667 87.997 9.2C87.6536 8.75 87.482 8.15 87.482 7.4C87.482 6.65 87.6536 6.05167 87.997 5.605C88.3436 5.155 88.8586 4.93 89.542 4.93C90.042 4.93 90.4503 5.05167 90.767 5.295C91.0836 5.535 91.3086 5.87333 91.442 6.31L92.812 5.93C92.582 5.23 92.1853 4.675 91.622 4.265C91.062 3.855 90.3686 3.65 89.542 3.65C88.822 3.65 88.2003 3.80667 87.677 4.12C87.157 4.43333 86.7553 4.87167 86.472 5.435C86.192 5.99833 86.052 6.65333 86.052 7.4C86.052 8.14667 86.192 8.80167 86.472 9.365C86.7553 9.92833 87.157 10.3667 87.677 10.68C88.2003 10.9933 88.822 11.15 89.542 11.15ZM100.303 11H98.9229V6.2L95.7929 11H94.4129V3.8H95.7929V8.6L98.9229 3.8H100.303V11ZM107.498 11H106.138V8.56H104.623L103.438 11H101.898L103.198 8.33C102.788 8.14333 102.485 7.86167 102.288 7.485C102.095 7.105 101.998 6.67 101.998 6.18C101.998 5.57333 102.146 5.05667 102.443 4.63C102.74 4.20333 103.211 3.94 103.858 3.84C103.951 3.82333 104.056 3.81333 104.173 3.81C104.293 3.80333 104.388 3.8 104.458 3.8H107.498V11ZM106.138 7.29V5.07H104.518C104.448 5.07 104.371 5.07333 104.288 5.08C104.205 5.08667 104.128 5.1 104.058 5.12C103.875 5.17 103.733 5.255 103.633 5.375C103.533 5.49167 103.463 5.62333 103.423 5.77C103.386 5.91333 103.368 6.05 103.368 6.18C103.368 6.31 103.386 6.44833 103.423 6.595C103.463 6.73833 103.533 6.87 103.633 6.99C103.733 7.10667 103.875 7.19 104.058 7.24C104.128 7.26 104.205 7.27333 104.288 7.28C104.371 7.28667 104.448 7.29 104.518 7.29H106.138ZM36.7703 25H38.0403V20.7L40.1303 25H40.6103L42.7003 20.7V25H43.9703V17.8H42.7503L40.3703 22.58L37.9903 17.8H36.7703V25ZM48.9638 25.15C49.6838 25.15 50.3038 24.9933 50.8238 24.68C51.3472 24.3667 51.7488 23.9283 52.0288 23.365C52.3122 22.8017 52.4538 22.1467 52.4538 21.4C52.4538 20.6533 52.3122 19.9983 52.0288 19.435C51.7488 18.8717 51.3472 18.4333 50.8238 18.12C50.3038 17.8067 49.6838 17.65 48.9638 17.65C48.2438 17.65 47.6222 17.8067 47.0988 18.12C46.5788 18.4333 46.1772 18.8717 45.8938 19.435C45.6138 19.9983 45.4738 20.6533 45.4738 21.4C45.4738 22.1467 45.6138 22.8017 45.8938 23.365C46.1772 23.9283 46.5788 24.3667 47.0988 24.68C47.6222 24.9933 48.2438 25.15 48.9638 25.15ZM48.9638 23.87C48.2805 23.86 47.7672 23.6333 47.4238 23.19C47.0838 22.7467 46.9138 22.15 46.9138 21.4C46.9138 20.65 47.0838 20.0483 47.4238 19.595C47.7672 19.1417 48.2805 18.92 48.9638 18.93C49.6505 18.94 50.1638 19.1667 50.5038 19.61C50.8438 20.0533 51.0138 20.65 51.0138 21.4C51.0138 22.15 50.8438 22.7517 50.5038 23.205C50.1638 23.6583 49.6505 23.88 48.9638 23.87ZM53.952 25H56.992C57.062 25 57.1553 24.9983 57.272 24.995C57.392 24.9883 57.4986 24.98 57.592 24.97C58.0086 24.9267 58.3536 24.8 58.627 24.59C58.9036 24.3767 59.1103 24.1083 59.247 23.785C59.3836 23.4583 59.452 23.1033 59.452 22.72C59.452 22.3367 59.382 21.9833 59.242 21.66C59.1053 21.3333 58.8986 21.065 58.622 20.855C58.3486 20.6417 58.0053 20.5133 57.592 20.47C57.4986 20.46 57.392 20.4533 57.272 20.45C57.152 20.4433 57.0586 20.44 56.992 20.44H55.312V19.07H58.892V17.8H53.952V25ZM55.312 23.73V21.71H56.932C57.002 21.71 57.0786 21.7133 57.162 21.72C57.2453 21.7233 57.322 21.7333 57.392 21.75C57.6686 21.81 57.852 21.9383 57.942 22.135C58.0353 22.3283 58.082 22.5233 58.082 22.72C58.082 22.9133 58.0353 23.1083 57.942 23.305C57.852 23.5017 57.6686 23.63 57.392 23.69C57.322 23.7033 57.2453 23.7133 57.162 23.72C57.0786 23.7267 57.002 23.73 56.932 23.73H55.312ZM66.8459 25H65.4659V20.2L62.3359 25H60.9559V17.8H62.3359V22.6L65.4659 17.8H66.8459V25ZM68.241 25C68.7643 25.1033 69.1727 25.0883 69.466 24.955C69.7627 24.8217 69.9877 24.5917 70.141 24.265C70.2943 23.9383 70.4177 23.5367 70.511 23.06C70.5877 22.6933 70.6527 22.315 70.706 21.925C70.7593 21.535 70.8043 21.1583 70.841 20.795C70.8777 20.4317 70.906 20.1 70.926 19.8C70.9493 19.5 70.9677 19.2567 70.981 19.07H73.281V25H74.641V17.8H69.731C69.721 18.0167 69.706 18.3083 69.686 18.675C69.666 19.0383 69.6377 19.4417 69.601 19.885C69.5643 20.3283 69.5177 20.7817 69.461 21.245C69.4077 21.705 69.341 22.1433 69.261 22.56C69.1943 22.9133 69.121 23.1883 69.041 23.385C68.961 23.5783 68.8577 23.7117 68.731 23.785C68.6077 23.855 68.4443 23.8833 68.241 23.87V25ZM76.5357 25H79.5757C79.6457 25 79.739 24.9967 79.8557 24.99C79.9757 24.9833 80.0824 24.9733 80.1757 24.96C80.8224 24.86 81.294 24.5967 81.5907 24.17C81.8874 23.74 82.0357 23.2233 82.0357 22.62C82.0357 22.0133 81.8857 21.4967 81.5857 21.07C81.2857 20.6433 80.8157 20.38 80.1757 20.28C80.0824 20.2633 79.9757 20.2533 79.8557 20.25C79.7357 20.2433 79.6424 20.24 79.5757 20.24H77.8957V17.8H76.5357V25ZM77.8957 23.73V21.51H79.5157C79.5857 21.51 79.6624 21.5133 79.7457 21.52C79.829 21.5267 79.9057 21.54 79.9757 21.56C80.159 21.61 80.3007 21.695 80.4007 21.815C80.5007 21.9317 80.569 22.0633 80.6057 22.21C80.6457 22.3533 80.6657 22.49 80.6657 22.62C80.6657 22.75 80.6457 22.8883 80.6057 23.035C80.569 23.1783 80.5007 23.31 80.4007 23.43C80.3007 23.5467 80.159 23.63 79.9757 23.68C79.9057 23.7 79.829 23.7133 79.7457 23.72C79.6624 23.7267 79.5857 23.73 79.5157 23.73H77.8957ZM83.6375 25H84.9975V22.03H88.2175V25H89.5775V17.8H88.2175V20.76H84.9975V17.8H83.6375V25ZM94.5713 25.15C95.2913 25.15 95.9113 24.9933 96.4312 24.68C96.9546 24.3667 97.3563 23.9283 97.6363 23.365C97.9196 22.8017 98.0613 22.1467 98.0613 21.4C98.0613 20.6533 97.9196 19.9983 97.6363 19.435C97.3563 18.8717 96.9546 18.4333 96.4312 18.12C95.9113 17.8067 95.2913 17.65 94.5713 17.65C93.8513 17.65 93.2296 17.8067 92.7063 18.12C92.1863 18.4333 91.7846 18.8717 91.5013 19.435C91.2213 19.9983 91.0813 20.6533 91.0813 21.4C91.0813 22.1467 91.2213 22.8017 91.5013 23.365C91.7846 23.9283 92.1863 24.3667 92.7063 24.68C93.2296 24.9933 93.8513 25.15 94.5713 25.15ZM94.5713 23.87C93.8879 23.86 93.3746 23.6333 93.0313 23.19C92.6913 22.7467 92.5213 22.15 92.5213 21.4C92.5213 20.65 92.6913 20.0483 93.0313 19.595C93.3746 19.1417 93.8879 18.92 94.5713 18.93C95.2579 18.94 95.7713 19.1667 96.1113 19.61C96.4513 20.0533 96.6213 20.65 96.6213 21.4C96.6213 22.15 96.4513 22.7517 96.1113 23.205C95.7713 23.6583 95.2579 23.88 94.5713 23.87ZM99.5594 25H100.919V19.07H104.259V17.8H99.5594V25ZM108.647 25.15C109.367 25.15 109.987 24.9933 110.507 24.68C111.031 24.3667 111.432 23.9283 111.712 23.365C111.996 22.8017 112.137 22.1467 112.137 21.4C112.137 20.6533 111.996 19.9983 111.712 19.435C111.432 18.8717 111.031 18.4333 110.507 18.12C109.987 17.8067 109.367 17.65 108.647 17.65C107.927 17.65 107.306 17.8067 106.782 18.12C106.262 18.4333 105.861 18.8717 105.577 19.435C105.297 19.9983 105.157 20.6533 105.157 21.4C105.157 22.1467 105.297 22.8017 105.577 23.365C105.861 23.9283 106.262 24.3667 106.782 24.68C107.306 24.9933 107.927 25.15 108.647 25.15ZM108.647 23.87C107.964 23.86 107.451 23.6333 107.107 23.19C106.767 22.7467 106.597 22.15 106.597 21.4C106.597 20.65 106.767 20.0483 107.107 19.595C107.451 19.1417 107.964 18.92 108.647 18.93C109.334 18.94 109.847 19.1667 110.187 19.61C110.527 20.0533 110.697 20.65 110.697 21.4C110.697 22.15 110.527 22.7517 110.187 23.205C109.847 23.6583 109.334 23.88 108.647 23.87ZM52.9315 39H54.2915V33.07H56.5615V31.8H50.6615V33.07H52.9315V39ZM57.865 39H59.225V36.56H60.905C60.9717 36.56 61.065 36.5567 61.185 36.55C61.305 36.5433 61.4117 36.5333 61.505 36.52C62.145 36.42 62.615 36.1567 62.915 35.73C63.215 35.3 63.365 34.7833 63.365 34.18C63.365 33.5733 63.2167 33.0567 62.92 32.63C62.6234 32.2033 62.1517 31.94 61.505 31.84C61.4117 31.8233 61.305 31.8133 61.185 31.81C61.0684 31.8033 60.975 31.8 60.905 31.8H57.865V39ZM59.225 35.29V33.07H60.845C60.915 33.07 60.9917 33.0733 61.075 33.08C61.1584 33.0867 61.235 33.1 61.305 33.12C61.4884 33.17 61.63 33.255 61.73 33.375C61.83 33.4917 61.8984 33.6233 61.935 33.77C61.975 33.9133 61.995 34.05 61.995 34.18C61.995 34.31 61.975 34.4483 61.935 34.595C61.8984 34.7383 61.83 34.87 61.73 34.99C61.63 35.1067 61.4884 35.19 61.305 35.24C61.235 35.26 61.1584 35.2733 61.075 35.28C60.9917 35.2867 60.915 35.29 60.845 35.29H59.225ZM63.7732 39H65.1732L65.6282 37.5H68.3382L68.8032 39H70.2032L68.0032 31.8H65.9732L63.7732 39ZM66.0132 36.23L66.9732 33.075L67.9482 36.23H66.0132ZM73.7641 39H75.1141V37.95C75.6074 38.0333 76.0641 37.9817 76.4841 37.795C76.9041 37.6083 77.2424 37.2967 77.4991 36.86C77.7558 36.42 77.8841 35.8667 77.8841 35.2C77.8841 34.5333 77.7558 33.9767 77.4991 33.53C77.2424 33.0833 76.9041 32.7633 76.4841 32.57C76.0641 32.3733 75.6074 32.3167 75.1141 32.4V31.8H73.7641V32.4C73.2708 32.3167 72.8141 32.3733 72.3941 32.57C71.9774 32.7633 71.6408 33.0833 71.3841 33.53C71.1308 33.9767 71.0041 34.5333 71.0041 35.2C71.0041 35.8667 71.1308 36.42 71.3841 36.86C71.6408 37.2967 71.9774 37.6083 72.3941 37.795C72.8141 37.9817 73.2708 38.0333 73.7641 37.95V39ZM73.7641 36.71C73.4808 36.7533 73.2474 36.7383 73.0641 36.665C72.8841 36.5917 72.7441 36.4783 72.6441 36.325C72.5474 36.1683 72.4791 35.9917 72.4391 35.795C72.4024 35.5983 72.3841 35.4 72.3841 35.2C72.3841 35 72.4024 34.7983 72.4391 34.595C72.4791 34.3883 72.5474 34.205 72.6441 34.045C72.7441 33.8817 72.8841 33.7583 73.0641 33.675C73.2474 33.5917 73.4808 33.5733 73.7641 33.62V36.71ZM75.1141 36.71V33.62C75.3974 33.5733 75.6291 33.5967 75.8091 33.69C75.9891 33.78 76.1291 33.9117 76.2291 34.085C76.3324 34.255 76.4041 34.4433 76.4441 34.65C76.4841 34.8567 76.5041 35.0533 76.5041 35.24C76.5041 35.4267 76.4841 35.6167 76.4441 35.81C76.4041 36 76.3324 36.1717 76.2291 36.325C76.1291 36.475 75.9891 36.5883 75.8091 36.665C75.6291 36.7383 75.3974 36.7533 75.1141 36.71ZM85.2746 39H83.8946V34.2L80.7646 39H79.3846V31.8H80.7646V36.6L83.8946 31.8H85.2746V39ZM87.1697 39H88.5297V35.72L91.3997 39H93.1197L89.9197 35.35L92.9297 31.8H91.2697L88.5297 35.12V31.8H87.1697V39ZM93.8201 39H95.2201L95.6751 37.5H98.3851L98.8501 39H100.25L98.0501 31.8H96.0201L93.8201 39ZM96.0601 36.23L97.0201 33.075L97.9951 36.23H96.0601Z" fill="black"/>
<defs>
<linearGradient id="paint0_linear" x1="108.305" y1="-24.5152" x2="-60.3006" y2="59.8196" gradientUnits="userSpaceOnUse">
<stop stop-color="#3036F5"/>
<stop offset="0.624551" stop-color="#EF30F5"/>
<stop offset="1" stop-color="#FCA7FF"/>
</linearGradient>
<linearGradient id="paint1_linear" x1="156.655" y1="112.842" x2="94.1783" y2="51.2978" gradientUnits="userSpaceOnUse">
<stop stop-color="#FF8F6F"/>
<stop offset="0.479439" stop-color="#F5BD30"/>
<stop offset="1" stop-color="#FAEC45"/>
</linearGradient>
</defs>
</svg>
