<svg width="23" height="36" viewBox="0 0 23 36" fill="none" xmlns="http://www.w3.org/2000/svg">
<path fill-rule="evenodd" clip-rule="evenodd" d="M11.5 2C6.25329 2 2 6.25329 2 11.5V24.5C2 29.7467 6.25329 34 11.5 34C16.7467 34 21 29.7467 21 24.5V11.5C21 6.25329 16.7467 2 11.5 2ZM0 11.5C0 5.14873 5.14873 0 11.5 0C17.8513 0 23 5.14873 23 11.5V24.5C23 30.8513 17.8513 36 11.5 36C5.14873 36 0 30.8513 0 24.5V11.5Z" fill="white"/>
<path fill-rule="evenodd" clip-rule="evenodd" d="M10.5342 24.5808V12.9658H12.5342V24.5808H10.5342Z" fill="white"/>
</svg>
