<svg width="193" height="32" viewBox="0 0 193 32" fill="none" xmlns="http://www.w3.org/2000/svg">
<path d="M22.474 30.6741H20.2493L14.7062 13.4117H14.5734L9.02909 30.6741H6.80563L0 6.90527H2.22466L7.9018 27.1223H8.03464L13.5789 10.092H15.7031L21.2474 27.1223H21.3802L26.7917 6.90527H29.0164L22.474 30.6741Z" fill="white"/>
<path d="M33.9262 8.93009V17.7928H44.1508V19.7841H33.9262V28.6481H45.2134V30.6729H31.8008V6.90527H45.2122V8.93009H33.9262Z" fill="white"/>
<path d="M49.2954 6.90527H57.6938C58.5782 6.90527 59.4195 7.06085 60.2165 7.36959C61.0135 7.67954 61.7159 8.11155 62.3239 8.66442C62.9318 9.21849 63.4141 9.87668 63.7683 10.6389C64.1225 11.4024 64.2996 12.2377 64.2996 13.1448C64.2996 14.3403 63.9897 15.3803 63.3698 16.2658C62.7499 17.1514 61.9314 17.8371 60.913 18.3241V18.457C62.13 18.8339 63.1316 19.5244 63.9167 20.532C64.7017 21.5397 65.0954 22.7064 65.0954 24.0348C65.0954 25.0089 64.9075 25.9052 64.5306 26.7238C64.1536 27.5423 63.651 28.246 63.0203 28.8323C62.3897 29.4187 61.6477 29.8723 60.7957 30.193C59.9436 30.5137 59.0533 30.6741 58.1235 30.6741H49.293V6.90527H49.2954ZM57.6603 17.5283C58.346 17.5283 58.9659 17.4075 59.5188 17.1633C60.0717 16.9204 60.548 16.5985 60.9465 16.2012C61.345 15.8027 61.6489 15.3432 61.8595 14.8238C62.0702 14.3044 62.1755 13.7671 62.1755 13.2142C62.1755 12.6614 62.0702 12.13 61.8595 11.6202C61.6489 11.1116 61.3498 10.6581 60.9632 10.2596C60.5755 9.86112 60.1172 9.54041 59.5858 9.29748C59.0545 9.05455 58.4573 8.93248 57.7932 8.93248H51.4195V17.5307H57.6603V17.5283ZM58.358 28.6493C58.9994 28.6493 59.5966 28.5284 60.1507 28.2843C60.7035 28.0413 61.1906 27.7086 61.6118 27.2886C62.0319 26.8686 62.3586 26.3815 62.5907 25.8274C62.8229 25.2746 62.939 24.6882 62.939 24.0683C62.939 23.4496 62.8169 22.868 62.574 22.3259C62.3299 21.7838 61.9984 21.3027 61.5783 20.8815C61.1571 20.4614 60.6593 20.1288 60.0848 19.8858C59.5092 19.6429 58.8893 19.5208 58.2264 19.5208H51.4207V28.6504H58.358V28.6493Z" fill="white"/>
<path d="M77.8121 31.2048C75.5994 31.2048 73.6906 30.6124 72.0858 29.4289C70.4811 28.2454 69.3466 26.5461 68.6836 24.3334L73.5638 22.4079C73.851 23.5364 74.3273 24.4662 74.9914 25.1962C75.6556 25.9262 76.5962 26.2912 77.8132 26.2912C78.2117 26.2912 78.5935 26.2469 78.9585 26.1583C79.3235 26.0698 79.6442 25.9322 79.9206 25.7431C80.1971 25.5552 80.4232 25.3171 80.6016 25.0298C80.7787 24.7426 80.8672 24.41 80.8672 24.0342C80.8672 23.6584 80.7954 23.309 80.6518 22.9883C80.507 22.6676 80.2701 22.3696 79.9386 22.0919C79.6071 21.8155 79.1631 21.5391 78.6102 21.2614C78.0562 20.985 77.3597 20.6918 76.5184 20.3819L75.0572 19.8505C74.4374 19.6291 73.8007 19.3252 73.1485 18.9375C72.4951 18.5509 71.9039 18.0806 71.3726 17.5265C70.8413 16.9737 70.4105 16.337 70.0778 15.6178C69.7463 14.8986 69.58 14.0968 69.58 13.2112C69.58 12.2599 69.7678 11.3635 70.1448 10.5223C70.5206 9.68094 71.0519 8.95694 71.7376 8.34782C72.4233 7.7399 73.2538 7.25763 74.2267 6.90341C75.2009 6.54918 76.2731 6.37207 77.4471 6.37207C78.6856 6.37207 79.7483 6.53243 80.6339 6.85315C81.5182 7.17386 82.271 7.58313 82.8908 8.08096C83.5107 8.57879 84.0026 9.13764 84.3676 9.75753C84.7326 10.3775 85.015 10.9746 85.2136 11.5502L80.732 13.4422C80.4879 12.7338 80.1013 12.1641 79.57 11.7321C79.0387 11.3001 78.353 11.0847 77.5117 11.0847C76.6261 11.0847 75.9237 11.2678 75.4043 11.6328C74.8837 11.9978 74.624 12.4681 74.624 13.0437C74.624 13.6409 74.8897 14.1722 75.421 14.6377C75.9524 15.102 76.893 15.5675 78.2429 16.0319L79.704 16.5297C81.7181 17.2154 83.2774 18.1345 84.3843 19.2845C85.4913 20.4357 86.0441 21.9842 86.0441 23.9325C86.0441 25.1723 85.7952 26.2457 85.2974 27.1528C84.7996 28.0599 84.1569 28.8126 83.3719 29.4098C82.5857 30.0069 81.7001 30.4557 80.7164 30.7537C79.7316 31.0564 78.7634 31.2048 77.8121 31.2048Z" fill="white"/>
<path d="M94.112 30.6741V11.8177H87.4727V6.90527H105.929V11.8177H99.2901V30.6729H94.112V30.6741Z" fill="white"/>
<path d="M119.14 31.2041C117.347 31.2041 115.687 30.8834 114.16 30.242C112.633 29.6005 111.311 28.721 110.193 27.6032C109.076 26.4855 108.202 25.1751 107.571 23.6697C106.941 22.1654 106.625 20.5379 106.625 18.7896C106.625 17.0412 106.941 15.4149 107.571 13.9094C108.202 12.4052 109.076 11.0936 110.193 9.97586C111.311 8.85815 112.633 7.97857 114.16 7.33714C115.687 6.69571 117.347 6.375 119.14 6.375C120.932 6.375 122.592 6.69571 124.119 7.33714C125.646 7.97977 126.969 8.85934 128.086 9.97586C129.204 11.0936 130.078 12.4052 130.708 13.9094C131.339 15.4149 131.655 17.0412 131.655 18.7896C131.655 20.5379 131.34 22.1642 130.708 23.6697C130.078 25.1751 129.203 26.4867 128.086 27.6032C126.969 28.721 125.646 29.6005 124.119 30.242C122.592 30.8834 120.932 31.2041 119.14 31.2041ZM119.14 26.2917C120.157 26.2917 121.114 26.1145 122.012 25.7603C122.908 25.4061 123.688 24.8975 124.353 24.2333C125.017 23.5692 125.536 22.7781 125.913 21.8603C126.289 20.9424 126.478 19.918 126.478 18.7896C126.478 17.6611 126.29 16.6379 125.913 15.7188C125.536 14.801 125.017 14.0087 124.353 13.3458C123.688 12.6828 122.908 12.173 122.012 11.8188C121.116 11.4646 120.158 11.2874 119.14 11.2874C118.1 11.2874 117.137 11.4646 116.252 11.8188C115.367 12.173 114.592 12.6816 113.928 13.3458C113.264 14.0099 112.745 14.801 112.368 15.7188C111.991 16.6379 111.803 17.6611 111.803 18.7896C111.803 19.918 111.991 20.9424 112.368 21.8603C112.743 22.7793 113.264 23.5704 113.928 24.2333C114.592 24.8963 115.367 25.4061 116.252 25.7603C117.137 26.1145 118.1 26.2917 119.14 26.2917Z" fill="white"/>
<path d="M135 7H143.963C145.246 7 146.397 7.19387 147.416 7.5804C148.433 7.96813 149.291 8.50426 149.989 9.18996C150.686 9.87567 151.216 10.6895 151.583 11.6301C151.948 12.5707 152.131 13.5938 152.131 14.7008C152.131 15.4763 152.003 16.1943 151.749 16.8584C151.494 17.5226 151.152 18.1365 150.72 18.7014C150.288 19.2662 149.785 19.764 149.21 20.1948C148.634 20.6268 148.014 20.9859 147.351 21.2743V21.5734L153.558 30.4362V30.7677H147.649L141.64 22.2029H140.179V30.7677H135.001V7H135ZM143.963 17.4233C144.893 17.4233 145.623 17.1528 146.154 16.6095C146.686 16.0674 146.951 15.3973 146.951 14.6015C146.951 13.8057 146.702 13.1355 146.205 12.5934C145.707 12.0513 144.96 11.7796 143.964 11.7796H140.18V17.4233H143.963Z" fill="white"/>
<path d="M161.23 19.619L153.23 6.90527H159.471L163.654 13.876H163.985L167.969 6.90527H174.277L166.41 19.619V30.6729H161.232V19.619H161.23Z" fill="white"/>
<path d="M175.075 25.4948L186.826 11.8177H175.606V6.90527H192.868V12.0833L181.315 25.7604H193V30.6729H175.075V25.4948Z" fill="white"/>
<path d="M7.99919 0.571289H0.0351562V1.76799H7.99919V0.571289Z" fill="white"/>
<path d="M29.0499 0.571289H21.0859V1.76799H29.0499V0.571289Z" fill="white" fill-opacity="0.2"/>
<path opacity="0.6" d="M18.1345 0.571289H10.8945V1.76799H18.1345V0.571289Z" fill="white" fill-opacity="0.6"/>
</svg>
