<svg width="127" height="24" viewBox="0 0 127 24" fill="none" xmlns="http://www.w3.org/2000/svg">
<g opacity="0.4">
<path d="M13 16.4512H14.8453V9.13898H21V7.45117H13V16.4512Z" fill="#3B3952"/>
<path d="M25.5571 8.2893C25.6232 10.5892 25.232 13.358 24.8076 14.0865C24.3447 14.8747 23.9699 14.8248 23.259 14.8148C23.1708 14.8148 23.0882 14.8148 23 14.8148V16.4512C23.0772 16.4512 23.1543 16.4512 23.2314 16.4512C23.3141 16.4512 23.3968 16.4512 23.485 16.4512C24.3226 16.4512 25.4579 16.4063 26.2846 14.9695C27.0175 13.6973 27.2325 10.7089 27.2325 9.08254H32.1924V16.1718H34V7.45117H25.5406L25.5571 8.2893Z" fill="#3B3952"/>
<path d="M41.8452 7.45117L39 16.4512H40.8896L41.3758 14.9023H48.6241L49.1103 16.4512H51L48.1601 7.45117H41.8452ZM41.9172 13.2144L43.2046 9.13384H46.8123L48.0992 13.2144H41.9172Z" fill="#3B3952"/>
<path d="M95.327 7.45117H88.6675L86.3679 14.7633H85V16.4512H99V14.7633H97.6321L95.327 7.45117ZM90.0936 9.13898H93.8949L95.6407 14.7633H88.3473L90.0936 9.13898Z" fill="#3B3952"/>
<path d="M104.846 7.45117L102 16.4512H103.89L104.376 14.9023H111.624L112.11 16.4512H114L111.16 7.45117H104.846ZM104.917 13.2144L106.204 9.13898H109.812L111.1 13.2196H104.917V13.2144Z" fill="#3B3952"/>
<path d="M65.6009 11.6567C66.3433 11.0877 66.4926 10.3951 66.4926 9.93991C66.4926 9.31152 66.1269 8.18342 63.6757 7.7035C62.518 7.4759 61.2489 7.45117 60.4015 7.45117C58.9464 7.45117 56.6625 7.61443 56.291 7.63915H56V16.2928H56.3033C56.6439 16.3126 59.0275 16.4512 60.7106 16.4512C65.91 16.4512 67 14.8134 67 13.438C67 12.9086 66.7463 12.4286 66.2757 12.0526C66.0774 11.9042 65.8546 11.7705 65.6009 11.6567ZM64.4619 9.93991C64.4619 10.7068 63.3357 11.0234 60.5683 11.0234H58.0308V9.1581C58.8041 9.11365 59.7139 9.07403 60.4015 9.07403C63.6074 9.07403 64.4619 9.6183 64.4619 9.93991ZM60.7106 14.8332C59.8935 14.8332 58.8723 14.7986 58.0366 14.759V12.6463H60.5374C60.5561 12.6463 60.5806 12.6463 60.6056 12.6463C60.7351 12.6463 60.878 12.6463 61.0203 12.6463C63.0878 12.6463 64.375 12.8343 64.8456 13.2104C64.9383 13.2796 64.9692 13.3439 64.9692 13.4429C64.9692 14.5908 62.6545 14.8332 60.7106 14.8332Z" fill="#3B3952"/>
<path d="M72 7.45117V16.4512H81V14.7633H73.9635V13.2401H79.0421V11.5523H73.9635V9.13898H81V7.45117H72Z" fill="#3B3952"/>
<path d="M114.26 0.451172H12.7452C5.71733 0.451172 0 5.60989 0 11.9512C0 18.2925 5.71733 23.4512 12.7452 23.4512H114.254C121.283 23.4512 127 18.2925 127 11.9512C127 5.60989 121.289 0.451172 114.26 0.451172ZM114.26 21.7626H12.7452C6.75317 21.7626 1.87715 17.3629 1.87715 11.9564C1.87715 6.54973 6.75317 2.14492 12.7452 2.14492H114.254C120.247 2.14492 125.123 6.54456 125.123 11.9512C125.123 17.3578 120.253 21.7626 114.26 21.7626Z" fill="#3B3952"/>
</g>
</svg>
